<svg xmlns="http://www.w3.org/2000/svg" xmlns:xlink="http://www.w3.org/1999/xlink" width="255" height="255" viewBox="0 0 255 255">
  <defs>
    <linearGradient id="linear-gradient" x1="0.5" x2="0.5" y2="1" gradientUnits="objectBoundingBox">
      <stop offset="0" stop-color="#b1317f"/>
      <stop offset="0.166" stop-color="#9d2e78"/>
      <stop offset="0.531" stop-color="#752969"/>
      <stop offset="0.822" stop-color="#5d2560"/>
      <stop offset="1" stop-color="#54245d"/>
    </linearGradient>
  </defs>
  <g id="agilite-grp" transform="translate(0 -70.563)">
    <g id="Ellipse_157" data-name="Ellipse 157" transform="translate(0 70.563)" stroke="#707070" stroke-width="1" fill="url(#linear-gradient)">
      <circle cx="127.5" cy="127.5" r="127.5" stroke="none"/>
      <circle cx="127.5" cy="127.5" r="127" fill="none"/>
    </g>
    <g id="Agilité" transform="translate(59.324 130.236)">
      <path id="Path_1861" data-name="Path 1861" d="M499.259,106.018A18.009,18.009,0,1,0,481.25,88.009a18.009,18.009,0,0,0,18.009,18.009Zm0-31.516a13.507,13.507,0,1,1-13.507,13.507A13.507,13.507,0,0,1,499.259,74.5Z" transform="translate(-381.378 -70)" fill="#fff"/>
      <path id="Path_1862" data-name="Path 1862" d="M531.254,110.745l-3.185-3.185-11.914,11.917-2.91-2.912-3.185,3.185,6.095,6.092Z" transform="translate(-402.776 -97.897)" fill="#fff"/>
      <path id="Path_1863" data-name="Path 1863" d="M259.016,218.75a31.516,31.516,0,1,0,31.516,31.516A31.516,31.516,0,0,0,259.016,218.75Zm26.9,33.767a26.888,26.888,0,0,1-6.293,15.179l-3.087-3.087-3.182,3.182,3.087,3.087a26.868,26.868,0,0,1-15.179,6.29v-4.392h-4.5v4.386a26.867,26.867,0,0,1-15.179-6.29l3.087-3.087-3.182-3.182-3.087,3.087a26.872,26.872,0,0,1-6.293-15.179h4.392v-4.5h-4.379a26.867,26.867,0,0,1,6.29-15.179l3.087,3.087,3.182-3.182-3.087-3.087a26.877,26.877,0,0,1,15.179-6.293v4.392h4.5v-4.379a26.867,26.867,0,0,1,15.179,6.29l-3.087,3.087,3.182,3.182,3.087-3.087a26.877,26.877,0,0,1,6.293,15.179h-4.4v4.5Z" transform="translate(-191.071 -182.321)" fill="#fff"/>
      <path id="Path_1864" data-name="Path 1864" d="M312.908,297.4a6.662,6.662,0,0,0-2.894.677l-6.771-6.771-3.182,3.182,6.771,6.771a6.641,6.641,0,0,0-.677,2.894,6.743,6.743,0,0,0,4.5,6.339v4.916h4.5V310.5a6.738,6.738,0,0,0-2.251-13.093Zm0,9a2.251,2.251,0,1,1,2.251-2.251A2.251,2.251,0,0,1,312.908,306.409Z" transform="translate(-244.87 -236.188)" fill="#fff"/>
      <path id="Path_1865" data-name="Path 1865" d="M251.742,229.023a38.577,38.577,0,0,0,4-9.624l5.629-1.875V201.453l-5.626-1.878a38.6,38.6,0,0,0-4-9.624l2.655-5.313-11.351-11.351-5.315,2.658a38.586,38.586,0,0,0-9.624-4l-1.878-5.629H210.148l-1.875,5.626a38.565,38.565,0,0,0-9.624,4l-5.313-2.655-11.351,11.351,2.638,5.305a38.567,38.567,0,0,0-4,9.624L175,201.451v16.066l5.629,1.878a38.495,38.495,0,0,0,4,9.623l-2.658,5.327,11.351,11.363,5.315-2.655a38.494,38.494,0,0,0,9.624,3.995l1.875,5.629H226.2l1.878-5.626a38.509,38.509,0,0,0,9.624-4l5.337,2.643,11.351-11.351Zm-9.557,11.42-4.688-2.337-1.027.644a34.221,34.221,0,0,1-10.539,4.372l-1.182.271-1.653,4.955h-9.848L211.6,243.4l-1.182-.271a34.239,34.239,0,0,1-10.537-4.373l-1.029-.644-4.688,2.337-6.959-6.959,2.339-4.688-.644-1.027a34.166,34.166,0,0,1-4.375-10.539l-.269-1.182L179.3,214.4v-9.836l4.955-1.651.269-1.182a34.225,34.225,0,0,1,4.375-10.539l.661-1.014-2.339-4.688,6.959-6.959,4.688,2.337,1.029-.644a34.181,34.181,0,0,1,10.537-4.372l1.182-.271,1.653-4.952h9.843l1.653,4.952,1.18.271a34.256,34.256,0,0,1,10.539,4.372l1.026.644,4.688-2.337,6.946,6.959-2.337,4.688.644,1.027a34.284,34.284,0,0,1,4.375,10.539l.269,1.182,4.952,1.653v9.831l-4.952,1.651-.269,1.182a34.347,34.347,0,0,1-4.375,10.539l-.644,1.026,2.339,4.688Z" transform="translate(-150.238 -141.54)" fill="#fff"/>
      <path id="Path_1866" data-name="Path 1866" d="M542.5,262.5H547V267h-4.5Z" transform="translate(-426.87 -214.325)" fill="#fff"/>
      <path id="Path_1867" data-name="Path 1867" d="M542.5,227.5H547V232h-4.5Z" transform="translate(-426.87 -188.084)" fill="#fff"/>
      <path id="Path_1868" data-name="Path 1868" d="M509.955,297.5h-4.5v51.776H492.62L507.7,376.423l15.081-27.147h-12.83ZM507.7,367.151l-7.43-13.378h14.857Z" transform="translate(-389.823 -242.651)" fill="#fff"/>
      <path id="Path_1869" data-name="Path 1869" d="M96.759,472.5a18.009,18.009,0,1,0,18.009,18.009A18.009,18.009,0,0,0,96.759,472.5Zm0,31.516a13.507,13.507,0,1,1,13.507-13.507A13.507,13.507,0,0,1,96.759,504.016Z" transform="translate(-78.75 -372.628)" fill="#fff"/>
      <path id="Path_1870" data-name="Path 1870" d="M107.56,518.977l3.182,3.182,11.914-11.914,2.91,2.91,3.185-3.182-6.095-6.092Z" transform="translate(-100.148 -395.935)" fill="#fff"/>
      <path id="Path_1871" data-name="Path 1871" d="M140,402.5h4.5V407H140Z" transform="translate(-124.242 -319.288)" fill="#fff"/>
      <path id="Path_1872" data-name="Path 1872" d="M140,437.5h4.5V442H140Z" transform="translate(-124.242 -345.529)" fill="#fff"/>
      <path id="Path_1873" data-name="Path 1873" d="M102.953,157.153h4.5V105.377h12.83L105.2,78.23,90.12,105.377h12.833ZM105.2,87.5l7.427,13.378H97.774Z" transform="translate(-87.195 -76.113)" fill="#fff"/>
    </g>
  </g>
</svg>
