<svg xmlns="http://www.w3.org/2000/svg" width="2318.097" height="1353.759" viewBox="0 0 2318.097 1353.759">
  <g id="Backgound" transform="translate(-31.864 -60.978)" opacity="0.03">
    <path id="Shape" d="M241.64-1.265C380.3-1.992,481.025,105.145,480.331,237.96S361.41,495.479,239.127,479.7-18.789,385.765.436,240.473,102.983-.539,241.64-1.265Z" transform="matrix(0.777, -0.629, 0.629, 0.777, 33.748, 708.149)" fill="#707070"/>
    <path id="Shape-2" data-name="Shape" d="M50.332-.264c28.88-.151,49.861,22.176,49.717,49.852s-24.77,53.665-50.24,50.376S-3.913,80.389.091,50.112,21.451-.112,50.332-.264Z" transform="matrix(0.777, -0.629, 0.629, 0.777, 52.947, 909.824)" fill="#707070"/>
    <path id="Shape-3" data-name="Shape" d="M126.972-.665C199.832-1.046,252.76,55.276,252.4,125.1S189.907,260.48,125.651,252.183-9.875,202.8.229,126.419,54.114-.283,126.972-.665Z" transform="matrix(0.777, -0.629, 0.629, 0.777, 1124.235, 1157.9)" fill="#707070"/>
    <path id="Shape-4" data-name="Shape" d="M50.332-.264c28.88-.151,49.861,22.176,49.717,49.852s-24.77,53.665-50.24,50.376S-3.913,80.389.091,50.112,21.451-.112,50.332-.264Z" transform="matrix(0.777, -0.629, 0.629, 0.777, 577.342, 584.002)" fill="#707070"/>
    <path id="Shape-5" data-name="Shape" d="M97.424-.263c55.746-.292,96.244,42.8,95.965,96.226S145.576,199.549,96.413,193.2-7.283,155.416.446,96.974,41.676.029,97.424-.263Z" transform="matrix(0.777, -0.629, 0.629, 0.777, 1519.849, 1186.275)" fill="#707070"/>
    <path id="Shape-6" data-name="Shape" d="M50.332-.264c28.88-.151,49.861,22.176,49.717,49.852s-24.77,53.665-50.24,50.376S-3.913,80.389.091,50.112,21.451-.112,50.332-.264Z" transform="matrix(0.777, -0.629, 0.629, 0.777, 819.783, 1193.235)" fill="#707070"/>
    <path id="Shape-7" data-name="Shape" d="M22.877-.117a22.107,22.107,0,0,1,22.6,22.66c-.066,12.58-11.259,24.393-22.837,22.9s-24.418-8.9-22.6-22.66S9.75-.048,22.877-.117Z" transform="matrix(0.777, -0.629, 0.629, 0.777, 698.514, 561.682)" fill="#707070"/>
    <path id="Shape-8" data-name="Shape" d="M126.9-.665c47.733-.25,76.3,71.543,82.7,129.48S165.43,239.941,103.912,234.333-.982,187.89-.679,129.917,79.167-.415,126.9-.665Z" transform="matrix(0.777, -0.629, 0.629, 0.777, 32.812, 1195.99)" fill="#707070"/>
    <path id="Shape-9" data-name="Shape" d="M85.673-.756C133.1-3.766,167.265,31.337,171.093,80.7s-38.9,88.954-86.275,82.354S2.7,128.539-.6,81.6,38.247,2.253,85.673-.756Z" transform="matrix(0.777, -0.629, 0.629, 0.777, 70.35, 393.064)" fill="#707070"/>
    <path id="Shape-10" data-name="Shape" d="M201.679-.684c111.15-7.361,191.2,78.833,200.14,200.014S310.6,417.68,199.578,401.451,7.14,316.676-.562,201.437,90.53,6.676,201.679-.684Z" transform="matrix(0.777, -0.629, 0.629, 0.777, 1783.497, 1100.751)" fill="#707070"/>
    <path id="Shape-11" data-name="Shape" d="M100.328-.34C155.622-4,195.443,38.876,199.891,99.16S154.515,207.781,99.283,199.708,3.552,157.535-.28,100.208,45.035,3.321,100.328-.34Z" transform="matrix(0.777, -0.629, 0.629, 0.777, 399.951, 389.982)" fill="#707070"/>
    <path id="Shape-12" data-name="Shape" d="M100.328-.34C155.622-4,195.443,38.876,199.891,99.16S154.515,207.781,99.283,199.708,3.552,157.535-.28,100.208,45.035,3.321,100.328-.34Z" transform="matrix(0.777, -0.629, 0.629, 0.777, 1550.182, 410.918)" fill="#707070"/>
    <path id="Shape-13" data-name="Shape" d="M25.069-.085C38.884-1,48.835,9.713,49.945,24.776S38.608,51.917,24.808,49.9.888,39.362-.07,25.039,11.254.83,25.069-.085Z" transform="matrix(0.777, -0.629, 0.629, 0.777, 1900.829, 204.551)" fill="#707070"/>
    <path id="Shape-14" data-name="Shape" d="M12.538-.043c6.908-.458,11.883,4.9,12.438,12.43S19.3,25.958,12.408,24.954.444,19.681-.035,12.519,5.626.415,12.538-.043Z" transform="matrix(0.777, -0.629, 0.629, 0.777, 717.424, 76.773)" fill="#707070"/>
    <path id="Shape-15" data-name="Shape" d="M76.345-.259c42.075-2.786,72.377,29.841,75.762,75.713s-34.53,82.654-76.557,76.51S2.7,119.874-.213,76.252,34.269,2.527,76.345-.259Z" transform="matrix(0.777, -0.629, 0.629, 0.777, 698.892, 366.718)" fill="#707070"/>
    <path id="Shape-16" data-name="Shape" d="M25.069-.085C38.884-1,48.835,9.713,49.945,24.776S38.608,51.917,24.808,49.9.888,39.362-.07,25.039,11.254.83,25.069-.085Z" transform="matrix(0.777, -0.629, 0.629, 0.777, 84.471, 539.413)" fill="#707070"/>
    <path id="Shape-17" data-name="Shape" d="M25.176.155C39.042-.625,49.138,10.139,50.4,25.148S39.271,52.067,25.392,49.927,1.269,39.2.169,24.933,11.31.934,25.176.155Z" transform="matrix(-0.454, -0.891, 0.891, -0.454, 1022.591, 351.217)" fill="#707070"/>
    <path id="Shape-18" data-name="Shape" d="M76.345-.259c42.075-2.786,72.377,29.841,75.762,75.713s-34.53,82.654-76.557,76.51S2.7,119.874-.213,76.252,34.269,2.527,76.345-.259Z" transform="matrix(0.777, -0.629, 0.629, 0.777, 384.331, 1259.99)" fill="#707070"/>
    <path id="Shape-19" data-name="Shape" d="M154.143,581.028c85.86-.45,142.066-69.793,156.277-156.623s.983-188.074,1.414-270.635S248.545-1.7,157.186-1.224-7.832,72.722.909,155.4-9.212,336.79-.505,426.034,68.284,581.478,154.143,581.028Z" transform="translate(1956.199 252.32) rotate(9)" fill="#707070"/>
    <path id="Shape-20" data-name="Shape" d="M113.2,429.178c63.468-.332,105.015-51.591,115.52-115.776s.726-139.025,1.045-200.054S182.978-1.579,115.445-1.225-6.536,53.436-.075,114.551-7.556,248.636-1.12,314.605,49.729,429.51,113.2,429.178Z" transform="matrix(0.309, -0.951, 0.951, 0.309, 1081.636, 526.745)" fill="#707070"/>
    <path id="Shape-21" data-name="Shape" d="M103.122-.35c56.833-3.764,97.764,40.308,102.335,102.269s-46.64,111.645-103.409,103.347S3.651,161.92-.287,103,46.289,3.414,103.122-.35Z" transform="matrix(0.777, -0.629, 0.629, 0.777, 1372.598, 855.058)" fill="#707070"/>
    <path id="Shape-22" data-name="Shape" d="M37.786.187C57.636,3.7,75.143,16.784,75.035,37.5A37.954,37.954,0,0,1,37.394,75.2C16.714,75.311,3.324,56.442.144,37.892S17.935-3.324,37.786.187Z" transform="matrix(0.777, -0.629, 0.629, 0.777, 1638.018, 744.188)" fill="#707070"/>
    <path id="Shape-23" data-name="Shape" d="M22.9.113c12.03,2.133,22.641,10.064,22.575,22.616A23,23,0,0,1,22.663,45.581C10.134,45.647,2.014,34.212.087,22.966S10.87-2.011,22.9.113Z" transform="matrix(0.777, -0.629, 0.629, 0.777, 1339.908, 934.867)" fill="#707070"/>
    <path id="Shape-24" data-name="Shape" d="M205.151,0c113.9.6,206.728,94.62,207.331,210.006s-11.994,251,1.9,362.9S323.171,795.323,209.231,780.753,2.572,699.42,1.9,570.747L0,207.849C-.657,81.41,91.249-.593,205.151,0Z" transform="matrix(-0.777, -0.629, 0.629, -0.777, 809.232, 1354.899)" fill="#707070"/>
  </g>
</svg>
