<svg xmlns="http://www.w3.org/2000/svg" xmlns:xlink="http://www.w3.org/1999/xlink" width="188" height="188" viewBox="0 0 188 188">
  <defs>
    <filter id="Ellipse_18" x="0" y="0" width="188" height="188" filterUnits="userSpaceOnUse">
      <feOffset dy="4" input="SourceAlpha"/>
      <feGaussianBlur stdDeviation="3" result="blur"/>
      <feFlood flood-opacity="0.161"/>
      <feComposite operator="in" in2="blur"/>
      <feComposite in="SourceGraphic"/>
    </filter>
    <clipPath id="clip-path">
      <circle id="Ellipse_17" data-name="Ellipse 17" cx="85" cy="85" r="85" transform="translate(461 4394)" fill="#fff"/>
    </clipPath>
    <linearGradient id="linear-gradient" x1="0.5" x2="0.5" y2="1" gradientUnits="objectBoundingBox">
      <stop offset="0" stop-color="#1b89ca"/>
      <stop offset="1" stop-color="#2e3792"/>
    </linearGradient>
    <clipPath id="clip-path-2">
      <path id="Hijab" d="M103.564,15.987c1.083.354,0-4.182-2.589-5.841C93.034,5.058,69.4-2.472,53.233.8,42.405,2.984,28.9,8.479,20.252,15.484,12.456,21.8,5.361,32.93,2.6,42.71c-2.9,10.269-3.994,24.558,0,33.518C7.358,86.9,24.2,98.4,24.649,99.924c.509,1.743-1.483,8.551-2.94,15.726s-.794,25.441,0,28.42c1.269,4.761,8.073,7.1,11.041,7.446,16.405,1.9,28.3,21.738,33.246,26.812,0,0,33.045,32.31,46.125,28.1,2.3-.738-1.145-27.5-3.44-38.974s-24.8-31.943-26.245-38.689c-.849-3.974-.991-10.892-1.08-11.208C79.233,103.307,79.6,102.149,76.5,96.341s-5.5-6.149-4.753-7.84c3.636-8.266,15.331-33.559,17.985-41.829,3.162-9.857,1.668-6.619,4.928-16.443C96.106,25.878,97.943,14.147,103.564,15.987Z" transform="translate(0)" fill="#89c5cc"/>
    </clipPath>
  </defs>
  <g id="Client_Head" data-name="Client Head" transform="translate(-452 -4389)">
    <g transform="matrix(1, 0, 0, 1, 452, 4389)" filter="url(#Ellipse_18)">
      <circle id="Ellipse_18-2" data-name="Ellipse 18" cx="85" cy="85" r="85" transform="translate(9 5)" fill="#fff"/>
    </g>
    <g id="Mask_Group_8" data-name="Mask Group 8" clip-path="url(#clip-path)">
      <g id="Head_Front_Hijab2" data-name="Head/Front/Hijab2" transform="translate(488 4421.05)">
        <g id="Head" transform="translate(32.056 5.252)">
          <path id="Head-2" data-name="Head" d="M0,143.981,16.378,68.026C7.245,57.358,1.062,44.283,2.095,29.635,5.072-12.574,64.126-3.288,75.612,18.015S85.735,93.356,70.89,97.164c-5.921,1.518-18.534-2.2-31.371-9.9l8.058,56.716Z" transform="translate(0 0)" fill="#b28b67"/>
        </g>
        <g id="Group_1" data-name="Group 1">
          <path id="Hijab-2" data-name="Hijab" d="M103.564,15.987c1.083.354,0-4.182-2.589-5.841C93.034,5.058,69.4-2.472,53.233.8,42.405,2.984,28.9,8.479,20.252,15.484,12.456,21.8,5.361,32.93,2.6,42.71c-2.9,10.269-3.994,24.558,0,33.518C7.358,86.9,24.2,98.4,24.649,99.924c.509,1.743-1.483,8.551-2.94,15.726s-.794,25.441,0,28.42c1.269,4.761,8.073,7.1,11.041,7.446,16.405,1.9,28.3,21.738,33.246,26.812,0,0,33.045,32.31,46.125,28.1,2.3-.738-1.145-27.5-3.44-38.974s-24.8-31.943-26.245-38.689c-.849-3.974-.991-10.892-1.08-11.208C79.233,103.307,79.6,102.149,76.5,96.341s-5.5-6.149-4.753-7.84c3.636-8.266,15.331-33.559,17.985-41.829,3.162-9.857,1.668-6.619,4.928-16.443C96.106,25.878,97.943,14.147,103.564,15.987Z" transform="translate(0)" fill="url(#linear-gradient)"/>
          <g id="Mask_Group_1" data-name="Mask Group 1" clip-path="url(#clip-path-2)">
            <path id="Shade" d="M11.29,78.373l1.427-1.688c19.458,5.936,17.289,18.19,41.8,30.6l-2.047,1.209C31.007,99.868,25.99,81.37,11.29,78.373ZM27.038,12.532,28.6,12.41C31.6,34.617,32.479,47.3,48.144,71.592l-1.666.5C30.356,50.939,27.8,33.676,27.038,12.532ZM0,28.984l1.393-.653c6.62,15.646,9.639,24.884,28.127,37.544l-1.427.975C9.739,56.719,4.395,44.635,0,28.984Zm43.76,2.854C40.5,17.682,43.4,4.356,46.864,0h2.191C45.5,10.977,44.739,16.839,45.5,31.838Z" transform="translate(12.689 17.086)" fill="rgba(0,0,0,0.2)"/>
          </g>
        </g>
      </g>
    </g>
  </g>
</svg>
