<svg xmlns="http://www.w3.org/2000/svg" xmlns:xlink="http://www.w3.org/1999/xlink" width="188" height="188" viewBox="0 0 188 188">
  <defs>
    <filter id="Ellipse_18" x="0" y="0" width="188" height="188" filterUnits="userSpaceOnUse">
      <feOffset dy="4" input="SourceAlpha"/>
      <feGaussianBlur stdDeviation="3" result="blur"/>
      <feFlood flood-opacity="0.161"/>
      <feComposite operator="in" in2="blur"/>
      <feComposite in="SourceGraphic"/>
    </filter>
    <clipPath id="clip-path">
      <circle id="Ellipse_19" data-name="Ellipse 19" cx="85" cy="85" r="85" transform="translate(461 4394)" fill="#fff"/>
    </clipPath>
    <linearGradient id="linear-gradient" x1="0.5" x2="0.5" y2="1" gradientUnits="objectBoundingBox">
      <stop offset="0" stop-color="#b1317f"/>
      <stop offset="0.166" stop-color="#9d2e78"/>
      <stop offset="0.531" stop-color="#752969"/>
      <stop offset="0.822" stop-color="#5d2560"/>
      <stop offset="1" stop-color="#54245d"/>
    </linearGradient>
  </defs>
  <g id="Client_Head" data-name="Client Head" transform="translate(-452 -4389)">
    <g transform="matrix(1, 0, 0, 1, 452, 4389)" filter="url(#Ellipse_18)">
      <circle id="Ellipse_18-2" data-name="Ellipse 18" cx="85" cy="85" r="85" transform="translate(9 5)" fill="#fff"/>
    </g>
    <g id="Mask_Group_9" data-name="Mask Group 9" clip-path="url(#clip-path)">
      <g id="Head_Front_Rad" data-name="Head/Front/Rad" transform="translate(490 4418)">
        <g id="Head" transform="translate(29.62 26.852)">
          <path id="Head-2" data-name="Head" d="M0,123,13.967,58.113C6.178,49,.905,37.83,1.786,25.317,4.325-10.741,54.685-2.809,64.48,15.39s8.633,64.363-4.027,67.615C55.4,84.3,44.648,81.125,33.7,74.548L40.572,123Z" transform="translate(0.38 0.148)" fill="#b28b67"/>
        </g>
        <path id="hair" d="M-53.114,40.284a12.615,12.615,0,0,1-2.654-4.9,49.285,49.285,0,0,1-1.7-5.562c-.855-3.791-.863-8.15,1.86-11.094a12.851,12.851,0,0,1,8.484-3.649,15.691,15.691,0,0,1,6.015.757c1.916.626,3.568,1.872,5.426,2.646.071-4.085.775-8.36,2.862-11.848A11.9,11.9,0,0,1-23.964.9,17.66,17.66,0,0,1-13.177,3.057c.839.451,1.67.923,2.465,1.457A6.923,6.923,0,0,0-8.572,5.682c.871.2,1.3-.3,1.869-.928A14.168,14.168,0,0,1-4.5,2.786,13.048,13.048,0,0,1,7.642.712a11.281,11.281,0,0,1,4.951,3.554c1.129,1.471,1.935,3.806,3.494,4.831.661.435,1.129-.141,1.731-.568.9-.64,1.767-1.347,2.683-1.97a12.329,12.329,0,0,1,4.17-1.872c2.183-.5,5.2-.384,5.824,2.456a11.642,11.642,0,0,1-.021,3.282c-.1,1.476-.212,2.951-.341,4.424a31.737,31.737,0,0,1-.434,3.3,4.794,4.794,0,0,0-.215,2.264c.316.733,1.774.316,2.4.342a9.528,9.528,0,0,1,3.6.787,3.868,3.868,0,0,1,2.181,2,3.576,3.576,0,0,1,.06,1.885,5.584,5.584,0,0,0,.115,1.933c1.653-.808,7.38-2.6,8.1.338a4.578,4.578,0,0,1-.723,2.913,25.229,25.229,0,0,1-2.67,4.036,36.224,36.224,0,0,1-7.11,6.851,4.613,4.613,0,0,1,1.216,7.752,5.8,5.8,0,0,1-4.24,1.221,9.437,9.437,0,0,0-1.753-.138,4.211,4.211,0,0,1-.795.266,23.789,23.789,0,0,1-6.5-.82,21.493,21.493,0,0,1-9.918-5.151,3.067,3.067,0,0,0-2.294-1.046c-.853.009-1.69.241-2.542.262-2.255.057-4.288-1.038-6.382-1.766A23.782,23.782,0,0,1,.137,50.509c-.944,2.061-2.914,2.36-4.85,2.541-6.191.579-12.4-.067-18.6-.059,6,1.347,12.2,1.9,18.15,3.488,2.689.716.636,2.516-.514,3.764a21.658,21.658,0,0,0-4.277,7.281c-2.936-3.8-8.125-6.3-12.722-5.137-5.079,1.29-8.656,8.112-5.408,13.017,1.886,2.847,5.291,3.946,8.125,5.17-2.21,2.282-2.745,5.654-4.076,8.493-.656,1.4-1.577,2.984-3.045,3.472a3.574,3.574,0,0,0-1.608.636c-.531.544-.657,1.153-1.335,1.62a7.565,7.565,0,0,1-9.323-.713c-2.167-2.2-1.6-5.69.207-7.924-2.881-1.193-8.13-2.727-6.985-7.185-6.243-.412-21.4-10.468-13.022-17.816-4.6-2.581-8.823-8.889-5.869-14.45,2.274-4.282,7.564-6.2,11.9-6.423" transform="translate(66 0)" fill="url(#linear-gradient)"/>
      </g>
    </g>
  </g>
</svg>
