<svg id="Component_15_1" data-name="Component 15 – 1" xmlns="http://www.w3.org/2000/svg" width="27" height="1877" viewBox="0 0 27 1877">
  <rect id="Rectangle_142" data-name="Rectangle 142" width="15" height="1877" rx="7.5" transform="translate(6)" fill="#333" opacity="0.1"/>
  <g id="Ellipse_211" data-name="Ellipse 211" transform="translate(0 160)" fill="#245fab" stroke="#707070" stroke-width="1">
    <circle cx="13.5" cy="13.5" r="13.5" stroke="none"/>
    <circle cx="13.5" cy="13.5" r="13" fill="none"/>
  </g>
  <g id="Path_2476" data-name="Path 2476" transform="translate(0 934)" fill="#245fab">
    <path d="M 13.5 26.5 C 10.02758026123047 26.5 6.76298999786377 25.14776039123535 4.307610034942627 22.69239044189453 C 1.852239966392517 20.23700904846191 0.5 16.97241973876953 0.5 13.5 C 0.5 10.02758026123047 1.852239966392517 6.76298999786377 4.307610034942627 4.307610034942627 C 6.76298999786377 1.852239966392517 10.02758026123047 0.5 13.5 0.5 C 16.97241973876953 0.5 20.23700904846191 1.852239966392517 22.69239044189453 4.307610034942627 C 25.14776039123535 6.76298999786377 26.5 10.02758026123047 26.5 13.5 C 26.5 16.97241973876953 25.14776039123535 20.23700904846191 22.69239044189453 22.69239044189453 C 20.23700904846191 25.14776039123535 16.97241973876953 26.5 13.5 26.5 Z" stroke="none"/>
    <path d="M 13.5 1 C 10.16113090515137 1 7.022109985351563 2.300230026245117 4.661169052124023 4.661169052124023 C 2.300230026245117 7.022109985351563 1 10.16113090515137 1 13.5 C 1 16.83887100219727 2.300230026245117 19.97789001464844 4.661169052124023 22.33882904052734 C 7.022109985351563 24.69976997375488 10.16113090515137 26 13.5 26 C 16.83887100219727 26 19.97789001464844 24.69976997375488 22.33882904052734 22.33882904052734 C 24.69976997375488 19.97789001464844 26 16.83887100219727 26 13.5 C 26 10.16113090515137 24.69976997375488 7.022109985351563 22.33882904052734 4.661169052124023 C 19.97789001464844 2.300230026245117 16.83887100219727 1 13.5 1 M 13.5 0 C 20.95584106445313 0 27 6.044160842895508 27 13.5 C 27 20.95584106445313 20.95584106445313 27 13.5 27 C 6.044160842895508 27 0 20.95584106445313 0 13.5 C 0 6.044160842895508 6.044160842895508 0 13.5 0 Z" stroke="none" fill="#707070"/>
  </g>
  <g id="Path_2477" data-name="Path 2477" transform="translate(0 1690)" fill="#245fab">
    <path d="M 13.5 26.5 C 10.02758026123047 26.5 6.76298999786377 25.14776039123535 4.307610034942627 22.69239044189453 C 1.852239966392517 20.23700904846191 0.5 16.97241973876953 0.5 13.5 C 0.5 10.02758026123047 1.852239966392517 6.76298999786377 4.307610034942627 4.307610034942627 C 6.76298999786377 1.852239966392517 10.02758026123047 0.5 13.5 0.5 C 16.97241973876953 0.5 20.23700904846191 1.852239966392517 22.69239044189453 4.307610034942627 C 25.14776039123535 6.76298999786377 26.5 10.02758026123047 26.5 13.5 C 26.5 16.97241973876953 25.14776039123535 20.23700904846191 22.69239044189453 22.69239044189453 C 20.23700904846191 25.14776039123535 16.97241973876953 26.5 13.5 26.5 Z" stroke="none"/>
    <path d="M 13.5 1 C 10.16113090515137 1 7.022109985351563 2.300230026245117 4.661169052124023 4.661169052124023 C 2.300230026245117 7.022109985351563 1 10.16113090515137 1 13.5 C 1 16.83887100219727 2.300230026245117 19.97789001464844 4.661169052124023 22.33882904052734 C 7.022109985351563 24.69976997375488 10.16113090515137 26 13.5 26 C 16.83887100219727 26 19.97789001464844 24.69976997375488 22.33882904052734 22.33882904052734 C 24.69976997375488 19.97789001464844 26 16.83887100219727 26 13.5 C 26 10.16113090515137 24.69976997375488 7.022109985351563 22.33882904052734 4.661169052124023 C 19.97789001464844 2.300230026245117 16.83887100219727 1 13.5 1 M 13.5 0 C 20.95584106445313 0 27 6.044160842895508 27 13.5 C 27 20.95584106445313 20.95584106445313 27 13.5 27 C 6.044160842895508 27 0 20.95584106445313 0 13.5 C 0 6.044160842895508 6.044160842895508 0 13.5 0 Z" stroke="none" fill="#707070"/>
  </g>
  <g id="Ellipse_212" data-name="Ellipse 212" transform="translate(0 547)" fill="#b6277b" stroke="#707070" stroke-width="1">
    <circle cx="13.5" cy="13.5" r="13.5" stroke="none"/>
    <circle cx="13.5" cy="13.5" r="13" fill="none"/>
  </g>
  <g id="Ellipse_214" data-name="Ellipse 214" transform="translate(0 1312)" fill="#b6277b" stroke="#707070" stroke-width="1">
    <circle cx="13.5" cy="13.5" r="13.5" stroke="none"/>
    <circle cx="13.5" cy="13.5" r="13" fill="none"/>
  </g>
</svg>
