<svg xmlns="http://www.w3.org/2000/svg" xmlns:xlink="http://www.w3.org/1999/xlink" width="727.805" height="684.869" viewBox="0 0 727.805 684.869">
  <defs>
    <linearGradient id="linear-gradient" y1="0.499" x2="1" y2="0.499" gradientUnits="objectBoundingBox">
      <stop offset="0" stop-color="#343a8d"/>
      <stop offset="0.24" stop-color="#353e90"/>
      <stop offset="0.465" stop-color="#394998"/>
      <stop offset="0.683" stop-color="#405ca6"/>
      <stop offset="0.898" stop-color="#4a77ba"/>
      <stop offset="1" stop-color="#4f86c5"/>
    </linearGradient>
    <linearGradient id="linear-gradient-2" x1="0" y1="0.5" x2="1" y2="0.5" xlink:href="#linear-gradient"/>
    <linearGradient id="linear-gradient-3" x1="0" y1="0.5" x2="1" y2="0.5" xlink:href="#linear-gradient"/>
    <linearGradient id="linear-gradient-4" y1="0.499" x2="1" y2="0.499" gradientUnits="objectBoundingBox">
      <stop offset="0" stop-color="#b1317f"/>
      <stop offset="0.166" stop-color="#9d2e78"/>
      <stop offset="0.531" stop-color="#752969"/>
      <stop offset="0.822" stop-color="#5d2560"/>
      <stop offset="1" stop-color="#54245d"/>
    </linearGradient>
    <linearGradient id="linear-gradient-5" x1="0" y1="0.5" x2="1" y2="0.5" xlink:href="#linear-gradient"/>
    <linearGradient id="linear-gradient-6" x1="0" y1="0.5" x2="1" y2="0.5" xlink:href="#linear-gradient"/>
    <linearGradient id="linear-gradient-7" x1="-0.001" y1="0.499" x2="1" y2="0.499" xlink:href="#linear-gradient-4"/>
    <linearGradient id="linear-gradient-8" x1="0" y1="0.5" x2="1" y2="0.5" xlink:href="#linear-gradient"/>
    <linearGradient id="linear-gradient-9" x1="0" y1="0.501" x2="1" y2="0.501" xlink:href="#linear-gradient"/>
    <linearGradient id="linear-gradient-10" x1="0" y1="0.5" x2="1" y2="0.5" xlink:href="#linear-gradient-4"/>
    <linearGradient id="linear-gradient-11" x1="0.001" y1="0.5" x2="1.001" y2="0.5" xlink:href="#linear-gradient-4"/>
    <linearGradient id="linear-gradient-12" x1="0.5" y1="0" x2="0.5" y2="1" xlink:href="#linear-gradient-4"/>
    <linearGradient id="linear-gradient-14" x1="0" y1="0.5" x2="1.001" y2="0.5" xlink:href="#linear-gradient"/>
    <linearGradient id="linear-gradient-15" x1="0.004" y1="0.499" x2="1" y2="0.499" xlink:href="#linear-gradient-4"/>
    <linearGradient id="linear-gradient-16" x1="0" y1="0.5" x2="1" y2="0.5" xlink:href="#linear-gradient"/>
    <linearGradient id="linear-gradient-17" x1="0.001" y1="0.499" x2="1" y2="0.499" xlink:href="#linear-gradient-4"/>
    <linearGradient id="linear-gradient-18" x1="0" y1="0.5" x2="1" y2="0.5" xlink:href="#linear-gradient"/>
    <linearGradient id="linear-gradient-19" x1="0" y1="0.496" x2="1" y2="0.496" xlink:href="#linear-gradient-4"/>
    <linearGradient id="linear-gradient-20" x1="0" y1="0.496" x2="1" y2="0.496" xlink:href="#linear-gradient-4"/>
    <linearGradient id="linear-gradient-21" x1="0" y1="0.501" x2="0.999" y2="0.501" xlink:href="#linear-gradient-4"/>
    <linearGradient id="linear-gradient-22" x1="0.221" y1="2.506" x2="0.78" y2="-1.31" xlink:href="#linear-gradient-4"/>
    <clipPath id="clip-path">
      <path id="Path_540" data-name="Path 540" d="M1066.678,525.6a9.848,9.848,0,0,0-9.843,8.463l-19.206,129.219a10.121,10.121,0,0,0,2.281,7.982,9.911,9.911,0,0,0,7.562,3.481h180.655a10.047,10.047,0,0,0,9.843-8.463l19.266-129.159a10.12,10.12,0,0,0-2.281-7.982,9.765,9.765,0,0,0-7.562-3.421H1066.678Zm191.279,11.523Z" transform="translate(-1037.523 -525.6)"/>
    </clipPath>
    <linearGradient id="linear-gradient-23" x1="0" y1="0.5" x2="1" y2="0.5" xlink:href="#linear-gradient"/>
    <linearGradient id="linear-gradient-24" x1="0" y1="0.5" x2="1" y2="0.5" xlink:href="#linear-gradient"/>
    <linearGradient id="linear-gradient-25" x1="-0.002" y1="0.5" x2="0.999" y2="0.5" xlink:href="#linear-gradient"/>
    <linearGradient id="linear-gradient-26" x1="0" y1="0.5" x2="1" y2="0.5" xlink:href="#linear-gradient"/>
    <linearGradient id="linear-gradient-27" x1="0.147" y1="0.853" x2="0.854" y2="0.146" xlink:href="#linear-gradient-4"/>
    <linearGradient id="linear-gradient-28" x1="0" y1="0.499" x2="1" y2="0.499" xlink:href="#linear-gradient"/>
    <clipPath id="clip-path-2">
      <path id="Path_566" data-name="Path 566" d="M1037.138,233a9.848,9.848,0,0,0-9.843,8.463l-19.266,129.159a10.121,10.121,0,0,0,2.281,7.982,9.911,9.911,0,0,0,7.562,3.481h180.655a10.047,10.047,0,0,0,9.843-8.463L1227.636,244.4a10.122,10.122,0,0,0-2.281-7.982,9.765,9.765,0,0,0-7.562-3.421Zm191.279,11.524Z" transform="translate(-1007.923 -233)"/>
    </clipPath>
    <linearGradient id="linear-gradient-29" x1="-0.207" y1="0.847" x2="1.155" y2="0.183" xlink:href="#linear-gradient-4"/>
    <linearGradient id="linear-gradient-30" x1="-0.024" y1="0.958" x2="1.035" y2="0.166" xlink:href="#linear-gradient-4"/>
    <linearGradient id="linear-gradient-31" x1="-0.131" y1="0.773" x2="1.319" y2="0.22" xlink:href="#linear-gradient-4"/>
    <linearGradient id="linear-gradient-32" x1="-0.443" y1="0.838" x2="1.29" y2="0.293" xlink:href="#linear-gradient-4"/>
    <linearGradient id="linear-gradient-33" x1="0" y1="0.5" x2="1" y2="0.5" xlink:href="#linear-gradient"/>
    <linearGradient id="linear-gradient-34" x1="0.131" y1="0.94" x2="0.868" y2="-0.081" xlink:href="#linear-gradient-4"/>
    <linearGradient id="linear-gradient-35" x1="0" y1="0.5" x2="1" y2="0.5" xlink:href="#linear-gradient"/>
    <linearGradient id="linear-gradient-36" x1="0.132" y1="0.939" x2="0.869" y2="-0.081" xlink:href="#linear-gradient-4"/>
  </defs>
  <g id="Contact_Planning" data-name="Contact Planning" transform="translate(-193.7 -145.831)">
    <g id="DESK" transform="translate(222.572 537.15)">
      <g id="Group_235" data-name="Group 235">
        <g id="Group_232" data-name="Group 232" transform="translate(0 18.486)">
          <g id="Group_230" data-name="Group 230" transform="translate(88.347)">
            <path id="Path_444" data-name="Path 444" d="M827.688,1138a7.169,7.169,0,0,1-4.561-1.62,7.251,7.251,0,0,1-2.521-4.141L769.771,885.266h-313l-50.836,246.976a7.5,7.5,0,0,1-2.461,4.141,7.2,7.2,0,0,1-11.644-6.782l43.813-263.3H791.017l43.753,263.3A7.215,7.215,0,0,1,827.688,1138Z" transform="translate(-390.097 -864.56)" fill="#fff"/>
            <path id="Path_445" data-name="Path 445" d="M826.6,1138.464a8.925,8.925,0,0,1-5.582-1.981,8.812,8.812,0,0,1-3.061-5.1l-50.6-245.655H457l-50.6,245.6a8.783,8.783,0,0,1-8.643,7.082,8.7,8.7,0,0,1-6.662-3.121,8.923,8.923,0,0,1-1.981-7.2l43.813-263.3a1.622,1.622,0,0,1,1.621-1.38H789.924a1.669,1.669,0,0,1,1.62,1.38l43.813,263.3a8.934,8.934,0,0,1-8.763,10.383ZM455.682,882.426h313a1.554,1.554,0,0,1,1.56,1.32l50.836,246.976a5.83,5.83,0,0,0,1.921,3.241,5.444,5.444,0,0,0,3.541,1.26,5.533,5.533,0,0,0,5.462-6.482l-43.573-261.98H435.876L392.3,1128.741a5.711,5.711,0,0,0,1.26,4.561,5.446,5.446,0,0,0,4.2,1.921,5.176,5.176,0,0,0,3.481-1.26,5.831,5.831,0,0,0,1.921-3.241L454,883.746A1.784,1.784,0,0,1,455.682,882.426Z" transform="translate(-389.005 -863.4)" fill="#262424"/>
          </g>
          <g id="Group_231" data-name="Group 231" transform="translate(0 0.06)">
            <path id="Path_446" data-name="Path 446" d="M680.428,1138a7.169,7.169,0,0,1-4.561-1.62,6.869,6.869,0,0,1-2.461-4.141L622.571,885.266h-313l-50.836,246.976a7.5,7.5,0,0,1-2.461,4.141,7.2,7.2,0,0,1-11.644-6.782l43.813-263.3H643.817l43.753,263.3A7.289,7.289,0,0,1,680.428,1138Z" transform="translate(-242.897 -864.619)" fill="#fff"/>
            <path id="Path_447" data-name="Path 447" d="M679.336,1138.5a8.924,8.924,0,0,1-5.582-1.981,8.812,8.812,0,0,1-3.061-5.1L620.1,885.767H309.8l-50.6,245.655a8.783,8.783,0,0,1-8.643,7.082,8.7,8.7,0,0,1-6.662-3.121,8.923,8.923,0,0,1-1.981-7.2l43.813-263.3a1.622,1.622,0,0,1,1.621-1.38H642.724a1.67,1.67,0,0,1,1.621,1.38l43.813,263.3a8.923,8.923,0,0,1-1.981,7.2A9.265,9.265,0,0,1,679.336,1138.5ZM308.482,882.466h313a1.554,1.554,0,0,1,1.56,1.32l50.836,246.976a5.83,5.83,0,0,0,1.921,3.241,5.445,5.445,0,0,0,3.541,1.26,5.533,5.533,0,0,0,5.462-6.482L641.224,866.8H288.676L245.1,1128.781a5.711,5.711,0,0,0,1.26,4.561,5.446,5.446,0,0,0,4.2,1.921,5.176,5.176,0,0,0,3.481-1.26,5.83,5.83,0,0,0,1.921-3.241L306.8,883.786A1.784,1.784,0,0,1,308.482,882.466Z" transform="translate(-241.805 -863.5)" fill="#262424"/>
          </g>
        </g>
        <g id="Group_233" data-name="Group 233" transform="translate(15.842)">
          <rect id="Rectangle_16" data-name="Rectangle 16" width="504.394" height="22.507" fill="url(#linear-gradient)"/>
        </g>
        <g id="Group_234" data-name="Group 234" transform="translate(389.516 2.041)">
          <path id="Path_448" data-name="Path 448" d="M892.42,855.746a1.614,1.614,0,0,1-1.62-1.621V837.621a1.621,1.621,0,1,1,3.241,0v16.505A1.614,1.614,0,0,1,892.42,855.746Z" transform="translate(-890.8 -836)" fill="#262424"/>
        </g>
      </g>
    </g>
    <g id="MONITOR" transform="translate(495.971 425.756)">
      <g id="Group_238" data-name="Group 238" transform="translate(0)">
        <g id="Group_236" data-name="Group 236">
          <path id="Path_449" data-name="Path 449" d="M793.647,755.492H703.979a3.939,3.939,0,0,1-3.781-4.982l27.608-95.489a7.2,7.2,0,0,1,6.962-5.222h89.667a3.939,3.939,0,0,1,3.781,4.982l-27.608,95.489A7.2,7.2,0,0,1,793.647,755.492Z" transform="translate(-698.416 -648.119)" fill="#fff"/>
          <path id="Path_450" data-name="Path 450" d="M792.561,755.993H702.894a5.487,5.487,0,0,1-4.441-2.221,5.426,5.426,0,0,1-.9-4.862l27.608-95.489A8.877,8.877,0,0,1,733.683,647h89.667a5.487,5.487,0,0,1,4.441,2.221,5.426,5.426,0,0,1,.9,4.862l-27.608,95.489A8.876,8.876,0,0,1,792.561,755.993ZM733.683,650.3a5.709,5.709,0,0,0-5.4,4.081l-27.608,95.489a2.454,2.454,0,0,0,.36,2.041,2.173,2.173,0,0,0,1.861.9h89.668a5.709,5.709,0,0,0,5.4-4.081l27.608-95.489a2.454,2.454,0,0,0-.36-2.041,2.172,2.172,0,0,0-1.861-.9Z" transform="translate(-697.331 -647)" fill="#262424"/>
        </g>
        <g id="Group_237" data-name="Group 237" transform="translate(8.365 7.262)">
          <path id="Path_451" data-name="Path 451" d="M797.237,753.088H716.092a2.136,2.136,0,0,1-2.041-2.7L738.9,664.381a3.547,3.547,0,0,1,3.421-2.581h81.2a2.136,2.136,0,0,1,2.041,2.7l-24.848,86.006A3.6,3.6,0,0,1,797.237,753.088Z" transform="translate(-712.352 -660.179)" fill="url(#linear-gradient-2)"/>
          <path id="Path_452" data-name="Path 452" d="M796.153,753.629H715.009a3.7,3.7,0,0,1-3-1.5,3.816,3.816,0,0,1-.6-3.3l24.848-86.006a5.2,5.2,0,0,1,4.982-3.721h81.2a3.7,3.7,0,0,1,3,1.5,3.816,3.816,0,0,1,.6,3.3l-24.908,86.006A5.278,5.278,0,0,1,796.153,753.629Zm-54.917-91.288a2,2,0,0,0-1.861,1.38l-24.848,86.006a.455.455,0,0,0,.06.42.549.549,0,0,0,.42.18h81.2a2,2,0,0,0,1.861-1.38l24.848-86.006a.455.455,0,0,0-.06-.42.548.548,0,0,0-.42-.18Z" transform="translate(-711.269 -659.1)" fill="#262424"/>
        </g>
      </g>
    </g>
    <g id="WOMAN_LEFT_LEGL" transform="translate(311.276 566.92)">
      <g id="Group_245" data-name="Group 245">
        <g id="Group_239" data-name="Group 239" transform="translate(181.841 178.735)">
          <path id="Path_453" data-name="Path 453" d="M714.286,1182.8l1.02,26.228H698.321L695.2,1182.8Z" transform="translate(-693.625 -1181.119)" fill="#fff"/>
          <path id="Path_454" data-name="Path 454" d="M714.257,1209.529H697.332a1.623,1.623,0,0,1-1.62-1.44L692.59,1181.8a1.429,1.429,0,0,1,.42-1.26,1.6,1.6,0,0,1,1.2-.54h19.026a1.641,1.641,0,0,1,1.62,1.56l1.02,26.288a1.626,1.626,0,0,1-.48,1.2A1.5,1.5,0,0,1,714.257,1209.529Zm-15.545-3.241h13.864l-.9-23.047H695.951Z" transform="translate(-692.575 -1180)" fill="#262424"/>
        </g>
        <g id="Group_242" data-name="Group 242">
          <path id="Path_455" data-name="Path 455" d="M594.623,955.782v94.289h-33.01l-16.685-75.443L422.61,956.8s-33.01-3.481-33.01-74.6h49.515l7.8,2.4,35.591,10.983L573.5,930.635l5.282,2.041A24.845,24.845,0,0,1,594.623,955.782Z" transform="translate(-389.6 -882.2)" fill="url(#linear-gradient-3)"/>
          <path id="Path_456" data-name="Path 456" d="M415.494,923.441c.36,3.661,1.14,10.863,2.941,20.106a2.244,2.244,0,0,0,1.741,1.8l14.344,3.781a2.725,2.725,0,0,0,1.681-.18l8.7-4.381a2.294,2.294,0,0,0,1.26-2.4L443.883,922.9a2.345,2.345,0,0,0-2.341-2.1H417.835A2.452,2.452,0,0,0,415.494,923.441Z" transform="translate(-399.949 -897.633)" fill="#fff"/>
          <g id="Group_240" data-name="Group 240" transform="translate(55.725 10.711)">
            <path id="Path_457" data-name="Path 457" d="M614.639,1051.2a1.67,1.67,0,0,1-1.621-1.38l-12-77.3-100.231-32.71a21.3,21.3,0,0,1-14.4-16.505l-3.9-21.367a1.613,1.613,0,1,1,3.181-.54l3.9,21.367A18.18,18.18,0,0,0,501.8,936.81l101.131,33.01a1.472,1.472,0,0,1,1.08,1.26l12.184,78.264a1.671,1.671,0,0,1-1.32,1.861Z" transform="translate(-482.447 -900.047)" fill="#262424"/>
          </g>
          <g id="Group_241" data-name="Group 241" transform="translate(58.99 2.927)">
            <path id="Path_458" data-name="Path 458" d="M489.515,915.9a1.617,1.617,0,0,1-.72-3.061l5.222-2.7a7.359,7.359,0,0,0,3.9-7.382l-1.681-13.864a1.63,1.63,0,0,1,3.241-.36l1.681,13.864a10.5,10.5,0,0,1-5.642,10.623l-5.222,2.7A2.073,2.073,0,0,1,489.515,915.9Z" transform="translate(-487.886 -887.077)" fill="#262424"/>
          </g>
          <path id="Path_459" data-name="Path 459" d="M714.648,988.088v10.923a12.563,12.563,0,0,1-1.5.06A23.335,23.335,0,0,1,689.8,975.724,23.6,23.6,0,0,1,693.521,963l5.282,2.041A24.705,24.705,0,0,1,714.648,988.088Z" transform="translate(-509.625 -914.505)" fill="#fff"/>
        </g>
        <path id="Path_460" data-name="Path 460" d="M704.936,1174.449h-31.51a3.51,3.51,0,0,1-3.481-3.121l-2.461-23.887a3.467,3.467,0,0,1,3.481-3.841H706.2a3.488,3.488,0,0,1,3.481,3.661l-1.26,23.887A3.449,3.449,0,0,1,704.936,1174.449Z" transform="translate(-500.693 -986.712)" fill="url(#linear-gradient-4)"/>
        <g id="Group_244" data-name="Group 244" transform="translate(173.813 203.462)">
          <path id="Path_461" data-name="Path 461" d="M765.34,1279.538H682.754s-.6-3.781-.96-10.683a262,262,0,0,1,2.1-47.655h33.61s8.4,21.786,21.667,30.189c10.623,6.722,22.327,6.3,25.508,17.465A29.109,29.109,0,0,1,765.34,1279.538Z" transform="translate(-680.114 -1221.2)" fill="url(#linear-gradient-5)"/>
          <g id="Group_243" data-name="Group 243" transform="translate(0 46.094)">
            <path id="Path_462" data-name="Path 462" d="M765.546,1311.283H682.96s-.6-3.781-.96-10.683h82.885A29.109,29.109,0,0,1,765.546,1311.283Z" transform="translate(-680.319 -1299.039)" fill="#fff"/>
            <path id="Path_463" data-name="Path 463" d="M764.426,1311.864H681.841a1.67,1.67,0,0,1-1.621-1.38c0-.18-.6-3.961-1.02-10.8a1.73,1.73,0,0,1,.42-1.2,1.676,1.676,0,0,1,1.2-.48h82.885a1.621,1.621,0,0,1,1.56,1.14,30.156,30.156,0,0,1,.72,11.283A1.528,1.528,0,0,1,764.426,1311.864Zm-81.2-3.241h79.7a28.756,28.756,0,0,0-.42-7.442H682.561C682.8,1304.662,683.1,1307.183,683.221,1308.623Z" transform="translate(-679.2 -1298)" fill="#262424"/>
          </g>
        </g>
      </g>
    </g>
    <g id="WOMAN_RIGHT_LEGL" transform="translate(355.209 565.299)">
      <g id="Group_253" data-name="Group 253">
        <g id="Group_246" data-name="Group 246" transform="translate(183.401 180.355)">
          <path id="Path_464" data-name="Path 464" d="M790.086,1182.8l1.02,26.228H774.121L771,1182.8Z" transform="translate(-769.425 -1181.119)" fill="#fff"/>
          <path id="Path_465" data-name="Path 465" d="M790.057,1209.529H773.132a1.623,1.623,0,0,1-1.62-1.44L768.39,1181.8a1.43,1.43,0,0,1,.42-1.26,1.511,1.511,0,0,1,1.2-.54H789.1a1.641,1.641,0,0,1,1.621,1.56l1.02,26.288a1.641,1.641,0,0,1-1.681,1.681Zm-15.545-3.241h13.864l-.9-23.047H771.751Z" transform="translate(-768.375 -1180)" fill="#262424"/>
        </g>
        <g id="Group_250" data-name="Group 250">
          <path id="Path_466" data-name="Path 466" d="M670.423,955.782v94.289h-33.01l-16.685-75.443L498.41,956.8s-33.01-3.481-33.01-74.6h49.575l7.8,2.4,35.591,10.983L649.3,930.635l5.282,2.041A24.845,24.845,0,0,1,670.423,955.782Z" transform="translate(-463.84 -880.58)" fill="url(#linear-gradient-6)"/>
          <g id="Group_247" data-name="Group 247">
            <path id="Path_467" data-name="Path 467" d="M622.149,986.213a1.606,1.606,0,0,1-1.56-1.26l-2.221-9.963L497.19,957.344c-.72-.06-9.183-1.26-17.525-11.223-11.223-13.264-16.865-35.111-16.865-65a1.621,1.621,0,1,1,3.241,0c0,68.841,31.27,72.982,31.57,73.042h.06l122.317,17.826a1.6,1.6,0,0,1,1.32,1.26l2.461,11.043a1.6,1.6,0,0,1-1.2,1.921Z" transform="translate(-462.8 -879.5)" fill="#262424"/>
          </g>
          <path id="Path_468" data-name="Path 468" d="M491.294,923.441c.36,3.661,1.14,10.863,2.941,20.106a2.244,2.244,0,0,0,1.741,1.8l14.344,3.781a2.725,2.725,0,0,0,1.68-.18l8.7-4.381a2.294,2.294,0,0,0,1.26-2.4L519.683,922.9a2.345,2.345,0,0,0-2.341-2.1H493.635A2.452,2.452,0,0,0,491.294,923.441Z" transform="translate(-474.189 -896.012)" fill="#fff"/>
          <g id="Group_248" data-name="Group 248" transform="translate(57.286 12.332)">
            <path id="Path_469" data-name="Path 469" d="M690.439,1051.2a1.67,1.67,0,0,1-1.62-1.38l-12-77.3-100.231-32.71a21.3,21.3,0,0,1-14.4-16.505l-3.9-21.367a1.613,1.613,0,1,1,3.181-.54l3.9,21.367A18.18,18.18,0,0,0,577.6,936.81l101.131,33.01a1.472,1.472,0,0,1,1.08,1.26L692,1049.344a1.671,1.671,0,0,1-1.32,1.861Z" transform="translate(-558.247 -900.047)" fill="#262424"/>
          </g>
          <g id="Group_249" data-name="Group 249" transform="translate(60.55 4.547)">
            <path id="Path_470" data-name="Path 470" d="M565.315,915.9a1.617,1.617,0,0,1-.72-3.061l5.222-2.7a7.359,7.359,0,0,0,3.9-7.382l-1.681-13.864a1.63,1.63,0,0,1,3.241-.36l1.681,13.864a10.5,10.5,0,0,1-5.642,10.623l-5.222,2.7A2.073,2.073,0,0,1,565.315,915.9Z" transform="translate(-563.686 -887.077)" fill="#262424"/>
          </g>
          <path id="Path_471" data-name="Path 471" d="M790.448,988.088v10.923a12.562,12.562,0,0,1-1.5.06A23.335,23.335,0,0,1,765.6,975.724,23.6,23.6,0,0,1,769.321,963l5.282,2.041A24.705,24.705,0,0,1,790.448,988.088Z" transform="translate(-583.864 -912.885)" fill="#fff"/>
        </g>
        <path id="Path_472" data-name="Path 472" d="M780.836,1174.449h-31.51a3.51,3.51,0,0,1-3.481-3.121l-2.461-23.887a3.467,3.467,0,0,1,3.481-3.841H782.1a3.488,3.488,0,0,1,3.481,3.661l-1.26,23.887A3.489,3.489,0,0,1,780.836,1174.449Z" transform="translate(-574.973 -985.092)" fill="url(#linear-gradient-7)"/>
        <g id="Group_252" data-name="Group 252" transform="translate(175.374 205.083)">
          <path id="Path_473" data-name="Path 473" d="M841.2,1279.538H758.554s-.6-3.781-.96-10.683a262,262,0,0,1,2.1-47.655h33.61s8.4,21.786,21.667,30.189c10.623,6.722,22.327,6.3,25.508,17.465A28.929,28.929,0,0,1,841.2,1279.538Z" transform="translate(-755.914 -1221.2)" fill="url(#linear-gradient-8)"/>
          <g id="Group_251" data-name="Group 251" transform="translate(0 46.094)">
            <path id="Path_474" data-name="Path 474" d="M841.406,1311.283H758.76s-.6-3.781-.96-10.683h82.885A28.93,28.93,0,0,1,841.406,1311.283Z" transform="translate(-756.12 -1299.039)" fill="#fff"/>
            <path id="Path_475" data-name="Path 475" d="M840.286,1311.864H757.641a1.67,1.67,0,0,1-1.621-1.38c0-.18-.6-3.961-1.02-10.8a1.73,1.73,0,0,1,.42-1.2,1.676,1.676,0,0,1,1.2-.48h82.885a1.621,1.621,0,0,1,1.56,1.14,30.157,30.157,0,0,1,.72,11.283A1.474,1.474,0,0,1,840.286,1311.864Zm-81.2-3.241h79.7a28.756,28.756,0,0,0-.42-7.442H758.421C758.6,1304.662,758.9,1307.183,759.081,1308.623Z" transform="translate(-755 -1298)" fill="#262424"/>
          </g>
        </g>
      </g>
    </g>
    <g id="WOMAN_HEAD" transform="translate(378.048 316.455)">
      <g id="Group_257" data-name="Group 257">
        <g id="Group_254" data-name="Group 254" transform="translate(13.061 14.451)">
          <path id="Path_476" data-name="Path 476" d="M526.021,523.783s3.241,8.883,16.505,13.564c14.765,5.222,21.967-15.665,22.147-34.09S518.279,485.971,526.021,523.783Z" transform="translate(-523.629 -490.032)" fill="#fff"/>
          <path id="Path_477" data-name="Path 477" d="M546.013,538.742a14.828,14.828,0,0,1-4.982-.9c-13.8-4.861-17.345-14.164-17.465-14.524,0-.06-.06-.12-.06-.24-3.421-16.805,3.781-25.268,8.4-28.809,8.343-6.422,19.446-6.422,26.108-3.121,4.8,2.4,7.382,6.3,7.382,11.043-.12,11.944-3.3,28.089-12,34.211A13.244,13.244,0,0,1,546.013,538.742ZM526.567,522.3c.42,1.02,3.781,8.4,15.485,12.544a9.745,9.745,0,0,0,9.363-1.02c7.2-5.042,10.563-19.506,10.683-31.57.06-4.681-3.481-7.082-5.582-8.163-5.642-2.821-15.485-2.761-22.687,2.761C528.908,500.57,523.686,508.012,526.567,522.3Z" transform="translate(-522.614 -488.966)" fill="#262424"/>
        </g>
        <g id="Group_255" data-name="Group 255" transform="translate(10.871 49.163)">
          <path id="Path_478" data-name="Path 478" d="M526.2,549.4l-4.5,19.866,21.366,1.621,1.14-20.826Z" transform="translate(-520.059 -547.84)" fill="#fff"/>
          <path id="Path_479" data-name="Path 479" d="M541.973,571.468h-.12l-21.367-1.62a1.855,1.855,0,0,1-1.2-.66,1.688,1.688,0,0,1-.3-1.32l4.5-19.806a1.612,1.612,0,0,1,1.621-1.26l18.005.66a1.478,1.478,0,0,1,1.14.54,1.73,1.73,0,0,1,.42,1.2l-1.2,20.826a1.705,1.705,0,0,1-.54,1.14A2.266,2.266,0,0,1,541.973,571.468Zm-19.386-4.741,17.826,1.38,1.02-17.525-15-.54Z" transform="translate(-518.965 -546.8)" fill="#262424"/>
        </g>
        <path id="Path_480" data-name="Path 480" d="M528.429,466.515s-10.983-6-22.627,5.042c-11.644,10.983-.48,37.692,10.2,47.355h20.046l13.084-23.587,6.242,6.242a24.455,24.455,0,0,0,4.441-25.148C554.177,461.534,532.991,464.895,528.429,466.515Z" transform="translate(-500.852 -464.887)" fill="#262424"/>
        <g id="Group_256" data-name="Group 256" transform="translate(45.316 23.873)">
          <path id="Path_481" data-name="Path 481" d="M580.319,512.51l.06-.24s4.862-8.4,12.124-3.421c7.262,5.042-1.441,24.248-13.084,17.165h0A28.571,28.571,0,0,1,580.319,512.51Z" transform="translate(-577.411 -505.706)" fill="#fff"/>
          <path id="Path_482" data-name="Path 482" d="M583.465,528.153a11.224,11.224,0,0,1-5.942-1.8,1.481,1.481,0,0,1-.72-1.08,30.294,30.294,0,0,1,.96-14.284l.06-.24c.06-.12.06-.24.12-.3.12-.18,2.7-4.621,7.142-5.582a9.032,9.032,0,0,1,7.322,1.681c4.681,3.241,4.021,10.683.72,15.785C590.607,526.112,587.126,528.153,583.465,528.153Zm-3.6-4.2c5.762,3,9.483-1.8,10.563-3.421,2.461-3.841,3.121-9.3.18-11.343a5.883,5.883,0,0,0-4.741-1.2c-2.7.6-4.561,3.3-4.982,3.9h0A25.756,25.756,0,0,0,579.864,523.951Zm-.6-12.484Z" transform="translate(-576.356 -504.664)" fill="#262424"/>
        </g>
      </g>
    </g>
    <g id="WOMAN_BODY" transform="translate(308.515 382.203)">
      <g id="Group_260" data-name="Group 260" transform="translate(0)">
        <path id="Path_483" data-name="Path 483" d="M507.3,585.577l3-9.3s13.444-4.621,32.35.78l2.4,9.423Z" transform="translate(-433.898 -574.433)" fill="url(#linear-gradient-9)"/>
        <path id="Path_484" data-name="Path 484" d="M426.893,592.648s20.046-8.223,51.076-6c31.029,2.281,49.815,11.343,49.815,11.343s11.163,52.516,11.343,67.341-17.885,27.428-17.885,27.428l7.682,85.046H385S387.281,645.224,426.893,592.648Z" transform="translate(-385 -579.164)" fill="url(#linear-gradient-10)"/>
        <g id="Group_258" data-name="Group 258" transform="translate(6.51 11.948)">
          <path id="Path_485" data-name="Path 485" d="M397.439,696.468h-.24a1.552,1.552,0,0,1-1.32-1.861c7.5-46.094,18.966-79.584,34.09-99.63a1.627,1.627,0,1,1,2.581,1.981c-14.765,19.626-26.048,52.636-33.49,98.19A1.676,1.676,0,0,1,397.439,696.468Z" transform="translate(-395.847 -594.341)" fill="#262424"/>
        </g>
        <g id="Group_259" data-name="Group 259" transform="translate(3.121 187.658)">
          <path id="Path_486" data-name="Path 486" d="M527.1,890.341H391.82a1.62,1.62,0,1,1,0-3.241H527.1a1.62,1.62,0,1,1,0,3.241Z" transform="translate(-390.2 -887.1)" fill="#262424"/>
        </g>
      </g>
    </g>
    <g id="WOMAN_HAIR" transform="translate(302.011 312.898)">
      <g id="Group_264" data-name="Group 264">
        <g id="Group_262" data-name="Group 262" transform="translate(69.829 12.111)">
          <g id="Group_261" data-name="Group 261">
            <path id="Path_487" data-name="Path 487" d="M494.675,483.819l-1.5,8.763a2.527,2.527,0,0,0,2.041,2.941l6.962,1.32a2.581,2.581,0,0,0,3.061-2.221l1.14-9.183a2.565,2.565,0,0,0-2.221-2.881l-6.662-.96A2.724,2.724,0,0,0,494.675,483.819Z" transform="translate(-491.559 -480.121)" fill="#fff"/>
            <path id="Path_488" data-name="Path 488" d="M501.667,497.6a3.423,3.423,0,0,1-.78-.06l-6.962-1.32a4.182,4.182,0,0,1-3.361-4.8l1.5-8.763h0a4.269,4.269,0,0,1,4.741-3.481l6.662.96a4.141,4.141,0,0,1,3.541,4.681L505.868,494a4.22,4.22,0,0,1-1.681,2.881A4.878,4.878,0,0,1,501.667,497.6Zm-5.462-15.3a.973.973,0,0,0-.96.78h0l-1.5,8.763a.915.915,0,0,0,.78,1.08l6.962,1.32a1.016,1.016,0,0,0,.78-.18,1.143,1.143,0,0,0,.42-.66l1.14-9.183a.956.956,0,0,0-.84-1.08l-6.662-.96C496.265,482.3,496.205,482.3,496.205,482.3Zm-2.581.54Z" transform="translate(-490.508 -479.138)" fill="#262424"/>
          </g>
        </g>
        <g id="Group_263" data-name="Group 263">
          <path id="Path_489" data-name="Path 489" d="M421.24,592.585c-42.253,19.986-54.557-26.048-42.913-31.03,11.644-5.042,29.229-15.365,20.406-34.751-8.883-19.386-14.524-51.436,8.943-64.28,23.407-12.844,43.453,13.144,43.453,13.144.06.24.18,3.721-1.861,8.763-9.543,1.5-14.4,9.543-8.7,28.449C446.567,532.986,463.553,572.6,421.24,592.585Z" transform="translate(-374.163 -458.96)" fill="#262424"/>
        </g>
      </g>
    </g>
    <g id="WOMAN_ARM" transform="translate(413.454 396.859)">
      <g id="Group_269" data-name="Group 269">
        <g id="Group_265" data-name="Group 265" transform="translate(17.968 67.771)">
          <path id="Path_490" data-name="Path 490" d="M741.425,787.562c-3.421,3.6-20.526,1.56-20.526,1.56s-6.962,2.041-10.083,1.2c-3.061-.84-7.2-5.582-7.2-5.582s-85.106,11.1-89.247-7.2L592.7,735.046,631.712,714.4,646.6,751.131l60.138,13.624,2.821-.72a35.856,35.856,0,0,1,8.343-1.2,23.121,23.121,0,0,1,21.126,12.724C741.425,780.42,743.346,785.582,741.425,787.562Z" transform="translate(-590.949 -712.821)" fill="#fff"/>
          <path id="Path_491" data-name="Path 491" d="M711.51,791.072a8.868,8.868,0,0,1-2.281-.24c-2.821-.78-6.062-4.021-7.442-5.4-4.2.54-23.227,2.761-42.433,3.181-29.949.66-45.614-3.121-47.775-11.523l-21.607-42.313a1.593,1.593,0,0,1,.66-2.161l39.012-20.646a1.7,1.7,0,0,1,1.32-.12,1.765,1.765,0,0,1,.96.9L646.51,748.7l58.938,13.324,2.4-.6a35.448,35.448,0,0,1,8.7-1.26,24.9,24.9,0,0,1,22.627,13.624c3.661,7.142,4.321,11.524,2.161,13.8h0c-3.661,3.841-17.946,2.461-21.607,2.041A30.018,30.018,0,0,1,711.51,791.072Zm-9.063-9a1.511,1.511,0,0,1,1.2.54c1.5,1.68,4.5,4.561,6.422,5.1s6.662-.48,9.183-1.2a2.463,2.463,0,0,1,.66-.06c6.782.78,17.225,1.02,19.206-1.08.18-.18,1.5-1.921-2.7-10.083A21.61,21.61,0,0,0,716.792,763.4a32.94,32.94,0,0,0-7.982,1.2l-2.821.72a1.463,1.463,0,0,1-.72,0L645.13,751.7a1.555,1.555,0,0,1-1.14-.96l-14.224-35.111-36.131,19.086,20.946,41.053a.853.853,0,0,1,.12.36c2.761,12.3,55.157,10.2,87.507,5.942Zm37.812,4.441Z" transform="translate(-589.783 -711.769)" fill="#262424"/>
        </g>
        <g id="Group_268" data-name="Group 268">
          <path id="Path_492" data-name="Path 492" d="M600.113,604.522,627,670.122c-7.442,24.247-21.967,35.651-48.975,24.487,0,0-16.325-44.774-15.545-70.7C563.322,597.98,589.97,593.419,600.113,604.522Z" transform="translate(-560.889 -598.852)" fill="url(#linear-gradient-11)"/>
          <g id="Group_266" data-name="Group 266" transform="translate(0 0.752)">
            <path id="Path_493" data-name="Path 493" d="M573.322,685.688a1.655,1.655,0,0,1-1.56-1.14c-4.681-14.644-12.484-42.013-11.884-60.2.36-11.1,5.522-19.866,14.164-24.067a1.615,1.615,0,0,1,2.161.72,1.6,1.6,0,0,1-.72,2.161c-4.441,2.161-11.884,7.8-12.3,21.306-.54,17.705,7.142,44.654,11.764,59.118a1.612,1.612,0,0,1-1.02,2.041A2.759,2.759,0,0,1,573.322,685.688Z" transform="translate(-559.846 -600.104)" fill="#262424"/>
          </g>
          <g id="Group_267" data-name="Group 267" transform="translate(18.074 68.413)">
            <path id="Path_494" data-name="Path 494" d="M606.729,738.083a34.04,34.04,0,0,1-15.965-4.2,1.627,1.627,0,1,1,1.62-2.821h0c.12.06,11.1,6.362,21.967,2.461,7.322-2.641,13.024-9.243,16.925-19.626a1.633,1.633,0,1,1,3.061,1.14c-4.261,11.343-10.623,18.606-18.906,21.547A24.178,24.178,0,0,1,606.729,738.083Z" transform="translate(-589.959 -712.839)" fill="#262424"/>
          </g>
        </g>
      </g>
    </g>
    <g id="CHAIR" transform="translate(283.163 481.213)">
      <g id="Group_274" data-name="Group 274" transform="translate(0 0)">
        <path id="Path_495" data-name="Path 495" d="M638.994,1197.376h0a7,7,0,0,0,6.9-8.042L619.488,1015.4H502.152l-26.408,173.933a6.972,6.972,0,0,0,6.9,8.042h0a6.948,6.948,0,0,0,6.842-5.522l33.79-157.608H598.3l33.79,157.608A7.126,7.126,0,0,0,638.994,1197.376Z" transform="translate(-395.895 -849.749)" fill="url(#linear-gradient-12)"/>
        <g id="Group_270" data-name="Group 270" transform="translate(213.895 243.82)">
          <path id="Path_496" data-name="Path 496" d="M706.019,1173.526a1.607,1.607,0,0,1-1.56-1.26l-5.282-24.668a1.624,1.624,0,1,1,3.181-.66l5.282,24.668a1.6,1.6,0,0,1-1.26,1.921Z" transform="translate(-699.143 -1145.643)" fill="#262424"/>
        </g>
        <path id="Path_497" data-name="Path 497" d="M506.094,1197.376h0a7,7,0,0,0,6.9-8.042L486.588,1015.4H369.252l-26.408,173.933a6.972,6.972,0,0,0,6.9,8.042h0a6.948,6.948,0,0,0,6.842-5.522l33.79-157.608h74.963l33.79,157.608A7.246,7.246,0,0,0,506.094,1197.376Z" transform="translate(-342.759 -849.749)" fill="url(#linear-gradient-12)"/>
        <g id="Group_271" data-name="Group 271" transform="translate(142.192 164.015)">
          <path id="Path_498" data-name="Path 498" d="M583.831,1032.436a1.67,1.67,0,0,1-1.62-1.38l-2.521-16.505a1.638,1.638,0,1,1,3.241-.48l2.521,16.505a1.667,1.667,0,0,1-1.38,1.86Z" transform="translate(-579.675 -1012.675)" fill="#262424"/>
        </g>
        <g id="Group_272" data-name="Group 272" transform="translate(104.756 182.816)">
          <path id="Path_499" data-name="Path 499" d="M536.686,1054.2a1.607,1.607,0,0,1-1.56-1.26l-1.2-5.7h-15a1.62,1.62,0,1,1,0-3.241h16.325a1.558,1.558,0,0,1,1.56,1.26l1.5,6.962a1.6,1.6,0,0,1-1.26,1.92A.759.759,0,0,1,536.686,1054.2Z" transform="translate(-517.3 -1044)" fill="#262424"/>
        </g>
        <g id="Group_273" data-name="Group 273" transform="translate(2.297)">
          <path id="Path_500" data-name="Path 500" d="M369.3,742.1H474.871a15.125,15.125,0,0,1,14.885,12.544l21.967,126.4a8.482,8.482,0,0,0,8.283,7.022h43.153A12.218,12.218,0,0,1,575.4,900.308h0a12.218,12.218,0,0,1-12.244,12.244H372.48a15.215,15.215,0,0,1-14.825-12c-5.1-24.547-14.344-83.245-3.241-146.025A15.171,15.171,0,0,1,369.3,742.1Z" transform="translate(-347.624 -740.479)" fill="#fff"/>
          <path id="Path_501" data-name="Path 501" d="M562.181,913.093H371.442a16.764,16.764,0,0,1-16.385-13.324c-4.741-22.867-14.524-82.945-3.241-146.625A16.676,16.676,0,0,1,368.261,739.4H473.834a16.741,16.741,0,0,1,16.505,13.864l21.967,126.459a6.772,6.772,0,0,0,6.722,5.642h43.153a13.864,13.864,0,1,1,0,27.728ZM368.261,742.641A13.459,13.459,0,0,0,355,753.744c-11.223,63.139-1.5,122.737,3.181,145.424a13.493,13.493,0,0,0,13.2,10.743H562.121a10.623,10.623,0,1,0,0-21.247H518.967a10,10,0,0,1-9.9-8.343L487.1,753.864A13.472,13.472,0,0,0,473.774,742.7H368.261Z" transform="translate(-346.587 -739.4)" fill="#262424"/>
        </g>
      </g>
    </g>
    <g id="ORNAMENT" transform="translate(193.7 489.256)">
      <g id="Group_275" data-name="Group 275" transform="translate(0 0)">
        <circle id="Ellipse_26" data-name="Ellipse 26" cx="22.327" cy="22.327" r="22.327" transform="translate(0 95.369)" fill="url(#linear-gradient-14)"/>
        <circle id="Ellipse_28" data-name="Ellipse 28" cx="6.182" cy="6.182" r="6.182" transform="translate(38.472)" fill="url(#linear-gradient-15)"/>
      </g>
    </g>
    <g id="Layer_12" transform="translate(435.094 145.831)">
      <path id="Path_502" data-name="Path 502" d="M702.362,210.249l-9.6-.6a25.632,25.632,0,0,0-2.281-5.462l6.422-7.2a1.853,1.853,0,0,0-.06-2.521l-6.6-6.6a1.851,1.851,0,0,0-2.521-.06l-7.2,6.422a24.408,24.408,0,0,0-5.462-2.281l-.6-9.6a1.835,1.835,0,0,0-1.8-1.741h-9.3a1.835,1.835,0,0,0-1.8,1.741l-.6,9.6a25.632,25.632,0,0,0-5.462,2.281l-7.2-6.422a1.853,1.853,0,0,0-2.521.06l-6.6,6.6a1.851,1.851,0,0,0-.06,2.521l6.422,7.2a24.406,24.406,0,0,0-2.281,5.462l-9.6.6a1.835,1.835,0,0,0-1.741,1.8v9.3a1.835,1.835,0,0,0,1.741,1.8l9.6.6a25.635,25.635,0,0,0,2.281,5.462l-6.422,7.2a1.853,1.853,0,0,0,.06,2.521l6.6,6.6a1.851,1.851,0,0,0,2.521.06l7.2-6.422a24.407,24.407,0,0,0,5.462,2.281l.6,9.6a1.835,1.835,0,0,0,1.8,1.741h9.3a1.835,1.835,0,0,0,1.8-1.741l.6-9.6a25.634,25.634,0,0,0,5.462-2.281l7.2,6.422a1.853,1.853,0,0,0,2.521-.06l6.6-6.6a1.851,1.851,0,0,0,.06-2.521l-6.422-7.2a24.4,24.4,0,0,0,2.281-5.462l9.6-.6a1.835,1.835,0,0,0,1.741-1.8v-9.3A1.835,1.835,0,0,0,702.362,210.249Zm-34.391,15.965a9.483,9.483,0,1,1,9.483-9.483A9.5,9.5,0,0,1,667.971,226.214Z" transform="translate(-610.294 -180.6)" fill="url(#linear-gradient-16)"/>
      <path id="Path_503" data-name="Path 503" d="M638.033,322.265l-5.762-.36a15.3,15.3,0,0,0-1.32-3.241l3.841-4.321a1.11,1.11,0,0,0-.06-1.5l-3.961-3.961a1.11,1.11,0,0,0-1.5-.06l-4.321,3.841a19.484,19.484,0,0,0-3.241-1.38l-.36-5.762a1.1,1.1,0,0,0-1.08-1.02h-5.582a1.026,1.026,0,0,0-1.08,1.02l-.36,5.762a12.863,12.863,0,0,0-3.241,1.38l-4.321-3.841a1.11,1.11,0,0,0-1.5.06l-3.961,3.961a1.11,1.11,0,0,0-.06,1.5L604,318.664a15.306,15.306,0,0,0-1.32,3.241l-5.762.36a1.1,1.1,0,0,0-1.02,1.08v5.582a1.027,1.027,0,0,0,1.02,1.08l5.762.36a15.307,15.307,0,0,0,1.32,3.241l-3.841,4.321a1.11,1.11,0,0,0,.06,1.5l3.961,3.961a1.11,1.11,0,0,0,1.5.06L610,339.611a19.488,19.488,0,0,0,3.241,1.38l.36,5.762a1.1,1.1,0,0,0,1.08,1.02h5.582a1.027,1.027,0,0,0,1.08-1.02l.36-5.762a12.862,12.862,0,0,0,3.241-1.38l4.321,3.841a1.11,1.11,0,0,0,1.5-.06l3.961-3.961a1.11,1.11,0,0,0,.06-1.5l-3.841-4.321a15.3,15.3,0,0,0,1.32-3.241l5.762-.36a1.1,1.1,0,0,0,1.02-1.08v-5.582A1.027,1.027,0,0,0,638.033,322.265Zm-20.526,9.483a5.642,5.642,0,1,1,5.642-5.642A5.635,5.635,0,0,1,617.507,331.748Z" transform="translate(-595.9 -230.137)" fill="url(#linear-gradient-17)"/>
    </g>
    <g id="Calendar" transform="translate(608.155 476.292)">
      <g id="Group_286" data-name="Group 286">
        <g id="Group_276" data-name="Group 276" transform="translate(13.563 0.3)">
          <path id="Path_504" data-name="Path 504" d="M906.938,735.121l2.041,9.183,9.9,44.654c.42,1.8,1.441,3,2.581,3h50.055c1.08,0,1.8-1.741,1.44-3.421l-9.783-44.293-2.1-9.543c-.42-1.8-1.44-3-2.581-3H908.438C907.3,731.7,906.578,733.44,906.938,735.121Z" transform="translate(-906.844 -731.7)" stroke="#272525" stroke-miterlimit="10" stroke-width="1" fill="url(#linear-gradient-18)"/>
          <path id="Path_505" data-name="Path 505" d="M906.938,735.16l2.041,9.183h54.2l-2.1-9.543c-.42-1.8-1.44-3-2.581-3H908.438C907.3,731.739,906.578,733.479,906.938,735.16Z" transform="translate(-906.844 -731.739)" fill="url(#linear-gradient-19)"/>
        </g>
        <g id="Group_285" data-name="Group 285">
          <g id="Group_277" data-name="Group 277" transform="translate(0 0.06)">
            <path id="Path_506" data-name="Path 506" d="M951,735.081l-2.041,9.183-9.843,44.594c-.42,1.8-1.44,3-2.581,3H886.478c-1.08,0-1.8-1.74-1.44-3.421l9.783-44.294,2.1-9.543c.42-1.8,1.44-3,2.581-3h50.055C950.638,731.66,951.358,733.4,951,735.081Z" transform="translate(-884.525 -731.42)" fill="#fff"/>
            <path id="Path_507" data-name="Path 507" d="M936.195,792.1H886.139a1.78,1.78,0,0,1-1.2-.6,3.88,3.88,0,0,1-.6-3.121l9.783-44.294,2.1-9.543c.42-1.921,1.621-3.241,2.941-3.241h50.055a1.78,1.78,0,0,1,1.2.6,3.88,3.88,0,0,1,.6,3.121l-11.884,53.836C938.715,790.778,937.515,792.1,936.195,792.1ZM899.223,731.84c-1.02,0-1.921,1.08-2.281,2.761l-2.1,9.543-9.783,44.294a3.484,3.484,0,0,0,.48,2.641.882.882,0,0,0,.72.42h50.055c1.02,0,1.921-1.08,2.281-2.761L950.479,734.9h0a3.484,3.484,0,0,0-.48-2.641.882.882,0,0,0-.72-.42Z" transform="translate(-884.247 -731.3)" fill="#262424"/>
          </g>
          <g id="Group_278" data-name="Group 278" transform="translate(9.935)">
            <path id="Path_508" data-name="Path 508" d="M957.537,735.16l-2.041,9.183H901.3l2.1-9.543c.42-1.8,1.44-3,2.581-3h50.055C957.177,731.739,957.9,733.479,957.537,735.16Z" transform="translate(-901 -731.439)" fill="url(#linear-gradient-20)"/>
            <path id="Path_509" data-name="Path 509" d="M955.3,744.344H901.1a.312.312,0,0,1-.24-.12.361.361,0,0,1-.06-.24l2.1-9.543c.42-1.921,1.62-3.241,2.941-3.241H955.9a1.78,1.78,0,0,1,1.2.6,3.88,3.88,0,0,1,.6,3.121l-2.041,9.183A.329.329,0,0,1,955.3,744.344Zm-53.777-.6h53.6l1.981-8.883h0a3.484,3.484,0,0,0-.48-2.641.882.882,0,0,0-.72-.42H905.841c-1.02,0-1.921,1.08-2.281,2.761Z" transform="translate(-900.8 -731.2)" fill="url(#linear-gradient-21)"/>
          </g>
          <g id="Group_279" data-name="Group 279" transform="translate(63.756 3.405)">
            <line id="Line_3" data-name="Line 3" y1="11.043" x2="2.401" transform="translate(0.316 0.316)" fill="#fff"/>
            <path id="Path_510" data-name="Path 510" d="M990.79,748.533h-.06c-.18-.06-.3-.18-.24-.36l2.461-11.043c.06-.18.18-.3.36-.24s.3.18.24.36l-2.461,11.043A.4.4,0,0,1,990.79,748.533Z" transform="translate(-990.474 -736.874)" fill="#262424"/>
          </g>
          <g id="Group_284" data-name="Group 284" transform="translate(6.874 14.869)">
            <g id="Group_280" data-name="Group 280" transform="translate(29.213)">
              <line id="Line_4" data-name="Line 4" x1="8.883" y2="40.092" transform="translate(0.316 0.316)" fill="#fff"/>
              <path id="Path_511" data-name="Path 511" d="M944.69,796.682h-.06c-.18-.06-.3-.18-.24-.36l8.883-40.092c.06-.18.18-.3.36-.24s.3.18.24.36l-8.883,40.092A.306.306,0,0,1,944.69,796.682Z" transform="translate(-944.374 -755.974)" fill="#262424"/>
            </g>
            <g id="Group_281" data-name="Group 281" transform="translate(10.608)">
              <line id="Line_5" data-name="Line 5" x1="8.883" y2="40.092" transform="translate(0.316 0.316)" fill="#fff"/>
              <path id="Path_512" data-name="Path 512" d="M913.69,796.682h-.06c-.18-.06-.3-.18-.24-.36l8.883-40.092c.06-.18.18-.3.36-.24s.3.18.24.36l-8.883,40.092A.306.306,0,0,1,913.69,796.682Z" transform="translate(-913.374 -755.974)" fill="#262424"/>
            </g>
            <g id="Group_282" data-name="Group 282" transform="translate(3.601 13.1)">
              <line id="Line_6" data-name="Line 6" x2="46.514" transform="translate(0.3 0.3)" fill="#fff"/>
              <path id="Path_513" data-name="Path 513" d="M948.514,778.4H902a.3.3,0,0,1,0-.6h46.514a.3.3,0,0,1,0,.6Z" transform="translate(-901.7 -777.8)" fill="#262424"/>
            </g>
            <g id="Group_283" data-name="Group 283" transform="translate(0 28.764)">
              <line id="Line_7" data-name="Line 7" x2="46.514" transform="translate(0.3 0.3)" fill="#fff"/>
              <path id="Path_514" data-name="Path 514" d="M942.514,804.5H896a.3.3,0,1,1,0-.6h46.514a.3.3,0,0,1,0,.6Z" transform="translate(-895.7 -803.9)" fill="#262424"/>
            </g>
          </g>
        </g>
      </g>
    </g>
    <g id="People" transform="translate(479.027 175.72)">
      <g id="Group_313" data-name="Group 313" transform="translate(219.585 175.674)">
        <g id="Group_289" data-name="Group 289">
          <g id="Group_287" data-name="Group 287">
            <path id="Path_515" data-name="Path 515" d="M1257.429,536.6l-2.7,18.306-16.5,110.854a10.674,10.674,0,0,1-10.623,9.123H1046.945a10.743,10.743,0,0,1-10.623-12.3l16.025-107.673,3.181-21.487a10.674,10.674,0,0,1,10.623-9.123h180.655A10.711,10.711,0,0,1,1257.429,536.6Z" transform="translate(-1035.459 -523.58)" fill="#fff"/>
            <path id="Path_516" data-name="Path 516" d="M1227.1,675.246H1046.449a11.505,11.505,0,0,1-11.344-13.2l19.266-129.159a11.539,11.539,0,0,1,11.343-9.783H1246.37a11.419,11.419,0,0,1,11.344,13.144L1238.447,665.4A11.545,11.545,0,0,1,1227.1,675.246ZM1065.654,524.6a10.047,10.047,0,0,0-9.843,8.463l-19.206,129.22a10.121,10.121,0,0,0,2.281,7.982,9.911,9.911,0,0,0,7.562,3.481H1227.1a10.047,10.047,0,0,0,9.843-8.463l19.266-129.159a10.121,10.121,0,0,0-2.281-7.982,9.765,9.765,0,0,0-7.562-3.421H1065.654Zm191.279,11.524Z" transform="translate(-1034.963 -523.1)" fill="#262424"/>
          </g>
          <path id="Path_517" data-name="Path 517" d="M1268.042,535.6a13.739,13.739,0,0,1-.12,1.5l-2.7,18.306v.12H1064.4l3.181-21.367a9.946,9.946,0,0,1,9.843-8.463h180.655a10.028,10.028,0,0,1,7.082,2.941A9.8,9.8,0,0,1,1268.042,535.6Z" transform="translate(-1046.732 -524.14)" fill="url(#linear-gradient-22)"/>
          <g id="Group_288" data-name="Group 288" transform="translate(37.354 11.584)">
            <circle id="Ellipse_29" data-name="Ellipse 29" cx="4.441" cy="4.441" r="4.441" fill="#fff"/>
            <circle id="Ellipse_30" data-name="Ellipse 30" cx="4.441" cy="4.441" r="4.441" transform="translate(21.487)" fill="#fff"/>
            <circle id="Ellipse_31" data-name="Ellipse 31" cx="4.441" cy="4.441" r="4.441" transform="translate(42.973)" fill="#fff"/>
          </g>
        </g>
        <g id="Group_311" data-name="Group 311" transform="translate(1.537 1.5)">
          <g id="Group_310" data-name="Group 310" clip-path="url(#clip-path)">
            <path id="Path_518" data-name="Path 518" d="M1195.492,643.27c-20.346-.9-21.907-10.443-17.885-24.848-3.061-4.742-6.542-10.443-3.421-21.247,2.881-10.083,21.367-21.427,35.351-8.523h0c.3.06,10.683,3.121,10.863,22.387C1220.579,630.546,1218.359,644.23,1195.492,643.27Z" transform="translate(-1091.674 -548.501)" fill="#262424"/>
            <g id="Group_307" data-name="Group 307" transform="translate(24.079 34.764)">
              <path id="Path_519" data-name="Path 519" d="M1147.186,719.431c-2.641,10.263-5.462,21.487-9.843,31.09-5.582,9.063-18.005,23.107-26.468,21.607-11.1-2.041-3.841-29.409-2.1-35.951.06-.3,11.223-19.386,16.625-34.391a32.6,32.6,0,0,1,18.546-19.386S1153.188,696.144,1147.186,719.431Z" transform="translate(-1088.514 -623.055)" fill="url(#linear-gradient-23)"/>
              <g id="Group_293" data-name="Group 293" transform="translate(36.825 42.533)">
                <path id="Path_520" data-name="Path 520" d="M1222.846,683.747s-20.886-14.645-65.3-4.021c0,0-16.505,21.727-17.165,43.933-.18,5.582,3.061,16.025,2.941,22.507A382.07,382.07,0,0,1,1139,797.781l92.368,3C1231.428,800.722,1236.77,747.966,1222.846,683.747Z" transform="translate(-1139 -662.974)" fill="url(#linear-gradient-24)"/>
                <g id="Group_290" data-name="Group 290" transform="translate(0.597 18.814)">
                  <path id="Path_521" data-name="Path 521" d="M1143.659,757.2h0a.756.756,0,0,1-.78-.78c.06-2.161.12-4.261.12-6.3.06-3.181-.78-7.442-1.56-11.583A60.18,60.18,0,0,1,1140,727.607c.54-17.585,10.923-34.931,15.365-41.533a.842.842,0,0,1,1.08-.24.826.826,0,0,1,.24,1.08c-4.381,6.542-14.584,23.527-15.125,40.753-.06,2.7.66,6.482,1.38,10.563.78,4.2,1.62,8.523,1.56,11.884,0,2.041-.06,4.2-.12,6.362A.693.693,0,0,1,1143.659,757.2Z" transform="translate(-1139.994 -685.736)" fill="#262424"/>
                </g>
                <g id="Group_291" data-name="Group 291" transform="translate(5.282 128.566)">
                  <path id="Path_522" data-name="Path 522" d="M1230.925,872.081h0l-82.345-1.921a.78.78,0,1,1,0-1.56l82.345,1.921a.78.78,0,0,1,0,1.56Z" transform="translate(-1147.8 -868.6)" fill="#262424"/>
                </g>
                <g id="Group_292" data-name="Group 292" transform="translate(27.488)">
                  <path id="Path_523" data-name="Path 523" d="M1217.75,671.561a20.257,20.257,0,0,1-12.784,11.464,75.967,75.967,0,0,0-3.6-11.824,30.862,30.862,0,0,0-4.861,11.764,14.469,14.469,0,0,1-10.5-11.644c1.14-9.123,9-15.965,15.665-15.725C1216.609,656.076,1217.75,671.561,1217.75,671.561Z" transform="translate(-1185.28 -654.869)" fill="#fff"/>
                  <path id="Path_524" data-name="Path 524" d="M1204.546,683.325a1.111,1.111,0,0,1-.42-.12.874.874,0,0,1-.36-.54,72.817,72.817,0,0,0-3-10.263,31.119,31.119,0,0,0-3.9,10.2.875.875,0,0,1-.36.54.74.74,0,0,1-.6.12c-9.843-2.7-11.043-12.244-11.1-12.3v-.18c1.26-9.963,9.723-16.625,16.505-16.385,15.365.54,16.745,16.565,16.745,16.685a.761.761,0,0,1-.06.36,20.953,20.953,0,0,1-13.264,11.884Zm-3.6-13.324h.12a.729.729,0,0,1,.6.48,71.7,71.7,0,0,1,3.421,11.043,19.53,19.53,0,0,0,11.4-10.563c-.18-1.8-1.981-14.645-15.245-15.065-6.062-.18-13.684,6.122-14.885,14.945a13.573,13.573,0,0,0,9.123,10.683,31.485,31.485,0,0,1,4.8-11.224A.965.965,0,0,1,1200.945,670Z" transform="translate(-1184.8 -654.39)" fill="#262424"/>
                </g>
              </g>
              <g id="Group_294" data-name="Group 294" transform="translate(72.821 24.09)">
                <path id="Path_525" data-name="Path 525" d="M1216.065,625l-.24,9.123-.42,15.6c-5.221,3.661-10.383,4.081-15.3.36l.72-7.262,1.08-10.983Z" transform="translate(-1199.425 -624.196)" fill="#fff"/>
                <path id="Path_526" data-name="Path 526" d="M1206.852,652.913a12.131,12.131,0,0,1-7.562-2.761.688.688,0,0,1-.3-.72l1.8-18.246a.722.722,0,0,1,.42-.6l14.1-6.842a.738.738,0,0,1,.78.06.753.753,0,0,1,.36.66l-.66,24.728a.66.66,0,0,1-.36.6A14.82,14.82,0,0,1,1206.852,652.913Zm-6.362-3.721c4.261,3.061,8.763,2.881,13.684-.42l.6-23.047-12.6,6.122Z" transform="translate(-1198.974 -623.661)" fill="#262424"/>
              </g>
              <g id="Group_299" data-name="Group 299" transform="translate(62.384 7.702)">
                <g id="Group_298" data-name="Group 298">
                  <g id="Group_295" data-name="Group 295" transform="translate(0.724 0.198)">
                    <path id="Path_527" data-name="Path 527" d="M1182.976,615.36c.48,7.5,2.341,16.565,11.4,15.485,10.743-1.32,17.946-8.643,18.366-18.786s-4.021-16.085-16.265-15.3a23.5,23.5,0,0,0-3.061.42c-7.082,1.62-10.8,7.322-10.623,14.164C1182.856,612.6,1182.916,613.98,1182.976,615.36Z" transform="translate(-1182.79 -596.686)" fill="#fff"/>
                  </g>
                  <g id="Group_297" data-name="Group 297">
                    <g id="Group_296" data-name="Group 296">
                      <path id="Path_528" data-name="Path 528" d="M1192.517,631.613a8.843,8.843,0,0,1-5.7-1.921c-3.9-3.241-4.741-9.723-5.042-14.344-.12-1.44-.12-2.761-.18-4.021-.24-7.562,4.081-13.264,11.223-14.945a.8.8,0,1,1,.36,1.56c-6.362,1.5-10.2,6.6-10.023,13.384.06,1.26.06,2.581.18,4.021.3,4.321,1.08,10.443,4.5,13.264a7.517,7.517,0,0,0,6.062,1.5,21.644,21.644,0,0,0,10.683-4.141.769.769,0,1,1,.96,1.2,22.832,22.832,0,0,1-11.464,4.442A13.51,13.51,0,0,0,1192.517,631.613Z" transform="translate(-1181.584 -596.355)" fill="#262424"/>
                    </g>
                  </g>
                </g>
              </g>
              <path id="Path_529" data-name="Path 529" d="M1186.1,594.312s.9,16.805,23.287,16.925c0,0,13.324-4.081,8.823-16.925C1213.768,581.528,1191.742,578.407,1186.1,594.312Z" transform="translate(-1121.006 -583.522)" fill="#262424"/>
              <g id="Group_300" data-name="Group 300" transform="translate(6.632 38.378)">
                <path id="Path_530" data-name="Path 530" d="M1094.259,685.539s-4.141-27.908-4.261-29.589,2.941-6.662,9.723-7.2,8.343,1.8,8.343,3.961,1.02,10.263,1.02,10.263-.24-10.263-.12-11.764c.12-1.56,3.961-2.461,4.2.12s1.26,20.886,1.26,20.886,8.823-2.7,11.163-2.821,2.041,3.6.9,4.2c-1.14.66-20.826,14.584-20.826,14.584Z" transform="translate(-1089.214 -647.947)" fill="#fff"/>
                <path id="Path_531" data-name="Path 531" d="M1105.2,688.539h-.18l-11.464-2.7a.769.769,0,0,1-.6-.66c-.18-1.14-4.141-27.969-4.261-29.649a6.326,6.326,0,0,1,1.741-3.841,12.59,12.59,0,0,1,8.7-4.141c3.781-.3,6.422.24,7.862,1.62a4.2,4.2,0,0,1,.78,1.02,3.355,3.355,0,0,1,2.941-1.68h.06a2.456,2.456,0,0,1,2.641,2.341c.24,2.221,1.02,16.085,1.2,19.926,2.341-.72,8.463-2.461,10.383-2.581a2.268,2.268,0,0,1,2.4,1.8c.36,1.32,0,3.241-1.14,3.9-.84.48-12.844,8.943-20.766,14.585A.731.731,0,0,1,1105.2,688.539Zm-10.743-4.081,10.563,2.461c3-2.161,19.506-13.8,20.586-14.464a2.339,2.339,0,0,0,.36-2.1c-.18-.66-.54-.72-.84-.66-1.8.12-8.522,2.041-10.983,2.761a.654.654,0,0,1-.66-.12.738.738,0,0,1-.3-.6c0-.18-1.02-18.306-1.26-20.826,0-.24-.12-.9-1.14-.9h0a1.756,1.756,0,0,0-1.56.78c-.12,1.2.06,8.163.12,11.7a.785.785,0,0,1-1.56.12c-.06-.36-1.021-8.162-1.021-10.323a2.354,2.354,0,0,0-.84-1.981c-1.14-1.02-3.421-1.44-6.662-1.2a10.815,10.815,0,0,0-7.622,3.6,4.663,4.663,0,0,0-1.38,2.7C1090.378,656.729,1093.019,674.675,1094.459,684.458Z" transform="translate(-1088.694 -647.466)" fill="#262424"/>
              </g>
              <g id="Group_304" data-name="Group 304" transform="translate(0 73.809)">
                <path id="Path_532" data-name="Path 532" d="M1088.12,706.5l15,4.141s1.56,27.668,2.7,39.192,1.321,30.189-5.762,31.87-25.088-8.1-22.087-25.748C1082.719,727.927,1088.12,706.5,1088.12,706.5Z" transform="translate(-1077.643 -706.5)" fill="url(#linear-gradient-25)"/>
                <g id="Group_301" data-name="Group 301" transform="translate(26.076 26.341)">
                  <path id="Path_533" data-name="Path 533" d="M1121.876,794.869a.36.36,0,0,1-.24-.06.8.8,0,0,1-.48-1.02c2.821-7.8,1.621-22.147,1.2-26.408l-1.26-16.145a.783.783,0,0,1,1.561-.12l1.26,16.145c.54,5.462,1.5,19.146-1.32,27.068A.841.841,0,0,1,1121.876,794.869Z" transform="translate(-1121.089 -750.389)" fill="#262424"/>
                </g>
                <g id="Group_302" data-name="Group 302" transform="translate(9.606 8.252)">
                  <path id="Path_534" data-name="Path 534" d="M1107.664,725.141h-.18l-13.264-3.361a.779.779,0,1,1,.42-1.5l13.264,3.361a.771.771,0,0,1,.54.96A.854.854,0,0,1,1107.664,725.141Z" transform="translate(-1093.648 -720.249)" fill="#262424"/>
                </g>
                <g id="Group_303" data-name="Group 303" transform="translate(11.258 2.281)">
                  <circle id="Ellipse_32" data-name="Ellipse 32" cx="2.101" cy="2.101" r="2.101" transform="translate(0.78 0.72)" fill="#fff"/>
                  <path id="Path_535" data-name="Path 535" d="M1099.281,716.062a2.881,2.881,0,1,1,2.881-2.881A2.844,2.844,0,0,1,1099.281,716.062Zm0-4.261a1.32,1.32,0,1,0,1.32,1.32A1.26,1.26,0,0,0,1099.281,711.8Z" transform="translate(-1096.4 -710.3)" fill="#262424"/>
                </g>
              </g>
              <g id="Group_306" data-name="Group 306" transform="translate(107.232 63.306)">
                <path id="Path_536" data-name="Path 536" d="M1270.27,689s26.228,13.084,23.947,116.856h-33.91s.42-68.961-2.041-85.346C1255.145,700.043,1263.908,689.54,1270.27,689Z" transform="translate(-1256.831 -689)" fill="url(#linear-gradient-26)"/>
                <g id="Group_305" data-name="Group 305" transform="translate(0 0.358)">
                  <path id="Path_537" data-name="Path 537" d="M1259.784,793.25a.8.8,0,0,1-.78-.78c0-21.727-.3-59.958-2.041-71.6-2.641-17.585,3.181-27.729,8.943-31.15a.793.793,0,0,1,.78,1.38c-5.762,3.361-10.563,13.864-8.223,29.589,1.74,11.764,2.041,50.055,2.1,71.842a.744.744,0,0,1-.78.72Z" transform="translate(-1256.309 -689.596)" fill="#262424"/>
                </g>
              </g>
            </g>
            <g id="Group_309" data-name="Group 309" transform="translate(111.715 54.536)">
              <path id="Path_538" data-name="Path 538" d="M1224.887,626.149a7.888,7.888,0,0,1,7.082-8.463,7.069,7.069,0,0,1,2.7.3c5.222,1.621,3.421,13.8-9.423,12.424Z" transform="translate(-1224.141 -616.945)" fill="#fff"/>
              <g id="Group_308" data-name="Group 308">
                <path id="Path_539" data-name="Path 539" d="M1226.684,630.83c-.66,0-1.321-.06-1.981-.12a.756.756,0,0,1,.18-1.5c7.2.78,10.5-2.821,11.163-6.122.48-2.281-.42-4.321-2.041-4.8a6.425,6.425,0,0,0-2.4-.24,7.059,7.059,0,0,0-6.362,7.622.783.783,0,1,1-1.561.12,8.61,8.61,0,0,1,7.8-9.3,8.39,8.39,0,0,1,3,.3c2.461.72,3.721,3.541,3.121,6.6C1236.767,627.229,1233.106,630.83,1226.684,630.83Z" transform="translate(-1223.657 -616.465)" fill="#262424"/>
              </g>
            </g>
          </g>
        </g>
        <g id="Group_312" data-name="Group 312" transform="translate(151.509 101.191)">
          <circle id="Ellipse_33" data-name="Ellipse 33" cx="19.686" cy="19.686" r="19.686" fill="url(#linear-gradient-27)"/>
          <path id="Path_541" data-name="Path 541" d="M1317.127,721.49s-5.222,5.222-11.7,6.482a2.74,2.74,0,0,1-2.4-.84l-2.1-2.1a2.4,2.4,0,0,1-.36-3.3l2.4-2.4a2.341,2.341,0,0,1,3.3.36l1.14,1.14a7.175,7.175,0,0,0,1.981-.6,11.607,11.607,0,0,0,6.362-6.362,7.17,7.17,0,0,0,.6-1.981l-1.14-1.14a2.4,2.4,0,0,1-.36-3.3l2.4-2.4a2.341,2.341,0,0,1,3.3.36l2.1,2.1a2.857,2.857,0,0,1,.84,2.4C1322.409,716.209,1317.127,721.49,1317.127,721.49Z" transform="translate(-1292.46 -696.823)" fill="#fff"/>
        </g>
      </g>
      <g id="Group_339" data-name="Group 339" transform="translate(201.879)">
        <g id="Group_316" data-name="Group 316">
          <g id="Group_314" data-name="Group 314">
            <path id="Path_542" data-name="Path 542" d="M1227.929,244l-2.7,18.306-16.505,110.854a10.674,10.674,0,0,1-10.623,9.123H1017.445a10.743,10.743,0,0,1-10.623-12.3l16.025-107.673,3.181-21.487a10.674,10.674,0,0,1,10.623-9.123h180.655A10.711,10.711,0,0,1,1227.929,244Z" transform="translate(-1005.959 -230.92)" fill="#fff"/>
            <path id="Path_543" data-name="Path 543" d="M1197.6,382.546H1016.948a11.505,11.505,0,0,1-11.343-13.2l19.266-129.159a11.539,11.539,0,0,1,11.344-9.783H1216.87a11.419,11.419,0,0,1,11.344,13.144L1208.947,372.7A11.538,11.538,0,0,1,1197.6,382.546ZM1036.154,231.96a9.848,9.848,0,0,0-9.843,8.463l-19.266,129.159a10.121,10.121,0,0,0,2.281,7.982,9.911,9.911,0,0,0,7.562,3.481h180.655a10.047,10.047,0,0,0,9.843-8.463l19.266-129.219a10.121,10.121,0,0,0-2.281-7.982,9.765,9.765,0,0,0-7.562-3.421Zm191.279,11.524Z" transform="translate(-1005.463 -230.4)" fill="#262424"/>
          </g>
          <path id="Path_544" data-name="Path 544" d="M1238.542,242.9a13.708,13.708,0,0,1-.12,1.5l-2.7,18.306v.12H1034.9l3.181-21.367a9.946,9.946,0,0,1,9.843-8.463h180.655a10.028,10.028,0,0,1,7.082,2.941A9.8,9.8,0,0,1,1238.542,242.9Z" transform="translate(-1017.232 -231.44)" fill="url(#linear-gradient-28)"/>
          <g id="Group_315" data-name="Group 315" transform="translate(37.354 11.644)">
            <circle id="Ellipse_34" data-name="Ellipse 34" cx="4.441" cy="4.441" r="4.441" fill="#fff"/>
            <circle id="Ellipse_35" data-name="Ellipse 35" cx="4.441" cy="4.441" r="4.441" transform="translate(21.487)" fill="#fff"/>
            <circle id="Ellipse_36" data-name="Ellipse 36" cx="4.441" cy="4.441" r="4.441" transform="translate(42.973)" fill="#fff"/>
          </g>
        </g>
        <g id="Group_337" data-name="Group 337" transform="translate(1.477 1.56)">
          <g id="Group_336" data-name="Group 336" clip-path="url(#clip-path-2)">
            <path id="Path_545" data-name="Path 545" d="M1119.686,426.131c-2.641,10.263-5.462,21.487-9.843,31.09-5.582,9.063-18.005,23.107-26.468,21.607-11.1-2.041-3.841-29.409-2.1-35.951.06-.3,9.423-22.087,14.825-37.091s15.485-16.685,15.485-16.685S1125.628,402.844,1119.686,426.131Z" transform="translate(-1035.674 -295.411)" fill="url(#linear-gradient-29)"/>
            <g id="Group_320" data-name="Group 320" transform="translate(62.165 76.877)">
              <path id="Path_546" data-name="Path 546" d="M1195.345,390.447s-25.748-14.644-70.161-4.021c0,0-12.184,11.464-11.583,40.212.6,29.769-2.1,77.784-2.1,77.784l92.368,3C1203.928,507.422,1209.27,454.666,1195.345,390.447Z" transform="translate(-1111.5 -369.674)" fill="url(#linear-gradient-30)"/>
              <g id="Group_317" data-name="Group 317" transform="translate(5.282 128.566)">
                <path id="Path_547" data-name="Path 547" d="M1203.426,578.781h0l-82.345-1.92a.78.78,0,0,1,0-1.561h0l82.345,1.921a.78.78,0,1,1,0,1.56Z" transform="translate(-1120.3 -575.3)" fill="#262424"/>
              </g>
              <g id="Group_318" data-name="Group 318" transform="translate(1.08 18.168)">
                <path id="Path_548" data-name="Path 548" d="M1114.08,462.926h0a.794.794,0,0,1-.78-.78l.78-44.294v-.06c1.681-14.1,6.6-22.387,9.363-26.108a.774.774,0,0,1,1.26.9c-2.7,3.541-7.382,11.524-9.063,25.268l-.78,44.294A.794.794,0,0,1,1114.08,462.926Z" transform="translate(-1113.3 -391.36)" fill="#262424"/>
              </g>
              <g id="Group_319" data-name="Group 319" transform="translate(27.429)">
                <path id="Path_549" data-name="Path 549" d="M1190.25,378.261a20.257,20.257,0,0,1-12.784,11.464,75.98,75.98,0,0,0-3.6-11.824A30.866,30.866,0,0,0,1169,389.664a14.47,14.47,0,0,1-10.5-11.644c1.14-9.123,9-15.965,15.665-15.725C1189.049,362.776,1190.25,378.261,1190.25,378.261Z" transform="translate(-1157.72 -361.569)" fill="#fff"/>
                <path id="Path_550" data-name="Path 550" d="M1176.946,390.025a1.113,1.113,0,0,1-.42-.12.874.874,0,0,1-.36-.54,72.816,72.816,0,0,0-3-10.263,31.12,31.12,0,0,0-3.9,10.2.874.874,0,0,1-.36.54.739.739,0,0,1-.6.12c-9.843-2.7-11.043-12.244-11.1-12.3v-.18c1.26-9.963,9.723-16.625,16.505-16.385,15.365.54,16.745,16.565,16.745,16.685a.762.762,0,0,1-.06.36,20.954,20.954,0,0,1-13.264,11.884ZM1173.4,376.7h.12a.729.729,0,0,1,.6.48,71.687,71.687,0,0,1,3.421,11.043,19.529,19.529,0,0,0,11.4-10.563c-.18-1.8-1.981-14.644-15.245-15.065h-.3c-6,0-13.444,6.3-14.584,14.945a13.573,13.573,0,0,0,9.123,10.683,31.484,31.484,0,0,1,4.8-11.223A.964.964,0,0,1,1173.4,376.7Z" transform="translate(-1157.2 -361.09)" fill="#262424"/>
              </g>
            </g>
            <g id="Group_321" data-name="Group 321" transform="translate(98.101 58.434)">
              <path id="Path_551" data-name="Path 551" d="M1188.565,331.7l-.24,9.123-.42,15.6c-5.222,3.661-10.383,4.081-15.3.36l.72-7.262,1.08-10.983Z" transform="translate(-1171.864 -330.896)" fill="#fff"/>
              <path id="Path_552" data-name="Path 552" d="M1179.252,359.613a12.131,12.131,0,0,1-7.562-2.761.688.688,0,0,1-.3-.72l1.8-18.246a.723.723,0,0,1,.42-.6l14.1-6.842a.738.738,0,0,1,.78.06.753.753,0,0,1,.36.66l-.66,24.728a.66.66,0,0,1-.36.6A14.681,14.681,0,0,1,1179.252,359.613Zm-6.3-3.721c4.261,3.061,8.762,2.881,13.684-.42l.6-23.047-12.6,6.122Z" transform="translate(-1171.375 -330.361)" fill="#262424"/>
            </g>
            <g id="Group_328" data-name="Group 328" transform="translate(83.601 32.16)">
              <g id="Group_327" data-name="Group 327">
                <g id="Group_322" data-name="Group 322" transform="translate(4.846 10.084)">
                  <path id="Path_553" data-name="Path 553" d="M1155.476,322.06c.48,7.5,2.341,16.565,11.4,15.485,10.743-1.32,17.946-8.643,18.366-18.786s-4.021-16.085-16.265-15.3a23.541,23.541,0,0,0-3.061.42c-7.082,1.621-10.8,7.322-10.623,14.164C1155.356,319.3,1155.356,320.68,1155.476,322.06Z" transform="translate(-1155.29 -303.386)" fill="#fff"/>
                </g>
                <g id="Group_324" data-name="Group 324" transform="translate(4.063 9.886)">
                  <g id="Group_323" data-name="Group 323">
                    <path id="Path_554" data-name="Path 554" d="M1164.917,338.313a8.845,8.845,0,0,1-5.7-1.921c-3.9-3.241-4.741-9.723-5.042-14.344-.12-1.44-.12-2.761-.18-4.021-.24-7.562,4.081-13.264,11.224-14.945a.8.8,0,1,1,.36,1.56c-6.362,1.5-10.2,6.6-10.023,13.384.06,1.26.06,2.581.18,4.021.3,4.321,1.08,10.443,4.5,13.264a7.516,7.516,0,0,0,6.062,1.5,21.642,21.642,0,0,0,10.683-4.141.769.769,0,0,1,.96,1.2,22.832,22.832,0,0,1-11.464,4.441A13.539,13.539,0,0,0,1164.917,338.313Z" transform="translate(-1153.984 -303.056)" fill="#262424"/>
                  </g>
                </g>
                <path id="Path_555" data-name="Path 555" d="M1185.137,314.082a33.516,33.516,0,0,1-3.6,4.081l-5.4.18-1.02-3.841s-3.421-.24-4.021-2.581a.465.465,0,0,0-.06-.18,29.594,29.594,0,0,1-.06-9.363s-8.343,3.361-12.844,3.661a9.946,9.946,0,0,1-5.222-1.5c-3.421-1.861-6.3-7.682-5.582-11.524v-.06c1.14-5.642,3.961-1.621,3.961-1.621s1.021-4.5,3.841-4.741c2.881-.24,4.561,4.021,4.561,4.021a45.333,45.333,0,0,1,16.745-.12c10.983,2.041,7.982,9.6,7.982,9.6S1192.52,302.858,1185.137,314.082Z" transform="translate(-1147.215 -286.584)" fill="#262424"/>
                <g id="Group_326" data-name="Group 326" transform="translate(29.315 21.956)">
                  <path id="Path_556" data-name="Path 556" d="M1197.387,332.849a7.889,7.889,0,0,1,7.082-8.463,7.067,7.067,0,0,1,2.7.3c5.222,1.62,3.421,13.8-9.423,12.424Z" transform="translate(-1196.581 -323.645)" fill="#fff"/>
                  <g id="Group_325" data-name="Group 325">
                    <path id="Path_557" data-name="Path 557" d="M1199.084,337.53c-.66,0-1.32-.06-1.981-.12a.756.756,0,0,1,.18-1.5c7.2.78,10.5-2.821,11.163-6.122.48-2.281-.42-4.321-2.041-4.8a6.427,6.427,0,0,0-2.4-.24,7.059,7.059,0,0,0-6.362,7.622.794.794,0,0,1-.72.84.842.842,0,0,1-.84-.72,8.61,8.61,0,0,1,7.8-9.3,8.391,8.391,0,0,1,3,.3c2.461.72,3.721,3.541,3.121,6.6C1209.167,333.929,1205.566,337.53,1199.084,337.53Z" transform="translate(-1196.057 -323.165)" fill="#262424"/>
                  </g>
                </g>
              </g>
            </g>
            <g id="Group_329" data-name="Group 329" transform="translate(31.972 72.722)">
              <path id="Path_558" data-name="Path 558" d="M1066.759,392.239s-4.141-27.909-4.261-29.589,2.941-6.662,9.723-7.2,8.343,1.8,8.343,3.961,1.02,10.263,1.02,10.263-.24-10.263-.12-11.764c.12-1.56,3.961-2.461,4.2.12s1.26,20.886,1.26,20.886,8.823-2.7,11.163-2.821,2.041,3.6.9,4.2-20.826,14.584-20.826,14.584Z" transform="translate(-1061.714 -354.647)" fill="#fff"/>
              <path id="Path_559" data-name="Path 559" d="M1077.7,395.239h-.18l-11.464-2.7a.769.769,0,0,1-.6-.66c-.18-1.14-4.141-27.969-4.261-29.649a6.325,6.325,0,0,1,1.74-3.841,12.591,12.591,0,0,1,8.7-4.141c3.781-.3,6.422.24,7.862,1.621a4.2,4.2,0,0,1,.78,1.02,3.356,3.356,0,0,1,2.941-1.68,2.546,2.546,0,0,1,2.7,2.341c.24,2.221,1.02,16.085,1.2,19.926,2.341-.72,8.463-2.461,10.383-2.581a2.229,2.229,0,0,1,2.4,1.8c.36,1.32,0,3.241-1.14,3.9-.84.48-12.844,8.943-20.766,14.584A1.227,1.227,0,0,1,1077.7,395.239Zm-10.743-4.081,10.563,2.461c3-2.161,19.506-13.8,20.586-14.464a2.339,2.339,0,0,0,.36-2.1c-.18-.6-.54-.72-.84-.66-1.8.12-8.522,2.041-10.983,2.761a.654.654,0,0,1-.66-.12.739.739,0,0,1-.3-.6c0-.18-1.02-18.306-1.26-20.826,0-.24-.12-.9-1.14-.9h0a1.757,1.757,0,0,0-1.56.78c-.12,1.2.06,8.162.12,11.7a.785.785,0,0,1-1.561.12c-.06-.36-1.02-8.162-1.02-10.323a2.354,2.354,0,0,0-.84-1.981c-1.14-1.02-3.421-1.44-6.662-1.2a10.814,10.814,0,0,0-7.622,3.6,4.662,4.662,0,0,0-1.38,2.7C1062.878,363.429,1065.519,381.375,1066.959,391.158Z" transform="translate(-1061.194 -354.166)" fill="#262424"/>
            </g>
            <g id="Group_333" data-name="Group 333" transform="translate(25.28 108.153)">
              <path id="Path_560" data-name="Path 560" d="M1060.52,413.2l15,4.141s1.561,27.668,2.7,39.192,1.32,30.189-5.762,31.87-25.088-8.1-22.087-25.748C1055.179,434.627,1060.52,413.2,1060.52,413.2Z" transform="translate(-1050.043 -413.2)" fill="url(#linear-gradient-31)"/>
              <g id="Group_330" data-name="Group 330" transform="translate(26.136 26.341)">
                <path id="Path_561" data-name="Path 561" d="M1094.376,501.569a.361.361,0,0,1-.24-.06.8.8,0,0,1-.48-1.02c2.821-7.8,1.621-22.147,1.2-26.408l-1.26-16.145a.782.782,0,1,1,1.56-.12l1.26,16.145c.54,5.462,1.5,19.146-1.32,27.068A.841.841,0,0,1,1094.376,501.569Z" transform="translate(-1093.589 -457.089)" fill="#262424"/>
              </g>
              <g id="Group_331" data-name="Group 331" transform="translate(9.666 8.252)">
                <path id="Path_562" data-name="Path 562" d="M1080.164,431.841h-.18l-13.264-3.361a.779.779,0,1,1,.42-1.5l13.264,3.361a.771.771,0,0,1,.54.96A.925.925,0,0,1,1080.164,431.841Z" transform="translate(-1066.148 -426.948)" fill="#262424"/>
              </g>
              <g id="Group_332" data-name="Group 332" transform="translate(11.318 2.281)">
                <circle id="Ellipse_37" data-name="Ellipse 37" cx="2.101" cy="2.101" r="2.101" transform="translate(0.78 0.72)" fill="#fff"/>
                <path id="Path_563" data-name="Path 563" d="M1071.781,422.762a2.882,2.882,0,0,1-2.881-2.881,2.921,2.921,0,0,1,2.881-2.881,2.881,2.881,0,0,1,0,5.762Zm0-4.261a1.32,1.32,0,1,0,1.32,1.32A1.294,1.294,0,0,0,1071.781,418.5Z" transform="translate(-1068.9 -417)" fill="#262424"/>
              </g>
            </g>
            <g id="Group_335" data-name="Group 335" transform="translate(132.572 97.65)">
              <path id="Path_564" data-name="Path 564" d="M1242.767,395.7s26.228,13.084,23.947,116.856H1232.8s.42-68.961-2.041-85.346C1227.643,406.743,1236.345,396.24,1242.767,395.7Z" transform="translate(-1229.328 -395.7)" fill="url(#linear-gradient-32)"/>
              <g id="Group_334" data-name="Group 334" transform="translate(0 0.358)">
                <path id="Path_565" data-name="Path 565" d="M1232.284,499.95a.8.8,0,0,1-.78-.78c0-21.727-.3-59.958-2.041-71.6-2.641-17.585,3.181-27.728,8.943-31.15a.793.793,0,1,1,.78,1.38c-5.762,3.361-10.563,13.864-8.222,29.589,1.741,11.764,2.041,50.055,2.1,71.842a.744.744,0,0,1-.78.72Z" transform="translate(-1228.809 -396.296)" fill="#262424"/>
              </g>
            </g>
          </g>
        </g>
        <g id="Group_338" data-name="Group 338" transform="translate(151.509 101.191)">
          <circle id="Ellipse_38" data-name="Ellipse 38" cx="19.686" cy="19.686" r="19.686" fill="url(#linear-gradient-33)"/>
          <path id="Path_567" data-name="Path 567" d="M1287.627,428.79s-5.222,5.222-11.7,6.482a2.74,2.74,0,0,1-2.4-.84l-2.1-2.1a2.4,2.4,0,0,1-.36-3.3l2.4-2.4a2.341,2.341,0,0,1,3.3.36l1.14,1.14a7.177,7.177,0,0,0,1.981-.6,11.608,11.608,0,0,0,6.362-6.362,7.17,7.17,0,0,0,.6-1.981l-1.141-1.14a2.4,2.4,0,0,1-.36-3.3l2.4-2.4a2.341,2.341,0,0,1,3.3.36l2.1,2.1a2.857,2.857,0,0,1,.84,2.4C1292.909,423.509,1287.627,428.79,1287.627,428.79Z" transform="translate(-1262.96 -404.123)" fill="#fff"/>
        </g>
      </g>
      <g id="Group_341" data-name="Group 341" transform="translate(153.647 187.257)">
        <path id="Path_568" data-name="Path 568" d="M925.1,550.2v23.167a7.787,7.787,0,0,0,7.8,7.8h32.83l6.122,6.122a.878.878,0,0,0,1.5-.6v-5.522h6.482a7.787,7.787,0,0,0,7.8-7.8V550.2a7.787,7.787,0,0,0-7.8-7.8H932.842A7.774,7.774,0,0,0,925.1,550.2Z" transform="translate(-925.1 -542.4)" fill="url(#linear-gradient-34)"/>
        <g id="Group_340" data-name="Group 340" transform="translate(8.223 11.463)">
          <path id="Path_569" data-name="Path 569" d="M939.58,566.361h44.534a.794.794,0,0,0,.78-.78v-3.3a.794.794,0,0,0-.78-.78H939.58a.794.794,0,0,0-.78.78v3.3A.725.725,0,0,0,939.58,566.361Z" transform="translate(-938.8 -561.5)" fill="#fff"/>
          <path id="Path_570" data-name="Path 570" d="M983.18,584.661h18.306a.794.794,0,0,0,.78-.78v-3.3a.794.794,0,0,0-.78-.78H983.18a.794.794,0,0,0-.78.78v3.3A.794.794,0,0,0,983.18,584.661Z" transform="translate(-956.232 -568.817)" fill="#fff"/>
        </g>
      </g>
      <g id="Group_346" data-name="Group 346" transform="translate(0 35.051)">
        <g id="Group_342" data-name="Group 342" transform="translate(64.04)">
          <path id="Path_571" data-name="Path 571" d="M775.8,302.964v42.073A14.19,14.19,0,0,0,789.964,359.2h59.658l11.1,11.1a1.575,1.575,0,0,0,2.7-1.14V359.2H875.19a14.19,14.19,0,0,0,14.164-14.164V302.964A14.19,14.19,0,0,0,875.19,288.8H789.964A14.229,14.229,0,0,0,775.8,302.964Z" transform="translate(-775.8 -288.8)" fill="url(#linear-gradient-35)"/>
        </g>
        <g id="Group_345" data-name="Group 345" transform="translate(0 18.546)">
          <path id="Path_572" data-name="Path 572" d="M782.655,396.864v42.073A14.19,14.19,0,0,1,768.49,453.1H708.832l-11.1,11.1a1.575,1.575,0,0,1-2.7-1.14V453.1H683.264A14.19,14.19,0,0,1,669.1,438.937V396.864A14.19,14.19,0,0,1,683.264,382.7H768.49A14.191,14.191,0,0,1,782.655,396.864Z" transform="translate(-669.1 -344.888)" fill="url(#linear-gradient-36)"/>
          <g id="Group_343" data-name="Group 343" transform="translate(14.945 58.638)">
            <path id="Path_573" data-name="Path 573" d="M776.465,426.283H695.2a1.2,1.2,0,0,1-1.2-1.2V418.6a1.2,1.2,0,0,1,1.2-1.2h81.265a1.2,1.2,0,0,1,1.2,1.2v6.482A1.2,1.2,0,0,1,776.465,426.283Z" transform="translate(-694 -417.4)" fill="#fff"/>
            <path id="Path_574" data-name="Path 574" d="M728.931,459.383H695.2a1.2,1.2,0,0,1-1.2-1.2V451.7a1.2,1.2,0,0,1,1.2-1.2h33.73a1.2,1.2,0,0,1,1.2,1.2v6.482A1.2,1.2,0,0,1,728.931,459.383Z" transform="translate(-694 -430.634)" fill="#fff"/>
          </g>
          <g id="Group_344" data-name="Group 344" transform="translate(78.984)">
            <path id="Path_575" data-name="Path 575" d="M883.165,328.583H801.9a1.2,1.2,0,0,1-1.2-1.2V320.9a1.2,1.2,0,0,1,1.2-1.2h81.265a1.2,1.2,0,0,1,1.2,1.2v6.482A1.167,1.167,0,0,1,883.165,328.583Z" transform="translate(-800.7 -319.7)" fill="#fff"/>
            <path id="Path_576" data-name="Path 576" d="M914.831,361.783H881.1a1.2,1.2,0,0,1-1.2-1.2V354.1a1.2,1.2,0,0,1,1.2-1.2h33.73a1.2,1.2,0,0,1,1.2,1.2v6.482A1.2,1.2,0,0,1,914.831,361.783Z" transform="translate(-832.365 -332.974)" fill="#fff"/>
          </g>
        </g>
      </g>
    </g>
  </g>
</svg>
