<svg xmlns="http://www.w3.org/2000/svg" xmlns:xlink="http://www.w3.org/1999/xlink" width="344.909" height="241.273" viewBox="0 0 344.909 241.273">
  <defs>
    <linearGradient id="linear-gradient" y1="0.5" x2="1" y2="0.5" gradientUnits="objectBoundingBox">
      <stop offset="0" stop-color="#ce2e82"/>
      <stop offset="1" stop-color="#601f5f"/>
    </linearGradient>
    <linearGradient id="linear-gradient-2" y1="0.5" x2="1" y2="0.5" gradientUnits="objectBoundingBox">
      <stop offset="0" stop-color="#1b89ca"/>
      <stop offset="1" stop-color="#2e3792"/>
    </linearGradient>
    <linearGradient id="linear-gradient-4" x1="0" y1="0.5" x2="1" y2="0.5" xlink:href="#linear-gradient"/>
    <linearGradient id="linear-gradient-6" x1="0" y1="0.5" x2="1" y2="0.5" xlink:href="#linear-gradient"/>
    <linearGradient id="linear-gradient-12" x1="0" y1="0.5" x2="1.001" y2="0.5" xlink:href="#linear-gradient-2"/>
    <linearGradient id="linear-gradient-19" x1="0.419" y1="0.5" x2="0.581" y2="0.5" xlink:href="#linear-gradient"/>
    <linearGradient id="linear-gradient-20" x1="0.397" y1="0.5" x2="0.603" y2="0.5" xlink:href="#linear-gradient"/>
    <linearGradient id="linear-gradient-21" x1="0.366" y1="0.5" x2="0.635" y2="0.5" xlink:href="#linear-gradient"/>
  </defs>
  <g id="DASHBOARD_2" data-name="DASHBOARD 2" transform="translate(0.785 0.785)">
    <rect id="Rectangle_87" data-name="Rectangle 87" width="343.339" height="239.703" rx="12.19" fill="#fff" stroke="#262424" stroke-linecap="round" stroke-linejoin="round" stroke-width="1.57"/>
    <line id="Line_70" data-name="Line 70" y2="218.095" transform="translate(143.232 10.808)" fill="none" stroke="#262424" stroke-linecap="round" stroke-linejoin="round" stroke-width="1.57"/>
    <line id="Line_71" data-name="Line 71" x1="305.156" transform="translate(22.663 55.904)" fill="none" stroke="#262424" stroke-linecap="round" stroke-linejoin="round" stroke-width="1.57"/>
    <rect id="Rectangle_88" data-name="Rectangle 88" width="105.056" height="27.788" rx="7.05" transform="translate(22.663 78.338)" fill="none" stroke="#262424" stroke-linecap="round" stroke-linejoin="round" stroke-width="1.57"/>
    <rect id="Rectangle_89" data-name="Rectangle 89" width="69.195" height="27.788" rx="5.72" transform="translate(58.524 19.523)" fill="url(#linear-gradient)"/>
    <rect id="Rectangle_90" data-name="Rectangle 90" width="69.195" height="27.788" rx="5.72" transform="translate(160.525 19.523)" fill="url(#linear-gradient-2)"/>
    <rect id="Rectangle_91" data-name="Rectangle 91" width="109.487" height="66.437" rx="5.72" transform="translate(160.525 64.505)" fill="#fff" stroke="#262424" stroke-linecap="round" stroke-linejoin="round" stroke-width="1.57"/>
    <rect id="Rectangle_92" data-name="Rectangle 92" width="109.487" height="83.662" rx="5.72" transform="translate(160.525 140.017)" fill="#fff" stroke="#262424" stroke-linecap="round" stroke-linejoin="round" stroke-width="1.57"/>
    <rect id="Rectangle_93" data-name="Rectangle 93" width="48.732" height="39.612" rx="5.72" transform="translate(279.086 184.066)" fill="url(#linear-gradient-2)"/>
    <rect id="Rectangle_94" data-name="Rectangle 94" width="39.749" height="9.51" rx="4.13" transform="translate(288.076 19.523)" fill="url(#linear-gradient-4)"/>
    <rect id="Rectangle_95" data-name="Rectangle 95" width="39.749" height="9.51" rx="4.13" transform="translate(288.076 37.802)" fill="url(#linear-gradient-4)"/>
    <rect id="Rectangle_96" data-name="Rectangle 96" width="23.373" height="27.788" rx="3.32" transform="translate(22.663 19.523)" fill="url(#linear-gradient-6)"/>
    <rect id="Rectangle_97" data-name="Rectangle 97" width="105.056" height="27.788" rx="7.05" transform="translate(22.663 121.83)" fill="none" stroke="#262424" stroke-linecap="round" stroke-linejoin="round" stroke-width="1.57"/>
    <rect id="Rectangle_98" data-name="Rectangle 98" width="105.056" height="27.788" rx="7.05" transform="translate(22.663 165.33)" fill="none" stroke="#262424" stroke-linecap="round" stroke-linejoin="round" stroke-width="1.57"/>
    <path id="Path_2316" data-name="Path 2316" d="M359.212,171.31A23.892,23.892,0,1,0,383.1,195.2,23.892,23.892,0,0,0,359.212,171.31Zm0,34.976A11.083,11.083,0,1,1,370.3,195.2,11.083,11.083,0,0,1,359.212,206.286Z" transform="translate(-165.224 -97.479)" fill="url(#linear-gradient-2)"/>
    <path id="Path_2317" data-name="Path 2317" d="M390.492,195.2H377.683A11.083,11.083,0,0,0,366.6,184.119V171.31A23.9,23.9,0,0,1,390.492,195.2Z" transform="translate(-172.611 -97.479)" fill="url(#linear-gradient-6)"/>
    <rect id="Rectangle_99" data-name="Rectangle 99" width="30.859" height="9.533" rx="3.77" transform="translate(229.583 94.164)" fill="url(#linear-gradient-2)"/>
    <rect id="Rectangle_100" data-name="Rectangle 100" width="18.698" height="9.533" rx="3.77" transform="translate(229.583 76.245)" fill="url(#linear-gradient-6)"/>
    <rect id="Rectangle_101" data-name="Rectangle 101" width="30.859" height="9.533" rx="3.77" transform="translate(229.583 112.084)" fill="url(#linear-gradient-2)"/>
    <rect id="Rectangle_102" data-name="Rectangle 102" width="48.732" height="107.592" rx="5.72" transform="translate(279.086 64.505)" fill="#fff" stroke="#262424" stroke-linecap="round" stroke-linejoin="round" stroke-width="1.57"/>
    <line id="Line_72" data-name="Line 72" x2="19.966" transform="translate(302.681 81.011)" fill="none" stroke="#262424" stroke-linecap="round" stroke-linejoin="round" stroke-width="1.57"/>
    <line id="Line_73" data-name="Line 73" x2="19.966" transform="translate(302.681 105.752)" fill="none" stroke="#262424" stroke-linecap="round" stroke-linejoin="round" stroke-width="1.57"/>
    <line id="Line_74" data-name="Line 74" x2="19.966" transform="translate(302.681 130.499)" fill="none" stroke="#262424" stroke-linecap="round" stroke-linejoin="round" stroke-width="1.57"/>
    <line id="Line_75" data-name="Line 75" x2="19.966" transform="translate(302.681 155.24)" fill="none" stroke="#262424" stroke-linecap="round" stroke-linejoin="round" stroke-width="1.57"/>
    <rect id="Rectangle_103" data-name="Rectangle 103" width="11.159" height="9.533" rx="3.77" transform="translate(285.892 76.245)" fill="url(#linear-gradient-12)"/>
    <rect id="Rectangle_104" data-name="Rectangle 104" width="11.159" height="9.533" rx="3.77" transform="translate(285.892 100.985)" fill="url(#linear-gradient-12)"/>
    <rect id="Rectangle_105" data-name="Rectangle 105" width="11.159" height="9.533" rx="3.77" transform="translate(285.892 125.733)" fill="url(#linear-gradient-12)"/>
    <rect id="Rectangle_106" data-name="Rectangle 106" width="11.159" height="9.533" rx="3.77" transform="translate(285.892 150.473)" fill="url(#linear-gradient-12)"/>
    <rect id="Rectangle_107" data-name="Rectangle 107" width="11.159" height="9.533" rx="3.77" transform="translate(170.096 152.337)" fill="url(#linear-gradient-2)"/>
    <rect id="Rectangle_108" data-name="Rectangle 108" width="11.159" height="9.533" rx="3.77" transform="translate(170.096 177.077)" fill="url(#linear-gradient-2)"/>
    <rect id="Rectangle_109" data-name="Rectangle 109" width="11.159" height="9.533" rx="3.77" transform="translate(170.096 201.825)" fill="url(#linear-gradient-2)"/>
    <path id="Path_2318" data-name="Path 2318" d="M347.21,192.05V263.2h72.059" transform="translate(-160.325 -45.953)" fill="none" stroke="#262424" stroke-linecap="round" stroke-linejoin="round" stroke-width="1.57"/>
    <rect id="Rectangle_110" data-name="Rectangle 110" width="59.021" height="9.533" rx="3.77" transform="translate(195.539 211.358) rotate(-90)" fill="url(#linear-gradient-19)"/>
    <rect id="Rectangle_111" data-name="Rectangle 111" width="46.204" height="9.533" rx="3.77" transform="translate(213.115 211.358) rotate(-90)" fill="url(#linear-gradient-20)"/>
    <rect id="Rectangle_112" data-name="Rectangle 112" width="35.419" height="9.533" rx="3.77" transform="translate(230.69 211.358) rotate(-90)" fill="url(#linear-gradient-21)"/>
    <rect id="Rectangle_113" data-name="Rectangle 113" width="28.254" height="9.533" rx="3.77" transform="translate(230.69 152.337)" fill="url(#linear-gradient-2)"/>
  </g>
</svg>
