<svg id="Data_Science_AI" data-name="Data Science &amp; AI" xmlns="http://www.w3.org/2000/svg" xmlns:xlink="http://www.w3.org/1999/xlink" width="424.175" height="381.926" viewBox="0 0 424.175 381.926">
  <defs>
    <linearGradient id="linear-gradient" y1="0.5" x2="1" y2="0.5" gradientUnits="objectBoundingBox">
      <stop offset="0" stop-color="#ce2e82"/>
      <stop offset="1" stop-color="#601f5f"/>
    </linearGradient>
    <linearGradient id="linear-gradient-2" y1="0.5" x2="1" y2="0.5" gradientUnits="objectBoundingBox">
      <stop offset="0" stop-color="#1b89ca"/>
      <stop offset="1" stop-color="#2e3792"/>
    </linearGradient>
    <linearGradient id="linear-gradient-5" y1="0.5" x2="1" y2="0.5" xlink:href="#linear-gradient"/>
    <linearGradient id="linear-gradient-6" x1="0" y1="0.5" x2="1" y2="0.5" xlink:href="#linear-gradient-2"/>
    <linearGradient id="linear-gradient-7" x1="0" y1="0.5" x2="1.001" y2="0.5" xlink:href="#linear-gradient-2"/>
    <linearGradient id="linear-gradient-8" x1="0" y1="0.5" x2="1" y2="0.5" xlink:href="#linear-gradient-2"/>
    <linearGradient id="linear-gradient-9" x1="0" y1="0.5" x2="1" y2="0.5" xlink:href="#linear-gradient-2"/>
    <linearGradient id="linear-gradient-10" y1="0.5" x2="1" y2="0.5" xlink:href="#linear-gradient"/>
    <linearGradient id="linear-gradient-11" x1="-0.002" y1="0.499" x2="1" y2="0.499" xlink:href="#linear-gradient-2"/>
    <linearGradient id="linear-gradient-12" y1="0.499" x2="1" y2="0.499" xlink:href="#linear-gradient"/>
    <linearGradient id="linear-gradient-13" x1="0" y1="0.501" x2="1" y2="0.501" xlink:href="#linear-gradient-2"/>
    <linearGradient id="linear-gradient-14" x1="0" y1="0.502" x2="1" y2="0.502" xlink:href="#linear-gradient-2"/>
    <linearGradient id="linear-gradient-15" y1="0.5" x2="1" y2="0.5" xlink:href="#linear-gradient"/>
    <linearGradient id="linear-gradient-16" x1="0" y1="0.5" x2="1.001" y2="0.5" xlink:href="#linear-gradient-2"/>
    <linearGradient id="linear-gradient-17" x1="0" y1="0.5" x2="1.001" y2="0.5" xlink:href="#linear-gradient-2"/>
    <linearGradient id="linear-gradient-18" y1="0.5" x2="1" y2="0.5" xlink:href="#linear-gradient"/>
    <linearGradient id="linear-gradient-19" y1="0.5" x2="1" y2="0.5" xlink:href="#linear-gradient"/>
    <linearGradient id="linear-gradient-21" y1="0.5" x2="1" y2="0.5" xlink:href="#linear-gradient"/>
    <linearGradient id="linear-gradient-22" x1="0" y1="0.5" x2="1" y2="0.5" xlink:href="#linear-gradient-2"/>
    <linearGradient id="linear-gradient-23" y1="0.5" x2="1" y2="0.5" xlink:href="#linear-gradient"/>
    <linearGradient id="linear-gradient-24" x1="0" y1="0.5" x2="1" y2="0.5" xlink:href="#linear-gradient-2"/>
    <linearGradient id="linear-gradient-27" x1="-0.001" y1="0.5" x2="1" y2="0.5" xlink:href="#linear-gradient-2"/>
    <linearGradient id="linear-gradient-29" y1="0.499" x2="1" y2="0.499" xlink:href="#linear-gradient"/>
    <linearGradient id="linear-gradient-30" x1="0" y1="0.5" x2="1" y2="0.5" xlink:href="#linear-gradient-2"/>
    <linearGradient id="linear-gradient-32" x1="0" y1="0.5" x2="1" y2="0.5" xlink:href="#linear-gradient-2"/>
  </defs>
  <g id="EXPLORER" transform="translate(69.896 1)">
    <rect id="Rectangle_80" data-name="Rectangle 80" width="268.389" height="244.918" rx="41.13" transform="translate(244.918) rotate(90)" fill="#fff" stroke="#262424" stroke-linecap="round" stroke-linejoin="round" stroke-width="2"/>
    <rect id="Rectangle_81" data-name="Rectangle 81" width="69.072" height="11.335" rx="5.668" transform="translate(22.341 20.504)" fill="url(#linear-gradient)"/>
    <rect id="Rectangle_82" data-name="Rectangle 82" width="11.335" height="11.335" rx="5.668" transform="translate(209.876 20.504)" fill="url(#linear-gradient-2)"/>
    <rect id="Rectangle_83" data-name="Rectangle 83" width="11.335" height="11.335" rx="5.668" transform="translate(178.35 20.504)" fill="url(#linear-gradient-2)"/>
    <rect id="Rectangle_84" data-name="Rectangle 84" width="11.335" height="11.335" rx="5.668" transform="translate(146.825 20.504)" fill="url(#linear-gradient-2)"/>
    <line id="Line_62" data-name="Line 62" x1="31.274" transform="translate(28.095 255.186)" fill="none" stroke="#262424" stroke-linecap="round" stroke-linejoin="round" stroke-width="2"/>
    <path id="Path_2257" data-name="Path 2257" d="M377.151,122.54V292.4c0,12.842-7.693,23.291-17.16,23.291H212.53" transform="translate(-143.16 -62.135)" fill="none" stroke="#262424" stroke-linecap="round" stroke-linejoin="round" stroke-width="2"/>
    <rect id="Rectangle_85" data-name="Rectangle 85" width="205.299" height="192.339" rx="12.13" transform="translate(19.813 49.164)" fill="none" stroke="#272525" stroke-miterlimit="10" stroke-width="2"/>
  </g>
  <g id="AI_DATA" data-name="AI DATA" transform="translate(107.692 61.285)">
    <path id="Path_2258" data-name="Path 2258" d="M211.316,160.933v15.849h-7.065a4.451,4.451,0,0,0-4.443,4.443v7.191h-6.947v-39.98a13.879,13.879,0,1,0-13.345,0v46.652a6.657,6.657,0,0,0,6.657,6.665h13.6v7.238a4.435,4.435,0,0,0,4.443,4.435h7.065v15.81l14.656,39.823a22.082,22.082,0,0,0,20.7,14.436h20.865V257.809h-21.65a8.062,8.062,0,1,1,0-16.116H267.5V138.859H233.366a22.074,22.074,0,0,0-22.05,22.074Zm40.961,31.926a13.588,13.588,0,1,1-3.98-9.608A13.588,13.588,0,0,1,252.277,192.858Z" transform="translate(-172.308 -122.387)" fill="url(#linear-gradient-5)"/>
    <path id="Path_2259" data-name="Path 2259" d="M365.344,219.76c-.746.926-1.311,1.664-1.868,2.4-3.368,3.87-7.85,6.453-12.56,8.486-9.726,4.239-20.2,6.28-30.858,7.191a143.658,143.658,0,0,1-17.607.424V267.99a134.235,134.235,0,0,0,29.045-1.931A78.5,78.5,0,0,0,353,259.418a39.5,39.5,0,0,0,9.349-6.28,16.83,16.83,0,0,0,4.671-8.3V224.187C366.466,222.712,365.9,221.424,365.344,219.76Z" transform="translate(-200.29 -143.323)" fill="url(#linear-gradient-6)"/>
    <path id="Path_2260" data-name="Path 2260" d="M365.538,266.05a43.775,43.775,0,0,1-3.744,4.247,39.162,39.162,0,0,1-13.651,7.928,103.515,103.515,0,0,1-26.933,5.9,130.535,130.535,0,0,1-18.73.549v29.657a2.6,2.6,0,0,0,.408.047h11.217a51.017,51.017,0,0,0,5.236-.369c11.775-1.107,23.189-3.14,33.849-8.305a34.106,34.106,0,0,0,10.66-7.928,18.1,18.1,0,0,0,3.14-6.641V270.477A40.819,40.819,0,0,0,365.538,266.05Z" transform="translate(-200.296 -153.276)" fill="url(#linear-gradient-7)"/>
    <path id="Path_2261" data-name="Path 2261" d="M367.022,179.127c-.369-1.3-.934-2.583-1.3-4.247-1.876,5.715-6.358,8.117-11.037,10.142-7.1,3.321-14.585,4.985-22.255,6.092a172.557,172.557,0,0,1-29.947,1.57v30.1a136.3,136.3,0,0,0,16.3-.306,100.908,100.908,0,0,0,30.481-6.461,45.857,45.857,0,0,0,10.66-5.9c3.368-2.763,6.178-5.9,7.112-10.331V179.127Z" transform="translate(-200.296 -133.674)" fill="url(#linear-gradient-8)"/>
    <path id="Path_2262" data-name="Path 2262" d="M362.548,155.934a34.03,34.03,0,0,0-10.66-6.084,96.311,96.311,0,0,0-23.754-5.354c-4.113-.369-12.905-1.107-13.274-1.107H302.48v37.02a160.022,160.022,0,0,0,34.249-2.355,73.553,73.553,0,0,0,18.518-5.495,25.654,25.654,0,0,0,7.293-4.608C366.473,164.279,366.473,159.624,362.548,155.934Z" transform="translate(-200.296 -126.903)" fill="url(#linear-gradient-9)"/>
  </g>
  <g id="ORNAMENT" transform="translate(0 57.645)">
    <path id="Path_2263" data-name="Path 2263" d="M298.838,483.2a10.142,10.142,0,0,0-10.15,10.158A10.158,10.158,0,0,0,278.53,483.2,10.142,10.142,0,0,0,288.688,473a10.134,10.134,0,0,0,10.15,10.2Z" transform="translate(-87.455 -194.131)" fill="url(#linear-gradient-10)"/>
    <path id="Path_2264" data-name="Path 2264" d="M542.78,151.345a13.345,13.345,0,0,0-13.345,13.345,13.384,13.384,0,0,0-13.345-13.345A13.4,13.4,0,0,0,529.435,138a13.384,13.384,0,0,0,13.345,13.345Z" transform="translate(-138.532 -122.104)" fill="url(#linear-gradient-11)"/>
    <path id="Path_2265" data-name="Path 2265" d="M67.743,401.972a7.395,7.395,0,0,0-7.4,7.4,7.41,7.41,0,0,0-7.41-7.4,7.41,7.41,0,0,0,7.41-7.4,7.395,7.395,0,0,0,7.4,7.4Z" transform="translate(-38.949 -177.268)" fill="url(#linear-gradient-12)"/>
    <path id="Path_2266" data-name="Path 2266" d="M78.243,222.824a7.936,7.936,0,0,0-7.936,7.936,7.936,7.936,0,0,0-7.936-7.936,7.944,7.944,0,0,0,7.936-7.944,7.944,7.944,0,0,0,7.936,7.944Z" transform="translate(-40.979 -138.634)" fill="url(#linear-gradient-13)"/>
    <path id="Path_2267" data-name="Path 2267" d="M265.4,430.158a8.98,8.98,0,0,0-8.965,8.933,8.965,8.965,0,0,0-8.957-8.965,8.949,8.949,0,0,0,8.957-8.957,8.965,8.965,0,0,0,8.965,8.957Z" transform="translate(-80.779 -182.987)" fill="url(#linear-gradient-14)"/>
    <path id="Path_2268" data-name="Path 2268" d="M47,316.562a5.927,5.927,0,0,0-5.935,5.935,5.935,5.935,0,0,0-5.942-5.935,5.95,5.95,0,0,0,5.942-5.942A5.935,5.935,0,0,0,47,316.562Z" transform="translate(-35.12 -159.218)" fill="url(#linear-gradient-15)"/>
    <circle id="Ellipse_198" data-name="Ellipse 198" cx="3.203" cy="3.203" r="3.203" transform="translate(241.542 247.595)" fill="url(#linear-gradient-16)"/>
    <circle id="Ellipse_199" data-name="Ellipse 199" cx="4.333" cy="4.333" r="4.333" transform="translate(11.877)" fill="url(#linear-gradient-17)"/>
    <circle id="Ellipse_200" data-name="Ellipse 200" cx="5.314" cy="5.314" r="5.314" transform="translate(400.872 117.215)" fill="url(#linear-gradient-18)"/>
  </g>
  <g id="LEFT_UPPER_ARM" data-name="LEFT UPPER ARM" transform="translate(365.394 215.603)">
    <path id="Path_2269" data-name="Path 2269" d="M514.163,318.994c11.335.479,32.97,37.68,42.555,55.185a13.078,13.078,0,0,1-2.426,15.739h0a13.078,13.078,0,0,1-19.319-1.4l-30.787-39.25S491.367,318.02,514.163,318.994Z" transform="translate(-500.594 -318.972)" fill="url(#linear-gradient-19)"/>
  </g>
  <g id="RIGHT_UPPER_ARM" data-name="RIGHT UPPER ARM" transform="translate(282.19 214.188)">
    <path id="Path_2270" data-name="Path 2270" d="M427.884,318.041c-14.193,4.325-32.915,76.772-32.915,76.772-3.485,19.5,18.761,21.98,24.421,8.949l25.763-58.874S449.707,311.4,427.884,318.041Z" transform="translate(-394.601 -317.17)" fill="url(#linear-gradient-18)"/>
  </g>
  <g id="RIGHT_ARM" data-name="RIGHT ARM" transform="translate(282.558 282.87)">
    <path id="Path_2271" data-name="Path 2271" d="M395.07,413.625l1,47.641h21.108l2.316-38.692C422.78,401.866,399.042,399.433,395.07,413.625Z" transform="translate(-395.07 -404.663)" fill="url(#linear-gradient-21)"/>
  </g>
  <g id="RIGHT_THIGH" data-name="RIGHT THIGH" transform="translate(249.989 319.621)">
    <path id="Path_2272" data-name="Path 2272" d="M417.737,454.463,363,479.763a16.249,16.249,0,0,0-9.42,14.75h0a16.257,16.257,0,0,0,19.876,15.849l79.732-18.22V451.48H417.361Z" transform="translate(-353.58 -451.48)" fill="url(#linear-gradient-22)"/>
    <path id="Path_2273" data-name="Path 2273" d="M471,451.48v13.031a7.308,7.308,0,0,0,3.054,5.943l4.4,3.14V488.32" transform="translate(-378.826 -451.48)" fill="none" stroke="#262424" stroke-linecap="round" stroke-linejoin="round" stroke-width="2"/>
    <path id="Path_2274" data-name="Path 2274" d="M351.47,436.9l47.94-21.815V408.56" transform="translate(-325.557 -407.249)" fill="none" stroke="#262424" stroke-linecap="round" stroke-linejoin="round" stroke-width="2"/>
  </g>
  <g id="BODY" transform="translate(304.664 201.804)">
    <path id="Path_2275" data-name="Path 2275" d="M497.53,318.281s-17.058-4.977-60.625-1.225c0,0-7.928,12.426-9.883,40.4-2.19,31.3-3.792,70.979-3.792,70.979h83.209S510.922,379.511,497.53,318.281Z" transform="translate(-423.23 -304.46)" fill="url(#linear-gradient-23)"/>
    <path id="Path_2276" data-name="Path 2276" d="M435.94,321.2c-2.41,5.165-6.932,17.27-8.344,37.452-.62,8.87-1.193,18.408-1.7,27.53" transform="translate(-423.804 -305.652)" fill="none" stroke="#262424" stroke-linecap="round" stroke-linejoin="round" stroke-width="2"/>
    <path id="Path_2277" data-name="Path 2277" d="M525.087,363.119A418.322,418.322,0,0,0,518.36,321.2" transform="translate(-443.684 -305.652)" fill="none" stroke="#262424" stroke-linecap="round" stroke-linejoin="round" stroke-width="2"/>
    <path id="Path_2278" data-name="Path 2278" d="M489.2,315.89a18.361,18.361,0,0,1-11.579,10.378,68.7,68.7,0,0,0-3.234-10.692,27.577,27.577,0,0,0-4.38,10.629,13.125,13.125,0,0,1-9.53-10.574c1.044-8.235,8.133-14.436,14.208-14.232C488.127,301.87,489.2,315.89,489.2,315.89Z" transform="translate(-431.239 -301.394)" fill="#fff" stroke="#262424" stroke-linecap="round" stroke-linejoin="round" stroke-width="2"/>
  </g>
  <g id="LEFT_THIGH" data-name="LEFT THIGH" transform="translate(349.581 245.101)">
    <path id="Path_2279" data-name="Path 2279" d="M480.45,471.732h16.006a22.2,22.2,0,0,0,22.059-19.682l8.917-78.073a15.7,15.7,0,0,0-15.559-17.427h0a15.646,15.646,0,0,0-15.151,11.731L480.45,437.357Z" transform="translate(-480.45 -356.55)" fill="url(#linear-gradient-24)"/>
    <line id="Line_63" data-name="Line 63" y2="28.024" transform="translate(0 83.774)" fill="none" stroke="#262424" stroke-linecap="round" stroke-linejoin="round" stroke-width="2"/>
  </g>
  <g id="RIGHT_CALF" data-name="RIGHT CALF" transform="translate(249.981 348.528)">
    <path id="Path_2280" data-name="Path 2280" d="M454.418,458.207v9.616l-22.388,2.316V457.1Z" transform="translate(-342.87 -446.593)" fill="#fff" stroke="#262424" stroke-linecap="round" stroke-linejoin="round" stroke-width="2"/>
    <path id="Path_2281" data-name="Path 2281" d="M454.72,470.524V452.006l30.191-4.616v26.674Z" transform="translate(-347.749 -444.505)" fill="url(#linear-gradient-2)"/>
    <path id="Path_2282" data-name="Path 2282" d="M454.72,470.524V452.006l30.191-4.616v26.674Z" transform="translate(-347.749 -444.505)" fill="none" stroke="#262424" stroke-linecap="round" stroke-linejoin="round" stroke-width="2"/>
    <line id="Line_64" data-name="Line 64" x2="15.111" transform="translate(110.723 20.328)" fill="none" stroke="#262424" stroke-linecap="round" stroke-linejoin="round" stroke-width="2"/>
    <line id="Line_65" data-name="Line 65" x2="15.111" transform="translate(110.723 13.192)" fill="none" stroke="#262424" stroke-linecap="round" stroke-linejoin="round" stroke-width="2"/>
    <path id="Path_2283" data-name="Path 2283" d="M15.307,0h0A15.307,15.307,0,0,1,30.615,15.307v1.939H0V15.307A15.307,15.307,0,0,1,15.307,0Z" transform="translate(122.066 31.632) rotate(-90)" fill="#fff" stroke="#262424" stroke-linecap="round" stroke-linejoin="round" stroke-width="2"/>
    <path id="Path_2284" data-name="Path 2284" d="M444.778,494.84v20.7l-74.15,3.25a16.242,16.242,0,0,1-16.83-14.358l-.228-2v-1.57a12.56,12.56,0,0,1,13.6-12.513Z" transform="translate(-353.57 -488.305)" fill="url(#linear-gradient-8)"/>
    <path id="Path_2285" data-name="Path 2285" d="M374.215,504.436A12.065,12.065,0,0,1,362.15,516.5a11.424,11.424,0,0,1-2.151-.2,16.155,16.155,0,0,1-6.2-10.99l-.228-2v-1.57a12.419,12.419,0,0,1,2.8-7.851,11.916,11.916,0,0,1,5.785-1.483,12.073,12.073,0,0,1,12.065,12.026Z" transform="translate(-353.57 -489.187)" fill="#fff"/>
    <path id="Path_2286" data-name="Path 2286" d="M367.2,518.592a16.257,16.257,0,0,1-13.4-14.13l-.228-2v-1.57a12.56,12.56,0,0,1,13.6-12.513l77.6,6.508" transform="translate(-353.57 -488.311)" fill="none" stroke="#262424" stroke-linecap="round" stroke-linejoin="round" stroke-width="2"/>
    <line id="Line_66" data-name="Line 66" y2="16.791" transform="translate(85.195 7.933)" fill="none" stroke="#262424" stroke-linecap="round" stroke-linejoin="round" stroke-width="2"/>
  </g>
  <g id="LEFT_CALF" data-name="LEFT CALF" transform="translate(366.156 244.717)">
    <path id="Path_2287" data-name="Path 2287" d="M491.742,444.248h-9.616L479.81,421.86h13.039Z" transform="translate(-469.318 -335.205)" fill="#fff" stroke="#262424" stroke-linecap="round" stroke-linejoin="round" stroke-width="2"/>
    <path id="Path_2288" data-name="Path 2288" d="M508.1,447.268H528.81l3.25-74.15a16.241,16.241,0,0,0-14.357-16.83l-2-.228h-1.57a12.56,12.56,0,0,0-12.513,13.6Z" transform="translate(-501.567 -356.06)" fill="url(#linear-gradient-27)"/>
    <path id="Path_2289" data-name="Path 2289" d="M517.7,376.707a12.065,12.065,0,0,0,12.057-12.058,11.423,11.423,0,0,0-.2-2.151,16.155,16.155,0,0,0-10.99-6.2l-2-.228H515a12.419,12.419,0,0,0-7.851,2.8,11.916,11.916,0,0,0-1.483,5.784A12.073,12.073,0,0,0,517.7,376.707Z" transform="translate(-502.447 -356.062)" fill="#fff"/>
    <path id="Path_2290" data-name="Path 2290" d="M528.682,362.489a16.156,16.156,0,0,0-10.99-6.2l-2-.228h-1.57a12.56,12.56,0,0,0-12.513,13.6l6.508,77.6H527.96" transform="translate(-501.565 -356.06)" fill="none" stroke="#262424" stroke-linecap="round" stroke-linejoin="round" stroke-width="2"/>
    <line id="Line_67" data-name="Line 67" x2="15.92" transform="translate(8.796 85.195)" fill="none" stroke="#262424" stroke-linecap="round" stroke-linejoin="round" stroke-width="2"/>
    <path id="Path_2291" data-name="Path 2291" d="M476.678,441.38h18.51l4.616,30.191H473.13Z" transform="translate(-467.882 -339.402)" fill="url(#linear-gradient-2)"/>
    <path id="Path_2292" data-name="Path 2292" d="M476.678,441.38h18.51l4.616,30.191H473.13Z" transform="translate(-467.882 -339.402)" fill="none" stroke="#262424" stroke-linecap="round" stroke-linejoin="round" stroke-width="2"/>
    <line id="Line_68" data-name="Line 68" y2="15.111" transform="translate(14.487 105.731)" fill="none" stroke="#262424" stroke-linecap="round" stroke-linejoin="round" stroke-width="2"/>
    <line id="Line_69" data-name="Line 69" y2="15.111" transform="translate(21.623 105.731)" fill="none" stroke="#262424" stroke-linecap="round" stroke-linejoin="round" stroke-width="2"/>
    <path id="Path_2293" data-name="Path 2293" d="M485.807,460.61h0a15.307,15.307,0,0,1,15.307,15.307v1.939H470.5v-1.939a15.307,15.307,0,0,1,15.307-15.307Z" transform="translate(-467.317 -343.536)" fill="#fff" stroke="#262424" stroke-linecap="round" stroke-linejoin="round" stroke-width="2"/>
  </g>
  <g id="NECK" transform="translate(342.563 196.51)">
    <path id="Path_2294" data-name="Path 2294" d="M482.657,309.667a13.714,13.714,0,0,1-5.573,1.86,13.557,13.557,0,0,1-5.573-1.86V294.65h11.147Z" transform="translate(-471.51 -294.65)" fill="#fff" stroke="#262424" stroke-linecap="round" stroke-linejoin="round" stroke-width="2"/>
  </g>
  <g id="HEAD" transform="translate(331.403 161.919)">
    <path id="Path_2295" data-name="Path 2295" d="M489.232,286.6c.44-3.846,2.693-6.931,5.063-6.751a2.551,2.551,0,0,1,1.421.557c2.622,2.025-.1,12.74-6.916,10.048Z" transform="translate(-464.067 -256.874)" fill="#fff" stroke="#262424" stroke-linecap="round" stroke-linejoin="round" stroke-width="2"/>
    <path id="Path_2296" data-name="Path 2296" d="M464.756,286.6c-.432-3.846-2.685-6.931-5.063-6.751a2.575,2.575,0,0,0-1.421.557c-2.614,2.025.11,12.74,6.924,10.048Z" transform="translate(-457.293 -256.874)" fill="#fff" stroke="#262424" stroke-linecap="round" stroke-linejoin="round" stroke-width="2"/>
    <path id="Path_2297" data-name="Path 2297" d="M486.015,281.437a11.021,11.021,0,0,1-22.043,0c0-3.415-2.881-17.207,10.99-17.207S486.015,278.022,486.015,281.437Z" transform="translate(-458.675 -253.518)" fill="#fff" stroke="#262424" stroke-linecap="round" stroke-linejoin="round" stroke-width="2"/>
    <path id="Path_2298" data-name="Path 2298" d="M486.306,278.676l-1.075.094.691-5.22s-3.839.856-4.168-1.256c0,0-.424-2.174.4-6.877a48.1,48.1,0,0,1-8.344,1.123c-10.2,0-12.285-6.743-11.5-10.2v-.071c1.2-5.063,3.069-1.413,3.069-1.413s1.013-4.074,3.14-4.262,2.645,5.173,2.645,5.173,4.459-1.523,11.076.071c8.078,1.939,4.781,6.508,4.781,6.508S494.949,264.091,486.306,278.676Z" transform="translate(-458.339 -250.584)" fill="#262424"/>
    <path id="Path_2299" data-name="Path 2299" d="M464.846,262c-6.4,2.229-6.421,9.42-1.978,18.62h1.185l-.738-4.247s5.322-.039,3.344-9.718Z" transform="translate(-457.822 -253.038)" fill="#262424"/>
  </g>
  <g id="LAPTOP" transform="translate(264.896 284.932)">
    <rect id="Rectangle_86" data-name="Rectangle 86" width="80.58" height="57.823" rx="7.6" fill="#fff" stroke="#262424" stroke-linecap="round" stroke-linejoin="round" stroke-width="2"/>
  </g>
  <g id="LEFT_ARM" data-name="LEFT ARM" transform="translate(360.47 234.306)">
    <path id="Path_2300" data-name="Path 2300" d="M561.431,386.729h0c.086,9.828-8.58,15.1-16.854,12.4a17.2,17.2,0,0,1-8.2-5.958c-10.2-13.039-21.572-35.325-21.572-35.325l14.051-12.269s28.99,24.814,31.965,36.651A19.074,19.074,0,0,1,561.431,386.729Z" transform="translate(-498.727 -343.395)" fill="url(#linear-gradient-29)"/>
    <path id="Path_2301" data-name="Path 2301" d="M569.151,397.006h0c.086,9.828-8.58,15.1-16.854,12.4a10.5,10.5,0,0,1,16.854-12.4Z" transform="translate(-506.447 -353.672)" fill="#fff"/>
    <path id="Path_2302" data-name="Path 2302" d="M569.584,398h0c.086,9.828-8.58,15.1-16.854,12.4" transform="translate(-506.88 -354.666)" fill="none" stroke="#262424" stroke-linecap="round" stroke-linejoin="round" stroke-width="2"/>
    <path id="Path_2303" data-name="Path 2303" d="M550.277,366.407a258.587,258.587,0,0,0-21.446-20.857L514.78,357.827s8.635,16.956,17.639,29.948" transform="translate(-498.72 -343.389)" fill="none" stroke="#262424" stroke-linecap="round" stroke-linejoin="round" stroke-width="2"/>
    <path id="Path_2304" data-name="Path 2304" d="M524.009,349.236s-7.56-6.578-15.527-6.437c-2.528.039-10.637,6.57-12.733,9.514s-1.821,8.808.416,11.186,3.776-.84,3.776-.84-.557,3.784,5.6,4.9,9.655-3.219,9.8-8.392C515.335,359.19,523.31,360.03,524.009,349.236Z" transform="translate(-494.322 -342.797)" fill="#fff" stroke="#262424" stroke-linecap="round" stroke-linejoin="round" stroke-width="2"/>
    <path id="Path_2305" data-name="Path 2305" d="M501.353,362.262a18.424,18.424,0,0,1,.236-4.812c.471-2.057,4.427-4.27,4.427-4.27" transform="translate(-495.82 -345.03)" fill="none" stroke="#262424" stroke-linecap="round" stroke-linejoin="round" stroke-width="2"/>
  </g>
  <g id="PLANT" transform="translate(52.367 288.15)">
    <path id="Path_2306" data-name="Path 2306" d="M150,478.755S124.46,456.963,128.1,416.12C156.4,445.8,150,478.755,150,478.755Z" transform="translate(-107.402 -412.407)" fill="#fff" stroke="#262424" stroke-linecap="round" stroke-linejoin="round" stroke-width="2"/>
    <path id="Path_2307" data-name="Path 2307" d="M144.424,481.975S112.836,470.609,101.83,431.1C138.78,448.88,144.424,481.975,144.424,481.975Z" transform="translate(-101.83 -415.628)" fill="url(#linear-gradient-30)"/>
    <path id="Path_2308" data-name="Path 2308" d="M155.92,478.755s25.544-21.791,21.893-62.635C149.522,445.8,155.92,478.755,155.92,478.755Z" transform="translate(-113.326 -412.407)" fill="#fff" stroke="#262424" stroke-linecap="round" stroke-linejoin="round" stroke-width="2"/>
    <path id="Path_2309" data-name="Path 2309" d="M156.09,481.975s31.588-11.367,42.6-50.875C161.734,448.88,156.09,481.975,156.09,481.975Z" transform="translate(-113.496 -415.628)" fill="url(#linear-gradient-30)"/>
    <path id="Path_2310" data-name="Path 2310" d="M154.031,477.738s-16.917-29,0-66.348C170.947,448.763,154.031,477.738,154.031,477.738Z" transform="translate(-111.437 -411.39)" fill="url(#linear-gradient-32)"/>
    <path id="Path_2311" data-name="Path 2311" d="M178.681,476.77c0,28.786-15.771,42.452-15.771,42.452H132.233S116.47,505.556,116.47,476.77Z" transform="translate(-104.978 -425.447)" fill="url(#linear-gradient-18)"/>
  </g>
</svg>
