<svg xmlns="http://www.w3.org/2000/svg" xmlns:xlink="http://www.w3.org/1999/xlink" width="437.944" height="361.816" viewBox="0 0 437.944 361.816">
  <defs>
    <linearGradient id="linear-gradient" y1="0.5" x2="1" y2="0.5" gradientUnits="objectBoundingBox">
      <stop offset="0" stop-color="#1b89ca"/>
      <stop offset="1" stop-color="#2e3792"/>
    </linearGradient>
    <linearGradient id="linear-gradient-2" x1="0" y1="0.5" x2="1" y2="0.5" xlink:href="#linear-gradient"/>
    <linearGradient id="linear-gradient-3" x1="0" y1="0.5" x2="1" y2="0.5" xlink:href="#linear-gradient"/>
    <linearGradient id="linear-gradient-4" x1="0" y1="0.5" x2="1" y2="0.5" xlink:href="#linear-gradient"/>
    <linearGradient id="linear-gradient-5" y1="0.5" x2="1" y2="0.5" gradientUnits="objectBoundingBox">
      <stop offset="0" stop-color="#ce2e82"/>
      <stop offset="1" stop-color="#601f5f"/>
    </linearGradient>
    <linearGradient id="linear-gradient-6" x1="0" y1="0.5" x2="1" y2="0.5" xlink:href="#linear-gradient-5"/>
    <linearGradient id="linear-gradient-7" x1="0" y1="0.5" x2="1" y2="0.5" xlink:href="#linear-gradient-5"/>
    <linearGradient id="linear-gradient-8" x1="0" y1="0.501" x2="1" y2="0.501" xlink:href="#linear-gradient"/>
    <linearGradient id="linear-gradient-9" x1="0" y1="0.5" x2="1" y2="0.5" xlink:href="#linear-gradient"/>
    <linearGradient id="linear-gradient-12" x1="0" y1="0.5" x2="1" y2="0.5" xlink:href="#linear-gradient"/>
    <linearGradient id="linear-gradient-13" x1="-0.002" y1="0.5" x2="1" y2="0.5" xlink:href="#linear-gradient"/>
    <linearGradient id="linear-gradient-14" x1="0" y1="0.5" x2="1" y2="0.5" xlink:href="#linear-gradient"/>
    <linearGradient id="linear-gradient-15" x1="-0.003" y1="0.5" x2="1" y2="0.5" xlink:href="#linear-gradient"/>
    <linearGradient id="linear-gradient-17" x1="0" y1="0.5" x2="1" y2="0.5" xlink:href="#linear-gradient-5"/>
    <linearGradient id="linear-gradient-21" x1="0" y1="0.5" x2="1" y2="0.5" xlink:href="#linear-gradient"/>
    <linearGradient id="linear-gradient-28" x1="0" y1="0.5" x2="1" y2="0.5" xlink:href="#linear-gradient-5"/>
    <linearGradient id="linear-gradient-29" x1="0" y1="0.5" x2="1" y2="0.5" xlink:href="#linear-gradient-5"/>
    <linearGradient id="linear-gradient-32" x1="0" y1="0.5" x2="1" y2="0.5" xlink:href="#linear-gradient"/>
    <linearGradient id="linear-gradient-35" x1="0" y1="0.5" x2="1" y2="0.5" xlink:href="#linear-gradient"/>
    <linearGradient id="linear-gradient-36" x1="0" y1="0.5" x2="1" y2="0.5" xlink:href="#linear-gradient"/>
    <linearGradient id="linear-gradient-37" x1="0" y1="0.5" x2="1" y2="0.5" xlink:href="#linear-gradient"/>
    <linearGradient id="linear-gradient-38" x1="0" y1="0.5" x2="1" y2="0.5" xlink:href="#linear-gradient"/>
    <linearGradient id="linear-gradient-40" x1="0" y1="0.5" x2="1" y2="0.5" xlink:href="#linear-gradient"/>
    <linearGradient id="linear-gradient-41" x1="0" y1="0.5" x2="1" y2="0.5" xlink:href="#linear-gradient"/>
  </defs>
  <g id="Développement" transform="translate(-0.034)">
    <g id="Man" transform="translate(0.034 54.122)">
      <g id="LEFT_FEET" data-name="LEFT FEET" transform="translate(58.142 80.433)">
        <path id="Path_2175" data-name="Path 2175" d="M825.163,635.872c-4.663,8.025-23.53,19.7-23.53,19.7-1.481-.16-2.986-.364-4.473-.592a150.59,150.59,0,0,1-18.7-4.358s-4.74-2.459-4.686-7.761c0,0,.981-6.935,6.147-7.64s28.142-8,28.142-8,4.8-8.067,10.134-7.877S829.826,627.829,825.163,635.872Z" transform="translate(-621.024 -602.363)" fill="url(#linear-gradient)"/>
        <ellipse id="Ellipse_181" data-name="Ellipse 181" cx="3.193" cy="4.393" rx="3.193" ry="4.393" transform="translate(163.97 48.557) rotate(-76.1)" fill="#fff"/>
        <path id="Path_2176" data-name="Path 2176" d="M818.63,713.684a6.167,6.167,0,0,1-2.557-.1,5.926,5.926,0,0,1-3.1-1.849,3.214,3.214,0,0,1,1.315-5.318,5.888,5.888,0,0,1,3.605-.187h0c2.666.661,4.444,2.847,3.931,4.873A3.749,3.749,0,0,1,818.63,713.684Zm-3.1-6.4a3.849,3.849,0,0,0-.794.228,2.039,2.039,0,0,0-.847,3.46,4.7,4.7,0,0,0,2.479,1.46c2.035.5,3.97-.219,4.313-1.611s-1.028-2.936-3.063-3.439h0A5.037,5.037,0,0,0,815.528,707.288Z" transform="translate(-647.969 -663.375)" fill="#262424"/>
        <path id="Path_2177" data-name="Path 2177" d="M794.155,673.111a.593.593,0,0,1-.207-1.167c.2-.032,19.827-3.582,30.071-9.894a.592.592,0,1,1,.619,1.007C814.2,669.488,794.97,672.966,794.155,673.111Z" transform="translate(-634.882 -632.344)" fill="#262424"/>
        <path id="Path_2178" data-name="Path 2178" d="M880.733,635.851c-4.663,8.025-23.53,19.7-23.53,19.7-1.481-.16-2.986-.365-4.473-.593,8.739-4.74,20.381-16.266,20.381-16.266a11.062,11.062,0,0,1-9.48-11.5s4.8-8.066,10.134-7.877S885.4,627.808,880.733,635.851Z" transform="translate(-676.595 -602.342)" fill="#fff"/>
        <path id="Path_2179" data-name="Path 2179" d="M855.9,654.744a.624.624,0,0,1-.166,0c-1.449-.157-2.962-.358-4.506-.592a.593.593,0,0,1-.19-1.105c7.282-3.955,16.731-12.785,19.475-15.4-9.48-2.545-8.887-11.781-8.887-11.876a.592.592,0,0,1,.083-.258c.2-.344,5.036-8.366,10.664-8.167,2.862.1,5.865,2.248,7.649,5.477a11.882,11.882,0,0,1-.184,11.956h0c-4.683,8.064-22.955,19.424-23.732,19.9A.521.521,0,0,1,855.9,654.744Zm-2.805-1.517c.868.121,1.727.231,2.563.323,1.9-1.185,18.855-11.983,23.157-19.386a10.724,10.724,0,0,0,.172-10.789c-1.564-2.826-4.236-4.781-6.651-4.864-4.595-.163-8.917,6.479-9.533,7.465-.045,1.185,0,8.946,9.017,10.739a.592.592,0,0,1,.3,1C872.01,637.826,861.589,648.1,853.093,653.228Zm26.232-18.764Z" transform="translate(-675.186 -600.955)" fill="#262424"/>
        <path id="Path_2180" data-name="Path 2180" d="M752.48,679.393l10.057,1.777s5.036-2.592,2.429-8.5l-10.3-3.451Z" transform="translate(-606.042 -637.467)" fill="#fff"/>
        <path id="Path_2181" data-name="Path 2181" d="M761.236,680.368a.61.61,0,0,1-.207,0l-10.054-1.777a.588.588,0,0,1-.477-.708l2.183-10.167a.593.593,0,0,1,.767-.438l10.3,3.451a.593.593,0,0,1,.353.32c2.808,6.345-2.645,9.237-2.7,9.263a.574.574,0,0,1-.169.056Zm-9.45-2.826,9.24,1.635c.791-.48,4-2.773,2.1-7.406l-9.423-3.155Z" transform="translate(-604.637 -636.079)" fill="#262424"/>
        <path id="Path_2182" data-name="Path 2182" d="M409.781,587.9s1.318,12-6.757,19.643L357.034,594.61s-43.138,28.279-57.92,37.705-59.964-5.655-32.026-28.036c0,0,53.883-27.117,76.915-37.9,5.534-2.592,9.287-4.239,10.072-4.34,1.04-.133,5.1,1.449,10.593,3.887C380.949,573.147,409.781,587.9,409.781,587.9Z" transform="translate(-258.154 -562.034)" fill="url(#linear-gradient-2)"/>
        <path id="Path_2183" data-name="Path 2183" d="M568.627,565.928a15.243,15.243,0,0,1-8.277,4.127c-5.332.942-10.279-.649-12.4-3.673,5.534-2.592,9.287-4.239,10.072-4.34C559.074,561.908,563.132,563.5,568.627,565.928Z" transform="translate(-462.102 -562.034)" fill="#fff"/>
        <path id="Path_2184" data-name="Path 2184" d="M482.038,639.92a.635.635,0,0,1-.3-.024l-45.229-15.541-63.395,34.067a.592.592,0,1,1-.56-1.043l63.62-34.189a.593.593,0,0,1,.474-.038l45.475,15.632a.592.592,0,0,1-.089,1.146Z" transform="translate(-338.429 -605.025)" fill="#262424"/>
        <path id="Path_2185" data-name="Path 2185" d="M587.455,619.667H587.4a.592.592,0,0,1-.637-.545l-1.446-18.533a.594.594,0,1,1,1.185-.092l1.443,18.533A.593.593,0,0,1,587.455,619.667Z" transform="translate(-488.397 -588.717)" fill="#262424"/>
        <path id="Path_2186" data-name="Path 2186" d="M736.518,665.069a.592.592,0,0,1-.51-1.013c5.332-5.036,5.146-14.142,5.143-14.219a.593.593,0,1,1,1.185-.03c0,.394.2,9.7-5.513,15.108A.593.593,0,0,1,736.518,665.069Z" transform="translate(-594.319 -623.399)" fill="#262424"/>
      </g>
      <g id="RIGHT_FEET" data-name="RIGHT FEET" transform="translate(45.392 117.235)">
        <path id="Path_2187" data-name="Path 2187" d="M644.452,1238.93c-9.157,1.514-30.172-5.6-30.172-5.6-.821-1.247-1.62-2.536-2.37-3.83a150.686,150.686,0,0,1-8.549-17.2s-1.12-5.217,3-8.552c0,0,5.969-3.661,9.805-.127s24.087,16.589,24.087,16.589,9.275-1.434,12.528,2.8S653.611,1237.41,644.452,1238.93Z" transform="translate(-488.25 -1049.274)" fill="url(#linear-gradient-3)"/>
        <ellipse id="Ellipse_182" data-name="Ellipse 182" cx="3.193" cy="4.393" rx="3.193" ry="4.393" transform="translate(119.018 168.278) rotate(-25.64)" fill="#fff"/>
        <path id="Path_2188" data-name="Path 2188" d="M624.823,1256.388c-1.751.3-3.78-.942-4.814-3.1a5.88,5.88,0,0,1-.551-3.555,3.427,3.427,0,0,1,1.807-2.565,3.391,3.391,0,0,1,3.131.2,6.221,6.221,0,0,1,2.989,6.221,3.425,3.425,0,0,1-1.807,2.565A3.008,3.008,0,0,1,624.823,1256.388Zm-2.589-8.295a1.718,1.718,0,0,0-.462.148,2.239,2.239,0,0,0-1.152,1.709,4.708,4.708,0,0,0,.45,2.841c.906,1.89,2.7,2.921,3.99,2.3a2.266,2.266,0,0,0,1.155-1.709,5.036,5.036,0,0,0-2.382-4.995A2.465,2.465,0,0,0,622.234,1248.094Z" transform="translate(-499.625 -1080.798)" fill="#262424"/>
        <path id="Path_2189" data-name="Path 2189" d="M647.623,1244.6a.633.633,0,0,1-.3-.024c-11.6-3.952-26.528-16.569-27.159-17.1a.593.593,0,0,1,.767-.889c.154.13,15.387,13.008,26.774,16.886a.592.592,0,0,1-.086,1.146Z" transform="translate(-500.072 -1066.453)" fill="#262424"/>
        <path id="Path_2190" data-name="Path 2190" d="M663.42,1228.31a.61.61,0,0,1-.323-.033c-11.177-4.515-25.995-16.032-26.143-16.148a.593.593,0,1,1,.729-.933c.145.116,14.836,11.53,25.858,16a.581.581,0,0,1-.121,1.117Z" transform="translate(-511.815 -1055.594)" fill="#262424"/>
        <path id="Path_2191" data-name="Path 2191" d="M665.092,1281.468c-9.157,1.514-30.172-5.6-30.172-5.6-.821-1.247-1.62-2.536-2.37-3.83,9.225,3.718,25.518,5.362,25.518,5.362a11.075,11.075,0,0,1,2.829-14.64s9.275-1.434,12.528,2.8S674.251,1279.948,665.092,1281.468Z" transform="translate(-508.89 -1091.813)" fill="#fff"/>
        <path id="Path_2192" data-name="Path 2192" d="M663.91,1280.614l-.142.024h0c-9.2,1.523-29.591-5.332-30.456-5.629a.592.592,0,0,1-.3-.237c-.8-1.218-1.609-2.515-2.4-3.851a.592.592,0,0,1,.732-.85c7.7,3.1,20.511,4.763,24.291,5.2-4.067-8.923,3.422-14.359,3.5-14.415a.591.591,0,0,1,.252-.1c.391-.062,9.66-1.44,13.088,3.028,1.745,2.269,2,5.951.646,9.382a11.867,11.867,0,0,1-9.216,7.445Zm-.335-1.146a10.691,10.691,0,0,0,8.431-6.733c1.185-3.007.989-6.313-.483-8.229-2.8-3.644-10.665-2.749-11.826-2.6-.936.717-6.89,5.705-2.539,13.793a.592.592,0,0,1-.592.871c-.154,0-14.708-1.514-24.072-4.8q.69,1.126,1.383,2.183c2.127.705,21.243,6.911,29.689,5.513Z" transform="translate(-507.471 -1090.399)" fill="#262424"/>
        <path id="Path_2193" data-name="Path 2193" d="M595.78,1185.45l5.036,8.887s5.208,2.237,8.1-3.537l-3.9-10.14Z" transform="translate(-483.013 -1034.202)" fill="#fff"/>
        <path id="Path_2194" data-name="Path 2194" d="M602.906,1193.84a7.375,7.375,0,0,1-3.786-.361.591.591,0,0,1-.3-.252l-5.036-8.887a.593.593,0,0,1,.243-.818l9.246-4.79a.592.592,0,0,1,.827.314l3.913,10.14a.593.593,0,0,1-.024.477A7.017,7.017,0,0,1,602.906,1193.84Zm-3.14-1.38c.889.3,4.686,1.318,7.039-3.1l-3.555-9.275-8.1,4.2Z" transform="translate(-481.556 -1032.798)" fill="#262424"/>
        <path id="Path_2195" data-name="Path 2195" d="M340.685,837.906c-5.593,12.62-19.161,9.6-19.161,9.6-10.048-14.871-35.371-61.739-35.371-61.739L221.87,735.154s-15.138-20.988-.095-33.475,32.616,5.27,32.616,5.27l46.568,51.2,8.437,9.272,6.108,13.754Z" transform="translate(-215.114 -693.981)" fill="url(#linear-gradient-4)"/>
        <path id="Path_2196" data-name="Path 2196" d="M335.454,728.478a.593.593,0,0,1-.542-.187l-15.591-17.143a40.118,40.118,0,0,0-10.928-7.379.593.593,0,1,1,.477-1.084,40.476,40.476,0,0,1,11.31,7.649l15.609,17.161a.592.592,0,0,1-.039.838A.619.619,0,0,1,335.454,728.478Z" transform="translate(-280.5 -697.78)" fill="#262424"/>
        <path id="Path_2197" data-name="Path 2197" d="M345.079,708.33h-.124a.592.592,0,0,1-.572-.613l.169-5.415a4.912,4.912,0,0,0-1.238-3.43L333,687.253a.594.594,0,0,1,.889-.788L344.2,698.083a6.094,6.094,0,0,1,1.537,4.254l-.172,5.418A.592.592,0,0,1,345.079,708.33Z" transform="translate(-297.976 -686.265)" fill="#262424"/>
        <path id="Path_2198" data-name="Path 2198" d="M509.872,925.916c-.136.089-.273.175-.415.258-4.95,2.882-12.033-.056-15.816-6.559-3.67-6.313-2.891-13.668,1.686-16.726l8.437,9.272Z" transform="translate(-409.5 -838.718)" fill="#fff"/>
        <path id="Path_2199" data-name="Path 2199" d="M348.582,908.391a.593.593,0,0,1-.619-.3c-10.368-18.266-29.736-54.315-30.9-56.489l-65.611-55.13a.592.592,0,1,1,.761-.906l65.7,55.207a.668.668,0,0,1,.142.175c.2.376,20.3,37.832,30.942,56.566a.591.591,0,0,1-.412.874Z" transform="translate(-240.522 -763.079)" fill="#262424"/>
        <path id="Path_2200" data-name="Path 2200" d="M457.405,978.719a.592.592,0,0,1-.438-1.072l9.308-6.4a.593.593,0,0,1,.672.978l-9.3,6.4A.61.61,0,0,1,457.405,978.719Z" transform="translate(-385.139 -886.748)" fill="#262424"/>
        <path id="Path_2201" data-name="Path 2201" d="M576.415,1171.416a22.006,22.006,0,0,1-5.211.329.594.594,0,1,1,.1-1.185c.107,0,10.534.773,16.157-6.917a.593.593,0,0,1,.957.7A18.51,18.51,0,0,1,576.415,1171.416Z" transform="translate(-465.333 -1022.055)" fill="#262424"/>
      </g>
      <g id="LEFT_ARM" data-name="LEFT ARM" transform="translate(43.285 44.806)">
        <path id="Path_2202" data-name="Path 2202" d="M208,441.77s46.965,14.382,51.6,25.3-11.74,17.3-29.941,6.221S208,441.77,208,441.77Z" transform="translate(-208 -441.77)" fill="url(#linear-gradient-5)"/>
        <path id="Path_2203" data-name="Path 2203" d="M336.268,520.8c-1.7,1.108-1.164,4.467.471,8.339s10.525,2.251,11.257.622-.693-7.047-2.029-8.366S338.383,519.434,336.268,520.8Z" transform="translate(-297.535 -496.852)" fill="#fff"/>
        <path id="Path_2204" data-name="Path 2204" d="M343.166,530.5a14.622,14.622,0,0,1-2.625.228c-2.962-.021-5.036-1-5.765-2.752-1.4-3.3-2.571-7.554-.249-9.068h0c2.3-1.5,8.887-.838,10.422.669,1.481,1.452,3,7.089,2.157,9.026C346.718,529.491,345.05,530.169,343.166,530.5Zm-8-10.6c-1.241.809-.981,3.653.69,7.613.764,1.807,3.531,2.02,4.683,2.029,2.794.018,5.252-.918,5.469-1.416.592-1.33-.7-6.517-1.9-7.7-1.093-1.078-6.982-1.8-8.94-.521Z" transform="translate(-296.118 -495.462)" fill="#262424"/>
        <path id="Path_2205" data-name="Path 2205" d="M322.071,525.483c-2.37.841-.19,6.3.963,8.855s5.312,2.823,4.521-.8S324.9,524.481,322.071,525.483Z" transform="translate(-287.533 -500.599)" fill="#fff"/>
        <path id="Path_2206" data-name="Path 2206" d="M324.965,535.4a3.748,3.748,0,0,1-3.878-2.225c-1.86-4.124-2.477-6.985-1.825-8.505a2.021,2.021,0,0,1,1.206-1.152h0a2.521,2.521,0,0,1,2.145.187c2.37,1.318,3.664,6.245,4.115,8.295.536,2.459-.951,3.155-1.416,3.309A2.675,2.675,0,0,1,324.965,535.4Zm-4.1-10.765a.838.838,0,0,0-.512.5c-.492,1.152.172,3.9,1.816,7.551a2.536,2.536,0,0,0,2.773,1.5c.859-.276.761-1.33.631-1.932-.667-3.051-1.943-6.63-3.531-7.515a1.345,1.345,0,0,0-1.185-.107Z" transform="translate(-286.125 -499.191)" fill="#262424"/>
      </g>
      <g id="BODY" transform="translate(1.071 40.148)">
        <path id="Path_2207" data-name="Path 2207" d="M119.925,563.515s11.192-30.856,46.174-63.306l-26.365-12.993a145.893,145.893,0,0,0-32.02-46.136s-15.849-1.161-24.463,1.161S65.5,465.44,65.5,465.44s17.271,50.1,25.352,66.322S119.925,563.515,119.925,563.515Z" transform="translate(-65.5 -436.422)" fill="url(#linear-gradient-6)"/>
        <path id="Path_2208" data-name="Path 2208" d="M162.773,497.62a1.778,1.778,0,0,1-.708,0c-.382-.1-.714-.178-4.195-7.433-1.665-3.466-3.259-6.956-3.279-6.988a.593.593,0,1,1,1.078-.495c2.761,6.034,6,12.738,6.784,13.763a5.667,5.667,0,0,0,2.37-1.114,1.638,1.638,0,0,0,.7-1c.027-.912-3.09-7.533-6.12-13.411a.593.593,0,1,1,1.055-.542c1.481,2.9,6.357,12.469,6.248,14.036a2.906,2.906,0,0,1-1.378,2.023,6.947,6.947,0,0,1-2.554,1.155Z" transform="translate(-128.161 -464.076)" fill="#262424"/>
        <path id="Path_2209" data-name="Path 2209" d="M236.562,695.947a.572.572,0,0,1-.379-.059.593.593,0,0,1-.246-.8c.193-.367,19.614-36.787,42.812-54.279a.592.592,0,1,1,.711.948c-22.988,17.333-42.285,53.533-42.477,53.885A.592.592,0,0,1,236.562,695.947Z" transform="translate(-185.399 -577.105)" fill="#262424"/>
        <path id="Path_2210" data-name="Path 2210" d="M237.972,479.239a.592.592,0,0,1-.616-.3,145.8,145.8,0,0,0-22.375-29.624.593.593,0,0,1,.841-.835,147.352,147.352,0,0,1,22.558,29.878.592.592,0,0,1-.216.809A.606.606,0,0,1,237.972,479.239Z" transform="translate(-170.578 -441.714)" fill="#262424"/>
        <path id="Path_2211" data-name="Path 2211" d="M124.581,435.957c.364,3.324-2.023,6.369-2.023,6.369a30.077,30.077,0,0,0-5.708-6.476s-.03,4.527.1,8.312c-2.074.829-10.75,2.311-14.059-2.32,0,0-1.523-10.961,8.733-13.562C116.037,427.15,122.122,430.344,124.581,435.957Z" transform="translate(-91.758 -427.46)" fill="#fff"/>
        <path id="Path_2212" data-name="Path 2212" d="M113.318,443.931c-3.605.637-9.565.693-12.318-3.158a.593.593,0,0,1-.107-.261c0-.116-1.481-11.518,9.183-14.219,4.941-1.256,11.189,2.411,13.645,8.013a.512.512,0,0,1,.047.172c.385,3.525-2.044,6.668-2.148,6.8a.592.592,0,0,1-.986-.083,26.337,26.337,0,0,0-4.6-5.412c0,1.629.018,4.461.1,6.947a.592.592,0,0,1-.373.569A13.284,13.284,0,0,1,113.318,443.931ZM102.061,440.2c2.962,3.907,10.466,2.882,12.88,2.13-.113-3.661-.086-7.859-.086-7.9a.592.592,0,0,1,.986-.438,35.538,35.538,0,0,1,5.332,5.824A8.879,8.879,0,0,0,122.6,434.7c-2.491-5.572-8.324-8.253-12.235-7.258a10.2,10.2,0,0,0-7.788,7.353,14.945,14.945,0,0,0-.512,5.412Z" transform="translate(-90.36 -426.047)" fill="#262424"/>
      </g>
      <g id="RIGHT_ARM" data-name="RIGHT ARM" transform="translate(0 66.787)">
        <path id="Path_2213" data-name="Path 2213" d="M249.26,574.485l4.127-3.036s4.485-8.665,5.365-10.223,11.731,1.138,12.442,1.813a1.73,1.73,0,0,1-.3,2.559,8.591,8.591,0,0,1,2.61,7.11c-.459,4.494-8.609,2.074-8.609,2.074s-1,5.993-3.081,6.962-8.105.681-8.105.681Z" transform="translate(-193.752 -547.483)" fill="#fff"/>
        <path id="Path_2214" data-name="Path 2214" d="M259.089,581.346a36.516,36.516,0,0,1-6.769.275.592.592,0,0,1-.489-.3l-4.444-7.936a.593.593,0,0,1,.163-.767l4.017-2.962c.572-1.1,4.482-8.653,5.309-10.12a1.691,1.691,0,0,1,1.312-.714c2.962-.456,11.257,1.626,12.063,2.37a2.115,2.115,0,0,1,.616,1.8,2.4,2.4,0,0,1-.468,1.209,9.2,9.2,0,0,1,2.346,7.157,3.182,3.182,0,0,1-1.419,2.435c-2.074,1.38-5.815.675-7.314.314-.335,1.677-1.357,5.86-3.3,6.763A6.816,6.816,0,0,1,259.089,581.346Zm-6.387-.889c1.851.065,5.993.059,7.5-.64,1.312-.61,2.37-4.325,2.749-6.517a.592.592,0,0,1,.752-.468c1.342.4,5.208,1.185,6.953,0a2.011,2.011,0,0,0,.889-1.57,7.93,7.93,0,0,0-2.4-6.612.594.594,0,0,1,.077-.957,1.078,1.078,0,0,0,.45-.815.963.963,0,0,0-.246-.806c-1.06-.75-10.62-2.82-11.553-1.932-.847,1.511-5.294,10.1-5.332,10.182a.592.592,0,0,1-.175.2l-3.7,2.725Z" transform="translate(-192.381 -546.085)" fill="#262424"/>
        <path id="Path_2215" data-name="Path 2215" d="M300.528,571.587a.645.645,0,0,1-.237,0l-8.623-1.988a.593.593,0,0,1,.267-1.155l8.623,1.988a.593.593,0,0,1-.03,1.161Z" transform="translate(-223.274 -552.888)" fill="#262424"/>
        <path id="Path_2216" data-name="Path 2216" d="M125.422,553.261s-16.646,25.334-25.18,33.475c-.421.4-.824.764-1.206,1.078-5.036,4.147-10.558,5.871-16.886-.661-3.813-3.931-7.915-10.854-12.38-22.046-11.882-29.79-6.813-45.324-6.813-45.324,4.95-3.783,18.995-2.05,22.514,10.561a187.363,187.363,0,0,0,10.176,26.383l22.852-14.27Z" transform="translate(-61.884 -517.408)" fill="url(#linear-gradient-7)"/>
        <path id="Path_2217" data-name="Path 2217" d="M108.776,584.622a.592.592,0,0,1-.53-.992c8.093-8.466,21.767-28.99,23.637-31.807l-6.4-9.992L103.13,555.784a.592.592,0,0,1-.847-.243c-.068-.139-6.707-13.962-10.211-26.481a15.948,15.948,0,0,0-19.235-11.4.592.592,0,1,1-.341-1.135A17.125,17.125,0,0,1,93.212,528.74a187.244,187.244,0,0,0,9.853,25.687L125.354,540.5a.592.592,0,0,1,.812.184l6.92,10.839a.592.592,0,0,1,0,.643c-.151.231-15.247,23.163-24,32.29A.592.592,0,0,1,108.776,584.622Z" transform="translate(-69.046 -515.969)" fill="#262424"/>
        <path id="Path_2218" data-name="Path 2218" d="M156.443,672.092a.577.577,0,0,1-.142,0,.593.593,0,0,1-.554-.631,47.76,47.76,0,0,1,4.823-17.019.593.593,0,1,1,1.052.548,47.473,47.473,0,0,0-4.692,16.548A.593.593,0,0,1,156.443,672.092Z" transform="translate(-127.94 -613.197)" fill="#262424"/>
        <path id="Path_2219" data-name="Path 2219" d="M148.334,734.258c.018.11.036.219.047.329-.421.4-.824.764-1.206,1.078-5.036,4.147-10.558,5.871-16.886-.661.652-3.238,3.664-6.025,7.673-6.733C142.942,727.388,147.593,730.069,148.334,734.258Z" transform="translate(-110.025 -665.261)" fill="#fff"/>
        <path id="Path_2220" data-name="Path 2220" d="M240.647,626.268a.592.592,0,0,1-.533-.172,21.74,21.74,0,0,1-5.1-10.164.592.592,0,0,1,.48-.684h0a.592.592,0,0,1,.687.48,20.74,20.74,0,0,0,4.793,9.548.593.593,0,0,1-.323.992Z" transform="translate(-183.717 -585.831)" fill="#262424"/>
        <circle id="Ellipse_183" data-name="Ellipse 183" cx="1.629" cy="1.629" r="1.629" transform="translate(57.042 33.638)" fill="#fff"/>
        <path id="Path_2221" data-name="Path 2221" d="M255.052,631.923a2.222,2.222,0,1,1,1.8-2.574A2.222,2.222,0,0,1,255.052,631.923Zm-.569-3.208a1.037,1.037,0,1,0,1.2.841A1.037,1.037,0,0,0,254.483,628.715Z" transform="translate(-195.992 -594.47)" fill="#262424"/>
      </g>
      <g id="NECK" transform="translate(11.511 28.926)">
        <path id="Path_2222" data-name="Path 2222" d="M102.74,390.16l1.558,6.316,2.666,10.819c4.212,1.76,7.827,1.253,10.694-2.074l-1.6-4.938-2.444-7.5Z" transform="translate(-102.148 -389.569)" fill="#fff"/>
        <path id="Path_2223" data-name="Path 2223" d="M111.483,407.333a10.993,10.993,0,0,1-6.162-.909.592.592,0,0,1-.347-.406L100.76,388.9a.592.592,0,0,1,.714-.717l10.872,2.631a.592.592,0,0,1,.427.394l4.044,12.418a.592.592,0,0,1-.116.569A8.924,8.924,0,0,1,111.483,407.333Zm-5.43-1.893c3.9,1.543,7.015.963,9.521-1.777l-3.821-11.781-9.6-2.322Z" transform="translate(-100.743 -388.165)" fill="#262424"/>
      </g>
      <g id="HEAD" transform="translate(4.295 6.193)">
        <path id="Path_2224" data-name="Path 2224" d="M116.671,351.23c.533,5.35.3,11.927-6.2,12.226-7.7.355-13.627-3.949-15.129-11.05s.954-11.781,9.643-12.694a13.419,13.419,0,0,1,2.222-.05c5.172.326,8.461,3.89,9.121,8.718C116.446,349.254,116.573,350.22,116.671,351.23Z" transform="translate(-89.432 -331.28)" fill="#fff"/>
        <path id="Path_2225" data-name="Path 2225" d="M127.486,362.564a8.928,8.928,0,0,1-1.161.124,16.639,16.639,0,0,1-8.591-1.8.592.592,0,1,1,.557-1.046,15.488,15.488,0,0,0,8,1.662,5.388,5.388,0,0,0,4.061-1.76c2.056-2.37,1.887-6.742,1.579-9.817-.1-1-.222-1.946-.344-2.829-.652-4.769-3.937-7.915-8.57-8.209a.594.594,0,1,1,.074-1.185c5.232.332,8.937,3.869,9.669,9.231.118.853.252,1.849.35,2.874.329,3.291.495,7.984-1.86,10.709A6.221,6.221,0,0,1,127.486,362.564Z" transform="translate(-105.263 -329.921)" fill="#262424"/>
        <path id="Path_2226" data-name="Path 2226" d="M82.057,334.338a22.267,22.267,0,0,0,3.013,2.438l3.818-.53.264-2.835s2.37-.592,2.539-2.3a1.182,1.182,0,0,0,0-.121,21.281,21.281,0,0,0-1.069-6.606s6.265,1.372,9.48,1.066a7.265,7.265,0,0,0,3.481-1.662c2.2-1.706,3.537-6.135,2.562-8.748a.055.055,0,0,0-.021-.05c-1.481-3.821-2.98-.661-2.98-.661s-1.238-3.066-3.279-2.891-2.716,3.377-2.716,3.377a32.067,32.067,0,0,0-11.79,1.881c-7.477,2.743-4.479,7.67-4.479,7.67S75.566,327.332,82.057,334.338Z" transform="translate(-78.106 -311.426)" fill="#262424"/>
        <path id="Path_2227" data-name="Path 2227" d="M87.663,382.189a5.6,5.6,0,0,0-5.969-5.116,5.084,5.084,0,0,0-1.854.515c-3.481,1.739-.776,10.117,8.1,7.637Z" transform="translate(-77.781 -357.612)" fill="#fff"/>
        <path id="Path_2228" data-name="Path 2228" d="M85.411,384.7c-4.606.815-7.643-1.3-8.668-3.961-.815-2.115-.213-4.248,1.434-5.072a5.645,5.645,0,0,1,2.074-.575,6.182,6.182,0,0,1,6.609,5.649.6.6,0,1,1-1.185.11,5,5,0,0,0-5.332-4.58,4.512,4.512,0,0,0-1.638.456c-1.09.542-1.449,2.05-.859,3.584.859,2.222,3.608,4.328,8.535,2.962a.594.594,0,0,1,.32,1.144C86.258,384.532,85.828,384.624,85.411,384.7Z" transform="translate(-76.382 -356.219)" fill="#262424"/>
      </g>
      <g id="LAPTOP" transform="translate(64.883)">
        <rect id="Rectangle_57" data-name="Rectangle 57" width="42.314" height="7.468" rx="3.734" transform="matrix(0.713, -0.701, 0.701, 0.713, 36.28, 72.258)" fill="#fff"/>
        <path id="Path_2229" data-name="Path 2229" d="M411.69,470.571a4.444,4.444,0,0,1-.8.065,4.328,4.328,0,0,1-3-7.406L432.744,438.8a4.326,4.326,0,1,1,6.067,6.168h0l-24.848,24.419A4.29,4.29,0,0,1,411.69,470.571Zm23.533-31.786a3.111,3.111,0,0,0-1.647.853l-24.848,24.434a3.141,3.141,0,1,0,4.405,4.479l24.848-24.434.415.424-.415-.424a3.145,3.145,0,0,0-2.758-5.332Z" transform="translate(-369.373 -393.999)" fill="#262424"/>
        <rect id="Rectangle_58" data-name="Rectangle 58" width="61.176" height="7.468" rx="3.734" transform="matrix(0.713, -0.701, 0.701, 0.713, 0, 107.935)" fill="#fff"/>
        <path id="Path_2230" data-name="Path 2230" d="M289.2,559.741a4.192,4.192,0,0,1-.8.065,4.325,4.325,0,0,1-3-7.406l38.3-37.661a4.328,4.328,0,0,1,6.067,6.171l-38.283,37.655A4.289,4.289,0,0,1,289.2,559.741Zm36.982-45.01a3.11,3.11,0,0,0-1.647.853l-38.3,37.658a3.14,3.14,0,0,0,2.174,5.38,3.107,3.107,0,0,0,2.231-.889l38.295-37.669a3.143,3.143,0,0,0-2.755-5.332Zm3.173,5.756Z" transform="translate(-283.166 -447.494)" fill="#262424"/>
        <path id="Path_2231" data-name="Path 2231" d="M367,301.226l-20.849,20.5a4.592,4.592,0,0,0-.936,5.229l17.774,37.741a2.317,2.317,0,0,0,3.718.664l20.849-20.5a4.586,4.586,0,0,0,.933-5.226l-17.774-37.741a2.311,2.311,0,0,0-3.715-.661Z" transform="translate(-325.856 -297.585)" fill="#fff"/>
        <path id="Path_2232" data-name="Path 2232" d="M364.188,365.172a3.072,3.072,0,0,1-1.028,0,2.882,2.882,0,0,1-2.118-1.623l-17.774-37.741a5.187,5.187,0,0,1,1.055-5.9l20.852-20.5.415.424-.415-.424a2.906,2.906,0,0,1,4.666.835l17.774,37.741a5.187,5.187,0,0,1-1.055,5.9l-20.849,20.5A2.879,2.879,0,0,1,364.188,365.172Zm2.719-65.394a1.71,1.71,0,0,0-.9.468l-20.849,20.5a4,4,0,0,0-.815,4.55l17.774,37.741a1.721,1.721,0,0,0,2.767.495l20.849-20.5a4,4,0,0,0,.812-4.55L368.768,300.74a1.733,1.733,0,0,0-1.86-.963Z" transform="translate(-324.447 -296.184)" fill="#262424"/>
        <path id="Path_2233" data-name="Path 2233" d="M375.207,293.154l-20.852,20.5a4.6,4.6,0,0,0-.933,5.229L371.2,356.619a2.314,2.314,0,0,0,3.715.667l20.852-20.508a4.589,4.589,0,0,0,.933-5.226l-17.774-37.741a2.311,2.311,0,0,0-3.715-.658Z" transform="translate(-331.633 -291.903)" fill="#fff"/>
        <path id="Path_2234" data-name="Path 2234" d="M372.4,357.116a3,3,0,0,1-1.028,0,2.868,2.868,0,0,1-2.118-1.62L351.48,317.755a5.187,5.187,0,0,1,1.055-5.9l20.849-20.5a2.909,2.909,0,0,1,4.669.835l17.774,37.741a5.187,5.187,0,0,1-1.055,5.9l-20.849,20.5A2.879,2.879,0,0,1,372.4,357.116Zm2.716-65.394a1.712,1.712,0,0,0-.889.468h0l-20.867,20.5a3.993,3.993,0,0,0-.815,4.55l17.774,37.741a1.721,1.721,0,0,0,2.764.495l20.861-20.5a4,4,0,0,0,.812-4.55l-17.774-37.741a1.7,1.7,0,0,0-1.253-.963,1.759,1.759,0,0,0-.613,0Zm-1.315.047Z" transform="translate(-330.227 -290.519)" fill="#262424"/>
      </g>
    </g>
    <g id="ORNAMENT" transform="translate(32.998 6.251)">
      <path id="Path_2235" data-name="Path 2235" d="M1451.472,1021.224a.592.592,0,0,1-.592-.593v-3.039a.592.592,0,1,1,1.185,0v3.036a.592.592,0,0,1-.593.6Z" transform="translate(-1072.372 -753.918)" fill="url(#linear-gradient-8)"/>
      <path id="Path_2236" data-name="Path 2236" d="M1459.716,1033.645h-3.034a.592.592,0,0,1,0-1.185h3.034a.592.592,0,0,1,0,1.185Z" transform="translate(-1076.039 -764.798)" fill="url(#linear-gradient-9)"/>
      <path id="Path_2237" data-name="Path 2237" d="M1451.472,1041.889a.592.592,0,0,1-.592-.593v-3.033a.592.592,0,1,1,1.185,0v3.033A.592.592,0,0,1,1451.472,1041.889Z" transform="translate(-1072.372 -768.465)" fill="url(#linear-gradient-9)"/>
      <path id="Path_2238" data-name="Path 2238" d="M1439.066,1033.645h-3.034a.592.592,0,0,1,0-1.185h3.034a.592.592,0,1,1,0,1.185Z" transform="translate(-1061.506 -764.798)" fill="url(#linear-gradient-9)"/>
      <path id="Path_2239" data-name="Path 2239" d="M670.523,408.207a.593.593,0,0,1-.593-.593v-4.162a.593.593,0,0,1,1.185,0v4.162A.593.593,0,0,1,670.523,408.207Z" transform="translate(-522.768 -321.709)" fill="url(#linear-gradient-12)"/>
      <path id="Path_2240" data-name="Path 2240" d="M681.85,425.235H677.7a.592.592,0,1,1,0-1.185h4.147a.592.592,0,1,1,0,1.185Z" transform="translate(-527.821 -336.622)" fill="url(#linear-gradient-13)"/>
      <path id="Path_2241" data-name="Path 2241" d="M670.523,436.527a.592.592,0,0,1-.593-.592v-4.162a.593.593,0,0,1,1.185,0v4.162A.593.593,0,0,1,670.523,436.527Z" transform="translate(-522.768 -341.639)" fill="url(#linear-gradient-14)"/>
      <path id="Path_2242" data-name="Path 2242" d="M653.53,425.235h-4.147a.592.592,0,1,1,0-1.185h4.147a.592.592,0,1,1,0,1.185Z" transform="translate(-507.891 -336.622)" fill="url(#linear-gradient-15)"/>
      <path id="Path_2243" data-name="Path 2243" d="M1422.363,141.955a.592.592,0,0,1-.592-.592v-3.43a.592.592,0,1,1,1.185,0v3.43A.592.592,0,0,1,1422.363,141.955Z" transform="translate(-1051.886 -134.846)" fill="#262424"/>
      <path id="Path_2244" data-name="Path 2244" d="M1431.673,155.985h-3.43a.592.592,0,1,1,0-1.185h3.43a.592.592,0,1,1,0,1.185Z" transform="translate(-1056.024 -147.133)" fill="#262424"/>
      <path id="Path_2245" data-name="Path 2245" d="M1422.363,165.3a.592.592,0,0,1-.592-.592v-3.43a.592.592,0,1,1,1.185,0v3.43A.592.592,0,0,1,1422.363,165.3Z" transform="translate(-1051.886 -151.272)" fill="#262424"/>
      <path id="Path_2246" data-name="Path 2246" d="M1408.33,155.985H1404.9a.592.592,0,0,1,0-1.185h3.428a.592.592,0,0,1,0,1.185Z" transform="translate(-1039.598 -147.133)" fill="#262424"/>
      <circle id="Ellipse_184" data-name="Ellipse 184" cx="2.551" cy="2.551" r="2.551" transform="translate(53.18 16.971)" fill="url(#linear-gradient-6)"/>
      <circle id="Ellipse_185" data-name="Ellipse 185" cx="5.392" cy="5.392" r="5.392" transform="translate(331.43 24.099)" fill="url(#linear-gradient-17)"/>
      <circle id="Ellipse_186" data-name="Ellipse 186" cx="5.392" cy="5.392" r="5.392" transform="translate(147.464 229.252)" fill="url(#linear-gradient-17)"/>
      <circle id="Ellipse_187" data-name="Ellipse 187" cx="5.392" cy="5.392" r="5.392" fill="url(#linear-gradient-17)"/>
      <circle id="Ellipse_188" data-name="Ellipse 188" cx="3.907" cy="3.907" r="3.907" transform="translate(35.092 296.083)" fill="url(#linear-gradient-6)"/>
      <circle id="Ellipse_189" data-name="Ellipse 189" cx="3.907" cy="3.907" r="3.907" transform="translate(258.194 4.352)" fill="url(#linear-gradient-21)"/>
      <circle id="Ellipse_190" data-name="Ellipse 190" cx="3.907" cy="3.907" r="3.907" transform="translate(218.632 287.098)" fill="url(#linear-gradient-9)"/>
      <circle id="Ellipse_191" data-name="Ellipse 191" cx="4.097" cy="4.097" r="4.097" transform="translate(81.803 341.294)" fill="url(#linear-gradient-9)"/>
    </g>
    <g id="Web" transform="translate(129.621 0)">
      <rect id="Rectangle_59" data-name="Rectangle 59" width="202.579" height="148.104" rx="13" transform="translate(100.605 71.532)" fill="#fff"/>
      <path id="Path_2247" data-name="Path 2247" d="M1036.286,496.472H840.9a4.29,4.29,0,0,1-4.287-4.286V351.275A4.29,4.29,0,0,1,840.9,347h195.389a4.289,4.289,0,0,1,4.286,4.286v140.9a4.29,4.29,0,0,1-4.287,4.287ZM840.9,348.369a2.909,2.909,0,0,0-2.9,2.906V492.186a2.909,2.909,0,0,0,2.9,2.906h195.389a2.909,2.909,0,0,0,2.9-2.906V351.275a2.909,2.909,0,0,0-2.9-2.906Z" transform="translate(-736.695 -276.146)" fill="#262424"/>
      <rect id="Rectangle_60" data-name="Rectangle 60" width="88.998" height="62.352" rx="10" transform="translate(118.424 99.088)" fill="url(#linear-gradient-6)"/>
      <rect id="Rectangle_61" data-name="Rectangle 61" width="78.322" height="52.564" transform="translate(123.762 103.982)" fill="#fff"/>
      <path id="Path_2248" data-name="Path 2248" d="M995.442,551.855v7.3H917.12V542.565l14.252-14.249a5.528,5.528,0,0,1,7.824,0l20.911,20.908,12.442-12.442a5.531,5.531,0,0,1,7.827,0Z" transform="translate(-793.355 -402.608)" fill="url(#linear-gradient-9)"/>
      <circle id="Ellipse_192" data-name="Ellipse 192" cx="6.017" cy="6.017" r="6.017" transform="translate(162.193 118.35)" fill="url(#linear-gradient-9)"/>
      <rect id="Rectangle_62" data-name="Rectangle 62" width="67.426" height="62.352" rx="10" transform="translate(217.936 99.088)" fill="url(#linear-gradient-9)"/>
      <rect id="Rectangle_63" data-name="Rectangle 63" width="44.498" height="5.439" rx="2.719" transform="translate(229.4 112.712)" fill="#fff"/>
      <rect id="Rectangle_64" data-name="Rectangle 64" width="44.498" height="5.439" rx="2.719" transform="translate(229.4 127.545)" fill="#fff"/>
      <rect id="Rectangle_65" data-name="Rectangle 65" width="44.498" height="5.439" rx="2.719" transform="translate(229.4 142.377)" fill="#fff"/>
      <rect id="Rectangle_66" data-name="Rectangle 66" width="117.947" height="8.44" rx="4.22" transform="translate(165.478 181.981)" fill="url(#linear-gradient-28)"/>
      <rect id="Rectangle_67" data-name="Rectangle 67" width="117.947" height="8.44" rx="4.22" transform="translate(165.478 196.05)" fill="url(#linear-gradient-29)"/>
      <rect id="Rectangle_68" data-name="Rectangle 68" width="29.458" height="29.458" rx="6.87" transform="translate(128.149 178.506)" fill="url(#linear-gradient-2)"/>
      <path id="Path_2249" data-name="Path 2249" d="M962.538,740.9a.678.678,0,0,1-.489-.2l-24.271-24.271a.691.691,0,1,1,.978-.978l24.271,24.271a.693.693,0,0,1,0,.978A.684.684,0,0,1,962.538,740.9Z" transform="translate(-807.752 -535.305)" fill="#fff"/>
      <path id="Path_2250" data-name="Path 2250" d="M938.27,740.9a.684.684,0,0,1-.489-.2.693.693,0,0,1,0-.978l24.271-24.271a.691.691,0,0,1,.978.978L938.758,740.7A.684.684,0,0,1,938.27,740.9Z" transform="translate(-807.754 -535.305)" fill="#fff"/>
      <rect id="Rectangle_69" data-name="Rectangle 69" width="211.537" height="23.077" rx="11.538" transform="translate(96.126 60.373)" fill="#fff"/>
      <path id="Path_2251" data-name="Path 2251" d="M1029.937,333.74H825.96a4.476,4.476,0,0,1-4.47-4.47V313.753a4.479,4.479,0,0,1,4.47-4.473h203.977a4.479,4.479,0,0,1,4.473,4.473V329.27A4.476,4.476,0,0,1,1029.937,333.74ZM825.96,310.678a3.09,3.09,0,0,0-3.087,3.09v15.517a3.09,3.09,0,0,0,3.087,3.087h203.977a3.09,3.09,0,0,0,3.09-3.087V313.753a3.093,3.093,0,0,0-3.09-3.075Z" transform="translate(-726.054 -249.6)" fill="#262424"/>
      <circle id="Ellipse_193" data-name="Ellipse 193" cx="4.918" cy="4.918" r="4.918" transform="translate(100.803 66.994)" fill="url(#linear-gradient-9)"/>
      <circle id="Ellipse_194" data-name="Ellipse 194" cx="4.918" cy="4.918" r="4.918" transform="translate(122.781 66.994)" fill="url(#linear-gradient-32)"/>
      <circle id="Ellipse_195" data-name="Ellipse 195" cx="4.918" cy="4.918" r="4.918" transform="translate(144.762 66.994)" fill="url(#linear-gradient-6)"/>
      <path id="Path_2252" data-name="Path 2252" d="M1144.48,1054.65h-3.555a.741.741,0,1,1,0-1.481h3.555a.741.741,0,1,1,0,1.481Zm-7.11,0h-3.555a.741.741,0,0,1,0-1.481h3.555a.741.741,0,1,1,0,1.481Zm-7.11,0h-3.555a.741.741,0,0,1,0-1.481h3.555a.741.741,0,1,1,0,1.481Zm-7.11,0H1119.6a.741.741,0,1,1,0-1.481h3.555a.741.741,0,1,1,0,1.481Zm-7.109,0h-3.555a.741.741,0,0,1,0-1.481h3.555a.741.741,0,0,1,0,1.481Zm-7.11,0h-3.555a.741.741,0,1,1,0-1.481h3.555a.741.741,0,0,1,0,1.481Zm-7.11,0h-3.555a.741.741,0,0,1,0-1.481h3.555a.741.741,0,0,1,0,1.481Zm-7.11,0h-3.555a.741.741,0,1,1,0-1.481h3.555a.741.741,0,1,1,0,1.481Zm-7.11,0h-3.555a.741.741,0,1,1,0-1.481h3.555a.741.741,0,1,1,0,1.481Zm-7.11,0h-3.555a.741.741,0,0,1,0-1.481h3.555a.741.741,0,0,1,0,1.481Zm-7.11,0h-.432a.741.741,0,0,1-.741-.741v-3.555a.741.741,0,1,1,1.481,0v2.876a.741.741,0,0,1-.3,1.413Zm74.554-.1a.741.741,0,0,1-.741-.741v-3.555a.741.741,0,1,1,1.481,0v3.555a.741.741,0,0,1-.74.741Zm-74.986-7.012a.741.741,0,0,1-.741-.741v-3.555a.741.741,0,0,1,1.481,0v3.555a.741.741,0,0,1-.741.741Zm74.986-.1a.741.741,0,0,1-.741-.741v-3.555a.741.741,0,1,1,1.481,0v3.555A.741.741,0,0,1,1147.937,1047.442Zm-74.986-7.012a.741.741,0,0,1-.741-.74v-3.555a.741.741,0,0,1,1.481,0v3.555a.741.741,0,0,1-.741.74Zm74.986-.1a.741.741,0,0,1-.741-.741v-3.555a.741.741,0,1,1,1.481,0v3.555a.741.741,0,0,1-.741.741Zm-74.986-7.012a.741.741,0,0,1-.741-.74v-3.555a.741.741,0,1,1,1.481,0v3.555a.741.741,0,0,1-.741.74Zm74.986-.1a.741.741,0,0,1-.741-.741v-3.555a.741.741,0,1,1,1.481,0v3.555A.741.741,0,0,1,1147.937,1033.223Zm-74.986-7.012a.741.741,0,0,1-.741-.741v-3.555a.741.741,0,0,1,1.481,0v3.555a.74.74,0,0,1-.741.741Zm74.986-.1a.741.741,0,0,1-.741-.741v-3.555a.741.741,0,0,1,1.481,0v3.555A.741.741,0,0,1,1147.937,1026.113Zm-74.986-7.012a.741.741,0,0,1-.741-.74v-3.555a.741.741,0,0,1,1.481,0v3.555a.741.741,0,0,1-.741.74Zm74.986-.1a.741.741,0,0,1-.741-.74v-3.555a.741.741,0,1,1,1.481,0v3.555A.741.741,0,0,1,1147.937,1019Zm-74.986-7.012a.741.741,0,0,1-.741-.741V1007.7a.741.741,0,1,1,1.481,0v3.555a.741.741,0,0,1-.741.741Zm74.986-.1a.741.741,0,0,1-.741-.741V1007.6a.741.741,0,0,1,1.481,0v3.555A.741.741,0,0,1,1147.937,1011.894Zm-74.986-7.012a.741.741,0,0,1-.741-.741v-3.555a.741.741,0,1,1,1.481,0v3.555a.741.741,0,0,1-.741.741Zm74.986-.1a.741.741,0,0,1-.741-.741v-3.555a.741.741,0,1,1,1.481,0v3.555a.741.741,0,0,1-.741.741Zm-74.986-7.012a.741.741,0,0,1-.741-.741v-3.555a.741.741,0,1,1,1.481,0v3.555a.741.741,0,0,1-.741.741Zm74.986-.1a.741.741,0,0,1-.741-.741v-3.555a.741.741,0,0,1,1.481,0v3.555A.741.741,0,0,1,1147.937,997.674Zm-74.986-7.012a.741.741,0,0,1-.741-.741v-3.555a.741.741,0,1,1,1.481,0v3.555a.741.741,0,0,1-.741.741Zm74.986-.1a.741.741,0,0,1-.741-.741v-3.543a.741.741,0,1,1,1.481,0v3.555a.74.74,0,0,1-.741.729Zm-.216-6.893h-3.555a.741.741,0,0,1,0-1.481h3.555a.741.741,0,0,1,0,1.481Zm-7.11,0h-3.555a.741.741,0,0,1,0-1.481h3.555a.741.741,0,0,1,0,1.481Zm-7.11,0h-3.555a.741.741,0,1,1,0-1.481h3.555a.741.741,0,1,1,0,1.481Zm-7.11,0h-3.555a.741.741,0,1,1,0-1.481h3.555a.741.741,0,1,1,0,1.481Zm-7.11,0h-3.555a.741.741,0,1,1,0-1.481h3.555a.741.741,0,0,1,0,1.481Zm-7.11,0h-3.555a.741.741,0,1,1,0-1.481h3.555a.741.741,0,0,1,0,1.481Zm-7.11,0h-3.555a.741.741,0,1,1,0-1.481h3.555a.741.741,0,1,1,0,1.481Zm-7.11,0H1094.4a.741.741,0,0,1,0-1.481h3.555a.741.741,0,1,1,0,1.481Zm-7.11,0h-3.555a.741.741,0,0,1,0-1.481h3.555a.741.741,0,0,1,0,1.481Zm-7.11,0h-3.555a.741.741,0,1,1,0-1.481h3.555a.741.741,0,0,1,0,1.481Zm-7.11,0h-3.555a.741.741,0,0,1,0-1.481h3.555a.741.741,0,0,1,0,1.481Z" transform="translate(-902.502 -723.169)" fill="#262424"/>
      <rect id="Rectangle_70" data-name="Rectangle 70" width="61.007" height="56.999" rx="10" transform="translate(177.437 266.752)" fill="url(#linear-gradient-6)"/>
      <rect id="Rectangle_71" data-name="Rectangle 71" width="52.932" height="49.11" transform="translate(181.475 270.695)" fill="#fff"/>
      <path id="Path_2253" data-name="Path 2253" d="M1164.862,1130.336v4.932H1111.93v-11.213l9.634-9.628a3.739,3.739,0,0,1,5.288,0l14.13,14.13,8.407-8.407a3.738,3.738,0,0,1,5.288,0Z" transform="translate(-930.455 -815.463)" fill="url(#linear-gradient-35)"/>
      <circle id="Ellipse_196" data-name="Ellipse 196" cx="4.064" cy="4.064" r="4.064" transform="translate(207.449 293.994)" fill="url(#linear-gradient-36)"/>
      <rect id="Rectangle_72" data-name="Rectangle 72" width="7.954" height="7.954" rx="3.92" transform="translate(166.47 255.786)" fill="url(#linear-gradient-37)"/>
      <rect id="Rectangle_73" data-name="Rectangle 73" width="7.954" height="7.954" rx="3.92" transform="translate(203.444 255.786)" fill="url(#linear-gradient-38)"/>
      <rect id="Rectangle_74" data-name="Rectangle 74" width="7.954" height="7.954" rx="3.92" transform="translate(240.42 255.786)" fill="url(#linear-gradient-38)"/>
      <rect id="Rectangle_75" data-name="Rectangle 75" width="7.954" height="7.954" rx="3.92" transform="translate(166.47 326.761)" fill="url(#linear-gradient-40)"/>
      <rect id="Rectangle_76" data-name="Rectangle 76" width="7.954" height="7.954" rx="3.92" transform="translate(203.444 326.761)" fill="url(#linear-gradient-41)"/>
      <rect id="Rectangle_77" data-name="Rectangle 77" width="7.954" height="7.954" rx="3.92" transform="translate(240.42 326.761)" fill="url(#linear-gradient-41)"/>
      <rect id="Rectangle_78" data-name="Rectangle 78" width="7.954" height="7.954" rx="3.92" transform="translate(166.47 291.272)" fill="url(#linear-gradient-40)"/>
      <rect id="Rectangle_79" data-name="Rectangle 79" width="7.954" height="7.954" rx="3.92" transform="translate(240.42 291.272)" fill="url(#linear-gradient-41)"/>
      <circle id="Ellipse_197" data-name="Ellipse 197" cx="30.065" cy="30.065" r="30.065" transform="translate(0 0)" fill="url(#linear-gradient-9)"/>
      <path id="Path_2254" data-name="Path 2254" d="M582.31,194.7h0A2.539,2.539,0,0,1,580,191.1l7.406-16.154a2.536,2.536,0,0,1,2.308-1.481h0a2.539,2.539,0,0,1,2.308,3.593l-7.406,16.154a2.539,2.539,0,0,1-2.308,1.484Z" transform="translate(-555.941 -154.022)" fill="#fff"/>
      <path id="Path_2255" data-name="Path 2255" d="M547.185,195.808l2.945,2.942A1.6,1.6,0,0,1,549,201.481h0a1.6,1.6,0,0,1-1.129-.468l-4.7-4.707a.717.717,0,0,1,0-1.016l4.7-4.7A1.6,1.6,0,0,1,549,190.12h0a1.6,1.6,0,0,1,1.129,2.731Z" transform="translate(-530.033 -165.74)" fill="#fff"/>
      <path id="Path_2256" data-name="Path 2256" d="M636.32,195.808l-2.945,2.942a1.6,1.6,0,0,0,1.132,2.731h0a1.6,1.6,0,0,0,1.129-.468l4.7-4.707a.717.717,0,0,0,0-1.016l-4.7-4.7a1.6,1.6,0,0,0-1.132-.468h0a1.6,1.6,0,0,0-1.132,2.731Z" transform="translate(-593.336 -165.74)" fill="#fff"/>
    </g>
  </g>
</svg>
