<svg id="Engagement" xmlns="http://www.w3.org/2000/svg" width="137.054" height="137.053" viewBox="0 0 137.054 137.053">
  <path id="Path_1876" data-name="Path 1876" d="M349.835,444.552h-4.43V431.29H341v17.682h8.835Z" transform="translate(-274.676 -342.869)" fill="#fff"/>
  <path id="Path_1877" data-name="Path 1877" d="M322.872,537.153a6.99,6.99,0,0,1-13.262,0l-.115-.343-4.195,1.4.113.34a11.412,11.412,0,0,0,21.654,0l.113-.34-4.195-1.4Z" transform="translate(-247.713 -422.564)" fill="#fff"/>
  <path id="Path_1878" data-name="Path 1878" d="M268.325,431.29H263.9a4.422,4.422,0,1,1-8.845,0h-4.42a8.842,8.842,0,0,0,17.685,0Z" transform="translate(-206.43 -342.869)" fill="#fff"/>
  <path id="Path_1879" data-name="Path 1879" d="M385.942,435.72a4.425,4.425,0,0,1-4.42-4.42H377.1a8.842,8.842,0,0,0,17.685,0h-4.422A4.422,4.422,0,0,1,385.942,435.72Z" transform="translate(-301.941 -342.876)" fill="#fff"/>
  <path id="Path_1880" data-name="Path 1880" d="M230.689,149.579v-6.632c0-5.384-9.209-8.152-17.685-9.545v-3.718a33.156,33.156,0,1,0-39.787,0v3.7c-8.473,1.4-17.682,4.161-17.682,9.545v6.632a13.264,13.264,0,1,0,0,26.528h.073a33.206,33.206,0,0,0,33.1,30.962h8.842a33.2,33.2,0,0,0,33.084-30.947h.076a13.262,13.262,0,1,0,0-26.525Zm-7.952-9.08c2.9,1.224,3.532,2.259,3.532,2.447,0,.384-1.547,2.323-8.686,4.107-1.424.357-2.961.675-4.579.959V137.881A46.4,46.4,0,0,1,222.738,140.5Zm-58.365-37.34a28.737,28.737,0,1,1,45.159,23.585l-.947.658v21.273q-2.144.267-4.42.458V111.605l-6-15.991a5.4,5.4,0,0,0-10.113,0l-6,15.991v37.528q-2.276-.191-4.422-.458V127.4l-.945-.658a28.784,28.784,0,0,1-12.318-23.585Zm24.743,2.2h7.991l1.657,4.422h-11.3Zm1.659-4.42,1.419-3.786a.979.979,0,0,1,1.833,0l1.419,3.786Zm-4.3,13.262h4.427v35.357c-1.493-.022-2.971-.069-4.42-.14Zm8.84,0h4.422v35.218c-1.449.069-2.937.115-4.422.14ZM163.481,140.5a46.34,46.34,0,0,1,9.733-2.619v10.135c-1.615-.284-3.152-.6-4.577-.959-7.139-1.784-8.686-3.722-8.686-4.107,0-.191.629-1.224,3.532-2.447ZM146.69,162.844A8.85,8.85,0,0,1,155.532,154v6.921l-3.2-2.129-2.447,3.671,5.649,3.764v5.45a8.852,8.852,0,0,1-8.842-8.842Zm50.842,39.79H188.69A28.769,28.769,0,0,1,159.952,173.9V148.6a32.974,32.974,0,0,0,7.611,2.748A110.208,110.208,0,0,0,193.11,154a110.2,110.2,0,0,0,25.546-2.655,32.734,32.734,0,0,0,7.614-2.751v25.3a28.769,28.769,0,0,1-28.737,28.737Zm33.157-30.947v-5.45l5.646-3.764-2.447-3.671-3.194,2.129V154a8.842,8.842,0,0,1,0,17.685Z" transform="translate(-124.583 -70)" fill="#fff"/>
  <path id="Path_1881" data-name="Path 1881" d="M76.632,173.585A6.632,6.632,0,1,0,70,166.952,6.632,6.632,0,0,0,76.632,173.585Zm0-8.842a2.2,2.2,0,1,1-2.2,2.2A2.2,2.2,0,0,1,76.632,164.742Z" transform="translate(-70 -138.215)" fill="#fff"/>
  <path id="Path_1882" data-name="Path 1882" d="M94.7,101.332h13.265a2.21,2.21,0,1,1,0,4.42h-6.632v4.42h6.632a6.632,6.632,0,1,0,0-13.264H94.7a2.211,2.211,0,1,1,0-4.422h28.737V88.07H94.7a6.632,6.632,0,1,0,0,13.264Z" transform="translate(-83.648 -83.648)" fill="#fff"/>
  <path id="Path_1883" data-name="Path 1883" d="M100.947,220.761a2.2,2.2,0,0,1-2.2,2.2H92.112v4.43h6.632a6.632,6.632,0,1,0,0-13.264H76.632a2.211,2.211,0,1,1,0-4.422H94.315a6.632,6.632,0,1,0,0-13.264h-6.63v4.42h6.63a2.211,2.211,0,1,1,0,4.422H76.632a6.632,6.632,0,1,0,0,13.264h22.1a2.2,2.2,0,0,1,2.2,2.2Z" transform="translate(-70 -165.499)" fill="#fff"/>
  <path id="Path_1884" data-name="Path 1884" d="M128.665,307.073a2.2,2.2,0,1,1-2.2-2.2,2.2,2.2,0,0,1,2.2,2.2" transform="translate(-110.98 -247.388)" fill="#fff"/>
  <path id="Path_1885" data-name="Path 1885" d="M575.8,166.952a6.632,6.632,0,1,0,6.632-6.632A6.632,6.632,0,0,0,575.8,166.952Zm8.842,0a2.2,2.2,0,1,1-2.2-2.2A2.2,2.2,0,0,1,584.642,166.952Z" transform="translate(-452.011 -138.215)" fill="#fff"/>
  <path id="Path_1886" data-name="Path 1886" d="M498.367,94.7a2.2,2.2,0,0,1-2.2,2.2h-13.27a6.632,6.632,0,0,0,0,13.265h6.63v-4.413h-6.63a2.211,2.211,0,0,1,0-4.422h13.262a6.632,6.632,0,1,0,0-13.264H467.42v4.42h28.737a2.2,2.2,0,0,1,2.2,2.2Z" transform="translate(-370.156 -83.644)" fill="#fff"/>
  <path id="Path_1887" data-name="Path 1887" d="M514.217,205.292H496.532a2.21,2.21,0,1,1,0-4.42h6.632V196.45h-6.632a6.632,6.632,0,0,0,0,13.265h17.685a2.21,2.21,0,1,1,0,4.42h-22.1a6.632,6.632,0,1,0,0,13.265h6.632v-4.422h-6.632a2.21,2.21,0,0,1,0-4.42h22.1a6.632,6.632,0,1,0,0-13.265Z" transform="translate(-383.796 -165.503)" fill="#fff"/>
  <path id="Path_1888" data-name="Path 1888" d="M562.205,307.073a2.2,2.2,0,1,1-2.2-2.2,2.2,2.2,0,0,1,2.2,2.2" transform="translate(-438.417 -247.388)" fill="#fff"/>
</svg>
