<svg xmlns="http://www.w3.org/2000/svg" xmlns:xlink="http://www.w3.org/1999/xlink" width="392.589" height="367.638" viewBox="0 0 392.589 367.638">
  <defs>
    <linearGradient id="linear-gradient" y1="0.5" x2="1" y2="0.5" gradientUnits="objectBoundingBox">
      <stop offset="0" stop-color="#1b89ca"/>
      <stop offset="1" stop-color="#2e3792"/>
    </linearGradient>
    <linearGradient id="linear-gradient-2" y1="0.5" x2="1" y2="0.5" gradientUnits="objectBoundingBox">
      <stop offset="0" stop-color="#ce2e82"/>
      <stop offset="1" stop-color="#601f5f"/>
    </linearGradient>
    <linearGradient id="linear-gradient-3" x1="0" y1="0.5" x2="1" y2="0.5" xlink:href="#linear-gradient"/>
    <linearGradient id="linear-gradient-4" x1="0" y1="0.5" x2="1" y2="0.5" xlink:href="#linear-gradient-2"/>
    <linearGradient id="linear-gradient-7" x1="0" y1="0.5" x2="1" y2="0.5" xlink:href="#linear-gradient-2"/>
    <linearGradient id="linear-gradient-8" x1="0" y1="0.5" x2="1" y2="0.5" xlink:href="#linear-gradient"/>
    <linearGradient id="linear-gradient-10" x1="0" y1="0.5" x2="1" y2="0.5" xlink:href="#linear-gradient"/>
    <linearGradient id="linear-gradient-12" x1="0" y1="0.5" x2="1" y2="0.5" xlink:href="#linear-gradient-2"/>
  </defs>
  <g id="Evolution" transform="translate(0)">
    <g id="Layer_4" data-name="Layer 4" transform="translate(0 10.316)">
      <path id="Path_985" data-name="Path 985" d="M1336.832,477.217V442.845H1323.57l24.616-23.005,24.359,23.005h-13.264v34.372Z" transform="translate(-979.957 -329.746)" fill="url(#linear-gradient)"/>
      <path id="Path_986" data-name="Path 986" d="M1125.385,971.025V921.488H1106.27l35.494-33.158,35.107,33.158h-19.112v49.537Z" transform="translate(-824.857 -664.136)" fill="url(#linear-gradient-2)"/>
      <path id="Path_987" data-name="Path 987" d="M131.88,915.648V892.981h-8.75l16.25-15.171,16.072,15.171H146.7v22.667Z" transform="translate(-123.13 -656.627)" fill="url(#linear-gradient-3)"/>
      <path id="Path_988" data-name="Path 988" d="M154.489,169.806V131.038H139.53l27.78-25.948,27.479,25.948H179.824v38.768Z" transform="translate(-134.836 -105.09)" fill="url(#linear-gradient-4)"/>
    </g>
    <g id="LEFT_ARM" data-name="LEFT ARM" transform="translate(159.557 143.924)">
      <path id="Path_989" data-name="Path 989" d="M751.142,609.5a60.058,60.058,0,0,1-2.216,9.555s-3.452,1.56-8.873,3.664c-11.284,4.379-31.114,11.12-46.168,11.12-22.287,0-14.813-35.577,8.971-33.49l24.01-.859,11.221-26.231,11.75-1.4S753.93,591.264,751.142,609.5Z" transform="translate(-680.553 -571.86)" fill="url(#linear-gradient-2)"/>
      <path id="Path_990" data-name="Path 990" d="M859.94,681.887a.765.765,0,0,1-.481-.169l-11.982-9.4a.779.779,0,1,1,.962-1.225l11.982,9.4a.779.779,0,0,1-.481,1.391Z" transform="translate(-799.484 -642.572)" fill="#262424"/>
      <path id="Path_991" data-name="Path 991" d="M899.476,703.37a60.069,60.069,0,0,1-2.216,9.555s-3.452,1.56-8.873,3.664a13.285,13.285,0,0,1,11.089-13.219Z" transform="translate(-828.887 -665.727)" fill="#fff"/>
    </g>
    <g id="MAGNET" transform="translate(69.232 121.652)">
      <path id="Path_992" data-name="Path 992" d="M367.72,515.22s5.307-12.964,6.443-14.252,7.949-4.7,11.069-4.1,2.35,6.824,2.29,8.493-3.641,3.486-3.641,3.486,4.171-1.214,4.474.3-8.038,4.7-8.038,4.7,4.4-.455,4.866.532-6.217,4.319-8.8,4.866S367.72,515.22,367.72,515.22Z" transform="translate(-366.941 -496.013)" fill="#fff"/>
      <path id="Path_993" data-name="Path 993" d="M374,518.081c-2.98,0-8.081-3.755-8.687-4.213a.776.776,0,0,1-.255-.916c.9-2.184,5.416-13.167,6.584-14.472,1.325-1.5,8.387-5.009,11.8-4.345,3.481.681,3.1,6.3,2.94,8.7-.017.232-.029.432-.037.59a3.492,3.492,0,0,1-1.271,2.227,2.96,2.96,0,0,1,1.357.349,1.523,1.523,0,0,1,.733,1.028c.186.925-.478,1.918-4.328,3.773l-.661.321a2.213,2.213,0,0,1,1.743.976,1.091,1.091,0,0,1-.043.976c-.819,1.623-7.042,4.5-9.3,4.963A2.9,2.9,0,0,1,374,518.081Zm-7.282-5.092c2.31,1.657,6.011,3.839,7.534,3.524a26.349,26.349,0,0,0,7.932-3.813,14.507,14.507,0,0,0-3.753-.031.779.779,0,0,1-.358-1.5c3.641-1.385,6.964-3.1,7.505-3.861a7.2,7.2,0,0,0-3.435.332.779.779,0,0,1-.572-1.431c1.322-.678,3.177-2.038,3.214-2.831,0-.166.023-.378.037-.621.123-1.82.449-6.655-1.683-7.07-2.708-.527-9.291,2.659-10.336,3.844C372.066,500.354,368.786,507.991,366.716,512.988Z" transform="translate(-364.998 -494.051)" fill="#262424"/>
    </g>
    <g id="Layer_12" data-name="Layer 12" transform="translate(68.242)">
      <path id="Path_994" data-name="Path 994" d="M361.54,178.448,496.233,121.02,474.075,69.05l131.3,58.075L555.922,261.014l-22.158-51.97L399.072,266.475Z" transform="translate(-361.54 -69.05)" fill="url(#linear-gradient-3)"/>
    </g>
    <g id="BODY" transform="translate(74.958 153.661)">
      <path id="Path_995" data-name="Path 995" d="M425.849,668.619s28.029-3.638,66.053-.444c0,0,8.4,8.974-1.924,35.594s-22.985,67.839-22.985,67.839H385S395.906,713.055,425.849,668.619Z" transform="translate(-385 -649.406)" fill="url(#linear-gradient-7)"/>
      <path id="Path_996" data-name="Path 996" d="M756.6,704.916a.776.776,0,0,1-.739-1.016c5.126-15.923,2.928-24.222,1.145-27.765a.779.779,0,0,1,1.391-.7c1.875,3.741,4.228,12.477-1.071,28.927a.778.778,0,0,1-.727.549Z" transform="translate(-649.681 -655.244)" fill="#262424"/>
      <path id="Path_997" data-name="Path 997" d="M479.748,1008.935h0l-71.56-1.068a.779.779,0,0,1,0-1.557h.014l71.56,1.068a.779.779,0,1,1,0,1.557Z" transform="translate(-400.995 -891.69)" fill="#262424"/>
      <path id="Path_998" data-name="Path 998" d="M630.216,679.375c.716.372,1.385.69,1.958,1a63.16,63.16,0,0,1,5.018-8.782,23.806,23.806,0,0,1,1.68,10,4.055,4.055,0,0,0,.421-.037,10.948,10.948,0,0,0,8.934-15.016c-1.717-3.933-4.975-6.818-8.415-7.345a13.175,13.175,0,0,0-12.134,4.5A9.949,9.949,0,0,0,630.216,679.375Z" transform="translate(-556.246 -643.806)" fill="#fff"/>
      <path id="Path_999" data-name="Path 999" d="M636.956,680.426a.776.776,0,0,1-.776-.833,23.852,23.852,0,0,0-1.091-8.247,56.589,56.589,0,0,0-4.119,7.4.776.776,0,0,1-1.073.369c-.321-.172-.673-.346-1.048-.535-.286-.143-.59-.286-.9-.455a10.5,10.5,0,0,1-5.553-7.557,10.926,10.926,0,0,1,2.8-9.349,13.989,13.989,0,0,1,12.824-4.743c3.661.572,7.2,3.627,9.011,7.806a11.318,11.318,0,0,1-.676,10.273,11.675,11.675,0,0,1-8.873,5.825l-.446.04Zm-1.68-11.553h.075a.773.773,0,0,1,.638.464,24.524,24.524,0,0,1,1.778,9.432A10.135,10.135,0,0,0,645,673.774a9.772,9.772,0,0,0,.6-8.873c-1.609-3.7-4.677-6.406-7.82-6.89-4.371-.67-8.221.764-11.45,4.259a9.386,9.386,0,0,0-2.41,8.015,8.951,8.951,0,0,0,4.734,6.443h0c.3.157.6.3.882.447l.346.175a66.55,66.55,0,0,1,4.749-8.155.779.779,0,0,1,.647-.321Z" transform="translate(-554.33 -641.866)" fill="#262424"/>
      <path id="Path_1000" data-name="Path 1000" d="M661.444,608.6l-2.862,6.813L653,627.913c2.648,4.457,6.95,5.6,11.816,4.514l1.889-5.59,2.862-8.464Z" transform="translate(-576.288 -607.82)" fill="#fff"/>
      <path id="Path_1001" data-name="Path 1001" d="M659.616,631.645a10.172,10.172,0,0,1-9.2-5.281.775.775,0,0,1-.043-.713l5.57-12.5,2.862-6.8a.778.778,0,0,1,1.317-.195l8.129,9.772a.782.782,0,0,1,.137.747l-4.746,14.054a.772.772,0,0,1-.572.51A15.819,15.819,0,0,1,659.616,631.645Zm-7.654-5.725c2.241,3.5,5.725,4.815,10.348,3.9l4.462-13.221-7.03-8.453-2.367,5.619Z" transform="translate(-574.365 -605.876)" fill="#262424"/>
    </g>
    <g id="LEFT_FEET" data-name="LEFT FEET" transform="translate(106.931 244.112)">
      <path id="Path_1002" data-name="Path 1002" d="M595.26,1106.71l.988,22.859h8.982l1.743-22.859Z" transform="translate(-531.804 -1034.038)" fill="#fff"/>
      <path id="Path_1003" data-name="Path 1003" d="M726.424,1197.456h-8.982a.778.778,0,0,1-.779-.747l-.985-22.856a.779.779,0,0,1,.776-.813H728.17a.787.787,0,0,1,.572.249.8.8,0,0,1,.195.6l-1.746,22.856A.776.776,0,0,1,726.424,1197.456Zm-8.238-1.557H725.7l1.626-21.3H717.267Z" transform="translate(-652.997 -1101.146)" fill="#262424"/>
      <path id="Path_1004" data-name="Path 1004" d="M698.331,1311.1c-.286,3.249-.4,5.381-.4,5.381h44.3c3.031-16.147-11.736-13.571-11.736-13.571a14.629,14.629,0,0,0-3.944,8.189Z" transform="translate(-640.33 -1193.738)" fill="#fff"/>
      <path id="Path_1005" data-name="Path 1005" d="M740.288,1315.313h-44.3a.779.779,0,0,1-.776-.824c0-.02.129-2.178.4-5.4a.776.776,0,0,1,.773-.713h27.525a15.455,15.455,0,0,1,4.062-7.954.762.762,0,0,1,.424-.221c.269-.049,6.618-1.1,10.411,2.739,2.476,2.508,3.232,6.458,2.238,11.736A.776.776,0,0,1,740.288,1315.313Zm-43.466-1.552h42.813c.721-4.422.074-7.688-1.924-9.732-2.837-2.88-7.665-2.479-8.8-2.339a13.989,13.989,0,0,0-3.544,7.522.781.781,0,0,1-.776.713H697.114C696.971,1311.623,696.871,1312.96,696.822,1313.761Z" transform="translate(-638.392 -1191.787)" fill="#262424"/>
      <path id="Path_1006" data-name="Path 1006" d="M717.124,1245h-14.1c-2,7.379-3.149,18.365-3.721,24.869h28.2a14.63,14.63,0,0,1,3.944-8.189C722.279,1255.09,717.124,1245,717.124,1245Z" transform="translate(-641.308 -1152.509)" fill="url(#linear-gradient-8)"/>
      <path id="Path_1007" data-name="Path 1007" d="M750.751,1267.4a.771.771,0,0,1-.4-.109c-9.641-5.725-15.9-18.385-16.164-18.92a.779.779,0,1,1,1.4-.684c.063.126,6.326,12.769,15.563,18.268a.776.776,0,0,1-.4,1.431Z" transform="translate(-666.142 -1154.092)" fill="#262424"/>
      <ellipse id="Ellipse_67" data-name="Ellipse 67" cx="3.441" cy="5.971" rx="3.441" ry="5.971" transform="translate(62.148 100.592)" fill="#fff"/>
      <path id="Path_1008" data-name="Path 1008" d="M715.326,1284.076c-2.364,0-4.216-2.963-4.216-6.747s1.852-6.75,4.216-6.75,4.219,2.963,4.219,6.75S717.693,1284.076,715.326,1284.076Zm0-11.939c-1.259,0-2.662,2.13-2.662,5.192s1.4,5.19,2.662,5.19,2.662-2.133,2.662-5.19-1.4-5.2-2.662-5.2Z" transform="translate(-649.737 -1170.766)" fill="#262424"/>
      <path id="Path_1009" data-name="Path 1009" d="M587.449,943.853c-.043.541-.089,1.1-.132,1.672-1.583,19.564-5.553,57.1-5.553,57.1h-24.11L555.608,968.5,496.7,1001.939l10.995-48.32s55.648-32.2,62.017-31.741c.432.031.893.086,1.371.16s1.01.177,1.543.286c6.461,1.483,15.091,6.2,15.32,12.277C587.993,935.973,587.81,939.324,587.449,943.853Z" transform="translate(-496.7 -921.873)" fill="url(#linear-gradient-3)"/>
      <path id="Path_1010" data-name="Path 1010" d="M774.987,945.014c-5.69,1.094-11.971-3.4-14.487-10.637a17.367,17.367,0,0,1-.338-10.877c6.46,1.483,15.091,6.2,15.32,12.277C775.531,937.134,775.348,940.485,774.987,945.014Z" transform="translate(-684.237 -923.034)" fill="#fff"/>
      <path id="Path_1011" data-name="Path 1011" d="M599.711,1057.1a.779.779,0,0,1-.776-.736l-2.513-44.313-52.931,25.418a.779.779,0,1,1-.673-1.4L596.8,1010.15a.779.779,0,0,1,1.113.655l2.576,45.484a.781.781,0,0,1-.733.821Z" transform="translate(-529.279 -984.827)" fill="#262424"/>
      <path id="Path_1012" data-name="Path 1012" d="M737.866,1184.527H719.9a.779.779,0,1,1,0-1.557h17.967a.779.779,0,1,1,0,1.557Z" transform="translate(-655.455 -1108.234)" fill="#262424"/>
      <path id="Path_1013" data-name="Path 1013" d="M705.062,1012.524a.76.76,0,0,1-.332-.077.776.776,0,0,1-.369-1.036l10.551-22.138a.779.779,0,1,1,1.406.67l-10.551,22.138A.779.779,0,0,1,705.062,1012.524Z" transform="translate(-644.866 -969.664)" fill="#262424"/>
    </g>
    <g id="RIGHT_FEET" data-name="RIGHT FEET" transform="translate(47.477 275.858)">
      <path id="Path_1014" data-name="Path 1014" d="M318.693,1244.667c-3.721.138-26.157.8-26.906-2.465s3.475-35.081,10.617-35.52a10.679,10.679,0,0,1,3.547.344,8.825,8.825,0,0,1,5.536,4.488l-.667,17.8C320.51,1229.842,322.414,1244.538,318.693,1244.667Z" transform="translate(-290.926 -1156.886)" fill="url(#linear-gradient-10)"/>
      <path id="Path_1015" data-name="Path 1015" d="M318.693,1244.667c-3.721.138-26.157.8-26.906-2.465s3.475-35.081,10.617-35.52a10.679,10.679,0,0,1,3.547.344c-9.944,7.016-8.627,30.476-8.627,30.476,3.641-7.505,13.5-8.189,13.5-8.189C320.51,1229.842,322.414,1244.538,318.693,1244.667Z" transform="translate(-290.926 -1156.886)" fill="#fff"/>
      <path id="Path_1016" data-name="Path 1016" d="M308.461,1243.652c-2,0-4.159-.029-6.283-.106-10.977-.4-12.772-1.795-13.075-3.106-.739-3.183,2.4-26.883,7.791-34.123,1.108-1.486,2.29-2.29,3.532-2.35a11.425,11.425,0,0,1,3.807.369.784.784,0,0,1,.555.618.773.773,0,0,1-.318.767c-7.56,5.335-8.347,20.979-8.35,27.193,4.4-5.682,12.34-6.3,12.715-6.326h.1c7.156.389,10.436,7.817,10.393,12.712-.023,2.576-.965,4.136-2.522,4.193h0C315.9,1243.537,312.535,1243.652,308.461,1243.652Zm-7.23-38.153c-.232,0-.469,0-.707.02a3.618,3.618,0,0,0-2.381,1.717c-5.278,7.082-8.095,30.387-7.525,32.84.017.06.572,1.506,11.69,1.906,6.4.229,13.15,0,14.438-.046h0c.59-.023,1.013-1.114,1.025-2.651.031-3.721-2.539-10.76-8.873-11.143-.7.063-9.529.993-12.8,7.746a.779.779,0,0,1-1.477-.286c-.052-.93-1.116-21.891,7.614-30.055a10.014,10.014,0,0,0-1.013-.049Z" transform="translate(-288.996 -1154.946)" fill="#262424"/>
      <path id="Path_1017" data-name="Path 1017" d="M395.679,1032.78c-2.794,9.211-8.536,27.883-13.885,43.769-4.9,14.558-11.026,29.065-17.893,37.248-3.541,4.222-7.276,6.764-11.146,6.764a18.631,18.631,0,0,1-9.9-3.166,37.421,37.421,0,0,1-10-9.8c-5.232-14.326,4.889-20.7,4.889-20.7l3.638.91,9.334-55.03Z" transform="translate(-319.229 -1032.78)" fill="url(#linear-gradient-3)"/>
      <path id="Path_1018" data-name="Path 1018" d="M330.707,1240.709a.779.779,0,0,1-.736-.529c-2.522-7.442-.925-12.732.859-15.863a15.22,15.22,0,0,1,4.58-5.1.779.779,0,1,1,.83,1.317c-.378.24-9.231,6.045-4.794,19.144a.776.776,0,0,1-.49.984A.759.759,0,0,1,330.707,1240.709Z" transform="translate(-317.31 -1165.76)" fill="#262424"/>
      <path id="Path_1019" data-name="Path 1019" d="M506.935,1080.561a.747.747,0,0,1-.246-.04.778.778,0,0,1-.489-.985c4.886-14.581,10.081-31.406,12.746-40.136a.779.779,0,0,1,1.489.455c-2.665,8.739-7.866,25.576-12.761,40.177a.778.778,0,0,1-.739.529Z" transform="translate(-443.998 -1037.128)" fill="#262424"/>
      <path id="Path_1020" data-name="Path 1020" d="M392.57,1303.735c-3.541,4.222-7.276,6.764-11.146,6.764a18.631,18.631,0,0,1-9.9-3.166c.787-3.922,4.417-7.319,9.268-8.218C385.775,1298.188,390.506,1300.18,392.57,1303.735Z" transform="translate(-347.898 -1222.717)" fill="#fff"/>
      <path id="Path_1021" data-name="Path 1021" d="M345.743,1249.3a.776.776,0,0,1-.756-.6c-2.447-10.187,2.533-17.02,2.748-17.306a.779.779,0,0,1,1.248.93,20.462,20.462,0,0,0-2.485,16.013.785.785,0,0,1-.756.962Z" transform="translate(-328.479 -1174.336)" fill="#262424"/>
      <path id="Path_1022" data-name="Path 1022" d="M359.586,1101.606a.82.82,0,0,1-.272-.049l-5.058-1.878a.777.777,0,1,1,.541-1.457l4.191,1.554,11.948-65.489a.778.778,0,0,1,1.529.286l-12.114,66.407a.775.775,0,0,1-.764.638Z" transform="translate(-335.214 -1033.403)" fill="#262424"/>
      <path id="Path_1023" data-name="Path 1023" d="M408.148,1045.146A.779.779,0,0,1,408,1043.6l3.172-.618a5.656,5.656,0,0,0,4.457-4.382l.927-4.382a.779.779,0,1,1,1.523.321l-.93,4.382a7.208,7.208,0,0,1-5.679,5.59l-3.169.618a.959.959,0,0,1-.152.014Z" transform="translate(-373.486 -1033.348)" fill="#262424"/>
    </g>
    <g id="HEAD" transform="translate(147.87 134.939)">
      <path id="Path_1024" data-name="Path 1024" d="M694.653,588.911c-.767,6.87-2.842,15.042-11.063,13.677-9.775-1.623-16.029-8.61-16.029-17.924s4.359-14.524,15.5-13.339a16.944,16.944,0,0,1,2.8.532c6.4,1.8,9.575,7.156,9.108,13.387C694.9,586.369,694.8,587.617,694.653,588.911Z" transform="translate(-659.593 -562.374)" fill="#fff"/>
      <path id="Path_1025" data-name="Path 1025" d="M698.529,603.312a11.155,11.155,0,0,1-1.861-.16,21.285,21.285,0,0,1-10.3-4.566.779.779,0,1,1,1-1.191,19.816,19.816,0,0,0,9.569,4.222,6.934,6.934,0,0,0,5.556-1.111c3.212-2.43,4.168-7.949,4.606-11.885.149-1.285.243-2.5.329-3.638.458-6.154-2.814-10.974-8.541-12.594a.779.779,0,0,1,.421-1.5c6.483,1.82,10.19,7.259,9.672,14.195-.083,1.1-.183,2.387-.332,3.7-.472,4.219-1.526,10.159-5.215,12.949A7.9,7.9,0,0,1,698.529,603.312Z" transform="translate(-672.801 -562.17)" fill="#262424"/>
      <path id="Path_1026" data-name="Path 1026" d="M651.108,564.48a28.46,28.46,0,0,0,3.126,3.858l4.935.361,1.088-3.484s3.149-.106,3.807-2.216c0,0,.017-.046.043-.146a26.888,26.888,0,0,0,.429-8.587s7.494,3.4,11.59,3.879A9.332,9.332,0,0,0,680.937,557c3.226-1.551,6.086-6.749,5.562-10.3v-.069c-.827-5.19-3.564-1.629-3.564-1.629s-.73-4.179-3.338-4.508S675.281,544,675.281,544a41.117,41.117,0,0,0-15.3-.8c-10.116,1.431-7.677,8.418-7.677,8.418S644.845,553.943,651.108,564.48Z" transform="translate(-646.063 -540.47)" fill="#262424"/>
      <path id="Path_1027" data-name="Path 1027" d="M653.707,617.065a7.172,7.172,0,0,0-6.117-8.015,6.477,6.477,0,0,0-2.464.149c-4.832,1.251-3.687,12.486,8.118,11.756Z" transform="translate(-641.67 -589.38)" fill="#fff"/>
      <path id="Path_1028" data-name="Path 1028" d="M650.239,619.813c-6.386,0-9.83-3.587-10.422-7.322-.458-2.882.876-5.4,3.172-6a7.24,7.24,0,0,1,2.757-.169,7.947,7.947,0,0,1,6.792,8.873.779.779,0,1,1-1.546-.183,6.394,6.394,0,0,0-5.438-7.156,5.813,5.813,0,0,0-2.173.132c-1.5.389-2.353,2.175-2.024,4.248.478,3.011,3.355,6.383,9.9,5.977a.779.779,0,0,1,.094,1.554Q650.78,619.813,650.239,619.813Z" transform="translate(-639.727 -587.431)" fill="#262424"/>
    </g>
    <g id="RIGHT_ARM" data-name="RIGHT ARM" transform="translate(64.924 138.959)">
      <path id="Path_1029" data-name="Path 1029" d="M386.724,621.388a165.264,165.264,0,0,1-25.819-12.5c-5.708-3.435-9.36-6.011-9.36-6.011-.515-3.332-.884-6.7-1.145-10.018a192.956,192.956,0,0,1,.985-36.393,11.869,11.869,0,0,1,14.859,1.517c.3,7.442,5.152,25.321,5.152,25.321l29.434,5.124C425.7,593.219,409.62,630.03,386.724,621.388Z" transform="translate(-349.947 -554.516)" fill="url(#linear-gradient-12)"/>
      <circle id="Ellipse_68" data-name="Ellipse 68" cx="1.062" cy="1.062" r="1.062" transform="translate(3.456 1.899)" fill="#fff"/>
      <path id="Path_1030" data-name="Path 1030" d="M361.141,562.1a1.841,1.841,0,1,1,1.841-1.838A1.84,1.84,0,0,1,361.141,562.1Zm0-2.121a.286.286,0,1,0,.286.286A.286.286,0,0,0,361.141,559.98Z" transform="translate(-356.623 -557.302)" fill="#262424"/>
      <path id="Path_1031" data-name="Path 1031" d="M369.076,574.45a.8.8,0,0,1-.363-.091c-7.394-3.91-12.122-.65-12.308-.51a.781.781,0,0,1-1.085-.18.77.77,0,0,1,.175-1.082c.226-.166,5.67-3.987,13.957.395a.779.779,0,0,1-.364,1.468Z" transform="translate(-353.675 -566.2)" fill="#262424"/>
      <path id="Path_1032" data-name="Path 1032" d="M483.395,709.187a20.238,20.238,0,0,1-7.182-1.365.779.779,0,0,1,.55-1.457c11.026,4.162,20.692-2.834,24.19-11.53,2.728-6.784,1.783-15.208-6.472-18.734a.779.779,0,1,1,.61-1.431c9.225,3.941,10.3,13.259,7.3,20.747a22.9,22.9,0,0,1-9.91,11.387,18.749,18.749,0,0,1-9.091,2.384Z" transform="translate(-439.711 -640.222)" fill="#262424"/>
      <path id="Path_1033" data-name="Path 1033" d="M386.7,669.021a.781.781,0,0,1-.572-1.308l9.251-10.019a.779.779,0,0,1,1.145,1.056l-9.248,10.018A.781.781,0,0,1,386.7,669.021Z" transform="translate(-375.628 -627.982)" fill="#262424"/>
      <path id="Path_1034" data-name="Path 1034" d="M362.814,700.176a12.053,12.053,0,0,1-.8,4.334c-5.708-3.435-9.36-6.011-9.36-6.011-.515-3.332-.884-6.7-1.145-10.018h.074A11.483,11.483,0,0,1,362.814,700.176Z" transform="translate(-351.062 -650.134)" fill="#fff"/>
    </g>
  </g>
</svg>
