<svg xmlns="http://www.w3.org/2000/svg" xmlns:xlink="http://www.w3.org/1999/xlink" width="292.046" height="392" viewBox="0 0 292.046 392">
  <defs>
    <linearGradient id="linear-gradient" y1="0.5" x2="1" y2="0.5" gradientUnits="objectBoundingBox">
      <stop offset="0" stop-color="#1b89ca"/>
      <stop offset="1" stop-color="#2e3792"/>
    </linearGradient>
    <linearGradient id="linear-gradient-2" y1="0.5" x2="1" y2="0.5" gradientUnits="objectBoundingBox">
      <stop offset="0" stop-color="#ce2e82"/>
      <stop offset="1" stop-color="#601f5f"/>
    </linearGradient>
    <linearGradient id="linear-gradient-3" x2="1" xlink:href="#linear-gradient"/>
    <linearGradient id="linear-gradient-4" x2="1" xlink:href="#linear-gradient"/>
    <linearGradient id="linear-gradient-5" x2="1" xlink:href="#linear-gradient"/>
    <linearGradient id="linear-gradient-6" x2="1" xlink:href="#linear-gradient"/>
    <linearGradient id="linear-gradient-7" x2="1" xlink:href="#linear-gradient"/>
    <linearGradient id="linear-gradient-9" x1="0" y1="0.5" x2="1" y2="0.5" xlink:href="#linear-gradient-2"/>
    <linearGradient id="linear-gradient-10" x1="0" y1="0.5" x2="1" y2="0.5" xlink:href="#linear-gradient-2"/>
    <linearGradient id="linear-gradient-11" x1="0" y1="0.495" x2="1" y2="0.495" xlink:href="#linear-gradient-2"/>
    <linearGradient id="linear-gradient-12" x1="0" y1="0.5" x2="1.001" y2="0.5" xlink:href="#linear-gradient-2"/>
    <linearGradient id="linear-gradient-13" x1="0" y1="0.495" x2="1" y2="0.495" xlink:href="#linear-gradient-2"/>
    <linearGradient id="linear-gradient-16" x1="0.001" y1="0.5" x2="1.001" y2="0.5" xlink:href="#linear-gradient-2"/>
    <linearGradient id="linear-gradient-24" x1="0" y1="0.5" x2="1" y2="0.5" xlink:href="#linear-gradient-2"/>
    <linearGradient id="linear-gradient-25" x1="0" y1="0.5" x2="1" y2="0.5" xlink:href="#linear-gradient-2"/>
  </defs>
  <g id="Experience" transform="translate(0.006 -0.143)">
    <g id="CODING" transform="translate(219.871 11.151)">
      <circle id="Ellipse_95" data-name="Ellipse 95" cx="36.084" cy="36.084" r="36.084" fill="url(#linear-gradient)"/>
      <path id="Path_1235" data-name="Path 1235" d="M746.081,392.838h0a3.049,3.049,0,0,1-2.769-4.307l8.881-19.382a3.054,3.054,0,0,1,2.769-1.779h0a3.045,3.045,0,0,1,2.769,4.307l-8.881,19.382a3.041,3.041,0,0,1-2.769,1.779Z" transform="translate(-714.441 -344.013)" fill="#fff"/>
      <path id="Path_1236" data-name="Path 1236" d="M717.716,387.924l3.536,3.532a1.921,1.921,0,0,1-1.357,3.278h0a1.9,1.9,0,0,1-1.357-.564l-5.642-5.638a.862.862,0,0,1,0-1.219l5.642-5.642a1.916,1.916,0,0,1,1.357-.56h0a1.921,1.921,0,0,1,1.357,3.278Z" transform="translate(-697.137 -351.835)" fill="#fff"/>
      <path id="Path_1237" data-name="Path 1237" d="M790.99,387.924l-3.532,3.532a1.921,1.921,0,0,0,1.357,3.278h0a1.917,1.917,0,0,0,1.357-.564l5.642-5.638a.861.861,0,0,0,0-1.219l-5.642-5.642a1.93,1.93,0,0,0-1.357-.56h0a1.921,1.921,0,0,0-1.357,3.278Z" transform="translate(-739.409 -351.835)" fill="#fff"/>
    </g>
    <g id="LEFT_ARM" data-name="LEFT ARM" transform="translate(126.581 71.814)">
      <path id="Path_1238" data-name="Path 1238" d="M658.69,495.4c0-.168,2.515-11.823,3.958-18.494a5.789,5.789,0,0,1,5.651-4.57h11.8l5.543-14.562a2.356,2.356,0,0,1,2.2-1.516h0a2.356,2.356,0,0,1,2.317,2.8l-3.394,17.831,1.434,1.434a5.788,5.788,0,0,1,1.426,5.845l-1.137,3.605a14.489,14.489,0,0,1-6.684,8.239l-10.01,5.664Z" transform="translate(-573.13 -455.281)" fill="#fff"/>
      <path id="Path_1239" data-name="Path 1239" d="M670.352,501.457a1.1,1.1,0,0,1-.478-.086l-13.1-6.275a1.081,1.081,0,0,1-.612-.969c0-.172,0-.31,3.98-18.723a6.891,6.891,0,0,1,6.719-5.435h11.056l5.276-13.869a3.446,3.446,0,0,1,6.581,1.865l-3.282,17.271,1.029,1.029a6.852,6.852,0,0,1,1.693,6.934l-1.141,3.6a15.505,15.505,0,0,1-7.18,8.855l-10.018,5.664A1.06,1.06,0,0,1,670.352,501.457ZM658.469,493.5,670.3,499.17l9.531-5.392a13.352,13.352,0,0,0,6.185-7.628l1.141-3.6A4.7,4.7,0,0,0,686,477.811l-1.43-1.434a1.06,1.06,0,0,1-.3-.961l3.39-17.836a1.266,1.266,0,0,0-.271-1.055,1.292,1.292,0,0,0-2.179.362l-5.543,14.562a1.077,1.077,0,0,1-1.008.693h-11.8a4.738,4.738,0,0,0-4.609,3.717C660.239,485.189,658.9,491.4,658.469,493.5Z" transform="translate(-571.69 -453.988)" fill="#262424"/>
      <path id="Path_1240" data-name="Path 1240" d="M560.975,552.53l-18.688,34.909-3.928,7.348a20.545,20.545,0,0,1-7.481,7.878l-5.793,3.5-47.179,28.482s-36.89-24.218-4.652-43.5l39.483-13.658L543.8,541.478S553.679,539.118,560.975,552.53Z" transform="translate(-460.04 -503.705)" fill="url(#linear-gradient-2)"/>
      <path id="Path_1241" data-name="Path 1241" d="M659.863,567.821a1.067,1.067,0,0,1-.861-.431,20.939,20.939,0,0,0-11.577-7.511,1.077,1.077,0,1,1,.4-2.115A22.872,22.872,0,0,1,660.75,566.1a1.073,1.073,0,0,1-.862,1.723Z" transform="translate(-566.219 -513.056)" fill="#262424"/>
      <circle id="Ellipse_96" data-name="Ellipse 96" cx="1.796" cy="1.796" r="1.796" transform="translate(93.286 45.763)" fill="#fff"/>
      <path id="Path_1242" data-name="Path 1242" d="M677,563.486a2.873,2.873,0,1,1,2.873-2.873A2.873,2.873,0,0,1,677,563.486Zm0-3.588a.719.719,0,1,0,.719.715A.719.719,0,0,0,677,559.9Z" transform="translate(-581.92 -513.054)" fill="#262424"/>
      <path id="Path_1243" data-name="Path 1243" d="M623.732,645.574l-3.928,7.348a20.545,20.545,0,0,1-7.481,7.878l-5.793,3.5a9.913,9.913,0,0,1-1.744-2.007c-3.446-5.207-1.43-12.6,4.484-16.5C614.037,642.654,619.856,642.723,623.732,645.574Z" transform="translate(-541.485 -561.84)" fill="#fff"/>
    </g>
    <g id="HIP" transform="translate(4.021 304.564)">
      <path id="Path_1244" data-name="Path 1244" d="M90.343,709.883,76.5,759.078H199.333L187.548,708.41Z" transform="translate(-47.575 -707.777)" fill="url(#linear-gradient-3)"/>
      <path id="Path_1245" data-name="Path 1245" d="M175.981,1050.479h0a20.062,20.062,0,0,0,15.135,23.99l74.706,16.927h68.34l39.625-20.777a18.977,18.977,0,0,0,7.542-26.432h0a18.95,18.95,0,0,0-16.367-9.346H195.553a20.063,20.063,0,0,0-19.572,15.641Z" transform="translate(-175.483 -1017.414)" fill="url(#linear-gradient-4)"/>
      <path id="Path_1246" data-name="Path 1246" d="M423.984,1028.294a1.077,1.077,0,0,1-.762-1.839l1-1a9.264,9.264,0,0,0,2.735-6.6v-17.926a1.077,1.077,0,0,1,2.154,0v17.939a11.414,11.414,0,0,1-3.364,8.128l-1,1a1.073,1.073,0,0,1-.762.3Z" transform="translate(-316.34 -997.494)" fill="#262424"/>
      <path id="Path_1247" data-name="Path 1247" d="M422.447,1041.012a1.077,1.077,0,0,1-1.077-1.077V995.457a1.077,1.077,0,0,1,2.153,0v44.479A1.077,1.077,0,0,1,422.447,1041.012Z" transform="translate(-315.466 -994.38)" fill="#262424"/>
    </g>
    <g id="LEFT_FEET" data-name="LEFT FEET" transform="translate(20.709 320.956)">
      <path id="Path_1248" data-name="Path 1248" d="M216.75,1123.971a36.48,36.48,0,0,0,7.8,22.59h35.5l6.254-2.61,20.243-8.438-8.954-15.906-40.839-9.045a34.028,34.028,0,0,0-17.775.806A34.762,34.762,0,0,0,216.75,1123.971Z" transform="translate(-215.665 -1076.451)" fill="url(#linear-gradient-5)"/>
      <path id="Path_1249" data-name="Path 1249" d="M313.411,1138.158s-21.354-1.253-32.1-2.584a26.881,26.881,0,0,0-3.536-9.794c18.115,3.532,34.685,5.375,34.685,5.375Z" transform="translate(-250.403 -1085.578)" fill="#fff"/>
      <path id="Path_1250" data-name="Path 1250" d="M311.988,1137.8h-.06c-.215,0-21.514-1.292-32.178-2.584a1.077,1.077,0,0,1-.93-.891,25.683,25.683,0,0,0-3.39-9.411,1.077,1.077,0,0,1,1.124-1.62c17.861,3.484,34.431,5.345,34.6,5.362a1.081,1.081,0,0,1,.948.926l.956,6.995a1.072,1.072,0,0,1-1.068,1.223Zm-31.187-4.626c9.226,1.081,25.274,2.106,29.943,2.395l-.663-4.867c-3.424-.4-16.884-2.063-31.678-4.858a28.332,28.332,0,0,1,2.4,7.339Z" transform="translate(-248.981 -1084.151)" fill="#262424"/>
      <ellipse id="Ellipse_97" data-name="Ellipse 97" cx="5.78" cy="3.424" rx="5.78" ry="3.424" transform="translate(45.219 58.591) rotate(-26.84)" fill="#fff"/>
      <path id="Path_1251" data-name="Path 1251" d="M216.75,1123.961a36.481,36.481,0,0,0,7.8,22.59h35.5l6.254-2.61-29.085-1.663s16.147-19.9-5.634-32.255l-.431-.245a34.145,34.145,0,0,0-12.185,1.572A34.956,34.956,0,0,0,216.75,1123.961Z" transform="translate(-215.665 -1076.441)" fill="#fff"/>
      <path id="Path_1252" data-name="Path 1252" d="M258.61,1146.177h-35.5a1.073,1.073,0,0,1-.861-.431,37.377,37.377,0,0,1-8.02-23.258,35.831,35.831,0,0,1,2.291-13.033,1.077,1.077,0,0,1,.663-.608,35.1,35.1,0,0,1,12.568-1.615,1.085,1.085,0,0,1,.431.116c.121.065.246.129.366.2l.108.056c6.633,3.764,10.544,8.614,11.629,14.377,1.443,7.641-2.442,14.747-4.505,17.857l27.134,1.555a1.077,1.077,0,0,1,.353,2.067l-6.254,2.584A1.046,1.046,0,0,1,258.61,1146.177Zm-34.965-2.154h34.749l1.723-.724-24.408-1.4a1.069,1.069,0,0,1-.922-.638,1.081,1.081,0,0,1,.146-1.116c.069-.086,6.956-8.726,5.242-17.754-.969-5.121-4.527-9.475-10.569-12.887l-.108-.06-.1-.056a33,33,0,0,0-11.073,1.383,35.615,35.615,0,0,0-1.942,11.737A35.206,35.206,0,0,0,223.645,1144.024Z" transform="translate(-214.23 -1074.99)" fill="#262424"/>
      <path id="Path_1253" data-name="Path 1253" d="M354.641,1096.985s113.844-12.353,124.581-19.873a18.886,18.886,0,0,0,5.668-6.663c5.289-9.932,4.428-25.36-6.96-32.174a26.716,26.716,0,0,0-14.011-3.446l-112.844,39.194S343.374,1085.5,354.641,1096.985Z" transform="translate(-290.673 -1033.801)" fill="url(#linear-gradient-6)"/>
      <path id="Path_1254" data-name="Path 1254" d="M353.276,1096.7a1.081,1.081,0,0,1-.771-.323c-11.745-11.973-3.738-24.21-3.656-24.33a1.048,1.048,0,0,1,.538-.431L462,1032.513a1.077,1.077,0,1,1,.706,2.033L350.45,1073.525c-1.068,1.8-5.935,11.241,3.235,20.954,6.65-.728,74.081-8.222,106.789-14.829a1.077,1.077,0,0,1,.431,2.111c-34.34,6.943-106.78,14.838-107.508,14.92Z" transform="translate(-289.307 -1032.44)" fill="#262424"/>
      <path id="Path_1255" data-name="Path 1255" d="M370.866,1126.82s-3.829,7.658,2.8,16.939" transform="translate(-302.776 -1086.17)" fill="#fff"/>
      <path id="Path_1256" data-name="Path 1256" d="M372.244,1143.409a1.086,1.086,0,0,1-.861-.452c-6.921-9.7-3.054-17.706-2.886-18.047a1.078,1.078,0,1,1,1.93.961c-.142.3-3.446,7.24,2.709,15.832a1.073,1.073,0,0,1-.25,1.5A1.061,1.061,0,0,1,372.244,1143.409Z" transform="translate(-301.354 -1084.742)" fill="#262424"/>
      <path id="Path_1257" data-name="Path 1257" d="M602.13,1059.954a17.6,17.6,0,0,0,27.164,14.773c5.289-9.932,4.428-25.359-6.96-32.173a17.942,17.942,0,0,0-2.61-.194A17.594,17.594,0,0,0,602.13,1059.954Z" transform="translate(-435.06 -1038.088)" fill="#fff"/>
    </g>
    <g id="RIGHT_FEET" data-name="RIGHT FEET" transform="translate(-0.006 321.986)">
      <path id="Path_1258" data-name="Path 1258" d="M528.757,1123.971a36.489,36.489,0,0,1-7.8,22.59h-35.5l-6.25-2.61-20.243-8.438c-2.244-8.3,1.585-15.858,8.989-15.906l40.839-9.045a34.028,34.028,0,0,1,17.775.806A35.235,35.235,0,0,1,528.757,1123.971Z" transform="translate(-332.479 -1077.481)" fill="url(#linear-gradient-7)"/>
      <path id="Path_1259" data-name="Path 1259" d="M519.5,1146.184H484a1.055,1.055,0,0,1-.431-.086l-26.51-11.043a1.081,1.081,0,0,1-.625-.715c-1.348-4.983-.642-9.945,1.891-13.274a10.062,10.062,0,0,1,8.011-3.988l40.732-9.045a35.217,35.217,0,0,1,18.335.827,1.1,1.1,0,0,1,.663.607,35.835,35.835,0,0,1,2.291,13.033,37.434,37.434,0,0,1-8.024,23.258A1.068,1.068,0,0,1,519.5,1146.184Zm-35.283-2.154h34.749a35.8,35.8,0,0,0,5.311-33.255,33.032,33.032,0,0,0-16.724-.625l-40.839,9.045a.984.984,0,0,1-.228.026,7.847,7.847,0,0,0-6.426,3.14c-2.046,2.692-2.653,6.736-1.654,10.9Z" transform="translate(-331.017 -1076.027)" fill="#262424"/>
      <path id="Path_1260" data-name="Path 1260" d="M478.07,1138.158s21.354-1.253,32.109-2.584a26.872,26.872,0,0,1,3.532-9.794c-18.115,3.532-34.685,5.375-34.685,5.375Z" transform="translate(-343.718 -1086.607)" fill="#fff"/>
      <path id="Path_1261" data-name="Path 1261" d="M476.644,1137.8a1.073,1.073,0,0,1-1.068-1.223l.961-6.995a1.077,1.077,0,0,1,.948-.926c.164,0,16.733-1.878,34.594-5.362a1.077,1.077,0,0,1,1.124,1.62,25.761,25.761,0,0,0-3.39,9.411,1.077,1.077,0,0,1-.93.892c-10.66,1.292-31.963,2.584-32.174,2.584Zm1.912-7.1-.668,4.867c4.669-.289,20.717-1.292,29.943-2.395a28.175,28.175,0,0,1,2.4-7.322c-14.8,2.8-28.259,4.453-31.678,4.858Z" transform="translate(-342.292 -1085.181)" fill="#262424"/>
      <ellipse id="Ellipse_98" data-name="Ellipse 98" cx="3.424" cy="5.78" rx="3.424" ry="5.78" transform="translate(138.763 58.519) rotate(-63.16)" fill="#fff"/>
      <path id="Path_1262" data-name="Path 1262" d="M556.358,1123.961a36.491,36.491,0,0,1-7.8,22.59h-35.5l-6.249-2.61,29.081-1.663s-16.147-19.9,5.634-32.255l.431-.245a34.139,34.139,0,0,1,12.185,1.572A34.9,34.9,0,0,1,556.358,1123.961Z" transform="translate(-360.08 -1077.471)" fill="#fff"/>
      <path id="Path_1263" data-name="Path 1263" d="M547.116,1146.234h-35.5a1.055,1.055,0,0,1-.431-.086l-6.25-2.584a1.077,1.077,0,0,1,.349-2.067l27.134-1.555c-2.063-3.11-5.948-10.217-4.505-17.857,1.09-5.776,5-10.612,11.629-14.373l.108-.06.37-.2a1.111,1.111,0,0,1,.431-.116,35.137,35.137,0,0,1,12.572,1.615,1.1,1.1,0,0,1,.663.607,35.832,35.832,0,0,1,2.291,13.033,37.434,37.434,0,0,1-8.024,23.258A1.068,1.068,0,0,1,547.116,1146.234Zm-35.283-2.154h34.749a35.791,35.791,0,0,0,5.311-33.25,32.979,32.979,0,0,0-11.073-1.382l-.1.06-.108.06c-6.03,3.446-9.6,7.753-10.565,12.882-1.723,9.045,5.168,17.659,5.242,17.754a1.081,1.081,0,0,1,.146,1.115,1.06,1.06,0,0,1-.922.637L510.1,1143.34Z" transform="translate(-358.638 -1076.077)" fill="#262424"/>
      <path id="Path_1264" data-name="Path 1264" d="M434.034,1125.8l17.228,4.307s3.092,8.506-4.087,11.6l-20.325-2.873Z" transform="translate(-314.559 -1086.619)" fill="#fff"/>
      <path id="Path_1265" data-name="Path 1265" d="M445.762,1141.375h-.151l-20.325-2.868a1.081,1.081,0,0,1-.792-1.589l7.18-13.033a1.085,1.085,0,0,1,1.206-.526l17.228,4.307a1.086,1.086,0,0,1,.749.676c1.189,3.273,1.744,10.195-4.673,12.956A1.037,1.037,0,0,1,445.762,1141.375Zm-18.628-4.8,18.469,2.61c4.962-2.343,3.876-7.843,3.4-9.592l-15.841-3.958Z" transform="translate(-313.142 -1085.211)" fill="#262424"/>
      <path id="Path_1266" data-name="Path 1266" d="M284.951,1096.395s-99.269-11.763-110.023-19.283a18.951,18.951,0,0,1-5.668-6.663c-5.289-9.932-4.428-25.36,6.96-32.174a26.715,26.715,0,0,1,14.011-3.446l99.579,35.938S296.214,1084.908,284.951,1096.395Z" transform="translate(-166.134 -1034.83)" fill="url(#linear-gradient-3)"/>
      <path id="Path_1267" data-name="Path 1267" d="M315.177,1102.847h-.125c-.642-.078-64.524-7.688-94.983-14.51a1.077,1.077,0,0,1,.474-2.1c28.857,6.461,87.989,13.658,94.23,14.407,9.131-9.7,5.332-21.341,4.449-23.641l-84.887-30.636a1.078,1.078,0,0,1,.728-2.029l85.344,30.8a1.093,1.093,0,0,1,.616.568c.065.151,6.573,14.95-5.074,26.824A1.065,1.065,0,0,1,315.177,1102.847Z" transform="translate(-196.36 -1040.206)" fill="#262424"/>
      <path id="Path_1268" data-name="Path 1268" d="M424.5,1138.541a1.057,1.057,0,0,1-.625-.2,1.072,1.072,0,0,1-.25-1.5,24.934,24.934,0,0,0,3.954-18.71,1.077,1.077,0,1,1,2.093-.508,26.74,26.74,0,0,1-4.307,20.467A1.073,1.073,0,0,1,424.5,1138.541Z" transform="translate(-312.608 -1081.495)" fill="#262424"/>
      <path id="Path_1269" data-name="Path 1269" d="M196.424,1059.954a17.6,17.6,0,0,1-27.165,14.773c-5.289-9.932-4.428-25.36,6.96-32.174a17.944,17.944,0,0,1,2.61-.194,17.594,17.594,0,0,1,17.594,17.594Z" transform="translate(-166.134 -1039.117)" fill="#fff"/>
    </g>
    <g id="BODY" transform="translate(44.144 150.498)">
      <path id="Path_1270" data-name="Path 1270" d="M284.538,669.912S310.38,651.357,364.291,656c0,0,15.243,13.033,11.711,51.685s-4.419,98.532-4.419,98.532H268.645S267.969,745.69,284.538,669.912Z" transform="translate(-268.641 -647.25)" fill="url(#linear-gradient-9)"/>
      <path id="Path_1271" data-name="Path 1271" d="M368.383,989.693H276.777a1.077,1.077,0,0,1,0-2.154h91.607a1.077,1.077,0,1,1,0,2.154Z" transform="translate(-272.66 -836.421)" fill="#262424"/>
      <path id="Path_1272" data-name="Path 1272" d="M504.356,695.3a1.077,1.077,0,0,1-1.072-1.021c-.892-18.18-6.46-28-9.678-32.251a1.077,1.077,0,1,1,1.723-1.292c3.381,4.436,9.2,14.687,10.113,33.448a1.077,1.077,0,0,1-1.021,1.129Z" transform="translate(-396.59 -650.13)" fill="#262424"/>
      <path id="Path_1273" data-name="Path 1273" d="M370.87,657.089a22.693,22.693,0,0,0,14.317,12.844,84.5,84.5,0,0,1,4.01-13.227,34.465,34.465,0,0,1,5.418,13.162A16.248,16.248,0,0,0,406.4,656.788c-1.292-10.195-10.057-17.87-17.581-17.616C372.218,639.741,370.87,657.089,370.87,657.089Z" transform="translate(-326.84 -638.093)" fill="#fff"/>
      <path id="Path_1274" data-name="Path 1274" d="M383.76,669.591a1.2,1.2,0,0,1-.323-.047A23.9,23.9,0,0,1,368.452,656.1a1.087,1.087,0,0,1-.086-.508c0-.185,1.6-18.318,18.994-18.908,7.692-.263,17.258,7.292,18.684,18.55a1.075,1.075,0,0,1,0,.263c0,.112-1.421,10.927-12.572,13.994a1.077,1.077,0,0,1-1.348-.861,34.269,34.269,0,0,0-4.1-10.983,75.062,75.062,0,0,0-3.213,11.065,1.072,1.072,0,0,1-.5.728A1.086,1.086,0,0,1,383.76,669.591ZM370.541,655.5a21.638,21.638,0,0,0,12.4,11.6,89,89,0,0,1,3.825-12.206,1.072,1.072,0,0,1,1.869-.237,35.194,35.194,0,0,1,5.384,12.409,15.03,15.03,0,0,0,9.867-11.7c-1.292-9.747-9.751-16.759-16.457-16.535-6.491.224-11.3,3.118-14.3,8.614A23.418,23.418,0,0,0,370.541,655.5Z" transform="translate(-325.413 -636.675)" fill="#262424"/>
    </g>
    <g id="LAPTOP" transform="translate(54.253 258.625)">
      <path id="Path_1275" data-name="Path 1275" d="M549.061,966.924H465.935a3.678,3.678,0,0,1-3.562-4.6l17.982-69.369a3.678,3.678,0,0,1,3.562-2.761h83.126a3.682,3.682,0,0,1,3.562,4.6l-17.973,69.369A3.682,3.682,0,0,1,549.061,966.924Z" transform="translate(-388.973 -889.126)" fill="#fff"/>
      <path id="Path_1276" data-name="Path 1276" d="M547.638,966.595H464.512a4.738,4.738,0,0,1-4.6-5.965l17.973-69.343a4.738,4.738,0,0,1,4.609-3.566h83.126a4.759,4.759,0,0,1,4.6,5.952l-17.982,69.356A4.738,4.738,0,0,1,547.638,966.595ZM482.5,889.861a2.584,2.584,0,0,0-2.524,1.951l-17.96,69.369a2.606,2.606,0,0,0,2.52,3.261h83.126a2.584,2.584,0,0,0,2.524-1.951l17.973-69.369a2.606,2.606,0,0,0-2.52-3.26Z" transform="translate(-387.549 -887.72)" fill="#262424"/>
      <path id="Path_1277" data-name="Path 1277" d="M564.107,966.924H480.981a3.683,3.683,0,0,1-3.566-4.6L495.4,892.951a3.678,3.678,0,0,1,3.562-2.761h83.126a3.682,3.682,0,0,1,3.566,4.6l-17.978,69.369A3.678,3.678,0,0,1,564.107,966.924Z" transform="translate(-397.537 -889.126)" fill="#fff"/>
      <path id="Path_1278" data-name="Path 1278" d="M562.684,966.595H479.558a4.759,4.759,0,0,1-4.608-5.952l17.986-69.356a4.738,4.738,0,0,1,4.6-3.566h83.126a4.759,4.759,0,0,1,4.609,5.952L567.3,963.042a4.738,4.738,0,0,1-4.613,3.553ZM497.54,889.861a2.584,2.584,0,0,0-2.52,1.951l-17.982,69.369a2.606,2.606,0,0,0,2.524,3.261h83.126a2.584,2.584,0,0,0,2.52-1.951l17.978-69.369a2.606,2.606,0,0,0-2.524-3.26Z" transform="translate(-396.113 -887.72)" fill="#262424"/>
      <rect id="Rectangle_35" data-name="Rectangle 35" width="99.51" height="7.365" rx="3.683" transform="translate(163.185 85.163) rotate(180)" fill="#fff"/>
      <path id="Path_1279" data-name="Path 1279" d="M534.439,1075.418h-92.33a4.673,4.673,0,0,1-4.669-4.669v-.185a4.673,4.673,0,0,1,4.669-4.664h92.33a4.669,4.669,0,0,1,4.665,4.664v.185A4.673,4.673,0,0,1,534.439,1075.418Zm-92.33-7.365a2.515,2.515,0,0,0-2.515,2.511v.185a2.52,2.52,0,0,0,2.515,2.515h92.33a2.515,2.515,0,0,0,2.511-2.515v-.185a2.515,2.515,0,0,0-2.511-2.511Z" transform="translate(-374.846 -989.157)" fill="#262424"/>
      <rect id="Rectangle_36" data-name="Rectangle 36" width="71.135" height="7.365" rx="3.683" transform="translate(1.077 77.798)" fill="#fff"/>
      <path id="Path_1280" data-name="Path 1280" d="M360.734,1075.418h-63.96a4.673,4.673,0,0,1-4.665-4.669v-.185a4.669,4.669,0,0,1,4.665-4.664h63.96a4.673,4.673,0,0,1,4.669,4.664v.185A4.673,4.673,0,0,1,360.734,1075.418Zm-63.96-7.365a2.515,2.515,0,0,0-2.511,2.511v.185a2.515,2.515,0,0,0,2.511,2.515h63.96a2.52,2.52,0,0,0,2.515-2.515v-.185a2.515,2.515,0,0,0-2.515-2.511Z" transform="translate(-292.11 -989.157)" fill="#262424"/>
    </g>
    <g id="RIGHT_ARM" data-name="RIGHT ARM" transform="translate(32.052 171.878)">
      <path id="Path_1281" data-name="Path 1281" d="M298.713,832.065l-13.352,9.277s-23.818-20.734-36.679-35.852c-4.4-5.169-7.511-9.7-7.964-12.49-.375-2.339-.047-8.08.861-15.747,3.338-28.538,14.566-83.7,26.992-88.751,7.068-2.912,15.682,3.713,15.251,20.73s-9.3,74.891-9.3,74.891Z" transform="translate(-240.566 -687.182)" fill="url(#linear-gradient-10)"/>
      <path id="Path_1282" data-name="Path 1282" d="M282.223,986.457a1.081,1.081,0,0,1-.749-.3c-4.208-4.079-7.964-7.878-11.168-11.293a1.077,1.077,0,0,1,1.572-1.473c3.179,3.39,6.913,7.163,11.095,11.2a1.077,1.077,0,0,1-.749,1.848Z" transform="translate(-257.331 -849.551)" fill="#262424"/>
      <path id="Path_1283" data-name="Path 1283" d="M336.272,1019.717a1.077,1.077,0,0,1-.594-1.977l11.121-7.322a1.077,1.077,0,0,1,1.184,1.8h0l-10.544,6.956-.1.06-.469.31A1.059,1.059,0,0,1,336.272,1019.717Z" transform="translate(-294.436 -870.738)" fill="#262424"/>
      <path id="Path_1284" data-name="Path 1284" d="M337.073,822.23a1.077,1.077,0,0,1-.965-.59l-19.123-37.9a1.094,1.094,0,0,1-.1-.65c.09-.577,8.834-58.007,9.269-74.757.323-12.413-4.2-18.426-8.537-19.907a1.077,1.077,0,1,1,.693-2.037c5.065,1.723,10.337,8.42,10,22-.431,16.2-8.511,69.878-9.243,74.688l18.955,37.6a1.077,1.077,0,0,1-.478,1.443A1.034,1.034,0,0,1,337.073,822.23Z" transform="translate(-283.992 -686.314)" fill="#262424"/>
      <line id="Line_29" data-name="Line 29" x1="13.477" y2="3.829" transform="translate(20.482 96.941)" fill="#fff"/>
      <path id="Path_1285" data-name="Path 1285" d="M286.7,914.88a1.077,1.077,0,0,1-.293-2.11l13.477-3.825a1.077,1.077,0,0,1,.59,2.072l-13.477,3.829A1.17,1.17,0,0,1,286.7,914.88Z" transform="translate(-266.22 -813.033)" fill="#262424"/>
      <path id="Path_1286" data-name="Path 1286" d="M248.682,923.677c-4.4-5.168-7.511-9.7-7.964-12.49-.375-2.339-.047-8.08.861-15.747,4.979,0,10.061,4.8,11.969,11.737C255.531,914.382,253.368,921.407,248.682,923.677Z" transform="translate(-240.566 -805.369)" fill="#fff"/>
      <path id="Path_1287" data-name="Path 1287" d="M346.49,1026.952s2.2,6.159,7.611,5.827c0,0,7.012,7.787,10.38,8.183s10.337-2.761,10.552-5.853c0,0,3.919-.056,3.424-4.031s-6.848-14.747-10.6-16.018S355.548,1019.992,346.49,1026.952Z" transform="translate(-300.868 -873.373)" fill="#fff"/>
      <path id="Path_1288" data-name="Path 1288" d="M363.638,1040.659a4.685,4.685,0,0,1-.7-.034c-3.338-.383-9.144-6.461-10.724-8.158-5.763,0-8.063-6.284-8.162-6.556a1.085,1.085,0,0,1,.362-1.219c11.5-8.838,18.473-13.378,22.362-12.06,4.23,1.434,10.768,12.49,11.328,16.9a4.518,4.518,0,0,1-.948,3.678,4.735,4.735,0,0,1-2.658,1.46,6.12,6.12,0,0,1-1.986,2.584A16.006,16.006,0,0,1,363.638,1040.659Zm-10.961-10.337a1.068,1.068,0,0,1,.8.357c2.61,2.894,7.55,7.576,9.708,7.826,2.063.233,5.853-1.133,7.955-2.873a3.347,3.347,0,0,0,1.4-1.99,1.081,1.081,0,0,1,1.06-1,3.005,3.005,0,0,0,1.947-.831,2.485,2.485,0,0,0,.431-1.99c-.491-3.919-6.779-14.08-9.88-15.131-3.416-1.154-13.352,6.353-19.7,11.22.706,1.464,2.658,4.63,6.224,4.415Zm-7.611-4.738Z" transform="translate(-299.444 -871.958)" fill="#262424"/>
      <line id="Line_30" data-name="Line 30" x2="6.129" y2="9.058" transform="translate(67.041 151.012)" fill="#fff"/>
      <path id="Path_1289" data-name="Path 1289" d="M400.921,1045.656a1.069,1.069,0,0,1-.892-.474l-6.133-9.045a1.078,1.078,0,1,1,1.787-1.206l6.129,9.045a1.077,1.077,0,0,1-.891,1.68Z" transform="translate(-327.751 -884.51)" fill="#262424"/>
    </g>
    <g id="NECK" transform="translate(95.316 129.952)">
      <path id="Path_1290" data-name="Path 1290" d="M390,591.48l.271,10.221.461,17.487c5.883,4.113,11.6,4.548,17.12.4l-.805-8.127-1.228-12.3Z" transform="translate(-388.901 -590.399)" fill="#fff"/>
      <path id="Path_1291" data-name="Path 1291" d="M398.394,622.147a17.086,17.086,0,0,1-9.751-3.5,1.072,1.072,0,0,1-.461-.861l-.732-27.711a1.077,1.077,0,0,1,1.546-.995l15.824,7.684a1.072,1.072,0,0,1,.6.861l2.033,20.428a1.068,1.068,0,0,1-.431.965A14.152,14.152,0,0,1,398.394,622.147Zm-8.071-4.962c5.358,3.575,10.251,3.73,14.924.469l-1.912-19.2-13.683-6.65Z" transform="translate(-387.449 -588.97)" fill="#262424"/>
    </g>
    <g id="HEAD" transform="translate(81.515 96.958)">
      <path id="Path_1292" data-name="Path 1292" d="M409.821,561.129c.926,8.4.642,18.748-9.553,19.326-12.116.68-21.488-5.974-23.969-17.129s1.292-18.52,14.95-20.114a21.008,21.008,0,0,1,3.5-.116c8.132.431,13.352,5.974,14.48,13.554C409.429,558.023,409.648,559.539,409.821,561.129Z" transform="translate(-366.895 -529.845)" fill="#fff"/>
      <path id="Path_1293" data-name="Path 1293" d="M412.45,580.178a25.842,25.842,0,0,1-11.9-2.752,1.077,1.077,0,1,1,.995-1.908,24.19,24.19,0,0,0,12.49,2.459,8.311,8.311,0,0,0,6.254-2.778c3.157-3.73,2.821-10.548,2.287-15.355-.168-1.572-.383-3.054-.586-4.432-1.094-7.417-6.258-12.258-13.477-12.641a1.078,1.078,0,0,1,.116-2.154c8.3.431,14.239,5.982,15.505,14.476.2,1.339.431,2.9.594,4.514.577,5.2.913,12.611-2.782,16.978a10.5,10.5,0,0,1-7.753,3.536C413.608,580.161,413.036,580.178,412.45,580.178Z" transform="translate(-380.753 -528.449)" fill="#262424"/>
      <path id="Path_1294" data-name="Path 1294" d="M363.314,548.689a34.714,34.714,0,0,0,4.777,3.773l6-.9.349-4.471s3.717-.969,3.954-3.67a1.388,1.388,0,0,0,0-.185A33.3,33.3,0,0,0,376.6,532.87s9.876,2.055,14.9,1.525a11.264,11.264,0,0,0,5.444-2.67c3.446-2.722,5.457-9.7,3.876-13.783a.583.583,0,0,0-.03-.078c-2.382-5.982-4.7-.99-4.7-.99s-1.994-4.8-5.2-4.492-4.217,5.358-4.217,5.358a50.44,50.44,0,0,0-18.52,3.153c-11.711,4.436-6.917,12.129-6.917,12.129S352.994,537.779,363.314,548.689Z" transform="translate(-356.951 -512.366)" fill="#262424"/>
      <path id="Path_1295" data-name="Path 1295" d="M372.522,591.99a8.794,8.794,0,0,0-9.475-7.942,8.048,8.048,0,0,0-2.9.84c-5.444,2.8-1.055,15.936,12.861,11.875Z" transform="translate(-356.812 -553.152)" fill="#fff"/>
      <path id="Path_1296" data-name="Path 1296" d="M366.636,597.167c-5.513,0-9.2-2.924-10.621-6.486-1.344-3.385-.4-6.822,2.24-8.183a9.046,9.046,0,0,1,3.291-.956,9.863,9.863,0,0,1,10.643,8.907,1.082,1.082,0,1,1-2.154.22,7.705,7.705,0,0,0-8.3-6.982,6.935,6.935,0,0,0-2.515.728c-1.632.836-2.153,3.135-1.219,5.466,1.361,3.424,5.659,6.633,13.287,4.415a1.077,1.077,0,0,1,.6,2.067A18.977,18.977,0,0,1,366.636,597.167Z" transform="translate(-355.406 -551.721)" fill="#262424"/>
    </g>
    <g id="ORNAMENT" transform="translate(14.83 0.143)">
      <path id="Path_1297" data-name="Path 1297" d="M425.6,294.223a1.012,1.012,0,0,1-1.012-1.012v-4.682a1.012,1.012,0,0,1,2.02,0V293.2a1.012,1.012,0,0,1-1.008,1.021Z" transform="translate(-328.108 -287.583)" fill="url(#linear-gradient-11)"/>
      <path id="Path_1298" data-name="Path 1298" d="M435.791,305.826h-4.673a1.008,1.008,0,1,1,0-2.016h4.673a1.008,1.008,0,1,1,0,2.016Z" transform="translate(-331.25 -296.821)" fill="url(#linear-gradient-12)"/>
      <path id="Path_1299" data-name="Path 1299" d="M425.6,316.095a1.012,1.012,0,0,1-1.012-1.008v-4.677a1.012,1.012,0,0,1,2.02,0v4.677a1.008,1.008,0,0,1-1.008,1.008Z" transform="translate(-328.108 -300.039)" fill="url(#linear-gradient-13)"/>
      <path id="Path_1300" data-name="Path 1300" d="M413.911,305.826h-4.673a1.008,1.008,0,1,1,0-2.016h4.673a1.008,1.008,0,1,1,0,2.016Z" transform="translate(-318.794 -296.821)" fill="url(#linear-gradient-12)"/>
      <path id="Path_1301" data-name="Path 1301" d="M212.827,666.561a1.073,1.073,0,0,1-1.077-1.077V662.3a1.077,1.077,0,1,1,2.154,0v3.187a1.073,1.073,0,0,1-1.077,1.077Z" transform="translate(-206.939 -500.293)" fill="url(#linear-gradient-2)"/>
      <path id="Path_1302" data-name="Path 1302" d="M219.768,674.543h-3.192a1.077,1.077,0,1,1,0-2.153h3.187a1.077,1.077,0,1,1,0,2.154Z" transform="translate(-209.074 -506.652)" fill="url(#linear-gradient-16)"/>
      <path id="Path_1303" data-name="Path 1303" d="M212.827,681.491a1.077,1.077,0,0,1-1.077-1.077v-3.187a1.077,1.077,0,0,1,2.154,0v3.187a1.077,1.077,0,0,1-1.077,1.077Z" transform="translate(-206.939 -508.793)" fill="url(#linear-gradient-2)"/>
      <path id="Path_1304" data-name="Path 1304" d="M204.844,674.543h-3.187a1.077,1.077,0,1,1,0-2.153h3.187a1.077,1.077,0,0,1,0,2.154Z" transform="translate(-200.58 -506.652)" fill="url(#linear-gradient-2)"/>
      <path id="Path_1305" data-name="Path 1305" d="M591.357,770.931a1.077,1.077,0,0,1-1.077-1.077v-4.988a1.077,1.077,0,1,1,2.154,0v4.988A1.077,1.077,0,0,1,591.357,770.931Z" transform="translate(-422.434 -558.686)" fill="url(#linear-gradient-3)"/>
      <path id="Path_1306" data-name="Path 1306" d="M602.224,783.4h-4.988a1.077,1.077,0,1,1,0-2.153h4.988a1.077,1.077,0,1,1,0,2.153Z" transform="translate(-425.782 -568.626)" fill="url(#linear-gradient-3)"/>
      <path id="Path_1307" data-name="Path 1307" d="M591.357,794.271a1.077,1.077,0,0,1-1.077-1.077v-4.988a1.077,1.077,0,1,1,2.154,0v4.988A1.077,1.077,0,0,1,591.357,794.271Z" transform="translate(-422.434 -571.973)" fill="url(#linear-gradient-3)"/>
      <path id="Path_1308" data-name="Path 1308" d="M578.88,783.4H573.9a1.077,1.077,0,1,1,0-2.153h4.983a1.077,1.077,0,1,1,0,2.153Z" transform="translate(-412.495 -568.626)" fill="url(#linear-gradient-3)"/>
      <circle id="Ellipse_99" data-name="Ellipse 99" cx="3.708" cy="3.708" r="3.708" transform="translate(60.544 68.864)" fill="url(#linear-gradient-3)"/>
      <circle id="Ellipse_100" data-name="Ellipse 100" cx="7.249" cy="7.249" r="7.249" transform="translate(254.452 188.281)" fill="url(#linear-gradient-24)"/>
      <circle id="Ellipse_101" data-name="Ellipse 101" cx="6.034" cy="6.034" r="6.034" transform="translate(226.262 341.797)" fill="url(#linear-gradient-25)"/>
    </g>
  </g>
</svg>
