<svg xmlns="http://www.w3.org/2000/svg" xmlns:xlink="http://www.w3.org/1999/xlink" width="2028.392" height="970.921" viewBox="0 0 2028.392 970.921">
  <defs>
    <linearGradient id="linear-gradient" x1="0.5" x2="0.5" y2="1" gradientUnits="objectBoundingBox">
      <stop offset="0" stop-color="#b1317f"/>
      <stop offset="0.166" stop-color="#9d2e78"/>
      <stop offset="0.531" stop-color="#752969"/>
      <stop offset="0.822" stop-color="#5d2560"/>
      <stop offset="1" stop-color="#54245d"/>
    </linearGradient>
    <linearGradient id="linear-gradient-2" x1="0.5" x2="0.5" y2="1" gradientUnits="objectBoundingBox">
      <stop offset="0" stop-color="#1b89ca"/>
      <stop offset="1" stop-color="#2e3792"/>
    </linearGradient>
  </defs>
  <g id="Group_868" data-name="Group 868" transform="translate(108.391 -3415.879)">
    <path id="Path_2436" data-name="Path 2436" d="M8038.484-15455.142h1920v-615.231l-1920-355.689Z" transform="translate(-8038.484 19841.941)" fill="#f9f9f9"/>
    <g id="Path_2453" data-name="Path 2453" transform="matrix(0.174, -0.985, 0.985, 0.174, -108.391, 3720.289)" fill="url(#linear-gradient)">
      <path d="M 199.0728607177734 248.5728607177734 L 50.00001525878906 248.5728607177734 C 43.31732940673828 248.5728607177734 36.8348274230957 247.2641754150391 30.73251724243164 244.68310546875 C 24.83817291259766 242.1899871826172 19.54439163208008 238.6208038330078 14.99823570251465 234.0746459960938 C 10.4520788192749 229.5284881591797 6.88286018371582 224.2347106933594 4.389766693115234 218.34033203125 C 1.808704018592834 212.2380523681641 0.500016450881958 205.7555541992188 0.500016450881958 199.0728607177734 L 0.500016450881958 50.00001525878906 C 0.500016450881958 43.31732940673828 1.808704018592834 36.8348274230957 4.389766693115234 30.73251724243164 C 6.88286018371582 24.83817291259766 10.4520788192749 19.54439163208008 14.99823570251465 14.99823570251465 C 19.54439163208008 10.4520788192749 24.83817291259766 6.88286018371582 30.73251724243164 4.389766693115234 C 36.8348274230957 1.808704018592834 43.31732940673828 0.500016450881958 50.00001525878906 0.500016450881958 L 199.0728607177734 0.500016450881958 C 205.7555541992188 0.500016450881958 212.2380523681641 1.808704018592834 218.34033203125 4.389766693115234 C 224.2347106933594 6.88286018371582 229.5284881591797 10.4520788192749 234.0746459960938 14.99823570251465 C 238.6208038330078 19.54439163208008 242.1899871826172 24.83817291259766 244.68310546875 30.73251724243164 C 247.2641754150391 36.8348274230957 248.5728607177734 43.31732940673828 248.5728607177734 50.00001525878906 L 248.5728607177734 199.0728607177734 C 248.5728607177734 205.7555541992188 247.2641754150391 212.2380523681641 244.68310546875 218.34033203125 C 242.1899871826172 224.2347106933594 238.6208038330078 229.5284881591797 234.0746459960938 234.0746459960938 C 229.5284881591797 238.6208038330078 224.2347106933594 242.1899871826172 218.34033203125 244.68310546875 C 212.2380523681641 247.2641754150391 205.7555541992188 248.5728607177734 199.0728607177734 248.5728607177734 Z" stroke="none"/>
      <path d="M 49.99998474121094 0.9999847412109375 C 43.38458251953125 0.9999847412109375 36.96760559082031 2.295394897460938 30.92729187011719 4.850234985351563 C 25.09251403808594 7.318145751953125 19.8521728515625 10.85136413574219 15.35176086425781 15.35176086425781 C 10.85136413574219 19.8521728515625 7.318145751953125 25.09251403808594 4.850234985351563 30.92729187011719 C 2.295394897460938 36.96760559082031 0.9999847412109375 43.38458251953125 0.9999847412109375 49.99998474121094 L 0.9999847412109375 199.0728302001953 C 0.9999847412109375 205.688232421875 2.295394897460938 212.1052093505859 4.850234985351563 218.1455535888672 C 7.318145751953125 223.9803009033203 10.85136413574219 229.2206726074219 15.35176086425781 233.7210845947266 C 19.8521728515625 238.2214508056641 25.09251403808594 241.7546691894531 30.92729187011719 244.2225799560547 C 36.96760559082031 246.7774200439453 43.38458251953125 248.0728302001953 49.99998474121094 248.0728302001953 L 199.0728302001953 248.0728302001953 C 205.688232421875 248.0728302001953 212.1052093505859 246.7774200439453 218.1455535888672 244.2225799560547 C 223.9803009033203 241.7546691894531 229.2206726074219 238.2214508056641 233.7210845947266 233.7210845947266 C 238.2214508056641 229.2206726074219 241.7546691894531 223.9803009033203 244.2225799560547 218.1455535888672 C 246.7774200439453 212.1052093505859 248.0728302001953 205.688232421875 248.0728302001953 199.0728302001953 L 248.0728302001953 49.99998474121094 C 248.0728302001953 43.38458251953125 246.7774200439453 36.96760559082031 244.2225799560547 30.92729187011719 C 241.7546691894531 25.09251403808594 238.2214508056641 19.8521728515625 233.7210845947266 15.35176086425781 C 229.2206726074219 10.85136413574219 223.9803009033203 7.318145751953125 218.1455535888672 4.850234985351563 C 212.1052093505859 2.295394897460938 205.688232421875 0.9999847412109375 199.0728302001953 0.9999847412109375 L 49.99998474121094 0.9999847412109375 M 49.99998474121094 -1.52587890625e-05 L 199.0728302001953 -1.52587890625e-05 C 226.6870727539063 -1.52587890625e-05 249.0728302001953 22.38577270507813 249.0728302001953 49.99998474121094 L 249.0728302001953 199.0728302001953 C 249.0728302001953 226.6870727539063 226.6870727539063 249.0728302001953 199.0728302001953 249.0728302001953 L 49.99998474121094 249.0728302001953 C 22.38577270507813 249.0728302001953 -1.52587890625e-05 226.6870727539063 -1.52587890625e-05 199.0728302001953 L -1.52587890625e-05 49.99998474121094 C -1.52587890625e-05 22.38577270507813 22.38577270507813 -1.52587890625e-05 49.99998474121094 -1.52587890625e-05 Z" stroke="none" fill="#707070"/>
    </g>
    <g id="Rectangle_137" data-name="Rectangle 137" transform="matrix(0.174, -0.985, 0.985, 0.174, 426.798, 3802.223)" stroke="#707070" stroke-width="1" fill="url(#linear-gradient-2)">
      <rect width="163.71" height="163.71" rx="81.855" stroke="none"/>
      <rect x="0.5" y="0.5" width="162.71" height="162.71" rx="81.355" fill="none"/>
    </g>
    <g id="Rectangle_139" data-name="Rectangle 139" transform="matrix(0.174, -0.985, 0.985, 0.174, 1365.596, 4309.223)" stroke="#707070" stroke-width="1" fill="url(#linear-gradient)">
      <rect width="163.71" height="163.71" rx="81.855" stroke="none"/>
      <rect x="0.5" y="0.5" width="162.71" height="162.71" rx="81.355" fill="none"/>
    </g>
  </g>
</svg>
