<svg xmlns="http://www.w3.org/2000/svg" xmlns:xlink="http://www.w3.org/1999/xlink" width="443" height="293" viewBox="0 0 443 293">
  <defs>
    <linearGradient id="linear-gradient" x1="0.5" x2="0.5" y2="1" gradientUnits="objectBoundingBox">
      <stop offset="0" stop-color="#1b89ca"/>
      <stop offset="1" stop-color="#2e3792"/>
    </linearGradient>
  </defs>
  <g id="Icon_05" data-name="Icon 05" transform="translate(-272 -1927.686)">
    <rect id="Rectangle_133" data-name="Rectangle 133" width="383" height="254" rx="50" transform="translate(272 1966.686)" fill="#245fab" opacity="0.35"/>
    <rect id="Rectangle_140" data-name="Rectangle 140" width="383" height="254" rx="50" transform="translate(332 1927.686)" fill="url(#linear-gradient)"/>
    <g id="noun-iterative-1996779" transform="translate(341.762 1864.252)">
      <path id="Path_2447" data-name="Path 2447" d="M94.814,195.244a3.5,3.5,0,0,0-4.864.8l-3.11,4.305c4.465-35.042,34.085-62.23,69.884-62.23a68.113,68.113,0,0,1,15.029,1.674,78.51,78.51,0,0,0-42.178,69.765,3.508,3.508,0,1,0,7.016,0,71.445,71.445,0,0,1,45.367-66.7,71.6,71.6,0,0,1,45.367,66.7,3.508,3.508,0,0,0,7.016,0,78.51,78.51,0,0,0-42.178-69.765,70.548,70.548,0,0,1,15.029-1.635c35.8,0,65.42,27.188,69.884,62.19l-3.11-4.305h0a3.447,3.447,0,0,0-2.272-1.515,3.535,3.535,0,0,0-2.671.6,3.5,3.5,0,0,0-.678,4.983l9.608,13.315h0a3.491,3.491,0,0,0,5.781-.2l9.448-14.91a3.495,3.495,0,1,0-5.9-3.747l-3.229,5.063c-4.824-38.55-37.434-68.529-76.821-68.529a76.13,76.13,0,0,0-25.155,4.266,76.13,76.13,0,0,0-25.155-4.266c-39.387,0-72,29.939-76.821,68.529l-3.229-5.063a3.495,3.495,0,1,0-5.9,3.747l9.249,14.95a3.478,3.478,0,0,0,2.83,1.635A3.554,3.554,0,0,0,86,213.462l9.608-13.315h0a3.54,3.54,0,0,0,.638-2.591,3.477,3.477,0,0,0-1.435-2.312Z" transform="translate(-0.257)" fill="#fff"/>
      <path id="Path_2448" data-name="Path 2448" d="M470.616,357.808a3.508,3.508,0,1,1-3.508-3.508,3.513,3.513,0,0,1,3.508,3.508" transform="translate(-236.689 -134.22)" fill="#fff"/>
      <path id="Path_2449" data-name="Path 2449" d="M225.616,357.808a3.508,3.508,0,1,1-3.508-3.508,3.513,3.513,0,0,1,3.508,3.508" transform="translate(-89.36 -134.22)" fill="#fff"/>
      <path id="Path_2450" data-name="Path 2450" d="M78.731,389.4H73.508a3.508,3.508,0,0,0,0,7.016h5.222a3.508,3.508,0,0,0,0-7.016Z" transform="translate(0 -155.327)" fill="#fff"/>
      <path id="Path_2451" data-name="Path 2451" d="M133.807,389.4h-12.2a3.508,3.508,0,0,0,0,7.016h12.2a3.508,3.508,0,0,0,0-7.016Z" transform="translate(-28.925 -155.327)" fill="#fff"/>
      <path id="Path_2452" data-name="Path 2452" d="M360.624,382.3a3.586,3.586,0,0,0,.837-2.87,3.633,3.633,0,0,0-1.634-2.512l-14.91-8.731a3.443,3.443,0,0,0-4.624,1.355,3.514,3.514,0,0,0,1.156,4.7l3.787,2.153H187.208a3.508,3.508,0,1,0,0,7.016H345.236l-3.787,2.232h0a3.494,3.494,0,0,0,3.468,6.06l14.91-8.731a4.705,4.705,0,0,0,.8-.678Z" transform="translate(-68.373 -142.331)" fill="#fff"/>
    </g>
  </g>
</svg>
