<svg xmlns="http://www.w3.org/2000/svg" xmlns:xlink="http://www.w3.org/1999/xlink" width="358" height="281" viewBox="0 0 358 281">
  <defs>
    <linearGradient id="linear-gradient" x1="0.5" x2="0.5" y2="1" gradientUnits="objectBoundingBox">
      <stop offset="0" stop-color="#b1317f"/>
      <stop offset="0.166" stop-color="#9d2e78"/>
      <stop offset="0.531" stop-color="#752969"/>
      <stop offset="0.822" stop-color="#5d2560"/>
      <stop offset="1" stop-color="#54245d"/>
    </linearGradient>
  </defs>
  <g id="Icon_04" data-name="Icon 04" transform="translate(-1292 -1214)">
    <path id="Path_2438" data-name="Path 2438" d="M140.5,0A140.5,140.5,0,1,1,0,140.5,140.5,140.5,0,0,1,140.5,0Z" transform="translate(1369 1214)" fill="#b6277b" opacity="0.3"/>
    <path id="Path_2439" data-name="Path 2439" d="M140.5,0A140.5,140.5,0,1,1,0,140.5,140.5,140.5,0,0,1,140.5,0Z" transform="translate(1292 1214)" fill="url(#linear-gradient)"/>
    <g id="noun-backlog-4962598" transform="translate(1297.263 1291.25)">
      <path id="Path_2440" data-name="Path 2440" d="M275.312,144.4H217.991a1.491,1.491,0,0,0,0,2.981h57.321a1.491,1.491,0,0,0,0-2.981Z" transform="translate(-111.426 -111.787)" fill="#fff"/>
      <path id="Path_2441" data-name="Path 2441" d="M275.312,218.8H217.991a1.491,1.491,0,1,0,0,2.981h57.321a1.491,1.491,0,1,0,0-2.981Z" transform="translate(-111.426 -169.384)" fill="#fff"/>
      <path id="Path_2442" data-name="Path 2442" d="M365.113,70H333.991a1.491,1.491,0,1,0,0,2.981h31.122a1.491,1.491,0,1,0,0-2.981Z" transform="translate(-201.227 -54.19)" fill="#fff"/>
      <path id="Path_2443" data-name="Path 2443" d="M77.046,83.994h6.324v32.116A10.41,10.41,0,0,0,93.759,126.5h83a10.41,10.41,0,0,0,10.389-10.389V83.994h6.324a4.382,4.382,0,0,0,3.049-1.22,4.458,4.458,0,0,0,.339-6.1l-8.334-9.825a7.4,7.4,0,0,0-5.669-2.642H177.5l16.916-29.316a7.516,7.516,0,0,0,.745-5.624,7.363,7.363,0,0,0-3.456-4.494l-15.99-9.237V7.408a7.478,7.478,0,0,0-2.168-5.24A7.292,7.292,0,0,0,168.335,0H117.021a7.391,7.391,0,0,0-5.172,2.1l-8.989,8.74L78.717,24.776a7.508,7.508,0,0,0-3.456,4.494,7.413,7.413,0,0,0,.745,5.624L92.923,64.21H87.57A7.4,7.4,0,0,0,81.9,66.852l-8.289,9.825a4.462,4.462,0,0,0-1.039,3.117,4.442,4.442,0,0,0,4.472,4.2Zm72.5,39.524H93.713a7.478,7.478,0,0,1-5.24-2.168,7.344,7.344,0,0,1-2.168-5.24V83.994h46.413a10.4,10.4,0,0,0,7.927-3.681l8.9-10.547Zm34.6-7.408a7.478,7.478,0,0,1-2.168,5.24,7.344,7.344,0,0,1-5.24,2.168H152.525V69.766l8.9,10.547a10.329,10.329,0,0,0,7.927,3.681h14.793Zm-8.4-97.139,14.5,8.379a4.492,4.492,0,0,1,2.078,2.71,4.392,4.392,0,0,1-.452,3.365L175.72,61.387Zm7.114,48.219a4.438,4.438,0,0,1,3.388,1.581l8.289,9.825a1.488,1.488,0,0,1-1.129,2.439H169.329a7.435,7.435,0,0,1-5.669-2.642l-9.463-11.2ZM99.021,18.7,113.927,4.223c.181-.158.361-.316.542-.452V15.313a4.473,4.473,0,0,1-4.449,4.449H98.231a5.191,5.191,0,0,1,.79-1.062Zm-1.355,4.02H110.02a7.478,7.478,0,0,0,5.24-2.168,7.344,7.344,0,0,0,2.168-5.24V2.959h50.885a4.473,4.473,0,0,1,4.449,4.449V64.232h-75.1ZM78.581,33.426a4.438,4.438,0,0,1,1.626-6.075l15.358-8.876a7.531,7.531,0,0,0-.836,3.41V61.364ZM75.894,78.6l8.289-9.825a4.438,4.438,0,0,1,3.388-1.581h60.257l-9.441,11.2a7.4,7.4,0,0,1-5.669,2.642h-55.7a1.5,1.5,0,0,1-1.355-.858,1.535,1.535,0,0,1,.226-1.581Z" fill="#fff"/>
      <path id="Path_2444" data-name="Path 2444" d="M347.189,505.3h-8.9a1.491,1.491,0,1,0,0,2.981h8.9a1.491,1.491,0,0,0,0-2.981Z" transform="translate(-204.556 -391.177)" fill="#fff"/>
      <path id="Path_2445" data-name="Path 2445" d="M336.9,471.791a1.489,1.489,0,0,0,1.491,1.491h8.9a1.491,1.491,0,1,0,0-2.981h-8.9A1.489,1.489,0,0,0,336.9,471.791Z" transform="translate(-204.634 -364.082)" fill="#fff"/>
      <path id="Path_2446" data-name="Path 2446" d="M175.51,472.5H162.659a2.969,2.969,0,0,0-2.959,2.959V480.4a2.969,2.969,0,0,0,2.959,2.959H175.51a2.969,2.969,0,0,0,2.959-2.959v-4.946A2.969,2.969,0,0,0,175.51,472.5Zm-12.851,7.9v-4.946H175.51V480.4Z" transform="translate(-67.455 -365.785)" fill="#fff"/>
    </g>
  </g>
</svg>
