<svg xmlns="http://www.w3.org/2000/svg" xmlns:xlink="http://www.w3.org/1999/xlink" width="444.6" height="290" viewBox="0 0 444.6 290">
  <defs>
    <linearGradient id="linear-gradient" x1="0.5" x2="0.5" y2="1" gradientUnits="objectBoundingBox">
      <stop offset="0" stop-color="#1b89ca"/>
      <stop offset="1" stop-color="#2e3792"/>
    </linearGradient>
  </defs>
  <g id="Icon_06" data-name="Icon 06" transform="translate(-272 -1930.686)">
    <rect id="Rectangle_133" data-name="Rectangle 133" width="382.6" height="254" rx="50" transform="translate(272 1966.686)" fill="#245fab" opacity="0.35"/>
    <rect id="Rectangle_141" data-name="Rectangle 141" width="382.6" height="254" rx="50" transform="translate(334 1930.686)" fill="url(#linear-gradient)"/>
    <g id="noun-infrastructure-4719231" transform="translate(346.75 1927.196)">
      <path id="Path_2454" data-name="Path 2454" d="M262.367,103.172H94.732A1.827,1.827,0,0,1,92.9,101.34V57.632A1.827,1.827,0,0,1,94.732,55.8h167.6a1.827,1.827,0,0,1,1.832,1.832V101.34A1.82,1.82,0,0,1,262.367,103.172Zm-165.8-3.665h163.97V59.431H96.565Z" fill="#fff"/>
      <path id="Path_2455" data-name="Path 2455" d="M495.895,117.789a9.095,9.095,0,1,1,9.095-9.095A9.106,9.106,0,0,1,495.895,117.789Zm0-14.558a5.463,5.463,0,1,0,5.463,5.463A5.488,5.488,0,0,0,495.895,103.231Z" transform="translate(-262.677 -29.209)" fill="#fff"/>
      <path id="Path_2456" data-name="Path 2456" d="M408.395,117.789a9.095,9.095,0,1,1,9.095-9.095A9.106,9.106,0,0,1,408.395,117.789Zm0-14.558a5.463,5.463,0,1,0,5.463,5.463A5.488,5.488,0,0,0,408.395,103.231Z" transform="translate(-204.327 -29.209)" fill="#fff"/>
      <path id="Path_2457" data-name="Path 2457" d="M138.532,121.36a1.827,1.827,0,0,1-1.832-1.832v-7.3a1.827,1.827,0,0,1,1.832-1.832,1.806,1.806,0,0,1,1.832,1.832v7.3A1.849,1.849,0,0,1,138.532,121.36Z" transform="translate(-29.209 -36.411)" fill="#fff"/>
      <path id="Path_2458" data-name="Path 2458" d="M182.232,121.36a1.827,1.827,0,0,1-1.832-1.832v-7.3a1.827,1.827,0,0,1,1.832-1.832,1.806,1.806,0,0,1,1.832,1.832v7.3A1.827,1.827,0,0,1,182.232,121.36Z" transform="translate(-58.35 -36.411)" fill="#fff"/>
      <path id="Path_2459" data-name="Path 2459" d="M226.032,121.36a1.827,1.827,0,0,1-1.832-1.832v-7.3a1.827,1.827,0,0,1,1.832-1.832,1.806,1.806,0,0,1,1.832,1.832v7.3A1.849,1.849,0,0,1,226.032,121.36Z" transform="translate(-87.559 -36.411)" fill="#fff"/>
      <path id="Path_2460" data-name="Path 2460" d="M269.732,121.36a1.827,1.827,0,0,1-1.832-1.832v-7.3a1.827,1.827,0,0,1,1.832-1.832,1.806,1.806,0,0,1,1.832,1.832v7.3A1.827,1.827,0,0,1,269.732,121.36Z" transform="translate(-116.701 -36.411)" fill="#fff"/>
      <path id="Path_2461" data-name="Path 2461" d="M313.532,121.36a1.827,1.827,0,0,1-1.832-1.832v-7.3a1.827,1.827,0,0,1,1.832-1.832,1.806,1.806,0,0,1,1.832,1.832v7.3A1.849,1.849,0,0,1,313.532,121.36Z" transform="translate(-145.91 -36.411)" fill="#fff"/>
      <path id="Path_2462" data-name="Path 2462" d="M262.367,278.172H94.732A1.827,1.827,0,0,1,92.9,276.34V232.632a1.827,1.827,0,0,1,1.832-1.832h167.6a1.827,1.827,0,0,1,1.832,1.832V276.34A1.82,1.82,0,0,1,262.367,278.172Zm-165.8-3.665h163.97V234.431H96.565Z" transform="translate(0 -116.701)" fill="#fff"/>
      <path id="Path_2463" data-name="Path 2463" d="M495.895,292.789a9.095,9.095,0,1,1,9.095-9.095A9.106,9.106,0,0,1,495.895,292.789Zm0-14.558a5.463,5.463,0,1,0,5.463,5.463A5.488,5.488,0,0,0,495.895,278.231Z" transform="translate(-262.677 -145.91)" fill="#fff"/>
      <path id="Path_2464" data-name="Path 2464" d="M408.395,292.789a9.095,9.095,0,1,1,9.095-9.095A9.106,9.106,0,0,1,408.395,292.789Zm0-14.558a5.463,5.463,0,1,0,5.463,5.463A5.488,5.488,0,0,0,408.395,278.231Z" transform="translate(-204.327 -145.91)" fill="#fff"/>
      <path id="Path_2465" data-name="Path 2465" d="M138.532,296.36a1.827,1.827,0,0,1-1.832-1.832v-7.3a1.827,1.827,0,0,1,1.832-1.832,1.806,1.806,0,0,1,1.832,1.832v7.3A1.848,1.848,0,0,1,138.532,296.36Z" transform="translate(-29.209 -153.112)" fill="#fff"/>
      <path id="Path_2466" data-name="Path 2466" d="M182.232,296.36a1.827,1.827,0,0,1-1.832-1.832v-7.3a1.827,1.827,0,0,1,1.832-1.832,1.806,1.806,0,0,1,1.832,1.832v7.3A1.827,1.827,0,0,1,182.232,296.36Z" transform="translate(-58.35 -153.112)" fill="#fff"/>
      <path id="Path_2467" data-name="Path 2467" d="M226.032,296.36a1.827,1.827,0,0,1-1.832-1.832v-7.3a1.827,1.827,0,0,1,1.832-1.832,1.806,1.806,0,0,1,1.832,1.832v7.3A1.848,1.848,0,0,1,226.032,296.36Z" transform="translate(-87.559 -153.112)" fill="#fff"/>
      <path id="Path_2468" data-name="Path 2468" d="M269.732,296.36a1.827,1.827,0,0,1-1.832-1.832v-7.3a1.827,1.827,0,0,1,1.832-1.832,1.806,1.806,0,0,1,1.832,1.832v7.3A1.827,1.827,0,0,1,269.732,296.36Z" transform="translate(-116.701 -153.112)" fill="#fff"/>
      <path id="Path_2469" data-name="Path 2469" d="M313.532,296.36a1.827,1.827,0,0,1-1.832-1.832v-7.3a1.827,1.827,0,0,1,1.832-1.832,1.806,1.806,0,0,1,1.832,1.832v7.3A1.848,1.848,0,0,1,313.532,296.36Z" transform="translate(-145.91 -153.112)" fill="#fff"/>
      <path id="Path_2470" data-name="Path 2470" d="M273.313,205.156H127.532a1.827,1.827,0,0,1-1.832-1.832V188.732a1.827,1.827,0,0,1,1.832-1.832H273.28a1.827,1.827,0,0,1,1.832,1.832v14.591A1.8,1.8,0,0,1,273.313,205.156Zm-143.949-3.631H271.481V190.6H129.365Z" transform="translate(-21.873 -87.426)" fill="#fff"/>
      <path id="Path_2471" data-name="Path 2471" d="M324.459,453.118a12.759,12.759,0,1,1,12.759-12.759A12.782,12.782,0,0,1,324.459,453.118Zm0-21.854a9.095,9.095,0,1,0,9.095,9.095A9.106,9.106,0,0,0,324.459,431.265Z" transform="translate(-145.91 -247.94)" fill="#fff"/>
      <path id="Path_2472" data-name="Path 2472" d="M346.332,387.518a1.827,1.827,0,0,1-1.832-1.832V363.832A1.827,1.827,0,0,1,346.332,362a1.806,1.806,0,0,1,1.832,1.832v21.854A1.849,1.849,0,0,1,346.332,387.518Z" transform="translate(-167.783 -204.193)" fill="#fff"/>
      <path id="Path_2473" data-name="Path 2473" d="M452.023,464.064h-72.89a1.827,1.827,0,0,1-1.832-1.832,1.806,1.806,0,0,1,1.832-1.832h72.89a1.832,1.832,0,1,1,0,3.665Z" transform="translate(-189.656 -269.813)" fill="#fff"/>
      <path id="Path_2474" data-name="Path 2474" d="M167.623,464.064H94.732a1.827,1.827,0,0,1-1.832-1.832,1.806,1.806,0,0,1,1.832-1.832h72.89a1.832,1.832,0,0,1,0,3.665Z" transform="translate(0 -269.813)" fill="#fff"/>
    </g>
  </g>
</svg>
