<svg xmlns="http://www.w3.org/2000/svg" xmlns:xlink="http://www.w3.org/1999/xlink" width="489.394" height="564.99" xmlns:v="https://vecta.io/nano"><style><![CDATA[.B{fill:#fff}.C{fill:#262424}.D{fill:url(#C)}.E{fill:url(#B)}]]></style><defs><linearGradient id="A" y1=".5" x2="1.001" y2=".5"><stop offset="0" stop-color="#1b89ca"/><stop offset="1" stop-color="#2e3792"/></linearGradient><linearGradient id="B" y1=".5" x2="1" y2=".5"><stop offset="0" stop-color="#ce2e82"/><stop offset="1" stop-color="#601f5f"/></linearGradient><linearGradient id="C" x1="0" x2="1" xlink:href="#A"/><linearGradient id="D" x1="0" xlink:href="#B"/><linearGradient id="E" x1=".001" x2="1" xlink:href="#A"/><linearGradient id="F" x1=".001" xlink:href="#B"/><clipPath id="G"><path d="M296.174 187.37a8.52 8.52 0 0 0-8.432 9.783l16.5 110.765a8.56 8.56 0 0 0 8.432 7.274h154.951a8.53 8.53 0 0 0 8.432-9.788l-16.5-110.765c-.601-4.19-4.203-7.294-8.436-7.27zm-9.094 9.882z" transform="translate(-287.08 -187.37)" fill="none"/></clipPath><linearGradient id="H" x1="0" xlink:href="#A"/><linearGradient id="I" x1="0" y1=".501" x2="1" y2=".501" xlink:href="#A"/><linearGradient id="J" x1="-.002" x2=".999" xlink:href="#A"/><linearGradient id="K" x1="-.006" y1=".502" x2=".998" y2=".502" xlink:href="#A"/><linearGradient id="L" x1="0" x2=".999" xlink:href="#A"/><linearGradient id="M" x1="-.001" y1=".499" x2=".999" y2=".499" xlink:href="#A"/></defs><path d="M278.94 382.675l-18.4 158.19c-.157 1.398.287 2.796 1.222 3.847s2.272 1.655 3.678 1.662h0c2.318-.012 4.318-1.628 4.815-3.892l34.676-159.807z" class="B"/><path d="M265.432 547.726c-1.792-.007-3.496-.775-4.687-2.113s-1.757-3.12-1.556-4.9l18.4-158.195a1.35 1.35 0 0 1 1.351-1.193h25.985a1.35 1.35 0 0 1 1.32 1.635l-34.683 159.812c-.633 2.882-3.179 4.94-6.13 4.954zm14.724-163.7l-18.265 157a3.6 3.6 0 0 0 7.063 1.176l34.323-158.172z" class="C"/><path d="M346.938 382.675l18.4 158.19c.157 1.398-.287 2.796-1.222 3.847s-2.272 1.655-3.678 1.662h0c-2.321-.007-4.326-1.625-4.824-3.892L320.93 382.675z" class="B"/><path d="M360.437 547.726c-2.956-.007-5.511-2.067-6.144-4.955L319.61 382.959a1.35 1.35 0 0 1 1.324-1.635h26a1.35 1.35 0 0 1 1.351 1.194l18.4 158.195c.201 1.78-.365 3.562-1.556 4.9s-2.895 2.106-4.687 2.113zm-37.836-163.7l34.323 158.172a3.6 3.6 0 0 0 7.058-1.176l-18.26-157z" class="C"/><path d="M444.009 367.662h-15.643l13.216-85.509h15.643z" class="B"/><path d="M444.009 369.014h-15.661a1.35 1.35 0 0 1-1.351-1.559l13.215-85.5a1.35 1.35 0 0 1 1.352-1.149h15.643a1.35 1.35 0 0 1 1.351 1.559l-13.211 85.491a1.35 1.35 0 0 1-1.338 1.162zm-14.067-2.7h12.909l12.792-82.807h-12.909z" class="C"/><path d="M450.599 293.391h0a14.71 14.71 0 0 1-14.536-16.977l12.1-78.442a14.72 14.72 0 0 1 14.54-12.463h0a14.71 14.71 0 0 1 14.535 16.954l-12.1 78.456c-1.105 7.175-7.279 12.472-14.539 12.472z" fill="url(#A)"/><path d="M376.774 382.675l-18.4 158.19c-.157 1.398.287 2.798 1.223 3.849s2.274 1.655 3.682 1.66h0c2.32-.009 4.322-1.626 4.82-3.892l34.678-159.807z" class="B"/><path d="M363.274 547.726c-1.794.001-3.503-.765-4.695-2.105s-1.756-3.126-1.548-4.908l18.4-158.2a1.35 1.35 0 0 1 1.351-1.193h26a1.35 1.35 0 0 1 1.32 1.635l-34.689 159.816c-.633 2.886-3.184 4.946-6.139 4.955zm14.7-163.7l-18.265 157a3.6 3.6 0 0 0 7.063 1.176l34.323-158.172z" class="C"/><path d="M444.775 382.675l18.4 158.19c.158 1.399-.287 2.798-1.223 3.849s-2.275 1.655-3.682 1.66h0c-2.32-.009-4.322-1.626-4.82-3.892l-34.678-159.807z" class="B"/><path d="M458.274 547.726c-2.956-.007-5.511-2.067-6.144-4.955l-34.683-159.812a1.35 1.35 0 0 1 1.32-1.635h26a1.35 1.35 0 0 1 1.351 1.194l18.4 158.195c.201 1.781-.366 3.564-1.558 4.902s-2.898 2.106-4.69 2.111zm-37.836-163.7l34.323 158.172a3.6 3.6 0 0 0 7.063-1.176l-18.251-157z" class="C"/><rect width="127.651" height="26.773" rx="13.387" x="266.374" y="358.915" class="E"/><rect width="93.175" height="26.773" rx="13.387" x="364.189" y="358.915" class="B"/><path d="M443.978 387.039h-66.4a14.74 14.74 0 0 1-14.738-14.738 14.74 14.74 0 0 1 14.738-14.738h66.4a14.74 14.74 0 0 1 14.738 14.738 14.74 14.74 0 0 1-14.738 14.738zm-66.4-26.773a12.04 12.04 0 0 0-12.035 12.036 12.04 12.04 0 0 0 12.035 12.035h66.4a12.04 12.04 0 0 0 12.035-12.036 12.04 12.04 0 0 0-12.035-12.035z" class="C"/><path d="M108.166 478.832s-35.8-108.1 35.133-177.685c0 .005 39.858 90.536-35.133 177.685z" class="D"/><path d="M140.597 318.719s-22.76 79.131-30.6 155.735c-.002.001 23.168-81.419 30.6-155.735z" class="B"/><path d="M106.144 480.459s17.9-100.9-33.291-166.992c0 .005-21.585 84.383 33.291 166.992z" class="E"/><path d="M75.632 329.97s19.571 74.456 29.048 146.357c0 .001-19.972-76.604-29.048-146.357z" class="B"/><path d="M108.495 475.954c-42.34-12.914-64.56-84.681-64.56-84.681l14.612 3.558 6.387 1.55 2.63-.595 13.288-3.009c15.932 28.828 27.643 83.177 27.643 83.177z" fill="url(#C)"/><path d="M102.784 471.449c-.45-.671-28.575-42.39-44.219-76.613l6.387 1.55 2.631-.595c6.387 12.387 26.201 51.403 35.201 75.658z" class="B"/><path d="M80.87 392.778s-29.354 26.305-40.462 79.185a3.72 3.72 0 0 1-6.671 1.4c-3.7-5.22-8.148-15.161-9.324-33.435-2.1-32.732 10.211-51.051 17.418-54.051 0 0 3.968 2.815 11.8 4.955 2.285.619 4.602 1.112 6.941 1.477 6.72 1.012 13.54 1.171 20.3.473z" class="D"/><path d="M60.574 392.305c-7.3 10.112-22.823 34.642-25.048 63.06 0 0-4.851-34.377 18.107-64.56a64.56 64.56 0 0 0 6.941 1.5z" class="B"/><path d="M167.969 411.182c-19.03 57.565-55.907 65.429-55.907 65.429l-6.671-1.189c16.666-27.846 25.224-66.132 25.224-66.132l15.013.766 6.144.315z" fill="url(#D)"/><path d="M151.786 410.367c-9.265 40.174-39.223 62.317-39.71 62.673 20.72-21.621 30.278-50.781 33.566-62.988z" class="B"/><path d="M167.496 488.266s-4.045-43.3-36.881-78.978c0 0 9.2-2.482 23.093-2.063 2.41.072 4.955.234 7.657.509 5.776.597 11.492 1.673 17.089 3.216 0 0 13.068 45.438-10.958 77.316z" fill="url(#D)"/><path d="M171.064 464.243c-1.883-24.287-12.851-48.124-17.351-57.02 2.41.072 4.955.234 7.657.509 13.837 27.913 9.694 56.511 9.694 56.511z" class="B"/><g class="E"><path d="M149.335 471.152s-1.613 26.71-9.941 50.331a99.93 99.93 0 0 1-5.914 13.7c-2.079 4.011-4.619 7.766-7.567 11.189H90.779c-9.756-11.054-15.544-28.891-18.918-44.421a225.22 225.22 0 0 1-4.5-30.8z"/><path d="M139.397 521.483a99.93 99.93 0 0 1-5.914 13.7c-3.117-6.684-10.81-15.044-29.638-17.864-15.391-2.3-25.769-7.914-31.98-15.369a225.22 225.22 0 0 1-4.5-30.8h19.232c1.748 8.954 7.414 24.427 25.8 28.827 16.867 4.043 24.245 12.912 27 21.506z"/></g><path d="M116.003 477.346c-12.216-.387-15.99 9.8 6.081 16.328s11.711-15.765-6.081-16.328zm107.203-14.194l-8.558 33.106 13.062 2.7 11.711-32.656z" class="B"/><path d="M227.709 500.312a1.15 1.15 0 0 1-.275-.031l-13.062-2.7c-.364-.072-.68-.292-.874-.608a1.35 1.35 0 0 1-.162-1.049l8.558-33.106a1.35 1.35 0 0 1 1.567-.991l16.215 3.153a1.35 1.35 0 0 1 1.013 1.8l-11.711 32.656a1.35 1.35 0 0 1-1.27.878zm-11.4-5.09l10.522 2.176 10.783-30.071-13.423-2.608z" class="C"/><path d="M161.293 540.432v5.937h73.37l.45-8.31c.764-15.506.638-31.043-.378-46.534l-23.422-3.757s-20.1 20.918-37.985 37.2c-1.86 1.694-3.815 3.338-5.856 4.9-3.94 2.996-6.179 6.708-6.179 10.564z" fill="url(#C)"/><path d="M195.953 525.671a1.35 1.35 0 0 1-.973-2.288c15.67-16.247 22.674-29.638 22.742-29.773a1.35 1.35 0 0 1 2.361-.133 1.35 1.35 0 0 1 .039 1.372c-.288.559-7.256 13.878-23.2 30.413a1.35 1.35 0 0 1-.969.409z" class="C"/><ellipse cx="223.06" cy="519.19" rx="6.513" ry="7.252" class="B"/><path d="M223.06 527.797c-4.342 0-7.869-3.86-7.869-8.6s3.527-8.6 7.869-8.6 7.865 3.86 7.865 8.6-3.527 8.6-7.865 8.6zm0-14.5c-2.851 0-5.166 2.649-5.166 5.9s2.315 5.9 5.166 5.9 5.162-2.644 5.162-5.9-2.315-5.908-5.162-5.908z" class="C"/><path d="M161.293 540.439v5.937h73.37l.45-8.31h-38.736s-2.477-17.256-23.048-13.094l-5.856 4.9c-3.941 2.993-6.18 6.704-6.18 10.567z" class="B"/><path d="M234.663 547.724h-73.37a1.35 1.35 0 0 1-1.351-1.351v-5.937c0-4.22 2.387-8.355 6.725-11.648 1.932-1.464 3.878-3.085 5.779-4.815a1.35 1.35 0 0 1 .64-.329c7.108-1.437 12.963-.581 17.4 2.55a18.56 18.56 0 0 1 7.013 10.517h37.642a1.35 1.35 0 0 1 1.351 1.41l-.451 8.356a1.35 1.35 0 0 1-1.378 1.248zm-72.032-2.7h70.785l.311-5.608h-37.323a1.35 1.35 0 0 1-1.351-1.158 16.16 16.16 0 0 0-6.166-9.873c-3.73-2.617-8.747-3.342-14.918-2.158-1.869 1.689-3.779 3.275-5.68 4.716-3.648 2.77-5.657 6.14-5.657 9.5z" class="C"/><path d="M426.798 298.597s-6.608 40.539-8.108 45.642-17.116 13.815-28.228 14.414-102.995 0-102.995 0l-39.94 115.008-35.133-7.806 29.129-125.246c2.468-9.909 4.243-16.522 4.8-17.391.658-1.022 8.473-3.153 19.9-5.855 35.422-8.265 105.616-21.481 105.616-21.481s11.409-21.922 32.431-21.922 24.928 10.224 22.528 24.637z" class="D"/><path d="M257.856 338.807c-5.644 3.085-11.788 3.6-16.333 1.8 2.468-9.909 4.243-16.522 4.8-17.391.658-1.023 8.473-3.153 19.9-5.856a9.42 9.42 0 0 1 .959 1.428c3.47 6.344-.71 15.28-9.326 20.019z" class="B"/><g class="C"><path d="M402.772 328.249a1.02 1.02 0 0 1-.257-.032c-3.721-.869-6.306-2.8-7.734-5.729-3.351-6.964 1.351-17.044 1.568-17.472.267-.562.94-.801 1.502-.534s.801.94.534 1.502c-.045.095-4.459 9.545-1.572 15.531 1.117 2.315 3.153 3.793 6.216 4.5.563.125.94.656.874 1.228s-.554 1.003-1.131.997z"/><path d="M238.519 458.571a1.21 1.21 0 0 1-.333-.05 1.12 1.12 0 0 1-.664-.551c-.139-.265-.168-.574-.079-.859l34.831-113.205a1.13 1.13 0 0 1 .991-.793l127.341-9.54 4.955-30.057a1.13 1.13 0 0 1 1.295-.93 1.13 1.13 0 0 1 .93 1.295l-5.112 30.931a1.13 1.13 0 0 1-1.027.941l-127.472 9.546-34.557 112.475c-.147.481-.596.807-1.099.797zm7.432 5.932c-.083 0-.166-.009-.248-.027l-26.35-5.856a1.13 1.13 0 0 1-.855-1.346c.135-.608.738-.99 1.346-.854l26.35 5.856c.56.125.937.651.874 1.221s-.543 1.003-1.117 1.004z"/></g><path d="M291.679 378.647l11.076 32.354 12.391-4.937-8.193-33.71z" class="B"/><path d="M302.755 412.348c-.196 0-.389-.042-.568-.122a1.35 1.35 0 0 1-.712-.788l-11.076-32.354a1.35 1.35 0 0 1 .766-1.685l15.274-6.306a1.35 1.35 0 0 1 1.8.928l8.2 33.714a1.35 1.35 0 0 1-.815 1.572l-12.391 4.955a1.39 1.39 0 0 1-.478.086zm-9.387-32.935l10.211 29.8 9.977-3.982-7.545-31.03z" class="C"/><path d="M282.521 477.246l3.266 4.955 61.258-40.385-4.184-7.207c-7.894-13.367-16.551-26.269-25.927-38.642l-21.62 9.756s-5.275 28.526-11.261 51.961a87.57 87.57 0 0 1-2.207 7.32c-1.625 4.688-1.45 9.021.675 12.242z" fill="url(#C)"/><path d="M302.594 446.072c-.083-.001-.166-.009-.248-.023a1.35 1.35 0 0 1-1.081-1.576c4.139-22.193 2.617-37.228 2.6-37.385a1.36 1.36 0 0 1 1.913-1.438 1.36 1.36 0 0 1 .787 1.15c.068.626 1.581 15.58-2.63 38.16a1.35 1.35 0 0 1-1.341 1.112z" class="C"/><ellipse cx="6.513" cy="7.252" rx="6.513" ry="7.252" transform="matrix(.834944 -.550335 .550335 .834944 312.969 423.055)" class="B"/><path d="M323.078 433.911a8.03 8.03 0 0 1-2.045-.27 9.01 9.01 0 0 1-5.2-3.793h0a9.01 9.01 0 0 1-1.441-6.279 7.41 7.41 0 0 1 9.378-6.171 9.19 9.19 0 0 1 6.639 10.072c-.288 2.136-1.479 4.045-3.27 5.243-1.207.789-2.619 1.206-4.061 1.198zm-1.351-14.08a4.64 4.64 0 0 0-2.576.761c-1.148.775-1.907 2.005-2.085 3.378-.211 1.538.154 3.1 1.023 4.387h0c.84 1.307 2.133 2.259 3.631 2.671 1.331.395 2.769.181 3.929-.583s1.922-2.002 2.084-3.381a6.5 6.5 0 0 0-4.648-7.058 5.44 5.44 0 0 0-1.358-.176z" class="C"/><path d="M282.518 477.245l3.266 4.955 61.258-40.385-4.185-7.207-32.339 21.323s-11.567-13.062-26.449 1.752l-2.207 7.32c-1.637 4.689-1.466 9.022.656 12.242z" class="B"/><path d="M285.788 483.556c-.091 0-.181-.009-.27-.027a1.35 1.35 0 0 1-.856-.581l-3.27-4.955c-2.32-3.522-2.6-8.288-.793-13.423a83.57 83.57 0 0 0 2.171-7.207 1.43 1.43 0 0 1 .356-.626c5.139-5.108 10.513-7.626 15.95-7.45a18.58 18.58 0 0 1 11.644 4.923l31.431-20.72a1.35 1.35 0 0 1 1.905.451l4.2 7.234a1.35 1.35 0 0 1-.45 1.8l-61.258 40.385a1.35 1.35 0 0 1-.76.196zm-.491-25.17c-.635 2.446-1.351 4.824-2.149 7.072-1.522 4.315-1.351 8.234.5 11.035h0l2.527 3.829 59.087-38.948-2.824-4.851-31.165 20.54a1.35 1.35 0 0 1-1.752-.23c-2.805-2.871-6.575-4.599-10.581-4.851-4.54-.118-9.143 2.031-13.643 6.404z" class="C"/><path d="M303.66 309.378l12.558 64.934-30.913 10.513s-29.553-53.529-37.44-77.816c-1.288-3.95-2-7.13-1.914-9.175.6-14.621 15.013-27.422 23.719-27.12 1.038.083 2.068.244 3.081.482 17.432 3.639 87.707 26.845 87.707 26.845z" class="D"/><path d="M285.306 385.949a1.13 1.13 0 0 1-.986-.581c-.176-.315-17.513-31.773-29.057-57.141-.181-.368-.147-.806.088-1.142s.635-.518 1.042-.474.76.306.919.684c10.463 22.972 25.71 51.02 28.526 56.159l29.089-9.909-12.374-63.962c-.055-.294.009-.597.177-.844s.429-.416.723-.471l55.637-11.1c.609-.124 1.204.269 1.329.879s-.269 1.204-.879 1.328l-54.565 10.887 12.346 63.835a1.13 1.13 0 0 1-.743 1.284l-30.909 10.487c-.115.047-.236.074-.36.081z" fill="url(#C)"/><path d="M265.019 301.378c-7.306 6.346-14.161 4.716-17.995 2.86a22.6 22.6 0 0 1-1.072-6.41c.6-14.621 15.013-27.422 23.719-27.12 1.038.083 2.068.244 3.081.482.002.046.01.091.022.135.267 1.787 2.826 20.853-7.755 30.053z" class="B"/><g class="C"><path d="M285.436 376.787c-.552 0-1.022-.401-1.111-.946s.231-1.073.755-1.248l25.071-8.41c.383-.133.808-.05 1.112.217s.442.678.36 1.074a1.13 1.13 0 0 1-.757.844l-25.071 8.409a1.12 1.12 0 0 1-.36.06zm15.766-9.459a1.13 1.13 0 0 1-1.113-.95l-11.108-69.965c-.062-.39.084-.785.387-1.039a1.13 1.13 0 0 1 1.09-.204l29.139 10.034c.399.116.703.442.788.849a1.13 1.13 0 0 1-.378 1.095c-.318.267-.759.337-1.144.182l-27.363-9.426 10.81 68.118c.047.295-.026.597-.202.838a1.13 1.13 0 0 1-.735.45 1.15 1.15 0 0 1-.171.018z"/><path d="M303.661 310.502a1.12 1.12 0 0 1-.784-.32l-17.735-17.175c-.408-.438-.402-1.119.014-1.55s1.097-.46 1.549-.067l17.737 17.175c.331.319.435.807.263 1.233s-.587.705-1.047.704z"/></g><path d="M233.682 90.387h0a2.28 2.28 0 0 0-.54 2.851l11.752 21.472a1.9 1.9 0 0 1-.608 2.486h0a1.9 1.9 0 0 1-2.73-.685l-3.693-7.022c-.632-1.2-1.994-1.823-3.315-1.518h0c-1.411.328-2.382 1.621-2.306 3.067l.622 11.328c.189 3.532 1.672 6.87 4.167 9.378l3.09 3.112 1.2 8.229 14.022 3.405-.045-11.351 4.139-16.666a7.57 7.57 0 0 0-1.986-7.175l-20.693-20.747a2.28 2.28 0 0 0-3.076-.164z" class="B"/><path d="M240.735 144.322a1.35 1.35 0 0 1-.752-1.022l-1.14-7.8-2.779-2.793c-2.726-2.746-4.346-6.398-4.554-10.261l-.617-11.337c-.111-2.034 1.21-3.871 3.174-4.413s4.04.358 4.988 2.161l3.716 7.022c.07.138.197.239.347.275a.54.54 0 0 0 .608-.784l-11.765-21.465a3.64 3.64 0 0 1 .86-4.54h0a3.6 3.6 0 0 1 4.9.23l20.693 20.747a8.97 8.97 0 0 1 2.347 8.455l-4.1 16.522.045 11.18a1.35 1.35 0 0 1-1.671 1.32l-14.026-3.378c-.092-.03-.182-.069-.266-.117zm-4.81-34.917c-.519-.252-1.133-.21-1.613.111s-.754.871-.72 1.447l.622 11.333a13.06 13.06 0 0 0 3.779 8.5l3.09 3.108a1.35 1.35 0 0 1 .378.757l1.076 7.342 11.459 2.779-.04-9.626c0-.111.013-.221.04-.329l4.14-16.666a6.26 6.26 0 0 0-1.631-5.9l-20.72-20.751a.93.93 0 0 0-1.252-.059h0a.93.93 0 0 0-.221 1.167l11.752 21.458a3.23 3.23 0 0 1-2.946 4.816 3.23 3.23 0 0 1-2.754-1.771l-3.7-7.027a1.6 1.6 0 0 0-.74-.689zm-2.252-19z" class="C"/><path d="M335.586 142.79l-2.027 53.15s-33.385 9.457-57.354 14.824q-1.595.356-3.126.689c-11.43 2.513-22.902-4.055-26.521-15.184-7.243-22.283-10.86-51.114-10.86-51.114s11.157-7.77 25.346-5.518l14.864 27.7z" fill="url(#D)"/><path d="M276.202 210.765q-1.595.356-3.126.689a22.82 22.82 0 0 1-24.8-11.22 16.97 16.97 0 0 1 27.926 10.531z" class="B"/><g class="C"><path d="M270.725 190.986a.93.93 0 0 1-.252-.032 1.12 1.12 0 0 1-.847-1.351l4.5-19.594c.076-.406.368-.738.761-.865s.824-.029 1.123.256a1.13 1.13 0 0 1 .311 1.109l-4.5 19.594c-.116.512-.569.876-1.094.878zm-29.355-33.858c-.523 0-.977-.36-1.097-.869s.128-1.034.597-1.266a61.01 61.01 0 0 1 22.823-5.229c.408-.024.797.175 1.016.52a1.13 1.13 0 0 1 .041 1.141c-.194.36-.567.586-.976.592a59.63 59.63 0 0 0-21.9 5 1.17 1.17 0 0 1-.5.113z"/><circle cx="243.024" cy="147.961" r="2.928"/><path d="M243.019 152.24a4.28 4.28 0 0 1-3.026-7.305 4.28 4.28 0 0 1 7.305 3.026 4.28 4.28 0 0 1-4.279 4.279zm0-5.856c-.638 0-1.213.384-1.458.973s-.109 1.268.342 1.719 1.13.586 1.719.342.973-.82.973-1.458c-.001-.87-.706-1.574-1.576-1.575z"/></g><path d="M444.815 153.375s-34.233-22.747-59.456-22.3-49.772 11.711-49.772 11.711c-20.495 42.795-26.855 138.551-26.855 138.551s11.261 3.878 43.151 13.891a241.69 241.69 0 0 0 54.609 14.519l3.2-19.071a2.77 2.77 0 0 1 3.076-2.288h0c.733.091 1.398.471 1.849 1.056s.649 1.325.551 2.057l-2.518 19.021a111.13 111.13 0 0 0 17.783.77c14.864-52.701 14.382-157.917 14.382-157.917z" class="E"/><path d="M319.907 196.85c-.074-.001-.148-.009-.221-.023-.296-.055-.557-.225-.726-.474s-.232-.555-.174-.85c4.207-21.229 9.067-38.165 14.45-50.34.141-.397.492-.683.91-.74s.832.124 1.074.47.271.797.074 1.17c-5.315 12.026-10.126 28.8-14.3 49.871a1.12 1.12 0 0 1-1.087.916z" class="C"/><path d="M411.948 143.276a29.11 29.11 0 0 1-18.887 15.873c-1.06-5.821-2.595-11.546-4.59-17.116a43.9 43.9 0 0 0-7.5 16.666c-13.445-4.166-14.571-17.26-14.571-17.26 2.081-13.013 13.634-22.485 23.269-21.85 21.297 1.391 22.279 23.687 22.279 23.687z" class="B"/><path d="M393.061 160.501a1.35 1.35 0 0 1-1.338-1.153c-.857-4.881-2.087-9.689-3.68-14.382-2.703 4.289-4.646 9.013-5.743 13.963a1.35 1.35 0 0 1-1.725 1.036c-14.148-4.383-15.5-18.292-15.513-18.432a1.15 1.15 0 0 1 0-.329c2.293-14.36 14.864-23.638 24.692-22.972 11.635.775 17.427 7.563 20.238 13.125 1.857 3.707 2.977 7.739 3.3 11.873.008.217-.035.434-.126.631a30.6 30.6 0 0 1-19.751 16.6c-.116.028-.235.042-.354.04zm-4.594-19.819c.07-.007.142-.007.212 0a1.35 1.35 0 0 1 1.063.874 114.4 114.4 0 0 1 4.4 15.837 27.78 27.78 0 0 0 16.435-14.414c-.212-2.766-2.306-20.855-20.994-22.093-8.626-.572-19.733 8.081-21.814 20.539.943 6.995 5.626 12.919 12.215 15.45a45.38 45.38 0 0 1 7.419-15.706 1.35 1.35 0 0 1 1.063-.491z" class="C"/><path d="M461.751 211.102c-.068 18.468-.612 42.124-4.392 57.93-2.4 10-6.081 16.855-11.761 17.229a35.08 35.08 0 0 1-14.517-2.518c-21.089-7.941-45.737-33.638-48.2-38.737-3.04-6.274 1.8-22.233 9.234-23.422s28.828 10.81 28.828 10.81l12.058-61.758c2.284-10.477 11.815-17.292 11.815-17.292 13.467 6.058 17.047 27.67 16.935 57.758z" fill="url(#D)"/><g class="C"><circle cx="392.714" cy="246.83" r="1.788"/><path d="M392.714 249.538a2.7 2.7 0 1 1 .522-.049 2.95 2.95 0 0 1-.522.049zm0-3.572a1.22 1.22 0 0 0-.171 0c-.468.095-.773.548-.685 1.018a.86.86 0 0 0 .369.554.85.85 0 0 0 .649.131.88.88 0 0 0 .555-.366.86.86 0 0 0 .13-.652h0a.82.82 0 0 0-.842-.685zm36.499 38.403a1.35 1.35 0 0 1-.522-.108c-20.4-8.558-44.34-33.089-47.025-38.633-2.288-4.725-.617-12.851 2.117-18.1 2.18-4.185 5.063-6.756 8.108-7.243 6.721-1.077 22.638 7.126 28.062 10.063l11.711-59.965c1.446-6.626 5.59-11.828 8.81-15.026a1.352 1.352 0 1 1 1.905 1.919c-2.964 2.941-6.756 7.7-8.076 13.684-2.252 10.36-11.955 61.209-12.053 61.709a1.35 1.35 0 0 1-1.987.923c-5.833-3.275-22.233-11.567-27.953-10.653-2.189.351-4.369 2.419-6.148 5.829-2.766 5.306-3.7 12.333-2.081 15.67 2.13 4.405 24.841 28.571 45.642 37.323a1.35 1.35 0 0 1-.527 2.6z"/><path d="M397.367 254.044a1.35 1.35 0 0 1-.969-2.3c10.684-10.959 4.437-27.526 4.374-27.692-.193-.454-.123-.978.182-1.366s.798-.579 1.285-.498.891.421 1.055.886c.284.748 6.923 18.364-4.955 30.557a1.35 1.35 0 0 1-.973.41zm44.349-5.768a1.35 1.35 0 0 1-1.122-.6h0c-3.99-5.218-9.497-9.073-15.765-11.036a1.35 1.35 0 0 1 .406-2.639c.45 0 10.752.045 19.368 4.018a1.35 1.35 0 1 1-1.135 2.455c-3.271-1.441-6.715-2.45-10.247-3a32.78 32.78 0 0 1 9.644 8.7 1.35 1.35 0 0 1-1.149 2.1z"/></g><g class="B"><path d="M457.359 269.05c-2.4 10-6.081 16.855-11.761 17.229-4.963.198-9.911-.66-14.517-2.518-1.2-6.686 1.972-13.397 7.899-16.716s13.306-2.513 18.379 2.005z"/><rect width="34.832" height="57.353" rx="5.83" transform="matrix(.981293 -.192522 .192522 .981293 345.029 189.921)"/></g><path d="M358.135 247.096c-1.9-.001-3.534-1.347-3.9-3.212l-10.031-51.128a3.98 3.98 0 0 1 3.153-4.666l29.026-5.7c2.16-.419 4.251.993 4.671 3.153l10.026 51.124c.203 1.038-.015 2.114-.606 2.99s-1.508 1.481-2.547 1.681l-29.026 5.693c-.252.048-.509.07-.766.065zm19-62.073a1.57 1.57 0 0 0-.248 0l-29.026 5.693c-.331.067-.622.261-.811.541a1.27 1.27 0 0 0-.194.959l10.031 51.124c.064.333.259.627.54.816s.627.259.96.193l29.026-5.7h0a1.28 1.28 0 0 0 1.009-1.5l-10.031-51.124a1.28 1.28 0 0 0-1.252-1.009z" class="C"/><circle cx="353.946" cy="195.973" r="2.626" class="B"/><path d="M353.937 199.954c-2.099-.001-3.837-1.632-3.971-3.727s1.38-3.934 3.462-4.204 4.015 1.123 4.419 3.183h0c.419 2.16-.993 4.251-3.153 4.671-.249.049-.503.075-.757.077zm0-5.257c-.083.001-.166.009-.248.023-.571.126-.975.634-.97 1.218s.42 1.085.993 1.199 1.148-.189 1.377-.726.051-1.162-.428-1.497a1.25 1.25 0 0 0-.716-.216z" class="C"/><path d="M367.089 208.062c-4.64 1.351-4.167 8.445 1.576 8.445s22.747-1.013 20.269-7.882-12.625-3.266-21.845-.563z" class="B"/><path d="M368.652 217.859c-2.897.212-5.485-1.802-5.99-4.662s1.236-5.639 4.031-6.432h0l1.991-.585c8.8-2.622 18.774-5.59 21.5 1.991.583 1.448.389 3.092-.514 4.365-3.551 5.066-18.131 5.323-21.018 5.323zm-1.194-8.5c-1.449.391-2.373 1.809-2.144 3.293.176 1.212 1.144 2.5 3.338 2.5 6.383 0 16.666-1.108 18.814-4.175a1.9 1.9 0 0 0 .185-1.9c-1.734-4.8-8.63-3.153-18.193-.315l-2 .59z" class="C"/><path d="M369.791 216.057c-4.468 1.8-4.392 9.459-2.027 17.679s8.22 12.162 16.441 10.135 13.062-6.756 10.472-18.355-6.094-17.005-24.886-9.459z" class="B"/><path d="M380.152 245.741c-6.572 0-11.553-4.13-13.711-11.63-2.977-10.36-1.95-17.391 2.824-19.305h0c9.495-3.811 15.562-4.545 19.67-2.383 3.941 2.076 5.617 6.437 7.036 12.8 2.473 11.08-1.171 17.423-11.468 19.963a18.36 18.36 0 0 1-4.351.555zm-9.882-28.427c-3.185 1.279-3.671 7.576-1.23 16.049 2.225 7.738 7.482 11 14.815 9.2 8.783-2.167 11.617-7.175 9.459-16.747-1.252-5.612-2.635-9.409-5.657-11-3.293-1.739-8.824-.941-17.4 2.5z" class="C"/><path d="M403.007 93.63l-.784 13.094-1.306 22.4c-7.711 5.027-15.062 5.347-21.963-.2l1.374-10.36 2.076-15.724z" class="B"/><g class="C"><path d="M389.56 134.34a18.04 18.04 0 0 1-11.454-4.36 1.35 1.35 0 0 1-.491-1.23l3.45-26.1a1.35 1.35 0 0 1 .788-1.054l20.6-9.2c.431-.195.933-.15 1.322.119s.608.723.578 1.196l-2.085 35.489a1.35 1.35 0 0 1-.613 1.054c-4.18 2.726-8.22 4.086-12.095 4.086zm-9.166-6c5.856 4.4 12.161 4.4 19.215 0l1.914-32.584-17.877 7.982z"/><path d="M395.89 96.805c-.293 5.919-.4 26.093-16.359 27.76l2.874-21.742z"/></g><path d="M363.208 93.955c1.085 10.788 4.216 23.688 17.157 21.679 15.387-2.387 25.332-13.261 25.476-27.9s-6.608-22.9-24.138-21.22a26.85 26.85 0 0 0-4.419.784c-10.085 2.7-15.161 11.081-14.535 20.891l.459 5.766z" class="B"/><g class="C"><path d="M377.788 117.193a12.52 12.52 0 0 1-8.076-2.7c-6.45-5.175-7.657-16.242-8.311-26.206a21.65 21.65 0 0 1 4.635-15.5c3.6-4.351 8.968-6.982 15.535-7.608.492-.065.981.144 1.274.545s.343.93.131 1.379-.652.747-1.148.776c-11.486 1.1-18.467 9.045-17.729 20.242.45 6.783 1.243 19.409 7.306 24.274 2.306 1.856 5.171 2.482 8.752 1.928 5.348-.735 10.41-2.856 14.684-6.153a1.35 1.35 0 0 1 1.852.252 1.35 1.35 0 0 1-.172 1.861 33.94 33.94 0 0 1-15.95 6.711c-.921.138-1.852.204-2.783.199z"/><path d="M410.417 90.486c-1.475 2.143-3.133 4.155-4.955 6.013l-7.761.482-1.653-5.5s-4.923-.216-5.941-3.54l-.068-.234a42.88 42.88 0 0 1-.532-13.486s-11.837 5.225-18.278 5.9c-2.32.248-5.027-.644-7.545-1.887-5.04-2.5-9.459-10.711-8.558-16.265a.84.84 0 0 1 0-.108c1.383-8.144 5.626-2.5 5.626-2.5s1.216-6.558 5.319-7.027 6.725 5.585 6.725 5.585a64.69 64.69 0 0 1 24.053-1c15.873 2.428 11.923 13.364 11.923 13.364s11.658 3.749 1.645 20.203z"/></g><path d="M399.367 96.144a11.28 11.28 0 0 1 9.743-12.5 10.3 10.3 0 0 1 3.873.279c7.572 2.045 5.585 19.684-12.954 18.337z" class="B"/><path d="M401.966 103.684a28.28 28.28 0 0 1-2.036-.077c-.72-.085-1.246-.722-1.192-1.446s.667-1.276 1.392-1.254c10.184.743 14.725-4.45 15.517-9.121.541-3.189-.73-5.95-3.018-6.567a9.01 9.01 0 0 0-3.36-.239 9.92 9.92 0 0 0-8.558 11.013 1.36 1.36 0 0 1-1.209 1.444 1.36 1.36 0 0 1-1.491-1.151c-.8-6.871 4.076-13.108 10.937-13.99 1.466-.173 2.952-.066 4.378.315 3.662.991 5.752 5.036 4.955 9.626-.964 5.862-6.387 11.447-16.315 11.447z" class="C"/><path d="M68.415 546.373h399.98" class="B"/><path d="M468.395 547.725H68.415a1.35 1.35 0 0 1-1.299-1.35 1.35 1.35 0 0 1 1.299-1.35h399.98a1.35 1.35 0 0 1 1.299 1.35 1.35 1.35 0 0 1-1.299 1.35z" class="C"/><path d="M56.294 546.373H35.097" class="B"/><path d="M56.294 547.725h-21.2a1.35 1.35 0 0 1-1.299-1.35 1.35 1.35 0 0 1 1.299-1.35h21.2a1.35 1.35 0 0 1 1.299 1.35 1.35 1.35 0 0 1-1.299 1.35z" class="C"/><path d="M488.039 546.373H477.44" class="B"/><path d="M488.034 547.725h-10.59a1.35 1.35 0 0 1-1.299-1.35 1.35 1.35 0 0 1 1.299-1.35h10.6a1.35 1.35 0 0 1 1.299 1.35 1.35 1.35 0 0 1-1.299 1.35z" class="C"/><path d="M178.473 563.638h179.865" class="B"/><path d="M358.338 564.99H178.472a1.35 1.35 0 0 1-1.299-1.35 1.35 1.35 0 0 1 1.299-1.35h179.866a1.35 1.35 0 0 1 1.299 1.35 1.35 1.35 0 0 1-1.299 1.35z" class="C"/><path d="M117.769 563.638H155.6" class="B"/><path d="M155.6 564.99h-37.836a1.35 1.35 0 0 1-1.299-1.35 1.35 1.35 0 0 1 1.299-1.35H155.6a1.35 1.35 0 0 1 1.299 1.35 1.35 1.35 0 0 1-1.299 1.35z" class="C"/><path d="M385.224 563.638h12.436" class="B"/><path d="M397.66 564.99h-12.436a1.35 1.35 0 0 1-1.299-1.35 1.35 1.35 0 0 1 1.299-1.35h12.436a1.35 1.35 0 0 1 1.213 2.04 1.35 1.35 0 0 1-1.213.66z" class="C"/><path d="M223.633 296.62H66.884c-3.842-.095-7.096-2.859-7.81-6.635L16.734 24.908c-.331-1.672.124-3.403 1.234-4.697s2.752-2.006 4.455-1.933h156.749a8.16 8.16 0 0 1 7.81 6.63l42.34 265.077a5.56 5.56 0 0 1-5.689 6.635z" class="B"/><path d="M223.634 297.971H66.885c-4.497-.117-8.305-3.351-9.148-7.77L15.396 25.122a6.91 6.91 0 0 1 7.027-8.193h156.749c4.496.118 8.302 3.352 9.144 7.77l42.34 265.077a6.91 6.91 0 0 1-7.027 8.2zM22.427 19.63c-1.311-.043-2.573.498-3.446 1.477a4.36 4.36 0 0 0-.9 3.6l42.34 265.077c.592 3.132 3.291 5.424 6.477 5.5h156.746c1.312.042 2.574-.501 3.446-1.482.822-1.006 1.152-2.326.9-3.6L185.65 25.121c-.595-3.127-3.291-5.414-6.473-5.491z" class="C"/><path d="M211.814 180.329H41.562L20.342 47.48h170.253z" class="B"/><path d="M211.81 181.68H41.548a1.35 1.35 0 0 1-1.351-1.14L18.982 47.688a1.35 1.35 0 0 1 1.351-1.563h170.262a1.35 1.35 0 0 1 1.351 1.14l21.22 132.849a1.35 1.35 0 0 1-1.351 1.563zm-169.1-2.7h167.519L189.442 48.83H21.927z" class="C"/><path d="M44.445 38.741H33.873c-.839-.023-1.577-.56-1.856-1.351l-2.95-8.45a1.39 1.39 0 0 1 1.329-1.937h13.779c1.064.019 1.924.873 1.95 1.937l-.257 8.45a1.35 1.35 0 0 1-1.423 1.351z" fill="url(#E)"/><path d="M174.781 30.557h-12.725a2.18 2.18 0 0 1-2.085-1.77h0c-.087-.446.034-.908.33-1.253s.733-.536 1.188-.517h12.725c1.026.024 1.895.762 2.086 1.77h0a1.48 1.48 0 0 1-1.518 1.77z" fill="url(#D)"/><path d="M176.109 38.742h-12.747a2.18 2.18 0 0 1-2.085-1.77h0c-.087-.447.035-.909.332-1.254s.736-.535 1.19-.516h12.725a2.17 2.17 0 0 1 2.081 1.77h0a1.48 1.48 0 0 1-1.5 1.77z" fill="url(#F)"/><g clip-path="url(#G)" transform="translate(7.684 50.916)"><path d="M100.022 81.231c17.45-.761 18.792-8.973 15.346-21.328 2.608-4.054 5.585-8.973 2.937-18.233-2.473-8.639-18.3-18.373-30.323-7.328h0c-.275.077-9.135 2.658-9.3 19.2-.16 16.812 1.706 28.549 21.34 27.689z" class="C"/><path d="M118.061 112.441c2.252 8.806 4.671 18.468 8.427 26.634 4.793 7.765 15.418 19.841 22.715 18.513 9.5-1.73 3.306-25.224 1.8-30.814-.068-.261-9.626-16.639-14.243-29.494a27.9 27.9 0 0 0-15.909-16.607c0 0-7.898 11.809-2.79 31.768z" fill="url(#C)"/><path d="M64.897 84.063s17.882-12.567 55.966-3.428c0 0 14.17 18.639 14.729 37.647.144 4.8-2.6 13.738-2.536 19.278a324.16 324.16 0 0 0 3.716 44.232l-79.218 2.559s-4.579-45.201 7.343-100.288z" fill="url(#C)"/><path d="M133.178 143.682h0a.66.66 0 0 0 .644-.685l-.122-5.405a57.3 57.3 0 0 1 1.315-9.941c.7-3.072 1.111-6.203 1.225-9.351-.45-15.1-9.364-29.944-13.175-35.624-.219-.264-.602-.318-.886-.126s-.376.568-.214.869c3.748 5.581 12.513 20.161 12.95 34.922a49.49 49.49 0 0 1-1.2 9.063 59.11 59.11 0 0 0-1.351 10.2c0 1.775.063 3.6.122 5.455.024.361.331.637.692.623z" fill="url(#H)"/><path d="M60.997 179.486h0l70.587-1.64c.364-.019.647-.324.64-.689s-.302-.658-.667-.662l-70.573 1.662c-.248-.01-.48.117-.607.33s-.127.478 0 .691.36.34.607.33z" fill="url(#I)"/><path d="M85.37 80.586c2.015 4.739 6.029 8.339 10.959 9.828a63.6 63.6 0 0 1 3.067-10.121c2.07 3.031 3.483 6.462 4.148 10.072a12.39 12.39 0 0 0 9.008-10.008c-.991-7.8-7.7-13.67-13.454-13.477-12.71.432-13.728 13.706-13.728 13.706z" fill="url(#C)"/><path d="M96.13 91.049c-5.109-1.558-9.27-5.293-11.369-10.205a.72.72 0 0 1-.054-.311c0-.14 1.216-13.873 14.378-14.319 5.815-.212 13.062 5.527 14.134 14.053a.49.49 0 0 1 0 .162 13.19 13.19 0 0 1-9.5 10.572.66.66 0 0 1-.833-.536c-.581-3.088-1.708-6.047-3.329-8.738-1.086 2.864-1.947 5.808-2.576 8.806-.062.313-.334.54-.653.545a.73.73 0 0 1-.198-.029zm3.8-11.144c1.993 2.901 3.395 6.166 4.126 9.608 4.109-1.361 7.124-4.887 7.833-9.157-1-7.554-7.545-12.959-12.761-12.81-11.373.383-12.923 11.4-13.062 12.932 1.859 4.245 5.397 7.528 9.77 9.063.75-3.232 1.739-6.405 2.959-9.491.089-.224.293-.382.532-.414h.086a.66.66 0 0 1 .518.27z" fill="url(#C)"/><path d="M91.658 51.182l.212 7.819.351 13.382c4.5 3.153 8.878 3.477 13.1.306l-.617-6.216-.937-9.436z" class="B"/><path d="M91.852 72.906c-.171-.122-.274-.317-.279-.527l-.577-21.2c-.005-.232.11-.45.305-.576s.441-.141.65-.041l12.108 5.878c.206.102.346.302.369.531l1.554 15.63c.024.232-.075.459-.261.6a10.73 10.73 0 0 1-6.509 2.351 12.92 12.92 0 0 1-7.36-2.646zm11.292-15.418l-10.81-5.239.522 19.766c4.221 2.842 8.072 2.955 11.747.351z" class="C"/><path d="M114.093 52.601c-.45 6.455-2.031 14.211-9.788 13.279-9.22-1.113-15.373-7.391-15.765-16.116s3.473-13.788 13.963-13.143c.892.05 1.778.176 2.649.378 6.072 1.414 9.265 6.306 9.09 12.162-.027 1.056-.063 2.224-.149 3.44z" class="B"/><g class="C"><path d="M105.536 66.618c1.782.049 3.522-.543 4.905-1.667 3.32-2.752 4.054-8.342 4.315-12.306.086-1.23.126-2.387.158-3.473.194-6.482-3.486-11.4-9.6-12.824-.359-.083-.717.141-.8.5s.141.717.5.8c5.464 1.27 8.747 5.675 8.558 11.486l-.153 3.423c-.248 3.721-.9 8.945-3.842 11.373-1.468 1.155-3.362 1.624-5.2 1.288a18.68 18.68 0 0 1-9.171-3.563c-.187-.148-.439-.183-.66-.094s-.376.291-.408.527.067.471.257.615a19.92 19.92 0 0 0 9.819 3.833c.441.054.885.081 1.329.081z"/><path d="M112.571 39.043s-.77 14.391-19.99 14.5c0 0-11.418-3.518-7.572-14.5s22.711-13.621 27.562 0z"/></g><path d="M158.348 94.954l3.653-25.373c.113-1.428-2.527-5.711-8.351-6.153s-7.139 1.54-7.139 3.405-.9 8.788-.9 8.788l.113-10.108c-.108-1.32-3.405-2.085-3.6.113s-1.1 17.9-1.1 17.9-7.581-2.306-9.558-2.419-1.757 3.076-.766 3.626 17.846 12.522 17.846 12.522z" class="B"/><path d="M148.155 97.806L130.368 85.32c-.946-.523-1.284-2.189-.955-3.329a1.98 1.98 0 0 1 2.076-1.531c3.014.535 5.989 1.27 8.905 2.2l1.054-17.094a2.14 2.14 0 0 1 2.279-1.982h.027a2.78 2.78 0 0 1 2.531 1.423 3.29 3.29 0 0 1 .676-.856c1.248-1.158 3.513-1.622 6.756-1.378 2.865.14 5.552 1.429 7.455 3.575a5.22 5.22 0 0 1 1.5 3.293c-.113 1.437-3.513 24.44-3.658 25.422a.66.66 0 0 1-.5.549l-9.806 2.306a.84.84 0 0 1-.153 0 .69.69 0 0 1-.4-.112zm13.18-28.278a4.19 4.19 0 0 0-1.185-2.324c-1.674-1.88-4.039-3.003-6.554-3.112-2.793-.212-4.774.144-5.729 1.031a2.2 2.2 0 0 0-.694 1.712c0 1.887-.847 8.59-.9 8.873-.059.338-.365.577-.707.551s-.609-.308-.617-.651c.077-3.027.194-9.009.113-10.031 0-.252-.64-.662-1.351-.667h0c-.9 0-.937.59-.955.788-.216 2.158-1.09 17.715-1.1 17.873-.006.197-.1.381-.257.5a.66.66 0 0 1-.572.09c-2.085-.635-7.842-2.3-9.4-2.387-.275 0-.577.041-.73.581a2.03 2.03 0 0 0 .32 1.8c.955.531 15.085 10.554 17.67 12.387l9.072-2.113 3.581-24.9z" class="C"/><path d="M159.416 93.072l-12.855 3.545-2.306 33.611c-.991 9.882-1.153 25.873 4.955 27.354s21.535-6.968 18.949-22.071c-4.127-24.08-8.743-42.439-8.743-42.439z" fill="url(#C)"/><path d="M145.351 153.789c.076 0 .15-.014.221-.041.345-.123.526-.501.406-.847-2.405-6.711-1.414-19.008-1.054-22.62l1.09-13.855c.023-.239-.086-.472-.283-.608s-.453-.156-.669-.051-.358.319-.371.559l-1.09 13.842c-.45 4.7-1.306 16.4 1.126 23.184.096.262.346.437.625.437z" fill="url(#J)"/><path d="M148.155 104.332a.67.67 0 0 0 .162 0l11.369-2.886c.23-.058.412-.234.477-.462s.003-.474-.162-.644-.409-.24-.639-.182l-11.369 2.888a.66.66 0 0 0-.447.71.66.66 0 0 0 .609.578z" fill="url(#K)"/><circle cx="156.245" cy="97.473" r="1.82" fill="url(#L)"/><path d="M153.758 97.473a2.48 2.48 0 0 1 4.237-1.755 2.48 2.48 0 0 1-1.755 4.237c-1.371 0-2.482-1.111-2.482-2.482zm1.329 0c0 .637.516 1.153 1.153 1.153s1.153-.516 1.153-1.153-.516-1.153-1.153-1.153c-.306 0-.599.121-.815.338s-.338.509-.338.815z" class="D"/><path d="M64.897 84.064s-22.49 11.261-20.512 100.225h29.08s-.356-59.11 1.757-73.185c2.634-17.581-4.834-26.59-10.325-27.04z" fill="url(#C)"/><path d="M73.443 173.28a.66.66 0 0 0 .667-.662c0-18.643.27-51.416 1.77-61.416 2.252-15.067-2.725-23.8-7.684-26.7-.316-.185-.722-.079-.908.236s-.079.722.237.908c4.955 2.905 9.063 11.869 7.04 25.355-1.513 10.085-1.766 42.93-1.8 61.614a.66.66 0 0 0 .662.662z" fill="url(#C)"/><path d="M92.581 54.646a6.76 6.76 0 0 0-6.067-7.256 6.18 6.18 0 0 0-2.3.243c-4.473 1.374-2.928 11.851 8.108 10.671z" class="B"/><path d="M90.658 59.06c.575-.001 1.149-.033 1.721-.095.336-.07.564-.383.527-.724s-.326-.599-.669-.596c-6.153.662-9.009-2.405-9.594-5.234-.4-1.959.342-3.7 1.766-4.135.663-.203 1.358-.276 2.049-.216 3.305.314 5.74 3.232 5.459 6.54-.021.361.252.673.613.7s.677-.24.711-.6a7.4 7.4 0 0 0-6.675-7.968 6.9 6.9 0 0 0-2.549.27c-2.09.644-3.216 3.031-2.676 5.68.682 3.302 3.803 6.378 9.317 6.378z" class="C"/></g><circle cx="172.491" cy="153.24" r="16.887" fill="url(#D)"/><path d="M176.761 157.501s-4.5 4.5-10.009 5.567a2.32 2.32 0 0 1-2.045-.7l-1.8-1.8c-.852-.711-.978-1.972-.284-2.838l2.072-2.072a2.03 2.03 0 0 1 2.838.284l.977.977c.593-.085 1.17-.254 1.716-.5 2.475-1.018 4.441-2.984 5.459-5.459a6.3 6.3 0 0 0 .5-1.712l-.977-.959c-.853-.71-.981-1.971-.288-2.838l2.072-2.072c.867-.693 2.128-.565 2.838.288l1.8 1.8c.557.525.821 1.289.707 2.045-1.076 5.484-5.576 9.989-5.576 9.989z" class="B"/><path d="M283.675 32.336a8.85 8.85 0 0 0 4.59-4.558l1.175-2.703 1.176 2.7a8.85 8.85 0 0 0 4.572 4.572l2.7 1.176-2.7 1.176a8.85 8.85 0 0 0-4.572 4.572l-1.176 2.7-1.176-2.7a8.85 8.85 0 0 0-4.572-4.572l-2.7-1.176z" fill="url(#M)"/><path d="M2.063 282.116c1.567-.682 2.818-1.933 3.5-3.5l.9-2.063.9 2.063c.682 1.567 1.933 2.818 3.5 3.5l2.063.9-2.063.9c-1.567.682-2.818 1.933-3.5 3.5l-.9 2.067-.9-2.067c-.682-1.567-1.933-2.818-3.5-3.5l-2.063-.9z" fill="url(#D)"/><path d="M29.972 319.574c2.478-1.081 4.455-3.058 5.536-5.536l1.419-3.266 1.423 3.266c1.081 2.478 3.058 4.455 5.536 5.536l3.261 1.419-3.261 1.423c-2.478 1.081-4.455 3.058-5.536 5.536l-1.423 3.261-1.419-3.261c-1.081-2.478-3.058-4.455-5.536-5.536l-3.266-1.41z" class="D"/><path d="M424.816 12.391a15.08 15.08 0 0 0 7.8-7.8l2-4.594 2 4.594a15.07 15.07 0 0 0 7.792 7.8l4.6 2-4.6 2a15.06 15.06 0 0 0-7.792 7.792l-2 4.6-2-4.612a15.07 15.07 0 0 0-7.8-7.792l-4.594-2z" fill="url(#D)"/><circle cx="449.964" cy="102.126" r="5.144" fill="url(#C)"/><path d="M172.505 196.95a9.08 9.08 0 0 0-2.058.185 14.63 14.63 0 0 0-1.973.559 8.85 8.85 0 0 0-3.072 3.707 10.56 10.56 0 0 0-1.072 2.509v.022c-.09.324-.149.658-.207.987l-.09.45c-.036.248-.04.5-.054.752l-.045.626v.036a12.53 12.53 0 0 0 .086 1.477c.079.567.205 1.126.378 1.671q.257.923.405 1.392l.45 1.2.135.369.523 1.486c.358.979.772 1.937 1.239 2.869.346.748.734 1.476 1.162 2.18a36.83 36.83 0 0 0 3.662 4.847l2.576 2.9c1.612 1.592 3.335 3.068 5.157 4.414l2.509 1.748c.911.558 1.857 1.056 2.833 1.491l1.306.545.959.4 1.392.523.608.216c.194.083.393.155.595.216l.419.149.486.14a7.1 7.1 0 0 0 .9.36c.277.003.552.039.82.108l.14.036c.236.06.468.135.694.225h1.545c1.895-.017 3.755-.516 5.405-1.45 1.95-1.086 3.126-2.1 3.531-3.072a6.76 6.76 0 0 0 .311-.9h0l.293-1.063a9.99 9.99 0 0 0 .293-2.04c.011-.25-.019-.499-.09-.739a3.89 3.89 0 0 1-.153-.131c-.225-.245-.484-.456-.77-.626-.001.012-.001.024 0 .036l-1.257-.766c-.365-.185-.9-.559-1.563-.928s-1.293-.554-1.856-.928-1.054-.554-1.541-.9c-.272-.14-.516-.327-.721-.554a8.44 8.44 0 0 1-1.045-.558 1.31 1.31 0 0 0-.811-.185c-.562.05-1.082.316-1.45.743-.577.554-1.113 1.3-1.595 1.851-.447.67-.962 1.292-1.536 1.856a1.98 1.98 0 0 1-1.351.743c-.237.013-.472-.054-.667-.189-.252 0-.45-.185-.581-.185-.249-.087-.483-.212-.694-.369-.329-.185-.514-.374-.554-.374a32.1 32.1 0 0 1-6.8-5.036c-1.987-2.043-3.683-4.349-5.04-6.855a3.46 3.46 0 0 1-.351-.559l-.405-.743c-.054 0-.135-.185-.23-.554-.092-.172-.141-.364-.144-.559a2.46 2.46 0 0 1 .811-1.482c.558-.558 1.158-.9 1.8-1.482.666-.408 1.272-.906 1.8-1.482.563-.743.842-1.113.842-1.482a2.3 2.3 0 0 0-.2-.928l-.64-.928c-.27-.554-.45-.743-.491-.743l-.9-1.667-1.013-1.856c-.369-.554-.658-1.112-.869-1.482-.344-.845-.868-1.604-1.536-2.225z" fill="url(#D)"/><path d="M134.533 243.595a19.7 19.7 0 0 0 11.161 37.151 2.61 2.61 0 0 0 2.185-3.275v-.054a2.6 2.6 0 0 0-2.8-1.9c-7.784.878-14.854-4.597-15.951-12.353s4.175-14.978 11.897-16.294c7.446-1.275 14.54 3.8 16.526 11.089l.347 1.279c.464 1.745-.567 3.538-2.309 4.014s-3.542-.545-4.029-2.284l-2.594-9.518a1.32 1.32 0 0 0-1.617-.923l-2.531.689a1.3 1.3 0 0 0-.946 1.252c-2.418-.499-4.935.028-6.95 1.455a9.2 9.2 0 0 0 7.657 16.441c2.001-.556 3.75-1.782 4.955-3.473a8.56 8.56 0 0 0 9.482.608 8.47 8.47 0 0 0 3.806-9.792l-.451-1.653a19.65 19.65 0 0 0-27.836-12.459zm8.608 21.792c-1.54.423-3.183-.123-4.162-1.384s-1.103-2.988-.312-4.375 2.34-2.161 3.924-1.96 2.891 1.337 3.311 2.877a3.9 3.9 0 0 1-2.761 4.842z" fill="url(#C)"/><path d="M110.58 235.696l-38.521 5.68a4.12 4.12 0 0 1-4.662-3.464l-3.6-24.517a4.12 4.12 0 0 1 3.459-4.657l38.507-5.675c2.24-.325 4.321 1.221 4.657 3.459l3.6 24.517a4.12 4.12 0 0 1-3.464 4.657zm-42.471-20.72a.94.94 0 1 1 1.077-1.545l14.864 10.36a7.38 7.38 0 0 0 10.022-1.477l11.229-14.2a.94.94 0 0 1 1.614.235.94.94 0 0 1-.136.932l-11.243 14.208a9.26 9.26 0 0 1-12.576 1.856l-14.864-10.36zm41.624 14.454a.94.94 0 1 1-1.077 1.545l-7.274-5.063a.94.94 0 0 1-.214-1.297.94.94 0 0 1 1.291-.248zm-33.147-1.265a.94.94 0 0 1 1.623.233.94.94 0 0 1-.15.938l-5.5 6.986c-.205.277-.544.421-.886.374s-.63-.276-.754-.597-.061-.685.162-.948z" fill-rule="evenodd" fill="url(#D)"/></svg>
