<svg xmlns="http://www.w3.org/2000/svg" xmlns:xlink="http://www.w3.org/1999/xlink" width="814" height="702.423" xmlns:v="https://vecta.io/nano"><style><![CDATA[.B{fill:#262424}.C{fill:#fff}]]></style><defs><linearGradient id="A" y1=".5" x2=".999" y2=".5"><stop offset="0" stop-color="#1b89ca"/><stop offset="1" stop-color="#2e3792"/></linearGradient><linearGradient id="B" x1=".001" y1=".501" x2=".999" y2=".501"><stop offset="0" stop-color="#ce2e82"/><stop offset="1" stop-color="#601f5f"/></linearGradient><linearGradient id="C" x1="0" x2="1" xlink:href="#A"/><linearGradient id="D" x1="0" y1=".499" y2=".499" xlink:href="#B"/><linearGradient id="E" x1="0" y1=".499" x2="1" y2=".499" xlink:href="#A"/><linearGradient id="F" x1="0" y1=".5" x2="1" y2=".5" xlink:href="#B"/><linearGradient id="G" x1="0" y1=".501" x2="1.001" y2=".501" xlink:href="#A"/><linearGradient id="H" x1="-.001" y1=".5" x2="1" y2=".5" xlink:href="#B"/><linearGradient id="I" x2="1" xlink:href="#B"/><linearGradient id="J" x1="-.002" xlink:href="#B"/><linearGradient id="K" x1="-.002" y1=".5" x2="1" y2=".5" xlink:href="#B"/><linearGradient id="L" x1="-.001" x2="1.001" xlink:href="#B"/><linearGradient id="M" y1=".5" x2="1.001" y2=".5" xlink:href="#B"/><linearGradient id="N" x1="-.002" x2=".998" xlink:href="#A"/></defs><path d="M2.341 576.593h329.262c13.11 0 25.621-3.9 34.814-10.811h0c12.783-9.61 17.3-23.724 11.7-36.638l-14.306-32.854c-16.809-38.56-2.992-80.843 35.793-109.373h0c27.137-19.94 63.802-31.171 101.988-31.171h218.949l-165.64 25.346c-20.671 3.724-39.111 12.373-52.547 24.565h0c-22.248 20.241-28.123 47.809-15.285 72.074l50.1 95.138c17.516 33.274 8 71.053-24.533 97.42h0c-23.935 19.4-57.769 30.391-93.181 30.391H2.341z" class="C"/><path d="M419.533 702.424H2.177c-1.2 0-2.177-.721-2.177-1.622s.98-1.622 2.177-1.622h417.3c34.775 0 68.135-10.871 91.591-29.911 31.782-25.707 41.251-63.305 24.109-95.739l-50.122-95.138c-13.061-24.806-7.075-53.095 15.619-73.7 13.66-12.433 32.707-21.322 53.714-25.106l144.815-22.1H501.654c-37.877 0-73.577 10.871-100.516 30.692-38.421 28.229-51.972 69.552-35.265 107.691l14.313 32.854c5.877 13.514 1.2 28.169-12.245 38.259-9.524 7.147-22.8 11.292-36.408 11.292H2.177c-1.2 0-2.177-.721-2.177-1.622s.98-1.622 2.177-1.622h329.411c12.408 0 24.544-3.784 33.251-10.331 12.3-9.25 16.544-22.643 11.156-34.956l-14.313-32.854a82.26 82.26 0 0 1-2.993-59.341c6.422-19.58 20.027-37.479 39.346-51.713 27.756-20.358 64.545-31.59 103.565-31.59h219.045c.982-.122 1.906.49 2.177 1.441.109.841-.653 1.562-1.741 1.742l-165.713 25.347c-19.973 3.6-38.258 12.133-51.319 24.025-21.714 19.76-27.483 46.728-14.966 70.513l50.117 95.132c8.762 16.637 11.047 34.656 6.639 52.194s-15.347 33.755-31.619 46.908c-24.158 19.585-58.769 30.877-94.687 30.877z" class="B"/><path d="M313.199 570.348l2.985 25.226h16.915v-26.848z" class="C"/><path d="M333.096 596.952h-16.913c-.674-.036-1.233-.535-1.346-1.2l-2.985-25.286a1.32 1.32 0 0 1 .293-1.021 1.21 1.21 0 0 1 .936-.481l19.9-1.622a1.22 1.22 0 0 1 .995.36c.287.259.438.636.41 1.021v26.848a1.26 1.26 0 0 1-1.29 1.381zm-15.743-2.7h14.4v-24.025l-17.089 1.381z" class="B"/><path d="M340.526 470.945l-.351 7.267-4.565 76.1h-31.072l-7.959-91.414s-54.895-85.648-58.055-97.9c-2.224-8.589-1.346-32.493-.585-46.007.431-9.324 4.686-18.058 11.763-24.145 4.389-3.664 10.007-6.487 16.8-6.186 18.084.841 27.038 22.1 27.038 22.1l43.249 132.2c.117.42.293.841.41 1.2l3.745 11.412c.171.718-.005 6.724-.418 15.373z" fill="url(#A)"/><path d="M340.53 470.946l-.351 7.267c-5.091-3-8.9-8.949-9.656-16.1-.761-7.328 1.931-14.054 6.555-18.079l3.746 11.412c.289.845.116 6.851-.294 15.5zm-93.579-140.785h19.02a2.85 2.85 0 0 1 2.812 2.883v16.877a4.33 4.33 0 0 1-2.4 3.9l-8.31 4.024a4.12 4.12 0 0 1-3.745-.06l-8.018-4.324c-1.371-.767-2.221-2.213-2.224-3.784v-16.573a2.87 2.87 0 0 1 .814-2.074c.54-.554 1.279-.867 2.051-.869z" class="C"/><path d="M323.149 553.171a1.34 1.34 0 0 1-1.346-1.382v-93.453l-46.058-97.18a1.38 1.38 0 0 1 .585-1.8c.651-.318 1.436-.05 1.756.6l46.233 97.48a1.01 1.01 0 0 1 .117.6v93.817c.021.35-.107.693-.352.944s-.584.387-.935.374z" class="B"/><path d="M335.028 575.393h-30.725a2.71 2.71 0 0 1-2.692-2.522l-1.873-20.541c-.08-.764.167-1.526.68-2.098s1.244-.899 2.012-.902h34.529a2.75 2.75 0 0 1 2.692 3l-1.873 20.541c-.144 1.416-1.326 2.5-2.75 2.522z" fill="url(#B)"/><path d="M377.75 640.741h-67.887s-.468-3.183-.819-9.009c-.624-13.419-.036-26.867 1.756-40.181h27.623s6.906 18.379 17.791 25.466c8.72 5.706 18.318 5.345 20.951 14.715a23.65 23.65 0 0 1 .585 9.009z" fill="url(#C)"/><path d="M377.75 640.74h-67.887s-.468-3.183-.819-9.009h68.121a23.65 23.65 0 0 1 .585 9.009z" class="C"/><path d="M377.75 642.122h-67.887c-.659.007-1.215-.486-1.288-1.141 0-.12-.468-3.3-.819-9.13a1.66 1.66 0 0 1 .351-1.021 1.19 1.19 0 0 1 .995-.421h68.121a1.4 1.4 0 0 1 1.287.961c.76 3.103.958 6.317.585 9.49-.049.708-.635 1.258-1.345 1.262zm-66.716-2.763h65.487c.137-2.089.019-4.186-.351-6.246h-65.663l.526 6.246z" class="B"/><path d="M345.036 319.71s-1.58 49.071-7.432 71.474c-4.1 15.8-22.414 69.011-32.831 98.982l-7.321 21.021-5.5 8.649-34.061 53.515-26.039-18.259 22.883-56.155 21.185-122.466s-15.158-44.986 9.305-74.176 58.465-24.869 59.811 17.415z" fill="url(#C)"/><path d="M304.772 490.165l-7.315 21.022-5.5 8.649c-3.8-4.084-4.974-11.111-2.575-17.838 2.749-7.568 9.245-12.373 15.39-11.833z" class="C"/><path d="M300.442 504.039a1.26 1.26 0 0 1-.468-.06 1.37 1.37 0 0 1-.819-1.742l25.048-73.1a1.32 1.32 0 0 1 1.7-.841 1.37 1.37 0 0 1 .819 1.742l-25.048 73.155c-.204.504-.689.837-1.232.846zm-31.487-86.008h-.234a1.31 1.31 0 0 1-1.053-1.562l6.906-39.881a110.22 110.22 0 0 1-4.506-26.187c-.995-19.82 3.921-36.818 14.163-49.01a1.24 1.24 0 0 1 1.873-.12 1.32 1.32 0 0 1 .117 1.922c-12.348 14.715-14.163 33.695-13.519 47.028a105.61 105.61 0 0 0 4.448 25.827 1.33 1.33 0 0 1 .059.661l-6.964 40.241a1.33 1.33 0 0 1-1.29 1.081z" class="B"/><path d="M284.64 330.881h19.02a2.85 2.85 0 0 1 2.809 2.883v16.877a4.33 4.33 0 0 1-2.4 3.9l-8.31 4.024a4.12 4.12 0 0 1-3.746-.06l-8.018-4.324c-1.371-.767-2.221-2.213-2.224-3.784v-16.573a2.91 2.91 0 0 1 2.869-2.943z" class="C"/><g class="B"><path d="M326.601 348.9h-.468a1.35 1.35 0 0 1-1.255-1.378 1.35 1.35 0 0 1 1.313-1.322c2.792.174 5.53-.828 7.55-2.763 4.331-4.2 4.506-11.832 4.506-11.892a1.33 1.33 0 0 1 1.346-1.324h.058a1.33 1.33 0 0 1 1.287 1.381c0 .36-.234 8.829-5.384 13.814-2.382 2.338-5.618 3.597-8.953 3.484z"/><path d="M251.75 565.303c-.228.005-.452-.058-.644-.18a1.4 1.4 0 0 1-.527-1.862c.351-.6 32.6-58.981 35.407-64.326 2.692-5.225 25.575-79.942 31.427-107.27 5.618-26.187 9.832-61.864 9.89-62.224a1.41 1.41 0 0 1 1.463-1.2 1.43 1.43 0 0 1 1.17 1.5c-.059.36-4.331 36.217-9.949 62.524-5.443 25.646-28.5 101.925-31.661 107.991-2.809 5.406-34.119 61.984-35.465 64.386a1.3 1.3 0 0 1-1.111.661z"/></g><path d="M234.369 543.56c7.257-.3 27.564.721 33.592 20.661a4.22 4.22 0 0 1-.585 3.724l-14.163 19.64a3.79 3.79 0 0 1-3.628 1.622c-5.852-.661-21.127-3.6-27.916-16.037a4.3 4.3 0 0 1-.234-3.6l9.364-23.484c.576-1.481 1.981-2.476 3.57-2.526z" fill="url(#D)"/><path d="M228.34 570.59l-9.773 23.664 13.987 9.25 14.865-21.982c.058-.003-6.145-15.198-19.079-10.932z" class="C"/><path d="M232.613 604.884c-.254.003-.501-.082-.7-.24l-13.987-9.25c-.536-.377-.752-1.067-.527-1.682l9.773-23.664a1.5 1.5 0 0 1 .819-.781c13.929-4.565 20.717 11.532 20.776 11.652.167.435.123.923-.117 1.322l-14.865 21.983a1.59 1.59 0 0 1-1.172.66zm-12.352-11.175l12 7.928 13.694-20.3c-1.288-2.7-6.73-12.433-16.621-9.67z" class="B"/><path d="M265.035 665.605l-.293 6.006h-46.643s-24.989-45.531-24.989-49.37c0-1.5 3.1-6.847 6.847-12.733 5.735-9.009 12.934-19.28 12.934-19.28s21.946-10.631 28.325 15.015l4.506 38.019s18.084 11.472 19.02 12.553c.527.541.468 5.526.293 9.79z" fill="url(#E)"/><path d="M265.035 665.606l-.293 6.006h-46.643s-24.989-45.527-24.989-49.371c0-1.5 3.1-6.847 6.847-12.733 3.211-.924 6.655-.558 9.6 1.021 10.71 5.946 19.547 26.427 31.9 51.173l2.341 3.964h21.244z" class="C"/><path d="M264.742 672.934h-46.643c-.497.006-.952-.274-1.17-.721-5.911-10.751-25.165-46.187-25.165-50.031 0-.781 0-2.4 7.081-13.514.19-.294.482-.507.819-.6 3.547-.985 7.337-.577 10.593 1.141 9.539 5.285 17.381 21.2 27.33 41.383l5.092 10.271 1.931 3.243h20.425c.355.013.69.164.936.42a1.22 1.22 0 0 1 .351 1.021l-.293 6.006a1.3 1.3 0 0 1-1.287 1.381zm-45.824-2.7h44.595c.059-.841.117-1.982.176-3.243H243.85a1.25 1.25 0 0 1-1.112-.661l-2.341-3.964-.059-.06-5.15-10.331c-9.715-19.76-17.381-35.316-26.218-40.241-2.51-1.345-5.43-1.709-8.193-1.021-5.794 9.129-6.321 11.172-6.321 11.532.234 2.88 14.982 30.628 24.463 47.986z" class="B"/><path d="M239.285 671.552h-21.186s-24.989-45.527-24.989-49.371c0 0 2.634-7.748 10.476-5.706s12.758 12.253 20.073 26.067l15.626 29.01z" class="C"/><path d="M239.285 672.933h-21.186c-.497.006-.952-.274-1.17-.721-5.911-10.751-25.165-46.188-25.165-50.032-.009-.162.011-.325.059-.48 1.053-3.123 4.974-8.469 12.056-6.607 7.9 2.042 12.758 11.232 19.488 24.025.468.9.936 1.8 1.463 2.7l15.567 29.01c.234.431.234.95 0 1.381-.179.453-.625.744-1.112.724zm-20.366-2.7h18.145l-14.514-27.028c-.468-.9-.995-1.8-1.463-2.7-6.379-12.133-11.061-20.9-17.791-22.643-5.911-1.562-8.31 3.364-8.837 4.565.816 3.722 15.155 30.806 24.46 47.803z" class="B"/><path d="M198.318 200.907s9.949 45.287 15.216 55.8c5.326 10.571 23.936 9.61 34.88-7.628l-18.962-18.559-20.19-36.16z" class="C"/><path d="M225.765 264.933h-.936c-5.618-.3-10.183-3.063-12.465-7.568-5.326-10.571-14.923-54.3-15.333-56.158-.134-.587.126-1.193.644-1.5l11-6.547c.296-.189.662-.234.995-.12a1.3 1.3 0 0 1 .819.661l20.073 36.037 18.846 18.442a1.4 1.4 0 0 1 .176 1.742c-7.14 11.046-16.796 15.011-23.819 15.011zm-25.926-63.365c1.463 6.667 10.183 45.106 14.923 54.536 1.814 3.664 5.56 5.886 10.242 6.126 6.145.3 15.041-2.943 21.771-12.913l-18.142-17.778a1.05 1.05 0 0 1-.234-.3l-19.605-35.016z" class="B"/><path d="M264.976 203.309l-16.445 13.817-21.127-7.328-15.688 16.275-20.717-4.925-13.46 16.937-22.123-2.943-32.3-94.3 26.218 3.484 15.86-20 24.521 5.766 18.61-19.28 24.991 8.714 19.43-16.4z" fill="url(#C)"/><path d="M174.558 229.435a1.32 1.32 0 0 1-1.288-.961l-22.18-73.7c-.115-.339-.086-.711.08-1.029a1.31 1.31 0 0 1 .798-.653 1.27 1.27 0 0 1 1.639.9l22.18 73.7c.115.339.086.711-.08 1.029a1.31 1.31 0 0 1-.798.653c-.117.001-.234.061-.351.061zm13.987-16.096a1.38 1.38 0 0 1-1.288-1.021l-20.893-78.441a1.39 1.39 0 0 1 .936-1.682 1.35 1.35 0 0 1 1.639.961l20.893 78.441a1.39 1.39 0 0 1-.936 1.682c-.117 0-.234.06-.351.06zm21.24 5.646a1.32 1.32 0 0 1-1.288-1.081l-18.138-79.158c-.163-.721.279-1.44.995-1.622a1.33 1.33 0 0 1 1.58 1.021l18.142 79.162c.163.721-.279 1.44-.995 1.622a.62.62 0 0 1-.296.056zm15.689-17.898c-.64.014-1.19-.449-1.287-1.081l-15.216-78.861c-.112-.73.341-1.427 1.053-1.622a1.42 1.42 0 0 1 1.58 1.081l15.216 78.861c.112.73-.341 1.427-1.053 1.622zm21.361 5.466a1.28 1.28 0 0 1-1.288-1.141l-11.763-74.777a1.35 1.35 0 0 1 1.112-1.562c.354-.056.716.033 1.002.248a1.33 1.33 0 0 1 .52.893l11.763 74.777a1.35 1.35 0 0 1-1.112 1.562z" class="C"/><path d="M267.61 165.77a58.4 58.4 0 0 0-24.112 21.142c-10.125 15.436-23.936 41.983-23.936 41.983s4.1 29.791 33.3 22.523c0 0 23.409-45.827 27.974-63.846 4.626-17.958-3.102-26.246-13.226-21.802z" fill="url(#F)"/><path d="M250.112 249.256c-18.669 0-27.447-20.241-27.564-20.481-.148-.331-.158-.708-.026-1.046s.393-.61.726-.754a1.3 1.3 0 0 1 1.756.721c.117.24 8.486 19.46 26.043 18.8.753-.017 1.381.571 1.413 1.324s-.544 1.392-1.296 1.439z" class="B"/><path d="M303.075 139.584s2.634 7.508 13.577 11.472c12.114 4.385 18.084-13.214 18.2-28.77.118-15.616-38.156-14.655-31.777 17.298z" class="C"/><path d="M320.281 153.098c-1.403-.002-2.794-.267-4.1-.781-11.354-4.144-14.221-11.952-14.338-12.253 0-.06-.059-.12-.059-.18-2.809-14.175 3.1-21.322 6.906-24.325 6.847-5.406 15.977-5.406 21.478-2.643 3.921 1.982 6.086 5.345 6.028 9.31-.059 10.09-2.751 23.664-9.89 28.83a10.14 10.14 0 0 1-6.025 2.042zm-15.974-13.934c.351.841 3.1 7.087 12.7 10.571a7.73 7.73 0 0 0 7.667-.9c5.911-4.264 8.661-16.457 8.778-26.607.059-3.9-2.868-6.006-4.565-6.847-4.623-2.342-12.7-2.342-18.669 2.342-3.982 3.122-8.255 9.428-5.911 21.441z" class="B"/><path d="M304.362 141.686l-3.745 16.757 17.557 1.321.936-17.538z" class="C"/><g class="B"><path d="M318.174 161.145h-.117l-17.557-1.381c-.397-.018-.764-.217-.995-.541a1.51 1.51 0 0 1-.234-1.141l3.746-16.757c.124-.641.693-1.099 1.346-1.081l14.806.541c.355.013.69.164.936.42a1.54 1.54 0 0 1 .351 1.021l-.995 17.538c-.006.374-.178.725-.468.961-.19.263-.494.419-.819.42zm-15.918-3.964l14.631 1.141.819-14.777-12.348-.48z"/><path d="M313.024 100.304s-9.013-5.045-18.61 4.2-.41 31.773 8.369 39.941h16.5l10.768-19.88 5.091 5.225a20.89 20.89 0 0 0 3.628-21.2c-4.619-12.551-22.062-9.668-25.746-8.286z"/></g><path d="M329.995 124.749l.058-.18s3.98-7.087 9.949-2.883-1.17 20.481-10.768 14.475h0c-.657-3.81-.396-7.723.761-11.412z" class="C"/><path d="M333.447 138.803c-1.748-.022-3.453-.542-4.916-1.5a1.44 1.44 0 0 1-.644-.9c-.686-4.029-.425-8.161.761-12.072h0l.059-.18c.001-.093.044-.181.117-.24.117-.18 2.224-3.9 5.852-4.745a7.18 7.18 0 0 1 6.028 1.441c3.863 2.7 3.277 9.009.585 13.334-1.989 3.181-4.857 4.862-7.842 4.862zm-2.985-3.484c4.74 2.523 7.784-1.562 8.661-2.883 2.048-3.243 2.575-7.868.117-9.55-1.089-.909-2.527-1.284-3.921-1.021-2.224.541-3.745 2.763-4.1 3.3h0a22.85 22.85 0 0 0-.756 10.155z" class="B"/><path d="M293.535 163.609l2.458-9.55s11.061-4.745 26.57.841l1.931 9.61z" fill="url(#G)"/><path d="M267.61 165.771s16.5-6.967 41.961-5.045 40.908 9.55 40.908 9.55 9.188 44.266 9.364 56.819-14.689 23.064-14.689 23.064l6.262 71.714H233.198s1.873-111.776 34.412-156.102z" fill="url(#F)"/><path d="M239.869 250.519h-.234a1.4 1.4 0 0 1-1.112-1.562c6.2-38.86 15.626-67.149 28.033-84.027a1.3 1.3 0 0 1 1.873-.24c.591.468.696 1.325.234 1.922-12.173 16.517-21.419 44.386-27.506 82.825-.096.633-.648 1.096-1.288 1.082zm108.385 64.806H237.06a1.38 1.38 0 0 1-1.345-1.381 1.38 1.38 0 0 1 1.345-1.381h111.194a1.38 1.38 0 0 1 1.345 1.382 1.38 1.38 0 0 1-1.345 1.381z" class="B"/><path d="M287.801 109.253l-1.229 7.388c-.171 1.154.566 2.248 1.7 2.523l5.735 1.141c.584.113 1.189-.024 1.667-.378s.786-.892.849-1.484l.936-7.748c.081-.559-.065-1.128-.406-1.579s-.848-.747-1.408-.821l-5.443-.781a2 2 0 0 0-2.401 1.739z" class="C"/><g class="B"><path d="M294.357 121.688a2.34 2.34 0 0 1-.644-.06l-5.735-1.141a3.53 3.53 0 0 1-2.751-4.084l1.229-7.388h0a3.54 3.54 0 0 1 3.921-2.943l5.443.781c1.885.316 3.179 2.07 2.926 3.964l-.936 7.748c-.116.959-.623 1.827-1.4 2.4a3.17 3.17 0 0 1-2.053.723zm-5.269-12.2l-1.229 7.388c-.044.434.226.837.644.961l5.735 1.141a.95.95 0 0 0 .644-.12c.19-.121.318-.318.351-.541l.936-7.748a.8.8 0 0 0-.7-.9l-5.443-.781c-.205-.085-.438-.065-.625.055s-.303.324-.311.545z"/><path d="M266.557 208.595c-34.763 16.817-44.829-21.983-35.289-26.187s24.053-12.973 16.738-29.31-11.939-43.365 7.315-54.176c19.254-10.871 35.7 11.111 35.7 11.111.037 2.55-.503 5.076-1.58 7.388-7.842 1.261-11.822 8.048-7.14 23.965 5.032 16.938 19.019 50.332-15.744 67.209z"/></g><path d="M379.215 216.343l15.567-27.688.878-46.968a2.3 2.3 0 0 1 2.282-2.282h0a2.35 2.35 0 0 1 2.282 2.042l2.458 22.223s14.631.3 17.03 4.385c2.107 3.6-2.516 14.475-2.516 14.475s.117 6.126-1.17 8.469c-1.346 2.342-5.969 4.625-5.969 4.625s-9.715 71.714-25.106 71.053-31.9-27.689-31.9-27.689z" class="C"/><path d="M385.185 268.057h-.293c-15.918-.721-32.246-27.208-32.949-28.349a1.33 1.33 0 0 1 .293-1.742l25.984-22.463 15.274-27.148.878-46.608a3.66 3.66 0 0 1 3.57-3.6 3.6 3.6 0 0 1 3.57 3.3l2.282 21.022c4.1.18 14.631.961 16.972 4.985 2.224 3.844-1.288 12.973-2.341 15.436 0 1.381-.059 6.547-1.4 8.889-1.229 2.1-4.506 4.084-5.911 4.865-.468 3.484-2.809 19.46-6.613 35.2-5.916 24.321-12.236 36.213-19.316 36.213zm-30.374-28.83c3.1 4.8 17.264 25.466 30.2 26.067h.176c10.3 0 19.839-42.764 23.468-69.852a1.26 1.26 0 0 1 .761-1.021c1.639-.841 4.623-2.7 5.443-4.084.819-1.441 1.053-5.526.995-7.748a2.18 2.18 0 0 1 .117-.6c1.814-4.264 3.8-11.172 2.575-13.214-1.4-2.342-10.125-3.6-15.918-3.724-.669-.021-1.22-.534-1.288-1.2l-2.458-22.223c-.057-.475-.457-.835-.936-.841-.253 0-.494.102-.671.283s-.272.425-.265.678l-.878 46.968c.005.233-.056.462-.176.661l-15.571 27.687a1.58 1.58 0 0 1-.293.36zm24.4-22.884z" class="B"/><path d="M350.537 170.277l37.747 45.527c.351 21.382-8.076 34.355-32.012 32.433 0 0-24.17-31.653-30.14-52.614-6.027-21.022 13.637-31.653 24.405-25.346z" fill="url(#H)"/><path d="M350.538 241.75a1.24 1.24 0 0 1-1.053-.541c-7.374-10.511-20.425-30.391-24.638-45.167-4.1-14.355 3.1-24.265 12.056-27.628a1.34 1.34 0 0 1 1.7.781c.243.69-.089 1.451-.761 1.742-7.784 2.943-14.046 11.652-10.417 24.325 4.1 14.355 16.972 33.935 24.229 44.326.412.621.285 1.452-.293 1.922a2.47 2.47 0 0 1-.823.24zm10.592 1.501a25.41 25.41 0 0 1-5.209-.48c-.716-.182-1.158-.901-.995-1.622.073-.345.281-.647.578-.839s.657-.257 1.002-.182c.117 0 10.3 2.162 17.791-3.784 5.033-4.024 7.842-10.811 8.252-20.181a1.35 1.35 0 0 1 2.085-1.111 1.35 1.35 0 0 1 .607 1.231c-.41 10.211-3.57 17.718-9.305 22.223a23.69 23.69 0 0 1-14.806 4.745z" class="B"/><ellipse cx="136.125" cy="315.565" rx="29.613" ry="30.391" fill="url(#C)"/><ellipse cx="698.066" cy="652.091" rx="29.613" ry="30.391" fill="url(#F)"/><ellipse cx="679.689" cy="43.544" rx="18.376" ry="18.859" fill="url(#C)"/><ellipse cx="525.099" cy="15.796" rx="15.392" ry="15.796" fill="url(#I)"/><ellipse cx="564.651" cy="202.048" rx="6.262" ry="6.427" fill="url(#J)"/><ellipse cx="199.447" cy="415.749" rx="9.013" ry="9.25" fill="url(#K)"/><ellipse cx="772.038" cy="537.194" rx="12.992" ry="13.334" fill="url(#L)"/><g fill-rule="evenodd"><path d="M772.155 306.976a13.17 13.17 0 0 1-19.847 11.677 13.17 13.17 0 0 1-6.489-11.677l-.117-7.087c0-8.709 1.4-15.856 4.214-21.5 2.809-5.586 8.427-11.952 16.855-18.98s13.519-11.652 15.157-13.814a18.56 18.56 0 0 0 3.8-11.412c.041-5.671-2.448-11.066-6.789-14.715-4.506-4.084-10.534-6.126-18.2-6.126-7.374 0-13.519 2.162-18.493 6.427-4.916 4.324-8.369 10.871-10.183 19.7-.752 7.129-6.998 12.392-14.151 11.924s-12.66-6.5-12.477-13.666c.01-.582.049-1.164.117-1.742.761-12.613 5.969-23.3 15.743-32.133q14.572-13.244 38.274-13.214 24.931 0 39.679 13.334 14.748 13.334 14.748 31.052c-.024 6.568-1.889 12.998-5.384 18.559-3.628 5.826-11.295 13.814-23.117 23.845-6.086 5.165-9.89 9.37-11.353 12.553s-2.107 8.829-1.99 17zm-13.109 23.6a15.38 15.38 0 0 1 11.415 26.11 15.38 15.38 0 0 1-26.397-10.734c-.054-4.026 1.495-7.909 4.305-10.793s6.651-4.533 10.677-4.583z" fill="url(#M)"/><path d="M636.265 526.803c.09 3.697-1.831 7.152-5.019 9.027s-7.141 1.875-10.328 0-5.109-5.33-5.019-9.027l-.059-5.466c0-6.727 1.112-12.313 3.277-16.637s6.5-9.25 13.051-14.715c6.555-5.406 10.476-9.009 11.7-10.691a14.45 14.45 0 0 0 2.985-8.829 14.86 14.86 0 0 0-5.267-11.412c-3.453-3.183-8.193-4.745-14.1-4.745a21.09 21.09 0 0 0-14.28 4.985c-3.8 3.364-6.438 8.409-7.9 15.256-.587 5.518-5.428 9.586-10.964 9.215s-9.791-5.049-9.636-10.596a9.55 9.55 0 0 1 .058-1.321c.585-9.79 4.623-18.019 12.173-24.866 7.491-6.847 17.381-10.211 29.613-10.211 12.875 0 23.117 3.484 30.666 10.331 7.608 6.907 11.412 14.9 11.412 24.025a27.18 27.18 0 0 1-4.155 14.355c-2.809 4.5-8.72 10.691-17.908 18.439q-7.111 6.036-8.779 9.73c-1.112 2.4-1.639 6.787-1.522 13.153zm-10.183 18.2a11.9 11.9 0 0 1 8.835 20.201 11.9 11.9 0 0 1-20.423-8.309c-.068-6.477 5.111-11.792 11.588-11.892z" fill="url(#C)"/><path d="M507.748 298.747c.075 3.102-1.537 6.001-4.211 7.574s-5.992 1.573-8.666 0-4.287-4.472-4.211-7.574l-.059-4.625c0-5.646.936-10.331 2.751-13.994s5.5-7.748 10.944-12.373q8.252-6.847 9.832-9.009a12.46 12.46 0 0 0-1.873-17c-2.926-2.643-6.847-4.024-11.822-4.024-4.385-.155-8.669 1.344-12 4.2-3.219 2.823-5.443 7.087-6.613 12.793-.465 4.63-4.508 8.064-9.153 7.773s-8.228-4.202-8.111-8.854a7.45 7.45 0 0 1 .059-1.141 29.9 29.9 0 0 1 10.242-20.9c6.321-5.766 14.631-8.589 24.872-8.589 10.827 0 19.43 2.883 25.809 8.709 6.379 5.766 9.6 12.493 9.6 20.181-.011 4.274-1.228 8.458-3.511 12.072-2.341 3.784-7.374 8.949-15.04 15.5-3.98 3.363-6.438 6.126-7.374 8.168-1.112 2.1-1.522 5.826-1.463 11.112zm-8.544 15.316c4.056-.105 7.772 2.257 9.398 5.975s.837 8.05-1.995 10.956-7.142 3.807-10.901 2.278-6.217-5.182-6.217-9.24a9.82 9.82 0 0 1 9.715-9.97z" fill="url(#N)"/></g></svg>
