<svg xmlns="http://www.w3.org/2000/svg" xmlns:xlink="http://www.w3.org/1999/xlink" width="750.598" height="698.798" xmlns:v="https://vecta.io/nano"><style><![CDATA[.B{fill:#262424}.C{fill:#fff}.D{fill:url(#D)}.E{fill:url(#E)}.F{fill:url(#H)}.G{fill:url(#C)}.H{fill:url(#G)}.I{stroke-linejoin:round}.J{stroke-miterlimit:10}]]></style><defs><linearGradient id="A" y1=".5" x2="1" y2=".5"><stop offset="0" stop-color="#1b89ca"/><stop offset="1" stop-color="#2e3792"/></linearGradient><linearGradient id="B" x1="0" xlink:href="#A"/><linearGradient id="C" x1="0" xlink:href="#A"/><linearGradient id="D" x1="0" xlink:href="#A"/><linearGradient id="E" y1=".5" x2="1" y2=".5"><stop offset="0" stop-color="#ce2e82"/><stop offset="1" stop-color="#601f5f"/></linearGradient><linearGradient id="F" x1="0" xlink:href="#E"/><linearGradient id="G" x1="0" xlink:href="#E"/><linearGradient id="H" x1="0" xlink:href="#E"/><linearGradient id="I" x1="-.001" xlink:href="#E"/></defs><g transform="translate(-54.574 -19.001)"><path d="M682.557 423.667l-8.881 3.661-5.984-19.615-1.518-4.977 10.791-.16 1.91 7.193z" class="C"/><g class="B"><path d="M673.753 427.974a.64.64 0 0 1-.692-.454l-7.5-24.593a.64.64 0 0 1 .1-.568.63.63 0 0 1 .511-.263l10.791-.165a.64.64 0 0 1 .635.48l5.592 21.1c.083.313-.078.64-.377.764l-8.881 3.661a1.22 1.22 0 0 1-.179.038zm-6.712-24.6l7.048 23.09 7.7-3.175-5.313-20.059z"/><path d="M678.876 409.768l-11.184-2.055-1.518-4.977 10.791-.16z"/></g><path d="M669.618 468.712c-.258-1.379-.2-5.117-.491-10.766l-1.306-31.981 14.328-11.793c4.141 3.077 8.679 6.748 11.938 9.423l4.451 3.712-23.6 45.767c-1.946-.389-3.663-1.523-4.786-3.16a3.4 3.4 0 0 1-.534-1.202z" fill="url(#A)"/><path d="M670.15 469.92l23.932-46.325 4.451 3.712-23.6 45.767a7.63 7.63 0 0 1-4.783-3.154z" class="C"/><path d="M675.013 473.72c-.069.01-.139.006-.206-.01-2.115-.428-3.981-1.663-5.2-3.444-.123-.195-.135-.439-.031-.645l23.932-46.325a.65.65 0 0 1 .986-.2l4.461 3.718a.65.65 0 0 1 .155.79l-23.6 45.767c-.096.193-.283.324-.497.349zm-4.11-3.852a7.06 7.06 0 0 0 3.692 2.463l23.132-44.864-3.434-2.866z" class="B"/><path d="M717.435 320.799l-.237.351c-2.85 4.224-9.413 11.2-16.538 18.319-12.1 12.087-25.853 24.551-25.853 24.551 2.055 8.87 6.227 38.022 6.227 38.022-8.84 4.812-21.268 6.129-21.268 6.129s-8.9-22.6-13.972-37.966c-2.215-6.723-3.707-12.051-3.392-13.5.558-2.545 2.721-6.63 5.84-11.53 12.5-19.641 40.227-52.449 40.227-52.449 14.065-15.371 28.739-19.058 36.06-8.494s.124 25.442-7.094 36.567z" fill="url(#B)"/><g class="B"><path d="M717.197 321.15c-2.85 4.224-9.413 11.2-16.538 18.319l3.253-23.514 11.142 3.093c.005.001.857.837 2.143 2.102z"/><path d="M669.39 396.551a.65.65 0 0 1-.7-.48c-3.444-13.363-6.2-35.286-6.227-35.508a.64.64 0 0 1 .093-.423c9.924-15.676 40.6-44.363 40.914-44.652a.65.65 0 0 1 .639-.163c.227.066.399.251.45.481a.65.65 0 0 1-.205.626c-.3.284-30.613 28.62-40.578 44.2.3 2.38 2.933 22.569 6.165 35.116a.64.64 0 0 1-.07.489.65.65 0 0 1-.395.296zm-9.474 6.108c-.354.047-.679-.202-.725-.556s.202-.679.555-.725c.119-.021 11.984-1.869 18.066-4.7.211-.106.463-.089.657.045s.3.363.276.598-.174.438-.392.53c-6.247 2.912-17.922 4.735-18.417 4.812z"/><path d="M673.728 364.074c-.081.01-.164.005-.243-.016l-15.242-4.131a.65.65 0 0 1-.296-1.092.65.65 0 0 1 .637-.158l15.242 4.131c.167.045.309.155.394.305s.107.328.06.495c-.076.25-.292.433-.552.466z"/></g><path d="M656.327 355.744c.75 6.815-3.812 13.081-10.528 14.462-2.215-6.723-3.707-12.051-3.392-13.5.558-2.545 2.721-6.63 5.84-11.53a13.1 13.1 0 0 1 8.08 10.568z" fill="#fafdfe"/><path d="M800.902 296.806l-.532 15.815-.336 9.888-10.265-3.351.253-3.475 1.3-18.293z" class="C"/><g class="B"><path d="M800.114 323.15a.7.7 0 0 1-.274-.026l-10.265-3.351c-.282-.092-.465-.365-.444-.661l1.549-21.768c.025-.32.28-.575.6-.6l9.583-.583c.182-.012.36.054.491.181s.202.303.196.485l-.867 25.7a.64.64 0 0 1-.274.506c-.087.062-.189.102-.295.117zm-9.66-4.451l8.963 2.928.816-24.133-8.308.506z"/><path d="M800.372 312.622l-.336 9.888-10.265-3.351.248-3.475 10.353-3.062z"/></g><path d="M804.043 256.29c.166 1.394-.15 5.122-.248 10.771l-.888 32-15.1 10.781c-3.919-3.356-8.2-7.327-11.266-10.218l-4.187-4.012 26.684-44.043a7.65 7.65 0 0 1 4.559 3.48c.224.383.375.803.446 1.241z" class="G"/><path d="M803.594 255.051l-27.056 44.575-4.187-4.012 26.684-44.043a7.63 7.63 0 0 1 4.559 3.48z" class="C"/><path d="M776.615 300.266c-.19.021-.38-.041-.521-.17l-4.2-4.017c-.217-.21-.259-.543-.1-.8l26.684-44.043a.65.65 0 0 1 .728-.289 8.31 8.31 0 0 1 4.952 3.79.64.64 0 0 1-.016.645l-27.056 44.575c-.103.164-.273.273-.465.3zm-3.444-4.755l3.232 3.093 26.437-43.561c-.847-1.26-2.081-2.21-3.516-2.706zm-61.432 23.322c-.069.01-.139.006-.207-.01-8.127-1.683-8.2-2.323-8.261-2.788-.067-.547-2.819-16.59-3.878-22.724a.65.65 0 0 1 .527-.749.64.64 0 0 1 .749.527l3.852 22.553a50.25 50.25 0 0 0 7.275 1.91.65.65 0 0 1-.057 1.281z" class="B"/><path d="M804.126 323.717l-5.272 28.827c-1.5 8.421-3.893 18.893-9.568 24.639a13.77 13.77 0 0 1-6.877 3.919 19.88 19.88 0 0 1-12.356-.935c-5.112-2.06-9.981-6.093-15.98-11.189-10.451-8.891-42.742-47.167-42.742-47.167-.955-5.674-4.048-30.618-4.048-30.618-1.559-21.8 30-16.564 38.482-7.626s12.536 24.448 12.769 25.145c.207.635 13.8 27.123 16.347 32.09l.408.8 2.23-12.645 1.756-9.955c15.026-7.429 24.851 4.715 24.851 4.715z" class="D"/><g class="B"><path d="M784.619 360.32l-9.335-18.727 2.231-12.645zm-73.21-37.867c-.352.042-.672-.207-.718-.558l-3.563-26.7c-.023-.171.023-.343.128-.48s.26-.226.43-.248h.01c.352-.042.672.207.718.558l3.563 26.7c.023.171-.023.343-.128.48s-.26.226-.43.248z"/><path d="M786.726 366.815c-.316.039-.613-.159-.7-.465-3.093-10.9-10.962-23.121-11.039-23.245-.139-.194-.161-.448-.055-.662s.32-.353.558-.361.462.116.581.323c.078.124 8.05 12.506 11.2 23.6a.65.65 0 0 1-.444.8c-.033.005-.067.009-.101.01z"/><path d="M784.7 360.964a.66.66 0 0 1-.6-.258l-33.489-46.8a.67.67 0 0 1-.073-.134c-4.074-10.167-13.605-23.6-13.7-23.731-.207-.289-.14-.692.15-.899s.692-.14.898.149c.1.134 9.671 13.626 13.822 23.927l32.513 45.468 5.484-34.749c.069-.338.392-.562.733-.508s.58.365.542.708l-5.726 36.287c-.041.257-.232.465-.485.527a.23.23 0 0 1-.069.012z"/><path d="M802.045 328.163c-.191.022-.382-.042-.521-.176-8.969-8.561-21.262-3.748-21.386-3.7-.331.134-.709-.026-.842-.358s.026-.709.357-.842c.129-.052 13.2-5.163 22.765 3.96.124.118.196.281.2.453s-.061.338-.179.461c-.104.11-.243.182-.394.202zm-54.87-22.341h-.005c-2.36.253-6.454.583-7.342-.01-.852-.573-6.2-9.438-8.457-13.223-.119-.198-.123-.445-.011-.647a.65.65 0 0 1 1.121-.019c2.768 4.642 7.415 12.227 8.1 12.831.49.222 3.749.067 6.459-.222a.65.65 0 0 1 .715.576.65.65 0 0 1-.576.715z"/></g><path d="M789.286 377.184a13.77 13.77 0 0 1-6.877 3.919 19.88 19.88 0 0 1-12.356-.935c.48-4.146 4.13-7.636 8.922-8.2a9.96 9.96 0 0 1 10.311 5.216z" fill="#fafdfe"/><path d="M691.252 284.042l-2.773 8.68s7.141 5.339 24.081 3.666 33.2-12.815 33.2-12.815l-4.42-6.2c.001-.007-26.88 14.884-50.088 6.669z" class="C"/><g class="B"><path d="M713.505 296.935l-.878.093c-17 1.683-24.231-3.568-24.531-3.79-.22-.165-.311-.451-.227-.713l2.773-8.68c.053-.167.172-.306.33-.382a.65.65 0 0 1 .5-.031c22.672 8.024 49.294-6.485 49.557-6.63.288-.16.651-.078.842.191l4.42 6.2c.102.14.141.315.109.485s-.128.319-.269.418c-.169.117-16.031 10.877-32.626 12.839zm-24.262-4.487c1.673 1.007 8.922 4.714 23.25 3.294 14.891-1.44 29.379-10.419 32.348-12.345l-3.7-5.2c-3.816 1.972-28.171 13.807-49.475 6.666z"/><path d="M697.411 295.356c-.171.02-.342-.028-.477-.135s-.221-.262-.241-.433c-.157-2.852-.053-5.712.31-8.545a.65.65 0 0 1 .722-.556.65.65 0 0 1 .564.716c-.345 2.731-.449 5.486-.31 8.235.021.171-.028.342-.135.477s-.263.221-.433.241z"/></g><circle cx="2.396" cy="2.396" r="2.396" transform="matrix(.993097 -.117295 .117295 .993097 700.692 289.541)" class="C"/><path d="M703.708 294.668a3.04 3.04 0 0 1-.713-6.04 3.04 3.04 0 0 1 3.377 2.663c.197 1.668-.996 3.18-2.664 3.377zm-.563-4.761a1.75 1.75 0 0 0-1.533 1.941 1.75 1.75 0 0 0 1.94 1.534 1.75 1.75 0 0 0 1.534-1.94 1.75 1.75 0 0 0-1.944-1.533z" class="B"/><path d="M674.54 142.605l-8.6 38.621 8.726 8.948-2.447 3.9h-.01v.01l-8.757 13.9a172.32 172.32 0 0 1-13.378-13.2c-2.272-2.613-3.955-5-4.125-6.428-.557-4.709 18.474-49.33 18.474-49.33l-2.995-8.256c-.395-.971 3.155-16.786 3.155-16.786.217-1.188 2.323 6.232 2.391 7.378l.439 8.044s7.6 3.738 8.194 5.106c.604 1.391-1.067 8.093-1.067 8.093z" class="C"/><g class="B"><path d="M663.536 208.628a.65.65 0 0 1-.5-.155c-4.718-4.172-9.204-8.598-13.44-13.259-2.711-3.119-4.11-5.339-4.28-6.774-.552-4.668 16.053-43.862 18.423-49.428l-2.9-7.988c-.4-.95 1.482-9.862 3.124-17.173.044-.375.372-.651.749-.63 1.342.083 2.912 8.039 2.917 8.117l.418 7.667c2.143 1.064 7.559 3.867 8.163 5.261.635 1.466-.625 6.857-1.033 8.488l-8.525 38.27 8.483 8.695c.21.215.245.546.083.8l-2.447 3.9c-.008.013-.016.025-.026.036l-8.736 13.874a.65.65 0 0 1-.454.294zm1.311-92.815c-1.513 6.841-2.922 13.936-2.793 14.788.382.9 2.881 7.915 2.984 8.215a.62.62 0 0 1-.016.47c-5.272 12.366-18.867 45.282-18.428 49 .078.651.7 2.308 3.971 6.082a166.45 166.45 0 0 0 12.753 12.635l8.318-13.22a.7.7 0 0 1 .067-.1l2.143-3.413-8.37-8.581c-.154-.156-.218-.38-.17-.594l8.6-38.621c.78-3.139 1.42-6.96 1.105-7.688-.331-.723-4.353-3.046-7.89-4.781-.209-.102-.347-.309-.361-.542 0 0-.382-6.9-.439-8.05a42.03 42.03 0 0 0-1.475-5.6zm.377-1.7z"/><path d="M672.224 194.072l-.005.01-8.757 13.9c-4.696-4.153-9.162-8.56-13.378-13.2l22.13-.713z"/></g><path d="M695.403 204.079l-10.27 14.6-5.705 8.112-.95-.9-9.113-8.695-3.842-3.661-8.1-7.724c2.886-15.96 15.134-20.013 15.134-20.013z" class="E"/><path d="M685.784 217.468l-.645 1.213-5.705 8.112-.95-.9-9.113-8.695zm-24.99-11.297a.71.71 0 0 1-.181-.005c-.352-.056-.592-.386-.537-.738.067-.408 1.729-10.094 12.258-16.719a.65.65 0 0 1 .993.522.65.65 0 0 1-.301.573c-10.012 6.3-11.653 15.738-11.669 15.831-.047.284-.277.503-.563.536zm75.512-37.384c-4.854 2.034-.692 12.129 1.1 15.325s-.49 12.428 5.773 15.423-5.189 15.521 10.678 28.037c12.227 9.645 32.983 1.988 29.973-8.592s-20.013-15.273-22.651-24.985c-1.678-6.18.836-15.18-9.48-18.3-7.7-2.323-11.562-8.514-15.393-6.908z" class="B"/><path d="M728.727 257.271c-.325.909 14.029 20.762 14.029 20.762-7.77 4.175-16.061 7.297-24.655 9.284-14.22 3.268-27.866-2.065-27.866-2.065s-4.735-21.717-5.039-32.818c0 0-11.091-8.235-12.645-16.445-.718-3.821.754-8.333 7.1-17.034 4.288-5.695 9.206-10.888 14.659-15.48 0 0 6.63 1.848 12.867 3.134 2.692.611 5.429 1.008 8.184 1.188a85.61 85.61 0 0 0 3.625-.01c7.869-.15 21.428-.924 21.428-.924l-.2 26.493c-.019 2.167-11.157 23.006-11.487 23.915z" fill="url(#F)"/><path d="M712.772 253.187a.73.73 0 0 1-.181-.005c-16.109-2.654-24.99.021-25.078.046a.65.65 0 0 1-.647-.129c-.176-.158-.251-.399-.197-.629s.229-.412.457-.475c.372-.114 9.227-2.8 25.672-.088a.65.65 0 0 1 .532.744.63.63 0 0 1-.558.537zm-34.925-30.923c-.252.029-.497-.091-.628-.308s-.124-.49.019-.699l1.9-2.69a94.75 94.75 0 0 1 13.755-14.736.65.65 0 0 1 .914.067.65.65 0 0 1-.067.914 93.29 93.29 0 0 0-13.553 14.519 92.41 92.41 0 0 0-1.874 2.654c-.107.157-.277.259-.466.279z" class="B"/><path d="M719.973 213.109c-4.177 4.451-15.763 2.912-16.775-1.854-.563-2.623 2.215-4.027 3.991-4.647.124.031.248.047.367.072l.1-.361 2.339-7.915 7.146-2.623 4.606-1.688-2.964 13.7c.067-.01.14-.005.217-.01 2.173 1.268 3.029 3.127.973 5.326z" class="C"/><g class="B"><path d="M714.238 216.29c-2.097.241-4.221.082-6.258-.47-3.026-.842-5-2.458-5.416-4.43-.5-2.313 1.069-4.229 4.409-5.39.035-.011.071-.02.108-.026l2.287-7.745a.65.65 0 0 1 .4-.423l11.752-4.311a.64.64 0 0 1 .645.119c.178.155.257.394.207.625l-2.84 13.125a4.31 4.31 0 0 1 2.226 2.891 4 4 0 0 1-1.317 3.3h0c-1.688 1.603-3.881 2.57-6.203 2.735zm-7.007-9.015c-1.538.563-3.852 1.766-3.408 3.841.31 1.466 1.993 2.757 4.5 3.454 3.6 1.007 8.747.676 11.173-1.91a2.82 2.82 0 0 0 .981-2.236 3.2 3.2 0 0 0-1.652-1.993.64.64 0 0 1-.527-.212.66.66 0 0 1-.155-.573l2.716-12.547-10.347 3.8-2.349 7.957c-.093.318-.412.515-.738.454-.066-.006-.131-.017-.194-.035zm12.738 5.835h0z"/><path d="M717.481 196.655s-1.394 9.129-9.826 9.666l2.339-7.915 7.146-2.623a4.68 4.68 0 0 1 .341.872z"/></g><path d="M804.525 142.775c.077 2.484-1.456 12.428-2.236 14.147-1.364 2.312-2.869 4.539-4.507 6.666l4.048 39.05c-.134 1.012-11.08 7.358-20.374 12.578l-12.877 7.12-4.017-19.156-.3-1.456 20.245-8.607 5.6-28.579s-6.934-7.28-7.394-8.674.1-8.979.713-9.919c.107-.152.267-.259.449-.3-.108-3.78.17-7.941 1.921-8.148 2.964-.351 3.206 10.755 3.227 12.428.047-1.647.428-12.48 2.778-12.051s2.138 9.738 2.091 11.086c.108-1.342.909-10.311 3.346-10.1 2.628.227 2.375 11.87 2.375 11.87 1.411-10.041 4.834-10.448 4.912-7.955z" class="C"/><path d="M768.65 222.977c-.118.015-.239-.005-.346-.057-.185-.086-.319-.254-.361-.454l-4.316-20.612c-.06-.302.099-.606.382-.728l19.93-8.473 5.468-27.913c-1.564-1.652-6.852-7.3-7.311-8.674-.475-1.461-.01-9.242.785-10.471a1.36 1.36 0 0 1 .336-.351c-.119-5.509.682-8.179 2.5-8.4a1.82 1.82 0 0 1 1.441.475c.924.805 1.508 2.68 1.879 4.8.356-2.127.9-3.914 1.714-4.575.32-.274.746-.392 1.162-.32 1.384.253 2.07 2.411 2.4 4.915.241-1.3.832-2.51 1.709-3.5.348-.312.809-.469 1.275-.434 1.833.16 2.556 3.723 2.824 7.131 1.074-3.32 2.452-4.564 3.589-4.5.857.046 1.435.8 1.466 1.905h0c.078 2.473-1.435 12.542-2.292 14.437a53.03 53.03 0 0 1-4.425 6.583l4.017 38.952c-.078.578-.2 1.549-20.7 13.058l-12.888 7.125a.44.44 0 0 1-.238.081zM765 202.112l4.033 19.244 12.108-6.7c16.7-9.382 19.626-11.638 20.054-12.18.036-1.564-1.472-15.975-4.053-38.812-.019-.162.025-.325.124-.454 1.646-2.066 3.129-4.256 4.435-6.552.707-1.564 2.251-11.416 2.179-13.863-.016-.418-.15-.651-.248-.656-.418-.021-2.365 1.451-3.387 8.68-.045.342-.351.588-.694.559s-.604-.322-.592-.667c.129-5.881-.7-11.117-1.781-11.209a.41.41 0 0 0-.33.134c-1.146.966-1.988 5.4-2.313 9.371-.033.346-.333.604-.68.585s-.617-.309-.611-.657c.2-5.556-.5-10.234-1.559-10.43-.016-.005-.047-.005-.119.052-.945.764-1.725 5.447-1.9 11.385-.013.351-.3.629-.651.63s-.634-.285-.64-.635c-.072-4.946-.738-10.461-2.071-11.628a.53.53 0 0 0-.439-.165c-.718.083-1.5 2.1-1.348 7.487a.64.64 0 0 1-.511.651c-.506.816-1.11 8.055-.681 9.392.284.862 4.409 5.447 7.249 8.426a.64.64 0 0 1 .165.568l-5.6 28.579c-.041.211-.184.387-.382.47zm36.231.31zm3.294-59.651h0z" class="B"/><path d="M740.422 206.857l24.97-6.568s6.392 11.251 7.394 23.426l-34.868 13.373c0 .005-11.87-19.709 2.504-30.231z" class="H"/><path d="M736.761 235.352a.65.65 0 0 1-.661-.367c-2.334-4.967-6.9-17.462 1.146-26.167.245-.252.645-.262.903-.024s.279.639.047.902c-7.513 8.132-3.15 20.013-.924 24.742.149.324.011.707-.31.862-.064.026-.132.044-.201.052zm31.889-12.375c-.33.035-.634-.182-.707-.506-2.711-12.727-5.71-18.846-5.741-18.9-.103-.206-.088-.452.039-.645s.348-.303.578-.289.436.15.539.356c.124.253 3.1 6.3 5.85 19.213.035.168.002.342-.092.486s-.241.243-.408.278c-.013.002-.038.002-.058.007z" class="B"/><path d="M705.978 182.79s-1.472-4.905-4.838-4.44-5.411 10.559 2.231 11.468z" class="C"/><path d="M701.835 190.158c-2.719-.81-4.523-3.385-4.357-6.217-.026-2.752 1.327-5.917 3.568-6.232 3.873-.537 5.478 4.668 5.545 4.89.073.223.019.468-.141.641s-.4.244-.628.189-.408-.231-.47-.457c-.015-.041-1.358-4.373-4.131-3.986-1.312.181-2.478 2.535-2.458 4.936a4.97 4.97 0 0 0 4.673 5.251.64.64 0 0 1 .563.718c-.02.171-.106.327-.241.433s-.306.155-.477.135c-.49-.055-.974-.156-1.446-.3z" class="B"/><path d="M732.1 170.511l1.921-.274a1.7 1.7 0 0 1 1.6.656 5.7 5.7 0 0 1 1.11 2.323 4.01 4.01 0 0 1-.568 2.633 1.71 1.71 0 0 1-1.038.785l-2.143.563c-.495.129-1.022.031-1.437-.269s-.674-.769-.706-1.28l-.2-3.33a1.7 1.7 0 0 1 1.461-1.807z" class="C"/><path d="M731.845 177.787a2.51 2.51 0 0 1-.687-.341 2.34 2.34 0 0 1-.971-1.766l-.2-3.33c-.067-1.223.808-2.296 2.019-2.478h0l1.916-.274c.846-.125 1.692.22 2.21.9.603.762 1.025 1.651 1.234 2.6.153 1.068-.075 2.156-.645 3.072a2.32 2.32 0 0 1-1.435 1.084l-2.143.563a2.4 2.4 0 0 1-1.298-.03zm.346-6.635c-.546.08-.94.564-.909 1.115l.2 3.33a1.06 1.06 0 0 0 .439.8 1.04 1.04 0 0 0 .893.165l2.143-.563a1.04 1.04 0 0 0 .645-.48 3.32 3.32 0 0 0 .49-2.189c-.172-.749-.511-1.45-.991-2.05a1.06 1.06 0 0 0-1-.4z" class="B"/><path d="M703.639 183.833c-1.544 6.16-1.022 13.977 6.361 16.053 5.427 1.523 13.394-3.108 16.383-11.142s3.738-15.474-6.253-18.04c-1.071-.256-2.158-.442-3.253-.558-6.1-.511-8.432-.676-12.34 10.419-.351.981-.609 2.106-.898 3.268z" class="C"/><g class="B"><path d="M709.504 200.413c-7.306-2.267-8.163-10.094-6.5-16.739l.114-.46c.253-1.022.491-1.983.8-2.866 3.883-11.034 6.377-11.4 13-10.848a26.75 26.75 0 0 1 3.361.573c3.774.96 6.361 2.726 7.668 5.22 2.132 4.079.6 9.449-.971 13.672-3.248 8.731-11.653 13.089-17.163 11.54-.098-.025-.206-.061-.309-.092zm11.406-28.816c-.3-.093-.62-.181-.945-.268-1.037-.248-2.089-.427-3.149-.537-5.928-.5-7.926-.661-11.674 9.991-.289.821-.521 1.756-.764 2.747l-.113.465h0c-.749 2.984-2.515 12.867 5.907 15.273 4.962 1.394 12.686-2.907 15.6-10.75 2.163-5.819 2.494-9.831 1.033-12.619-1.032-1.984-2.968-3.394-5.896-4.303z"/><path d="M723.542 188.739c-1.766-1.396-2.627-3.647-2.241-5.865l.408-2.644c-5.519 3.067-14.2 3.279-17.937 3.206a2.8 2.8 0 0 1-2.654-1.921c-2.169-7.146 6.113-16.987 13.708-14.39 10.569-3.325 19.378 4.208 18.547 12-.924 8.659-7.696 11.395-9.831 9.614z"/></g><path d="M723.76 188.31s5.246-2.871 9.01-.238-1.688 11.623-11.628 7.192z" class="C"/><path d="M722.65 196.525a16.4 16.4 0 0 1-1.771-.671c-.216-.09-.366-.291-.392-.524s.076-.461.267-.597.441-.157.652-.056c5.535 2.463 9.759.583 11.339-2.21.728-1.291.909-2.984-.346-3.862-3.4-2.375-8.282.248-8.328.274-.314.171-.707.056-.878-.258s-.056-.707.258-.878c.227-.124 5.643-3.031 9.692-.2 1.657 1.162 1.952 3.392.728 5.556-1.68 2.971-5.81 5.104-11.221 3.426z" class="B"/><path d="M68.502 238.543l.253-.17c4.415-3.139 19.466-19.569 30.582-28.078 3.852-2.948 1.6-12.681-19.047-13.91-1.394-.077-2.871-.124-4.435-.129 0 0-18.8 12.986-20.524 27.613-1.694 14.364 8.612 17.54 13.171 14.674z" class="F"/><path d="M77.41 228.522c.074-.011.146-.036.212-.072a.57.57 0 0 0 .2-.78 22.81 22.81 0 0 0-5.277-6.4c3.805-4.6 16.548-14.968 16.683-15.077a.57.57 0 0 0 .082-.801.57.57 0 0 0-.801-.082c-.568.46-13.874 11.287-17.23 15.727a.57.57 0 0 0-.108.444.55.55 0 0 0 .253.377 19.76 19.76 0 0 1 5.416 6.387c.117.198.341.307.569.277z" class="B"/><path d="M68.503 238.543c-4.792-.774-8.587-3.361-9.268-9.33-1.719-15.128 15.428-28.785 21.061-32.823-1.394-.077-2.871-.124-4.435-.129 0 0-18.8 12.986-20.524 27.613-1.699 14.359 8.607 17.535 13.166 14.669z" class="C"/><path d="M59.921 238.6c-2.4-1.518-6.258-5.458-5.153-14.793 1.73-14.715 19.987-27.479 20.767-28.016.094-.069.208-.104.325-.1a83.1 83.1 0 0 1 4.466.129c.24.014.445.178.511.409s-.021.479-.217.618c-5.313 3.81-22.517 17.4-20.829 32.3.573 5.008 3.532 7.982 8.8 8.834a.57.57 0 0 1 .212 1.043 6.9 6.9 0 0 1-2.788.981 9.25 9.25 0 0 1-6.094-1.405zm-1.255-9.325c-1.637-14.442 13.5-27.51 20-32.394a90.28 90.28 0 0 0-2.628-.052c-1.738 1.24-18.549 13.58-20.138 27.113-1.033 8.721 2.458 12.325 4.631 13.7 1.808 1.165 4.009 1.556 6.108 1.084-4.725-1.292-7.4-4.463-7.973-9.45z" class="B"/><path d="M109.293 207.522l-12.98-3.413c-2.075 1.436-3.248 3.852-3.093 6.371l12.118 5.979z" class="C"/><path d="M105.085 216.976l-12.118-5.979c-.193-.095-.315-.291-.315-.506a7.72 7.72 0 0 1 3.377-6.872.59.59 0 0 1 .429-.057l12.98 3.413c.161.043.294.154.367.304s.076.323.01.476l-3.955 8.943a.57.57 0 0 1-.325.3c-.038.016-.078.026-.119.031a.61.61 0 0 1-.331-.053zm-8.669-12.248a6.75 6.75 0 0 0-2.623 5.4l11.266 5.561 3.444-7.791z" class="B"/><path d="M104.8 224.984s11.865 7.776 23.818 11.876c5.452 1.864 10.92 2.969 15.283 2.22 2.385-.413 5.458-1.895 8.984-4.187 17.132-11.086 44.89-40.909 55.474-56.492 2.504-3.683 4.618-7.616 6.31-11.736 6.423-15.6 5.54-31.093-1.781-36.024-6.057-4.079-13.182-.387-20.663 6.506a181.35 181.35 0 0 0-15.206 16.677c-12.733 15.227-47.058 52.727-47.058 52.727l-17.932-2.556c-13.729 4.918-7.229 20.989-7.229 20.989z" class="D"/><path d="M191.709 149.404l22.961 17.261c6.423-15.6 5.54-31.093-1.781-36.024-6.057-4.079-13.182-.387-20.663 6.506z" class="B"/><path d="M128.619 236.86c5.452 1.864 10.92 2.969 15.283 2.22 2.385-.413 5.458-1.895 8.984-4.187-.392-4.606-5.323-9.893-13.166-9.32-9.614.702-11.751 7.373-11.101 11.287z" class="H"/><path d="M136.843 219.769c.08-.01.156-.038.222-.083 23.452-14.54 67.887-70.876 68.336-71.444a.57.57 0 0 0-.9-.7c-.444.563-44.518 56.445-67.851 71.062l-22.734-4.322a.57.57 0 0 0-.212 1.12l22.951 4.363c.062.012.126.013.188.004zm-28.164 5.903c.021-.005.041-.005.062-.01a.57.57 0 0 0 .413-.692c-3.5-13.817 4.528-17.292 4.869-17.431a.57.57 0 0 0 .291-.732.57.57 0 0 0-.72-.321c-.093.036-9.3 3.945-5.545 18.763a.58.58 0 0 0 .63.423z" class="B"/><path d="M139.591 290.253c3.521 17.617 11.111 26.663 18.448 24.4 1.333-.387 2.56-1.076 3.583-2.014 3.687-3.4 3.558-9.511 3.5-14.488-.077-6.237 1.6-31.625 1.859-36.319s-2.349-10.786-7.559-10.259c-3.521.361-9.815 2.69-14.261 4.482-2.922 1.182-5.05 2.132-5.05 2.132a75.87 75.87 0 0 0-.52 32.066z" fill="url(#F)"/><path d="M163.832 291.125c.289-.038.502-.288.492-.579s-.238-.527-.528-.547c-2.688-.144-5.38.181-7.957.96-1.895-8.53-1.983-29.606-1.983-29.823a.57.57 0 0 0-.568-.568c-.151-.001-.296.058-.403.165s-.166.252-.165.403c0 .914.088 22.455 2.153 30.685.038.156.142.287.284.361s.308.089.46.036c2.611-.854 5.356-1.223 8.1-1.089a.88.88 0 0 0 .115-.004z" class="B"/><path d="M139.591 290.254c3.521 17.617 11.111 26.663 18.448 24.4a9.8 9.8 0 0 0 1.229-.465c-3.361-.253-9.423-2.974-13.931-17.865a77.09 77.09 0 0 1-.7-40.057l-4.533 1.926a75.9 75.9 0 0 0-.513 32.061z" class="C"/><path d="M151.24 314.227c-5.365-3.191-9.81-11.891-12.206-23.86h0a77.34 77.34 0 0 1 .527-32.327.57.57 0 0 1 .315-.367 169.54 169.54 0 0 1 4.549-1.931.57.57 0 0 1 .589.1c.16.144.227.364.176.573-3.283 13.078-3.044 26.792.692 39.747 4.435 14.653 10.316 17.23 13.43 17.462a.57.57 0 0 1 .517.468.57.57 0 0 1-.326.616c-.422.191-.857.355-1.3.49a8.12 8.12 0 0 1-1.358.3 8.54 8.54 0 0 1-5.605-1.271zm-6.444-17.741c-3.689-12.787-4.027-26.307-.981-39.262l-3.227 1.379a76.5 76.5 0 0 0-.444 31.543c2.329 11.654 6.583 20.075 11.669 23.106 1.559 1.006 3.441 1.382 5.267 1.053-3.538-1.219-8.499-5.319-12.284-17.819zm-5.21-6.232h0z" class="B"/><path d="M165.382 261.323l5.282-3.8 7.786-5.607-6.661-8.277-2.571 2.411-8.628 8.075s-2.07 5.923 4.792 7.198z" class="C"/><g class="B"><path d="M165.279 261.886c-1.88-.086-3.606-1.067-4.641-2.64s-1.254-3.545-.589-5.306c.031-.087.082-.165.15-.227l11.2-10.487c.115-.109.271-.165.429-.155s.303.088.4.212l6.661 8.277c.097.123.14.28.118.435s-.105.294-.232.386l-13.068 9.408a.59.59 0 0 1-.258.1.67.67 0 0 1-.17-.003zm6.454-17.411l-10.647 9.965a5.33 5.33 0 0 0 .351 3.934 5.4 5.4 0 0 0 3.816 2.349l12.382-8.912z"/><path d="M170.664 257.523l7.786-5.607-6.661-8.277-2.571 2.411a19.85 19.85 0 0 0 1.446 11.473zm16.909-93.904c.042-.005.084-.016.124-.031l4.1-1.508a.57.57 0 0 0 .361-.418l2.561-12.2c.043-.199-.024-.405-.176-.541s-.364-.18-.557-.116a.57.57 0 0 0-.378.425l-2.5 11.886-3.8 1.4a.57.57 0 0 0 .269 1.1z"/></g><path d="M154.827 181.602c7.92 14.8 28.8 40.656 28.8 40.656l-14.657 17.458c-.176 18.567 14.648 20.772 14.648 20.772s16.961-12.273 26.193-20.219c1.797-1.477 3.478-3.09 5.029-4.823 3.965-4.848 5.716-10.512 2.8-19.559a53.77 53.77 0 0 0-2.964-7.177c-6.588-13.45-27.174-45.654-27.174-45.654s7.43-29.911-3.444-35.472c-12.727-6.506-28.476 12.82-31.966 20.937s-5.185 18.283 2.735 33.081z" class="D"/><g class="B"><path d="M176.379 213.466a.56.56 0 0 0 .268-.114c.12-.092.198-.229.217-.379s-.023-.302-.117-.421c-7.13-9.3-16.636-22.274-21.422-31.222-8.225-15.371-5.773-25.491-2.716-32.591 2.308-5.365 11.091-17.416 20.932-20.963a12.51 12.51 0 0 1 10.254.3c10.352 5.292 3.222 34.532 3.15 34.826-.036.152-.01.311.072.444l12.872 20.653a.57.57 0 0 0 .773.18.57.57 0 0 0 .198-.769l-12.753-20.467c.733-3.062 6.955-30.381-3.795-35.874-3.495-1.715-7.559-1.847-11.158-.361-10.161 3.666-19.218 16.063-21.593 21.583-3.155 7.332-5.7 17.777 2.757 33.577 4.823 9.015 14.364 22.037 21.521 31.377a.6.6 0 0 0 .54.221z"/><path d="M187.579 163.62c.226-.029.413-.192.473-.412s-.019-.455-.199-.595c-.2-.155-4.915-3.774-15.283-6.2-.204-.067-.427-.013-.578.139s-.204.376-.136.579.244.351.456.382c10.094 2.365 14.8 5.953 14.839 5.989.123.091.276.133.428.118z"/></g><path d="M204.259 237.738a8.12 8.12 0 0 0 5.556 2.53c1.797-1.477 3.478-3.09 5.029-4.823 3.965-4.848 5.716-10.512 2.8-19.559a6.52 6.52 0 0 0-5.736-2.979c-11.969.651-14.168 18.346-7.649 24.831z" class="F"/><path d="M177.195 239.757a.56.56 0 0 0 .31-.145l19.378-17.9c.191-.178.238-.462.114-.692-7.471-13.554-34.372-58.872-36.628-62.667 2.835-6.423 11.881-18.526 11.974-18.65a.57.57 0 0 0-.113-.796.57.57 0 0 0-.796.113c-.387.516-9.469 12.676-12.221 19.151a.56.56 0 0 0 .036.511l36.541 62.5-19.054 17.599c-.184.167-.237.434-.131.658s.346.353.591.318zm7.89 16.714a.57.57 0 0 0 .072-1.115c-12.025-3.217-11.989-17.6-11.984-17.746a.57.57 0 0 0-.563-.573.57.57 0 0 0-.573.563c0 .155-.041 15.418 12.826 18.861.073.016.148.02.222.01z" class="B"/><path d="M300.938 71.144l9.408.1 22.011-9.784s6.02-5.339 9.64-1.3c0 0 6.108 5.21-4.4 11.715l-19.7 13.239-21 1.131z" stroke="#262424" class="C I J"/><path d="M248.33 51.173l56.042 14.054s2.866 22.373-11.679 31.543l-44.316-16c-.006.009-14.619-15.666-.047-29.597z" class="E"/><path d="M290.627 93.471a.58.58 0 0 0 .279-.119c11.5-9.278 9.025-26.5 9-26.674-.022-.208-.156-.386-.349-.465s-.414-.045-.575.087-.236.343-.195.548c.026.165 2.4 16.755-8.587 25.615a.57.57 0 0 0 .429 1.007z" class="B"/><path d="M243.327 51.276l-23.41 5.53-34.135 2.019s-23.343 41.663-35.348 78.833c0 0 16.843 21.433 44.358 21.355s37.94-10.657 37.94-10.657-.031-22.935 7.657-39.644c5.814-12.635 18.49-31.873 17.5-46.774a11.84 11.84 0 0 0-14.562-10.662z" class="E"/><path d="M253.855 81.889c.203-.028.376-.162.454-.351 3.15-7.828 4.508-14.251 4.146-19.636a12.27 12.27 0 0 0-3.594-7.89.57.57 0 0 0-.8.811c1.922 1.909 3.082 4.453 3.263 7.156.346 5.21-.986 11.473-4.069 19.135a.57.57 0 0 0 .315.738.5.5 0 0 0 .285.037zm-48.577 72.45a76.03 76.03 0 0 0 24.216-7.311.571.571 0 1 0-.552-1 77.3 77.3 0 0 1-38.528 7.714c-20.607-1.332-35.761-18.443-35.911-18.614a.57.57 0 0 0-.8-.056.57.57 0 0 0-.056.8c.155.176 15.619 17.638 36.7 19a74.71 74.71 0 0 0 14.932-.533z" class="B"/><path d="M222.869 53.155c7.136-.186 18.779 8.365 10.853 18.608-1.541-1.93-3.293-3.681-5.225-5.22-.364 2.646-1.042 5.239-2.019 7.724 0 0-9.16-2.969-12.072-10.605s4.08-10.393 8.463-10.507z" class="C"/><path d="M226.303 74.81c-.382-.124-9.454-3.144-12.428-10.946-1.084-2.845-.96-5.287.367-7.27 1.905-2.845 5.829-3.934 8.607-4.007h0c4.291-.108 10.481 2.855 13.006 7.838 1.327 2.618 2.112 6.774-1.688 11.685a.57.57 0 0 1-.9.005 33.72 33.72 0 0 0-4.363-4.508c-.386 2.356-1.024 4.664-1.905 6.883-.078.186-.249.318-.449.346a.69.69 0 0 1-.247-.026zm2.535-8.721a32.33 32.33 0 0 1 4.859 4.745c2.344-3.335 2.742-6.743 1.146-9.9-2.251-4.44-8-7.316-11.963-7.213h0c-2.706.072-6.134 1.182-7.693 3.506-1.11 1.657-1.193 3.754-.248 6.232 2.391 6.279 9.3 9.34 11.215 10.084.843-2.288 1.438-4.659 1.776-7.074.025-.203.157-.376.346-.454.047-.019.095-.033.145-.041.149-.017.298.025.417.115z" class="B"/><path d="M221.527 39.421l-1.379 7.084-2.354 12.113c3.423 3.733 7.3 4.905 11.731 2.9l.687-5.721 1.038-8.659z" class="C"/><g class="B"><path d="M217.371 59.002c-.123-.131-.175-.314-.139-.491l3.733-19.2a.56.56 0 0 1 .361-.423c.187-.068.395-.034.552.088l9.722 7.714c.154.123.234.316.212.511l-1.725 14.38c-.025.196-.15.366-.33.449-1.002.465-2.067.782-3.16.94-3.304.445-6.397-.882-9.226-3.968zm13.271-11.624l-8.741-6.934-3.5 17.994c3.258 3.439 6.728 4.316 10.59 2.68z"/><path d="M224.883 42.086c-.651 3.191-3.346 13.962 4.931 17.023l1.435-11.974z"/></g><path d="M241.534 42.09c-.805 5.783-2.757 12.666-9.681 11.323-8.235-1.6-13.368-7.662-13.146-15.547s4.027-12.191 13.435-10.931c.8.106 1.589.279 2.36.516 5.375 1.673 7.936 6.273 7.4 11.545l-.368 3.094z" class="C"/><g class="B"><path d="M233.996 54.276c1.301-.059 2.554-.504 3.6-1.28 3.573-2.649 4.456-8.576 5-13.925.692-6.748-3.475-11.907-10.368-12.831a.71.71 0 0 0-.791.979.71.71 0 0 0 .605.421c6.175.831 9.769 5.261 9.149 11.287-.372 3.645-1.069 10.435-4.44 12.934-1.386.974-3.131 1.29-4.771.862a16.64 16.64 0 0 1-7.791-3.619c-.191-.172-.46-.227-.703-.144s-.422.292-.467.545.051.51.251.672a18.23 18.23 0 0 0 8.442 3.934c.752.144 1.519.199 2.284.164z"/><path d="M215.517 38.838c.759 1.197 1.621 2.325 2.576 3.372l3.738.449.764-2.917s3.4-.077 4.017-1.864l.041-.124a23.2 23.2 0 0 0 .568-7.316c0 0 6.32 3.082 9.805 3.583 1.432.087 2.861-.215 4.136-.873 2.788-1.25 5.354-5.623 4.993-8.659 0-.021-.005-.041-.005-.057-.583-4.451-3.005-1.477-3.005-1.477s-.521-3.583-2.742-3.929-3.769 2.9-3.769 2.9a35.14 35.14 0 0 0-13.042-1.043c-8.674.986-6.754 7.012-6.754 7.012s-6.423 1.805-1.321 10.943z"/></g><path d="M222.156 42.658c.229-1.646-.206-3.316-1.209-4.642s-2.491-2.198-4.137-2.426c-.68-.08-1.37-.035-2.034.134-4.182 1.064-3.232 10.781 6.976 10.192z" class="C"/><path d="M221.832 46.479a.57.57 0 0 0 .511-.62.57.57 0 0 0-.619-.511c-5.726.33-8.235-2.644-8.643-5.292-.284-1.848.491-3.439 1.843-3.785.597-.151 1.217-.191 1.828-.119 2.454.338 4.401 2.238 4.8 4.683.024.149.107.282.23.369s.277.12.426.091.28-.11.366-.233.12-.275.094-.423a6.78 6.78 0 0 0-5.793-5.618c-.748-.087-1.506-.038-2.236.145-1.931.491-3.062 2.618-2.685 5.06.521 3.366 3.764 6.6 9.831 6.253z" class="B"/><path d="M159.061 110.881s3.243 9.883 19.6 7.869c10.693-1.317 14.984-7.729 16.667-12.02.893-2.267 7.673-27.2 7.513-34.057s-3.965-16.667-17.059-13.858c-12.118 2.613-25.006 46.082-26.57 51.5a.94.94 0 0 1-.036.129c-.01.026-.016.046-.021.062-.052.2-.088.325-.088.356z" class="F"/><path d="M179.064 119.271c10.967-1.477 15.227-8.344 16.8-12.33.878-2.22 7.714-27.257 7.554-34.279-.052-2.138-.645-9.392-6.211-12.98a.57.57 0 0 0-.769.181.57.57 0 0 0 .155.774c5.1 3.289 5.643 10.058 5.69 12.051.155 6.7-6.619 31.666-7.471 33.835-1.8 4.585-6.02 10.29-15.882 11.623-.108.015-.217.031-.33.041-9 1.11-13.884-1.466-16.4-3.816a.57.57 0 1 0-.78.831c2.69 2.52 7.879 5.277 17.312 4.115zm14.875-17.297a.6.6 0 0 0 .372-.212.56.56 0 0 0-.093-.8c-.134-.1-13.414-10.332-30.288-1.022a.571.571 0 1 0 .552 1c16.2-8.932 28.909.821 29.038.919a.54.54 0 0 0 .419.115z" class="B"/><path d="M159.061 110.876s2.633 8.039 15.149 8.143a35.64 35.64 0 0 0 4.451-.274c10.693-1.317 14.984-7.729 16.667-12.02-2.841-2.683-6.327-4.587-10.12-5.525-3.234-.808-6.586-1.037-9.9-.676-1.146.119-2.21.274-3.2.475-9.717 1.936-12.3 7.528-12.9 9.315-.009.044-.021.087-.036.129-.01.026-.015.046-.021.062-.038.116-.067.235-.088.356z" class="H"/><path d="M179.064 119.271c10.972-1.477 15.232-8.344 16.8-12.33.083-.215.03-.459-.134-.62a23.17 23.17 0 0 0-10.373-5.664c-3.3-.822-6.719-1.056-10.1-.692-1.093.107-2.181.269-3.258.485-4.569.909-8.148 2.711-10.636 5.354a.57.57 0 0 0 .281.955.57.57 0 0 0 .55-.175c2.323-2.468 5.7-4.156 10.037-5.019a31.53 31.53 0 0 1 3.15-.47c3.247-.353 6.531-.129 9.7.661 3.573.88 6.87 2.641 9.588 5.122-1.9 4.57-6.211 10.068-16.068 11.308a35.47 35.47 0 0 1-4.379.268c-6.387-.052-10.063-2.251-12.02-4.084-.109-.103-.255-.158-.405-.154s-.292.069-.395.18a.57.57 0 0 0 .026.805c2.107 1.972 6.036 4.332 12.789 4.389 1.512.004 3.023-.087 4.523-.274z" class="B"/><path d="M173.094 116.74a6.17 6.17 0 0 0 1.115 2.282c2.819 3.666 10.4 5.989 22.718 2.277 10.012-3.026 25.45-11.994 34.32-17.442l6.914-4.348-2.721-6.279-1.2.17-49.031 7.807c-3.234-.808-6.586-1.037-9.9-.676-1.146.119-2.21.274-3.2.475l.289 5.365.434 8.029.01.243c.008.706.092 1.409.252 2.097z" class="C"/><g class="B"><path d="M173.761 119.369a6.64 6.64 0 0 1-1.219-2.494h0c-.172-.721-.262-1.459-.268-2.2l-.728-13.631c-.014-.281.179-.53.454-.589 1.077-.216 2.165-.378 3.258-.485 3.337-.358 6.71-.134 9.97.661 9.826-2.045 37.465-6.124 48.932-7.786l1.208-.17a.57.57 0 0 1 .6.336l2.721 6.279a.57.57 0 0 1-.212.7c-.026.015-2.783 1.817-6.929 4.358-8.488 5.215-24.257 14.421-34.455 17.5-2.36.726-4.773 1.263-7.218 1.606-8.529 1.141-13.832-1.116-16.114-4.085zm61.329-25.517l-.769.108-48.994 7.8c-.085.019-.174.017-.258-.005-3.169-.79-6.453-1.014-9.7-.661-.94.093-1.833.222-2.664.377l.692 12.913.01.258a8.8 8.8 0 0 0 .238 1.962h0a5.5 5.5 0 0 0 1.017 2.07c2.638 3.434 9.831 5.783 22.1 2.076 10.074-3.041 25.744-12.2 34.186-17.38l6.5-4.079z"/><path d="M231.249 103.862l6.914-4.348-2.721-6.279-1.2.17zm-58.85 2.516a55.83 55.83 0 0 1 12.815-5.168 28.23 28.23 0 0 0-9.9-.676l-3.2.475z"/></g><g class="C"><path d="M335.636 59.997l3.459-14.457a1.53 1.53 0 0 1 1.647-1.167h0a1.53 1.53 0 0 1 1.368 1.663l-.563 6.2 8.783-10.843c.52-.64 1.445-.771 2.122-.3h0c.665.465.869 1.358.47 2.065l-4.44 7.828 5.375-5.081c.528-.503 1.241-.764 1.969-.722s1.406.384 1.873.944a23.05 23.05 0 0 1 4.094 7.187c.377 1.11-.023 2.335-.981 3.01l-12.252 8.649-7.76 3.15z" stroke="#262424" class="I J"/><path d="M232.256 93.377l5.215-14.235c.27-.736 1.042-1.159 1.807-.991h0c.836.186 1.368 1.009 1.193 1.848l-1.306 6.206 10.182-9.945a1.6 1.6 0 0 1 2.184-.052h0a1.6 1.6 0 0 1 .227 2.143l-5.421 7.4 6.046-4.513c.596-.445 1.349-.625 2.081-.495s1.379.555 1.786 1.177a23.5 23.5 0 0 1 3.294 7.766 2.7 2.7 0 0 1-1.353 2.933l-13.435 7.31-8.23 2.272z"/></g><path d="M236.588 102.888c-.283.026-.552-.127-.676-.382l-4.27-8.829a.68.68 0 0 1-.026-.532l5.215-14.235a2.25 2.25 0 0 1 4.316 1.239l-.842 4 8.571-8.37c.851-.833 2.2-.872 3.098-.091s1.047 2.122.341 3.081l-2.726 3.723 2.385-1.781a3.38 3.38 0 0 1 4.848.857 24.37 24.37 0 0 1 3.392 7.993 3.39 3.39 0 0 1-1.694 3.676l-13.435 7.306a.5.5 0 0 1-.145.057l-8.23 2.272c-.04.008-.081.013-.122.016zm-3.589-9.547l3.9 8.055 7.606-2.1 13.368-7.27c.783-.424 1.195-1.312 1.012-2.184a22.95 22.95 0 0 0-3.2-7.538c-.304-.465-.786-.783-1.333-.879s-1.109.039-1.553.373l-6.046 4.513c-.271.204-.65.179-.892-.059s-.273-.617-.074-.891l5.421-7.4c.292-.384.236-.929-.128-1.245s-.911-.297-1.251.045l-10.182 9.944c-.216.209-.543.253-.806.108s-.401-.444-.34-.738l1.306-6.206a.88.88 0 0 0-1.688-.48z" class="B"/><path d="M356.815 683.154l14.881 4.177-.351 8.065-17.53-1.842z" class="C"/><path d="M371.282 696.026h-.005l-17.524-1.843c-.184-.019-.351-.12-.454-.274s-.134-.348-.083-.527l3-10.4c.096-.332.443-.523.775-.428l14.878 4.183c.28.079.47.339.46.63l-.356 8.065c-.007.173-.086.336-.217.449-.134.106-.303.157-.474.145zm-16.657-3.021l16.115 1.7.3-6.9-13.8-3.878z" class="B"/><path d="M408.185 714.449a10.23 10.23 0 0 1-4.347 2.711c-4.249 1.452-8.953.405-12.185-2.711-5.664-5.292-23.044-17.638-23.044-17.638 3.191-8.814-.744-12.1-.744-12.1a94.53 94.53 0 0 1 11.354-10.357c2.318-1.843 3.96-3.046 3.96-3.046 12.057 12.605 25.006 43.141 25.006 43.141z" class="D"/><path d="M408.189 714.444a10.23 10.23 0 0 1-4.347 2.711c-6.01-15.422-14.309-29.851-24.619-42.8 2.318-1.843 3.96-3.046 3.96-3.046 12.052 12.603 25.006 43.135 25.006 43.135z" class="C"/><path d="M403.776 717.784a.63.63 0 0 1-.527-.4 164.43 164.43 0 0 0-24.52-42.628.63.63 0 0 1-.139-.465c.018-.166.101-.319.232-.423l3.976-3.062a.63.63 0 0 1 .826.072c12 12.536 25.006 43.02 25.135 43.325a.62.62 0 0 1-.114.666 10.8 10.8 0 0 1-4.616 2.886.59.59 0 0 1-.253.029zm-23.669-43.325c10.024 12.724 18.14 26.841 24.092 41.905a9.61 9.61 0 0 0 3.243-2.045c-1.518-3.511-13.326-30.334-24.34-42.163l-2.995 2.303z" class="B"/><path d="M345.017 675.598s3.15-2.37 8.07-.563 9.593 7.1 6.129 17.121-15.64 12.449-21.221 2.726 7.022-19.284 7.022-19.284z" fill="url(#F)"/><path d="M381.304 629.709l-37.522 44.848c5.463 2.184 12.16 7.177 10.419 14.865-1.735 7.668-8.318 8.38-8.318 8.38a202.94 202.94 0 0 1-23.452-3.749c-.744-.17-1.466-.361-2.189-.552-7.8-2.071-13.4-5.871-11.8-17.225.594-4.312 2.23-9.686 5.184-16.476 10.7-24.686 44.255-83.764 44.255-83.764 11.623-20.271 41.394-20.586 39.081 6.909a104.75 104.75 0 0 1-15.658 46.764z" class="D"/><path d="M355.679 594.992a8.7 8.7 0 0 1-3.78-1.4c-.266-.208-.33-.583-.149-.868s.548-.385.849-.232c1.585 1.202 3.668 1.528 5.545.868 4.874-1.957 7.167-11.091 7.187-11.179.049-.234.221-.422.45-.492s.477-.009.647.158.237.414.173.644c-.1.4-2.473 9.872-7.967 12.082-.937.376-1.951.52-2.955.419z" class="B"/><path d="M325.51 687.295a11.32 11.32 0 0 1-3.072 6.759l-2.189-.552c-7.8-2.07-13.4-5.871-11.8-17.225a11.3 11.3 0 0 1 6.754-1.456 11.46 11.46 0 0 1 10.307 12.474z" class="C"/><g class="B"><path d="M350.901 683.913c-.04-.004-.08-.011-.119-.021l-15.934-4.533a.64.64 0 0 1-.444-.428.65.65 0 0 1 .109-.6l42.649-54.7c.225-.275.629-.32.909-.102s.335.621.124.907l-42.05 53.936 15 4.265c.327.093.53.42.466.754s-.371.565-.709.532z"/><path d="M328.763 681.372a.66.66 0 0 1-.591-.584.66.66 0 0 1 .452-.697l6.139-1.972 6.65-3.749c.313-.159.695-.043.868.262s.074.693-.223.879l-6.707 3.785a.48.48 0 0 1-.119.052l-6.2 1.993a.61.61 0 0 1-.269.031z"/></g><path d="M476.294 691.389h-.021c-6.748 1.177-15.035-20.018-16.894-29.3a56.6 56.6 0 0 1 .01-20.421c.279-1.038 2.731-4.027 5.3-5.927a.43.43 0 0 1 .062-.036c.685-.534 1.435-.979 2.231-1.327 6.908-2.866 12.268 5.184 13.987 21.381 1.694 16.196 2.078 34.391-4.675 35.63z" fill="url(#B)"/><path d="M476.294 691.389h-.025c3.506-3.552 3.878-14.762 1.771-34-2.845-25.966-12.413-22.094-13.3-21.675.685-.534 1.435-.979 2.231-1.327 6.909-2.866 12.268 5.184 13.987 21.381 1.711 16.187 2.09 34.382-4.664 35.621z" class="C"/><path d="M476.237 692.014h-.021a.62.62 0 0 1-.532-.413.63.63 0 0 1 .145-.656c3.232-3.273 3.738-13.915 1.6-33.489-1.58-14.437-5.215-19.316-7.988-20.865-1.338-.802-2.978-.917-4.415-.31-.291.141-.642.036-.809-.241s-.096-.636.164-.828c.729-.565 1.525-1.039 2.37-1.41 2.029-.941 4.392-.815 6.309.336 4.306 2.556 7.342 10.213 8.54 21.557 2.411 23.023.666 35.239-5.184 36.308a.68.68 0 0 1-.179.011zm-8.354-57.292c.763.126 1.497.387 2.169.769 4.4 2.463 7.306 9.81 8.623 21.825 1.864 17.044 1.735 27.283-.475 32.255 3.3-3.687 4.069-15.4 2.148-33.742-1.156-10.941-3.976-18.257-7.936-20.612-1.362-.827-3.021-1.009-4.53-.495z" class="B"/><path d="M452.935 650.81l8.375-8.969s4.058-2.468 4.941 3.6l-5.4 12.635z" class="C"/><path d="M460.794 658.71a.62.62 0 0 1-.367-.16l-7.915-7.27c-.123-.114-.195-.272-.2-.439a.65.65 0 0 1 .17-.454l8.375-8.969a.69.69 0 0 1 .134-.108c1.048-.627 2.325-.737 3.465-.3 1.275.6 2.091 2.065 2.427 4.348a.67.67 0 0 1-.041.336l-5.4 12.635c-.08.187-.245.324-.444.367a.74.74 0 0 1-.204.014zm-6.965-7.931l6.8 6.242 4.977-11.653c-.279-1.714-.857-2.829-1.688-3.217a2.68 2.68 0 0 0-2.21.2z" class="B"/><path d="M441.24 657.925c.225-1.564.733-3.074 1.5-4.456 1.058-1.487 6.284-4.575 9.965-4.642s12.407 3.873 12.851 11.426c.31 4.806-1.283 9.541-4.435 13.182-.847 1.007-3.589 3.94-5.628 3.191s-14.253-18.701-14.253-18.701z" fill="url(#F)"/><path d="M459.234 670.421s-8.648 14.565-13.843 22.1l-2.256 3.072c-3.619 4.5-12.64 7.688-22.538.325a36.56 36.56 0 0 1-6.144-5.917c-12.139-14.509-31.677-63.477-31.677-63.477s3.594-56.812 17.669-60.617c24.175-6.521 30.9 20.994 33.778 37.986 2.886 16.972 5.375 55.448 5.375 55.448 5.855-5.272 11.457-8.081 17.1-2.37 5.624 5.728 2.536 13.45 2.536 13.45z" class="D"/><g class="B"><path d="M383.453 617.822a.78.78 0 0 1-.15-.031c-.2-.067-4.905-1.7-5.468-4.678-.511-2.706 1.528-19.058 1.616-19.755.045-.351.361-.603.713-.568h.021c.359.046.613.374.568.733-.589 4.678-2.024 17.271-1.626 19.347.351 1.849 3.444 3.284 4.606 3.682.316.107.502.434.43.76s-.377.546-.709.51z"/><path d="M382.771 623.585h-.016a.65.65 0 0 1-.573-.728l3.222-27.123c.02-.239.169-.447.388-.544s.473-.067.663.079.285.383.249.62l-3.222 27.123a.66.66 0 0 1-.711.573zm41.755-18.754a7.25 7.25 0 0 1-3.439-1.218c-4.28-2.9-4.564-9.733-4.575-10.022-.019-.239.095-.47.297-.6s.459-.14.669-.024.341.337.34.577c0 .062.274 6.464 4.007 8.989 1.869 1.265 4.353 1.363 7.368.279.338-.113.705.065.825.402s-.052.706-.386.832a11.94 11.94 0 0 1-5.106.785z"/></g><path d="M445.397 692.519l-2.256 3.072c-3.619 4.5-12.64 7.688-22.538.325a17.05 17.05 0 0 1 .057-1.038 12.65 12.65 0 0 1 24.737-2.359z" class="C"/><g class="B"><path d="M438.571 678.774c-.036-.005-.073-.012-.108-.021a.65.65 0 0 1-.475-.522l-12.423-73.959c-.06-.356.181-.694.537-.754s.694.181.754.537l12.185 72.539 14.591-17.777c.233-.267.636-.302.911-.077s.322.626.106.908l-15.505 18.892a.67.67 0 0 1-.573.234z"/><path d="M437.699 683.076c-.016 0-.031-.005-.041-.005-.172-.028-.326-.123-.427-.265s-.143-.318-.115-.489c1.193-7.28 1.874-19.543 1.885-19.667.004-.241.139-.46.352-.572s.471-.098.671.037.31.367.288.607c-.005.124-.7 12.454-1.895 19.806-.06.342-.372.58-.718.548z"/></g><path d="M363.863 478.744l-11.752 18.082s-17.782-20.075-19.275-23.725-.563-35.126-.563-35.126-6.361-4.053-9.351-7.358-5.045-11.829-5.045-11.829c-.17-1.957 5.339-7.75 6.258-7.59.9.16 5.793 8.143 5.943 8.39l-2.045-9.382c-.176-1.167 1-2.132 1.921-1.327s5.628 12.459 5.886 12.769 5.391 3.676 5.391 3.676l2.158-1.513c.346-5.137 2.494-5.076 2.829-4.038s.052 8.478-.356 9.733-2.85 5.757-2.85 5.757l5.38 28.8z" class="C"/><path d="M352.054 497.45c-.157-.015-.303-.089-.408-.207-.728-.821-17.87-20.2-19.388-23.9-1.451-3.563-.723-31.372-.62-35.028-1.317-.857-6.506-4.322-9.175-7.275-3.062-3.382-5.1-11.746-5.189-12.1l-.015-.093c-.16-1.828 3.082-5.452 4.678-6.919 1.4-1.291 1.941-1.415 2.313-1.348.279.047.945.165 4.42 5.561l-1.25-5.84c-.145-.85.254-1.7 1-2.132.637-.348 1.425-.251 1.957.243.63.547 2.091 3.8 4.74 10.006l1.234 2.845c.418.341 2.716 1.89 4.879 3.31l1.564-1.1c.346-4.151 1.864-4.792 2.509-4.869a1.41 1.41 0 0 1 1.523.981c.367 1.151.1 8.716-.356 10.12-.377 1.157-2.308 4.771-2.788 5.669l5.3 28.383 15.314 14.535c.221.209.26.546.093.8l-11.752 18.082a.63.63 0 0 1-.48.284.84.84 0 0 0-.103-.008zm-33.551-78.761c.176.713 2.158 8.488 4.885 11.5 2.9 3.2 9.16 7.213 9.222 7.249a.63.63 0 0 1 .289.547c-.258 8.716-.661 31.976.516 34.873 1.115 2.726 12.356 15.836 18.619 22.925l11.013-16.951-15.082-14.318c-.096-.091-.161-.211-.186-.341l-5.38-28.8c-.027-.141-.004-.288.067-.413.671-1.239 2.489-4.668 2.809-5.654.437-3.097.556-6.23.356-9.351-.016-.078-.091-.131-.17-.119-.325.041-1.218.836-1.43 4.007a.61.61 0 0 1-.263.47l-2.158 1.513a.62.62 0 0 1-.707.01c-3.459-2.267-5.318-3.547-5.53-3.8a23.56 23.56 0 0 1-1.409-3.144c-1.239-2.907-3.821-8.958-4.415-9.557-.132-.143-.345-.178-.516-.083-.282.183-.426.517-.367.847.1.64.744 3.609 1.921 8.829l.114.511c.068.301-.095.606-.382.718a.63.63 0 0 1-.769-.253c-1.618-2.829-3.462-5.523-5.514-8.055-1.217.583-5.569 5.379-5.533 6.841z" class="B"/><path d="M361.09 474.552l-13.698 20.11 21.422 26.1 15.8-25.042c.036-.372-23.524-21.168-23.524-21.168z" class="F"/><path d="M352.05 497.477a.63.63 0 0 1-.294-.1.65.65 0 0 1-.191-.9l11.111-17.1c.197-.302.602-.388.904-.191s.388.602.191.904l-11.111 17.1a.65.65 0 0 1-.61.287zm80.281-31.326c-5.06 1.678-1.632 12.2-.067 15.562s-1.451 12.511 4.642 16.022-6.439 15.273 8.623 29.142c11.607 10.683 33.159 4.549 30.933-6.366s-19.037-16.966-20.953-26.978c-1.219-6.371 2.014-15.263-8.168-19.207-7.593-2.95-11.016-9.502-15.01-8.175z" class="B"/><path d="M382.56 493.718s-15.258 23.266-16.275 28.677 6.521 16.913 6.521 16.913l-18.789 36.654s13.941 23.131 31.068 26.147 50.461-11.576 50.461-11.576l-5.989-40.78 13-21.928-2.773-28.625s-16.843 5.829-28.006 6.01-29.218-11.492-29.218-11.492z" fill="url(#F)"/><path d="M368.428 517.738a.69.69 0 0 1-.258-.083c-.152-.085-.263-.227-.31-.395a.65.65 0 0 1 .062-.498c3.49-6.191 12.888-21.546 12.98-21.7.195-.293.586-.379.886-.196s.401.571.229.878l-12.96 21.66c-.122.229-.371.362-.629.334zm18.366 81.321l-.909-.108c-13.151-1.941-26.622-22.827-27.19-23.715-.153-.301-.052-.668.232-.849s.66-.117.868.149c.134.212 13.719 21.268 26.276 23.121 12.691 1.864 44.528-10.063 44.848-10.182.335-.116.702.056.827.388s-.038.703-.367.836c-1.281.483-31.078 11.651-44.585 10.36z" class="B"/><path d="M408.164 500.099c-7.043-1.239-12.128 3.681-13.177 9.428s5.065 9 5.065 9 3.067-5.886 5.349-6.17 3.919 7.89 3.919 7.89 7.864-1 9.991-8.4-4.909-10.648-11.147-11.748z" fill="url(#B)"/><path d="M404.865 489.138l-2.9 14.38s1.719 4.342 5.158 4.838 7.136-2.907 7.136-2.907l1.544-16.135z" class="C"/><path d="M407.292 509.006l-.253-.031c-3.754-.542-5.576-5.034-5.654-5.225a.6.6 0 0 1-.031-.356l2.9-14.38c.061-.296.323-.508.625-.506l10.946.17a.63.63 0 0 1 .459.212c.119.13.176.305.155.48l-1.544 16.135a.63.63 0 0 1-.2.4c-.159.148-3.789 3.447-7.403 3.101zm-4.668-5.556c.341.754 1.916 3.9 4.6 4.286 2.706.4 5.7-1.962 6.449-2.6l1.456-15.211-9.743-.155z" class="B"/><path d="M427.593 468.057l1.957-.129a1.72 1.72 0 0 1 1.564.785 5.78 5.78 0 0 1 .94 2.432 4.03 4.03 0 0 1-.78 2.613 1.71 1.71 0 0 1-1.11.707l-2.21.4a1.73 1.73 0 0 1-2.039-1.73l.057-3.382a1.74 1.74 0 0 1 1.621-1.696z" class="C"/><path d="M427.422 475.544c-.484-.046-.942-.241-1.311-.558a2.38 2.38 0 0 1-.842-1.859l.057-3.382a2.4 2.4 0 0 1 2.231-2.344h0l1.957-.129a2.37 2.37 0 0 1 2.158 1.084 6.47 6.47 0 0 1 1.043 2.721c.071 1.09-.245 2.171-.893 3.051a2.33 2.33 0 0 1-1.533.981l-2.21.4c-.216.042-.437.054-.657.035zm.212-6.831c-.559.039-.995.498-1.007 1.058l-.057 3.382a1.08 1.08 0 0 0 1.27 1.074l2.21-.4a1.05 1.05 0 0 0 .687-.434c.469-.625.706-1.393.671-2.174a5.2 5.2 0 0 0-.842-2.148c-.213-.326-.587-.512-.976-.485z" class="B"/><path d="M397.81 479.292c-2.04 6.1-2.122 14.039 5.174 16.708 5.365 1.962 13.77-2.1 17.416-9.976s4.983-15.34-4.905-18.707c-1.062-.344-2.145-.617-3.243-.816-6.118-.991-8.463-1.337-13.275 9.563-.433.962-.785 2.077-1.167 3.228z" class="C"/><g class="B"><path d="M404.662 497.04a7.71 7.71 0 0 1-1.905-.423c-7.513-2.752-7.8-10.858-5.566-17.529l.145-.439c.336-1.017.651-1.978 1.038-2.845 2.437-5.525 4.3-8.292 6.413-9.537 2.169-1.275 4.43-.909 7.564-.4.348.066.58.397.524.746s-.38.591-.731.545c-5.948-.96-7.951-1.286-12.573 9.18-.356.811-.666 1.74-.991 2.726l-.145.444c-.991 2.953-3.568 12.831 4.776 15.887 1.652.6 3.841.491 6.883-.367.226-.064.468-.003.636.161s.235.405.176.632-.235.405-.461.467c-1.866.6-3.826.854-5.783.752z"/><path d="M417.282 486.046c-1.653-1.631-2.28-4.037-1.632-6.268l.718-2.664c-6 2.52-14.932 1.75-18.748 1.255-1.236-.139-2.243-1.054-2.499-2.271-1.41-7.569 8.189-16.714 15.681-13.192 11.21-2.21 19.383 6.506 17.648 14.406-1.936 8.765-9.181 10.799-11.168 8.734z"/></g><path d="M417.782 485.385s5.52-2.489 9.118.465-1.776 12-11.473 6.759z" class="C"/><path d="M420.137 494.808a13.23 13.23 0 0 1-5.019-1.626c-.211-.109-.346-.323-.354-.56s.113-.46.316-.582.456-.126.662-.009c5.416 2.927 9.206 1.188 10.807-1.2 1.11-1.657 1.089-3.542-.062-4.482-3.237-2.654-8.385-.392-8.437-.372a.66.66 0 0 1-.871-.329.66.66 0 0 1 .329-.871c.243-.108 5.938-2.623 9.8.553 1.678 1.379 1.812 4 .315 6.222a7.84 7.84 0 0 1-7.487 3.256z" class="B"/><path d="M457.638 490.058l9.9-8.824 24.572-33.8s-.95-5.767-.728-8.086 5.489-10.037 7.476-10.476 1.415 1.575 1 2.6-1.766 3.4-1.766 3.4l.336 3.666s7.75-2.453 8.845-3.413 4.079-7.941 4.838-8.679 1.657 1.663 1.657 1.663a29.66 29.66 0 0 1 3.33 5.767c.893 2.463-3.867 14.22-4.73 14.7s-11 4.394-11 4.394-13.719 34.073-16.832 37.78-20.555 18.448-20.555 18.448z" class="C"/><path d="M463.927 509.827a.81.81 0 0 1-.109-.021.61.61 0 0 1-.423-.408l-6.351-19.148c-.079-.238-.008-.501.181-.666l9.857-8.778 24.376-33.541c-.464-2.637-.696-5.31-.692-7.988.248-2.571 5.669-10.523 7.967-11.029a1.72 1.72 0 0 1 1.812.413c.506.6.475 1.621-.093 3.036-.361.9-1.384 2.731-1.7 3.3l.248 2.69c2.969-.96 7.208-2.463 7.874-3.046 1.057-1.545 1.969-3.183 2.726-4.895.564-1.323 1.263-2.584 2.086-3.764.252-.261.622-.372.976-.294.842.186 1.435 1.472 1.678 2.107a29.26 29.26 0 0 1 3.366 5.855c.558 1.549-.62 5.489-1.7 8.519-.093.258-2.3 6.382-3.3 6.945-.826.46-9.025 3.635-10.833 4.332-1.358 3.366-13.8 34.083-16.832 37.7-3.108 3.707-19.915 17.922-20.633 18.526a.59.59 0 0 1-.481.155zm-5.561-19.577l5.927 17.87c3.3-2.8 17.085-14.566 19.77-17.772 3.01-3.594 16.595-37.274 16.729-37.614a.64.64 0 0 1 .356-.351l10.884-4.337c1.007-1.079 5.241-11.87 4.482-13.962-.869-1.985-1.959-3.865-3.248-5.607a.56.56 0 0 1-.083-.155 4.72 4.72 0 0 0-.723-1.317c-.341.485-1.115 2.039-1.75 3.31-1.4 2.814-2.37 4.7-3.026 5.277-1.136 1-7.755 3.124-9.067 3.537a.62.62 0 0 1-.537-.078c-.158-.105-.26-.276-.279-.465l-.336-3.666a.64.64 0 0 1 .077-.367c.016-.026 1.337-2.349 1.73-3.325.418-1.043.4-1.626.3-1.756-.021-.026-.181-.088-.583 0-1.611.356-6.769 7.678-6.986 9.919-.212 2.21.713 7.869.723 7.926a.61.61 0 0 1-.114.47l-24.572 33.8c-.025.038-.057.072-.093.1zm53.648-42.176z" class="B"/><path d="M434.037 500.993l24.464-14.235 9.547 21.959-25.5 19.1c-7.215-3.377-15.115-13.064-8.511-26.824z" fill="url(#F)"/><path d="M440.491 527.388a.64.64 0 0 1-.284-.1c-6.526-4.089-12.387-13.1-7.44-25.062.138-.335.522-.495.856-.356s.495.522.356.856c-4.631 11.194.537 19.455 6.924 23.452.257.162.369.48.271.767s-.381.47-.684.441zm22.181-17.654c-.244-.023-.456-.18-.547-.408l-7.544-18.851c-.13-.336.035-.713.369-.846s.713.028.85.361l7.544 18.851c.133.337-.031.718-.367.852-.097.039-.202.053-.305.041z" class="B"/><g transform="translate(286.346 80.645)"><circle cx="163.279" cy="163.279" r="163.279" class="E"/><path d="M33.866 166.108v-27.107h13.05c2.251-.055 4.487.368 6.563 1.239 3.621 1.487 5.932 5.072 5.793 8.984a9.15 9.15 0 0 1-5.793 8.865 16.42 16.42 0 0 1-6.563 1.2h-7.98l4.069-3.754v10.569h-9.139zm9.139-9.562l-4.069-4.145h7.394a4 4 0 0 0 2.809-.852c1.212-1.312 1.212-3.335 0-4.647a4 4 0 0 0-2.809-.852h-7.394l4.069-4.146zm7.084 9.562l-6.661-9.872h9.681l6.738 9.872zm24.515-6.893h13.554v6.893H65.62v-27.107h22.037v6.893H74.604v13.321zm-.62-10.146H86.07v6.583H73.985zm27.454 17.659a15.21 15.21 0 0 1-5.731-1.028 10.85 10.85 0 0 1-4.26-3l4.916-5.809a9.6 9.6 0 0 0 2.127 1.993 3.91 3.91 0 0 0 2.169.676q2.943 0 2.943-3.372v-10.3h-9.216v-6.887h18.241v16.652q0 5.576-2.866 8.323-2.866 2.747-8.323 2.752zm32.488 0a17.21 17.21 0 0 1-6.1-1.048 14.32 14.32 0 0 1-4.859-2.964c-1.364-1.27-2.453-2.806-3.2-4.513a14.63 14.63 0 0 1 0-11.328 13.58 13.58 0 0 1 3.2-4.492c1.407-1.3 3.059-2.308 4.859-2.964a18.32 18.32 0 0 1 12.216 0 14.45 14.45 0 0 1 4.843 2.964 13.7 13.7 0 0 1 3.2 4.492c1.522 3.623 1.522 7.705 0 11.328-.748 1.707-1.837 3.242-3.2 4.513a14.43 14.43 0 0 1-4.843 2.964 17.17 17.17 0 0 1-6.116 1.048zm0-7.394a6.06 6.06 0 0 0 2.38-.465 5.74 5.74 0 0 0 1.936-1.337 6.11 6.11 0 0 0 1.3-2.127 8.94 8.94 0 0 0 0-5.69 6.11 6.11 0 0 0-1.3-2.127c-.548-.573-1.206-1.028-1.936-1.337a6.33 6.33 0 0 0-4.761 0 5.69 5.69 0 0 0-1.933 1.34 6.04 6.04 0 0 0-1.3 2.127 8.94 8.94 0 0 0 0 5.69 6.11 6.11 0 0 0 1.3 2.127c.547.574 1.206 1.029 1.936 1.337a6.08 6.08 0 0 0 2.378.462zm21.53 6.774v-27.107h9.139v27.107zm30.515.619a17.27 17.27 0 0 1-6.062-1.028c-1.78-.642-3.412-1.636-4.8-2.922a13.33 13.33 0 0 1-3.155-4.492c-1.501-3.674-1.501-7.789 0-11.463a13.16 13.16 0 0 1 3.175-4.492 14.27 14.27 0 0 1 4.859-2.922 17.91 17.91 0 0 1 6.175-1.027 18.13 18.13 0 0 1 7.182 1.353 13.46 13.46 0 0 1 5.21 3.872l-5.85 5.153a9.18 9.18 0 0 0-2.768-2.225 7.18 7.18 0 0 0-3.31-.754c-.931-.013-1.857.145-2.731.465a5.57 5.57 0 0 0-2.07 1.353 6.2 6.2 0 0 0-1.317 2.127 8 8 0 0 0-.465 2.824 7.92 7.92 0 0 0 .465 2.767c.285.8.734 1.531 1.317 2.148.572.598 1.266 1.066 2.034 1.373.844.335 1.746.5 2.654.485a9.02 9.02 0 0 0 3.021-.522 11.74 11.74 0 0 0 3.139-1.8l5.112 6.273a19.5 19.5 0 0 1-5.654 2.556 22.4 22.4 0 0 1-6.161.898zm3.872-4.606v-10.3h7.941v11.46zm14.757 3.987v-27.107h7.513l13.786 16.5h-3.485v-16.5h8.907v27.107h-7.513l-13.786-16.5h3.485v16.5zm43.021-6.893h13.554v6.893h-22.538v-27.107h22.037v6.893h-13.053zm-.624-10.146h12.082v6.583h-12.082zm19.64 17.039v-5.617l15.1-17.581 1.12 3.175h-15.836v-7.084h23.891v5.618l-15.1 17.581-1.121-3.175h16.843v7.084zM99.791 212.577V185.47h7.513l13.786 16.5h-3.485v-16.5h8.907v27.107h-7.513l-13.786-16.5h3.485v16.5zm48.251.621a17.21 17.21 0 0 1-6.1-1.048 14.32 14.32 0 0 1-4.859-2.964 13.63 13.63 0 0 1-3.2-4.513 14.63 14.63 0 0 1 0-11.328 13.58 13.58 0 0 1 3.2-4.492c1.407-1.3 3.059-2.308 4.859-2.964a18.32 18.32 0 0 1 12.216 0c1.795.658 3.441 1.665 4.843 2.964a13.71 13.71 0 0 1 3.2 4.492 14.63 14.63 0 0 1 0 11.328c-.748 1.707-1.837 3.242-3.2 4.513a14.48 14.48 0 0 1-4.843 2.964 17.18 17.18 0 0 1-6.116 1.048zm0-7.394a6.06 6.06 0 0 0 2.38-.465 5.74 5.74 0 0 0 1.936-1.337 6.11 6.11 0 0 0 1.3-2.127 8.94 8.94 0 0 0 0-5.69 6.11 6.11 0 0 0-1.3-2.127 5.82 5.82 0 0 0-1.936-1.337 6.33 6.33 0 0 0-4.761 0 5.69 5.69 0 0 0-1.936 1.337 6.04 6.04 0 0 0-1.3 2.127 8.95 8.95 0 0 0 0 5.69 6.11 6.11 0 0 0 1.3 2.127c.547.574 1.206 1.029 1.936 1.337a6.06 6.06 0 0 0 2.381.465zm34.506 7.393q-6.235 0-9.722-3.372-3.487-3.372-3.485-9.449V185.47h9.139v14.638q0 3.1 1.12 4.394a4.19 4.19 0 0 0 6.062 0c.733-.862 1.1-2.329 1.1-4.394V185.47h8.984v14.912q0 6.08-3.485 9.449-3.485 3.369-9.713 3.366zm30.396 0a27.68 27.68 0 0 1-6.583-.774 18.65 18.65 0 0 1-5.225-2.014l2.943-6.661a19 19 0 0 0 4.316 1.8 16.75 16.75 0 0 0 4.626.676 9.44 9.44 0 0 0 2.071-.176 2.4 2.4 0 0 0 1.1-.5 1.05 1.05 0 0 0 .346-.8c-.016-.515-.337-.972-.816-1.162a8.8 8.8 0 0 0-2.148-.718l-2.922-.62a27.04 27.04 0 0 1-3.2-.873c-1.041-.345-2.031-.827-2.943-1.435-.895-.596-1.632-1.401-2.148-2.344a7.33 7.33 0 0 1-.816-3.619c-.012-1.639.482-3.242 1.415-4.59 1.066-1.479 2.528-2.627 4.218-3.31a17.33 17.33 0 0 1 6.991-1.239c1.822.001 3.64.194 5.421.578a16.97 16.97 0 0 1 4.8 1.781l-2.747 6.625a20.68 20.68 0 0 0-3.893-1.508c-1.193-.328-2.424-.498-3.661-.506a7.52 7.52 0 0 0-2.091.232 2.3 2.3 0 0 0-1.1.62c-.211.233-.329.537-.33.852a1.23 1.23 0 0 0 .816 1.1c.684.317 1.406.544 2.148.676l2.943.578a23.97 23.97 0 0 1 3.2.852 12.5 12.5 0 0 1 2.922 1.43 6.73 6.73 0 0 1 2.148 2.323 7.13 7.13 0 0 1 .811 3.563 7.88 7.88 0 0 1-1.415 4.549 9.78 9.78 0 0 1-4.2 3.33c-2.213.925-4.6 1.362-6.997 1.284z" class="C"/></g><g class="G"><path d="M746.725 401.925h0a19.17 19.17 0 0 0-19.171 19.171h0a19.17 19.17 0 0 0-19.171-19.171h0a19.17 19.17 0 0 0 19.171-19.171h0c.001 10.588 8.583 19.17 19.171 19.171z"/><path d="M648.767 414.168h0a7.74 7.74 0 0 0-7.734 7.735h0a7.74 7.74 0 0 0-7.735-7.735h0a7.74 7.74 0 0 0 7.735-7.735h0a7.73 7.73 0 0 0 7.734 7.735z"/></g><path d="M424.248 52.588h0c-3.816-.002-7.477 1.513-10.176 4.211s-4.215 6.358-4.214 10.174h0c.001-7.943-6.437-14.383-14.38-14.385h0c7.943-.002 14.381-6.442 14.38-14.385h0c.004 7.945 6.445 14.383 14.39 14.385z" fill="url(#B)"/><path d="M714.393 86.253h0c-3.815-.001-7.474 1.515-10.172 4.213s-4.213 6.357-4.213 10.172h0c.001-3.815-1.515-7.474-4.213-10.172s-6.357-4.213-10.172-4.213h0c3.815.001 7.474-1.515 10.172-4.213s4.213-6.357 4.213-10.172h0c-.001 3.815 1.515 7.474 4.213 10.172s6.357 4.213 10.172 4.213z" class="G"/><path d="M277.156 382.754h0c-4.653-.001-9.116 1.848-12.407 5.138s-5.139 7.753-5.138 12.407h0c.001-4.653-1.848-9.116-5.138-12.407s-7.753-5.139-12.407-5.138h0c4.653.001 9.116-1.848 12.407-5.138s5.139-7.753 5.138-12.407h0c-.001 4.653 1.848 9.116 5.138 12.407s7.753 5.139 12.407 5.138z" fill="url(#B)"/><path d="M571.566 586.694h0c-17.195.001-31.134 13.94-31.135 31.135h0c-.001-17.195-13.94-31.134-31.135-31.135h0c17.195-.001 31.134-13.94 31.135-31.135h0c-.001 8.258 3.28 16.177 9.119 22.016s13.759 9.119 22.016 9.119z" class="D"/><circle cx="641.033" cy="268.361" r="8.359" class="E"/><circle cx="556.319" cy="83.681" r="5.912" fill="url(#F)"/><circle cx="611.737" cy="452.706" r="4.771" class="E"/><circle cx="268.956" cy="527.388" r="7.156" fill="url(#F)"/><circle cx="89.434" cy="133.713" r="9.144" fill="url(#F)"/><circle cx="238.731" cy="309.559" r="15.428" fill="url(#F)"/><circle cx="285.18" cy="128.943" r="4.771" fill="url(#F)"/><circle cx="571.566" cy="662.785" r="4.771" fill="url(#I)"/></g></svg>
