<svg xmlns="http://www.w3.org/2000/svg" xmlns:xlink="http://www.w3.org/1999/xlink" width="750.598" height="698.798" viewBox="0 0 750.598 698.798">
  <defs>
    <linearGradient id="linear-gradient" y1="0.5" x2="1" y2="0.5" gradientUnits="objectBoundingBox">
      <stop offset="0" stop-color="#1b89ca"/>
      <stop offset="1" stop-color="#2e3792"/>
    </linearGradient>
    <linearGradient id="linear-gradient-2" x1="0" y1="0.5" x2="1" y2="0.5" xlink:href="#linear-gradient"/>
    <linearGradient id="linear-gradient-3" x1="0" y1="0.5" x2="1" y2="0.5" xlink:href="#linear-gradient"/>
    <linearGradient id="linear-gradient-4" x1="0" y1="0.5" x2="1" y2="0.5" xlink:href="#linear-gradient"/>
    <linearGradient id="linear-gradient-5" y1="0.5" x2="1" y2="0.5" gradientUnits="objectBoundingBox">
      <stop offset="0" stop-color="#ce2e82"/>
      <stop offset="1" stop-color="#601f5f"/>
    </linearGradient>
    <linearGradient id="linear-gradient-6" x1="0" y1="0.5" x2="1" y2="0.5" xlink:href="#linear-gradient-5"/>
    <linearGradient id="linear-gradient-7" x1="0" y1="0.5" x2="1" y2="0.5" xlink:href="#linear-gradient-5"/>
    <linearGradient id="linear-gradient-8" x1="0" y1="0.5" x2="1" y2="0.5" xlink:href="#linear-gradient-5"/>
    <linearGradient id="linear-gradient-11" x1="0" y1="0.5" x2="1" y2="0.5" xlink:href="#linear-gradient-5"/>
    <linearGradient id="linear-gradient-19" x1="0" y1="0.5" x2="1" y2="0.5" xlink:href="#linear-gradient-5"/>
    <linearGradient id="linear-gradient-21" x1="0" y1="0.5" x2="1" y2="0.5" xlink:href="#linear-gradient"/>
    <linearGradient id="linear-gradient-22" x1="0" y1="0.5" x2="1" y2="0.5" xlink:href="#linear-gradient-5"/>
    <linearGradient id="linear-gradient-25" x1="0" y1="0.5" x2="1" y2="0.5" xlink:href="#linear-gradient-5"/>
    <linearGradient id="linear-gradient-26" x1="0" y1="0.5" x2="1" y2="0.5" xlink:href="#linear-gradient"/>
    <linearGradient id="linear-gradient-27" x1="0" y1="0.5" x2="1" y2="0.5" xlink:href="#linear-gradient-5"/>
    <linearGradient id="linear-gradient-31" x1="0" y1="0.5" x2="1" y2="0.5" xlink:href="#linear-gradient"/>
    <linearGradient id="linear-gradient-33" x1="0" y1="0.5" x2="1" y2="0.5" xlink:href="#linear-gradient"/>
    <linearGradient id="linear-gradient-38" x1="0" y1="0.5" x2="1" y2="0.5" xlink:href="#linear-gradient-5"/>
    <linearGradient id="linear-gradient-39" x1="0" y1="0.5" x2="1" y2="0.5" xlink:href="#linear-gradient-5"/>
    <linearGradient id="linear-gradient-40" x1="0" y1="0.5" x2="1" y2="0.5" xlink:href="#linear-gradient-5"/>
    <linearGradient id="linear-gradient-41" x1="0" y1="0.5" x2="1" y2="0.5" xlink:href="#linear-gradient-5"/>
    <linearGradient id="linear-gradient-42" x1="-0.001" y1="0.5" x2="1" y2="0.5" xlink:href="#linear-gradient-5"/>
  </defs>
  <g id="Illustration_REJOIGNEZ-NOUS" data-name="Illustration REJOIGNEZ-NOUS" transform="translate(-54.574 -19.001)">
    <g id="Woman_01" transform="translate(642.36 113.219)">
      <g id="RIGHT_FEET" transform="translate(0 165.003)">
        <g id="Group_400" data-name="Group 400">
          <g id="Group_395" data-name="Group 395" transform="translate(23.172 123.708)">
            <g id="Group_392" data-name="Group 392">
              <g id="Group_391" data-name="Group 391">
                <path id="Path_637" data-name="Path 637" d="M1255.473,782.982l-8.881,3.661-5.984-19.615-1.518-4.977,10.791-.16,1.91,7.193Z" transform="translate(-1238.448 -761.245)" fill="#fff"/>
                <path id="Path_638" data-name="Path 638" d="M1246.068,786.684a.641.641,0,0,1-.692-.454l-7.5-24.593a.638.638,0,0,1,.1-.568.631.631,0,0,1,.511-.263l10.791-.165a.642.642,0,0,1,.635.48l5.592,21.1a.647.647,0,0,1-.377.764l-8.881,3.661A1.218,1.218,0,0,1,1246.068,786.684Zm-6.712-24.6,7.048,23.09,7.7-3.175-5.313-20.059Z" transform="translate(-1237.847 -760.64)" fill="#262424"/>
              </g>
              <path id="Path_639" data-name="Path 639" d="M1251.792,769.083l-11.184-2.055-1.518-4.977,10.791-.16Z" transform="translate(-1238.448 -761.245)" fill="#262424"/>
            </g>
            <g id="Group_394" data-name="Group 394" transform="translate(2.289 12.242)">
              <path id="Path_640" data-name="Path 640" d="M1244.077,838.89c-.258-1.379-.2-5.117-.491-10.766s-1.306-31.981-1.306-31.981l14.328-11.793c4.141,3.077,8.679,6.748,11.938,9.423,2.664,2.189,4.451,3.712,4.451,3.712l-23.6,45.767a7.616,7.616,0,0,1-4.786-3.16A3.4,3.4,0,0,1,1244.077,838.89Z" transform="translate(-1242.28 -784.35)" fill="url(#linear-gradient)"/>
              <g id="Group_393" data-name="Group 393" transform="translate(1.685 8.774)">
                <path id="Path_641" data-name="Path 641" d="M1246.79,848.925l23.932-46.325c2.664,2.189,4.451,3.712,4.451,3.712l-23.6,45.767A7.628,7.628,0,0,1,1246.79,848.925Z" transform="translate(-1246.146 -801.951)" fill="#fff"/>
                <path id="Path_642" data-name="Path 642" d="M1251.051,852.117a.553.553,0,0,1-.206-.01,8.294,8.294,0,0,1-5.2-3.444.655.655,0,0,1-.031-.645l23.932-46.325a.648.648,0,0,1,.986-.2c2.669,2.194,4.461,3.718,4.461,3.718a.648.648,0,0,1,.155.79l-23.6,45.767A.636.636,0,0,1,1251.051,852.117Zm-4.11-3.852a7.059,7.059,0,0,0,3.692,2.463l23.132-44.864c-.589-.5-1.817-1.528-3.434-2.866Z" transform="translate(-1245.544 -801.343)" fill="#262424"/>
              </g>
            </g>
          </g>
          <g id="Group_399" data-name="Group 399">
            <path id="Path_643" data-name="Path 643" d="M1268.044,563.625c-.072.114-.145.227-.237.351-2.85,4.224-9.413,11.2-16.538,18.319-12.1,12.087-25.853,24.551-25.853,24.551,2.055,8.87,6.227,38.022,6.227,38.022-8.84,4.812-21.268,6.129-21.268,6.129s-8.9-22.6-13.972-37.966c-2.215-6.723-3.707-12.051-3.392-13.5.558-2.545,2.721-6.63,5.84-11.53,12.5-19.641,40.227-52.449,40.227-52.449,14.065-15.371,28.739-19.058,36.06-8.494S1275.262,552.5,1268.044,563.625Z" transform="translate(-1192.969 -521.048)" fill="url(#linear-gradient-2)"/>
            <path id="Path_644" data-name="Path 644" d="M1322.418,599.324c-2.85,4.224-9.413,11.2-16.538,18.319l3.253-23.514,11.142,3.093C1320.28,597.223,1321.132,598.059,1322.418,599.324Z" transform="translate(-1247.581 -556.396)" fill="#262424"/>
            <g id="Group_396" data-name="Group 396" transform="translate(20.095 37.092)">
              <path id="Path_645" data-name="Path 645" d="M1238.824,674.122a.652.652,0,0,1-.7-.48c-3.444-13.363-6.2-35.286-6.227-35.508a.637.637,0,0,1,.093-.423c9.924-15.676,40.6-44.363,40.914-44.652a.647.647,0,1,1,.883.945c-.3.284-30.613,28.62-40.578,44.2.3,2.38,2.933,22.569,6.165,35.116a.644.644,0,0,1-.465.785Z" transform="translate(-1231.889 -592.885)" fill="#262424"/>
            </g>
            <g id="Group_397" data-name="Group 397" transform="translate(16.835 118.39)">
              <path id="Path_646" data-name="Path 646" d="M1226.295,756.386a.646.646,0,0,1-.17-1.281c.119-.021,11.984-1.869,18.066-4.7a.646.646,0,1,1,.542,1.172c-6.247,2.912-17.922,4.735-18.417,4.812Z" transform="translate(-1225.574 -750.339)" fill="#262424"/>
            </g>
            <g id="Group_398" data-name="Group 398" transform="translate(15.406 80.433)">
              <path id="Path_647" data-name="Path 647" d="M1238.768,682.245a.643.643,0,0,1-.243-.016l-15.242-4.131a.648.648,0,1,1,.341-1.25l15.242,4.131a.647.647,0,0,1,.454.8A.665.665,0,0,1,1238.768,682.245Z" transform="translate(-1222.806 -676.826)" fill="#262424"/>
            </g>
            <path id="Path_648" data-name="Path 648" d="M1206.941,661.289a13.282,13.282,0,0,1-10.528,14.462c-2.215-6.723-3.707-12.051-3.392-13.5.558-2.545,2.721-6.63,5.84-11.53A13.1,13.1,0,0,1,1206.941,661.289Z" transform="translate(-1192.974 -583.767)" fill="#fafdfe"/>
          </g>
        </g>
      </g>
      <g id="LEFT_FEET" transform="translate(57.024 137.709)">
        <g id="Group_412" data-name="Group 412">
          <g id="Group_402" data-name="Group 402" transform="translate(89.746 45.232)">
            <g id="Group_401" data-name="Group 401">
              <path id="Path_649" data-name="Path 649" d="M1489.6,557.04l-.532,15.815-.336,9.888-10.265-3.351.253-3.475,1.3-18.293Z" transform="translate(-1477.828 -556.394)" fill="#fff"/>
              <path id="Path_650" data-name="Path 650" d="M1488.211,582.778a.7.7,0,0,1-.274-.026l-10.265-3.351a.647.647,0,0,1-.444-.661l1.549-21.768a.653.653,0,0,1,.6-.6l9.583-.583a.646.646,0,0,1,.687.666l-.867,25.7a.638.638,0,0,1-.274.506A.667.667,0,0,1,1488.211,582.778Zm-9.66-4.451,8.963,2.928.816-24.133-8.308.506Z" transform="translate(-1477.227 -555.788)" fill="#262424"/>
            </g>
            <path id="Path_651" data-name="Path 651" d="M1489.07,587.67l-.336,9.888-10.265-3.351.248-3.475C1481.5,589.906,1485.378,588.765,1489.07,587.67Z" transform="translate(-1477.828 -571.208)" fill="#262424"/>
          </g>
          <g id="Group_404" data-name="Group 404" transform="translate(72.316)">
            <path id="Path_652" data-name="Path 652" d="M1476.422,474.144c.166,1.394-.15,5.122-.248,10.771s-.888,32-.888,32l-15.1,10.781c-3.919-3.356-8.2-7.327-11.266-10.218-2.51-2.37-4.187-4.012-4.187-4.012l26.684-44.043a7.648,7.648,0,0,1,4.559,3.48A3.585,3.585,0,0,1,1476.422,474.144Z" transform="translate(-1444.079 -468.782)" fill="url(#linear-gradient-3)"/>
            <g id="Group_403" data-name="Group 403">
              <path id="Path_653" data-name="Path 653" d="M1475.973,472.91l-27.056,44.575c-2.509-2.37-4.187-4.012-4.187-4.012l26.684-44.043A7.628,7.628,0,0,1,1475.973,472.91Z" transform="translate(-1444.079 -468.787)" fill="#fff"/>
              <path id="Path_654" data-name="Path 654" d="M1448.385,517.523a.663.663,0,0,1-.521-.17c-2.515-2.375-4.2-4.017-4.2-4.017a.643.643,0,0,1-.1-.8l26.684-44.043a.65.65,0,0,1,.728-.289,8.307,8.307,0,0,1,4.952,3.79.642.642,0,0,1-.016.645l-27.056,44.575a.656.656,0,0,1-.465.3Zm-3.444-4.755c.558.537,1.709,1.652,3.232,3.093L1474.61,472.3a6.986,6.986,0,0,0-3.516-2.706Z" transform="translate(-1443.47 -468.185)" fill="#262424"/>
            </g>
          </g>
          <g id="Group_411" data-name="Group 411" transform="translate(0 24.907)">
            <g id="Group_405" data-name="Group 405" transform="translate(0 16.716)">
              <path id="Path_655" data-name="Path 655" d="M1315.766,575.08a.557.557,0,0,1-.207-.01c-8.127-1.683-8.2-2.323-8.261-2.788-.067-.547-2.819-16.59-3.878-22.724a.648.648,0,0,1,.527-.749.642.642,0,0,1,.749.527c.15.862,3.465,20.126,3.852,22.553a50.248,50.248,0,0,0,7.275,1.91.65.65,0,0,1-.057,1.281Z" transform="translate(-1303.411 -548.798)" fill="#262424"/>
            </g>
            <path id="Path_656" data-name="Path 656" d="M1415.5,564.306s-3.274,17.607-5.272,28.827c-1.5,8.421-3.893,18.893-9.568,24.639a13.768,13.768,0,0,1-6.877,3.919,19.879,19.879,0,0,1-12.356-.935c-5.112-2.06-9.981-6.093-15.98-11.189-10.451-8.891-42.742-47.167-42.742-47.167-.955-5.674-4.048-30.618-4.048-30.618-1.559-21.8,30-16.564,38.482-7.626s12.536,24.448,12.769,25.145c.207.635,13.8,27.123,16.347,32.09.134.263.268.521.408.8l2.23-12.645,1.756-9.955C1405.675,552.162,1415.5,564.306,1415.5,564.306Z" transform="translate(-1310.758 -516.424)" fill="url(#linear-gradient-4)"/>
            <path id="Path_657" data-name="Path 657" d="M1459.745,650.662s-7.13-14.431-9.335-18.727l2.231-12.645Z" transform="translate(-1374.51 -566.177)" fill="#262424"/>
            <g id="Group_406" data-name="Group 406" transform="translate(7.739 18.628)">
              <path id="Path_658" data-name="Path 658" d="M1322.685,580.491a.647.647,0,0,1-.718-.558l-3.563-26.7a.647.647,0,0,1,.558-.728h.01a.647.647,0,0,1,.718.558l3.563,26.7a.647.647,0,0,1-.558.728A.007.007,0,0,0,1322.685,580.491Z" transform="translate(-1318.399 -552.501)" fill="#262424"/>
            </g>
            <g id="Group_407" data-name="Group 407" transform="translate(75.501 66.272)">
              <path id="Path_659" data-name="Path 659" d="M1461.478,669.485a.646.646,0,0,1-.7-.465c-3.093-10.9-10.962-23.121-11.039-23.245a.646.646,0,1,1,1.084-.7c.078.124,8.05,12.506,11.2,23.6a.648.648,0,0,1-.444.8A.835.835,0,0,1,1461.478,669.485Z" transform="translate(-1449.637 -644.777)" fill="#262424"/>
            </g>
            <g id="Group_408" data-name="Group 408" transform="translate(37.334 13.182)">
              <path id="Path_660" data-name="Path 660" d="M1423.7,613.9a.662.662,0,0,1-.6-.258c-11.029-15.02-33.267-46.485-33.489-46.8a.671.671,0,0,1-.073-.134c-4.074-10.167-13.605-23.6-13.7-23.731a.644.644,0,0,1,1.048-.749c.1.134,9.671,13.626,13.822,23.927,1.089,1.539,21.469,30.37,32.513,45.468l5.484-34.749a.646.646,0,0,1,1.275.2l-5.726,36.287a.647.647,0,0,1-.485.527A.231.231,0,0,1,1423.7,613.9Z" transform="translate(-1375.718 -541.953)" fill="#262424"/>
            </g>
            <g id="Group_409" data-name="Group 409" transform="translate(79.864 45.784)">
              <path id="Path_661" data-name="Path 661" d="M1480.885,611.64a.643.643,0,0,1-.521-.176c-8.969-8.561-21.262-3.748-21.386-3.7a.646.646,0,0,1-.485-1.2c.129-.052,13.2-5.163,22.765,3.96a.645.645,0,0,1,.021.914A.663.663,0,0,1,1480.885,611.64Z" transform="translate(-1458.088 -605.096)" fill="#262424"/>
            </g>
            <g id="Group_410" data-name="Group 410" transform="translate(31.896 15.772)">
              <path id="Path_662" data-name="Path 662" d="M1381.08,561.185h-.005c-2.36.253-6.454.583-7.342-.01-.852-.573-6.2-9.438-8.457-13.223a.647.647,0,1,1,1.11-.666c2.768,4.642,7.415,12.227,8.1,12.831.49.222,3.749.067,6.459-.222a.649.649,0,0,1,.139,1.291Z" transform="translate(-1365.185 -546.97)" fill="#262424"/>
            </g>
            <path id="Path_663" data-name="Path 663" d="M1459.513,707.747a13.768,13.768,0,0,1-6.877,3.919,19.879,19.879,0,0,1-12.356-.935c.48-4.146,4.13-7.636,8.922-8.2A9.96,9.96,0,0,1,1459.513,707.747Z" transform="translate(-1369.611 -606.398)" fill="#fafdfe"/>
          </g>
        </g>
      </g>
      <g id="BELT" transform="translate(45.479 163.503)">
        <g id="Group_416" data-name="Group 416">
          <g id="Group_413" data-name="Group 413">
            <path id="Path_664" data-name="Path 664" d="M1285.063,526.071l-2.773,8.68s7.141,5.339,24.081,3.666,33.2-12.815,33.2-12.815l-4.42-6.2C1335.152,519.395,1308.271,534.286,1285.063,526.071Z" transform="translate(-1281.65 -518.751)" fill="#fff"/>
            <path id="Path_665" data-name="Path 665" d="M1306.717,538.355c-.294.036-.583.067-.878.093-17,1.683-24.231-3.568-24.531-3.79a.645.645,0,0,1-.227-.713l2.773-8.68a.636.636,0,0,1,.33-.382.65.65,0,0,1,.5-.031c22.672,8.024,49.294-6.485,49.557-6.63a.647.647,0,0,1,.842.191l4.42,6.2a.624.624,0,0,1,.109.485.657.657,0,0,1-.269.418C1339.174,525.633,1323.312,536.393,1306.717,538.355Zm-24.262-4.487c1.673,1.007,8.922,4.714,23.25,3.294,14.891-1.44,29.379-10.419,32.348-12.345l-3.7-5.2c-3.816,1.972-28.171,13.807-49.475,6.666Z" transform="translate(-1281.051 -518.142)" fill="#262424"/>
          </g>
          <g id="Group_414" data-name="Group 414" transform="translate(8.745 8.953)">
            <path id="Path_666" data-name="Path 666" d="M1298.815,545.162a.646.646,0,0,1-.718-.568,46.975,46.975,0,0,1,.31-8.545.648.648,0,0,1,1.286.16,46.883,46.883,0,0,0-.31,8.235A.645.645,0,0,1,1298.815,545.162Z" transform="translate(-1297.988 -535.481)" fill="#262424"/>
          </g>
          <g id="Group_415" data-name="Group 415" transform="translate(12.468 11.884)">
            <circle id="Ellipse_46" data-name="Ellipse 46" cx="2.396" cy="2.396" r="2.396" transform="translate(0.385 0.935) rotate(-6.736)" fill="#fff"/>
            <path id="Path_667" data-name="Path 667" d="M1308.6,547.221a3.041,3.041,0,1,1,2.664-3.377A3.042,3.042,0,0,1,1308.6,547.221Zm-.563-4.761a1.749,1.749,0,1,0,1.941,1.534A1.751,1.751,0,0,0,1308.034,542.461Z" transform="translate(-1305.199 -541.159)" fill="#262424"/>
          </g>
        </g>
      </g>
      <g id="RIGHT_ARM" transform="translate(2.94)">
        <g id="Group_421" data-name="Group 421">
          <g id="Group_418" data-name="Group 418">
            <g id="Group_417" data-name="Group 417">
              <path id="Path_668" data-name="Path 668" d="M1228.5,231.465l-8.6,38.621,8.726,8.948-2.447,3.9h-.01v.01l-8.757,13.9a172.318,172.318,0,0,1-13.378-13.2c-2.272-2.613-3.955-5-4.125-6.428-.557-4.709,18.474-49.33,18.474-49.33s-2.6-7.285-2.995-8.256,3.155-16.786,3.155-16.786c.217-1.188,2.323,6.232,2.391,7.378s.439,8.044.439,8.044,7.6,3.738,8.194,5.106C1230.171,224.763,1228.5,231.465,1228.5,231.465Z" transform="translate(-1199.26 -202.079)" fill="#fff"/>
              <path id="Path_669" data-name="Path 669" d="M1216.9,296.886a.651.651,0,0,1-.5-.155,173.136,173.136,0,0,1-13.44-13.259c-2.711-3.119-4.11-5.339-4.28-6.774-.552-4.668,16.053-43.862,18.423-49.428-.449-1.265-2.551-7.141-2.9-7.988-.4-.95,1.482-9.862,3.124-17.173a.714.714,0,0,1,.749-.63c1.342.083,2.912,8.039,2.917,8.117.052.991.336,6.217.418,7.667,2.143,1.064,7.559,3.867,8.163,5.261.635,1.466-.625,6.857-1.033,8.488l-8.525,38.27,8.483,8.695a.647.647,0,0,1,.083.8l-2.447,3.9a.236.236,0,0,1-.026.036l-8.736,13.874a.65.65,0,0,1-.454.294C1216.914,296.886,1216.909,296.886,1216.9,296.886Zm1.311-92.815c-1.513,6.841-2.922,13.936-2.793,14.788.382.9,2.881,7.915,2.984,8.215a.618.618,0,0,1-.016.47c-5.272,12.366-18.867,45.282-18.428,49,.078.651.7,2.308,3.971,6.082a166.449,166.449,0,0,0,12.753,12.635L1225,282.041a.7.7,0,0,1,.067-.1l2.143-3.413-8.37-8.581a.643.643,0,0,1-.17-.594l8.6-38.621a.019.019,0,0,1,.005-.015c.775-3.124,1.415-6.945,1.1-7.673-.331-.723-4.353-3.046-7.89-4.781a.646.646,0,0,1-.361-.542s-.382-6.9-.439-8.05A42.028,42.028,0,0,0,1218.21,204.071Zm.377-1.7a.019.019,0,0,1-.005.016A.025.025,0,0,0,1218.587,202.367Z" transform="translate(-1198.664 -201.477)" fill="#262424"/>
            </g>
            <path id="Path_670" data-name="Path 670" d="M1230.07,358.07l-.005.01-8.757,13.9a172.323,172.323,0,0,1-13.378-13.2l22.13-.713Z" transform="translate(-1203.146 -277.217)" fill="#262424"/>
          </g>
          <g id="Group_420" data-name="Group 420" transform="translate(12.127 72.577)">
            <path id="Path_671" data-name="Path 671" d="M1260.126,360.323l-10.27,14.6-5.705,8.112-.95-.9-9.113-8.695-3.842-3.661-8.1-7.724c2.886-15.96,15.134-20.013,15.134-20.013Z" transform="translate(-1222.15 -342.04)" fill="url(#linear-gradient-5)"/>
            <path id="Path_672" data-name="Path 672" d="M1261.694,403.124s-.243.454-.645,1.213l-5.705,8.112-.95-.9-9.113-8.695Z" transform="translate(-1233.337 -371.452)" fill="#262424"/>
            <g id="Group_419" data-name="Group 419" transform="translate(2.641 2.813)">
              <path id="Path_673" data-name="Path 673" d="M1227.99,365.049a.709.709,0,0,1-.181-.005.647.647,0,0,1-.537-.738c.067-.408,1.729-10.094,12.258-16.719a.647.647,0,1,1,.692,1.095c-10.012,6.3-11.653,15.738-11.669,15.831A.646.646,0,0,1,1227.99,365.049Z" transform="translate(-1227.264 -347.487)" fill="#262424"/>
            </g>
          </g>
        </g>
      </g>
      <g id="HAIR" transform="translate(91.675 55.306)">
        <path id="Path_674" data-name="Path 674" d="M1372.792,308.854c-4.854,2.034-.692,12.129,1.1,15.325s-.49,12.428,5.773,15.423-5.189,15.521,10.678,28.037c12.227,9.645,32.983,1.988,29.973-8.592s-20.013-15.273-22.651-24.985c-1.678-6.18.836-15.18-9.48-18.3C1380.485,313.439,1376.623,307.248,1372.792,308.854Z" transform="translate(-1370.521 -308.592)" fill="#262424"/>
      </g>
      <g id="BODY" transform="translate(30.024 80.235)">
        <g id="Group_426" data-name="Group 426">
          <path id="Path_675" data-name="Path 675" d="M1307.461,430.076c-.325.909,14.029,20.762,14.029,20.762a99.417,99.417,0,0,1-24.655,9.284c-14.22,3.268-27.866-2.065-27.866-2.065s-4.735-21.717-5.039-32.818c0,0-11.091-8.235-12.645-16.445-.718-3.821.754-8.333,7.1-17.034a94.745,94.745,0,0,1,14.659-15.48s6.63,1.848,12.867,3.134a52.357,52.357,0,0,0,8.184,1.188c.94.021,2.189.021,3.625-.01,7.869-.15,21.428-.924,21.428-.924s-.165,24.319-.2,26.493C1318.929,408.328,1307.791,429.167,1307.461,430.076Z" transform="translate(-1251.118 -366.259)" fill="url(#linear-gradient-6)"/>
          <g id="Group_422" data-name="Group 422" transform="translate(14.288 57.245)">
            <path id="Path_676" data-name="Path 676" d="M1304.891,470.23a.715.715,0,0,1-.181-.005c-16.109-2.654-24.99.021-25.078.046a.647.647,0,1,1-.387-1.234c.372-.114,9.227-2.8,25.672-.088a.648.648,0,0,1,.532.744A.63.63,0,0,1,1304.891,470.23Z" transform="translate(-1278.791 -467.742)" fill="#262424"/>
          </g>
          <g id="Group_423" data-name="Group 423" transform="translate(4.742 10.219)">
            <path id="Path_677" data-name="Path 677" d="M1261.024,395.255a.647.647,0,0,1-.609-1.007c.578-.852,1.208-1.745,1.9-2.69a94.751,94.751,0,0,1,13.755-14.736.648.648,0,0,1,.847.981,93.289,93.289,0,0,0-13.553,14.519c-.682.929-1.3,1.812-1.874,2.654A.647.647,0,0,1,1261.024,395.255Z" transform="translate(-1260.303 -376.664)" fill="#262424"/>
          </g>
          <g id="Group_425" data-name="Group 425" transform="translate(30.09)">
            <g id="Group_424" data-name="Group 424">
              <path id="Path_678" data-name="Path 678" d="M1327.5,377.126c-4.177,4.451-15.763,2.912-16.775-1.854-.563-2.623,2.215-4.027,3.991-4.647.124.031.248.047.367.072l.1-.361,2.339-7.915,7.146-2.623,4.606-1.688-2.964,13.7c.067-.01.14-.005.217-.01C1328.7,373.068,1329.556,374.927,1327.5,377.126Z" transform="translate(-1310.001 -357.471)" fill="#fff"/>
              <path id="Path_679" data-name="Path 679" d="M1321.16,379.708a16.666,16.666,0,0,1-6.258-.47c-3.026-.842-5-2.458-5.416-4.43-.5-2.313,1.069-4.229,4.409-5.39a.825.825,0,0,1,.108-.026l2.287-7.745a.65.65,0,0,1,.4-.423l11.752-4.311a.638.638,0,0,1,.645.119.646.646,0,0,1,.207.625l-2.84,13.125a4.308,4.308,0,0,1,2.226,2.891,4,4,0,0,1-1.317,3.3h0A10.046,10.046,0,0,1,1321.16,379.708Zm-7.007-9.015c-1.538.563-3.852,1.766-3.408,3.841.31,1.466,1.993,2.757,4.5,3.454,3.6,1.007,8.747.676,11.173-1.91a2.82,2.82,0,0,0,.981-2.236,3.2,3.2,0,0,0-1.652-1.993.642.642,0,0,1-.527-.212.66.66,0,0,1-.155-.573l2.716-12.547-10.347,3.8-2.349,7.957a.646.646,0,0,1-.738.454A1.045,1.045,0,0,1,1314.153,370.693Zm12.738,5.835h0Z" transform="translate(-1309.396 -356.872)" fill="#262424"/>
            </g>
            <path id="Path_680" data-name="Path 680" d="M1329.256,362.253s-1.394,9.129-9.826,9.666l2.339-7.915,7.146-2.623A4.678,4.678,0,0,1,1329.256,362.253Z" transform="translate(-1314.249 -359.052)" fill="#262424"/>
          </g>
        </g>
      </g>
      <g id="LEFT_ARM" transform="translate(90.321 23.616)">
        <g id="Group_432" data-name="Group 432">
          <g id="Group_428" data-name="Group 428" transform="translate(30.932)">
            <g id="Group_427" data-name="Group 427">
              <path id="Path_681" data-name="Path 681" d="M1469.319,253.764c.077,2.484-1.456,12.428-2.236,14.147a65.344,65.344,0,0,1-4.507,6.666c1.187,10.492,4.229,37.635,4.048,39.05-.134,1.012-11.08,7.358-20.374,12.578-6.893,3.867-12.877,7.12-12.877,7.12l-4.017-19.156-.3-1.456,20.245-8.607,5.6-28.579s-6.934-7.28-7.394-8.674.1-8.979.713-9.919a.747.747,0,0,1,.449-.3c-.108-3.78.17-7.941,1.921-8.148,2.964-.351,3.206,10.755,3.227,12.428.047-1.647.428-12.48,2.778-12.051s2.138,9.738,2.091,11.086c.108-1.342.909-10.311,3.346-10.1,2.628.227,2.375,11.87,2.375,11.87C1465.818,251.678,1469.241,251.271,1469.319,253.764Z" transform="translate(-1428.407 -247.824)" fill="#fff"/>
              <path id="Path_682" data-name="Path 682" d="M1432.842,333.357a.616.616,0,0,1-.346-.057.646.646,0,0,1-.361-.454l-4.316-20.612a.654.654,0,0,1,.382-.728l19.93-8.473,5.468-27.913c-1.564-1.652-6.852-7.3-7.311-8.674-.475-1.461-.01-9.242.785-10.471a1.36,1.36,0,0,1,.336-.351c-.119-5.509.682-8.179,2.5-8.4a1.821,1.821,0,0,1,1.441.475c.924.805,1.508,2.68,1.879,4.8.356-2.127.9-3.914,1.714-4.575a1.416,1.416,0,0,1,1.162-.32c1.384.253,2.07,2.411,2.4,4.915a7.284,7.284,0,0,1,1.709-3.5,1.716,1.716,0,0,1,1.275-.434c1.833.16,2.556,3.723,2.824,7.131,1.074-3.32,2.452-4.564,3.589-4.5.857.046,1.435.8,1.466,1.905h0c.078,2.473-1.435,12.542-2.292,14.437a53.031,53.031,0,0,1-4.425,6.583c1.936,17.1,4.187,37.625,4.017,38.952-.078.578-.2,1.549-20.7,13.058-6.821,3.826-12.831,7.089-12.888,7.125A.438.438,0,0,1,1432.842,333.357Zm-3.65-20.865,4.033,19.244c1.828-1,6.717-3.671,12.108-6.7,16.7-9.382,19.626-11.638,20.054-12.18.036-1.564-1.472-15.975-4.053-38.812a.626.626,0,0,1,.124-.454,50.987,50.987,0,0,0,4.435-6.552c.707-1.564,2.251-11.416,2.179-13.863-.016-.418-.15-.651-.248-.656-.418-.021-2.365,1.451-3.387,8.68a.646.646,0,0,1-1.286-.108c.129-5.881-.7-11.117-1.781-11.209a.412.412,0,0,0-.33.134c-1.146.966-1.988,5.4-2.313,9.371a.647.647,0,0,1-1.291-.072c.2-5.556-.5-10.234-1.559-10.43-.016-.005-.047-.005-.119.052-.945.764-1.725,5.447-1.9,11.385a.654.654,0,0,1-.651.63.646.646,0,0,1-.64-.635c-.072-4.946-.738-10.461-2.071-11.628a.53.53,0,0,0-.439-.165c-.718.083-1.5,2.1-1.348,7.487a.641.641,0,0,1-.511.651c-.506.816-1.11,8.055-.681,9.392.284.862,4.409,5.447,7.249,8.426a.641.641,0,0,1,.165.568l-5.6,28.579a.644.644,0,0,1-.382.47Zm36.231.31Zm3.294-59.651h0Z" transform="translate(-1427.805 -247.215)" fill="#262424"/>
            </g>
          </g>
          <g id="Group_431" data-name="Group 431" transform="translate(0 63.454)">
            <path id="Path_683" data-name="Path 683" d="M1376.23,376.678l24.97-6.568s6.392,11.251,7.394,23.426l-34.868,13.373C1373.726,406.914,1361.856,387.2,1376.23,376.678Z" transform="translate(-1368.489 -370.11)" fill="url(#linear-gradient-7)"/>
            <g id="Group_429" data-name="Group 429" transform="translate(0 8.321)">
              <path id="Path_684" data-name="Path 684" d="M1371.978,412.969a.65.65,0,0,1-.661-.367c-2.334-4.967-6.9-17.462,1.146-26.167a.647.647,0,0,1,.95.878c-7.513,8.132-3.15,20.013-.924,24.742a.654.654,0,0,1-.31.862A.773.773,0,0,1,1371.978,412.969Z" transform="translate(-1367.898 -386.227)" fill="#262424"/>
            </g>
            <g id="Group_430" data-name="Group 430" transform="translate(29.451 2.343)">
              <path id="Path_685" data-name="Path 685" d="M1431.455,394.992a.654.654,0,0,1-.707-.506c-2.711-12.727-5.71-18.846-5.741-18.9a.646.646,0,1,1,1.156-.578c.124.253,3.1,6.3,5.85,19.213a.645.645,0,0,1-.5.764C1431.5,394.987,1431.475,394.987,1431.455,394.992Z" transform="translate(-1424.937 -374.647)" fill="#262424"/>
            </g>
          </g>
        </g>
      </g>
      <g id="HEAD" transform="translate(55.118 53.099)">
        <g id="Group_442" data-name="Group 442">
          <g id="Group_441" data-name="Group 441">
            <g id="Group_434" data-name="Group 434" transform="translate(0 11.353)">
              <path id="Path_686" data-name="Path 686" d="M1308.828,332.031s-1.472-4.905-4.838-4.44-5.411,10.559,2.231,11.468Z" transform="translate(-1300.328 -326.912)" fill="#fff"/>
              <g id="Group_433" data-name="Group 433">
                <path id="Path_687" data-name="Path 687" d="M1304.077,338.792a6.113,6.113,0,0,1-4.357-6.217c-.026-2.752,1.327-5.917,3.568-6.232,3.873-.537,5.478,4.668,5.545,4.89a.647.647,0,1,1-1.239.372c-.015-.041-1.358-4.373-4.131-3.986-1.312.181-2.478,2.535-2.458,4.936a4.971,4.971,0,0,0,4.673,5.251.638.638,0,0,1,.563.718.646.646,0,0,1-.718.568A7.977,7.977,0,0,1,1304.077,338.792Z" transform="translate(-1299.72 -326.305)" fill="#262424"/>
              </g>
            </g>
            <g id="Group_435" data-name="Group 435" transform="translate(32.504 3.255)">
              <path id="Path_688" data-name="Path 688" d="M1365.4,312.167l1.921-.274a1.7,1.7,0,0,1,1.6.656,5.7,5.7,0,0,1,1.11,2.323,4.012,4.012,0,0,1-.568,2.633,1.71,1.71,0,0,1-1.038.785l-2.143.563a1.713,1.713,0,0,1-2.143-1.549l-.2-3.33A1.7,1.7,0,0,1,1365.4,312.167Z" transform="translate(-1363.282 -311.229)" fill="#fff"/>
              <path id="Path_689" data-name="Path 689" d="M1364.535,318.836a2.511,2.511,0,0,1-.687-.341,2.341,2.341,0,0,1-.971-1.766l-.2-3.33a2.375,2.375,0,0,1,2.019-2.478h0l1.916-.274a2.346,2.346,0,0,1,2.21.9,6.413,6.413,0,0,1,1.234,2.6,4.587,4.587,0,0,1-.645,3.072,2.318,2.318,0,0,1-1.435,1.084l-2.143.563A2.4,2.4,0,0,1,1364.535,318.836Zm.346-6.635a1.066,1.066,0,0,0-.909,1.115l.2,3.33a1.059,1.059,0,0,0,.439.8,1.04,1.04,0,0,0,.893.165l2.143-.563a1.04,1.04,0,0,0,.645-.48,3.319,3.319,0,0,0,.49-2.189,5.107,5.107,0,0,0-.991-2.05,1.058,1.058,0,0,0-1-.4Z" transform="translate(-1362.672 -310.622)" fill="#262424"/>
            </g>
            <g id="Group_438" data-name="Group 438" transform="translate(4.809 3.027)">
              <g id="Group_437" data-name="Group 437">
                <g id="Group_436" data-name="Group 436">
                  <path id="Path_690" data-name="Path 690" d="M1310.989,325.25c-1.544,6.16-1.022,13.977,6.361,16.053,5.427,1.523,13.394-3.108,16.383-11.142s3.738-15.474-6.253-18.04a25.537,25.537,0,0,0-3.253-.558c-6.1-.511-8.432-.676-12.34,10.419C1311.536,322.963,1311.278,324.088,1310.989,325.25Z" transform="translate(-1309.637 -310.762)" fill="#fff"/>
                  <path id="Path_691" data-name="Path 691" d="M1316.25,341.248c-7.306-2.267-8.163-10.094-6.5-16.739l.114-.46c.253-1.022.491-1.983.8-2.866,3.883-11.034,6.377-11.4,13-10.848a26.751,26.751,0,0,1,3.361.573c3.774.96,6.361,2.726,7.668,5.22,2.132,4.079.6,9.449-.971,13.672-3.248,8.731-11.653,13.089-17.163,11.54C1316.461,341.315,1316.353,341.279,1316.25,341.248Zm11.406-28.816c-.3-.093-.62-.181-.945-.268a24.344,24.344,0,0,0-3.149-.537c-5.928-.5-7.926-.661-11.674,9.991-.289.821-.521,1.756-.764,2.747l-.113.465h0c-.749,2.984-2.515,12.867,5.907,15.273,4.962,1.394,12.686-2.907,15.6-10.75,2.163-5.819,2.494-9.831,1.033-12.619C1332.519,314.75,1330.583,313.34,1327.655,312.431Z" transform="translate(-1309.033 -310.18)" fill="#262424"/>
                </g>
              </g>
            </g>
            <path id="Path_692" data-name="Path 692" d="M1328.865,326.738a6.136,6.136,0,0,1-2.241-5.865c.114-.743.341-1.714.408-2.644-5.519,3.067-14.2,3.279-17.937,3.206a2.8,2.8,0,0,1-2.654-1.921c-2.169-7.146,6.113-16.987,13.708-14.39,10.569-3.325,19.378,4.208,18.547,12C1337.772,325.783,1331,328.519,1328.865,326.738Z" transform="translate(-1302.801 -304.317)" fill="#262424"/>
            <g id="Group_440" data-name="Group 440" transform="translate(23.017 19.989)">
              <path id="Path_693" data-name="Path 693" d="M1348.168,345.646s5.246-2.871,9.01-.238-1.688,11.623-11.628,7.192Z" transform="translate(-1344.903 -343.643)" fill="#fff"/>
              <g id="Group_439" data-name="Group 439">
                <path id="Path_694" data-name="Path 694" d="M1346.452,353.249a16.4,16.4,0,0,1-1.771-.671.645.645,0,1,1,.527-1.177c5.535,2.463,9.759.583,11.339-2.21.728-1.291.909-2.984-.346-3.862-3.4-2.375-8.282.248-8.328.274a.647.647,0,0,1-.62-1.136c.227-.124,5.643-3.031,9.692-.2,1.657,1.162,1.952,3.392.728,5.556C1355.993,352.794,1351.863,354.927,1346.452,353.249Z" transform="translate(-1344.297 -343.031)" fill="#262424"/>
              </g>
            </g>
          </g>
        </g>
      </g>
    </g>
    <g id="Man_01" transform="translate(54.574 19.001)">
      <g id="Group_450" data-name="Group 450" transform="translate(0 109.94)">
        <g id="Group_445" data-name="Group 445" transform="translate(0 66.752)">
          <path id="Path_695" data-name="Path 695" d="M69.037,404.587c.093-.057.17-.114.253-.17,4.415-3.139,19.466-19.569,30.582-28.078,3.852-2.948,1.6-12.681-19.047-13.91-1.394-.077-2.871-.124-4.435-.129,0,0-18.8,12.986-20.524,27.613C54.172,404.277,64.478,407.453,69.037,404.587Z" transform="translate(-55.109 -361.737)" fill="url(#linear-gradient-8)"/>
          <g id="Group_443" data-name="Group 443" transform="translate(16.59 9.486)">
            <path id="Path_696" data-name="Path 696" d="M92.95,402.924a.644.644,0,0,0,.212-.072.571.571,0,0,0,.2-.78,22.808,22.808,0,0,0-5.277-6.4c3.805-4.6,16.548-14.968,16.683-15.077a.569.569,0,0,0-.718-.883c-.568.46-13.874,11.287-17.23,15.727a.569.569,0,0,0-.108.444.552.552,0,0,0,.253.377,19.762,19.762,0,0,1,5.416,6.387A.573.573,0,0,0,92.95,402.924Z" transform="translate(-86.704 -379.581)" fill="#262424"/>
          </g>
          <g id="Group_444" data-name="Group 444">
            <path id="Path_697" data-name="Path 697" d="M69.041,404.592c-4.792-.774-8.587-3.361-9.268-9.33-1.719-15.128,15.428-28.785,21.061-32.823-1.394-.077-2.871-.124-4.435-.129,0,0-18.8,12.986-20.524,27.613C54.176,404.282,64.482,407.458,69.041,404.592Z" transform="translate(-55.112 -361.742)" fill="#fff"/>
            <path id="Path_698" data-name="Path 698" d="M59.921,404.116c-2.4-1.518-6.258-5.458-5.153-14.793,1.73-14.715,19.987-27.479,20.767-28.016a.516.516,0,0,1,.325-.1c1.518.005,3.021.046,4.466.129a.566.566,0,0,1,.294,1.027c-5.313,3.81-22.517,17.4-20.829,32.3.573,5.008,3.532,7.982,8.8,8.834a.57.57,0,0,1,.212,1.043,6.9,6.9,0,0,1-2.788.981A9.251,9.251,0,0,1,59.921,404.116Zm-1.255-9.325c-1.637-14.442,13.5-27.51,20-32.394-.862-.031-1.74-.046-2.628-.052C74.3,363.585,57.489,375.925,55.9,389.458c-1.033,8.721,2.458,12.325,4.631,13.7a8.027,8.027,0,0,0,6.108,1.084C61.914,402.95,59.239,399.779,58.666,394.792Z" transform="translate(-54.574 -361.209)" fill="#262424"/>
          </g>
        </g>
        <g id="Group_446" data-name="Group 446" transform="translate(38.077 74.603)">
          <path id="Path_699" data-name="Path 699" d="M145.493,380.923l-12.98-3.413a7.207,7.207,0,0,0-3.093,6.371l12.118,5.979Z" transform="translate(-128.851 -376.945)" fill="#fff"/>
          <path id="Path_700" data-name="Path 700" d="M140.753,389.848l-12.118-5.979a.563.563,0,0,1-.315-.506,7.719,7.719,0,0,1,3.377-6.872.589.589,0,0,1,.429-.057l12.98,3.413a.573.573,0,0,1,.377.78l-3.955,8.943a.572.572,0,0,1-.325.3.447.447,0,0,1-.119.031A.608.608,0,0,1,140.753,389.848ZM132.084,377.6A6.75,6.75,0,0,0,129.461,383l11.266,5.561,3.444-7.791Z" transform="translate(-128.319 -376.416)" fill="#262424"/>
        </g>
        <g id="Group_449" data-name="Group 449" transform="translate(48.689 0)">
          <path id="Path_701" data-name="Path 701" d="M150.409,327.971s11.865,7.776,23.818,11.876c5.452,1.864,10.92,2.969,15.283,2.22,2.385-.413,5.458-1.895,8.984-4.187,17.132-11.086,44.89-40.909,55.474-56.492a64.366,64.366,0,0,0,6.31-11.736c6.423-15.6,5.54-31.093-1.781-36.024-6.057-4.079-13.182-.387-20.663,6.506a181.352,181.352,0,0,0-15.206,16.677c-12.733,15.227-47.058,52.727-47.058,52.727l-17.932-2.556C143.909,311.9,150.409,327.971,150.409,327.971Z" transform="translate(-148.872 -231.928)" fill="url(#linear-gradient-4)"/>
          <path id="Path_702" data-name="Path 702" d="M320.17,252.391l22.961,17.261c6.423-15.6,5.54-31.093-1.781-36.024-6.057-4.079-13.182-.387-20.663,6.506Z" transform="translate(-231.724 -231.928)" fill="#262424"/>
          <path id="Path_703" data-name="Path 703" d="M197.879,430.327c5.452,1.864,10.92,2.969,15.283,2.22,2.385-.413,5.458-1.895,8.984-4.187-.392-4.606-5.323-9.893-13.166-9.32C199.366,419.742,197.229,426.413,197.879,430.327Z" transform="translate(-172.523 -322.408)" fill="url(#linear-gradient-7)"/>
          <g id="Group_447" data-name="Group 447" transform="translate(9.981 18.381)">
            <path id="Path_704" data-name="Path 704" d="M191.8,339.975a.507.507,0,0,0,.222-.083c23.452-14.54,67.887-70.876,68.336-71.444a.57.57,0,0,0-.9-.7c-.444.563-44.518,56.445-67.851,71.062l-22.734-4.322a.57.57,0,0,0-.212,1.12l22.951,4.363A.563.563,0,0,0,191.8,339.975Z" transform="translate(-168.201 -267.528)" fill="#262424"/>
          </g>
          <g id="Group_448" data-name="Group 448" transform="translate(3.886 77.502)">
            <path id="Path_705" data-name="Path 705" d="M157.928,401.258c.021-.005.041-.005.062-.01a.57.57,0,0,0,.413-.692c-3.5-13.817,4.528-17.292,4.869-17.431a.569.569,0,0,0-.429-1.053c-.093.036-9.3,3.945-5.545,18.763A.58.58,0,0,0,157.928,401.258Z" transform="translate(-156.398 -382.029)" fill="#262424"/>
          </g>
        </g>
      </g>
      <g id="Group_462" data-name="Group 462" transform="translate(83.02 106.699)">
        <g id="Group_453" data-name="Group 453" transform="translate(0 125.838)">
          <path id="Path_706" data-name="Path 706" d="M217.881,508.083c3.521,17.617,11.111,26.663,18.448,24.4a9.023,9.023,0,0,0,3.583-2.014c3.687-3.4,3.558-9.511,3.5-14.488-.077-6.237,1.6-31.625,1.859-36.319s-2.349-10.786-7.559-10.259c-3.521.361-9.815,2.69-14.261,4.482-2.922,1.182-5.05,2.132-5.05,2.132A75.872,75.872,0,0,0,217.881,508.083Z" transform="translate(-215.884 -469.368)" fill="url(#linear-gradient-11)"/>
          <g id="Group_451" data-name="Group 451" transform="translate(15.127 9.031)">
            <path id="Path_707" data-name="Path 707" d="M255.771,517.416a.566.566,0,0,0-.036-1.126,23.213,23.213,0,0,0-7.957.96c-1.895-8.53-1.983-29.606-1.983-29.823a.57.57,0,0,0-.568-.568.563.563,0,0,0-.568.568c0,.914.088,22.455,2.153,30.685a.557.557,0,0,0,.284.361.573.573,0,0,0,.46.036,22.523,22.523,0,0,1,8.1-1.089A.881.881,0,0,0,255.771,517.416Z" transform="translate(-244.66 -486.86)" fill="#262424"/>
          </g>
          <g id="Group_452" data-name="Group 452" transform="translate(0 4.162)">
            <path id="Path_708" data-name="Path 708" d="M217.88,512.51c3.521,17.617,11.111,26.663,18.448,24.4a9.8,9.8,0,0,0,1.229-.465c-3.361-.253-9.423-2.974-13.931-17.865a77.092,77.092,0,0,1-.7-40.057c-2.654,1.084-4.533,1.926-4.533,1.926A75.9,75.9,0,0,0,217.88,512.51Z" transform="translate(-215.883 -477.956)" fill="#fff"/>
            <path id="Path_709" data-name="Path 709" d="M229.008,535.955c-5.365-3.191-9.81-11.891-12.206-23.86h0a77.338,77.338,0,0,1,.527-32.327.572.572,0,0,1,.315-.367c.021-.01,1.921-.857,4.549-1.931a.568.568,0,0,1,.589.1.584.584,0,0,1,.176.573,76.354,76.354,0,0,0,.692,39.747c4.435,14.653,10.316,17.23,13.43,17.462a.568.568,0,0,1,.191,1.084,10.706,10.706,0,0,1-1.3.49,8.119,8.119,0,0,1-1.358.3A8.542,8.542,0,0,1,229.008,535.955Zm-6.444-17.741a77.575,77.575,0,0,1-.981-39.262c-1.554.645-2.737,1.162-3.227,1.379a76.5,76.5,0,0,0-.444,31.543c2.329,11.654,6.583,20.075,11.669,23.106a7.317,7.317,0,0,0,5.267,1.053C231.31,534.814,226.349,530.714,222.564,518.214Zm-5.21-6.232h0Z" transform="translate(-215.362 -477.428)" fill="#262424"/>
          </g>
        </g>
        <g id="Group_455" data-name="Group 455" transform="translate(22.13 117.37)">
          <g id="Group_454" data-name="Group 454">
            <path id="Path_710" data-name="Path 710" d="M264.417,471.754l5.282-3.8,7.786-5.607-6.661-8.277-2.571,2.411-8.628,8.075S257.555,470.479,264.417,471.754Z" transform="translate(-258.759 -453.501)" fill="#fff"/>
            <path id="Path_711" data-name="Path 711" d="M263.777,471.784a5.877,5.877,0,0,1-5.23-7.946.565.565,0,0,1,.15-.227l11.2-10.487a.574.574,0,0,1,.429-.155.557.557,0,0,1,.4.212l6.661,8.277a.574.574,0,0,1-.114.821l-13.068,9.408a.592.592,0,0,1-.258.1A.668.668,0,0,1,263.777,471.784Zm6.454-17.411-10.647,9.965a5.331,5.331,0,0,0,.351,3.934,5.4,5.4,0,0,0,3.816,2.349l12.382-8.912Z" transform="translate(-258.222 -452.968)" fill="#262424"/>
          </g>
          <path id="Path_712" data-name="Path 712" d="M277.791,467.954l7.786-5.607-6.661-8.277-2.571,2.411A19.854,19.854,0,0,0,277.791,467.954Z" transform="translate(-266.851 -453.501)" fill="#262424"/>
        </g>
        <g id="Group_461" data-name="Group 461" transform="translate(10.996)">
          <g id="Group_456" data-name="Group 456" transform="translate(38.344 23.084)">
            <path id="Path_713" data-name="Path 713" d="M311.561,285.193a.544.544,0,0,0,.124-.031l4.1-1.508a.571.571,0,0,0,.361-.418l2.561-12.2a.567.567,0,1,0-1.11-.232l-2.5,11.886-3.8,1.4a.57.57,0,0,0,.269,1.1Z" transform="translate(-310.922 -270.358)" fill="#262424"/>
          </g>
          <path id="Path_714" data-name="Path 714" d="M243.441,282.086c7.92,14.8,28.8,40.656,28.8,40.656L257.584,340.2c-.176,18.567,14.648,20.772,14.648,20.772s16.961-12.273,26.193-20.219a45.746,45.746,0,0,0,5.029-4.823c3.965-4.848,5.716-10.512,2.8-19.559a53.769,53.769,0,0,0-2.964-7.177c-6.588-13.45-27.174-45.654-27.174-45.654s7.43-29.911-3.444-35.472c-12.727-6.506-28.476,12.82-31.966,20.937S235.521,267.288,243.441,282.086Z" transform="translate(-237.204 -226.184)" fill="url(#linear-gradient-4)"/>
          <g id="Group_457" data-name="Group 457">
            <path id="Path_715" data-name="Path 715" d="M264.448,313.416a.558.558,0,0,0,.268-.114.567.567,0,0,0,.1-.8c-7.13-9.3-16.636-22.274-21.422-31.222-8.225-15.371-5.773-25.491-2.716-32.591,2.308-5.365,11.091-17.416,20.932-20.963a12.512,12.512,0,0,1,10.254.3c10.352,5.292,3.222,34.532,3.15,34.826a.586.586,0,0,0,.072.444c.062.1,6.268,9.81,12.872,20.653a.568.568,0,0,0,.971-.589c-6.077-9.981-11.824-19.006-12.753-20.467.733-3.062,6.955-30.381-3.795-35.874a13.573,13.573,0,0,0-11.158-.361c-10.161,3.666-19.218,16.063-21.593,21.583-3.155,7.332-5.7,17.777,2.757,33.577,4.823,9.015,14.364,22.037,21.521,31.377A.6.6,0,0,0,264.448,313.416Z" transform="translate(-236.659 -225.65)" fill="#262424"/>
          </g>
          <g id="Group_458" data-name="Group 458" transform="translate(23.282 30.696)">
            <path id="Path_716" data-name="Path 716" d="M297.457,292.324a.565.565,0,0,0,.274-1.007c-.2-.155-4.915-3.774-15.283-6.2a.567.567,0,1,0-.258,1.1c10.094,2.365,14.8,5.953,14.839,5.989A.616.616,0,0,0,297.457,292.324Z" transform="translate(-281.75 -285.1)" fill="#262424"/>
          </g>
          <path id="Path_717" data-name="Path 717" d="M341.1,419.37a8.122,8.122,0,0,0,5.556,2.53,45.746,45.746,0,0,0,5.029-4.823c3.965-4.848,5.716-10.512,2.8-19.559a6.522,6.522,0,0,0-5.736-2.979C336.78,395.19,334.581,412.885,341.1,419.37Z" transform="translate(-285.431 -307.332)" fill="url(#linear-gradient-8)"/>
          <g id="Group_459" data-name="Group 459" transform="translate(10.576 13.096)">
            <path id="Path_718" data-name="Path 718" d="M275.171,351.975a.556.556,0,0,0,.31-.145l19.378-17.9a.573.573,0,0,0,.114-.692c-7.471-13.554-34.372-58.872-36.628-62.667,2.835-6.423,11.881-18.526,11.974-18.65a.568.568,0,1,0-.909-.682c-.387.516-9.469,12.676-12.221,19.151a.56.56,0,0,0,.036.511c.289.48,28.491,47.951,36.541,62.5L274.712,351a.564.564,0,0,0,.46.976Z" transform="translate(-257.142 -251.014)" fill="#262424"/>
          </g>
          <g id="Group_460" data-name="Group 460" transform="translate(23.447 111.336)">
            <path id="Path_719" data-name="Path 719" d="M295.118,460.715a.57.57,0,0,0,.072-1.115c-12.025-3.217-11.989-17.6-11.984-17.746a.568.568,0,0,0-1.136-.01c0,.155-.041,15.418,12.826,18.861A.643.643,0,0,0,295.118,460.715Z" transform="translate(-282.07 -441.28)" fill="#262424"/>
          </g>
        </g>
      </g>
      <path id="Path_720" data-name="Path 720" d="M527.923,108.288l9.408.1,22.011-9.784s6.02-5.339,9.64-1.3c0,0,6.108,5.21-4.4,11.715l-19.7,13.239-21,1.131Z" transform="translate(-281.559 -56.145)" fill="#fff" stroke="#262424" stroke-linecap="round" stroke-linejoin="round" stroke-miterlimit="10" stroke-width="1"/>
      <g id="Group_465" data-name="Group 465" transform="translate(187.288 32.172)">
        <g id="Group_464" data-name="Group 464">
          <path id="Path_721" data-name="Path 721" d="M423.772,81.31l56.042,14.054s2.866,22.373-11.679,31.543l-44.316-16C423.813,110.916,409.2,95.241,423.772,81.31Z" transform="translate(-417.304 -81.31)" fill="url(#linear-gradient-5)"/>
          <g id="Group_463" data-name="Group 463" transform="translate(48.124 15.019)">
            <path id="Path_722" data-name="Path 722" d="M511.15,137.676a.582.582,0,0,0,.279-.119c11.5-9.278,9.025-26.5,9-26.674a.567.567,0,1,0-1.12.17c.026.165,2.4,16.755-8.587,25.615a.568.568,0,0,0,.429,1.007Z" transform="translate(-510.509 -110.397)" fill="#262424"/>
          </g>
        </g>
      </g>
      <g id="Group_469" data-name="Group 469" transform="translate(95.86 31.952)">
        <path id="Path_723" data-name="Path 723" d="M333.123,81.208l-23.41,5.53-34.135,2.019s-23.343,41.663-35.348,78.833c0,0,16.843,21.433,44.358,21.355s37.94-10.657,37.94-10.657-.031-22.935,7.657-39.644c5.814-12.635,18.49-31.873,17.5-46.774A11.84,11.84,0,0,0,333.123,81.208Z" transform="translate(-240.23 -80.885)" fill="url(#linear-gradient-5)"/>
        <g id="Group_466" data-name="Group 466" transform="translate(102.78 2.895)">
          <path id="Path_724" data-name="Path 724" d="M439.93,114.533a.576.576,0,0,0,.454-.351c3.15-7.828,4.508-14.251,4.146-19.636a12.271,12.271,0,0,0-3.594-7.89.57.57,0,0,0-.8.811,11.137,11.137,0,0,1,3.263,7.156c.346,5.21-.986,11.473-4.069,19.135a.569.569,0,0,0,.315.738A.5.5,0,0,0,439.93,114.533Z" transform="translate(-439.289 -86.492)" fill="#262424"/>
        </g>
        <g id="Group_467" data-name="Group 467" transform="translate(3.072 83.983)">
          <path id="Path_725" data-name="Path 725" d="M297.952,262.943a76.032,76.032,0,0,0,24.216-7.311.57.57,0,1,0-.552-1,77.3,77.3,0,0,1-38.528,7.714c-20.607-1.332-35.761-18.443-35.911-18.614a.567.567,0,0,0-.857.744c.155.176,15.619,17.638,36.7,19A74.711,74.711,0,0,0,297.952,262.943Z" transform="translate(-246.18 -243.54)" fill="#262424"/>
        </g>
        <g id="Group_468" data-name="Group 468" transform="translate(62.711 1.631)">
          <path id="Path_726" data-name="Path 726" d="M371.947,85.147c7.136-.186,18.779,8.365,10.853,18.608a32.967,32.967,0,0,0-5.225-5.22,33.674,33.674,0,0,1-2.019,7.724s-9.16-2.969-12.072-10.605S367.564,85.261,371.947,85.147Z" transform="translate(-362.223 -84.576)" fill="#fff"/>
          <path id="Path_727" data-name="Path 727" d="M374.844,106.27c-.382-.124-9.454-3.144-12.428-10.946-1.084-2.845-.96-5.287.367-7.27,1.905-2.845,5.829-3.934,8.607-4.007h0c4.291-.108,10.481,2.855,13.006,7.838,1.327,2.618,2.112,6.774-1.688,11.685a.569.569,0,0,1-.9.005,33.72,33.72,0,0,0-4.363-4.508,33.183,33.183,0,0,1-1.905,6.883.573.573,0,0,1-.449.346A.689.689,0,0,1,374.844,106.27Zm2.535-8.721a32.328,32.328,0,0,1,4.859,4.745c2.344-3.335,2.742-6.743,1.146-9.9-2.251-4.44-8-7.316-11.963-7.213h0c-2.706.072-6.134,1.182-7.693,3.506-1.11,1.657-1.193,3.754-.248,6.232,2.391,6.279,9.3,9.34,11.215,10.084a34.136,34.136,0,0,0,1.776-7.074.565.565,0,0,1,.346-.454.667.667,0,0,1,.145-.041A.583.583,0,0,1,377.379,97.549Z" transform="translate(-361.686 -84.044)" fill="#262424"/>
        </g>
      </g>
      <g id="Group_471" data-name="Group 471" transform="translate(162.646 19.854)">
        <g id="Group_470" data-name="Group 470">
          <path id="Path_728" data-name="Path 728" d="M374.423,58.55l-1.379,7.084L370.69,77.747c3.423,3.733,7.3,4.905,11.731,2.9l.687-5.721,1.038-8.659Z" transform="translate(-370.116 -57.984)" fill="#fff"/>
          <path id="Path_729" data-name="Path 729" d="M369.729,77.6a.556.556,0,0,1-.139-.491l3.733-19.2a.56.56,0,0,1,.361-.423.577.577,0,0,1,.552.088l9.722,7.714a.573.573,0,0,1,.212.511l-1.725,14.38a.576.576,0,0,1-.33.449,11.376,11.376,0,0,1-3.16.94C375.651,82.013,372.558,80.686,369.729,77.6ZM383,65.976l-8.741-6.934-3.5,17.994c3.258,3.439,6.728,4.316,10.59,2.68Z" transform="translate(-369.578 -57.453)" fill="#262424"/>
        </g>
        <path id="Path_730" data-name="Path 730" d="M383.541,63.71c-.651,3.191-3.346,13.962,4.931,17.023l1.435-11.974Z" transform="translate(-375.878 -60.479)" fill="#262424"/>
      </g>
      <g id="Group_477" data-name="Group 477" transform="translate(157.308)">
        <g id="Group_474" data-name="Group 474" transform="translate(1.666)">
          <g id="Group_472" data-name="Group 472" transform="translate(5.153 7.718)">
            <path id="Path_731" data-name="Path 731" d="M395.28,49.321c-.805,5.783-2.757,12.666-9.681,11.323-8.235-1.6-13.368-7.662-13.146-15.547s4.027-12.191,13.435-10.931a14.514,14.514,0,0,1,2.36.516c5.375,1.673,7.936,6.273,7.4,11.545C395.544,47.173,395.435,48.226,395.28,49.321Z" transform="translate(-372.447 -33.95)" fill="#fff"/>
          </g>
          <g id="Group_473" data-name="Group 473" transform="translate(9.476 7.232)">
            <path id="Path_732" data-name="Path 732" d="M391.792,61.051a6.537,6.537,0,0,0,3.6-1.28c3.573-2.649,4.456-8.576,5-13.925.692-6.748-3.475-11.907-10.368-12.831a.708.708,0,1,0-.186,1.4c6.175.831,9.769,5.261,9.149,11.287-.372,3.645-1.069,10.435-4.44,12.934a5.766,5.766,0,0,1-4.771.862,16.639,16.639,0,0,1-7.791-3.619.707.707,0,1,0-.919,1.074,18.23,18.23,0,0,0,8.442,3.934A9.736,9.736,0,0,0,391.792,61.051Z" transform="translate(-380.82 -33.008)" fill="#262424"/>
          </g>
          <path id="Path_733" data-name="Path 733" d="M364.436,38.838a24.386,24.386,0,0,0,2.576,3.372l3.738.449.764-2.917s3.4-.077,4.017-1.864c0,0,.015-.041.041-.124a23.2,23.2,0,0,0,.568-7.316s6.32,3.082,9.805,3.583a7.964,7.964,0,0,0,4.136-.873c2.788-1.25,5.354-5.623,4.993-8.659,0-.021-.005-.041-.005-.057-.583-4.451-3.005-1.477-3.005-1.477s-.521-3.583-2.742-3.929-3.769,2.9-3.769,2.9a35.138,35.138,0,0,0-13.042-1.043c-8.674.986-6.754,7.012-6.754,7.012S359.334,29.7,364.436,38.838Z" transform="translate(-362.467 -19.001)" fill="#262424"/>
        </g>
        <g id="Group_476" data-name="Group 476" transform="translate(0 15.979)">
          <path id="Path_734" data-name="Path 734" d="M370.046,58.168A6.265,6.265,0,0,0,364.7,51.1a5.593,5.593,0,0,0-2.034.134c-4.182,1.064-3.232,10.781,6.976,10.192Z" transform="translate(-359.772 -50.49)" fill="#fff"/>
          <g id="Group_475" data-name="Group 475">
            <path id="Path_735" data-name="Path 735" d="M369.19,61.448a.568.568,0,0,0-.108-1.131c-5.726.33-8.235-2.644-8.643-5.292-.284-1.848.491-3.439,1.843-3.785a5.036,5.036,0,0,1,1.828-.119,5.644,5.644,0,0,1,4.8,4.683.557.557,0,0,0,.656.46.566.566,0,0,0,.46-.656,6.777,6.777,0,0,0-5.793-5.618,6.226,6.226,0,0,0-2.236.145c-1.931.491-3.062,2.618-2.685,5.06.521,3.366,3.764,6.6,9.831,6.253Z" transform="translate(-359.24 -49.949)" fill="#262424"/>
          </g>
        </g>
      </g>
      <g id="Group_485" data-name="Group 485" transform="translate(104.487 39.32)">
        <g id="Group_481" data-name="Group 481">
          <path id="Path_736" data-name="Path 736" d="M256.94,147.715s3.243,9.883,19.6,7.869c10.693-1.317,14.984-7.729,16.667-12.02.893-2.267,7.673-27.2,7.513-34.057s-3.965-16.667-17.059-13.858c-12.118,2.613-25.006,46.082-26.57,51.5a.942.942,0,0,1-.036.129c-.01.026-.016.046-.021.062-.052.2-.088.325-.088.356Z" transform="translate(-256.94 -95.155)" fill="url(#linear-gradient-8)"/>
          <g id="Group_478" data-name="Group 478" transform="translate(2.177 1.27)">
            <path id="Path_737" data-name="Path 737" d="M278.982,157.295c10.967-1.477,15.227-8.344,16.8-12.33.878-2.22,7.714-27.257,7.554-34.279-.052-2.138-.645-9.392-6.211-12.98a.568.568,0,0,0-.614.955c5.1,3.289,5.643,10.058,5.69,12.051.155,6.7-6.619,31.666-7.471,33.835-1.8,4.585-6.02,10.29-15.882,11.623-.108.015-.217.031-.33.041-9,1.11-13.884-1.466-16.4-3.816a.57.57,0,1,0-.78.831c2.69,2.52,7.879,5.277,17.312,4.115Z" transform="translate(-261.156 -97.615)" fill="#262424"/>
          </g>
          <g id="Group_479" data-name="Group 479" transform="translate(4.572 37.715)">
            <path id="Path_738" data-name="Path 738" d="M296.1,174.138a.6.6,0,0,0,.372-.212.561.561,0,0,0-.093-.8c-.134-.1-13.414-10.332-30.288-1.022a.57.57,0,1,0,.552,1c16.2-8.932,28.909.821,29.038.919A.538.538,0,0,0,296.1,174.138Z" transform="translate(-265.794 -168.2)" fill="#262424"/>
          </g>
          <path id="Path_739" data-name="Path 739" d="M256.94,187.1s2.633,8.039,15.149,8.143a35.64,35.64,0,0,0,4.451-.274c10.693-1.317,14.984-7.729,16.667-12.02a22.663,22.663,0,0,0-10.12-5.525,28.237,28.237,0,0,0-9.9-.676c-1.146.119-2.21.274-3.2.475-9.717,1.936-12.3,7.528-12.9,9.315a.936.936,0,0,1-.036.129c-.01.026-.015.046-.021.062a2.517,2.517,0,0,0-.088.356Z" transform="translate(-256.94 -134.545)" fill="url(#linear-gradient-7)"/>
          <g id="Group_480" data-name="Group 480" transform="translate(2.142 41.486)">
            <path id="Path_740" data-name="Path 740" d="M278.949,194.967c10.972-1.477,15.232-8.344,16.8-12.33a.577.577,0,0,0-.134-.62,23.171,23.171,0,0,0-10.373-5.664,28.977,28.977,0,0,0-10.1-.692,32.744,32.744,0,0,0-3.258.485c-4.569.909-8.148,2.711-10.636,5.354a.57.57,0,1,0,.831.78c2.323-2.468,5.7-4.156,10.037-5.019.971-.2,2.029-.356,3.15-.47a27.713,27.713,0,0,1,9.7.661,22.046,22.046,0,0,1,9.588,5.122c-1.9,4.57-6.211,10.068-16.068,11.308a35.468,35.468,0,0,1-4.379.268c-6.387-.052-10.063-2.251-12.02-4.084a.564.564,0,0,0-.8.026.571.571,0,0,0,.026.805c2.107,1.972,6.036,4.332,12.789,4.389a35.784,35.784,0,0,0,4.523-.274Z" transform="translate(-261.088 -175.503)" fill="#262424"/>
          </g>
        </g>
        <g id="Group_484" data-name="Group 484" transform="translate(12.484 34.343)">
          <g id="Group_483" data-name="Group 483">
            <g id="Group_482" data-name="Group 482">
              <path id="Path_741" data-name="Path 741" d="M283.191,186.278a6.172,6.172,0,0,0,1.115,2.282c2.819,3.666,10.4,5.989,22.718,2.277,10.012-3.026,25.45-11.994,34.32-17.442,4.188-2.566,6.914-4.348,6.914-4.348l-2.721-6.279s-.429.057-1.2.17c-6.6.96-38.58,5.618-49.031,7.807a28.237,28.237,0,0,0-9.9-.676c-1.146.119-2.21.274-3.2.475l.289,5.365.434,8.029.01.243A9.746,9.746,0,0,0,283.191,186.278Z" transform="translate(-281.642 -162.202)" fill="#fff"/>
              <path id="Path_742" data-name="Path 742" d="M283.334,188.374a6.64,6.64,0,0,1-1.219-2.494h0a9.837,9.837,0,0,1-.268-2.2l-.728-13.631a.574.574,0,0,1,.454-.589,32.745,32.745,0,0,1,3.258-.485,29.025,29.025,0,0,1,9.97.661c9.826-2.045,37.465-6.124,48.932-7.786.774-.114,1.208-.17,1.208-.17a.569.569,0,0,1,.6.336l2.721,6.279a.57.57,0,0,1-.212.7c-.026.015-2.783,1.817-6.929,4.358-8.488,5.215-24.257,14.421-34.455,17.5a46.585,46.585,0,0,1-7.218,1.606C290.919,193.6,285.616,191.343,283.334,188.374Zm61.329-25.517c-.2.026-.454.062-.769.108-8.979,1.3-39.045,5.716-48.994,7.8a.545.545,0,0,1-.258-.005,27.713,27.713,0,0,0-9.7-.661c-.94.093-1.833.222-2.664.377l.692,12.913.01.258a8.8,8.8,0,0,0,.238,1.962h0a5.5,5.5,0,0,0,1.017,2.07c2.638,3.434,9.831,5.783,22.1,2.076,10.074-3.041,25.744-12.2,34.186-17.38,3.217-1.972,5.592-3.5,6.5-4.079Z" transform="translate(-281.118 -161.669)" fill="#262424"/>
            </g>
            <path id="Path_743" data-name="Path 743" d="M396.75,173.4c4.187-2.566,6.914-4.348,6.914-4.348l-2.721-6.279s-.429.057-1.2.17Z" transform="translate(-337.046 -162.202)" fill="#262424"/>
            <path id="Path_744" data-name="Path 744" d="M282.5,182.607a55.829,55.829,0,0,1,12.815-5.168,28.237,28.237,0,0,0-9.9-.676c-1.146.119-2.21.274-3.2.475Z" transform="translate(-281.646 -168.893)" fill="#262424"/>
          </g>
        </g>
      </g>
      <path id="Path_745" data-name="Path 745" d="M598.92,80.424l3.459-14.457a1.528,1.528,0,0,1,1.647-1.167h0a1.53,1.53,0,0,1,1.368,1.663l-.563,6.2,8.783-10.843a1.575,1.575,0,0,1,2.122-.3h0a1.575,1.575,0,0,1,.47,2.065l-4.44,7.828,5.375-5.081a2.636,2.636,0,0,1,3.842.222,23.05,23.05,0,0,1,4.094,7.187,2.643,2.643,0,0,1-.981,3.01L611.844,85.4l-7.76,3.15Z" transform="translate(-317.858 -39.428)" fill="#fff" stroke="#262424" stroke-linecap="round" stroke-linejoin="round" stroke-miterlimit="10" stroke-width="1"/>
      <g id="Group_486" data-name="Group 486" transform="translate(177 56.133)">
        <path id="Path_746" data-name="Path 746" d="M398.7,146.589l5.215-14.235a1.567,1.567,0,0,1,1.807-.991h0a1.566,1.566,0,0,1,1.193,1.848l-1.306,6.206,10.182-9.945a1.6,1.6,0,0,1,2.184-.052h0a1.6,1.6,0,0,1,.227,2.143l-5.421,7.4,6.046-4.513a2.694,2.694,0,0,1,3.867.682,23.5,23.5,0,0,1,3.294,7.766,2.7,2.7,0,0,1-1.353,2.933L411.2,153.141l-8.23,2.272Z" transform="translate(-398.018 -128.346)" fill="#fff"/>
        <path id="Path_747" data-name="Path 747" d="M402.393,155.471a.683.683,0,0,1-.676-.382l-4.27-8.829a.681.681,0,0,1-.026-.532l5.215-14.235a2.251,2.251,0,0,1,4.316,1.239l-.842,4,8.571-8.37a2.286,2.286,0,0,1,3.439,2.99l-2.726,3.723,2.385-1.781a3.378,3.378,0,0,1,4.848.857,24.372,24.372,0,0,1,3.392,7.993,3.392,3.392,0,0,1-1.694,3.676l-13.435,7.306a.5.5,0,0,1-.145.057l-8.23,2.272A1.015,1.015,0,0,1,402.393,155.471Zm-3.589-9.547,3.9,8.055,7.606-2.1,13.368-7.27a2.013,2.013,0,0,0,1.012-2.184,22.951,22.951,0,0,0-3.2-7.538,2.007,2.007,0,0,0-2.886-.506l-6.046,4.513a.685.685,0,0,1-.966-.95l5.421-7.4a.916.916,0,0,0-1.379-1.2l-10.182,9.944a.684.684,0,0,1-1.146-.63l1.306-6.206a.88.88,0,0,0-1.688-.48Z" transform="translate(-397.379 -127.717)" fill="#262424"/>
      </g>
    </g>
    <g id="Woman_02" transform="translate(308.17 407.959)">
      <g id="Group_493" data-name="Group 493" transform="translate(0 153.534)">
        <g id="Group_487" data-name="Group 487" transform="translate(45.022 121.038)">
          <path id="Path_748" data-name="Path 748" d="M637.13,1305.3l14.881,4.177-.351,8.065L634.13,1315.7Z" transform="translate(-633.507 -1304.677)" fill="#fff"/>
          <path id="Path_749" data-name="Path 749" d="M651.013,1317.589h-.005l-17.524-1.843a.625.625,0,0,1-.454-.274.633.633,0,0,1-.083-.527l3-10.4a.627.627,0,0,1,.775-.428L651.6,1308.3a.633.633,0,0,1,.46.63l-.356,8.065a.625.625,0,0,1-.217.449A.686.686,0,0,1,651.013,1317.589Zm-16.657-3.021,16.115,1.7.3-6.9-13.8-3.878Z" transform="translate(-632.923 -1304.094)" fill="#262424"/>
        </g>
        <g id="Group_489" data-name="Group 489" transform="translate(59.695 109.194)">
          <path id="Path_750" data-name="Path 750" d="M701.66,1325.5a10.231,10.231,0,0,1-4.347,2.711,11.976,11.976,0,0,1-12.185-2.711c-5.664-5.292-23.044-17.638-23.044-17.638,3.191-8.814-.744-12.1-.744-12.1a94.529,94.529,0,0,1,11.354-10.357c2.318-1.843,3.96-3.046,3.96-3.046C688.711,1294.964,701.66,1325.5,701.66,1325.5Z" transform="translate(-661.34 -1281.738)" fill="url(#linear-gradient-4)"/>
          <g id="Group_488" data-name="Group 488" transform="translate(10.721)">
            <path id="Path_751" data-name="Path 751" d="M712.3,1325.5a10.231,10.231,0,0,1-4.347,2.711,164.755,164.755,0,0,0-24.619-42.8c2.318-1.843,3.96-3.046,3.96-3.046C699.346,1294.968,712.3,1325.5,712.3,1325.5Z" transform="translate(-682.697 -1281.743)" fill="#fff"/>
            <path id="Path_752" data-name="Path 752" d="M707.294,1328.252a.63.63,0,0,1-.527-.4,164.43,164.43,0,0,0-24.52-42.628.632.632,0,0,1-.139-.465.625.625,0,0,1,.232-.423c2.3-1.828,3.96-3.052,3.976-3.062a.63.63,0,0,1,.826.072c12,12.536,25.006,43.02,25.135,43.325a.62.62,0,0,1-.114.666,10.8,10.8,0,0,1-4.616,2.886A.589.589,0,0,1,707.294,1328.252Zm-23.669-43.325a166.726,166.726,0,0,1,24.092,41.905,9.612,9.612,0,0,0,3.243-2.045c-1.518-3.511-13.326-30.334-24.34-42.163C686.052,1283.047,684.973,1283.863,683.625,1284.927Z" transform="translate(-682.104 -1281.155)" fill="#262424"/>
          </g>
        </g>
        <path id="Path_753" data-name="Path 753" d="M609.175,1289.5s3.15-2.37,8.07-.563,9.593,7.1,6.129,17.121-15.64,12.449-21.221,2.726S609.175,1289.5,609.175,1289.5Z" transform="translate(-572.328 -1175.395)" fill="url(#linear-gradient-19)"/>
        <path id="Path_754" data-name="Path 754" d="M618.861,1137.889l-37.522,44.848c5.463,2.184,12.16,7.177,10.419,14.865-1.735,7.668-8.318,8.38-8.318,8.38a202.94,202.94,0,0,1-23.452-3.749c-.744-.17-1.466-.361-2.189-.552-7.8-2.071-13.4-5.871-11.8-17.225.594-4.312,2.23-9.686,5.184-16.476,10.7-24.686,44.255-83.764,44.255-83.764,11.623-20.271,41.394-20.586,39.081,6.909A104.749,104.749,0,0,1,618.861,1137.889Z" transform="translate(-545.727 -1069.673)" fill="url(#linear-gradient-4)"/>
        <g id="Group_490" data-name="Group 490" transform="translate(43.425 20.178)">
          <path id="Path_755" data-name="Path 755" d="M633.914,1122.073a8.7,8.7,0,0,1-3.78-1.4.655.655,0,0,1,.7-1.1,5.925,5.925,0,0,0,5.545.868c4.874-1.957,7.167-11.091,7.187-11.179a.654.654,0,1,1,1.27.31c-.1.4-2.473,9.872-7.967,12.082A6.247,6.247,0,0,1,633.914,1122.073Z" transform="translate(-629.83 -1108.752)" fill="#262424"/>
        </g>
        <path id="Path_756" data-name="Path 756" d="M563.071,1301.584a11.322,11.322,0,0,1-3.072,6.759c-.744-.17-1.466-.361-2.189-.552-7.8-2.07-13.4-5.871-11.8-17.225a11.3,11.3,0,0,1,6.754-1.456A11.455,11.455,0,0,1,563.071,1301.584Z" transform="translate(-545.731 -1175.782)" fill="#fff"/>
        <g id="Group_491" data-name="Group 491" transform="translate(26.2 61.877)">
          <path id="Path_757" data-name="Path 757" d="M613,1250.056a.937.937,0,0,1-.119-.021l-15.934-4.533a.639.639,0,0,1-.444-.428.652.652,0,0,1,.109-.6l42.649-54.7a.655.655,0,0,1,1.033.805l-42.05,53.936,15,4.265a.657.657,0,0,1-.243,1.286Z" transform="translate(-596.469 -1189.513)" fill="#262424"/>
        </g>
        <g id="Group_492" data-name="Group 492" transform="translate(19.999 112.794)">
          <path id="Path_758" data-name="Path 758" d="M585.054,1295.213a.658.658,0,0,1-.139-1.281l6.139-1.972,6.65-3.749a.656.656,0,0,1,.645,1.141l-6.707,3.785a.481.481,0,0,1-.119.052l-6.2,1.993A.61.61,0,0,1,585.054,1295.213Z" transform="translate(-584.46 -1288.128)" fill="#262424"/>
        </g>
      </g>
      <g id="Group_504" data-name="Group 504" transform="translate(69.583 156.971)">
        <g id="Group_495" data-name="Group 495" transform="translate(80.703 68.251)">
          <path id="Path_759" data-name="Path 759" d="M854.631,1267.313h-.021c-6.748,1.177-15.035-20.018-16.894-29.3a56.6,56.6,0,0,1,.01-20.421c.279-1.038,2.731-4.027,5.3-5.927a.43.43,0,0,1,.062-.036,10.414,10.414,0,0,1,2.231-1.327c6.908-2.866,12.268,5.184,13.987,21.381C861,1247.879,861.384,1266.074,854.631,1267.313Z" transform="translate(-836.793 -1209.105)" fill="url(#linear-gradient-21)"/>
          <g id="Group_494" data-name="Group 494" transform="translate(5.671)">
            <path id="Path_760" data-name="Path 760" d="M860.525,1267.318H860.5c3.506-3.552,3.878-14.762,1.771-34-2.845-25.966-12.413-22.094-13.3-21.675a10.417,10.417,0,0,1,2.231-1.327c6.909-2.866,12.268,5.184,13.987,21.381C866.9,1247.884,867.279,1266.079,860.525,1267.318Z" transform="translate(-848.358 -1209.11)" fill="#fff"/>
            <path id="Path_761" data-name="Path 761" d="M859.886,1267.349h-.021a.619.619,0,0,1-.532-.413.628.628,0,0,1,.145-.656c3.232-3.273,3.738-13.915,1.6-33.489-1.58-14.437-5.215-19.316-7.988-20.865a4.886,4.886,0,0,0-4.415-.31.627.627,0,0,1-.645-1.069,11.294,11.294,0,0,1,2.37-1.41,6.746,6.746,0,0,1,6.309.336c4.306,2.556,7.342,10.213,8.54,21.557,2.411,23.023.666,35.239-5.184,36.308A.681.681,0,0,1,859.886,1267.349Zm-8.354-57.292a6.543,6.543,0,0,1,2.169.769c4.4,2.463,7.306,9.81,8.623,21.825,1.864,17.044,1.735,27.283-.475,32.255,3.3-3.687,4.069-15.4,2.148-33.742-1.156-10.941-3.976-18.257-7.936-20.612A5.385,5.385,0,0,0,851.531,1210.057Z" transform="translate(-847.776 -1208.516)" fill="#262424"/>
          </g>
        </g>
        <g id="Group_496" data-name="Group 496" transform="translate(74.557 75.79)">
          <path id="Path_762" data-name="Path 762" d="M826.1,1233.794l8.375-8.969s4.058-2.468,4.941,3.6l-5.4,12.635Z" transform="translate(-825.475 -1223.704)" fill="#fff"/>
          <path id="Path_763" data-name="Path 763" d="M833.373,1241.108a.621.621,0,0,1-.367-.16l-7.915-7.27a.625.625,0,0,1-.2-.439.648.648,0,0,1,.17-.454l8.375-8.969a.692.692,0,0,1,.134-.108,3.977,3.977,0,0,1,3.465-.3c1.275.6,2.091,2.065,2.427,4.348a.672.672,0,0,1-.041.336l-5.4,12.635a.626.626,0,0,1-.444.367A.742.742,0,0,1,833.373,1241.108Zm-6.965-7.931,6.8,6.242,4.977-11.653c-.279-1.714-.857-2.829-1.688-3.217a2.678,2.678,0,0,0-2.21.2Z" transform="translate(-824.889 -1223.118)" fill="#262424"/>
        </g>
        <path id="Path_764" data-name="Path 764" d="M803.45,1247.917a12.994,12.994,0,0,1,1.5-4.456c1.058-1.487,6.284-4.575,9.965-4.642s12.407,3.873,12.851,11.426a18.334,18.334,0,0,1-4.435,13.182c-.847,1.007-3.589,3.94-5.628,3.191S803.45,1247.917,803.45,1247.917Z" transform="translate(-739.963 -1154.922)" fill="url(#linear-gradient-22)"/>
        <g id="Group_497" data-name="Group 497" transform="translate(5.023)">
          <path id="Path_765" data-name="Path 765" d="M766.678,1181.822s-8.648,14.565-13.843,22.1c-.883,1.26-1.642,2.308-2.256,3.072-3.619,4.5-12.64,7.688-22.538.325a36.559,36.559,0,0,1-6.144-5.917c-12.139-14.509-31.677-63.477-31.677-63.477s3.594-56.812,17.669-60.617c24.175-6.521,30.9,20.994,33.778,37.986,2.886,16.972,5.375,55.448,5.375,55.448,5.855-5.272,11.457-8.081,17.1-2.37C769.766,1174.1,766.678,1181.822,766.678,1181.822Z" transform="translate(-690.22 -1076.331)" fill="url(#linear-gradient-4)"/>
        </g>
        <g id="Group_500" data-name="Group 500" transform="translate(0 27.857)">
          <g id="Group_498" data-name="Group 498">
            <path id="Path_766" data-name="Path 766" d="M686.191,1155.318a.779.779,0,0,1-.15-.031c-.2-.067-4.905-1.7-5.468-4.678-.511-2.706,1.528-19.058,1.616-19.755a.654.654,0,0,1,.713-.568h.021a.657.657,0,0,1,.568.733c-.589,4.678-2.024,17.271-1.626,19.347.351,1.849,3.444,3.284,4.606,3.682a.654.654,0,0,1-.279,1.27Z" transform="translate(-680.491 -1130.283)" fill="#262424"/>
          </g>
          <g id="Group_499" data-name="Group 499" transform="translate(4.425 2.369)">
            <path id="Path_767" data-name="Path 767" d="M689.654,1163.3h-.016a.653.653,0,0,1-.573-.728l3.222-27.123a.655.655,0,1,1,1.3.155l-3.222,27.123A.659.659,0,0,1,689.654,1163.3Z" transform="translate(-689.061 -1134.871)" fill="#262424"/>
          </g>
        </g>
        <g id="Group_501" data-name="Group 501" transform="translate(38.76 27.984)">
          <path id="Path_768" data-name="Path 768" d="M763.573,1142.446a7.251,7.251,0,0,1-3.439-1.218c-4.28-2.9-4.564-9.733-4.575-10.022a.654.654,0,1,1,1.306-.047c0,.062.274,6.464,4.007,8.989,1.869,1.265,4.353,1.363,7.368.279a.655.655,0,0,1,.439,1.234A11.956,11.956,0,0,1,763.573,1142.446Z" transform="translate(-755.56 -1130.529)" fill="#262424"/>
        </g>
        <path id="Path_769" data-name="Path 769" d="M788.274,1314.911c-.883,1.26-1.642,2.308-2.256,3.072-3.619,4.5-12.64,7.688-22.538.325.01-.341.026-.7.057-1.038a12.65,12.65,0,0,1,24.737-2.359Z" transform="translate(-720.63 -1187.322)" fill="#fff"/>
        <g id="Group_502" data-name="Group 502" transform="translate(47.802 38.581)">
          <path id="Path_770" data-name="Path 770" d="M786.087,1226.317a.807.807,0,0,1-.108-.021.649.649,0,0,1-.475-.522l-12.423-73.959a.654.654,0,1,1,1.291-.217l12.185,72.539,14.591-17.777a.657.657,0,0,1,1.017.831l-15.505,18.892A.668.668,0,0,1,786.087,1226.317Z" transform="translate(-773.071 -1151.054)" fill="#262424"/>
        </g>
        <g id="Group_503" data-name="Group 503" transform="translate(59.354 97.1)">
          <path id="Path_771" data-name="Path 771" d="M796.036,1285.435c-.016,0-.031-.005-.041-.005a.656.656,0,0,1-.542-.754c1.193-7.28,1.874-19.543,1.885-19.667a.657.657,0,1,1,1.311.072c-.005.124-.7,12.454-1.895,19.806A.666.666,0,0,1,796.036,1285.435Z" transform="translate(-795.444 -1264.389)" fill="#262424"/>
        </g>
      </g>
      <g id="Group_508" data-name="Group 508" transform="translate(9.083)">
        <g id="Group_505" data-name="Group 505">
          <path id="Path_772" data-name="Path 772" d="M610.511,843.686l-11.752,18.082s-17.782-20.075-19.275-23.725-.563-35.126-.563-35.126-6.361-4.053-9.351-7.358-5.045-11.829-5.045-11.829c-.17-1.957,5.339-7.75,6.258-7.59.9.16,5.793,8.143,5.943,8.39-.052-.248-1.869-8.23-2.045-9.382-.176-1.167,1-2.132,1.921-1.327s5.628,12.459,5.886,12.769,5.391,3.676,5.391,3.676l2.158-1.513c.346-5.137,2.494-5.076,2.829-4.038s.052,8.478-.356,9.733-2.85,5.757-2.85,5.757l5.38,28.8Z" transform="translate(-563.901 -772.901)" fill="#fff"/>
          <path id="Path_773" data-name="Path 773" d="M598.12,861.808a.625.625,0,0,1-.408-.207c-.728-.821-17.87-20.2-19.388-23.9-1.451-3.563-.723-31.372-.62-35.028-1.317-.857-6.506-4.322-9.175-7.275-3.062-3.382-5.1-11.746-5.189-12.1l-.015-.093c-.16-1.828,3.082-5.452,4.678-6.919,1.4-1.291,1.941-1.415,2.313-1.348.279.047.945.165,4.42,5.561-.754-3.387-1.167-5.3-1.25-5.84a2.063,2.063,0,0,1,1-2.132,1.687,1.687,0,0,1,1.957.243c.63.547,2.091,3.8,4.74,10.006.558,1.3,1.079,2.535,1.234,2.845.418.341,2.716,1.89,4.879,3.31l1.564-1.1c.346-4.151,1.864-4.792,2.509-4.869a1.412,1.412,0,0,1,1.523.981c.367,1.151.1,8.716-.356,10.12-.377,1.157-2.308,4.771-2.788,5.669l5.3,28.383,15.314,14.535a.627.627,0,0,1,.093.8l-11.752,18.082a.63.63,0,0,1-.48.284A.842.842,0,0,0,598.12,861.808Zm-33.551-78.761c.176.713,2.158,8.488,4.885,11.5,2.9,3.2,9.16,7.213,9.222,7.249a.629.629,0,0,1,.289.547c-.258,8.716-.661,31.976.516,34.873,1.115,2.726,12.356,15.836,18.619,22.925l11.013-16.951-15.082-14.318a.636.636,0,0,1-.186-.341l-5.38-28.8a.606.606,0,0,1,.067-.413c.671-1.239,2.489-4.668,2.809-5.654a45.943,45.943,0,0,0,.356-9.351.151.151,0,0,0-.17-.119c-.325.041-1.218.836-1.43,4.007a.612.612,0,0,1-.263.47l-2.158,1.513a.622.622,0,0,1-.707.01c-3.459-2.267-5.318-3.547-5.53-3.8a23.559,23.559,0,0,1-1.409-3.144c-1.239-2.907-3.821-8.958-4.415-9.557a.423.423,0,0,0-.516-.083.834.834,0,0,0-.367.847c.1.64.744,3.609,1.921,8.829.067.294.108.475.114.511a.624.624,0,0,1-.382.718.631.631,0,0,1-.769-.253,60.567,60.567,0,0,0-5.514-8.055C568.885,776.79,564.533,781.586,564.569,783.048Z" transform="translate(-563.319 -772.317)" fill="#262424"/>
        </g>
        <g id="Group_507" data-name="Group 507" transform="translate(30.139 66.593)">
          <path id="Path_774" data-name="Path 774" d="M635.388,901.29,621.69,921.4l21.422,26.1s15.764-24.67,15.8-25.042S635.388,901.29,635.388,901.29Z" transform="translate(-621.69 -901.29)" fill="url(#linear-gradient-8)"/>
          <g id="Group_506" data-name="Group 506" transform="translate(4.066 4.52)">
            <path id="Path_775" data-name="Path 775" d="M630.156,928.449a.633.633,0,0,1-.294-.1.652.652,0,0,1-.191-.9l11.111-17.1a.653.653,0,0,1,1.095.713l-11.111,17.1A.648.648,0,0,1,630.156,928.449Z" transform="translate(-629.564 -910.044)" fill="#262424"/>
          </g>
        </g>
      </g>
      <path id="Path_776" data-name="Path 776" d="M783.7,884.856c-5.06,1.678-1.632,12.2-.067,15.562s-1.451,12.511,4.642,16.022-6.439,15.273,8.623,29.142c11.607,10.683,33.159,4.549,30.933-6.366s-19.037-16.966-20.953-26.978c-1.219-6.371,2.014-15.263-8.168-19.207C791.117,890.081,787.694,883.529,783.7,884.856Z" transform="translate(-659.539 -826.664)" fill="#262424"/>
      <g id="Group_511" data-name="Group 511" transform="translate(45.847 85.759)">
        <path id="Path_777" data-name="Path 777" d="M663.063,938.41s-15.258,23.266-16.275,28.677S653.309,984,653.309,984l-18.789,36.654s13.941,23.131,31.068,26.147,50.461-11.576,50.461-11.576l-5.989-40.78,13-21.928-2.773-28.625s-16.843,5.829-28.006,6.01S663.063,938.41,663.063,938.41Z" transform="translate(-634.52 -938.41)" fill="url(#linear-gradient-25)"/>
        <g id="Group_509" data-name="Group 509" transform="translate(13.819 1.028)">
          <path id="Path_778" data-name="Path 778" d="M661.875,963.393a.688.688,0,0,1-.258-.083.653.653,0,0,1-.248-.893c3.49-6.191,12.888-21.546,12.98-21.7a.654.654,0,0,1,1.115.682c-.093.155-9.48,15.5-12.96,21.66A.635.635,0,0,1,661.875,963.393Z" transform="translate(-661.283 -940.401)" fill="#262424"/>
        </g>
        <g id="Group_510" data-name="Group 510" transform="translate(4.575 80.511)">
          <path id="Path_779" data-name="Path 779" d="M671.582,1119.17c-.31-.031-.614-.067-.909-.108-13.151-1.941-26.622-22.827-27.19-23.715a.655.655,0,0,1,1.1-.7c.134.212,13.719,21.268,26.276,23.121,12.691,1.864,44.528-10.063,44.848-10.182a.654.654,0,0,1,.46,1.224C714.886,1109.293,685.089,1120.461,671.582,1119.17Z" transform="translate(-643.38 -1094.34)" fill="#262424"/>
        </g>
        <path id="Path_780" data-name="Path 780" d="M726.932,950.589c-7.043-1.239-12.128,3.681-13.177,9.428s5.065,9,5.065,9,3.067-5.886,5.349-6.17,3.919,7.89,3.919,7.89,7.864-1,9.991-8.4S733.17,951.689,726.932,950.589Z" transform="translate(-672.785 -944.208)" fill="url(#linear-gradient-26)"/>
      </g>
      <g id="Group_512" data-name="Group 512" transform="translate(93.17 80.549)">
        <path id="Path_781" data-name="Path 781" d="M730.287,929.54l-2.9,14.38s1.719,4.342,5.158,4.838,7.136-2.907,7.136-2.907l1.544-16.135Z" transform="translate(-726.762 -928.91)" fill="#fff"/>
        <path id="Path_782" data-name="Path 782" d="M732.125,948.818l-.253-.031c-3.754-.542-5.576-5.034-5.654-5.225a.6.6,0,0,1-.031-.356l2.9-14.38a.635.635,0,0,1,.625-.506l10.946.17a.631.631,0,0,1,.459.212.605.605,0,0,1,.155.48l-1.544,16.135a.63.63,0,0,1-.2.4C739.369,945.865,735.739,949.164,732.125,948.818Zm-4.668-5.556c.341.754,1.916,3.9,4.6,4.286,2.706.4,5.7-1.962,6.449-2.6l1.456-15.211-9.743-.155Z" transform="translate(-726.173 -928.32)" fill="#262424"/>
      </g>
      <g id="Group_521" data-name="Group 521" transform="translate(86.812 54.172)">
        <g id="Group_520" data-name="Group 520">
          <g id="Group_513" data-name="Group 513" transform="translate(30.287 5.136)">
            <path id="Path_783" data-name="Path 783" d="M775.448,888.586l1.957-.129a1.722,1.722,0,0,1,1.564.785,5.781,5.781,0,0,1,.94,2.432,4.03,4.03,0,0,1-.78,2.613,1.712,1.712,0,0,1-1.11.707l-2.21.4a1.728,1.728,0,0,1-2.039-1.73l.057-3.382A1.739,1.739,0,0,1,775.448,888.586Z" transform="translate(-773.124 -887.796)" fill="#fff"/>
            <path id="Path_784" data-name="Path 784" d="M774.673,895.457a2.355,2.355,0,0,1-1.311-.558,2.381,2.381,0,0,1-.842-1.859l.057-3.382a2.4,2.4,0,0,1,2.231-2.344h0l1.957-.129a2.37,2.37,0,0,1,2.158,1.084,6.472,6.472,0,0,1,1.043,2.721,4.633,4.633,0,0,1-.893,3.051,2.329,2.329,0,0,1-1.533.981l-2.21.4A2.344,2.344,0,0,1,774.673,895.457Zm.212-6.831a1.083,1.083,0,0,0-1.007,1.058l-.057,3.382a1.078,1.078,0,0,0,1.27,1.074l2.21-.4a1.052,1.052,0,0,0,.687-.434,3.373,3.373,0,0,0,.671-2.174,5.2,5.2,0,0,0-.842-2.148,1.077,1.077,0,0,0-.976-.485Z" transform="translate(-772.52 -887.18)" fill="#262424"/>
          </g>
          <g id="Group_517" data-name="Group 517" transform="translate(0.989 3.265)">
            <g id="Group_514" data-name="Group 514" transform="translate(0.65 0.65)">
              <path id="Path_785" data-name="Path 785" d="M718.225,898.061c-2.04,6.1-2.122,14.039,5.174,16.708,5.365,1.962,13.77-2.1,17.416-9.976s4.983-15.34-4.905-18.707a25.057,25.057,0,0,0-3.243-.816c-6.118-.991-8.463-1.337-13.275,9.563C718.959,895.795,718.607,896.91,718.225,898.061Z" transform="translate(-717.036 -884.815)" fill="#fff"/>
            </g>
            <g id="Group_516" data-name="Group 516">
              <g id="Group_515" data-name="Group 515">
                <path id="Path_786" data-name="Path 786" d="M724.468,915.2a7.708,7.708,0,0,1-1.905-.423c-7.513-2.752-7.8-10.858-5.566-17.529l.145-.439c.336-1.017.651-1.978,1.038-2.845,2.437-5.525,4.3-8.292,6.413-9.537,2.169-1.275,4.43-.909,7.564-.4a.654.654,0,0,1-.207,1.291c-5.948-.96-7.951-1.286-12.573,9.18-.356.811-.666,1.74-.991,2.726l-.145.444c-.991,2.953-3.568,12.831,4.776,15.887,1.652.6,3.841.491,6.883-.367a.654.654,0,1,1,.351,1.26A16.143,16.143,0,0,1,724.468,915.2Z" transform="translate(-715.777 -883.556)" fill="#262424"/>
              </g>
            </g>
          </g>
          <path id="Path_787" data-name="Path 787" d="M736.161,901.148a6.327,6.327,0,0,1-1.632-6.268c.2-.749.547-1.719.718-2.664-6,2.52-14.932,1.75-18.748,1.255A2.883,2.883,0,0,1,714,891.2c-1.41-7.569,8.189-16.714,15.681-13.192,11.21-2.21,19.383,6.506,17.648,14.406C745.393,901.179,738.148,903.213,736.161,901.148Z" transform="translate(-713.861 -877.233)" fill="#262424"/>
          <g id="Group_519" data-name="Group 519" transform="translate(19.792 21.603)">
            <path id="Path_788" data-name="Path 788" d="M755.814,921.352s5.52-2.489,9.118.465-1.776,12-11.473,6.759Z" transform="translate(-752.806 -919.701)" fill="#fff"/>
            <g id="Group_518" data-name="Group 518">
              <path id="Path_789" data-name="Path 789" d="M757.556,930.146a13.23,13.23,0,0,1-5.019-1.626.655.655,0,1,1,.625-1.151c5.416,2.927,9.206,1.188,10.807-1.2,1.11-1.657,1.089-3.542-.062-4.482-3.237-2.654-8.385-.392-8.437-.372a.657.657,0,0,1-.542-1.2c.243-.108,5.938-2.623,9.8.553,1.678,1.379,1.812,4,.315,6.222A7.839,7.839,0,0,1,757.556,930.146Z" transform="translate(-752.193 -919.072)" fill="#262424"/>
            </g>
          </g>
        </g>
      </g>
      <g id="Group_526" data-name="Group 526" transform="translate(122.752 17.713)">
        <g id="Group_522" data-name="Group 522" transform="translate(26.091)">
          <path id="Path_790" data-name="Path 790" d="M835.21,871.6l9.9-8.824,24.572-33.8s-.95-5.767-.728-8.086,5.489-10.037,7.476-10.476,1.415,1.575,1,2.6-1.766,3.4-1.766,3.4l.336,3.666s7.75-2.453,8.845-3.413,4.079-7.941,4.838-8.679,1.657,1.663,1.657,1.663a29.658,29.658,0,0,1,3.33,5.767c.893,2.463-3.867,14.22-4.73,14.7s-11,4.394-11,4.394-13.719,34.073-16.832,37.78-20.555,18.448-20.555,18.448Z" transform="translate(-834.585 -807.214)" fill="#fff"/>
          <path id="Path_791" data-name="Path 791" d="M840.913,890.777a.812.812,0,0,1-.109-.021.611.611,0,0,1-.423-.408L834.03,871.2a.623.623,0,0,1,.181-.666l9.857-8.778,24.376-33.541a45.657,45.657,0,0,1-.692-7.988c.248-2.571,5.669-10.523,7.967-11.029a1.719,1.719,0,0,1,1.812.413c.506.6.475,1.621-.093,3.036-.361.9-1.384,2.731-1.7,3.3l.248,2.69c2.969-.96,7.208-2.463,7.874-3.046a30.583,30.583,0,0,0,2.726-4.895,20.923,20.923,0,0,1,2.086-3.764,1.046,1.046,0,0,1,.976-.294c.842.186,1.435,1.472,1.678,2.107a29.261,29.261,0,0,1,3.366,5.855c.558,1.549-.62,5.489-1.7,8.519-.093.258-2.3,6.382-3.3,6.945-.826.46-9.025,3.635-10.833,4.332-1.358,3.366-13.8,34.083-16.832,37.7-3.108,3.707-19.915,17.922-20.633,18.526A.591.591,0,0,1,840.913,890.777ZM835.352,871.2l5.927,17.87c3.3-2.8,17.085-14.566,19.77-17.772,3.01-3.594,16.595-37.274,16.729-37.614a.642.642,0,0,1,.356-.351c3.981-1.539,10.084-3.924,10.884-4.337,1.007-1.079,5.241-11.87,4.482-13.962a28.957,28.957,0,0,0-3.248-5.607.561.561,0,0,1-.083-.155,4.722,4.722,0,0,0-.723-1.317c-.341.485-1.115,2.039-1.75,3.31-1.4,2.814-2.37,4.7-3.026,5.277-1.136,1-7.755,3.124-9.067,3.537a.621.621,0,0,1-.537-.078.634.634,0,0,1-.279-.465l-.336-3.666a.638.638,0,0,1,.077-.367c.016-.026,1.337-2.349,1.73-3.325.418-1.043.4-1.626.3-1.756-.021-.026-.181-.088-.583,0-1.611.356-6.769,7.678-6.986,9.919-.212,2.21.713,7.869.723,7.926a.611.611,0,0,1-.114.47l-24.572,33.8a.424.424,0,0,1-.093.1ZM889,829.024Z" transform="translate(-833.999 -806.622)" fill="#262424"/>
        </g>
        <g id="Group_525" data-name="Group 525" transform="translate(0 61.086)">
          <path id="Path_792" data-name="Path 792" d="M787.18,939.165l24.464-14.235,9.547,21.959-25.5,19.1C788.476,962.612,780.576,952.925,787.18,939.165Z" transform="translate(-784.065 -924.93)" fill="url(#linear-gradient-27)"/>
          <g id="Group_523" data-name="Group 523" transform="translate(0 15.065)">
            <path id="Path_793" data-name="Path 793" d="M793.036,979.672a.645.645,0,0,1-.284-.1c-6.526-4.089-12.387-13.1-7.44-25.062a.656.656,0,1,1,1.213.5c-4.631,11.194.537,19.455,6.924,23.452a.656.656,0,0,1-.413,1.208Z" transform="translate(-783.467 -954.107)" fill="#262424"/>
          </g>
          <g id="Group_524" data-name="Group 524" transform="translate(23.613 2.819)">
            <path id="Path_794" data-name="Path 794" d="M837.337,950.547a.654.654,0,0,1-.547-.408l-7.544-18.851a.656.656,0,0,1,1.219-.485l7.544,18.851a.657.657,0,0,1-.367.852A.625.625,0,0,1,837.337,950.547Z" transform="translate(-829.2 -930.39)" fill="#262424"/>
          </g>
        </g>
      </g>
    </g>
    <g id="Circle" transform="translate(286.346 80.645)">
      <circle id="Ellipse_47" data-name="Ellipse 47" cx="163.279" cy="163.279" r="163.279" fill="url(#linear-gradient-5)"/>
      <g id="Group_528" data-name="Group 528" transform="translate(33.866 138.371)">
        <g id="Group_527" data-name="Group 527">
          <path id="Path_795" data-name="Path 795" d="M569.05,434.707V407.6H582.1a15.954,15.954,0,0,1,6.563,1.239,9.352,9.352,0,0,1,5.793,8.984,9.149,9.149,0,0,1-5.793,8.865,16.42,16.42,0,0,1-6.563,1.2H574.12l4.069-3.754v10.569H569.05Zm9.139-9.562L574.12,421h7.394a4,4,0,0,0,2.809-.852,3.425,3.425,0,0,0,0-4.647,4,4,0,0,0-2.809-.852H574.12l4.069-4.146Zm7.084,9.562-6.661-9.872h9.681l6.738,9.872Z" transform="translate(-569.05 -406.97)" fill="#fff"/>
          <path id="Path_796" data-name="Path 796" d="M639.534,427.814h13.554v6.893H630.55V407.6h22.037v6.893H639.534v13.321Zm-.62-10.146H651v6.583H638.915Z" transform="translate(-598.796 -406.97)" fill="#fff"/>
          <path id="Path_797" data-name="Path 797" d="M690.561,435.327a15.212,15.212,0,0,1-5.731-1.028,10.849,10.849,0,0,1-4.26-3l4.916-5.809a9.6,9.6,0,0,0,2.127,1.993,3.911,3.911,0,0,0,2.169.676q2.943,0,2.943-3.372v-10.3h-9.216V407.6H701.75v16.652q0,5.576-2.866,8.323T690.561,435.327Z" transform="translate(-622.989 -406.97)" fill="#fff"/>
          <path id="Path_798" data-name="Path 798" d="M748.514,434.737a17.21,17.21,0,0,1-6.1-1.048,14.317,14.317,0,0,1-4.859-2.964,13.633,13.633,0,0,1-3.2-4.513,14.628,14.628,0,0,1,0-11.328,13.581,13.581,0,0,1,3.2-4.492,14.447,14.447,0,0,1,4.859-2.964,18.322,18.322,0,0,1,12.216,0,14.448,14.448,0,0,1,4.843,2.964,13.707,13.707,0,0,1,3.2,4.492,14.627,14.627,0,0,1,0,11.328,13.683,13.683,0,0,1-3.2,4.513,14.429,14.429,0,0,1-4.843,2.964A17.183,17.183,0,0,1,748.514,434.737Zm0-7.394a6.059,6.059,0,0,0,2.38-.465,5.742,5.742,0,0,0,1.936-1.337,6.114,6.114,0,0,0,1.3-2.127,8.941,8.941,0,0,0,0-5.69,6.114,6.114,0,0,0-1.3-2.127,5.816,5.816,0,0,0-1.936-1.337,6.329,6.329,0,0,0-4.761,0A5.692,5.692,0,0,0,744.2,415.6a6.04,6.04,0,0,0-1.3,2.127,8.941,8.941,0,0,0,0,5.69,6.115,6.115,0,0,0,1.3,2.127,5.765,5.765,0,0,0,1.936,1.337A6.077,6.077,0,0,0,748.514,427.343Z" transform="translate(-648.454 -406.38)" fill="#fff"/>
          <path id="Path_799" data-name="Path 799" d="M804.54,434.707V407.6h9.139v27.107Z" transform="translate(-682.95 -406.97)" fill="#fff"/>
          <path id="Path_800" data-name="Path 800" d="M849.454,434.746a17.27,17.27,0,0,1-6.062-1.028,14.117,14.117,0,0,1-4.8-2.922,13.332,13.332,0,0,1-3.155-4.492,15.154,15.154,0,0,1,0-11.463,13.175,13.175,0,0,1,3.175-4.492,14.274,14.274,0,0,1,4.859-2.922,17.915,17.915,0,0,1,6.175-1.027,18.124,18.124,0,0,1,7.182,1.353,13.459,13.459,0,0,1,5.21,3.872l-5.85,5.153a9.18,9.18,0,0,0-2.768-2.225,7.175,7.175,0,0,0-3.31-.754,7.635,7.635,0,0,0-2.731.465,5.572,5.572,0,0,0-2.07,1.353,6.214,6.214,0,0,0-1.317,2.127,8,8,0,0,0-.465,2.824,7.918,7.918,0,0,0,.465,2.767,6.114,6.114,0,0,0,1.317,2.148,5.787,5.787,0,0,0,2.034,1.373,6.886,6.886,0,0,0,2.654.485,9.022,9.022,0,0,0,3.021-.522,11.742,11.742,0,0,0,3.139-1.8l5.112,6.273a19.5,19.5,0,0,1-5.654,2.556A22.4,22.4,0,0,1,849.454,434.746Zm3.872-4.606v-10.3h7.941V431.3Z" transform="translate(-697.349 -406.39)" fill="#fff"/>
          <path id="Path_801" data-name="Path 801" d="M899.72,434.707V407.6h7.513l13.786,16.5h-3.485V407.6h8.907v27.107h-7.513l-13.786-16.5h3.485v16.5Z" transform="translate(-728.986 -406.97)" fill="#fff"/>
          <path id="Path_802" data-name="Path 802" d="M974.624,427.814h13.554v6.893H965.64V407.6h22.037v6.893H974.624ZM974,417.668h12.082v6.583H974Z" transform="translate(-760.869 -406.97)" fill="#fff"/>
          <path id="Path_803" data-name="Path 803" d="M1019.87,434.707V429.09l15.1-17.581,1.12,3.175h-15.836V407.6h23.891v5.618l-15.1,17.581-1.121-3.175h16.843v7.084Z" transform="translate(-787.099 -406.97)" fill="#fff"/>
          <path id="Path_804" data-name="Path 804" d="M696.73,524.707V497.6h7.513l13.786,16.5h-3.485V497.6h8.907v27.107h-7.513l-13.786-16.5h3.485v16.5Z" transform="translate(-630.805 -450.501)" fill="#fff"/>
          <path id="Path_805" data-name="Path 805" d="M775.854,524.737a17.208,17.208,0,0,1-6.1-1.048,14.315,14.315,0,0,1-4.859-2.964,13.631,13.631,0,0,1-3.2-4.513,14.628,14.628,0,0,1,0-11.328,13.579,13.579,0,0,1,3.2-4.492,14.447,14.447,0,0,1,4.859-2.964,18.322,18.322,0,0,1,12.216,0,14.447,14.447,0,0,1,4.843,2.964,13.708,13.708,0,0,1,3.2,4.492,14.628,14.628,0,0,1,0,11.328,13.685,13.685,0,0,1-3.2,4.513,14.48,14.48,0,0,1-4.843,2.964A17.182,17.182,0,0,1,775.854,524.737Zm0-7.394a6.059,6.059,0,0,0,2.38-.465,5.743,5.743,0,0,0,1.936-1.337,6.115,6.115,0,0,0,1.3-2.127,8.941,8.941,0,0,0,0-5.69,6.115,6.115,0,0,0-1.3-2.127,5.818,5.818,0,0,0-1.936-1.337,6.329,6.329,0,0,0-4.761,0,5.692,5.692,0,0,0-1.936,1.337,6.04,6.04,0,0,0-1.3,2.127,8.943,8.943,0,0,0,0,5.69,6.116,6.116,0,0,0,1.3,2.127,5.767,5.767,0,0,0,1.936,1.337A6.058,6.058,0,0,0,775.854,517.343Z" transform="translate(-661.678 -449.91)" fill="#fff"/>
          <path id="Path_806" data-name="Path 806" d="M844.638,525.327q-6.235,0-9.722-3.372t-3.485-9.449V497.6h9.139v14.638q0,3.1,1.12,4.394a4.192,4.192,0,0,0,6.062,0c.733-.862,1.1-2.329,1.1-4.394V497.6h8.984v14.912q0,6.08-3.485,9.449T844.638,525.327Z" transform="translate(-695.956 -450.501)" fill="#fff"/>
          <path id="Path_807" data-name="Path 807" d="M904.818,524.741a27.682,27.682,0,0,1-6.583-.774,18.648,18.648,0,0,1-5.225-2.014l2.943-6.661a19,19,0,0,0,4.316,1.8,16.752,16.752,0,0,0,4.626.676,9.441,9.441,0,0,0,2.071-.176,2.4,2.4,0,0,0,1.1-.5,1.049,1.049,0,0,0,.346-.8,1.294,1.294,0,0,0-.816-1.162,8.816,8.816,0,0,0-2.148-.718c-.893-.2-1.864-.4-2.922-.62a27.042,27.042,0,0,1-3.2-.873,12.266,12.266,0,0,1-2.943-1.435,6.657,6.657,0,0,1-2.148-2.344,7.329,7.329,0,0,1-.816-3.619,7.957,7.957,0,0,1,1.415-4.59,9.665,9.665,0,0,1,4.218-3.31,17.328,17.328,0,0,1,6.991-1.239,25.783,25.783,0,0,1,5.421.578,16.969,16.969,0,0,1,4.8,1.781l-2.747,6.625a20.68,20.68,0,0,0-3.893-1.508,14.136,14.136,0,0,0-3.661-.506,7.536,7.536,0,0,0-2.091.232,2.3,2.3,0,0,0-1.1.62,1.275,1.275,0,0,0-.33.852,1.231,1.231,0,0,0,.816,1.1,8.725,8.725,0,0,0,2.148.676c.888.181,1.869.377,2.943.578a23.971,23.971,0,0,1,3.2.852,12.5,12.5,0,0,1,2.922,1.43,6.729,6.729,0,0,1,2.148,2.323,7.132,7.132,0,0,1,.811,3.563,7.875,7.875,0,0,1-1.415,4.549,9.78,9.78,0,0,1-4.2,3.33A16.733,16.733,0,0,1,904.818,524.741Z" transform="translate(-725.74 -449.915)" fill="#fff"/>
        </g>
      </g>
    </g>
    <g id="Ornements" transform="translate(80.29 38.203)">
      <g id="Group_530" data-name="Group 530" transform="translate(0)">
        <path id="Path_808" data-name="Path 808" d="M1359.182,742.671h0a19.169,19.169,0,0,0-19.171,19.171h0a19.169,19.169,0,0,0-19.171-19.171h0a19.169,19.169,0,0,0,19.171-19.171h0a19.172,19.172,0,0,0,19.171,19.171Z" transform="translate(-692.747 -378.949)" fill="url(#linear-gradient-3)"/>
        <path id="Path_809" data-name="Path 809" d="M1190.889,777.1h0a7.737,7.737,0,0,0-7.734,7.735h0a7.737,7.737,0,0,0-7.735-7.735h0a7.737,7.737,0,0,0,7.735-7.735h0a7.73,7.73,0,0,0,7.734,7.735Z" transform="translate(-622.412 -401.135)" fill="url(#linear-gradient-3)"/>
        <path id="Path_810" data-name="Path 810" d="M743.59,70.575h0A14.383,14.383,0,0,0,729.2,84.96h0A14.383,14.383,0,0,0,714.82,70.575h0A14.383,14.383,0,0,0,729.2,56.19h0A14.393,14.393,0,0,0,743.59,70.575Z" transform="translate(-399.632 -56.19)" fill="url(#linear-gradient-31)"/>
        <path id="Path_811" data-name="Path 811" d="M1305.53,135.775h0a14.383,14.383,0,0,0-14.385,14.385h0a14.383,14.383,0,0,0-14.385-14.385h0a14.383,14.383,0,0,0,14.385-14.385h0a14.383,14.383,0,0,0,14.385,14.385Z" transform="translate(-671.427 -87.725)" fill="url(#linear-gradient-3)"/>
        <path id="Path_812" data-name="Path 812" d="M452.79,707.065h0a17.543,17.543,0,0,0-17.545,17.545h0A17.543,17.543,0,0,0,417.7,707.065h0a17.543,17.543,0,0,0,17.545-17.545h0a17.543,17.543,0,0,0,17.545,17.545Z" transform="translate(-255.924 -362.514)" fill="url(#linear-gradient-33)"/>
        <path id="Path_813" data-name="Path 813" d="M997.529,1089.315h0a31.136,31.136,0,0,0-31.135,31.135h0a31.136,31.136,0,0,0-31.135-31.135h0a31.137,31.137,0,0,0,31.135-31.135h0a31.133,31.133,0,0,0,31.135,31.135Z" transform="translate(-506.253 -540.824)" fill="url(#linear-gradient-4)"/>
        <circle id="Ellipse_48" data-name="Ellipse 48" cx="8.359" cy="8.359" r="8.359" transform="translate(552.384 221.799)" fill="url(#linear-gradient-5)"/>
        <circle id="Ellipse_49" data-name="Ellipse 49" cx="5.912" cy="5.912" r="5.912" transform="translate(470.117 39.566)" fill="url(#linear-gradient-22)"/>
        <circle id="Ellipse_50" data-name="Ellipse 50" cx="4.771" cy="4.771" r="4.771" transform="translate(526.676 409.732)" fill="url(#linear-gradient-5)"/>
        <circle id="Ellipse_51" data-name="Ellipse 51" cx="7.156" cy="7.156" r="7.156" transform="translate(181.51 482.029)" fill="url(#linear-gradient-38)"/>
        <circle id="Ellipse_52" data-name="Ellipse 52" cx="9.144" cy="9.144" r="9.144" transform="translate(0 86.366)" fill="url(#linear-gradient-39)"/>
        <circle id="Ellipse_53" data-name="Ellipse 53" cx="15.428" cy="15.428" r="15.428" transform="translate(143.013 255.928)" fill="url(#linear-gradient-40)"/>
        <circle id="Ellipse_54" data-name="Ellipse 54" cx="4.771" cy="4.771" r="4.771" transform="translate(200.119 85.969)" fill="url(#linear-gradient-41)"/>
        <circle id="Ellipse_55" data-name="Ellipse 55" cx="4.771" cy="4.771" r="4.771" transform="translate(486.505 619.811)" fill="url(#linear-gradient-42)"/>
      </g>
    </g>
  </g>
</svg>
