<svg xmlns="http://www.w3.org/2000/svg" xmlns:xlink="http://www.w3.org/1999/xlink" width="814" height="702.423" viewBox="0 0 814 702.423">
  <defs>
    <linearGradient id="linear-gradient" y1="0.5" x2="0.999" y2="0.5" gradientUnits="objectBoundingBox">
      <stop offset="0" stop-color="#1b89ca"/>
      <stop offset="1" stop-color="#2e3792"/>
    </linearGradient>
    <linearGradient id="linear-gradient-2" x1="0.001" y1="0.501" x2="0.999" y2="0.501" gradientUnits="objectBoundingBox">
      <stop offset="0" stop-color="#ce2e82"/>
      <stop offset="1" stop-color="#601f5f"/>
    </linearGradient>
    <linearGradient id="linear-gradient-3" x1="0" y1="0.5" x2="1" y2="0.5" xlink:href="#linear-gradient"/>
    <linearGradient id="linear-gradient-4" x1="0" y1="0.5" x2="1" y2="0.5" xlink:href="#linear-gradient"/>
    <linearGradient id="linear-gradient-5" x1="0" y1="0.499" x2="0.999" y2="0.499" xlink:href="#linear-gradient-2"/>
    <linearGradient id="linear-gradient-6" x1="0" y1="0.499" x2="1" y2="0.499" xlink:href="#linear-gradient"/>
    <linearGradient id="linear-gradient-7" x1="0" y1="0.5" x2="1" y2="0.5" xlink:href="#linear-gradient"/>
    <linearGradient id="linear-gradient-8" x1="0" y1="0.5" x2="1" y2="0.5" xlink:href="#linear-gradient-2"/>
    <linearGradient id="linear-gradient-9" x1="0" y1="0.501" x2="1.001" y2="0.501" xlink:href="#linear-gradient"/>
    <linearGradient id="linear-gradient-10" x1="0" y1="0.5" x2="1" y2="0.5" xlink:href="#linear-gradient-2"/>
    <linearGradient id="linear-gradient-11" x1="-0.001" y1="0.5" x2="1" y2="0.5" xlink:href="#linear-gradient-2"/>
    <linearGradient id="linear-gradient-12" x1="0" y1="0.5" x2="1" y2="0.5" xlink:href="#linear-gradient"/>
    <linearGradient id="linear-gradient-13" x1="0" y1="0.5" x2="1" y2="0.5" xlink:href="#linear-gradient-2"/>
    <linearGradient id="linear-gradient-14" x1="0" y1="0.5" x2="1" y2="0.5" xlink:href="#linear-gradient"/>
    <linearGradient id="linear-gradient-15" x1="0.001" y1="0.501" x2="1" y2="0.501" xlink:href="#linear-gradient-2"/>
    <linearGradient id="linear-gradient-16" x1="-0.002" y1="0.501" x2="0.999" y2="0.501" xlink:href="#linear-gradient-2"/>
    <linearGradient id="linear-gradient-17" x1="-0.002" y1="0.5" x2="1" y2="0.5" xlink:href="#linear-gradient-2"/>
    <linearGradient id="linear-gradient-18" x1="-0.001" y1="0.501" x2="1.001" y2="0.501" xlink:href="#linear-gradient-2"/>
    <linearGradient id="linear-gradient-19" x1="0.001" y1="0.5" x2="1.001" y2="0.5" xlink:href="#linear-gradient-2"/>
    <linearGradient id="linear-gradient-20" x1="0" y1="0.5" x2="1" y2="0.5" xlink:href="#linear-gradient"/>
    <linearGradient id="linear-gradient-21" x1="-0.002" y1="0.5" x2="0.998" y2="0.5" xlink:href="#linear-gradient"/>
  </defs>
  <g id="Illustration_FAQ" data-name="Illustration FAQ" transform="translate(0 -118.2)">
    <g id="ROAD" transform="translate(0 472.445)">
      <g id="Group_348" data-name="Group 348">
        <path id="Path_578" data-name="Path 578" d="M4,931.347H333.262c13.11,0,25.621-3.9,34.814-10.811h0c12.783-9.61,17.3-23.724,11.7-36.638l-14.306-32.854c-16.809-38.56-2.992-80.843,35.793-109.373h0C428.4,721.731,465.065,710.5,503.251,710.5H722.2L556.56,735.846c-20.671,3.724-39.111,12.373-52.547,24.565h0c-22.248,20.241-28.123,47.809-15.285,72.074l50.1,95.138c17.516,33.274,8,71.053-24.533,97.42h0c-23.935,19.4-57.769,30.391-93.181,30.391H4Z" transform="translate(-1.659 -708.999)" fill="#fff"/>
        <g id="Group_347" data-name="Group 347">
          <path id="Path_579" data-name="Path 579" d="M419.533,1056.179H2.177c-1.2,0-2.177-.721-2.177-1.622s.98-1.622,2.177-1.622h417.3c34.775,0,68.135-10.871,91.591-29.911,31.782-25.707,41.251-63.305,24.109-95.739l-50.122-95.138c-13.061-24.806-7.075-53.095,15.619-73.7,13.66-12.433,32.707-21.322,53.714-25.106l144.815-22.1H501.654c-37.877,0-73.577,10.871-100.516,30.692-38.421,28.229-51.972,69.552-35.265,107.691l14.313,32.854c5.877,13.514,1.2,28.169-12.245,38.259-9.524,7.147-22.8,11.292-36.408,11.292H2.177c-1.2,0-2.177-.721-2.177-1.622s.98-1.622,2.177-1.622H331.588c12.408,0,24.544-3.784,33.251-10.331,12.3-9.25,16.544-22.643,11.156-34.956l-14.313-32.854a82.26,82.26,0,0,1-2.993-59.341c6.422-19.58,20.027-37.479,39.346-51.713C425.791,719.232,462.58,708,501.6,708H720.645a2.007,2.007,0,0,1,2.177,1.441c.109.841-.653,1.562-1.741,1.742L555.368,736.53c-19.973,3.6-38.258,12.133-51.319,24.025-21.714,19.76-27.483,46.728-14.966,70.513L539.2,926.2c8.762,16.637,11.047,34.656,6.639,52.194s-15.347,33.755-31.619,46.908C490.062,1044.887,455.451,1056.179,419.533,1056.179Z" transform="translate(0 -708)" fill="#262424"/>
        </g>
      </g>
    </g>
    <g id="Woman" transform="translate(123.116 214.103)">
      <g id="LEFT_LEG" transform="translate(113.993 192.733)">
        <g id="Group_353" data-name="Group 353">
          <g id="Group_349" data-name="Group 349" transform="translate(74.729 278.697)">
            <path id="Path_580" data-name="Path 580" d="M557.4,1066.722l2.985,25.226H577.3V1065.1Z" transform="translate(-556.039 -1063.707)" fill="#fff"/>
            <path id="Path_581" data-name="Path 581" d="M576.333,1092.4H559.42a1.444,1.444,0,0,1-1.346-1.2l-2.985-25.286a1.318,1.318,0,0,1,.293-1.021,1.211,1.211,0,0,1,.936-.481l19.9-1.622a1.219,1.219,0,0,1,.995.36,1.253,1.253,0,0,1,.41,1.021v26.848A1.262,1.262,0,0,1,576.333,1092.4Zm-15.743-2.7h14.4v-24.025l-17.089,1.381Z" transform="translate(-555.075 -1062.781)" fill="#262424"/>
          </g>
          <path id="Path_582" data-name="Path 582" d="M530.8,781.073c-.117,2.282-.234,4.685-.351,7.267-1.463,29.19-4.565,76.1-4.565,76.1H494.812l-7.959-91.414s-54.895-85.648-58.055-97.9c-2.224-8.589-1.346-32.493-.585-46.007a33.914,33.914,0,0,1,11.763-24.145c4.389-3.664,10.007-6.487,16.8-6.186,18.084.841,27.038,22.1,27.038,22.1s31.661,96.82,43.249,132.2c.117.42.293.841.41,1.2,2.165,6.667,3.57,10.931,3.745,11.412C531.389,766.418,531.213,772.424,530.8,781.073Z" transform="translate(-427.383 -598.764)" fill="url(#linear-gradient)"/>
          <path id="Path_583" data-name="Path 583" d="M596.917,884.408c-.117,2.282-.234,4.685-.351,7.267-5.091-3-8.9-8.949-9.656-16.1-.761-7.328,1.931-14.054,6.555-18.079,2.165,6.667,3.57,10.931,3.746,11.412C597.5,869.753,597.327,875.759,596.917,884.408Z" transform="translate(-493.496 -702.098)" fill="#fff"/>
          <path id="Path_584" data-name="Path 584" d="M442.168,667.9h19.02A2.848,2.848,0,0,1,464,670.783V687.66a4.328,4.328,0,0,1-2.4,3.9l-8.31,4.024a4.119,4.119,0,0,1-3.745-.06l-8.018-4.324a4.345,4.345,0,0,1-2.224-3.784V670.843A2.873,2.873,0,0,1,442.168,667.9Z" transform="translate(-432.326 -626.375)" fill="#fff"/>
          <g id="Group_350" data-name="Group 350" transform="translate(38.511 70.587)">
            <path id="Path_585" data-name="Path 585" d="M540.716,910.235a1.342,1.342,0,0,1-1.346-1.382V815.4l-46.058-97.18a1.381,1.381,0,0,1,.585-1.8,1.314,1.314,0,0,1,1.756.6l46.233,97.48a1.009,1.009,0,0,1,.117.6v93.817A1.245,1.245,0,0,1,540.716,910.235Z" transform="translate(-493.187 -716.287)" fill="#262424"/>
          </g>
          <path id="Path_586" data-name="Path 586" d="M569.678,1058.867H538.953a2.71,2.71,0,0,1-2.692-2.522l-1.873-20.541a2.717,2.717,0,0,1,2.692-3h34.529a2.751,2.751,0,0,1,2.692,3l-1.873,20.541A2.807,2.807,0,0,1,569.678,1058.867Z" transform="translate(-471.759 -772.11)" fill="url(#linear-gradient-2)"/>
          <g id="Group_352" data-name="Group 352" transform="translate(70.647 302.914)">
            <path id="Path_587" data-name="Path 587" d="M618.822,1152.291H550.935s-.468-3.183-.819-9.009a223.474,223.474,0,0,1,1.756-40.181h27.623s6.906,18.379,17.791,25.466c8.72,5.706,18.318,5.345,20.951,14.715A23.648,23.648,0,0,1,618.822,1152.291Z" transform="translate(-548.828 -1103.1)" fill="url(#linear-gradient-3)"/>
            <g id="Group_351" data-name="Group 351" transform="translate(0 38.86)">
              <path id="Path_588" data-name="Path 588" d="M619.006,1179.009H551.119s-.468-3.183-.819-9.009h68.121A23.649,23.649,0,0,1,619.006,1179.009Z" transform="translate(-549.012 -1168.679)" fill="#fff"/>
              <path id="Path_589" data-name="Path 589" d="M618.094,1179.512H550.207a1.283,1.283,0,0,1-1.288-1.141c0-.12-.468-3.3-.819-9.13a1.658,1.658,0,0,1,.351-1.021,1.191,1.191,0,0,1,.995-.421h68.121a1.4,1.4,0,0,1,1.287.961,26.776,26.776,0,0,1,.585,9.49A1.355,1.355,0,0,1,618.094,1179.512Zm-66.716-2.763h65.487a25.806,25.806,0,0,0-.351-6.246H550.851C551.026,1173.446,551.26,1175.548,551.377,1176.749Z" transform="translate(-548.1 -1167.8)" fill="#262424"/>
            </g>
          </g>
        </g>
      </g>
      <g id="RIGHT_LEG" transform="translate(68.648 187.673)">
        <g id="Group_364" data-name="Group 364">
          <g id="Group_359" data-name="Group 359" transform="translate(29.382)">
            <path id="Path_590" data-name="Path 590" d="M531.584,626.473s-1.58,49.071-7.432,71.474c-4.1,15.8-22.414,69.011-32.831,98.982C486.989,809.481,484,817.95,484,817.95l-5.5,8.649-34.061,53.515L418.4,861.855,441.283,805.7l21.185-122.466s-15.158-44.986,9.305-74.176S530.238,584.189,531.584,626.473Z" transform="translate(-407.694 -590.339)" fill="url(#linear-gradient-4)"/>
            <path id="Path_591" data-name="Path 591" d="M531.207,934.272c-4.331,12.553-7.315,21.022-7.315,21.022l-5.5,8.649c-3.8-4.084-4.974-11.111-2.575-17.838C518.566,938.537,525.062,933.732,531.207,934.272Z" transform="translate(-447.581 -727.683)" fill="#fff"/>
            <g id="Group_354" data-name="Group 354" transform="translate(77.936 144.651)">
              <path id="Path_592" data-name="Path 592" d="M534.636,906.989a1.258,1.258,0,0,1-.468-.06,1.371,1.371,0,0,1-.819-1.742c5.618-16.1,16.328-47.028,25.048-73.1a1.319,1.319,0,0,1,1.7-.841,1.371,1.371,0,0,1,.819,1.742c-8.72,26.127-19.43,57.059-25.048,73.155A1.354,1.354,0,0,1,534.636,906.989Z" transform="translate(-533.276 -831.177)" fill="#262424"/>
            </g>
            <g id="Group_355" data-name="Group 355" transform="translate(46.488 17.324)">
              <path id="Path_593" data-name="Path 593" d="M480.863,736.314h-.234a1.311,1.311,0,0,1-1.053-1.562l6.906-39.881a110.222,110.222,0,0,1-4.506-26.187c-.995-19.82,3.921-36.818,14.163-49.01a1.242,1.242,0,0,1,1.873-.12,1.319,1.319,0,0,1,.117,1.922c-12.348,14.715-14.163,33.695-13.519,47.028a105.611,105.611,0,0,0,4.448,25.827,1.33,1.33,0,0,1,.059.661l-6.964,40.241A1.329,1.329,0,0,1,480.863,736.314Z" transform="translate(-479.542 -619.183)" fill="#262424"/>
            </g>
            <path id="Path_594" data-name="Path 594" d="M506.568,669.1h19.02a2.848,2.848,0,0,1,2.809,2.883V688.86a4.328,4.328,0,0,1-2.4,3.9l-8.31,4.024a4.119,4.119,0,0,1-3.746-.06l-8.018-4.324a4.345,4.345,0,0,1-2.224-3.784V672.043A2.911,2.911,0,0,1,506.568,669.1Z" transform="translate(-443.074 -621.795)" fill="#fff"/>
            <g id="Group_358" data-name="Group 358" transform="translate(29.27 44.658)">
              <g id="Group_356" data-name="Group 356" transform="translate(74.429 1.987)">
                <path id="Path_595" data-name="Path 595" d="M579.056,686.679h-.468a1.352,1.352,0,0,1,.058-2.7,10.013,10.013,0,0,0,7.55-2.763c4.331-4.2,4.506-11.832,4.506-11.892A1.329,1.329,0,0,1,592.048,668h.058a1.331,1.331,0,0,1,1.287,1.381c0,.36-.234,8.829-5.384,13.814A12.193,12.193,0,0,1,579.056,686.679Z" transform="translate(-577.3 -668)" fill="#262424"/>
              </g>
              <g id="Group_357" data-name="Group 357">
                <path id="Path_596" data-name="Path 596" d="M451.455,901.761a1.157,1.157,0,0,1-.644-.18,1.4,1.4,0,0,1-.527-1.862c.351-.6,32.6-58.981,35.407-64.326,2.692-5.225,25.575-79.942,31.427-107.27,5.618-26.187,9.832-61.864,9.89-62.224a1.408,1.408,0,0,1,1.463-1.2,1.428,1.428,0,0,1,1.17,1.5c-.059.36-4.331,36.217-9.949,62.524-5.443,25.646-28.5,101.925-31.661,107.991-2.809,5.406-34.119,61.984-35.465,64.386A1.3,1.3,0,0,1,451.455,901.761Z" transform="translate(-450.121 -664.692)" fill="#262424"/>
              </g>
            </g>
            <path id="Path_597" data-name="Path 597" d="M413.329,1023.175c7.257-.3,27.564.721,33.592,20.661a4.222,4.222,0,0,1-.585,3.724l-14.163,19.64a3.792,3.792,0,0,1-3.628,1.622c-5.852-.661-21.127-3.6-27.916-16.037a4.3,4.3,0,0,1-.234-3.6l9.364-23.484A3.965,3.965,0,0,1,413.329,1023.175Z" transform="translate(-400.106 -763.191)" fill="url(#linear-gradient-5)"/>
          </g>
          <g id="Group_360" data-name="Group 360" transform="translate(25.542 284.876)">
            <path id="Path_598" data-name="Path 598" d="M405.473,1067.7l-9.773,23.664,13.987,9.25,14.865-21.982C424.61,1078.629,418.407,1063.434,405.473,1067.7Z" transform="translate(-394.439 -1065.562)" fill="#fff"/>
            <path id="Path_599" data-name="Path 599" d="M408.852,1101.075a1.106,1.106,0,0,1-.7-.24l-13.987-9.25a1.447,1.447,0,0,1-.527-1.682l9.773-23.664a1.5,1.5,0,0,1,.819-.781c13.929-4.565,20.717,11.532,20.776,11.652a1.514,1.514,0,0,1-.117,1.322l-14.865,21.983A1.588,1.588,0,0,1,408.852,1101.075ZM396.5,1089.9l12,7.928,13.694-20.3c-1.288-2.7-6.73-12.433-16.621-9.67Z" transform="translate(-393.545 -1064.643)" fill="#262424"/>
          </g>
          <g id="Group_363" data-name="Group 363" transform="translate(0 304.468)">
            <path id="Path_600" data-name="Path 600" d="M424.125,1174.825c-.117,3.243-.293,6.006-.293,6.006H377.189S352.2,1135.3,352.2,1131.461c0-1.5,3.1-6.847,6.847-12.733,5.735-9.009,12.934-19.28,12.934-19.28s21.946-10.631,28.325,15.015l4.506,38.019s18.084,11.472,19.02,12.553C424.359,1165.576,424.3,1170.561,424.125,1174.825Z" transform="translate(-350.854 -1097.264)" fill="url(#linear-gradient-6)"/>
            <g id="Group_361" data-name="Group 361" transform="translate(0 19.516)">
              <path id="Path_601" data-name="Path 601" d="M424.125,1188.779c-.117,3.243-.293,6.006-.293,6.006H377.189s-24.989-45.527-24.989-49.371c0-1.5,3.1-6.847,6.847-12.733a12.817,12.817,0,0,1,9.6,1.021c10.71,5.946,19.547,26.427,31.9,51.173l2.341,3.964h21.244Z" transform="translate(-350.854 -1130.733)" fill="#fff"/>
              <path id="Path_602" data-name="Path 602" d="M422.878,1195.13H376.235a1.283,1.283,0,0,1-1.17-.721c-5.911-10.751-25.165-46.187-25.165-50.031,0-.781,0-2.4,7.081-13.514a1.426,1.426,0,0,1,.819-.6,14.424,14.424,0,0,1,10.593,1.141c9.539,5.285,17.381,21.2,27.33,41.383,1.639,3.3,3.336,6.787,5.092,10.271l1.931,3.243h20.425a1.365,1.365,0,0,1,.936.42,1.219,1.219,0,0,1,.351,1.021c-.117,3.183-.293,6.006-.293,6.006A1.3,1.3,0,0,1,422.878,1195.13Zm-45.824-2.7h44.595c.059-.841.117-1.982.176-3.243H401.986a1.249,1.249,0,0,1-1.112-.661l-2.341-3.964-.059-.06c-1.756-3.544-3.511-7.027-5.15-10.331-9.715-19.76-17.381-35.316-26.218-40.241a11.475,11.475,0,0,0-8.193-1.021c-5.794,9.129-6.321,11.172-6.321,11.532C352.826,1147.321,367.574,1175.069,377.055,1192.427Z" transform="translate(-349.9 -1129.756)" fill="#262424"/>
            </g>
            <g id="Group_362" data-name="Group 362" transform="translate(0 26.665)">
              <path id="Path_603" data-name="Path 603" d="M398.375,1199.449H377.189s-24.989-45.527-24.989-49.371c0,0,2.634-7.748,10.476-5.706s12.758,12.253,20.073,26.067C388.309,1180.89,395.332,1193.8,398.375,1199.449Z" transform="translate(-350.854 -1142.606)" fill="#fff"/>
              <path id="Path_604" data-name="Path 604" d="M397.421,1199.884H376.235a1.283,1.283,0,0,1-1.17-.721c-5.911-10.751-25.165-46.188-25.165-50.032a1.355,1.355,0,0,1,.059-.48c1.053-3.123,4.974-8.469,12.056-6.607,7.9,2.042,12.758,11.232,19.488,24.025.468.9.936,1.8,1.463,2.7,5.618,10.571,12.758,23.845,15.567,29.01a1.446,1.446,0,0,1,0,1.381A1.146,1.146,0,0,1,397.421,1199.884Zm-20.366-2.7H395.2c-3.277-6.126-9.539-17.658-14.514-27.028-.468-.9-.995-1.8-1.463-2.7-6.379-12.133-11.061-20.9-17.791-22.643-5.911-1.562-8.31,3.364-8.837,4.565C353.411,1153.1,367.75,1180.184,377.055,1197.181Z" transform="translate(-349.9 -1141.66)" fill="#262424"/>
            </g>
          </g>
        </g>
      </g>
      <g id="LEFT_ARM_MAP" transform="translate(0 7.223)">
        <g id="Group_374" data-name="Group 374">
          <g id="Group_365" data-name="Group 365" transform="translate(73.885 89.85)">
            <path id="Path_605" data-name="Path 605" d="M361.1,448.347s9.949,45.287,15.216,55.8c5.326,10.571,23.936,9.61,34.88-7.628l-18.962-18.559L372.044,441.8Z" transform="translate(-359.783 -440.416)" fill="#fff"/>
            <path id="Path_606" data-name="Path 606" d="M387.614,511.453h-.936c-5.618-.3-10.183-3.063-12.465-7.568-5.326-10.571-14.923-54.3-15.333-56.158a1.386,1.386,0,0,1,.644-1.5l11-6.547a1.154,1.154,0,0,1,.995-.12,1.3,1.3,0,0,1,.819.661l20.073,36.037L411.257,494.7a1.4,1.4,0,0,1,.176,1.742C404.293,507.488,394.637,511.453,387.614,511.453Zm-25.926-63.365c1.463,6.667,10.183,45.106,14.923,54.536,1.814,3.664,5.56,5.886,10.242,6.126,6.145.3,15.041-2.943,21.771-12.913l-18.142-17.778a1.05,1.05,0,0,1-.234-.3l-19.605-35.016Z" transform="translate(-358.85 -439.496)" fill="#262424"/>
          </g>
          <g id="Group_372" data-name="Group 372">
            <path id="Path_607" data-name="Path 607" d="M374.46,390.083,358.015,403.9l-21.127-7.328L321.2,412.847l-20.717-4.925-13.46,16.937L264.9,421.916l-32.3-94.3,26.218,3.484,15.86-20,24.521,5.766,18.61-19.28L342.8,306.3l19.43-16.4Z" transform="translate(-232.6 -289.9)" fill="url(#linear-gradient-7)"/>
            <g id="Group_371" data-name="Group 371" transform="translate(27.908 16.378)">
              <g id="Group_366" data-name="Group 366" transform="translate(0 33.525)">
                <path id="Path_608" data-name="Path 608" d="M303.821,449.393a1.321,1.321,0,0,1-1.288-.961l-22.18-73.7a1.313,1.313,0,0,1,.878-1.682,1.269,1.269,0,0,1,1.639.9l22.18,73.7a1.313,1.313,0,0,1-.878,1.682C304.055,449.333,303.938,449.393,303.821,449.393Z" transform="translate(-280.287 -372.987)" fill="#fff"/>
              </g>
              <g id="Group_367" data-name="Group 367" transform="translate(15.3 12.65)">
                <path id="Path_609" data-name="Path 609" d="M328.652,419.416a1.377,1.377,0,0,1-1.288-1.021l-20.893-78.441a1.392,1.392,0,0,1,.936-1.682,1.348,1.348,0,0,1,1.639.961l20.893,78.441a1.392,1.392,0,0,1-.936,1.682C328.886,419.356,328.769,419.416,328.652,419.416Z" transform="translate(-306.431 -338.231)" fill="#fff"/>
              </g>
              <g id="Group_368" data-name="Group 368" transform="translate(39.298 17.579)">
                <path id="Path_610" data-name="Path 610" d="M366.9,428.339a1.318,1.318,0,0,1-1.288-1.081L347.474,348.1a1.364,1.364,0,0,1,.995-1.622,1.327,1.327,0,0,1,1.58,1.021l18.142,79.162a1.364,1.364,0,0,1-.995,1.622A.622.622,0,0,1,366.9,428.339Z" transform="translate(-347.437 -346.437)" fill="#fff"/>
              </g>
              <g id="Group_369" data-name="Group 369" transform="translate(57.928)">
                <path id="Path_611" data-name="Path 611" d="M395.791,398.752a1.274,1.274,0,0,1-1.287-1.081l-15.216-78.861a1.454,1.454,0,0,1,1.053-1.622,1.418,1.418,0,0,1,1.58,1.081l15.216,78.861a1.454,1.454,0,0,1-1.053,1.622Z" transform="translate(-379.269 -317.169)" fill="#fff"/>
              </g>
              <g id="Group_370" data-name="Group 370" transform="translate(82.742 9.55)">
                <path id="Path_612" data-name="Path 612" d="M434.738,410.568a1.283,1.283,0,0,1-1.288-1.141l-11.763-74.777a1.351,1.351,0,0,1,1.112-1.562,1.325,1.325,0,0,1,1.522,1.141l11.763,74.777a1.351,1.351,0,0,1-1.112,1.562Z" transform="translate(-421.669 -333.069)" fill="#fff"/>
              </g>
            </g>
          </g>
          <path id="Path_613" data-name="Path 613" d="M445.448,393.415a58.4,58.4,0,0,0-24.112,21.142C411.211,429.993,397.4,456.54,397.4,456.54s4.1,29.791,33.3,22.523c0,0,23.409-45.827,27.974-63.846C463.3,397.259,455.572,388.971,445.448,393.415Z" transform="translate(-300.954 -330.771)" fill="url(#linear-gradient-8)"/>
          <g id="Group_373" data-name="Group 373" transform="translate(99.318 123.732)">
            <path id="Path_614" data-name="Path 614" d="M429.985,518.306c-18.669,0-27.447-20.241-27.564-20.481a1.357,1.357,0,0,1,.7-1.8,1.3,1.3,0,0,1,1.756.721c.117.24,8.486,19.46,26.043,18.8a1.383,1.383,0,0,1,.117,2.763Z" transform="translate(-402.307 -495.908)" fill="#262424"/>
          </g>
        </g>
      </g>
      <g id="HEAD" transform="translate(167.213 3.027)">
        <g id="Group_378" data-name="Group 378">
          <g id="Group_375" data-name="Group 375" transform="translate(10.726 12.163)">
            <path id="Path_615" data-name="Path 615" d="M539.592,332.542s2.634,7.508,13.577,11.472c12.114,4.385,18.084-13.214,18.2-28.77C571.487,299.628,533.213,300.589,539.592,332.542Z" transform="translate(-537.572 -304.051)" fill="#fff"/>
            <path id="Path_616" data-name="Path 616" d="M555.874,345.169a11.237,11.237,0,0,1-4.1-.781c-11.354-4.144-14.221-11.952-14.338-12.253,0-.06-.059-.12-.059-.18-2.809-14.175,3.1-21.322,6.906-24.325,6.847-5.406,15.977-5.406,21.478-2.643,3.921,1.982,6.086,5.345,6.028,9.31-.059,10.09-2.751,23.664-9.89,28.83A10.139,10.139,0,0,1,555.874,345.169ZM539.9,331.235c.351.841,3.1,7.087,12.7,10.571a7.728,7.728,0,0,0,7.667-.9c5.911-4.264,8.661-16.457,8.778-26.607.059-3.9-2.868-6.006-4.565-6.847-4.623-2.342-12.7-2.342-18.669,2.342C541.829,312.916,537.556,319.222,539.9,331.235Z" transform="translate(-536.648 -303.164)" fill="#262424"/>
          </g>
          <g id="Group_376" data-name="Group 376" transform="translate(8.921 41.315)">
            <path id="Path_617" data-name="Path 617" d="M539.645,354.1,535.9,370.857l17.557,1.321.936-17.538Z" transform="translate(-534.533 -352.659)" fill="#fff"/>
            <path id="Path_618" data-name="Path 618" d="M552.488,372.6h-.117l-17.557-1.381a1.294,1.294,0,0,1-.995-.541,1.512,1.512,0,0,1-.234-1.141l3.746-16.757a1.334,1.334,0,0,1,1.346-1.081l14.806.541a1.365,1.365,0,0,1,.936.42,1.54,1.54,0,0,1,.351,1.021l-.995,17.538a1.266,1.266,0,0,1-.468.961A1.013,1.013,0,0,1,552.488,372.6Zm-15.918-3.964,14.631,1.141L552.02,355l-12.348-.48Z" transform="translate(-533.564 -351.7)" fill="#262424"/>
          </g>
          <path id="Path_619" data-name="Path 619" d="M541.016,284.287s-9.013-5.045-18.61,4.2-.41,31.773,8.369,39.941h16.5l10.768-19.88,5.091,5.225a20.89,20.89,0,0,0,3.628-21.2C562.143,280.022,544.7,282.905,541.016,284.287Z" transform="translate(-518.321 -282.913)" fill="#262424"/>
          <g id="Group_377" data-name="Group 377" transform="translate(37.182 20.053)">
            <path id="Path_620" data-name="Path 620" d="M585.312,322.977l.058-.18s3.98-7.087,9.949-2.883-1.17,20.481-10.768,14.475h0A24.323,24.323,0,0,1,585.312,322.977Z" transform="translate(-582.828 -317.211)" fill="#fff"/>
            <path id="Path_621" data-name="Path 621" d="M587.792,336.12a9.186,9.186,0,0,1-4.916-1.5,1.44,1.44,0,0,1-.644-.9,26.346,26.346,0,0,1,.761-12.072h0l.059-.18a.315.315,0,0,1,.117-.24c.117-.18,2.224-3.9,5.852-4.745a7.182,7.182,0,0,1,6.028,1.441c3.863,2.7,3.277,9.009.585,13.334C593.645,334.439,590.777,336.12,587.792,336.12Zm-2.985-3.484c4.74,2.523,7.784-1.562,8.661-2.883,2.048-3.243,2.575-7.868.117-9.55a4.745,4.745,0,0,0-3.921-1.021c-2.224.541-3.745,2.763-4.1,3.3h0A22.849,22.849,0,0,0,584.808,332.637Z" transform="translate(-581.856 -316.3)" fill="#262424"/>
          </g>
        </g>
      </g>
      <g id="BODY" transform="translate(110.082 56.276)">
        <g id="Group_381" data-name="Group 381">
          <path id="Path_622" data-name="Path 622" d="M523.8,383l2.458-9.55s11.061-4.745,26.57.841l1.931,9.61Z" transform="translate(-463.463 -371.57)" fill="url(#linear-gradient-9)"/>
          <path id="Path_623" data-name="Path 623" d="M455.112,390.622s16.5-6.967,41.961-5.045,40.908,9.55,40.908,9.55,9.188,44.266,9.364,56.819-14.689,23.064-14.689,23.064l6.262,71.714H420.7S422.573,434.948,455.112,390.622Z" transform="translate(-420.7 -377.03)" fill="url(#linear-gradient-10)"/>
          <g id="Group_379" data-name="Group 379" transform="translate(5.309 12.215)">
            <path id="Path_624" data-name="Path 624" d="M431.134,478.031H430.9a1.4,1.4,0,0,1-1.112-1.562c6.2-38.86,15.626-67.149,28.033-84.027a1.3,1.3,0,0,1,1.873-.24,1.377,1.377,0,0,1,.234,1.922c-12.173,16.517-21.419,44.386-27.506,82.825A1.274,1.274,0,0,1,431.134,478.031Z" transform="translate(-429.772 -391.906)" fill="#262424"/>
          </g>
          <g id="Group_380" data-name="Group 380" transform="translate(2.516 160.383)">
            <path id="Path_625" data-name="Path 625" d="M537.54,641.363H426.346a1.382,1.382,0,0,1,0-2.763H537.54a1.382,1.382,0,0,1,0,2.763Z" transform="translate(-425 -638.6)" fill="#262424"/>
          </g>
        </g>
      </g>
      <g id="HAIR" transform="translate(104.74)">
        <g id="Group_385" data-name="Group 385">
          <g id="Group_383" data-name="Group 383" transform="translate(57.325 10.138)">
            <g id="Group_382" data-name="Group 382">
              <path id="Path_626" data-name="Path 626" d="M513.111,298.913l-1.229,7.388a2.256,2.256,0,0,0,1.7,2.523l5.735,1.141a2.125,2.125,0,0,0,2.516-1.862l.936-7.748a2.114,2.114,0,0,0-1.814-2.4l-5.443-.781A2,2,0,0,0,513.111,298.913Z" transform="translate(-510.491 -295.701)" fill="#fff"/>
              <path id="Path_627" data-name="Path 627" d="M518.7,310.4a2.341,2.341,0,0,1-.644-.06l-5.735-1.141a3.529,3.529,0,0,1-2.751-4.084l1.229-7.388h0a3.54,3.54,0,0,1,3.921-2.943l5.443.781a3.543,3.543,0,0,1,2.926,3.964l-.936,7.748a3.505,3.505,0,0,1-1.4,2.4A3.168,3.168,0,0,1,518.7,310.4ZM513.431,298.2l-1.229,7.388a.906.906,0,0,0,.644.961l5.735,1.141a.952.952,0,0,0,.644-.12.776.776,0,0,0,.351-.541l.936-7.748a.8.8,0,0,0-.7-.9l-5.443-.781a.676.676,0,0,0-.936.6Z" transform="translate(-509.524 -294.753)" fill="#262424"/>
            </g>
          </g>
          <g id="Group_384" data-name="Group 384">
            <path id="Path_628" data-name="Path 628" d="M450.272,390.565c-34.763,16.817-44.829-21.983-35.289-26.187s24.053-12.973,16.738-29.31-11.939-43.365,7.315-54.176c19.254-10.871,35.7,11.111,35.7,11.111a16.914,16.914,0,0,1-1.58,7.388c-7.842,1.261-11.822,8.048-7.14,23.965C471.048,340.294,485.035,373.688,450.272,390.565Z" transform="translate(-411.571 -277.873)" fill="#262424"/>
          </g>
        </g>
      </g>
      <g id="RIGHT_ARM" transform="translate(200.551 42.24)">
        <g id="Group_389" data-name="Group 389">
          <g id="Group_386" data-name="Group 386" transform="translate(28.075)">
            <path id="Path_629" data-name="Path 629" d="M651.66,427.239l15.567-27.688.878-46.968a2.3,2.3,0,0,1,2.282-2.282h0a2.349,2.349,0,0,1,2.282,2.042l2.458,22.223s14.631.3,17.03,4.385c2.107,3.6-2.516,14.475-2.516,14.475s.117,6.126-1.17,8.469c-1.346,2.342-5.969,4.625-5.969,4.625s-9.715,71.714-25.106,71.053-31.9-27.689-31.9-27.689Z" transform="translate(-624.187 -349.039)" fill="#fff"/>
            <path id="Path_630" data-name="Path 630" d="M656.7,478.114h-.293c-15.918-.721-32.246-27.208-32.949-28.349a1.329,1.329,0,0,1,.293-1.742l25.984-22.463,15.274-27.148.878-46.608a3.658,3.658,0,0,1,3.57-3.6,3.6,3.6,0,0,1,3.57,3.3l2.282,21.022c4.1.18,14.631.961,16.972,4.985,2.224,3.844-1.288,12.973-2.341,15.436,0,1.381-.059,6.547-1.4,8.889-1.229,2.1-4.506,4.084-5.911,4.865-.468,3.484-2.809,19.46-6.613,35.2C670.1,466.222,663.78,478.114,656.7,478.114Zm-30.374-28.83c3.1,4.8,17.264,25.466,30.2,26.067h.176c10.3,0,19.839-42.764,23.468-69.852a1.258,1.258,0,0,1,.761-1.021c1.639-.841,4.623-2.7,5.443-4.084.819-1.441,1.053-5.526.995-7.748a2.181,2.181,0,0,1,.117-.6c1.814-4.264,3.8-11.172,2.575-13.214-1.4-2.342-10.125-3.6-15.918-3.724a1.337,1.337,0,0,1-1.288-1.2l-2.458-22.223a.955.955,0,0,0-.936-.841.937.937,0,0,0-.936.961l-.878,46.968a1.235,1.235,0,0,1-.176.661L651.9,427.121a1.58,1.58,0,0,1-.293.36Zm24.4-22.884Z" transform="translate(-623.257 -348.2)" fill="#262424"/>
          </g>
          <path id="Path_631" data-name="Path 631" d="M603.107,400.5l37.747,45.527c.351,21.382-8.076,34.355-32.012,32.433,0,0-24.17-31.653-30.14-52.614C572.675,404.824,592.339,394.193,603.107,400.5Z" transform="translate(-576.237 -368.366)" fill="url(#linear-gradient-11)"/>
          <g id="Group_387" data-name="Group 387" transform="translate(0 30.197)">
            <path id="Path_632" data-name="Path 632" d="M602.156,471.886a1.241,1.241,0,0,1-1.053-.541c-7.374-10.511-20.425-30.391-24.638-45.167-4.1-14.355,3.1-24.265,12.056-27.628a1.337,1.337,0,0,1,1.7.781,1.394,1.394,0,0,1-.761,1.742c-7.784,2.943-14.046,11.652-10.417,24.325,4.1,14.355,16.972,33.935,24.229,44.326a1.446,1.446,0,0,1-.293,1.922A2.464,2.464,0,0,1,602.156,471.886Z" transform="translate(-575.285 -398.476)" fill="#262424"/>
          </g>
          <g id="Group_388" data-name="Group 388" transform="translate(31.223 76.699)">
            <path id="Path_633" data-name="Path 633" d="M634.877,504.309a25.411,25.411,0,0,1-5.209-.48,1.364,1.364,0,0,1-.995-1.622,1.327,1.327,0,0,1,1.58-1.021c.117,0,10.3,2.162,17.791-3.784,5.033-4.024,7.842-10.811,8.252-20.181a1.348,1.348,0,1,1,2.692.12c-.41,10.211-3.57,17.718-9.305,22.223A23.688,23.688,0,0,1,634.877,504.309Z" transform="translate(-628.637 -475.9)" fill="#262424"/>
          </g>
        </g>
      </g>
    </g>
    <g id="ORNAMENT" transform="translate(106.512 118.2)">
      <g id="Group_390" data-name="Group 390">
        <ellipse id="Ellipse_39" data-name="Ellipse 39" cx="29.613" cy="30.391" rx="29.613" ry="30.391" transform="translate(0 285.174)" fill="url(#linear-gradient-12)"/>
        <ellipse id="Ellipse_40" data-name="Ellipse 40" cx="29.613" cy="30.391" rx="29.613" ry="30.391" transform="translate(561.941 621.7)" fill="url(#linear-gradient-13)"/>
        <ellipse id="Ellipse_41" data-name="Ellipse 41" cx="18.376" cy="18.859" rx="18.376" ry="18.859" transform="translate(554.801 24.685)" fill="url(#linear-gradient-14)"/>
        <ellipse id="Ellipse_42" data-name="Ellipse 42" cx="15.392" cy="15.796" rx="15.392" ry="15.796" transform="translate(403.195)" fill="url(#linear-gradient-15)"/>
        <ellipse id="Ellipse_43" data-name="Ellipse 43" cx="6.262" cy="6.427" rx="6.262" ry="6.427" transform="translate(451.877 195.621)" fill="url(#linear-gradient-16)"/>
        <ellipse id="Ellipse_44" data-name="Ellipse 44" cx="9.013" cy="9.25" rx="9.013" ry="9.25" transform="translate(83.922 406.499)" fill="url(#linear-gradient-17)"/>
        <ellipse id="Ellipse_45" data-name="Ellipse 45" cx="12.992" cy="13.334" rx="12.992" ry="13.334" transform="translate(652.534 523.86)" fill="url(#linear-gradient-18)"/>
      </g>
    </g>
    <g id="Question_Marks" transform="translate(464.558 308.836)">
      <path id="Path_634" data-name="Path 634" d="M1365.216,551.94a13.172,13.172,0,1,1-26.336,0c-.058-3.9-.117-6.246-.117-7.087,0-8.709,1.4-15.856,4.214-21.5,2.809-5.586,8.427-11.952,16.855-18.98s13.519-11.652,15.157-13.814a18.559,18.559,0,0,0,3.8-11.412,19.044,19.044,0,0,0-6.789-14.715c-4.506-4.084-10.534-6.126-18.2-6.126-7.374,0-13.519,2.162-18.493,6.427-4.916,4.324-8.369,10.871-10.183,19.7a13.353,13.353,0,0,1-26.628-1.742,17.424,17.424,0,0,1,.117-1.742c.761-12.613,5.969-23.3,15.743-32.133q14.572-13.244,38.274-13.214,24.931,0,39.679,13.334t14.748,31.052a35.126,35.126,0,0,1-5.384,18.559c-3.628,5.826-11.295,13.814-23.117,23.845-6.086,5.165-9.89,9.37-11.353,12.553s-2.107,8.829-1.99,17Zm-13.109,23.6a15.381,15.381,0,1,1-14.982,15.376,15.174,15.174,0,0,1,14.982-15.376Z" transform="translate(-1057.619 -435.6)" fill-rule="evenodd" fill="url(#linear-gradient-19)"/>
      <path id="Path_635" data-name="Path 635" d="M1143.759,935.433a10.186,10.186,0,1,1-20.366,0c-.059-3-.059-4.8-.059-5.466,0-6.727,1.112-12.313,3.277-16.637s6.5-9.25,13.051-14.715c6.555-5.406,10.476-9.009,11.7-10.691a14.452,14.452,0,0,0,2.985-8.829,14.86,14.86,0,0,0-5.267-11.412c-3.453-3.183-8.193-4.745-14.1-4.745a21.09,21.09,0,0,0-14.28,4.985c-3.8,3.364-6.438,8.409-7.9,15.256a10.331,10.331,0,0,1-20.6-1.381,9.55,9.55,0,0,1,.058-1.321c.585-9.79,4.623-18.019,12.173-24.866,7.491-6.847,17.381-10.211,29.613-10.211,12.875,0,23.117,3.484,30.666,10.331,7.608,6.907,11.412,14.9,11.412,24.025a27.178,27.178,0,0,1-4.155,14.355c-2.809,4.5-8.72,10.691-17.908,18.439q-7.111,6.036-8.779,9.73c-1.112,2.4-1.639,6.787-1.522,13.153Zm-10.183,18.2a11.9,11.9,0,1,1-11.588,11.892,11.77,11.77,0,0,1,11.588-11.892Z" transform="translate(-972.052 -599.266)" fill-rule="evenodd" fill="url(#linear-gradient-20)"/>
      <path id="Path_636" data-name="Path 636" d="M930.09,565.238a8.547,8.547,0,1,1-17.089,0c-.059-2.523-.059-4.024-.059-4.625,0-5.646.936-10.331,2.751-13.994s5.5-7.748,10.944-12.373q8.252-6.847,9.832-9.009a12.455,12.455,0,0,0-1.873-17c-2.926-2.643-6.847-4.024-11.822-4.024a17.486,17.486,0,0,0-12,4.2c-3.219,2.823-5.443,7.087-6.613,12.793a8.655,8.655,0,0,1-17.264-1.081,7.449,7.449,0,0,1,.059-1.141,29.9,29.9,0,0,1,10.242-20.9c6.321-5.766,14.631-8.589,24.872-8.589,10.827,0,19.43,2.883,25.809,8.709,6.379,5.766,9.6,12.493,9.6,20.181a22.716,22.716,0,0,1-3.511,12.072c-2.341,3.784-7.374,8.949-15.04,15.5-3.98,3.363-6.438,6.126-7.374,8.168-1.112,2.1-1.522,5.826-1.463,11.112Zm-8.544,15.316a9.974,9.974,0,1,1-9.715,9.97,9.821,9.821,0,0,1,9.715-9.97Z" transform="translate(-886.9 -457.127)" fill-rule="evenodd" fill="url(#linear-gradient-21)"/>
    </g>
  </g>
</svg>
