<svg id="Illustration_NOUS_CONTACTER" data-name="Illustration NOUS CONTACTER" xmlns="http://www.w3.org/2000/svg" xmlns:xlink="http://www.w3.org/1999/xlink" width="489.394" height="564.99" viewBox="0 0 489.394 564.99">
  <defs>
    <linearGradient id="linear-gradient" y1="0.5" x2="1.001" y2="0.5" gradientUnits="objectBoundingBox">
      <stop offset="0" stop-color="#1b89ca"/>
      <stop offset="1" stop-color="#2e3792"/>
    </linearGradient>
    <linearGradient id="linear-gradient-2" y1="0.5" x2="1" y2="0.5" gradientUnits="objectBoundingBox">
      <stop offset="0" stop-color="#ce2e82"/>
      <stop offset="1" stop-color="#601f5f"/>
    </linearGradient>
    <linearGradient id="linear-gradient-3" x1="0" y1="0.5" x2="1" y2="0.5" xlink:href="#linear-gradient"/>
    <linearGradient id="linear-gradient-5" x1="0" y1="0.5" x2="1" y2="0.5" xlink:href="#linear-gradient"/>
    <linearGradient id="linear-gradient-7" x1="0" y1="0.5" x2="1" y2="0.5" xlink:href="#linear-gradient-2"/>
    <linearGradient id="linear-gradient-8" x1="0" y1="0.5" x2="1" y2="0.5" xlink:href="#linear-gradient-2"/>
    <linearGradient id="linear-gradient-11" x1="0" y1="0.5" x2="1" y2="0.5" xlink:href="#linear-gradient"/>
    <linearGradient id="linear-gradient-13" x1="0" y1="0.5" x2="1" y2="0.5" xlink:href="#linear-gradient"/>
    <linearGradient id="linear-gradient-15" x1="0" y1="0.5" x2="1" y2="0.5" xlink:href="#linear-gradient"/>
    <linearGradient id="linear-gradient-16" x1="0" y1="0.5" x2="1" y2="0.5" xlink:href="#linear-gradient-2"/>
    <linearGradient id="linear-gradient-18" x1="0" y1="0.5" x2="1" y2="0.5" xlink:href="#linear-gradient-2"/>
    <linearGradient id="linear-gradient-19" x1="0.001" y1="0.5" x2="1" y2="0.5" xlink:href="#linear-gradient"/>
    <linearGradient id="linear-gradient-20" x1="0" y1="0.5" x2="1" y2="0.5" xlink:href="#linear-gradient-2"/>
    <linearGradient id="linear-gradient-21" x1="0.001" y1="0.5" x2="1" y2="0.5" xlink:href="#linear-gradient-2"/>
    <clipPath id="clip-path">
      <path id="Path_1578" data-name="Path 1578" d="M296.174,187.37a8.522,8.522,0,0,0-8.432,9.783l16.5,110.765a8.558,8.558,0,0,0,8.432,7.274H467.625a8.531,8.531,0,0,0,8.432-9.788l-16.5-110.765a8.473,8.473,0,0,0-8.436-7.27Zm-9.094,9.882Z" transform="translate(-287.08 -187.37)" fill="none"/>
    </clipPath>
    <linearGradient id="linear-gradient-22" x1="0" y1="0.5" x2="1" y2="0.5" xlink:href="#linear-gradient"/>
    <linearGradient id="linear-gradient-23" x1="0" y1="0.5" x2="1" y2="0.5" xlink:href="#linear-gradient"/>
    <linearGradient id="linear-gradient-24" x1="0" y1="0.5" x2="1.001" y2="0.5" xlink:href="#linear-gradient"/>
    <linearGradient id="linear-gradient-25" x1="0" y1="0.501" x2="1" y2="0.501" xlink:href="#linear-gradient"/>
    <linearGradient id="linear-gradient-26" x1="0" y1="0.5" x2="1" y2="0.5" xlink:href="#linear-gradient"/>
    <linearGradient id="linear-gradient-27" x1="0" y1="0.5" x2="1" y2="0.5" xlink:href="#linear-gradient"/>
    <linearGradient id="linear-gradient-28" x1="0" y1="0.5" x2="1" y2="0.5" xlink:href="#linear-gradient"/>
    <linearGradient id="linear-gradient-29" x1="-0.002" y1="0.5" x2="0.999" y2="0.5" xlink:href="#linear-gradient"/>
    <linearGradient id="linear-gradient-30" x1="-0.006" y1="0.502" x2="0.998" y2="0.502" xlink:href="#linear-gradient"/>
    <linearGradient id="linear-gradient-31" x1="0" y1="0.5" x2="0.999" y2="0.5" xlink:href="#linear-gradient"/>
    <linearGradient id="linear-gradient-34" x1="0" y1="0.5" x2="1" y2="0.5" xlink:href="#linear-gradient"/>
    <linearGradient id="linear-gradient-35" x1="0" y1="0.5" x2="1" y2="0.5" xlink:href="#linear-gradient-2"/>
    <linearGradient id="linear-gradient-36" x1="-0.001" y1="0.499" x2="0.999" y2="0.499" xlink:href="#linear-gradient"/>
    <linearGradient id="linear-gradient-37" x1="0" y1="0.5" x2="1" y2="0.5" xlink:href="#linear-gradient-2"/>
    <linearGradient id="linear-gradient-40" x1="0" y1="0.5" x2="1" y2="0.5" xlink:href="#linear-gradient"/>
    <linearGradient id="linear-gradient-41" x1="0" y1="0.5" x2="1" y2="0.5" xlink:href="#linear-gradient-2"/>
    <linearGradient id="linear-gradient-42" x1="0" y1="0.5" x2="1" y2="0.5" xlink:href="#linear-gradient"/>
    <linearGradient id="linear-gradient-43" x1="0" y1="0.5" x2="1" y2="0.5" xlink:href="#linear-gradient-2"/>
  </defs>
  <g id="CHAIR" transform="translate(259.15 185.509)">
    <path id="Path_1460" data-name="Path 1460" d="M866.8,923.91l-18.4,158.19a4.955,4.955,0,0,0,4.9,5.509h0a4.955,4.955,0,0,0,4.815-3.892L892.791,923.91Z" transform="translate(-847.01 -726.744)" fill="#fff"/>
    <path id="Path_1461" data-name="Path 1461" d="M851.644,1087.312a6.306,6.306,0,0,1-6.243-7.013l18.4-158.195a1.352,1.352,0,0,1,1.351-1.193h25.985a1.351,1.351,0,0,1,1.32,1.635l-34.683,159.812A6.306,6.306,0,0,1,851.644,1087.312Zm14.724-163.7-18.265,157a3.6,3.6,0,0,0,7.063,1.176l34.323-158.172Z" transform="translate(-845.362 -725.095)" fill="#262424"/>
    <path id="Path_1462" data-name="Path 1462" d="M1008.528,923.91l18.4,158.19a4.955,4.955,0,0,1-4.9,5.509h0a4.954,4.954,0,0,1-4.824-3.892L982.52,923.91Z" transform="translate(-920.74 -726.744)" fill="#fff"/>
    <path id="Path_1463" data-name="Path 1463" d="M1020.38,1087.312a6.306,6.306,0,0,1-6.144-4.955L979.553,922.545a1.351,1.351,0,0,1,1.324-1.635h26a1.352,1.352,0,0,1,1.351,1.194l18.4,158.195a6.306,6.306,0,0,1-6.243,7.013Zm-37.836-163.7,34.323,158.172a3.6,3.6,0,0,0,7.058-1.176l-18.26-157Z" transform="translate(-919.093 -725.095)" fill="#262424"/>
    <path id="Path_1464" data-name="Path 1464" d="M966.663,711.919H951.02l13.216-85.509h15.643Z" transform="translate(-781.804 -529.766)" fill="#fff"/>
    <path id="Path_1465" data-name="Path 1465" d="M1234.993,785.952h-15.661a1.352,1.352,0,0,1-1.351-1.559l13.215-85.5a1.352,1.352,0,0,1,1.352-1.149h15.643a1.351,1.351,0,0,1,1.351,1.559l-13.211,85.491a1.351,1.351,0,0,1-1.338,1.162Zm-14.067-2.7h12.909l12.792-82.807h-12.909Z" transform="translate(-1050.134 -602.447)" fill="#262424"/>
    <path id="Path_1466" data-name="Path 1466" d="M1252.451,594.062h0a14.711,14.711,0,0,1-14.536-16.977l12.1-78.442a14.716,14.716,0,0,1,14.54-12.463h0a14.711,14.711,0,0,1,14.535,16.954l-12.1,78.456A14.711,14.711,0,0,1,1252.451,594.062Z" transform="translate(-1061.002 -486.18)" fill="url(#linear-gradient)"/>
    <path id="Path_1467" data-name="Path 1467" d="M1084.007,923.91l-18.4,158.19a4.955,4.955,0,0,0,4.905,5.509h0a4.955,4.955,0,0,0,4.82-3.892L1110.01,923.91Z" transform="translate(-966.383 -726.744)" fill="#fff"/>
    <path id="Path_1468" data-name="Path 1468" d="M1068.861,1087.312a6.283,6.283,0,0,1-6.243-7.013l18.4-158.2a1.351,1.351,0,0,1,1.351-1.193h26a1.349,1.349,0,0,1,1.32,1.635L1075,1082.357A6.305,6.305,0,0,1,1068.861,1087.312Zm14.7-163.7-18.265,157a3.6,3.6,0,0,0,7.063,1.176l34.323-158.172Z" transform="translate(-964.737 -725.095)" fill="#262424"/>
    <path id="Path_1469" data-name="Path 1469" d="M1225.743,923.91l18.4,158.19a4.954,4.954,0,0,1-4.905,5.509h0a4.955,4.955,0,0,1-4.82-3.892L1199.74,923.91Z" transform="translate(-1040.118 -726.744)" fill="#fff"/>
    <path id="Path_1470" data-name="Path 1470" d="M1237.589,1087.312a6.306,6.306,0,0,1-6.144-4.955l-34.683-159.812a1.348,1.348,0,0,1,1.32-1.635h26a1.352,1.352,0,0,1,1.351,1.194l18.4,158.195a6.306,6.306,0,0,1-6.248,7.013Zm-37.836-163.7,34.323,158.172a3.6,3.6,0,0,0,7.063-1.176l-18.251-157Z" transform="translate(-1038.465 -725.095)" fill="#262424"/>
    <rect id="Rectangle_43" data-name="Rectangle 43" width="127.651" height="26.773" rx="13.387" transform="translate(7.224 173.406)" fill="url(#linear-gradient-2)"/>
    <rect id="Rectangle_44" data-name="Rectangle 44" width="93.175" height="26.773" rx="13.387" transform="translate(105.039 173.406)" fill="#fff"/>
    <path id="Path_1471" data-name="Path 1471" d="M1156.7,897.636h-66.4a14.738,14.738,0,0,1,0-29.476h66.4a14.738,14.738,0,0,1,0,29.476Zm-66.4-26.773a12.035,12.035,0,0,0,0,24.071h66.4a12.035,12.035,0,0,0,0-24.071Z" transform="translate(-971.872 -696.106)" fill="#262424"/>
  </g>
  <g id="PLANT" transform="translate(24.176 301.152)">
    <path id="Path_1472" data-name="Path 1472" d="M499.136,920.6s-35.8-108.1,35.133-177.685C534.269,742.92,574.127,833.451,499.136,920.6Z" transform="translate(-415.146 -742.92)" fill="url(#linear-gradient-3)"/>
    <path id="Path_1473" data-name="Path 1473" d="M544.822,781.92s-22.76,79.131-30.6,155.735C514.22,937.656,537.39,856.236,544.822,781.92Z" transform="translate(-428.401 -764.353)" fill="#fff"/>
    <path id="Path_1474" data-name="Path 1474" d="M459.946,937.252s17.9-100.9-33.291-166.992C426.655,770.265,405.07,854.643,459.946,937.252Z" transform="translate(-377.978 -757.945)" fill="url(#linear-gradient-2)"/>
    <path id="Path_1475" data-name="Path 1475" d="M437.93,806.9s19.571,74.456,29.048,146.357C466.978,953.258,447.006,876.653,437.93,806.9Z" transform="translate(-386.474 -778.082)" fill="#fff"/>
    <path id="Path_1476" data-name="Path 1476" d="M432.12,1027.681C389.78,1014.767,367.56,943,367.56,943l14.612,3.558,6.387,1.55,2.63-.595,13.288-3.009C420.409,973.332,432.12,1027.681,432.12,1027.681Z" transform="translate(-347.801 -852.879)" fill="url(#linear-gradient-5)"/>
    <path id="Path_1477" data-name="Path 1477" d="M444.259,1027.523c-.45-.671-28.575-42.39-44.219-76.613l6.387,1.55,2.631-.595C415.445,964.252,435.259,1003.268,444.259,1027.523Z" transform="translate(-365.651 -857.226)" fill="#fff"/>
    <path id="Path_1478" data-name="Path 1478" d="M380.387,937.915s-29.354,26.305-40.462,79.185a3.721,3.721,0,0,1-6.671,1.4c-3.7-5.22-8.148-15.161-9.324-33.435-2.1-32.732,10.211-51.051,17.418-54.051,0,0,3.968,2.815,11.8,4.955a64.544,64.544,0,0,0,6.941,1.477,80.713,80.713,0,0,0,20.3.473Z" transform="translate(-323.693 -846.289)" fill="url(#linear-gradient-3)"/>
    <path id="Path_1479" data-name="Path 1479" d="M373.416,943.46c-7.3,10.112-22.823,34.642-25.048,63.06,0,0-4.851-34.377,18.107-64.56A64.561,64.561,0,0,0,373.416,943.46Z" transform="translate(-337.018 -852.307)" fill="#fff"/>
    <path id="Path_1480" data-name="Path 1480" d="M566.578,984.892c-19.03,57.565-55.907,65.429-55.907,65.429L504,1049.132C520.666,1021.286,529.224,983,529.224,983l15.013.766,6.144.315Z" transform="translate(-422.785 -874.862)" fill="url(#linear-gradient-7)"/>
    <path id="Path_1481" data-name="Path 1481" d="M558.55,985c-9.265,40.174-39.223,62.317-39.71,62.673,20.72-21.621,30.278-50.781,33.566-62.988Z" transform="translate(-430.94 -875.785)" fill="#fff"/>
    <path id="Path_1482" data-name="Path 1482" d="M596.881,1059.4s-4.045-43.3-36.881-78.978c0,0,9.2-2.482,23.093-2.063,2.41.072,4.955.234,7.657.509a104.884,104.884,0,0,1,17.089,3.216S620.907,1027.522,596.881,1059.4Z" transform="translate(-453.561 -872.286)" fill="url(#linear-gradient-8)"/>
    <path id="Path_1483" data-name="Path 1483" d="M628.631,1035.43c-1.883-24.287-12.851-48.124-17.351-57.02,2.41.072,4.955.234,7.657.509C632.774,1006.832,628.631,1035.43,628.631,1035.43Z" transform="translate(-481.743 -872.339)" fill="#fff"/>
    <path id="Path_1484" data-name="Path 1484" d="M501.538,1120.34s-1.613,26.71-9.941,50.331a99.928,99.928,0,0,1-5.914,13.7,58.177,58.177,0,0,1-7.567,11.189H442.982c-9.756-11.054-15.544-28.891-18.918-44.421a225.22,225.22,0,0,1-4.5-30.8Z" transform="translate(-376.379 -950.34)" fill="url(#linear-gradient-2)"/>
    <path id="Path_1485" data-name="Path 1485" d="M491.6,1170.671a99.928,99.928,0,0,1-5.914,13.7c-3.117-6.684-10.81-15.044-29.638-17.864-15.391-2.3-25.769-7.914-31.98-15.369a225.22,225.22,0,0,1-4.5-30.8H438.8c1.748,8.954,7.414,24.427,25.8,28.827C481.467,1153.208,488.845,1162.077,491.6,1170.671Z" transform="translate(-376.379 -950.34)" fill="url(#linear-gradient-2)"/>
    <path id="Path_1486" data-name="Path 1486" d="M515.564,1134.077c-12.216-.387-15.99,9.8,6.081,16.328S533.356,1134.64,515.564,1134.077Z" transform="translate(-423.737 -957.883)" fill="#fff"/>
  </g>
  <g id="LEFT_FEET" data-name="LEFT FEET" transform="translate(159.942 273.959)">
    <path id="Path_1487" data-name="Path 1487" d="M485.1,1028.25l-8.558,33.106,13.062,2.7,11.711-32.656Z" transform="translate(-421.836 -839.057)" fill="#fff"/>
    <path id="Path_1488" data-name="Path 1488" d="M757.972,1138.088a1.151,1.151,0,0,1-.275-.031l-13.062-2.7a1.325,1.325,0,0,1-.874-.608,1.351,1.351,0,0,1-.162-1.049l8.558-33.106a1.351,1.351,0,0,1,1.567-.991l16.215,3.153a1.351,1.351,0,0,1,1.013,1.8l-11.711,32.656a1.352,1.352,0,0,1-1.27.878Zm-11.4-5.09,10.522,2.176,10.783-30.071-13.423-2.608Z" transform="translate(-690.205 -911.735)" fill="#262424"/>
    <path id="Path_1489" data-name="Path 1489" d="M628.11,1209.9v5.937h73.37s.239-3.1.45-8.31a405.984,405.984,0,0,0-.378-46.534l-23.422-3.757s-20.1,20.918-37.985,37.2c-1.86,1.694-3.815,3.338-5.856,4.9C630.349,1202.332,628.11,1206.044,628.11,1209.9Z" transform="translate(-626.759 -943.427)" fill="url(#linear-gradient-11)"/>
    <path id="Path_1490" data-name="Path 1490" d="M703.412,1201.327a1.351,1.351,0,0,1-.973-2.288c15.67-16.247,22.674-29.638,22.742-29.773a1.351,1.351,0,1,1,2.4,1.239c-.288.559-7.256,13.878-23.2,30.413A1.35,1.35,0,0,1,703.412,1201.327Z" transform="translate(-667.401 -949.615)" fill="#262424"/>
    <ellipse id="Ellipse_126" data-name="Ellipse 126" cx="6.513" cy="7.252" rx="6.513" ry="7.252" transform="translate(56.605 237.979)" fill="#fff"/>
    <path id="Path_1491" data-name="Path 1491" d="M755.639,1225.1c-4.342,0-7.869-3.86-7.869-8.6s3.527-8.6,7.869-8.6,7.865,3.86,7.865,8.6S759.977,1225.1,755.639,1225.1Zm0-14.5c-2.851,0-5.166,2.649-5.166,5.9s2.315,5.9,5.166,5.9,5.162-2.644,5.162-5.9S758.486,1210.592,755.639,1210.592Z" transform="translate(-692.521 -971.262)" fill="#262424"/>
    <path id="Path_1492" data-name="Path 1492" d="M628.11,1254.5v5.937h73.37s.239-3.1.45-8.31H663.194s-2.477-17.256-23.048-13.094c-1.86,1.694-3.815,3.338-5.856,4.9C630.349,1246.926,628.11,1250.637,628.11,1254.5Z" transform="translate(-626.759 -988.02)" fill="#fff"/>
    <path id="Path_1493" data-name="Path 1493" d="M699.831,1260.135h-73.37a1.351,1.351,0,0,1-1.351-1.351v-5.937c0-4.22,2.387-8.355,6.725-11.648,1.932-1.464,3.878-3.085,5.779-4.815a1.351,1.351,0,0,1,.64-.329c7.108-1.437,12.963-.581,17.4,2.55a18.561,18.561,0,0,1,7.013,10.517h37.642a1.352,1.352,0,0,1,1.351,1.41c-.225,5.176-.451,8.324-.451,8.356a1.351,1.351,0,0,1-1.378,1.248Zm-72.032-2.7h70.785c.077-1.158.194-3.081.311-5.608H661.572a1.351,1.351,0,0,1-1.351-1.158,16.16,16.16,0,0,0-6.166-9.873c-3.73-2.617-8.747-3.342-14.918-2.158-1.869,1.689-3.779,3.275-5.68,4.716-3.648,2.77-5.657,6.14-5.657,9.5Z" transform="translate(-625.11 -986.37)" fill="#262424"/>
    <path id="Path_1494" data-name="Path 1494" d="M955.964,707.188s-6.608,40.539-8.108,45.642-17.116,13.815-28.228,14.414-102.995,0-102.995,0L776.693,882.252l-35.133-7.806s19.657-87.135,29.129-125.246c2.468-9.909,4.243-16.522,4.8-17.391.658-1.022,8.473-3.153,19.9-5.855,35.422-8.265,105.616-21.481,105.616-21.481s11.409-21.922,32.431-21.922S958.364,692.775,955.964,707.188Z" transform="translate(-689.108 -682.55)" fill="url(#linear-gradient-3)"/>
    <path id="Path_1495" data-name="Path 1495" d="M822.563,800.355c-5.644,3.085-11.788,3.6-16.333,1.8,2.468-9.909,4.243-16.522,4.8-17.391.658-1.023,8.473-3.153,19.9-5.856a9.42,9.42,0,0,1,.959,1.428C835.359,786.68,831.179,795.616,822.563,800.355Z" transform="translate(-724.649 -735.507)" fill="#fff"/>
    <path id="Path_1496" data-name="Path 1496" d="M1153.005,773.948a1.022,1.022,0,0,1-.257-.032c-3.721-.869-6.306-2.8-7.734-5.729-3.351-6.964,1.351-17.044,1.568-17.472a1.127,1.127,0,1,1,2.036.968c-.045.095-4.459,9.545-1.572,15.531,1.117,2.315,3.153,3.793,6.216,4.5a1.126,1.126,0,0,1-.257,2.225Z" transform="translate(-910.175 -719.658)" fill="#262424"/>
    <path id="Path_1497" data-name="Path 1497" d="M798.185,902.072a1.223,1.223,0,0,1-.333-.05,1.126,1.126,0,0,1-.743-1.41L831.94,787.407a1.13,1.13,0,0,1,.991-.793l127.341-9.54,4.955-30.057a1.127,1.127,0,0,1,2.225.365l-5.112,30.931a1.131,1.131,0,0,1-1.027.941L833.841,788.8,799.284,901.275A1.126,1.126,0,0,1,798.185,902.072Z" transform="translate(-719.608 -717.46)" fill="#262424"/>
    <path id="Path_1498" data-name="Path 1498" d="M782.533,1095.687a1.207,1.207,0,0,1-.248-.027l-26.35-5.856a1.126,1.126,0,0,1,.491-2.2l26.35,5.856a1.126,1.126,0,0,1-.243,2.225Z" transform="translate(-696.524 -905.143)" fill="#262424"/>
  </g>
  <g id="RIGHT_FEET" data-name="RIGHT FEET" transform="translate(245.945 270.706)">
    <path id="Path_1499" data-name="Path 1499" d="M647.56,832.962l11.076,32.354,12.391-4.937-8.193-33.71Z" transform="translate(-601.826 -725.021)" fill="#fff"/>
    <path id="Path_1500" data-name="Path 1500" d="M927.007,939.342a1.383,1.383,0,0,1-.568-.122,1.35,1.35,0,0,1-.712-.788l-11.076-32.354a1.352,1.352,0,0,1,.766-1.685l15.274-6.306a1.351,1.351,0,0,1,1.8.928l8.2,33.714a1.351,1.351,0,0,1-.815,1.572l-12.391,4.955A1.39,1.39,0,0,1,927.007,939.342Zm-9.387-32.935,10.211,29.8,9.977-3.982-7.545-31.03Z" transform="translate(-870.197 -797.7)" fill="#262424"/>
    <path id="Path_1501" data-name="Path 1501" d="M895.1,1034.7l3.266,4.955,61.258-40.385s-1.5-2.7-4.184-7.207a404.665,404.665,0,0,0-25.927-38.642l-21.62,9.756s-5.275,28.526-11.261,51.961c-.622,2.432-1.351,4.883-2.207,7.32C892.8,1027.146,892.975,1031.479,895.1,1034.7Z" transform="translate(-858.524 -828.16)" fill="url(#linear-gradient-13)"/>
    <path id="Path_1502" data-name="Path 1502" d="M940.161,1015.261a1.533,1.533,0,0,1-.248-.023,1.351,1.351,0,0,1-1.081-1.576c4.139-22.193,2.617-37.228,2.6-37.385a1.359,1.359,0,1,1,2.7-.288c.068.626,1.581,15.58-2.63,38.16A1.351,1.351,0,0,1,940.161,1015.261Z" transform="translate(-883.512 -839.895)" fill="#262424"/>
    <ellipse id="Ellipse_127" data-name="Ellipse 127" cx="6.513" cy="7.252" rx="6.513" ry="7.252" transform="translate(67.024 152.349) rotate(-33.39)" fill="#fff"/>
    <path id="Path_1503" data-name="Path 1503" d="M976.581,1017.167a8.031,8.031,0,0,1-2.045-.27,9.009,9.009,0,0,1-5.2-3.793h0a9.008,9.008,0,0,1-1.441-6.279,7.409,7.409,0,0,1,9.378-6.171,9.188,9.188,0,0,1,6.639,10.072,7.517,7.517,0,0,1-3.27,5.243A7.346,7.346,0,0,1,976.581,1017.167Zm-1.351-14.08a4.639,4.639,0,0,0-2.576.761,4.824,4.824,0,0,0-2.085,3.378,6.306,6.306,0,0,0,1.023,4.387h0a6.305,6.305,0,0,0,3.631,2.671,4.707,4.707,0,0,0,6.013-3.964,6.5,6.5,0,0,0-4.648-7.058A5.439,5.439,0,0,0,975.23,1003.086Z" transform="translate(-899.448 -853.962)" fill="#262424"/>
    <path id="Path_1504" data-name="Path 1504" d="M895.1,1081.847l3.266,4.955,61.258-40.385s-1.5-2.7-4.185-7.207L923.1,1060.533s-11.567-13.062-26.449,1.752c-.622,2.433-1.351,4.883-2.207,7.32C892.807,1074.294,892.978,1078.627,895.1,1081.847Z" transform="translate(-858.527 -875.308)" fill="#fff"/>
    <path id="Path_1505" data-name="Path 1505" d="M896.731,1086.527a1.385,1.385,0,0,1-.27-.027,1.351,1.351,0,0,1-.856-.581l-3.27-4.955c-2.32-3.522-2.6-8.288-.793-13.423.806-2.284,1.536-4.707,2.171-7.207a1.428,1.428,0,0,1,.356-.626c5.139-5.108,10.513-7.626,15.95-7.45a18.578,18.578,0,0,1,11.644,4.923l31.431-20.72a1.351,1.351,0,0,1,1.905.451c2.657,4.446,4.189,7.207,4.2,7.234a1.351,1.351,0,0,1-.45,1.8l-61.258,40.385A1.349,1.349,0,0,1,896.731,1086.527Zm-.491-25.17c-.635,2.446-1.351,4.824-2.149,7.072-1.522,4.315-1.351,8.234.5,11.035h0l2.527,3.829,59.087-38.948c-.572-1.009-1.532-2.675-2.824-4.851l-31.165,20.54a1.352,1.352,0,0,1-1.752-.23,16.215,16.215,0,0,0-10.581-4.851C905.343,1054.835,900.74,1056.984,896.24,1061.357Z" transform="translate(-856.888 -873.677)" fill="#262424"/>
    <path id="Path_1506" data-name="Path 1506" d="M873.76,714l12.558,64.934-30.913,10.513s-29.553-53.529-37.44-77.816c-1.288-3.95-2-7.13-1.914-9.175.6-14.621,15.013-27.422,23.719-27.12a20.677,20.677,0,0,1,3.081.482c17.432,3.639,87.707,26.845,87.707,26.845Z" transform="translate(-816.045 -675.328)" fill="url(#linear-gradient-3)"/>
    <path id="Path_1507" data-name="Path 1507" d="M866.637,822.826a1.13,1.13,0,0,1-.986-.581c-.176-.315-17.513-31.773-29.057-57.141a1.126,1.126,0,1,1,2.049-.932c10.463,22.972,25.71,51.02,28.526,56.159l29.089-9.909L883.884,746.46a1.126,1.126,0,0,1,.9-1.315l55.637-11.1a1.126,1.126,0,1,1,.45,2.207l-54.565,10.887,12.346,63.835a1.131,1.131,0,0,1-.743,1.284L867,822.745a1.126,1.126,0,0,1-.36.081Z" transform="translate(-827.276 -707.583)" fill="url(#linear-gradient-15)"/>
    <path id="Path_1508" data-name="Path 1508" d="M835.119,706c-7.306,6.346-14.161,4.716-17.995,2.86a22.6,22.6,0,0,1-1.072-6.41c.6-14.621,15.013-27.422,23.719-27.12a20.683,20.683,0,0,1,3.081.482.633.633,0,0,0,.022.135C843.141,677.734,845.7,696.8,835.119,706Z" transform="translate(-816.045 -675.328)" fill="#fff"/>
    <path id="Path_1509" data-name="Path 1509" d="M902.349,897.831a1.126,1.126,0,0,1-.356-2.194l25.071-8.41a1.126,1.126,0,1,1,.716,2.135l-25.071,8.409A1.119,1.119,0,0,1,902.349,897.831Z" transform="translate(-862.858 -791.75)" fill="#262424"/>
    <path id="Path_1510" data-name="Path 1510" d="M923.793,801.724a1.13,1.13,0,0,1-1.113-.95l-11.108-69.965a1.126,1.126,0,0,1,1.477-1.243L942.188,739.6a1.126,1.126,0,1,1-.734,2.126L914.091,732.3l10.81,68.118a1.126,1.126,0,0,1-.937,1.288A1.148,1.148,0,0,1,923.793,801.724Z" transform="translate(-868.536 -705.102)" fill="#262424"/>
    <path id="Path_1511" data-name="Path 1511" d="M921.219,740.025a1.122,1.122,0,0,1-.784-.32L902.7,722.53a1.126,1.126,0,0,1,1.563-1.617L922,738.088a1.126,1.126,0,0,1-.784,1.937Z" transform="translate(-863.503 -700.229)" fill="#262424"/>
  </g>
  <g id="RIGHT_ARM" data-name="RIGHT ARM" transform="translate(230.887 88.515)">
    <path id="Path_1512" data-name="Path 1512" d="M787.056,274.367h0a2.279,2.279,0,0,0-.54,2.851l11.752,21.472a1.9,1.9,0,0,1-.608,2.486h0a1.9,1.9,0,0,1-2.73-.685l-3.693-7.022a2.987,2.987,0,0,0-3.315-1.518h0a2.987,2.987,0,0,0-2.306,3.067l.622,11.328a14.387,14.387,0,0,0,4.167,9.378l3.09,3.112,1.2,8.229,14.022,3.405-.045-11.351,4.139-16.666a7.572,7.572,0,0,0-1.986-7.175l-20.693-20.747A2.279,2.279,0,0,0,787.056,274.367Z" transform="translate(-784.261 -272.495)" fill="#fff"/>
    <path id="Path_1513" data-name="Path 1513" d="M792.464,326.65a1.352,1.352,0,0,1-.752-1.022l-1.14-7.8-2.779-2.793a15.765,15.765,0,0,1-4.554-10.261l-.617-11.337a4.333,4.333,0,0,1,8.162-2.252l3.716,7.022a.527.527,0,0,0,.347.275.54.54,0,0,0,.608-.784L783.69,276.233a3.639,3.639,0,0,1,.86-4.54h0a3.6,3.6,0,0,1,4.9.23l20.693,20.747a8.968,8.968,0,0,1,2.347,8.455l-4.1,16.522.045,11.18a1.351,1.351,0,0,1-1.671,1.32l-14.026-3.378a1.435,1.435,0,0,1-.266-.117Zm-4.81-34.917a1.626,1.626,0,0,0-2.333,1.558l.622,11.333a13.062,13.062,0,0,0,3.779,8.5l3.09,3.108a1.351,1.351,0,0,1,.378.757l1.076,7.342,11.459,2.779-.04-9.626a1.354,1.354,0,0,1,.04-.329l4.14-16.666a6.261,6.261,0,0,0-1.631-5.9l-20.72-20.751a.928.928,0,0,0-1.252-.059h0a.932.932,0,0,0-.221,1.167l11.752,21.458a3.232,3.232,0,1,1-5.7,3.045l-3.7-7.027A1.6,1.6,0,0,0,787.653,291.733Zm-2.252-19Z" transform="translate(-782.616 -270.843)" fill="#262424"/>
    <path id="Path_1514" data-name="Path 1514" d="M893.181,386.993l-2.027,53.15S857.769,449.6,833.8,454.967q-1.595.356-3.126.689a22.751,22.751,0,0,1-26.521-15.184c-7.243-22.283-10.86-51.114-10.86-51.114s11.157-7.77,25.346-5.518l14.864,27.7Z" transform="translate(-788.482 -332.718)" fill="url(#linear-gradient-16)"/>
    <path id="Path_1515" data-name="Path 1515" d="M849.147,524.347q-1.595.356-3.126.689a22.819,22.819,0,0,1-24.8-11.22,16.972,16.972,0,0,1,27.926,10.531Z" transform="translate(-803.832 -402.097)" fill="#fff"/>
    <path id="Path_1516" data-name="Path 1516" d="M869.683,471.635a.946.946,0,0,1-.252-.032,1.121,1.121,0,0,1-.847-1.351l4.5-19.594a1.126,1.126,0,1,1,2.194.5l-4.5,19.594a1.126,1.126,0,0,1-1.094.878Z" transform="translate(-829.845 -369.164)" fill="#262424"/>
    <path id="Path_1517" data-name="Path 1517" d="M804.516,414.184a1.126,1.126,0,0,1-.5-2.135,61.013,61.013,0,0,1,22.823-5.229,1.127,1.127,0,1,1,.081,2.252,59.629,59.629,0,0,0-21.9,5,1.171,1.171,0,0,1-.5.113Z" transform="translate(-794.033 -345.571)" fill="#262424"/>
    <circle id="Ellipse_128" data-name="Ellipse 128" cx="2.928" cy="2.928" r="2.928" transform="translate(9.209 56.518)" fill="#262424"/>
    <path id="Path_1518" data-name="Path 1518" d="M804.329,401.878a4.279,4.279,0,1,1,4.279-4.279A4.279,4.279,0,0,1,804.329,401.878Zm0-5.856a1.577,1.577,0,1,0,1.576,1.576A1.577,1.577,0,0,0,804.329,396.023Z" transform="translate(-792.197 -338.153)" fill="#262424"/>
  </g>
  <g id="BODY" transform="translate(308.732 118.199)">
    <path id="Path_1519" data-name="Path 1519" d="M1091.523,387.628s-34.233-22.747-59.456-22.3-49.772,11.711-49.772,11.711C961.8,419.834,955.44,515.59,955.44,515.59s11.261,3.878,43.151,13.891A241.69,241.69,0,0,0,1053.2,544l3.2-19.071a2.77,2.77,0,0,1,3.076-2.288h0a2.766,2.766,0,0,1,2.4,3.113l-2.518,19.021a111.129,111.129,0,0,0,17.783.77C1092.005,492.844,1091.523,387.628,1091.523,387.628Z" transform="translate(-955.44 -352.452)" fill="url(#linear-gradient-2)"/>
    <path id="Path_1520" data-name="Path 1520" d="M978.856,447.387a1.265,1.265,0,0,1-.221-.023,1.126,1.126,0,0,1-.9-1.324c4.207-21.229,9.067-38.165,14.45-50.34a1.126,1.126,0,1,1,2.058.9c-5.315,12.026-10.126,28.8-14.3,49.871A1.122,1.122,0,0,1,978.856,447.387Z" transform="translate(-967.681 -368.736)" fill="#262424"/>
    <path id="Path_1521" data-name="Path 1521" d="M1129.023,363.481a29.111,29.111,0,0,1-18.887,15.873,108.264,108.264,0,0,0-4.59-17.116,43.9,43.9,0,0,0-7.5,16.666c-13.445-4.166-14.571-17.26-14.571-17.26,2.081-13.013,13.634-22.485,23.269-21.85C1128.041,341.185,1129.023,363.481,1129.023,363.481Z" transform="translate(-1025.807 -338.404)" fill="#fff"/>
    <path id="Path_1522" data-name="Path 1522" d="M1108.484,379.047a1.351,1.351,0,0,1-1.338-1.153,96.835,96.835,0,0,0-3.68-14.382,44.086,44.086,0,0,0-5.743,13.963,1.351,1.351,0,0,1-1.725,1.036c-14.148-4.383-15.5-18.292-15.513-18.432a1.15,1.15,0,0,1,0-.329c2.293-14.36,14.864-23.638,24.692-22.972,11.635.775,17.427,7.563,20.238,13.125a32.087,32.087,0,0,1,3.3,11.873,1.376,1.376,0,0,1-.126.631,30.6,30.6,0,0,1-19.751,16.6A1.394,1.394,0,0,1,1108.484,379.047Zm-4.594-19.819a1.087,1.087,0,0,1,.212,0,1.351,1.351,0,0,1,1.063.874,114.4,114.4,0,0,1,4.4,15.837A27.778,27.778,0,0,0,1126,361.525c-.212-2.766-2.306-20.855-20.994-22.093-8.626-.572-19.733,8.081-21.814,20.539a19.316,19.316,0,0,0,12.215,15.45,45.379,45.379,0,0,1,7.419-15.706,1.351,1.351,0,0,1,1.063-.491Z" transform="translate(-1024.155 -336.745)" fill="#262424"/>
  </g>
  <g id="LEFT_ARM" data-name="LEFT ARM" transform="translate(344.134 153.344)">
    <path id="Path_1523" data-name="Path 1523" d="M1197.811,472.528c-.068,18.468-.612,42.124-4.392,57.93-2.4,10-6.081,16.855-11.761,17.229a35.079,35.079,0,0,1-14.517-2.518c-21.089-7.941-45.737-33.638-48.2-38.737-3.04-6.274,1.8-22.233,9.234-23.422s28.828,10.81,28.828,10.81,9.774-51.281,12.058-61.758,11.815-17.292,11.815-17.292C1194.343,420.828,1197.923,442.44,1197.811,472.528Z" transform="translate(-1080.194 -414.77)" fill="url(#linear-gradient-18)"/>
    <circle id="Ellipse_129" data-name="Ellipse 129" cx="1.788" cy="1.788" r="1.788" transform="translate(46.792 91.698)" fill="#262424"/>
    <path id="Path_1524" data-name="Path 1524" d="M1138.553,621.727a2.7,2.7,0,1,1,.522-.049A2.967,2.967,0,0,1,1138.553,621.727Zm0-3.572a1.116,1.116,0,0,0-.171,0,.874.874,0,0,0-.685,1.018.86.86,0,0,0,.369.554.847.847,0,0,0,.649.131.863.863,0,0,0,.685-1.018h0a.822.822,0,0,0-.842-.685Z" transform="translate(-1089.973 -525.533)" fill="#262424"/>
    <path id="Path_1525" data-name="Path 1525" d="M1163.595,547.767a1.349,1.349,0,0,1-.522-.108c-20.4-8.558-44.34-33.089-47.025-38.633-2.288-4.725-.617-12.851,2.117-18.1,2.18-4.185,5.063-6.756,8.108-7.243,6.721-1.077,22.638,7.126,28.062,10.063,1.765-9.247,9.707-50.714,11.711-59.965,1.446-6.626,5.59-11.828,8.81-15.026a1.352,1.352,0,0,1,1.905,1.919c-2.964,2.941-6.756,7.7-8.076,13.684-2.252,10.36-11.955,61.209-12.053,61.709a1.351,1.351,0,0,1-1.987.923c-5.833-3.275-22.233-11.567-27.953-10.653-2.189.351-4.369,2.419-6.148,5.829-2.766,5.306-3.7,12.333-2.081,15.67,2.13,4.405,24.841,28.571,45.642,37.323a1.351,1.351,0,0,1-.527,2.6Z" transform="translate(-1078.516 -416.742)" fill="#262424"/>
    <path id="Path_1526" data-name="Path 1526" d="M1150.567,599.5a1.351,1.351,0,0,1-.969-2.3c10.684-10.959,4.437-27.526,4.374-27.692a1.353,1.353,0,1,1,2.522-.977c.284.748,6.923,18.364-4.955,30.557a1.352,1.352,0,0,1-.973.41Z" transform="translate(-1097.334 -498.8)" fill="#262424"/>
    <path id="Path_1527" data-name="Path 1527" d="M1228.926,608.114a1.351,1.351,0,0,1-1.122-.6h0a31.814,31.814,0,0,0-15.765-11.036,1.351,1.351,0,0,1,.406-2.639c.45,0,10.752.045,19.368,4.018a1.352,1.352,0,1,1-1.135,2.455,41.123,41.123,0,0,0-10.247-3,32.776,32.776,0,0,1,9.644,8.7,1.352,1.352,0,0,1-1.149,2.1Z" transform="translate(-1131.344 -513.182)" fill="#262424"/>
    <path id="Path_1528" data-name="Path 1528" d="M1253.041,666.726c-2.4,10-6.081,16.855-11.761,17.229a35.077,35.077,0,0,1-14.517-2.518,15.932,15.932,0,0,1,26.278-14.711Z" transform="translate(-1139.816 -551.02)" fill="#fff"/>
    <rect id="Rectangle_45" data-name="Rectangle 45" width="34.832" height="57.353" rx="5.83" transform="translate(0.895 36.577) rotate(-11.1)" fill="#fff"/>
    <path id="Path_1529" data-name="Path 1529" d="M1048.038,543.874a3.977,3.977,0,0,1-3.9-3.212l-10.031-51.128a3.982,3.982,0,0,1,3.153-4.666l29.026-5.7a3.986,3.986,0,0,1,4.671,3.153l10.026,51.124a3.977,3.977,0,0,1-3.153,4.671l-29.026,5.693A3.763,3.763,0,0,1,1048.038,543.874Zm19-62.073a1.57,1.57,0,0,0-.248,0l-29.026,5.693a1.284,1.284,0,0,0-.811.541,1.269,1.269,0,0,0-.194.959l10.031,51.124a1.275,1.275,0,0,0,1.5,1.009l29.026-5.7h0a1.279,1.279,0,0,0,1.009-1.5l-10.031-51.124a1.279,1.279,0,0,0-1.252-1.009Z" transform="translate(-1034.037 -450.122)" fill="#262424"/>
    <circle id="Ellipse_130" data-name="Ellipse 130" cx="2.626" cy="2.626" r="2.626" transform="translate(7.186 40.003)" fill="#fff"/>
    <path id="Path_1530" data-name="Path 1530" d="M1050.945,508.533a3.982,3.982,0,1,1,3.91-4.748h0a3.986,3.986,0,0,1-3.153,4.671A4.057,4.057,0,0,1,1050.945,508.533Zm0-5.257a1.537,1.537,0,0,0-.248.023,1.235,1.235,0,1,0,.973.194,1.248,1.248,0,0,0-.716-.216Z" transform="translate(-1041.142 -461.923)" fill="#262424"/>
    <path id="Path_1531" data-name="Path 1531" d="M1081.165,532.11c-4.64,1.351-4.167,8.445,1.576,8.445s22.747-1.013,20.269-7.882S1090.385,529.407,1081.165,532.11Z" transform="translate(-1058.21 -477.392)" fill="#fff"/>
    <path id="Path_1532" data-name="Path 1532" d="M1081.06,540.286a5.662,5.662,0,0,1-1.959-11.094h0c.662-.189,1.324-.387,1.991-.585,8.8-2.622,18.774-5.59,21.5,1.991a4.585,4.585,0,0,1-.514,4.365C1098.527,540.029,1083.947,540.286,1081.06,540.286Zm-1.194-8.5a2.946,2.946,0,0,0-2.144,3.293c.176,1.212,1.144,2.5,3.338,2.5,6.383,0,16.666-1.108,18.814-4.175a1.9,1.9,0,0,0,.185-1.9c-1.734-4.8-8.63-3.153-18.193-.315l-2,.59Z" transform="translate(-1056.542 -475.771)" fill="#262424"/>
    <path id="Path_1533" data-name="Path 1533" d="M1086.572,549.746c-4.468,1.8-4.392,9.459-2.027,17.679s8.22,12.162,16.441,10.135,13.062-6.756,10.472-18.355S1105.364,542.2,1086.572,549.746Z" transform="translate(-1060.915 -487.033)" fill="#fff"/>
    <path id="Path_1534" data-name="Path 1534" d="M1095.229,577.783c-6.572,0-11.553-4.13-13.711-11.63-2.977-10.36-1.95-17.391,2.824-19.305h0c9.495-3.811,15.562-4.545,19.67-2.383,3.941,2.076,5.617,6.437,7.036,12.8,2.473,11.08-1.171,17.423-11.468,19.963A18.36,18.36,0,0,1,1095.229,577.783Zm-9.882-28.427c-3.185,1.279-3.671,7.576-1.23,16.049,2.225,7.738,7.482,11,14.815,9.2,8.783-2.167,11.617-7.175,9.459-16.747-1.252-5.612-2.635-9.409-5.657-11-3.293-1.739-8.824-.941-17.4,2.5Z" transform="translate(-1059.211 -485.386)" fill="#262424"/>
  </g>
  <g id="NECK" transform="translate(377.604 92.278)">
    <path id="Path_1535" data-name="Path 1535" d="M1135.393,282.2l-.784,13.094-1.306,22.4c-7.711,5.027-15.062,5.347-21.963-.2l1.374-10.36,2.076-15.724Z" transform="translate(-1109.99 -280.848)" fill="#fff"/>
    <path id="Path_1536" data-name="Path 1536" d="M1120.3,321.26a18.041,18.041,0,0,1-11.454-4.36,1.352,1.352,0,0,1-.491-1.23l3.45-26.1a1.352,1.352,0,0,1,.788-1.054l20.6-9.2a1.347,1.347,0,0,1,1.9,1.315l-2.085,35.489a1.351,1.351,0,0,1-.613,1.054C1128.215,319.9,1124.175,321.26,1120.3,321.26Zm-9.166-6c5.856,4.4,12.161,4.4,19.215,0l1.914-32.584-17.877,7.982Z" transform="translate(-1108.344 -279.198)" fill="#262424"/>
    <path id="Path_1537" data-name="Path 1537" d="M1128.98,289.25c-.293,5.919-.4,26.093-16.359,27.76l2.874-21.742Z" transform="translate(-1110.694 -284.723)" fill="#262424"/>
  </g>
  <g id="HEAD" transform="translate(355.009 52.314)">
    <path id="Path_1538" data-name="Path 1538" d="M1075.757,249.178c1.085,10.788,4.216,23.688,17.157,21.679,15.387-2.387,25.332-13.261,25.476-27.9s-6.608-22.9-24.138-21.22a26.848,26.848,0,0,0-4.419.784c-10.085,2.7-15.161,11.081-14.535,20.891C1075.414,245.182,1075.545,247.146,1075.757,249.178Z" transform="translate(-1067.558 -207.537)" fill="#fff"/>
    <path id="Path_1539" data-name="Path 1539" d="M1088.689,271.038a12.52,12.52,0,0,1-8.076-2.7c-6.45-5.175-7.657-16.242-8.311-26.206a21.651,21.651,0,0,1,4.635-15.5c3.6-4.351,8.968-6.982,15.535-7.608a1.357,1.357,0,1,1,.257,2.7c-11.486,1.1-18.467,9.045-17.729,20.242.45,6.783,1.243,19.409,7.306,24.274,2.306,1.856,5.171,2.482,8.752,1.928a30.945,30.945,0,0,0,14.684-6.153,1.351,1.351,0,0,1,1.68,2.113,33.94,33.94,0,0,1-15.95,6.711A18.165,18.165,0,0,1,1088.689,271.038Z" transform="translate(-1065.91 -206.159)" fill="#262424"/>
    <path id="Path_1540" data-name="Path 1540" d="M1113.587,228.645a45.123,45.123,0,0,1-4.955,6.013l-7.761.482-1.653-5.5s-4.923-.216-5.941-3.54c-.026-.077-.049-.155-.068-.234a42.88,42.88,0,0,1-.532-13.486s-11.837,5.225-18.278,5.9c-2.32.248-5.027-.644-7.545-1.887-5.04-2.5-9.459-10.711-8.558-16.265a.84.84,0,0,1,0-.108c1.383-8.144,5.626-2.5,5.626-2.5s1.216-6.558,5.319-7.027,6.725,5.585,6.725,5.585a64.691,64.691,0,0,1,24.053-1c15.873,2.428,11.923,13.364,11.923,13.364S1123.6,212.191,1113.587,228.645Z" transform="translate(-1058.179 -190.473)" fill="#262424"/>
    <path id="Path_1541" data-name="Path 1541" d="M1156.577,272.442a11.277,11.277,0,0,1,9.743-12.5,10.3,10.3,0,0,1,3.873.279c7.572,2.045,5.585,19.684-12.954,18.337Z" transform="translate(-1112.219 -228.612)" fill="#fff"/>
    <path id="Path_1542" data-name="Path 1542" d="M1157.506,278.323c-.658,0-1.351-.027-2.036-.077a1.355,1.355,0,0,1,.2-2.7c10.184.743,14.725-4.45,15.517-9.121.541-3.189-.73-5.95-3.018-6.567a9.009,9.009,0,0,0-3.36-.239,9.919,9.919,0,0,0-8.558,11.013,1.359,1.359,0,0,1-2.7.293,12.633,12.633,0,0,1,10.937-13.99,11.683,11.683,0,0,1,4.378.315c3.662.991,5.752,5.036,4.955,9.626C1172.857,272.738,1167.434,278.323,1157.506,278.323Z" transform="translate(-1110.549 -226.953)" fill="#262424"/>
  </g>
  <g id="GROUND" transform="translate(33.746 545.022)">
    <line id="Line_39" data-name="Line 39" x2="399.98" transform="translate(34.669 1.351)" fill="#fff"/>
    <path id="Path_1543" data-name="Path 1543" d="M820.241,1287.043H420.261a1.351,1.351,0,0,1,0-2.7h399.98a1.351,1.351,0,0,1,0,2.7Z" transform="translate(-385.592 -1284.34)" fill="#262424"/>
    <line id="Line_40" data-name="Line 40" x1="21.197" transform="translate(1.351 1.351)" fill="#fff"/>
    <path id="Path_1544" data-name="Path 1544" d="M367.488,1287.043h-21.2a1.351,1.351,0,0,1,0-2.7h21.2a1.351,1.351,0,0,1,0,2.7Z" transform="translate(-344.94 -1284.34)" fill="#262424"/>
    <line id="Line_41" data-name="Line 41" x1="10.599" transform="translate(443.694 1.351)" fill="#fff"/>
    <path id="Path_1545" data-name="Path 1545" d="M1338.941,1287.043h-10.59a1.351,1.351,0,0,1,0-2.7h10.6a1.351,1.351,0,0,1,0,2.7Z" transform="translate(-884.653 -1284.34)" fill="#262424"/>
    <line id="Line_42" data-name="Line 42" x2="179.865" transform="translate(144.727 18.616)" fill="#fff"/>
    <path id="Path_1546" data-name="Path 1546" d="M844.466,1325.373H664.6a1.351,1.351,0,0,1,0-2.7H844.466a1.351,1.351,0,0,1,0,2.7Z" transform="translate(-519.874 -1305.405)" fill="#262424"/>
    <line id="Line_43" data-name="Line 43" x2="37.831" transform="translate(84.023 18.616)" fill="#fff"/>
    <path id="Path_1547" data-name="Path 1547" d="M567.657,1325.373H529.821a1.351,1.351,0,0,1,0-2.7h37.836a1.351,1.351,0,0,1,0,2.7Z" transform="translate(-445.803 -1305.405)" fill="#262424"/>
    <line id="Line_44" data-name="Line 44" x2="12.436" transform="translate(351.478 18.616)" fill="#fff"/>
    <path id="Path_1548" data-name="Path 1548" d="M1136.047,1325.373h-12.436a1.351,1.351,0,0,1,0-2.7h12.436a1.351,1.351,0,1,1,0,2.7Z" transform="translate(-772.133 -1305.405)" fill="#262424"/>
  </g>
  <g id="E_BOOK" data-name="E BOOK" transform="translate(15.275 16.923)">
    <path id="Path_1549" data-name="Path 1549" d="M513.967,393.252H357.218a8.153,8.153,0,0,1-7.81-6.635L307.068,121.54a5.557,5.557,0,0,1,5.689-6.63H469.506a8.157,8.157,0,0,1,7.81,6.63l42.34,265.077A5.558,5.558,0,0,1,513.967,393.252Z" transform="translate(-305.609 -113.555)" fill="#fff"/>
    <path id="Path_1550" data-name="Path 1550" d="M512.29,392.949H355.541a9.566,9.566,0,0,1-9.148-7.77L304.052,120.1a6.91,6.91,0,0,1,7.027-8.193H467.828a9.565,9.565,0,0,1,9.144,7.77l42.34,265.077a6.91,6.91,0,0,1-7.027,8.2ZM311.083,114.608a4.423,4.423,0,0,0-3.446,1.477,4.36,4.36,0,0,0-.9,3.6l42.34,265.077a6.756,6.756,0,0,0,6.477,5.5H512.3a4.423,4.423,0,0,0,3.446-1.482,4.356,4.356,0,0,0,.9-3.6l-42.34-265.081a6.756,6.756,0,0,0-6.473-5.491Z" transform="translate(-303.931 -111.901)" fill="#262424"/>
    <path id="Path_1551" data-name="Path 1551" d="M236.632,238.259H66.38L45.16,105.41H215.413Z" transform="translate(-40.093 -74.853)" fill="#fff"/>
    <path id="Path_1552" data-name="Path 1552" d="M504.968,312.292H334.706a1.351,1.351,0,0,1-1.351-1.14L312.14,178.3a1.351,1.351,0,0,1,1.351-1.563H483.753a1.351,1.351,0,0,1,1.351,1.14l21.22,132.849a1.351,1.351,0,0,1-1.351,1.563Zm-169.1-2.7H503.387L482.6,179.442H315.085Z" transform="translate(-308.433 -147.535)" fill="#262424"/>
    <path id="Path_1553" data-name="Path 1553" d="M349.792,146.017H339.22a2.027,2.027,0,0,1-1.856-1.351l-2.95-8.45a1.392,1.392,0,0,1,1.329-1.937h13.779a1.986,1.986,0,0,1,1.95,1.937l-.257,8.45a1.351,1.351,0,0,1-1.423,1.351Z" transform="translate(-320.622 -124.199)" fill="url(#linear-gradient-19)"/>
    <path id="Path_1554" data-name="Path 1554" d="M639.947,137.849H627.222a2.18,2.18,0,0,1-2.085-1.77h0a1.486,1.486,0,0,1,1.518-1.77h12.725a2.175,2.175,0,0,1,2.086,1.77h0a1.482,1.482,0,0,1-1.518,1.77Z" transform="translate(-480.441 -124.215)" fill="url(#linear-gradient-20)"/>
    <path id="Path_1555" data-name="Path 1555" d="M642.869,156.019H630.122a2.18,2.18,0,0,1-2.085-1.77h0a1.486,1.486,0,0,1,1.522-1.77h12.725a2.171,2.171,0,0,1,2.081,1.77h0a1.482,1.482,0,0,1-1.5,1.77Z" transform="translate(-482.035 -134.2)" fill="url(#linear-gradient-21)"/>
  </g>
  <g id="FEMALE" transform="translate(7.684 50.916)">
    <g id="Group_853" data-name="Group 853" clip-path="url(#clip-path)">
      <path id="Path_1556" data-name="Path 1556" d="M483.1,304.477c17.45-.761,18.792-8.973,15.346-21.328,2.608-4.054,5.585-8.973,2.937-18.233-2.473-8.639-18.3-18.373-30.323-7.328h0c-.275.077-9.135,2.658-9.3,19.2C461.6,293.6,463.466,305.337,483.1,304.477Z" transform="translate(-383.078 -223.246)" fill="#262424"/>
      <path id="Path_1557" data-name="Path 1557" d="M547.092,398.239c2.252,8.806,4.671,18.468,8.427,26.634,4.793,7.765,15.418,19.841,22.715,18.513,9.5-1.73,3.306-25.224,1.8-30.814-.068-.261-9.626-16.639-14.243-29.494a27.9,27.9,0,0,0-15.909-16.607S541.984,378.28,547.092,398.239Z" transform="translate(-429.031 -285.798)" fill="url(#linear-gradient-22)"/>
      <path id="Path_1558" data-name="Path 1558" d="M421.143,365.754s17.882-12.567,55.966-3.428c0,0,14.17,18.639,14.729,37.647.144,4.8-2.6,13.738-2.536,19.278a324.161,324.161,0,0,0,3.716,44.232L413.8,466.042S409.221,420.841,421.143,365.754Z" transform="translate(-356.246 -281.691)" fill="url(#linear-gradient-23)"/>
      <path id="Path_1559" data-name="Path 1559" d="M568.955,431.609h0a.658.658,0,0,0,.644-.685c-.059-1.833-.1-3.657-.122-5.405a57.3,57.3,0,0,1,1.315-9.941,50.285,50.285,0,0,0,1.225-9.351c-.45-15.1-9.364-29.944-13.175-35.624a.667.667,0,0,0-1.1.743c3.748,5.581,12.513,20.161,12.95,34.922a49.488,49.488,0,0,1-1.2,9.063,59.11,59.11,0,0,0-1.351,10.2c0,1.775.063,3.6.122,5.455A.667.667,0,0,0,568.955,431.609Z" transform="translate(-435.777 -287.927)" fill="url(#linear-gradient-24)"/>
      <path id="Path_1560" data-name="Path 1560" d="M421.659,582.2h0l70.587-1.64a.676.676,0,0,0-.027-1.351l-70.573,1.662a.676.676,0,1,0,0,1.351Z" transform="translate(-360.662 -402.714)" fill="url(#linear-gradient-25)"/>
      <path id="Path_1561" data-name="Path 1561" d="M476.61,349.551a17.365,17.365,0,0,0,10.959,9.828,63.6,63.6,0,0,1,3.067-10.121,26.325,26.325,0,0,1,4.148,10.072,12.389,12.389,0,0,0,9.008-10.008c-.991-7.8-7.7-13.67-13.454-13.477C477.628,336.277,476.61,349.551,476.61,349.551Z" transform="translate(-391.24 -268.965)" fill="url(#linear-gradient-26)"/>
      <path id="Path_1562" data-name="Path 1562" d="M486.562,359.205A18.107,18.107,0,0,1,475.193,349a.721.721,0,0,1-.054-.311c0-.14,1.216-13.873,14.378-14.319,5.815-.212,13.062,5.527,14.134,14.053a.49.49,0,0,1,0,.162,13.188,13.188,0,0,1-9.5,10.572.662.662,0,0,1-.833-.536,26.384,26.384,0,0,0-3.329-8.738,58.983,58.983,0,0,0-2.576,8.806.676.676,0,0,1-.653.545A.73.73,0,0,1,486.562,359.205Zm3.8-11.144a26.813,26.813,0,0,1,4.126,9.608,11.657,11.657,0,0,0,7.833-9.157c-1-7.554-7.545-12.959-12.761-12.81-11.373.383-12.923,11.4-13.062,12.932a16.706,16.706,0,0,0,9.77,9.063,67.123,67.123,0,0,1,2.959-9.491.667.667,0,0,1,.532-.414h.086A.658.658,0,0,1,490.363,348.062Z" transform="translate(-390.432 -268.156)" fill="url(#linear-gradient-27)"/>
      <path id="Path_1563" data-name="Path 1563" d="M490.57,301l.212,7.819.351,13.382c4.5,3.153,8.878,3.477,13.1.306l-.617-6.216-.937-9.436Z" transform="translate(-398.912 -249.818)" fill="#fff"/>
      <path id="Path_1564" data-name="Path 1564" d="M489.956,321.891a.667.667,0,0,1-.279-.527l-.577-21.2a.667.667,0,0,1,.955-.617l12.108,5.878a.667.667,0,0,1,.369.531l1.554,15.63a.667.667,0,0,1-.261.6,10.729,10.729,0,0,1-6.509,2.351A12.922,12.922,0,0,1,489.956,321.891Zm11.292-15.418-10.81-5.239L490.96,321c4.221,2.842,8.072,2.955,11.747.351Z" transform="translate(-398.104 -248.985)" fill="#262424"/>
      <path id="Path_1565" data-name="Path 1565" d="M509.17,284.584c-.45,6.455-2.031,14.211-9.788,13.279-9.22-1.113-15.373-7.391-15.765-16.116s3.473-13.788,13.963-13.143a15.563,15.563,0,0,1,2.649.378c6.072,1.414,9.265,6.306,9.09,12.162C509.292,282.2,509.256,283.368,509.17,284.584Z" transform="translate(-395.077 -231.983)" fill="#fff"/>
      <path id="Path_1566" data-name="Path 1566" d="M507.464,298.308a7.455,7.455,0,0,0,4.905-1.667c3.32-2.752,4.054-8.342,4.315-12.306.086-1.23.126-2.387.158-3.473.194-6.482-3.486-11.4-9.6-12.824a.667.667,0,1,0-.3,1.3c5.464,1.27,8.747,5.675,8.558,11.486-.032,1.072-.072,2.216-.153,3.423-.248,3.721-.9,8.945-3.842,11.373a6.513,6.513,0,0,1-5.2,1.288,18.679,18.679,0,0,1-9.171-3.563.663.663,0,1,0-.811,1.049,19.922,19.922,0,0,0,9.819,3.833,11.007,11.007,0,0,0,1.329.081Z" transform="translate(-401.928 -231.69)" fill="#262424"/>
      <path id="Path_1567" data-name="Path 1567" d="M502.406,262.759s-.77,14.391-19.99,14.5c0,0-11.418-3.518-7.572-14.5S497.555,249.138,502.406,262.759Z" transform="translate(-389.835 -223.716)" fill="#262424"/>
      <path id="Path_1568" data-name="Path 1568" d="M603.989,359.639s3.54-23.945,3.653-25.373-2.527-5.711-8.351-6.153-7.139,1.54-7.139,3.405-.9,8.788-.9,8.788.221-8.788.113-10.108-3.405-2.085-3.6.113-1.1,17.9-1.1,17.9-7.581-2.306-9.558-2.419-1.757,3.076-.766,3.626,17.846,12.522,17.846,12.522Z" transform="translate(-445.641 -264.685)" fill="#fff"/>
      <path id="Path_1569" data-name="Path 1569" d="M592.983,361.693c-6.756-4.806-17.085-12.094-17.787-12.486-.946-.523-1.284-2.189-.955-3.329a1.982,1.982,0,0,1,2.076-1.531,68.976,68.976,0,0,1,8.905,2.2c.189-3.32.86-15.175,1.054-17.094a2.14,2.14,0,0,1,2.279-1.982h.027a2.78,2.78,0,0,1,2.531,1.423,3.289,3.289,0,0,1,.676-.856c1.248-1.158,3.513-1.622,6.756-1.378A10.657,10.657,0,0,1,606,330.235a5.218,5.218,0,0,1,1.5,3.293c-.113,1.437-3.513,24.44-3.658,25.422a.662.662,0,0,1-.5.549l-9.806,2.306a.84.84,0,0,1-.153,0A.689.689,0,0,1,592.983,361.693Zm13.18-28.278a4.189,4.189,0,0,0-1.185-2.324,9.317,9.317,0,0,0-6.554-3.112c-2.793-.212-4.774.144-5.729,1.031a2.2,2.2,0,0,0-.694,1.712c0,1.887-.847,8.59-.9,8.873a.667.667,0,0,1-1.324-.1c.077-3.027.194-9.009.113-10.031,0-.252-.64-.662-1.351-.667h0c-.9,0-.937.59-.955.788-.216,2.158-1.09,17.715-1.1,17.873a.653.653,0,0,1-.257.5.662.662,0,0,1-.572.09c-2.085-.635-7.842-2.3-9.4-2.387-.275,0-.577.041-.73.581a2.032,2.032,0,0,0,.32,1.8c.955.531,15.085,10.554,17.67,12.387l9.072-2.113c1.239-8.4,3.5-23.8,3.581-24.9Z" transform="translate(-444.828 -263.887)" fill="#262424"/>
      <path id="Path_1570" data-name="Path 1570" d="M621.866,394l-12.855,3.545s-1.315,23.729-2.306,33.611-1.153,25.873,4.955,27.354,21.535-6.968,18.949-22.071C626.482,412.359,621.866,394,621.866,394Z" transform="translate(-462.45 -300.928)" fill="url(#linear-gradient-28)"/>
      <path id="Path_1571" data-name="Path 1571" d="M607,482.339a.637.637,0,0,0,.221-.041.667.667,0,0,0,.406-.847c-2.405-6.711-1.414-19.008-1.054-22.62l1.09-13.855a.664.664,0,1,0-1.324-.1l-1.09,13.842c-.45,4.7-1.306,16.4,1.126,23.184A.667.667,0,0,0,607,482.339Z" transform="translate(-461.649 -328.55)" fill="url(#linear-gradient-29)"/>
      <path id="Path_1572" data-name="Path 1572" d="M615.251,413.886a.668.668,0,0,0,.162,0L626.782,411a.664.664,0,1,0-.324-1.288L615.089,412.6a.662.662,0,0,0,.162,1.288Z" transform="translate(-467.096 -309.554)" fill="url(#linear-gradient-30)"/>
      <circle id="Ellipse_131" data-name="Ellipse 131" cx="1.82" cy="1.82" r="1.82" transform="translate(154.425 95.653)" fill="url(#linear-gradient-31)"/>
      <path id="Path_1573" data-name="Path 1573" d="M628.44,400.742a2.482,2.482,0,1,1,2.482,2.482A2.482,2.482,0,0,1,628.44,400.742Zm1.329,0a1.153,1.153,0,1,0,1.153-1.153A1.153,1.153,0,0,0,629.769,400.742Z" transform="translate(-474.682 -303.269)" fill="url(#linear-gradient-3)"/>
      <path id="Path_1574" data-name="Path 1574" d="M405.982,374s-22.49,11.261-20.512,100.225h29.08s-.356-59.11,1.757-73.185C418.941,383.459,411.473,374.45,405.982,374Z" transform="translate(-341.085 -289.936)" fill="url(#linear-gradient-5)"/>
      <path id="Path_1575" data-name="Path 1575" d="M442.509,463.644a.662.662,0,0,0,.667-.662c0-18.643.27-51.416,1.77-61.416,2.252-15.067-2.725-23.8-7.684-26.7a.663.663,0,0,0-.671,1.144c4.955,2.905,9.063,11.869,7.04,25.355-1.513,10.085-1.766,42.93-1.8,61.614a.662.662,0,0,0,.662.662Z" transform="translate(-369.066 -290.364)" fill="url(#linear-gradient-34)"/>
      <path id="Path_1576" data-name="Path 1576" d="M479.555,299.81a6.756,6.756,0,0,0-6.067-7.256,6.18,6.18,0,0,0-2.3.243c-4.473,1.374-2.928,11.851,8.108,10.671Z" transform="translate(-386.974 -245.164)" fill="#fff"/>
      <path id="Path_1577" data-name="Path 1577" d="M476.821,303.415a16.376,16.376,0,0,0,1.721-.095A.667.667,0,0,0,478.4,302c-6.153.662-9.009-2.405-9.594-5.234-.4-1.959.342-3.7,1.766-4.135a5.406,5.406,0,0,1,2.049-.216,6.054,6.054,0,0,1,5.459,6.54.664.664,0,0,0,1.324.1,7.4,7.4,0,0,0-6.675-7.968,6.9,6.9,0,0,0-2.549.27c-2.09.644-3.216,3.031-2.676,5.68C468.186,300.339,471.307,303.415,476.821,303.415Z" transform="translate(-386.163 -244.355)" fill="#262424"/>
    </g>
    <circle id="Ellipse_132" data-name="Ellipse 132" cx="16.887" cy="16.887" r="16.887" transform="translate(147.92 85.437)" fill="url(#linear-gradient-35)"/>
    <path id="Path_1579" data-name="Path 1579" d="M644.642,406.212s-4.5,4.5-10.009,5.567a2.32,2.32,0,0,1-2.045-.7l-1.8-1.8a2.037,2.037,0,0,1-.284-2.838l2.072-2.072a2.032,2.032,0,0,1,2.838.284l.977.977a6.373,6.373,0,0,0,1.716-.5,10.027,10.027,0,0,0,5.459-5.459,6.3,6.3,0,0,0,.5-1.712l-.977-.959a2.037,2.037,0,0,1-.288-2.838l2.072-2.072a2.037,2.037,0,0,1,2.838.288l1.8,1.8a2.333,2.333,0,0,1,.707,2.045C649.142,401.707,644.642,406.212,644.642,406.212Z" transform="translate(-475.565 -299.627)" fill="#fff"/>
  </g>
  <g id="ORNAMENT" transform="translate(0)">
    <path id="Path_1580" data-name="Path 1580" d="M896.535,137.261a8.85,8.85,0,0,0,4.59-4.558L902.3,130l1.176,2.7a8.85,8.85,0,0,0,4.572,4.572l2.7,1.176-2.7,1.176a8.85,8.85,0,0,0-4.572,4.572l-1.176,2.7-1.176-2.7a8.851,8.851,0,0,0-4.572-4.572l-2.7-1.176Z" transform="translate(-612.86 -104.925)" fill="url(#linear-gradient-36)"/>
    <path id="Path_1581" data-name="Path 1581" d="M272.083,693.867a6.757,6.757,0,0,0,3.5-3.5l.9-2.063.9,2.063a6.757,6.757,0,0,0,3.5,3.5l2.063.9-2.063.9a6.756,6.756,0,0,0-3.5,3.5l-.9,2.067-.9-2.067a6.756,6.756,0,0,0-3.5-3.5l-2.063-.9Z" transform="translate(-270.02 -411.751)" fill="url(#linear-gradient-37)"/>
    <path id="Path_1582" data-name="Path 1582" d="M332.576,773.081a10.715,10.715,0,0,0,5.536-5.536l1.419-3.266,1.423,3.266a10.716,10.716,0,0,0,5.536,5.536l3.261,1.419-3.261,1.423a10.716,10.716,0,0,0-5.536,5.536l-1.423,3.261-1.419-3.261a10.716,10.716,0,0,0-5.536-5.536l-3.266-1.41Z" transform="translate(-302.604 -453.507)" fill="url(#linear-gradient-3)"/>
    <path id="Path_1583" data-name="Path 1583" d="M1207.554,86.721a15.079,15.079,0,0,0,7.8-7.8l2-4.594,2,4.594a15.071,15.071,0,0,0,7.792,7.8l4.6,2-4.6,2a15.062,15.062,0,0,0-7.792,7.792l-2,4.6-2-4.612a15.07,15.07,0,0,0-7.8-7.792l-4.594-2Z" transform="translate(-782.738 -74.33)" fill="url(#linear-gradient-16)"/>
    <circle id="Ellipse_133" data-name="Ellipse 133" cx="5.144" cy="5.144" r="5.144" transform="translate(444.82 96.982)" fill="url(#linear-gradient-40)"/>
  </g>
  <g id="CALL" transform="translate(163.933 196.947)">
    <path id="Path_1584" data-name="Path 1584" d="M642.542,511.577a9.08,9.08,0,0,0-2.058.185,14.628,14.628,0,0,0-1.973.559,8.849,8.849,0,0,0-3.072,3.707,10.561,10.561,0,0,0-1.072,2.509v.022c-.09.324-.149.658-.207.987-.027.149-.072.3-.09.45-.036.248-.04.5-.054.752s-.045.419-.045.626v.036a12.528,12.528,0,0,0,.086,1.477,10.134,10.134,0,0,0,.378,1.671q.257.923.405,1.392c.086.212.284.712.45,1.2.054.149.072.207.135.369.288.743.45,1.3.523,1.486a27.343,27.343,0,0,0,1.239,2.869,22.133,22.133,0,0,0,1.162,2.18,36.83,36.83,0,0,0,3.662,4.847c.8.946,1.64,1.905,2.576,2.9a47.507,47.507,0,0,0,5.157,4.414c.842.635,1.68,1.234,2.509,1.748a24.616,24.616,0,0,0,2.833,1.491c.423.2.86.378,1.306.545.324.126.622.275.959.4.176.058.617.23,1.392.523.288.108.378.14.608.216a5.613,5.613,0,0,0,.595.216l.419.149.486.14a7.1,7.1,0,0,0,.9.36,3.434,3.434,0,0,1,.82.108l.14.036a5.686,5.686,0,0,1,.694.225h1.545a11.177,11.177,0,0,0,5.405-1.45c1.95-1.086,3.126-2.1,3.531-3.072a6.759,6.759,0,0,0,.311-.9h0c.1-.324.2-.694.293-1.063a9.992,9.992,0,0,0,.293-2.04,2.253,2.253,0,0,0-.09-.739s-.122-.1-.153-.131a3.437,3.437,0,0,0-.77-.626.158.158,0,0,0,0,.036c-.342-.23-.716-.45-1.257-.766-.365-.185-.9-.559-1.563-.928s-1.293-.554-1.856-.928-1.054-.554-1.541-.9a2.525,2.525,0,0,1-.721-.554,8.44,8.44,0,0,1-1.045-.558,1.311,1.311,0,0,0-.811-.185,2.167,2.167,0,0,0-1.45.743c-.577.554-1.113,1.3-1.595,1.851a11.706,11.706,0,0,1-1.536,1.856,1.982,1.982,0,0,1-1.351.743,1.067,1.067,0,0,1-.667-.189c-.252,0-.45-.185-.581-.185a2.624,2.624,0,0,1-.694-.369c-.329-.185-.514-.374-.554-.374a32.1,32.1,0,0,1-6.8-5.036,31.006,31.006,0,0,1-5.04-6.855,3.462,3.462,0,0,1-.351-.559c-.194-.369-.324-.558-.405-.743-.054,0-.135-.185-.23-.554a1.226,1.226,0,0,1-.144-.559,2.459,2.459,0,0,1,.811-1.482c.558-.558,1.158-.9,1.8-1.482a8.373,8.373,0,0,0,1.8-1.482c.563-.743.842-1.113.842-1.482a2.3,2.3,0,0,0-.2-.928c-.135-.185-.351-.554-.64-.928-.27-.554-.45-.743-.491-.743-.293-.554-.595-1.112-.9-1.667s-.649-1.113-1.013-1.856c-.369-.554-.658-1.112-.869-1.482a6.254,6.254,0,0,0-1.536-2.225Z" transform="translate(-633.97 -511.574)" fill="url(#linear-gradient-41)"/>
  </g>
  <g id="AT_SIGN" data-name="AT SIGN" transform="translate(123.722 241.486)">
    <path id="Path_1585" data-name="Path 1585" d="M555.508,612.566a19.7,19.7,0,0,0,11.161,37.151,2.608,2.608,0,0,0,2.185-3.275v-.054a2.6,2.6,0,0,0-2.8-1.9A14.472,14.472,0,0,1,562,615.841c7.446-1.275,14.54,3.8,16.526,11.089l.347,1.279a3.285,3.285,0,0,1-6.338,1.73l-2.594-9.518a1.32,1.32,0,0,0-1.617-.923l-2.531.689a1.3,1.3,0,0,0-.946,1.252,8.906,8.906,0,0,0-6.95,1.455,9.2,9.2,0,0,0,7.657,16.441,9.067,9.067,0,0,0,4.955-3.473,8.558,8.558,0,0,0,9.482.608,8.469,8.469,0,0,0,3.806-9.792l-.451-1.653a19.648,19.648,0,0,0-27.836-12.459Zm8.608,21.792a3.946,3.946,0,1,1,2.761-4.842,3.9,3.9,0,0,1-2.761,4.842Z" transform="translate(-544.697 -610.457)" fill="url(#linear-gradient-42)"/>
  </g>
  <g id="MAIL" transform="translate(63.752 203.019)">
    <path id="Path_1586" data-name="Path 1586" d="M458.384,557.731l-38.521,5.68a4.121,4.121,0,0,1-4.662-3.464l-3.6-24.517a4.117,4.117,0,0,1,3.459-4.657l38.507-5.675a4.112,4.112,0,0,1,4.657,3.459l3.6,24.517a4.117,4.117,0,0,1-3.464,4.657Zm-42.471-20.72a.941.941,0,1,1,1.077-1.545l14.864,10.36a7.378,7.378,0,0,0,10.022-1.477l11.229-14.2a.941.941,0,1,1,1.478,1.167L443.34,545.524a9.256,9.256,0,0,1-12.576,1.856L415.9,537.02Zm41.624,14.454a.941.941,0,1,1-1.077,1.545l-7.274-5.063a.942.942,0,0,1,1.077-1.545ZM424.39,550.2a.941.941,0,1,1,1.473,1.171l-5.5,6.986a.943.943,0,1,1-1.477-1.171Z" transform="translate(-411.556 -525.054)" fill-rule="evenodd" fill="url(#linear-gradient-43)"/>
  </g>
</svg>
