<svg xmlns="http://www.w3.org/2000/svg" width="137.036" height="137.053" viewBox="0 0 137.036 137.053">
  <path id="Innovation" d="M200.028,139.344a44.207,44.207,0,1,0-64.5-59.391l-6.045-6.045-5.5,3.269c-.7-.326-1.41-.621-2.112-.884L120.282,70.1h-16.7l-1.574,6.192c-.7.253-1.412.561-2.112.884l-5.5-3.269-11.8,11.811,3.284,5.5c-.326.7-.621,1.41-.884,2.115L78.8,94.909v16.7l6.268,1.594c.647,1.443,1.7,3.479,2.408,4.825a28.752,28.752,0,0,0-4.179,9.032,57.477,57.477,0,0,0-2.274,13.776v.917l4.542,4.578,2.4,14.4h8.5v5.265L94.2,167.128a19.776,19.776,0,0,0-11,17.793v13.389h57.474v-19.9a13.276,13.276,0,0,0-13.263-13.263v-3.5l4.717-4.707a28.979,28.979,0,0,0,8.521-20c.758.735,1.491,1.483,2.289,2.165a18.306,18.306,0,0,1,6.237,10.578h-1.862a6.6,6.6,0,0,0-4.909,11.048,6.6,6.6,0,0,0,4.909,11.053h2.663a22.1,22.1,0,0,0,43.3,0h2.665a6.6,6.6,0,0,0,4.906-11.053,6.6,6.6,0,0,0-4.906-11.053h-1.877a17.621,17.621,0,0,1,5.96-10.333ZM83.208,108.182V98.354l5.2-1.321.371-1.167A24.43,24.43,0,0,1,90.34,92.14l.566-1.089L88.15,86.42,95.1,79.473l4.633,2.754,1.1-.571a24.422,24.422,0,0,1,3.724-1.559l1.167-.371,1.321-5.2h9.825l1.324,5.2,1.167.371a24.423,24.423,0,0,1,3.7,1.559l1.089.563,4.631-2.754,6.947,6.947-2.754,4.631.563,1.089a24.422,24.422,0,0,1,1.559,3.724l.371,1.167,5.2,1.321v9.837l-5.2,1.321-.371,1.167a24.4,24.4,0,0,1-1.556,3.724l-.4.776a29.7,29.7,0,0,0-3.363-3.211,19.892,19.892,0,1,0-35.955-.563,29.185,29.185,0,0,0-3.312,2.933,40.2,40.2,0,0,1-1.733-3.658L88.4,109.5Zm22.737-2.16a6.425,6.425,0,0,1-.639-2.756,6.632,6.632,0,0,1,13.263,0,6.382,6.382,0,0,1-.73,2.933,28.343,28.343,0,0,0-11.894-.177Zm6-13.819a11.065,11.065,0,0,0-11.053,11.053,10.82,10.82,0,0,0,.758,3.916,29.208,29.208,0,0,0-4.065,1.8,15.469,15.469,0,1,1,28.527.477,28.882,28.882,0,0,0-4.019-1.943,10.757,10.757,0,0,0,.9-4.239A11.065,11.065,0,0,0,111.945,92.2ZM87.629,193.887v-8.963a15.388,15.388,0,0,1,8.552-13.837l3.032-1.516h18.356a13.2,13.2,0,0,0-3.406,8.842v15.474Zm48.632-15.474v15.474H118.577V178.413a8.842,8.842,0,0,1,17.684,0Zm0-42.129A24.611,24.611,0,0,1,129,153.807L123,159.815v5.336H100.893v-4.421a13.278,13.278,0,0,0,13.263-13.263h-4.421a8.842,8.842,0,0,1-8.842,8.842H91.712l-2.021-12.114-4.254-4.254a58.655,58.655,0,0,1,2.122-11.757,24.782,24.782,0,0,1,48.7,6.485Zm35.368,48.758a17.631,17.631,0,0,1-17.1-13.263h34.216a17.639,17.639,0,0,1-17.116,13.266Zm24.316-17.684H147.314a2.211,2.211,0,0,1,0-4.421h48.632a2.211,2.211,0,0,1,0,4.421Zm2.211-11.053a2.211,2.211,0,0,1-2.211,2.211H147.314a2.211,2.211,0,1,1,0-4.421h48.632a2.213,2.213,0,0,1,2.211,2.213Zm-8.589-6.632H173.84v-2.208a2.213,2.213,0,0,1,2.211-2.211h4.421a6.632,6.632,0,1,0,0-13.263H160.577a2.211,2.211,0,0,1,0-4.421h6.632a6.639,6.639,0,0,0,6.632-6.632v-4.449a11.015,11.015,0,0,0,17.475-10.906,10.992,10.992,0,0,0,0-17.937,10.437,10.437,0,0,0,.212-2.084,11.05,11.05,0,0,0-19.895-6.624,11.035,11.035,0,0,0-19.685,8.718,10.989,10.989,0,0,0,0,17.937,10.476,10.476,0,0,0-.212,2.084,11.025,11.025,0,0,0,17.684,8.814v4.446a2.211,2.211,0,0,1-2.211,2.211h-6.632a6.632,6.632,0,0,0,0,13.263h19.895a2.211,2.211,0,1,1,0,4.421h-4.421a6.642,6.642,0,0,0-6.632,6.632v2.211H153.667a22.989,22.989,0,0,0-7.857-13.943,40.09,40.09,0,0,1-5.545-5.793A29.112,29.112,0,0,0,138.5,123.6L141.3,120.8l-3.269-5.5c.323-.7.619-1.41.884-2.115l6.189-1.576v-16.7l-6.195-1.576c-.253-.7-.558-1.412-.884-2.115l3.269-5.5-2.584-2.584a40.051,40.051,0,0,1,28.32-17.194,39.786,39.786,0,0,1,30.159,70.012,22.06,22.06,0,0,0-7.609,13.723Zm-34.065-47.1a6.568,6.568,0,0,1-3.767-5.944,6.639,6.639,0,0,1,6.632-6.634h2.211V85.571h-2.211a10.991,10.991,0,0,0-2.19.22c0-.073-.02-.147-.02-.22a6.632,6.632,0,0,1,13.263,0v22.105a6.632,6.632,0,1,1-13.263,0,6.528,6.528,0,0,1,.452-2.334l.712-1.89ZM187.758,90.68a6.568,6.568,0,0,1,3.767,5.947,6.642,6.642,0,0,1-6.632,6.632h-2.211v4.419h2.211a10.971,10.971,0,0,0,2.19-.222c0,.073.02.147.02.222a6.632,6.632,0,0,1-13.263,0V85.571A6.632,6.632,0,1,1,186.654,87.9l-.715,1.89Z" transform="translate(-78.8 -61.257)" fill="#fff"/>
</svg>
