<svg xmlns="http://www.w3.org/2000/svg" xmlns:xlink="http://www.w3.org/1999/xlink" width="253" height="254" viewBox="0 0 253 254">
  <defs>
    <linearGradient id="linear-gradient" x1="0.5" x2="0.5" y2="1" gradientUnits="objectBoundingBox">
      <stop offset="0" stop-color="#1b89ca"/>
      <stop offset="1" stop-color="#2e3792"/>
    </linearGradient>
  </defs>
  <g id="intelligence" transform="translate(-1.307 -0.013)">
    <g id="Ellipse_159" data-name="Ellipse 159" transform="translate(1.307 0.013)" stroke="#707070" stroke-width="1" fill="url(#linear-gradient)">
      <ellipse cx="126.5" cy="127" rx="126.5" ry="127" stroke="none"/>
      <ellipse cx="126.5" cy="127" rx="126" ry="126.5" fill="none"/>
    </g>
    <path id="Collaboration" d="M223.39,114.678h-9.059a4.4,4.4,0,0,0-1.157.171l-3.6-3.6a36.681,36.681,0,0,1-4.543-5.542A40.8,40.8,0,0,0,171.009,87.5h-4.82a6.212,6.212,0,0,0-5.953,4.53h-9.318v18.119h-4.532a8.995,8.995,0,0,0-4.53,1.258V101.089h-2.265a38.546,38.546,0,0,0-38.5,38.5,50.147,50.147,0,0,0,9.965,29.9l6.823,9.1a42.708,42.708,0,0,0-12.719,4l-1.576.792a4.512,4.512,0,0,0-2.493-.753H92.03a4.535,4.535,0,0,0-4.53,4.53v27.178a4.535,4.535,0,0,0,4.53,4.53h9.059a4.511,4.511,0,0,0,2.493-.753l1.581.792a42.759,42.759,0,0,0,19.025,4.491h24.463a15.82,15.82,0,0,0,8.428-2.428,6.745,6.745,0,0,0,5.161,2.428H171.3a6.766,6.766,0,0,0,5.029-11.324,6.694,6.694,0,0,0,0-9.059,6.766,6.766,0,0,0-5.029-11.324h9.059a6.794,6.794,0,1,0,0-13.589H175.3a45.053,45.053,0,0,0,9.673-19.371l2.741-12.336H141.856V132.8H132.8a4.53,4.53,0,0,1,0-9.059h5.788a9.036,9.036,0,0,0,7.8,4.53h4.53v13.589h40.767v-9.577a31.2,31.2,0,0,0,5.511.518,6.277,6.277,0,0,1,4.46,1.846l8.3,8.3a4.522,4.522,0,0,0,4.382,3.448h9.059a4.535,4.535,0,0,0,4.53-4.53V119.208A4.535,4.535,0,0,0,223.39,114.678ZM114.678,166.769a45.462,45.462,0,0,1-7.589-15.854h30.237v9.059h9.059a4.53,4.53,0,1,1,0,9.059h-9.059v9.059H124.188c-.329,0-.663.021-.994.029ZM92.03,214.331V187.153h9.059v27.178Zm32.158,4.53a38.241,38.241,0,0,1-17-4.012l-1.566-.777V187.419l1.566-.777a38.233,38.233,0,0,1,17-4.02h24.09a2.64,2.64,0,0,1,.437,5.244l-10.835,1.812-.432,1.294a7.667,7.667,0,0,1-7.279,5.247h-1.9v4.522h1.9a12.146,12.146,0,0,0,2.632-.318v7.113a15.788,15.788,0,0,0,4.787,11.323Zm31.674-18.119a6.745,6.745,0,0,0,1.351,2.265,6.746,6.746,0,0,0-1.351,2.265H137.326v-4.53Zm17.7,6.795A2.27,2.27,0,0,1,171.3,209.8H162.24a2.265,2.265,0,1,1,0-4.53H171.3A2.27,2.27,0,0,1,173.564,207.536Zm-36.01,2.265h18.308a6.73,6.73,0,0,0,1.349,2.265,6.73,6.73,0,0,0-1.765,4.465,11.257,11.257,0,0,1-17.9-6.73ZM171.3,218.86H162.24a2.265,2.265,0,1,1,0-4.53H171.3a2.265,2.265,0,1,1,0,4.53Zm2.265-20.383a2.27,2.27,0,0,1-2.265,2.265H162.24a2.265,2.265,0,1,1,0-4.53H171.3A2.27,2.27,0,0,1,173.564,198.477Zm9.059-13.589a2.27,2.27,0,0,1-2.265,2.265H169.037a40.272,40.272,0,0,1,2.689-4.53h8.632a2.27,2.27,0,0,1,2.265,2.265Zm-.559-33.972-1.512,6.826a40.446,40.446,0,0,1-9.238,18.059,45.263,45.263,0,0,0-9.106,15.882,6.784,6.784,0,0,0-6.347,4.53h-16.24a12.143,12.143,0,0,0,1.594-2.506l8.236-1.372a7.17,7.17,0,0,0-1.178-14.236h-6.419v-4.535h4.53a9.059,9.059,0,1,0,0-18.119h-4.53v-4.53ZM132.8,119.208a9.059,9.059,0,1,0,0,18.119h4.53v9.059H106.154a44.863,44.863,0,0,1-.536-6.795,34.036,34.036,0,0,1,31.708-33.908v13.524Zm54.356,18.119H155.445V123.737h-9.059a4.53,4.53,0,1,1,0-9.059h9.059V96.559h5.221a6.212,6.212,0,0,0,3.559,3.049l8.205,2.736a14.313,14.313,0,0,1,5.48,3.365,8.579,8.579,0,0,0-1.24-.1,7.631,7.631,0,0,0-6.629,11.42,31.319,31.319,0,0,0,17.112,14.091Zm10.04-9.059a26.8,26.8,0,0,1-23.218-13.478,3.106,3.106,0,0,1,2.695-4.641,3.681,3.681,0,0,1,3.313,2.05,12.616,12.616,0,0,0,11.345,7.009h4.884v-4.53h-4.884a8.112,8.112,0,0,1-4.783-1.553l-.044-.28a18.815,18.815,0,0,0-12.639-14.79l-8.208-2.736a1.682,1.682,0,0,1,.536-3.29h4.82a36.287,36.287,0,0,1,30.25,16.193,41.088,41.088,0,0,0,5.109,6.23l3.6,3.6a4.528,4.528,0,0,0-.163,1.16v17.182l-4.949-4.949a10.768,10.768,0,0,0-7.659-3.173Zm17.138,13.589V119.208h9.059v22.648Z" transform="translate(-29.936 -28.358)" fill="#fff"/>
  </g>
</svg>
