<svg xmlns="http://www.w3.org/2000/svg" width="27.926" height="28.086" viewBox="0 0 27.926 28.086">
  <g id="Linkedin" opacity="0.9">
    <path id="Path_375" data-name="Path 375" d="M112.189,633.073a2.04,2.04,0,0,1,1.477.593,1.925,1.925,0,0,1,.61,1.428v24.074a1.87,1.87,0,0,1-.61,1.412,2.031,2.031,0,0,1-1.444.579H88.4a2.025,2.025,0,0,1-1.444-.579,1.868,1.868,0,0,1-.61-1.412V635.094a1.922,1.922,0,0,1,.61-1.428,2.039,2.039,0,0,1,1.477-.593h23.753Zm-17.751,8.489a2.248,2.248,0,0,0,0-3.146,2.333,2.333,0,0,0-1.7-.625,2.391,2.391,0,0,0-1.717.625,2.081,2.081,0,0,0-.658,1.573A2.1,2.1,0,0,0,91,641.562a2.286,2.286,0,0,0,1.669.626H92.7A2.37,2.37,0,0,0,94.438,641.562Zm.385,2.36h-4.2V656.6h4.2Zm15.183,5.392a6.149,6.149,0,0,0-1.38-4.3,4.986,4.986,0,0,0-6-.675,4.971,4.971,0,0,0-1.252,1.381v-1.8h-4.2q.031.738,0,6.773V656.6h4.2v-7.094a3.153,3.153,0,0,1,.128-1.027,2.557,2.557,0,0,1,.77-1.058,2.132,2.132,0,0,1,1.412-.482,1.85,1.85,0,0,1,1.637.8,3.743,3.743,0,0,1,.481,2.055v6.8h4.2Z" transform="translate(-86.349 -633.073)" fill="#fff"/>
  </g>
</svg>
