<svg xmlns="http://www.w3.org/2000/svg" xmlns:xlink="http://www.w3.org/1999/xlink" width="826.673" height="810.193" viewBox="0 0 826.673 810.193">
  <defs>
    <linearGradient id="linear-gradient" x1="0.5" x2="0.5" y2="1" gradientUnits="objectBoundingBox">
      <stop offset="0" stop-color="#1b89ca"/>
      <stop offset="1" stop-color="#2e3792"/>
    </linearGradient>
  </defs>
  <g id="Localisation" transform="translate(-892.714 -5297.666)">
    <g id="Carte_France" data-name="Carte France" transform="translate(876.939 5298)">
      <path id="FR-A" d="M498.91,238.44l4.8-2.371-1.331-3.508,1.886-1.622-1-.818,1.844-6.891,3.258-1.872,4.409-7.57-1-3.078,8.041-14.225-1.109-2.537-3.632.555-2.357-1.65,1.858-2.177-1.345-1.788,1.858-6.585-1.58-2.523,2.551.5-3.965-2.3,5.767-.277,3.064-2.149,4.963-9.344L523.644,166l-1.331-2.579,4.159-6.544-3.785-3.535.624-1.248-6.142-2.01-1.553,3.771-2.773,1.525.624-2.343-2.135-.388-.055-2.454,2.537-1.608-2.565.305-.111-1.359-5.407-1.65-.624-3.48,2,.014.679-2.454,2.412.444,2.024-9.552,1.775-1.054,1.622,6.253,9.677,2.8-.194,1.594,2.024,1.068,7.265-2.191,4.88,3.147,2.4-2.149,3.355-8.443h0l5.49-.263.166,1.137,3.383-1.955,4.159,2.828,3.882-2.135,9.164,5.948,8.027,2.093-4.8,5.379-3.424,8.9-6.766,3.937-.458,3.064-7.182,7.029-2.246,4.949.347,6.017-2.163,2.121-2.066,8.291.707,5.809-2.967,2.191-1.539,6.9-5.157,8.707-.416,7.431L544.2,225.6l-3.785,7.958-1.553,8.54,1.054,3.882-2.094,3.106L542.416,257l-.471,2.44-4.852,3.078,1.816.984-1.9.624.776,1.9-1.3,1.331-3.286-1.1-.61,1.262,2,.79-3.979,3.3-3.327-.776-4.908,1.691-.638-1.525-3.577-.388,1.83-4.256-3.993-.763h0l.61-1.844-3.286-5.8-4.644-.79L511,251.25l-.541-4.353-5.56-4.1-4.256-.984Z" transform="translate(186.581 50.157)" fill="#ccc" stroke="#fff" stroke-width="0.5"/>
      <path id="FR-B" d="M280.068,335.78l1.345,1.788,3.9-.6,3.106,2.315-1.345,4.076,3.48,3.508,3.272-3.924,1.636,1.775,6.96-.79,3.868,6.53,1.761-1.373,2.911,1.8-2.62,4.09,9.941,3.466-2.135,2.537,3.91,1.9-3.411,4.561-1.636.083-.541,4.035,2.911,1.483-2.884,4.062,3.522,1.275-1.664,1.83h0l-.291.028h0l3.05,2.662,5.962.666-1.955,1.608,4.034,6.946h0l-2.177,1.248h0l.236.957h0l1.622,6.225-1.664.485,1.608,2.579-4.506,2.884.236,2.634-3.9,1.22,1.012,4.506-5.282,4.547L310,420.518l.347,2.5-3.4,3.66.555,1.622-5.116,2.925-1.941-.568,2.038,2.995.028,4.922,2.177,1.442.333,4.894-6.308.319-.61,1.317-1.206-3.119-1.386.236-1.553,5.684,4.686,2.856-2.537,6.683-3.064.527,1.844.721.5,2.967-1.844.9-4.2-1.359.513,2.593-2.385.291-1.012,3.646-4.395,2.981-4.076-4.464-2.135,2.01-5.462-.069L269.31,471.8l-7.362,1.567-.818,1.5-4.007-2.5-2.26.555-2.024,3.369-1.705-2.3-4.1,3.217,1.178,3.563-.984,1.636-4.6-2.62,1.594-1.983-2.482-2.412-3.424,4.45-4.811-.86-3.452,3.314,3.064,2.329-1.275.846.873,3.8-1.9.139,1.83,5.629-3.175,2.385.444,4.159-2.288.929.125,1.955,1.858.208.5,2.62,3.535-1.081,4.645,1.137.166,3.05,1.567-.374,2.759,6-2.731.707-.083,4.118,3.826-2.717-.166,5.768,1.913,2.052-4.367,3.535,1.664,2.44-1.844,4.09-1.373-.333.305,3.619-2.856-.236-1.65,4.021-2.7,1.151.749,4.894-4.645,1.151-1.567,2.5.388,5.587-2.662,1.3.818,5.31h0l-4.686,3.951-2.773.277-3.66-2.5-2.634,3.868-7.279-8.374-3.092-.929-1.276-5.6-10.9,1.151-9.844-5.546-1.608,1.262-1.234-2.135-3.743-1.567-1.941.915-2.676-1.955,2.2-3.924-4.215,1.872-.555,5.185-4.95-1.386-1.9-3.3,3.383-3.092,1.872-4.839-.374-5.407-8.429-2.828-1.594.444-.776,3.036-1.844-.18-.915-4.339-6.045.832-.471-2.69L141,525.58l-.1-1.844,6.974-1.178,3.868-3.535,8.845-16.97,8.61-44.809,2.3-26.675,3.632-9.247,10.911,1.844-.79-3.452-2.967-1.4,2.052-.028-7.681-6.405-3.757,6.669-.818,6.308-.873-1.442,6.017-68.475,3.591-6.613,1.927-1.414,1.22,3.064-2.218.388,1.456.1-.776,1.525,15.1,13.531,6.572,22.072,5.476,5.338-4.229-9.8-2.69-16.1h0l6.89.582.471-2.107,1.289,4.09,8.055,1.47,1.331,7.5h0l.069.361h0l1.026,3.119,1.178-2.149,1.456.277,1.373,2.315,1.955-.388,1.234,2.26,3.91,1.664,2.717.388,3.2-2.607,2.523,1.872.416-3.369,2.357-1.04-1.331-.971,1.567-3.078,2.745-2,4.547,1.705,2.329-4.464,5.227-2.967-1.081-5.906,1.65-4.728,2.357-.79-.846-1.844,1.622,1.414,2.884-3.577,2.939-.014,1-3.092,3.189-2.274.374-6.655,3.133-.042ZM239.46,529.074h0l-.333-4.95h0l-.541-.263h0l.222,2.981-1.678.679,1.386,1.331Zm-2.2-.18h0l-.4.3h0l-1.123,2.676,1.081,2.426,2.4-1.719-1.428-3.494h0l-.333-.222Z" transform="translate(48.24 129.751)" fill="#ccc" stroke="#fff" stroke-width="0.5"/>
      <path id="FR-C" d="M313.3,302.173l1.026-4.2,1.428-.014,2.163-3.84,7.265-1.331,2.856,1.123,4.492-2.856-.624-3.438-2.149-1.192,1.691-2.551-1.484-1.65,2.01-1.04,1.317,1.068-.208-2.648,4.45-2.371.818-2.232,2.606,2.371,2.163-1.5,2.745.762,4.284-5.629,6.364-.166h0l1.539,3.66,8.152,6.253,3.993-3.4,4.478,2.759,1.858-2.4,2.385-.111,2.08,5.227,5.989-3.133-.762-2.828,2.842-.125-.471-3.133,2.093.582.777,4.007,5.657,8.776.319,5.3,3.66,1.664,1.927-1.054,1.733,3.6,4.658-.4,2.856,2.593-1.359,5.268.5,5.8,1.137.111-3.341.485-2.731,3.8h0l-.374.1h0l-.5.069h0l-6.682,2.884,2.343,6.322-.9,4.229,1.636,1.927-.929,2.911,1.483,4.478-2.5,2.135-4.963.3-.458,3.258,3.549,3.632-2.246,1.3.4,4.658-1.927,1.844,5.282,5.435-.208,2.759,2.69,4.908,6.336,4.381,2.939,6.738-1.234,4.894-4.27,3.341.873,4.977,2.509-3.424,2.163.333,1.872,3.591.139-1.747,2.911,1.1.582-1.83,4.173-.541-.513-1.553,1.941-.721,3.133.291,2.246,2.537,3.591-.832,1.886,2.606-2.066,1.511,2.26,1.331-1.248,2.191,2.093,1.511,2.884-1.511,3.147,4.229-2.482,5.074.568,3.4-1.248.735-.735-2.149-2.828-.61,1.442,2.426h0v.735h0l-1.581-.111-1.414,2.426,1.9,3.244-4.8,1.4,1,3.757-5.116.8-3.937,7.306-7.015.055-.361,3.133-1.622,1.109-1.012-1.054.333,1.733-2.246-1.248L407.9,437.57l-3.577,1.969h0l-1.483-.291.416-1.969-1.927.61-2.787-2.925-1.026-3.022-4.423.762.388-2.26-2.5-2-2.093.444-.291,4.021-6.364,1.345-3.521-7.2-.1-3.521-2.537-2.7-4.922,3.91-2.523-.707-.333,3.882-2.537,2.038-3.48-3.327-1.275,3.064h-.333l-.263,2.593-1.525-.319-1.511,3.036-.4,6.821-3.3,5.754h0l-2.593-2.87-1.442-6.572,1.47-1.026-.957-1.58-1.858.347L346.646,429l-4.991,1.5.083-4.547-2.149-2.371-7.611,7.736-.25,4.353-2.911,3.119.6,2.69-3.494,2.509-.9,3.092-7.57.818-1.483-2.412-1.816.166-4.506,1.47-.721,2.606-1.941-1.678-.679-4.6-1.678-.083,2.412-7.417-4.631-6.863.679-3.8-2.385-4.478h0l2.288-.6h0l.485.125h0l1.913-1.594-2.551-4.755,4.284-1.8.374-4.464,3.036-2.315-1.816-1.289-.388-3.286,9.539-9.4-.638-6.142,7.6,3.424,2.745-1.8-2.343-2.218,1.747-11.064-3.244-3.424,1.428-3.674,2.052-.111.111-5.587-7.792-9.469,3.924-3.369h0l.25-.055h0l1.83.25,3.688-4.1.444-3.549,2.717-1.262-.568-5.2-2.967-4.229.9-5.726-4.811-10.343-2.925-1.331-.582,1.081-1.941-4.021-1.317,1.761-3.6-2.731,1.816-2.412-2.676-.763Z" transform="translate(109.99 104.657)" fill="#ccc" stroke="#fff" stroke-width="0.5"/>
      <path id="FR-D" d="M453.816,218.163h0l-2.149-4.672-1.941.291-.513,1.83-1.664-1.068,1.941-2.7-1.137-1.733-3.508-.152,1.414-2.246-.929-1.483-5.352-1.539-6.988-.444-2.454,1.941,1.068,3.3-13.823.582-1.248,3.119-2.773-.444-1.054-3.591-1.816.4.43,2.218-2.024-1.553h0l-.721.388h0l-2.565,2.5-2.884-1.691-.887,1.761-2.315-1.483-6.308,1.137,1.068-4.326-1.081-1.872-.832,1.955-1.636-.36-.721-1.788,1.885-.957-2.856-2.5-1.789-6.336-2.967-1.262.5-2.87-1.955-.721.485,1.553-3.2,1.386-2.121-4.3-2.967.458,2.44-3.535-1.192-.6,1.054-3.119-2.4-1.317.568-1.428-4.811-5.7-2.149-.846-2.2,1.525-.8-2.731h0l-2.218-.846-.638,2.385-1.664.222-11.23-.25-2.135,2.052-3.23-.9-1.844,4.686,1.844,4.769-2.468,3.688-3.854,2.024-.014,1.747h0l5.324,2.565-.776,1.483,1.137-.083.8,3.757,4.312,3.729-1.456.887,1.65,4.007-1.913,2.232h0l-.347.291h0l-4.575,3.189-.776,3.327,2.121,1.5-.416,5.379-10,2.523-.222,3.452,1.761-.291,2.745,3.286,1.567,3.133-.97,3.937,2.3,2.509-6.669,1.9h0v-.305h0l-.721,1.068,4.755,8.485-3.632,8.443,6.558,6.488,2.814,11.868-.735,4.8,3.452,3.411.1,5.726-1.733,4.048,1.137,4.686-2.177,4.769h0l1.539,3.66,8.152,6.253,3.993-3.4,4.478,2.759,1.858-2.4,2.385-.111,2.08,5.227,5.989-3.133-.762-2.828,2.842-.125-.471-3.133,2.093.582.776,4.007,5.657,8.776.319,5.3,3.66,1.664,1.927-1.054,1.733,3.6,4.658-.4,2.856,2.593-1.359,5.268.5,5.8,1.137.111-3.341.485-2.731,3.8h0l-.5,5.1,4.742.971.957,2.773,6.53-2.454,4.339,2.066,1.691-1.705,1.04,1.386,1.65-.818-.263,2.412,1.47.18,5.6-2.454,1.9-9.109,3.05-.111,2.606,2.454,3.716-2.191,2.87,2.357,1.1-2.939,2.454-.43,1.761,2.288-1.789,1.636,3.258,2.121-.957,3.2,2.232,1.858,1.248-.333,9.275-28.449.555,1.483,1.927-1.165,4.187,2.551,6.322-1.65.069-1.262,2.191,1.123,1.705,3.965,4.52.971h0l.541-1.4,5.365-1.151.222-2.121-3.549-1.442-.069-3.549,2.648-1.622-.485-2.4,2.62-2.274-2.662-3.951L479.8,314.5l-1.844-.111,1.761-3.4-3.674-3.771,7.972-2.107-3.632-2.343-.194-2.01-4.021.416-2.024-4.381-1.719.915-.555-4.159,3.674-2.925-2.468-1.165.485-1.886,5.823-2.787,3.119-5.255h0l-.028-.43h0l2.828-11.715,1.8-1.234-2.676-1.123h-.194l1.511-2.08-.665-4.423h0l-.222-.139h0l-2.385.166h-.36l.374-4.908-4.131-1.192,2.371-1.081-1.178-.333.665-1.511,2.842.111,2.8-4.908-3.217-6.35-2.676,3.009-1.289-.887h0l-.984,1.192-2.787-1.567-3.161,2.787.444-3.868L467.25,236.5l.291-2.4-3.508,2.884-3.674-1.858.416-2.3-1.83.25-.042-1.553-3.466,2.08-.555-6.488-2.5-.444,4.409-3.494-2.218-5.019Z" transform="translate(122.606 66.58)" fill="#ccc" stroke="#fff" stroke-width="0.5"/>
      <path id="FR-E" d="M105.11,270.322l1.719,2.066,3.494-.083,1.012,2.953,4.492,1.276-.776,2.357-9.4-1.386-1.428-4.187Zm1.331-127.3.291,3.092,7.722-3.133v4.215l4.242-.263.444,2.038-2.274,1.705,6.613,2.135-.957,3.022L129.9,162.1l-.277,4.644,6.225,3.424-1.539,2.7,1.622-.679,2.232,3.882-.5-3.882,3.175.915,4.187-6.752,4.658-1.983-.86-1.955,2.953-.665,1,2.038,5.837-5.157,2.01,1.761-3.078,4.2,1.331.873,4.062-2.981,1.886,4.977-.79,3.2,1.622-5.268.97,3.008,1.65-3.632,1.5,1.511-1.581-2.842,6.017-.471.61,3.4,2.3,1.5-1.04.943,2.426,2.412-.721,4.215,1.178-2.662,1.511.513-2.773-5.532,2.26,1.206-.776-1.844-2.981-.624.873-1.47-2.052-1.678,2.4-4.242,8.526-2.509.444,2.856-1.886,3.591,5.2,2.953,11.84-2.634h0l4.8,12.6,3.868,2.44,3.882-.693,5.767-6.5,10.578,3.092h0l-.638,8.111,2.066,7.417-3.217,5.407,1.289,5.421h0l.236.222h0l3.341,17-7.972,3.286-5.268,16.11-6.71-1.927-1.428-2.482-5.213-.61.333,2.759-8.582,3.369-2.177,4.6-11.521.083-5.462,3.175-1.054-1.913-6.253,3.743-.943,9.954-3.411.957-.36,2.7-1.234-1.941-3.452,1.539-3.092-1.844-1.081,4.686-4.852.4-1.248-1.761-1.983,2.454h0l-2.163-.166-.36-3.577,3.494-.527-3.951-2.2-17.607,3.23-5.518-5.684-2.981-.014-1.525-2.232-.873,1.123-1.165-2.191.277,2.121-5.948-.18-.263,4.742,2.773,3.827-2.967-.374-1.8-4.769,1.581-1.317-.832-4.326-7.861-7.653-4.284-.055-.305-2.121-5.047,1.275-4.242-5.8L80.251,237.3l-2.8-2.468-7.32,1.22-2.717-3.743,1.178-2.066-1.664.735L64.876,226.5l-2.468,1.636.832,2.468-3.84,1-3.7-2.44-2.343,1.262-2.579,5.157-10.135.014.541-7.833-3.619-6.391-5.157-3.674-3.355.458L25.4,215.684l-6.017-.887,1.733-.388-.444-1.8,17.15-3.646,6.419,1.525,2.177-3.494-2.787-6.378-8.513-3.022-2.024.582L29.647,203.5l-.763-5.532,1.664-1.262-4.506-.458-.388-2.177,3.369-.222-.1-4.187,2.26-.887-1.345,3.272,1.178,1.608,2.066-2.357-.18,2.634,2.925-1.359,3.078,1.886,5.241-2,2.676,1.525,2.246-2.9-1.5,1.248-5.157-1.359,1.983-1.345-1.664-.79.776-1.955-3.161,3.119-2.509.139,1.137-1.525L35.47,189.98l3.341-4.894L37.452,184l-10.578,4.963-4.242-1.47-1.525,2.066-3.757.18-1.012-2.759,1.65-1.816-1.927-2.676,1.969-4.658-.915-4.173,2.7-3.521,6.877-1.761.263-2.4,2.426.541,1.234-3.383,2.482,1.373,5.629-1.4-2.038-1.5,5.213-1.969,2.884,1.1.014,2.69,5.8-1.581-1.567-.6,2.08-2.454,4.977-.735,2.343,1.664.347-2.579,2.62-1.872.36,1.373,1.775-1.359-.1,4.631,2.315.984.347-3.133.111,2.149,4.45,1.178-.513-2.523L71.5,156.4l.624,1.192-.166-1.608,8.263,2.884,2.066-.846-.846,3.23,2.038-2.385,2.371,1.386-.1-4.728,2.01-1.8L85.7,152.671l1.012-3.314-1.151-.957,1.858,1.262,2.9-4.159.749,1.65.624-1.5,1.22,1.913,1.788-.458-.735,1.983,2.454-.18,4.492-3.327,3.272.347Z" transform="translate(0 55.25)" fill="#ccc" stroke="#fff" stroke-width="0.5"/>
      <path id="FR-F" d="M300.672,138.46l3.563,4.367-1,1.761,3.022,2.69-.97,6.835,2.606,1.248-2.87,3.827,2.024,1.22-.582,2.066,3.674,4.423,2.814-.028-.347,3.244,4.492,2.038-.652,3.494,1.483,4.034,3.924,2.274,3.48-1.442-.139,4.409,2.856.388.61,3.286-1.747,4.575.846,1.886,10.994-.9-.679-1.511,1.705.4,1.248-2.828,2.454,1.054-.028,2.884,3.078-1.192h0l.3-.568h0l1.373-1.22,1.8,2.177,2.606-.679,1.123,4.825,5.379,2.911.028,5.047-1.983.208-2.274,3.508,6.655-1.47,8.416,1.511,2.8-1.886-1.026-1.844,1.525,1.151,2.08-1.317,1.178,3.341,2.69-2.26,4.076-.6h0l5.324,2.565-.776,1.483,1.137-.083.8,3.757,4.312,3.729-1.456.887,1.65,4.007-1.913,2.232h0l-.347.291h0l-4.575,3.189-.776,3.327,2.121,1.5-.416,5.379-10,2.523-.222,3.452,1.761-.291,2.745,3.286,1.567,3.133-.97,3.937,2.3,2.509-6.669,1.9h0v-.3h0l-.721,1.068,4.755,8.485L379.3,276.2l6.558,6.488,2.814,11.868-.735,4.8,3.452,3.411.1,5.726-1.733,4.048,1.137,4.686-2.177,4.769h0l-6.364.166-4.284,5.629-2.745-.763-2.163,1.5-2.606-2.371-.818,2.232-4.45,2.371.208,2.648-1.317-1.068-2.01,1.04,1.483,1.65-1.691,2.551,2.149,1.192.624,3.438-4.492,2.856-2.856-1.123-7.265,1.331-2.163,3.84-1.428.014-1.026,4.2h0l-4.825-.721-6.225,1.539-6.308-2.759-8.041,1.442-3.23-2.565-2.038.527.721,2.066-1.789,2.925-2.5-2.343-3.286,2.523-1.1-2.773-3.716,2.4-1.1-2.842-6.364,6.71-3.535-4.464-2.343.4-.555,1.955-4.894.471-.541-2.024-1.789.43h0l1.054-1.4h0l.887-2.662-3.522-1.234-.374-4.88-2.953-2.454-4.215.042-.305-2.565-5.975-2.856-1.04-2.357,2.024-5.407-.846-2.745-5.615-5.213-1.081-5.074-5.282-4.492-.735-5.934-4.256-2.842-2.87.125,1.761,4.118-5.338-.139-3.854,2.468-4.215-1.678-2.4,1.581-1.858-5.047,1.234-.665-.555-4.45-2,.721-1.331-2.44-3.84,1.054,1.248-2.745-1.054-2-1.137,1.192-1.567-.527.305-1.5-3.452.5-1.511-3.785h0l1.317-9.927,6.045-8.471-1.691-1.5,3.951-8.554.263-2.3-1.844-1.012,2.288-4.88h0l-.069-.721h0l8.721,2.967,1.109-.707-2.218-3.494,1.081-2.038,3.8,2.08.846-2.191,7.6-2.3,1.317-1.8-1.331.4-.582-2.509,2.357-2.9,4.312-1.289-.527-1.386,4.381-4.173-.471-5.851,1.678-.957,1.234,2.01.236-3.743,1.927-.679-1.747-3.937,1.359-3.743-2.593-.638-.208-2.87,2.842-.208.125-1.9-1.83-.4,1.594-.374.568-2.537,3.729-.471-6.793-4.769h0l1.872-1.664-2.426-4.076,1.04-2.426-2.925-.915.846-1.969,8.291-4.353,3.563-5.851-2.3-3.133,1.761-4.076-8.485-7.667L261.2,162h0l2.773-1.539.735-2.412,6.475-.86h1.192l3.092-2.87,2.995,1.026.361-3.729,5.809,2.731,6.322-.277,2.3-1.733-.6-4.645,5.657-3.272-.707-4.506Z" transform="translate(77.797 53.503)" fill="#ccc" stroke="#fff" stroke-width="0.5"/>
      <path id="FR-G" d="M439.169,61.349l3.494,1.567-1.65,1.525.25,2.842-1.206-1.22-1.788,3.272,1.22,2.412-2.967,6.183,5.684,5.282-2.371,3.813,1.594,4.187L440.1,93.584l8.277-.624,5.7,3.314,4.145,6.17,6-.222,3.522,3.716-1.012,3.785,1.955-1.747,2.759,1.276h0l-7.681,6.613-1.581-2.44-4.1.568-1.165-2.454-1.775-.139-1.289,4.409h0l-.1.527h0l-1.691,3.161,2.995,3.771.236,3.4-2.2,1.483,1.386,2.149-2.717.957-1.664,5.06,1.8,1.414-.333,1.733-5.726,3.258,2.357,2.468-3.036,2.121L448.9,157.5l-2.246,4.132,2.5-1.234,1.594,1.054-.125,2.662-2.288.818,2.593.873-1.331,3.022-4.492,1.858h0l-.25.25h0l-1.234,4.09,1.442,2.246-2.69,3.827,6.877,4.936-.624,10.994,3.355-1.47.8,3.161,2.759.042,5.338,5.823,6.682,1.622,8.083,7.473-4.353,2.759,2.787,1.026-.873,4.145,3.022-2.149,2.607.721,3.7,6.378,1.3-1.539,2.426,2.066-.707,2.26,2.648.665,2.44,3.119-2.828,1.608-.568,6.114-2.454,1.969,3.951.749,1.47,2.814,3.147.887.624,6.932,3.424-1.983,2.177,4.256h0l-.028,2.2-1.941-.541-1.65,3.022.347,1.608-3.868-.624-1.1,3.369-2.912-.069-.86,3.563,1.886,2.759-1.04,5.3-5.407,1.068-1.691-3.009-2.412,2.939-6.627-.125-2.191,5.948h0l-.984,1.192-2.787-1.567-3.161,2.787.444-3.868-4.936-2.551.291-2.4-3.508,2.884-3.674-1.858.416-2.3-1.83.25-.042-1.553-3.466,2.08-.555-6.488-2.5-.444,4.409-3.494L446,261.534h-.763l-2.149-4.672-1.941.291-.513,1.83-1.664-1.068,1.941-2.7-1.137-1.733-3.508-.152,1.414-2.246-.929-1.483-5.352-1.539-6.988-.444-2.454,1.941,1.068,3.3-13.823.582-1.248,3.119-2.773-.444-1.054-3.591-1.816.4.43,2.218-2.024-1.553h0l-.721.388h0l-2.565,2.5-2.884-1.691-.887,1.761-2.315-1.483-6.308,1.137,1.068-4.326L385.029,250l-.832,1.955-1.636-.36-.721-1.788,1.886-.957-2.856-2.5-1.789-6.336-2.967-1.262.5-2.87-1.955-.721.485,1.553-3.2,1.386-2.121-4.3-2.967.458,2.44-3.535-1.192-.6,1.054-3.119-2.4-1.317.568-1.428-4.811-5.7-2.149-.846-2.2,1.525-.8-2.731h0l-1.816-7.778,3.133-.929-1.8-3.244,4.284-1.192-.929-2.5,2.828-1.678-.707-1.289,3.341-1.026-2.26-1.414.8-1.165-4.783.97.984-8.928-4.242-1.761,2.814-2.773-2.3-1.594,4.825-.458-.111-3.327h0l2.468-5.227,2.44-.222.194-2.163,1.691-.305-.749-1.511,5.047-4.714-1.553-2.537-3.771.541.1-2.038,2.953-1.483-2.149-3.716,1.234-2.7,4.769.721,2.5-1.456.042-1.955-1.969.374-.915-2.634-.957.86-1.636-1.386,1.4-1.927-1.9-6.932,7.639-3.771,4.229,1.012.25-3.119,3.924-2.343,2.066,2.593L393.2,131.9l.083-6.891,1.761-.638-1.567-5.421,2.191-1.567-1.705-1.8,1.622-2.329-3.133-4.506,1.012-1.4,4.256.416.652-3.993,3.383-1.858,3.73-5.157-2.523-2.038,2.717-7.861.139-3.175-2.19-.873.832-4.021h0l4.478-.929,7.847,2.828,8.721-4.395,5.449-.79-.735-6.308,1.276-2.579,7.029-6.558Z" transform="translate(131.181 23.208)" fill="#ccc" stroke="#fff" stroke-width="0.5"/>
      <path id="FR-H" d="M583.213,601.974l1.677-3.716,3.924-.4,2.482-3.133-5.975-2.038-1.761,1.109-.388-3.175-3.91,1.511-.139-1.359-2.634-.1,4.132-2.773-1.068-1.983,3.438-.721.679-1.608-1.885-.97,2.163-.416-.568-2.5,1.414-.971-3.161-2.925-1.678,1.941-6.405,1.1.887-3.175-1.761-2.329,3.217-.263.679-3.383,5.019-2.87-2.731-4.839-2.343.915-2.717-2.648-1.8.513.25-1.816-1.594.458,2.066-1.747-1.872-.25L572,554.767,569.64,552.3l8.915-2.274-1.983-2.773-3.216-.25.61-3.424-3.577,1.234-.471-3.2,3.7-.873-.194-2.315,2.856.083-.388-2.107,1.816-2.066-1.788-.749,1.026-2.884,3.092-.749-.8-3.438,1.123-1.178.1,1.816,1.594-.79,1.941,1.386.763-3.8,3.729-.458,3.757-2.981,4.769.416,2.606-1.567-.152-2.745,3.854-2.745,5.587-.291,4.423,4.575,2.648-4.631-.139-4.6-1.9-2.981,1.775-2.551-1.054-2.676,2.26-1.885-1.22-5.476,4.783-1.359,2.329,1.955L624.5,508l-2.7,10.287,4.991,9.9,1.5,27.382-.541,7.112-7.9,11.577-1.456,23.652-2.537,1.026.721,1.178-2.676-.9-1.691,2.468.513,1.636,1.761-2.3,2.939.818-1.483,2.7-4.007,2.191.277,5.074-3.189,1.664-.8,2.232,3.244-1.137-.347,1.123-2.218,3.619-2.371.18-1.317-2.149-3.66-.139,1.567-3.327-2.911-.5.541-2.815-2.3,1.872-2.357-2.551-.873,1.234-3.632-1.165-2.537-2.69-1.927.5.638-2.232-3.827-.679.984-1.47Z" transform="translate(213.912 190.113)" fill="#ccc" stroke="#fff" stroke-width="0.5"/>
      <path id="FR-I" d="M469.556,203.96l2.787-4.409,1.567.79-1.858,2.579,1.248.194,3.064-1.761,2.135-4.034,5.49-1.359h0l.139.1h0l.638,4.437L487.954,203h0v.444h0l10.648-2.454,2.648,1.622,2.468,4.811,7.2-5.171,2.468,3.6,10.9,7.015h0l1.733,3.369,4.256.984,5.559,4.1.541,4.353-2.329,5.92,4.644.79,3.286,5.8-.61,1.844h0l-8.61.763,1.081,3.438L530.281,246l-3.521,6.793,7.9-1.705,1.872.9.388,2.412-2.607.776-.79,2.537-3.078.638.707,3.771-6.558,5.989,1.012.6-1.151,1.331-7.833,5.643.943,2.62-5.643,4.88-7.168,1.567-3.743,3.882,1.858,3.286-1.913,6.433,1.234,3.119-19.673,16.582,2.662,2.62-4.839,6.877-.458,3.882h0L468.655,344l-8.3.319-.665-4.021-3.868-1.234-.208-1.705-5.989,6.322-3.757.347.1-4.256-2.2.014-.735-2.7-1.178,3.106-2.44-4.963.9-1-4.478-2.565.887-2.759h0l.541-1.4,5.365-1.151.222-2.121-3.549-1.442-.069-3.549,2.648-1.622-.485-2.4,2.62-2.274-2.662-3.951-.153-3.632-1.844-.111,1.761-3.4-3.674-3.771,7.972-2.107-3.632-2.343-.194-2.01-4.021.416-2.024-4.381-1.719.915-.555-4.159,3.674-2.925-2.468-1.165.485-1.886,5.823-2.787,3.119-5.255h0l-.028-.43h0l2.828-11.715,1.8-1.234-2.676-1.123h-.194l1.511-2.08-.665-4.423h0l-.222-.139h0l-2.385.166h-.36l.374-4.908-4.131-1.192,2.371-1.081-1.178-.333.666-1.511,2.842.111,2.8-4.908-3.217-6.35-2.676,3.009-1.289-.887h0l2.191-5.948,6.627.125,2.412-2.939,1.691,3.009,5.407-1.068,1.04-5.3-1.886-2.759.86-3.563,2.911.069,1.1-3.369,3.868.624-.347-1.608,1.65-3.022,1.941.541Z" transform="translate(161.213 75.722)" fill="#ccc" stroke="#fff" stroke-width="0.5"/>
      <path id="FR-J" d="M289.942,120.07l2.08.665-.721,2.579h0l.527-.014h0l1.04,1.705,2.814-.86,4.589,1.983,6.835-1.151,4.547-3.022,5.157,4.1,2.759-1.386.832,2.468,3.022-.749,1.622-2.343,2.523,3.369,1-1.026,3.743,1.151-.333,1.137,1.483-.652,2.523,2.024-.776,1,2.412.568,1.165-2.163,1.788,3.91,2.842-2.509,5.823,4.159,4.27-3.147,2.509,2.315,6.738-1.858,1.081,1.788,1.234-1.788,3.313.555.194-2.787,3.937.957,2.995,4.908-1.345,3.314,4.825,3.48.763,2.939,2.315-.86,1.386,3.549,2.218-1.775.887,4.922,3.6,1.012.887,1.983,1.386-1.275h0l.111,3.327-4.825.458,2.3,1.594-2.814,2.773,4.242,1.761-.984,8.929,4.783-.97-.8,1.165,2.26,1.414-3.341,1.026.707,1.289-2.828,1.678.929,2.5-4.284,1.192,1.8,3.244-3.133.929,1.816,7.778h0l-2.218-.846-.638,2.385-1.664.222-11.23-.25-2.135,2.052-3.23-.9-1.844,4.686,1.844,4.769-2.468,3.688-3.854,2.024-.014,1.747h0l-4.076.6-2.69,2.26-1.178-3.341-2.08,1.317-1.525-1.151,1.026,1.844-2.8,1.886-8.416-1.511-6.655,1.47,2.274-3.508,1.983-.208-.028-5.047-5.379-2.911-1.123-4.825-2.606.679-1.8-2.177-1.373,1.22h0l-.305.568h0l-3.078,1.192.028-2.884-2.454-1.054-1.248,2.828-1.705-.4.679,1.511-10.994.9-.846-1.886L306.3,195.7l-.61-3.286-2.856-.388.139-4.409-3.48,1.442-3.924-2.274-1.483-4.034.652-3.494-4.492-2.038.347-3.244-2.814.028-3.674-4.423.582-2.066-2.024-1.22,2.87-3.827-2.606-1.248.97-6.835-3.022-2.69,1-1.761-3.563-4.367h0l-.5-2.343,1.525-1-2.8.236.471-3.341-1.747-3.452,2.315.25,1.22-3.05.624,1.414h.3l5.546-1.414Z" transform="translate(100.159 46.397)" fill="#ccc" stroke="#fff" stroke-width="0.5"/>
      <path id="FR-K" d="M359.657,405.766l3.3-5.74.4-6.821,1.511-3.036,1.525.319.263-2.593h.333l1.276-3.064,3.466,3.327,2.551-2.038.333-3.868,2.523.707,4.908-3.91,2.537,2.7.1,3.535,3.521,7.182,6.364-1.331.277-4.021,2.094-.444,2.5,2-.374,2.246,4.423-.749,1.012,3.022,2.787,2.925,1.927-.61-.416,1.969,1.483.291h0l2.4,12.076,2.856,1.9,2.052,7.93,4.645,5.365-1.636,1.123.444,5.8,4.714-1.414,7.334,5.74,3.979-5.878,3.785-.652.208,4.492,2.44.582.873-4.423,2.995-.43,8.291,5.865h0l1.359,4.409,1.969.1.818,2.149-.055,8.457,3.8,1.262,3.341,6.114-1.761.083.014,2-9.927,7.681,1.483,1.733-3.147,9.469.873,3.175-5.06-1.719-3.147.79-3.424,5.809,2.634.915-.6,1.83-7.376,4.27-1.151-1.539.568,2.149-4.714,2.288-.61,3.119h0l-5.49-2.038-.915-1.844,1.151-1.789-1.844-1.65-7.764.582-14.252,11.479-4.645,1.345-7.9,9.15.277-1.373-.374,1.276-9.913-1.622.513,1.664-9.247,7.514-5.657,9.137-2.177,7.168.97,3.646-1.83,16.734,1.054,12.755,5.393,1.872-.638,2.62,2.537,3.688-5.088.721-2.62-3.7-4.242.6-1.151-1.3L356,579.013l-4.506-.194-3.522,3.646-2.579-.943-3.383,1.511-1.317,1.428,1.151,3.563-5.476-1.373-2.676,1.983-2.773-.568-2.828-4.132-10.135-3.466-3.189,1.733-2.648-.61-4.034,4.755-3.965,1.1-3.05-2.648-1.691-5.49-3.078.291-3.327-2.953-5.435-.624.541-4.728,2.773-1.442h0l4.755-.485,1.816-2.731,4.2-.139,1.4-3.452,9.552-.152.749-1.4L308.041,556l-4.645,1.4-5.227-1.913.721-1.372-3.854-3.729.929-2.274,6.405-1.414-.36-4.631-2.648-1,1.359-1.719,2.814.125-2.135-3.591.915-1.927-2.523-1.414,1.248-1.373L300.4,527.7l-2.135-1.608-1.456,1.4-2.232-3.48-.014,1.1-3.868-.444-4.353-3.064.915-2.662-2.038-3.826L287.9,511.9l-.776-2.163,5.255.028-.693-4.048,2.911-3.951,2.44,3.674,1.331-1.969h0l.333.028h0l3.743.929,2.8-2.135,2.024,3.147,5.629-1.636,2.551,2.579.388-3.771,2.107-2.232,7.958,3.438,2.038-1.539,10.107.374,3.48-3.092.36-3.633-3.383-4.007,1.733-7.417,4.284,1.206,2.024,2.426,8.693-3.216.929-2.773,3.6-1.511,4.367,1.275.166-11.272,8.624,1.664,2.066-1.262-.8-2.634,1.691-2.523,4.547.042.832-4.395,4.783-3.951.388-2.107L383,452.891l-2.149.652-1.248-2.246-2.052.8-1.816-2,3.424-1.206.749-4.007,2.177-.9-.582-2.5-9.081.818,1.5-3.244-3.993-1.151-.513-2.44-1.8,1.026,1.913-3.66-2-4.423,1.442-6.017-4.492-5.185,1.1-4.534Zm-59.519,173,3.078.818-1.386-3.092Z" transform="translate(104.008 146.471)" fill="#ccc" stroke="#fff" stroke-width="0.5"/>
      <path id="FR-L" d="M272.821,297.192l1.788-.43.541,2.024,4.894-.471.555-1.955,2.343-.4,3.535,4.464,6.364-6.71,1.1,2.842,3.716-2.4,1.1,2.773,3.286-2.523,2.5,2.343,1.788-2.925-.721-2.066,2.038-.527,3.23,2.565,8.041-1.442,6.308,2.759,6.225-1.539,4.825.721h0l.4,3.189,2.676.763-1.816,2.412,3.6,2.731,1.317-1.761,1.941,4.021.582-1.081L347.9,305.9l4.811,10.343-.9,5.726,2.967,4.229.568,5.2-2.717,1.262-.444,3.549-3.688,4.1-1.83-.25h0l-.25.055h0l-3.923,3.369,7.792,9.469-.111,5.587-2.052.111-1.428,3.674,3.244,3.424-1.747,11.064,2.343,2.218-2.745,1.8-7.6-3.424.638,6.142-9.539,9.4.388,3.286,1.816,1.289-3.036,2.315-.374,4.464-4.284,1.8,2.551,4.755-1.913,1.594h0l-.485-.125h0l-2.288.6h0l-4.34.139-2.177,1.775-2.288-2.052-6.1,4.45-2.967-1.179-5.989-7.4-5.8-.1-.444-1.414-5.185,2.191h0l-4.035-6.946,1.955-1.608-5.962-.665-3.064-2.648h0l.291-.042h0l1.678-1.83-3.535-1.275,2.884-4.048-2.911-1.5.541-4.035,1.636-.083,3.411-4.561-3.91-1.9,2.121-2.537-9.941-3.466,2.62-4.09-2.911-1.8-1.747,1.373-3.882-6.53-6.96.79-1.636-1.775-3.258,3.924-3.494-3.508,1.345-4.076-3.106-2.315-3.9.6-1.331-1.788h0l4.866-4.284-.18-3.452,4.076,1.04,2.523-7.514-.86-4.021,4.035.735,3.743-3.924-1.276-3.341-2.329-1.844-1.5,1.151-2.523-2.648,1.178-3.785-1.414-2.232,2.135-1.165-3.106-6.211,3.341-1.553,2.967-4.755,5.934.693,2.468-6.849,4.686,1.248,1.581-3.494Z" transform="translate(87.029 112.536)" fill="#ccc" stroke="#fff" stroke-width="0.5"/>
      <path id="FR-M" d="M448.546,96.94l2.121,2.925,1,6.17,4.825-2.842,3.161,2.01,1.775-3.785,5.962,1,1.567-2.149,3.688,1.816,1.816,3.882,5.615.471.887,3.757,3.452.305,1.8-1.719,1.553,1.192,1.553-3.494,6.433-1.844,7.237,4.769,3.688-1.456,7.362,4.852-.971,1.678,3.521,3.23-1.941,1.636,5.92,5.906-.527,1.858,1.65.8.374,2.967,1.622-.208L523,133.389l1.553,2.024,5.573.97,1.525-2.426-1.372-2.8,5.768-.887,5.476,2.828,1,6.738,2.745-3.646,3.327,3.106,5.116-.832,2.759,1.317,1.858-2.509,2.094.028.139-2.468,4.589-1.068-.513,1.664,3.355-.374,1.969,6.253,5.948,2.121.319,1.691h0l-3.355,8.443-2.4,2.149-4.88-3.147-7.265,2.191-2.024-1.068.194-1.594-9.677-2.8-1.622-6.253-1.775,1.054-2.024,9.552-2.412-.444-.679,2.454-2-.014.624,3.48,5.407,1.65.111,1.359,2.565-.305-2.537,1.608.055,2.454,2.135.388-.624,2.343,2.773-1.525,1.553-3.771,6.142,2.01-.624,1.248,3.785,3.535-4.159,6.544,1.331,2.579,2.246.208-4.963,9.344-3.064,2.149-5.767.277,3.965,2.3-2.551-.5,1.58,2.523-1.858,6.585,1.345,1.788-1.858,2.177,2.357,1.65,3.632-.555,1.109,2.537-8.041,14.225,1,3.078-4.409,7.57-3.258,1.872-1.844,6.891,1,.818-1.885,1.622,1.331,3.508-4.8,2.371h0l-10.9-7.015-2.468-3.6-7.2,5.171-2.468-4.811-2.648-1.622-10.648,2.454h0v-.444h0L490.6,239.3l-.638-4.437h0l-.139-.1h0l-5.49,1.359-2.135,4.034-3.064,1.761-1.248-.194,1.858-2.579-1.567-.79-2.787,4.409h0l-2.177-4.256-3.424,1.983-.624-6.932-3.147-.887-1.47-2.814-3.951-.749,2.454-1.969.568-6.114,2.828-1.608L464,216.3l-2.648-.665.707-2.26-2.426-2.066-1.3,1.539-3.7-6.378-2.606-.721L449,207.9l.873-4.145-2.787-1.026,4.353-2.759-8.083-7.473-6.682-1.622-5.338-5.823-2.759-.042-.8-3.161-3.355,1.47.624-10.994-6.877-4.936,2.69-3.827-1.442-2.246,1.234-4.09h0l.25-.25h0l4.492-1.858,1.331-3.022-2.593-.873,2.288-.818.125-2.662-1.594-1.054-2.5,1.234,2.246-4.132-3.743-10.19,3.036-2.121-2.357-2.468,5.726-3.258.333-1.733-1.8-1.414,1.664-5.06,2.717-.957-1.386-2.149,2.2-1.483-.236-3.4-2.995-3.771,1.691-3.161h0l.1-.527h0l1.289-4.409,1.775.139,1.165,2.454,4.1-.568,1.581,2.44,7.681-6.613h0Z" transform="translate(155.382 36.918)" fill="#ccc" stroke="#fff" stroke-width="0.5"/>
      <path id="FR-N" d="M213.981,513.773l.333.222h0l1.428,3.494-2.4,1.719-1.081-2.426,1.123-2.676h0l.4-.3h0Zm1.691-4.742.333,4.95h0l-.957-.236h0l-1.386-1.331,1.678-.679-.222-2.981h0Zm88.037-132,5.185-2.191.444,1.414,5.8.1,5.989,7.417,2.967,1.178,6.1-4.45,2.288,2.052,2.19-1.775,4.326-.139h0l2.385,4.478-.679,3.8,4.631,6.849-2.412,7.431,1.691.069.679,4.6,1.927,1.678.735-2.607,4.506-1.47,1.83-.166,1.47,2.412,7.57-.818.9-3.078,3.494-2.509-.582-2.69,2.911-3.133.236-4.339,7.625-7.736,2.149,2.371-.083,4.547,4.991-1.5,1.65,6.877,1.858-.361.957,1.581-1.47,1.026,1.456,6.572L392,407.379h0l5.975,6.863-1.1,4.534,4.492,5.185-1.442,6.017,2,4.423-1.913,3.66,1.8-1.026.513,2.44,3.993,1.151-1.5,3.244,9.081-.818.582,2.5-2.177.9-.749,4.007-3.424,1.206,1.816,2,2.052-.8,1.248,2.246,2.149-.652,3.424,2.579-.388,2.107-4.783,3.951-.832,4.395-4.547-.042-1.691,2.523.8,2.634-2.066,1.262-8.623-1.664-.166,11.272-4.367-1.276-3.6,1.511-.929,2.773-8.693,3.216-2.024-2.426-4.284-1.206-1.733,7.417,3.383,4.007-.36,3.632-3.48,3.092-10.107-.374-2.038,1.539-7.958-3.438-2.107,2.232-.388,3.771-2.551-2.579-5.629,1.636-2.024-3.147-2.8,2.135-3.743-.929h0l-.333-.028h0l-1.331,1.969-2.44-3.674-2.911,3.951.693,4.048-5.255-.028.776,2.163-2.676,3.216,2.038,3.827-.915,2.662,4.353,3.064,3.868.444.014-1.1,2.232,3.48,1.456-1.4,2.135,1.608.638,3.466-1.248,1.372,2.523,1.414-.915,1.927,2.135,3.591-2.814-.125-1.359,1.719,2.648,1,.36,4.631-6.405,1.414-.929,2.274,3.854,3.729-.721,1.373,5.227,1.913,4.644-1.4,5.282,5.49-.749,1.4-9.552.152-1.4,3.452-4.2.139L328,570.921l-4.755.485h0l.333-1.068-3.84-.18.568-2.08-7.861-.763-2.8-2.274-4.062.319-.125,2.911-2.315.887-4.645-9.067-7.223-.665-3.522,1.5-5.185-6.225-5.49.139-1.359-1.5-1.969,1.289L261.2,548.96l-2.842,1.747.638,2.662-1.456,1.705,1.248.6-1.414,1.594,2.066,2.218-.139,2.759-4.52-1.137-10.065,1.165-3.591-2.593-3.785,3.951-2-3.3-4.8-1.65-10.259,4.062-3.147-.568-.679-1.969-2.509-.652-2.759-5.629-1.581.86-7.2-4.88h0l-.818-5.31,2.662-1.3-.388-5.587,1.567-2.5,4.645-1.151-.749-4.894,2.7-1.151,1.65-4.021,2.856.236-.305-3.618,1.373.333,1.844-4.09-1.664-2.44,4.367-3.535-1.913-2.052.166-5.768-3.827,2.717.083-4.118,2.731-.707-2.759-6-1.567.374-.166-3.05-4.645-1.137-3.535,1.081-.5-2.62-1.858-.208-.125-1.955,2.288-.929-.444-4.159,3.175-2.385-1.83-5.629,1.9-.139-.873-3.8,1.276-.846-3.064-2.329,3.452-3.314,4.811.86,3.424-4.45,2.482,2.412-1.594,1.983,4.6,2.62.984-1.636-1.178-3.563,4.1-3.216,1.705,2.3,2.024-3.369,2.26-.555,4.007,2.5.818-1.5,7.362-1.567,1.081-2.177,5.462.069,2.135-2.01,4.076,4.464,4.395-2.981,1.012-3.646,2.385-.291-.513-2.593,4.2,1.359,1.844-.9-.5-2.967-1.844-.721,3.064-.527,2.537-6.682-4.686-2.856,1.553-5.684,1.386-.236,1.206,3.119.61-1.317,6.308-.319-.333-4.894-2.177-1.442-.028-4.922-2.038-2.995,1.941.568,5.116-2.925-.555-1.622,3.4-3.66-.347-2.5,4.34-1.109,5.3-4.561-1.012-4.506,3.9-1.22-.236-2.634,4.506-2.884-1.608-2.579,1.664-.485-1.622-6.225h0l-.236-.957h0Z" transform="translate(71.696 144.844)" fill="#ccc" stroke="#fff" stroke-width="0.5"/>
      <path id="FR-O" d="M337.649,3.106l.735,4.8,3.341,5.033-2.4,2.523.541,6.378,2.052,3.383,5.047.194,4.1,7.819,3.009.139,3.438,2.787,2.648-5.421,11.424-3.452,2.3,5.878,3.993,2.135-1.234,3.951,3.009,12.076,4.866,2.995,4.1-1.386,1.581-2.412,2.537.873-1.054,3.272,6.211-.79,2.995,3.549-.1,7.806,2.87,5.8,2.274-4.145,5.906-.083,2.981,2.26,7.057-2.884,2.981,4.326,2.343.665,1.192,4.09,1.705-.028-.277-2.773,2.662,1.539.735,1.733L429.181,79.3l.25,4.464L427.9,86.415l4.132.055,1.733,5.7-4.034,1.886-1.054,6.114h0l-3.216.943-6.142-2.163.1-4.534-5.449,3.106L413.084,95l-9.067-2.884-2.925,1.428-.25,2.149-2.62.4-4.034-2.648-3.05,3.272-7.32-1.664-1.969,1.858-2.967.139-1.1-1.622L372.823,97.3l-4.506-3.688-4.6-.568-2.5,1.567-2.925-.665-3.244,2.551-.36-5.088-6.364,3.009,1.913-6.031-2.939-1.3-1.289-.1-.208,4.1-7.362-2.87.111-2.4-1.456-.236-1.109,2.579-1.068-2.426-1.927.236L329.4,90.533l-2.454-1.983.679-3.937,6.156-3.66-2.509-3.216-2.593-.374-2.745,2.523-1.511-2.911-.3,2.329-3.286-1.414-6.946,3.452-1.151-1.733-2.551.8-.513-4.617-7.5-3.2-.832-1.04,1.927-1.983-1.04-.86-2.232,1.761-5.962-4.423-8.041,2.773-1.345-2h0L279.6,62.472l1.858-12.422,2.787,2.26-3.383-5.06-.79-14.183.236-1.331.527,2.177,1.04-1.428,1.137-6.475-1.872-6.128,4.617-1.359,4.811-5.31,7.251-2.357-1.691-.319,14.613-3.771.735.943,3.05-3.133-.638,1.636L315.661,7.9l.957-3.327.471,1.068,8.54-2.925,1.594,1.151L336.651,0Z" transform="translate(101.836)" fill="#ccc" stroke="#fff" stroke-width="0.5"/>
      <path id="FR-P" d="M135.049,88.51l2.745,1.844,2.024-1.054,1.581,2.426,11.882,2.814L153,96.593l.721-1.955,6.974-.984.8-2.551,11.979.069,2.08,7.916-1.5-.527-1.012,3.688.028-1.234-1.483.277-.665,3.064,8.221,12.422-2.01,6.405,2.7-2.468,2.246,1.65,2.371-4.048,6.294-.665,12.09,4.27,20.8,1.4,6.613,3.563,2.066-.735,1.192,1.788,12.741-3.882,7.39-6.738,5.56-2.343-6.488-.277,10.038-.153h0l2.343,8.18-1.691,2.121,1.608,1.705-.8,1.151,3.064-1.206,1.206,1.026V129.4l-3.632,1.4,4.256,3.314-.541,4.963,2.759,1.123-1.872,3.022,1.1,2.7-3.009,1.983,4.631,3.244-3.674,9.067,3.979,2.911,5.629.388,1.719-1.622.513,1.83,1.5-.513-.305,2.01,1.511.028-1.553,1.941,8.485,5.657.915,2.579-2.648,2.676,2.4,1.012.111,2.246,2.579-.042h0l.208,5.033,8.485,7.667-1.761,4.076,2.3,3.119-3.549,5.865-8.3,4.353-.846,1.969,2.925.9-1.04,2.426,2.426,4.076-1.872,1.664h0l-3.438.513-4.852-6.516-.846,2.648-5.948-1.359-2.648-5.3-.582,1-5.019-2.01-.568-8.9-4.686-4.852-9,2.01.721,1.386-4.936,2.842-.763,2.676-3.4-1.705-2.884,1.969.014-6.627-5.532-.5-1.553-4.645L238,193.586l-3.563-3.092-2.412-.055.444,2.426-1.733,2.509-2.87-1.3-1.844,3.314-2.509-2.232-6.516.083-2.371,3.106-5.768,2.509-.693-3.563-1.456,1.47-2.385-.444.97,2.038-2.662,1.206-1.081-2.537-2.01.873-1.816-3.813-3.66.236-2.69-1.788-2.787,2.426-3.771-1.636h0l-10.578-3.092-5.767,6.5-3.882.693-3.868-2.44-4.8-12.6h0l3.424,1.248.069-1.525,1.178,1.289,3.729-1.747,4.145.915-3.341-2.329,1.456-1.428-3.521,1.775-7-7.986-.25-6.516-2.3-1.165,4.229-8.443-1.262-.818.291-7.445,3.05.527-3.216-1.553-1.026,3.327-1.248-3.341-.86-15.764,2.69-.263L153.46,132l-.707,2.177-4.631-10.5-5.906-3.882-2.2-11.59-2.288-2.676,2.717-3.258-.458-5.338-1.539-2.468L134.3,93.057Z" transform="translate(45.69 34.202)" fill="#ccc" stroke="#fff" stroke-width="0.5"/>
      <path id="FR-Q" d="M293.37,66.953l4.1-.513.208,2.731L312.628,82.8l1.276,6.391,2.981,4.672-2.107-.083-3.466,6.086.984,1.248,2.606-1.248-3.119,4.492,1.373,1.858-1.178,3.619h-.25l3.009,3.924-1.788,3.036,1.581,1.275.846-1.969,1.775.693-1.054,2.995h0l-.555.36h0l-2.787,5.157,1.483.153-1.054,1.081,2.274,2.412.652,6.572,1.816,1.511-.86,2.509-1.788-2.315-2.8.679-.319,2.9h0l-4.686,12.8-5.546,1.414h0l-.305.014h0L301,153.618l-1.22,3.064-2.315-.25,1.747,3.452-.471,3.327,2.8-.222-1.539,1,.513,2.343h0l-3.064,1.456.707,4.52-5.657,3.258.6,4.645-2.3,1.747-6.322.277-5.823-2.731-.347,3.729-2.995-1.026-3.092,2.87h-1.192l-6.475.846-.735,2.412-2.773,1.553h0l-2.579.042-.111-2.246-2.4-1.012,2.648-2.676-.915-2.579-8.485-5.657,1.553-1.941-1.511-.028.3-2.01-1.5.513-.513-1.83-1.719,1.622-5.629-.388-3.979-2.911,3.674-9.067-4.631-3.244,3.009-1.983-1.1-2.7,1.872-3.022-2.759-1.123.541-4.963-4.256-3.314,3.632-1.4v-1.872l-1.206-1.026-3.064,1.206.8-1.151-1.608-1.705,1.691-2.121-2.343-8.18h0l.568-1.567-1.359,1.054-9.053-2.787L217.88,116.3l4.977-12.006-1.678-2.232,1.816.832,2.981-4.644,7.473-2.995,14.377-9.76,10.7-1.636L269.3,79.292l3.4.984,3.757-1.691.582,1.581-.374-1.747,6.17-2.939Z" transform="translate(77.987 25.673)" fill="#ccc" stroke="#fff" stroke-width="0.5"/>
      <path id="FR-R" d="M126.293,293.278l2.274,1.594-.818,2.842,4.312,2.177.416,4.589-3.369-5.338-3.064-.125-2.232-2.676-.388-2.814ZM194.588,166.92l3.771,1.636,2.787-2.426,2.69,1.788,3.66-.236,1.816,3.813,2.01-.873,1.081,2.537,2.662-1.206-.97-2.038,2.385.444,1.456-1.47.693,3.563,5.768-2.509,2.371-3.106,6.516-.083,2.509,2.232,1.844-3.314,2.87,1.3,1.733-2.509-.444-2.426,2.412.055,3.563,3.092-1.622,1.511,1.553,4.645,5.532.5-.014,6.627L256.1,176.5l3.4,1.705.763-2.676,4.936-2.842-.721-1.386,9-2.01,4.686,4.852.568,8.9,5.019,2.01.582-1,2.648,5.3,5.948,1.359.846-2.648,4.852,6.516,3.438-.513h0l6.793,4.769-3.729.471-.555,2.537-1.608.374,1.83.4-.125,1.913-2.842.208.208,2.87,2.579.638-1.359,3.743L305,215.93l-1.927.679-.236,3.743-1.234-2.01-1.664.957.458,5.865-4.381,4.173.541,1.386-4.312,1.289-2.357,2.9.582,2.509,1.331-.4-1.3,1.8-7.611,2.288-.846,2.191-3.8-2.08-1.081,2.038,2.218,3.494-1.123.721-8.707-2.967h0l.069.721h0l-2.288,4.88,1.844,1-.263,2.315-3.951,8.54,1.691,1.511-6.045,8.471-1.317,9.927h0l-2.052-.929-1.525,1.262-1.678,6.211-2.884-1.192-2.482,3.923-2.87-1.359,2.107-2.8-2.385-.416-1.178,1.192-3.521-.971-7.528,1.22-.638,2.066-4.242,1.123,1.248-2.371-2.024-.166-3.549,1.636.735,2.662-3.175,2.995-4.1-.527-2.537,1.622-4.187-1.8-3.743,2.995-2.509-.388,1.872,1.054-.846,1.359,1.747.055-.665.915,2.981,1.123-1.331,3.036,3.2,3.771h.236l2.288,1.539h.4l1.511.984-1.151,1.068h0l.055.347h0l-.139,3.119,3.66,4.617L217.048,322l2.454,1.913-1.248,2.26,2.468,1.22-.749,3.854,1.345,3.591-2.509,1,2.26,5.462-1.886,4.783,1.206.527.846-1.858,3.827,2.412-6.225,5.67-2.9-.707-1.386,1.941-6.073-2.939h0l-.25-.36h0l-1.081,2.052-2.107-.776-2.579,1.373-1.705-1.026,1.816-4.034-7.126,1.761-1.22,2.7-2.357.055h0l-4.936.139-.236,3.743-6.308-5.324L181.556,355l-2.759-4.242-7.154-.014-2.69-5.116-7.736-1.345-9.469-6.225-2.5-9.705-5.241-7.32-11.175-10.412-.568-5.657,2.385-.208-.513-1.428L139.1,298.3l.277-3.4,2.911-1.678-6.96-7.251-8.485-1.511,4.658-3.009-.291-8.083-2.315-.5-5.047,3.161-4.381-3.84-3.23,1.691-6.516-2.69,2.08-1.553.166-2.509-3.092-3.05,5.8-4.173.028-2.066h0l1.983-2.454,1.248,1.761,4.852-.4,1.081-4.686,3.092,1.844,3.452-1.539,1.234,1.941.36-2.7,3.411-.957.943-9.954,6.253-3.743,1.054,1.913,5.462-3.175,11.521-.083,2.177-4.6,8.582-3.369-.333-2.759,5.213.61,1.428,2.482,6.71,1.927,5.268-16.11,7.972-3.286-3.341-17h0l-.236-.222h0l-1.289-5.421,3.217-5.407-2.066-7.417Z" transform="translate(35.867 62.615)" fill="#ccc" stroke="#fff" stroke-width="0.5"/>
      <path id="FR-S" d="M286.682,47.788l.818.652h0l1.345,2,8.041-2.773,5.962,4.423,2.232-1.761,1.04.86-1.927,1.983.832,1.04,7.5,3.2.513,4.617,2.551-.8,1.151,1.733,6.946-3.452,3.286,1.414.3-2.329,1.511,2.911,2.745-2.523,2.593.374,2.509,3.216-6.156,3.66-.679,3.937,2.454,1.983,3.591-4.561,1.927-.236,1.068,2.426,1.109-2.579,1.456.236-.111,2.4,7.362,2.87.208-4.1,1.289.1,2.939,1.3-1.913,6.031,6.364-3.009.361,5.088,3.244-2.551,2.925.665,2.5-1.567,4.6.568,4.506,3.688,4.963-1.872,1.1,1.622,2.967-.139,1.969-1.858,7.32,1.664,3.05-3.272,4.034,2.648,2.62-.4.25-2.149,2.925-1.428,9.067,2.884.887,2.523,5.449-3.106-.1,4.534,6.142,2.163,3.217-.943h0l5.13,1.83h0l-.832,4.007,2.191.887-.139,3.175-2.717,7.861,2.523,2.038-3.729,5.144-3.4,1.858-.638,3.993-4.27-.416-1.012,1.4,3.133,4.506-1.622,2.329,1.691,1.8-2.177,1.567,1.567,5.421-1.761.638-.083,6.89-4.45-1.511-2.052-2.579-3.924,2.343-.25,3.119-4.229-1.012-7.625,3.771,1.886,6.932-1.386,1.927,1.622,1.386.957-.873.929,2.648,1.969-.374-.042,1.955-2.509,1.456-4.769-.707-1.234,2.7,2.149,3.716L399.48,163.1l-.1,2.038,3.771-.541,1.567,2.523-5.047,4.728.749,1.5-1.691.319-.194,2.163-2.44.222-2.454,5.213h0l-1.386,1.276-.9-1.983-3.6-1.012-.887-4.922-2.232,1.761-1.386-3.549-2.315.86-.763-2.939-4.839-3.48,1.345-3.314-2.995-4.908-3.937-.957-.194,2.787-3.314-.555-1.234,1.8-1.081-1.8-6.724,1.872-2.509-2.315-4.284,3.133-5.809-4.159-2.842,2.509-1.789-3.91-1.165,2.163-2.412-.568.776-1-2.509-2.024-1.5.652.347-1.137-3.743-1.151-1,1.012-2.523-3.355-1.622,2.343-3.022.749-.832-2.468L318,154.057l-5.157-4.1-4.547,3.036-6.835,1.137-4.575-1.969-2.814.86-1.04-1.705h0l-.527.014h0l.721-2.579-2.08-.665h0l.319-2.9,2.8-.679,1.788,2.315.86-2.509L295.1,142.8l-.652-6.572-2.274-2.412,1.054-1.081-1.483-.153,2.787-5.157h0l.555-.36h0l1.054-2.995-1.775-.693-.846,1.969-1.581-1.275,1.788-3.036-3.009-3.924h.25l1.178-3.619-1.373-1.858,3.119-4.492-2.606,1.248-.984-1.248,3.466-6.086,2.107.083-2.981-4.672-1.276-6.391L276.672,76.445l-.208-2.731-4.1.513h0l4.27-3.951,4.062-8.818,2.648-.873,1.109,2.662,4.1,1.1,1.678-1.22-8.6-7.708.943-7.833Z" transform="translate(99.038 18.386)" fill="#ccc" stroke="#fff" stroke-width="0.5"/>
      <path id="FR-T" d="M159.173,341.957l5.3,4.45,4.464.846.1,4.547,2.87,5.7-2.565,4.963-2.191-6.7-6.78-6.017ZM153.225,324.6l2.107,1.941-2.69.388,1.109,2.093,5.074-2.163-1.525,1.372.818,1.026,3.452-.624,6.585,3.827-3.327,1.65-8.776-4.908-4.132.014-1.622-3.452Zm22.7-4.908,2.357-.055,1.22-2.7,7.126-1.761-1.816,4.034,1.705,1.026,2.579-1.372,2.107.776,1.081-2.052h0l.25.361h0l6.073,2.939,1.386-1.941,2.9.707,6.225-5.67-3.826-2.412-.846,1.858-1.206-.527,1.886-4.783-2.26-5.462,2.509-1-1.345-3.591.749-3.854-2.468-1.22,1.248-2.26-2.454-1.913,1.345-1.165-3.66-4.617.139-3.119h0l-.055-.347h0l1.151-1.068-1.511-.984h-.4l-2.288-1.539h-.236l-3.2-3.771,1.331-3.036-2.981-1.123.665-.915-1.747-.056.846-1.359-1.872-1.054,2.509.388,3.743-2.995,4.187,1.8,2.537-1.622,4.1.527,3.175-2.995-.735-2.662,3.549-1.636,2.024.166-1.248,2.371,4.242-1.123.638-2.066,7.528-1.22,3.521.97,1.178-1.192,2.385.416-2.107,2.8,2.87,1.359,2.482-3.924,2.884,1.192,1.678-6.211,1.525-1.262,2.052.929h0l1.511,3.785,3.452-.5-.305,1.5,1.567.527L250.7,252.8l1.054,2-1.248,2.745,3.84-1.04,1.331,2.44,2-.721.541,4.45-1.22.679,1.858,5.033,2.4-1.581,4.215,1.678,3.868-2.468,5.324.139-1.747-4.118,2.87-.111,4.256,2.842.735,5.92,5.282,4.492,1.081,5.074,5.615,5.213.832,2.745-2.024,5.407,1.04,2.357,5.975,2.842.319,2.565,4.2-.028,2.967,2.44.374,4.88,3.522,1.248-.887,2.648h0l-1.054,1.4h0l-1.192-.4-1.581,3.494-4.672-1.234-2.468,6.849-5.934-.693-2.967,4.755-3.341,1.553,3.106,6.211-2.135,1.165,1.428,2.232-1.178,3.785,2.523,2.648,1.5-1.151,2.329,1.844,1.262,3.341-3.743,3.924-4.034-.749.86,4.021-2.523,7.514-4.076-1.04.166,3.466-4.866,4.284h0l-3.729,6.28-3.133.042-.374,6.655-3.189,2.274-1,3.092-2.939.014-2.884,3.577-1.622-1.414.846,1.844-2.357.79-1.65,4.728,1.081,5.906-5.227,2.967L247.973,411l-4.547-1.705-2.745,2-1.567,3.078,1.331.971-2.357,1.04-.416,3.369-2.523-1.872-3.2,2.606-2.717-.388-3.91-1.664-1.234-2.26-1.955.388-1.373-2.315-1.456-.277-1.178,2.149L217.1,413h0l-.069-.361h0l-1.331-7.5-8.055-1.47-1.289-4.09-.471,2.107-6.89-.582h0l-2.288-8-3.716-5.435-8.651-5.587-3.078-5.1-10.481-6.073-1.567.333.665,1.678-.846-1.664-.083-7.681,5.962-1.386-2.606-4.145,3.66-.471,2.3-4.021-1.456-3.092,1.262-.347-.305-2.454-2.08-1.969,3.9.028-2.814-7.625-2.4-.957.818-1.691-2.593-.9,1.359-1.594-3.272.984-1.788-1.525,2.149-3.979,5.185-4.007L174.9,320.9Z" transform="translate(51.873 95.735)" fill="#ccc" stroke="#fff" stroke-width="0.5"/>
      <path id="FR-U" d="M434.513,427.08l.568.638h0l4.035,2.454h0l.042.471h0l-2.745,1.289-2.094,5.435-5.615-.943-.9-3.619,2.094-3.785h0l.5-.887h0l.444-.236h0l.957-.222h0l1.775-1.428h0l.236.61h0l.6.069h0ZM454.7,523.02l1.955-3.286-1.705-1.983,1.594-1.054-3.729-5.213-4.645,2.579-10.273.305-4.6-7.916-2.87-.541-1.511,2.149.693-1.941-1.386.818-1.192-2.815.957,3.494-2.842-1.511,1.9,2.218-3.189,1.248,2.648-.18-.929.943,2.468,1.581,2.218-1.927-4.631,4.173L410.986,511.6l-1.386-1.608,1.872-3.272-3.3-2.371-17.441-.638h0l.61-3.119,4.714-2.288-.568-2.149,1.151,1.539,7.376-4.27.6-1.83-2.634-.915,3.424-5.809,3.147-.79,5.06,1.719-.873-3.175,3.147-9.469-1.483-1.733,9.927-7.681-.014-2,1.761-.083-3.341-6.114-3.8-1.262.055-8.457-.818-2.149-1.969-.1-1.359-4.409h0l.069-4.769,7.944,1.345,1.747,6.877,13.864-6.419,2.8,2.412,2.44-2.565h0l.915-.43h0l-.846,6.655,4.464,1.664,1.123-1.608,2.814,1.941,3.286-.582,1.705,1.123-.111,3.6,3.022.277,1.123,2.593,4.977-1.068,3.466-4.7,2.177,1.885-.485,1.386,2.717.333.236-1.373-2.274-.638,2.482-1.969.014-5.67h-2.274l-.61-2.7-1.65-.444,1.22-2.191-4.686.263-1.525-1.65-1.622,1.054-3.619-2.981-.652-4.035,3.327.471,1.206-1.428-1.927-.846-.374-4.132,8.984,2.232.832-2.3,2.038-.18-3.854-3.341,2.925-5.462-.277-3.216,4.949,1.026,1.165-1.858,2.315.693,2.357-2.981-1.816-1.289,1.622-4.284,3.217,1.054,3.937-1.137L491.4,398.1l-1.775-1.885,3.924-2.5,2.232,1.581,4.464-3.91,6.53,1,2.537-1.775,3.7,1.539.139-6.849-2.038-1.178.069-3.646-6.877-1.414,2.371-8.485,2.787,1.012,2.26-1.234,1.816,4.312,4.963,1.483,2.052-.25-.36-3.078,1.733-1.331,1.8.776,2.094-1.955,3.036,1.206h0l2.44,7.348,4.076.458.388,8.831,6.475,4.464,2.69.513,1.456-1.47,4.991,3.133-1.3,2.773,4.381,8.54-6.558.485.3,4.645-6.461,7.251,1.3,3.882,4.048,4.048-3.2.665-.3,4.742,6.17,6.6.693,3.549,10.384,2.759,5.282,4.839,3.66-.43.832,2.468,3.868.25.347-1.456,10.814-1.539,1.054-2.177,2.717.166-1.012,3.48,2.773,3.771-.527,3.327-2.454,1.1-.61,4.34-4.908,2.579-.5,3.646-3.521,1.858,2,7.182-7.154,5.06-3.868.513-.333,2.884-1.026-2.412-.624,1.678-3.577-.3-1.913,3.05-2.995-.194-2.024,5.241,1.345,2.759-1.386.8-1.317-2.3-3.438,2.828-1.289-1.262-3.064.707-1.484,2.218,1.137,1.345-3.757,5.379-5.865,1.594-2.537-1.123-1.65,5.906-8.152,5.962,7.057.444-1.844,1.872.915,3.411-2.26,1.026.291,1.5-1.5.749-3.424-2.454-3.729,3.009-6.447.513-1.179,4.561-5.171-2.731-5.019.485-2.107,3.9.291,3.022-3.452-.166,1.969-1.206-.291-2.745-5.934.083L492.7,531.56l-4.242.291-.277-1.761-2.3,1.747,3.826,2.7-3.258-.859-1.83,2.537-1.789-.249-2.038-1.483.873-3.646-2.4-.069.319-1.789-4.437-.374-.527-2.842-3.716-.527-1.026,2.093-3.937-4.284-2.107,1.386Z" transform="translate(144.779 143.098)" fill="#ccc" stroke="#fff" stroke-width="0.5"/>
      <path id="FR-V" d="M380.385,307.712l-.5,5.1,4.742.971.957,2.773,6.53-2.44,4.339,2.066,1.691-1.705,1.04,1.386,1.636-.818-.263,2.4,1.47.194,5.6-2.454,1.9-9.123,3.05-.111,2.606,2.454,3.7-2.177,2.87,2.357,1.1-2.953,2.454-.43,1.775,2.288-1.788,1.636,3.258,2.121-.957,3.2,2.246,1.858,1.234-.347,9.275-28.435L440.9,289l1.927-1.165L447,290.4l6.322-1.664.069-1.262,2.2,1.123,1.691,3.965,4.52.97h0l-.887,2.759,4.478,2.565-.915,1,2.44,4.963,1.178-3.106.735,2.7,2.2-.014-.083,4.256,3.757-.347,5.989-6.322.208,1.705,3.868,1.234.665,4.021,8.3-.319L505,296.066h0l6.059,4.09-3.9,6.807,1.289,2.828-8.3,2.856-.887,1.664,1.733,1.248-2.135,4.395,5.435-1.941,4.4,1,9.608-7.071.818-2.565-2.814.388-.735-4.326-1.581-.693,1.844-4.007,15.348-8.069,9.386.194,7.944,2.288-2.842,5.962,5.407,6.183-3.494,6.35-.4,5.476,5.837,1.081-1.317,6.308,3.4-1.345,5.906,9.123.374,2.565-2.745,4.242-4.8,2.579-5.338.319-.763,9.164,6.225,6.073,4.866.97-1.317,4.256,1.331,6.793,3.133.846-.3,1.83,2.911.208.846,2.981,4.187,2.232-4.437,6.405,1.428,5.837-3.757,3.6-3.937-.679-3.23,4.118-3.022.111-.014,2.579-2.537.776-4.672-2.634-7.861,4.034h0l-3.036-1.206-2.093,1.955-1.8-.776L528.9,404.8l.36,3.078-2.052.25-4.963-1.483-1.816-4.312-2.26,1.234-2.787-1.012-2.371,8.485,6.877,1.414-.069,3.646,2.038,1.178-.139,6.849-3.7-1.539-2.537,1.775-6.53-1-4.464,3.91-2.232-1.581-3.924,2.5,1.775,1.886-1.678,1.705-3.937,1.137-3.216-1.054-1.622,4.284,1.816,1.289-2.357,2.981-2.315-.693-1.165,1.858-4.95-1.026.277,3.217-2.925,5.462,3.854,3.341-2.038.18-.832,2.3-8.984-2.232.374,4.132,1.927.846-1.206,1.428-3.327-.471.652,4.034,3.619,2.981,1.622-1.054,1.525,1.65,4.686-.263-1.22,2.191,1.65.444.61,2.7h2.274l-.014,5.67-2.482,1.969,2.274.638-.236,1.373-2.717-.333.485-1.386-2.177-1.886-3.466,4.7-4.977,1.068-1.123-2.593-3.022-.277.111-3.6-1.705-1.123-3.286.582-2.814-1.941-1.123,1.608-4.464-1.664.846-6.655h0l-.915.43h0l-2.44,2.565-2.8-2.412L433.3,474.595l-1.747-6.877-7.944-1.345-.069,4.769h0l-8.291-5.865-2.995.43-.873,4.423-2.44-.582-.208-4.492-3.785.652-3.979,5.878-7.334-5.74-4.714,1.414-.444-5.8,1.636-1.123-4.645-5.365-2.052-7.93-2.856-1.9-2.4-12.076h0l3.577-1.969,1.483-4.714,2.246,1.234-.333-1.719,1.012,1.054,1.622-1.109.374-3.133,7.015-.069,3.924-7.306,5.116-.8-1-3.757,4.8-1.4-1.9-3.244,1.414-2.426,1.581.111h0v-.735h0l-1.442-2.426,2.814.61.735,2.149,1.248-.735-.568-3.4,2.482-5.06-3.147-4.242-2.773,1.511-2.218-1.511,1.248-2.191-2.26-1.331,2.066-1.511-1.885-2.606-3.591.832-2.246-2.537-3.147-.291-1.927.707L395,382.62l-4.173.541-.582,1.83-2.9-1.081-.139,1.733-1.885-3.577-2.163-.347-2.5,3.424-.873-4.977,4.27-3.327,1.234-4.894-2.939-6.752-6.336-4.381-2.7-4.894.208-2.759-5.282-5.449,1.927-1.844-.4-4.658,2.26-1.317-3.549-3.632.444-3.244,4.977-.305,2.5-2.135-1.484-4.478.929-2.911-1.636-1.927.9-4.229-2.343-6.322,6.683-2.884h0l.5-.069h0ZM439.5,459.885h0l-.444.236h0l-.5.887h0l-2.093,3.785.9,3.618,5.615.943,2.094-5.435,2.745-1.289h0l-.042-.471h0l-4.034-2.454h0l-.693-.8h0l-.6-.069h0l-.236-.61h0l-1.775,1.428Z" transform="translate(136.088 111.083)" fill="#ccc" stroke="#fff" stroke-width="0.5"/>
    </g>
    <path id="ic_place_24px" d="M36.5,2A31.477,31.477,0,0,0,5,33.5C5,57.125,36.5,92,36.5,92S68,57.125,68,33.5A31.477,31.477,0,0,0,36.5,2Zm0,42.75A11.25,11.25,0,1,1,47.75,33.5,11.254,11.254,0,0,1,36.5,44.75Z" transform="translate(1279 5429)" fill="url(#linear-gradient)"/>
  </g>
</svg>
