<svg xmlns="http://www.w3.org/2000/svg" width="2200.356" height="814.812" viewBox="0 0 2200.356 814.812">
  <g id="NC-last-Backgound" transform="translate(-37.288)" opacity="0.04">
    <path id="Shape" d="M158.049,0c90.17-.49,155.674,71.774,155.223,161.357s-77.336,173.7-156.857,163.052S-11.311,261.054,1.192,163.055,67.879.492,158.049,0Z" transform="matrix(0.777, -0.629, 0.629, 0.777, 722.533, 561.986)" fill="#707070"/>
    <path id="Shape-2" data-name="Shape" d="M50.623,0C79.5-.15,100.484,22.176,100.34,49.853S75.57,103.518,50.1,100.228-3.622,80.654.382,50.376,21.742.152,50.623,0Z" transform="matrix(0.777, -0.629, 0.629, 0.777, 459.403, 404.045)" fill="#707070"/>
    <path id="Shape-3" data-name="Shape" d="M23.009.005a22.107,22.107,0,0,1,22.6,22.66c-.066,12.58-11.259,24.393-22.837,22.9S-1.647,36.666.174,22.9,9.882.074,23.009.005Z" transform="matrix(0.777, -0.629, 0.629, 0.777, 666.471, 500.692)" fill="#707070"/>
    <path id="Shape-4" data-name="Shape" d="M86.457.18c47.426-3.01,81.592,32.093,85.419,81.455s-38.9,88.954-86.275,82.354S3.479,129.475.181,82.534,39.03,3.189,86.457.18Z" transform="matrix(0.777, -0.629, 0.629, 0.777, 37.288, 331.851)" fill="#707070"/>
    <path id="Shape-5" data-name="Shape" d="M100.818.218c55.293-3.662,95.115,39.217,99.563,99.5S155,208.339,99.773,200.266,4.041,158.094.21,100.766,45.525,3.879,100.818.218Z" transform="matrix(0.777, -0.629, 0.629, 0.777, 197.691, 265.846)" fill="#707070"/>
    <path id="Shape-6" data-name="Shape" d="M100.818.218c55.293-3.662,95.115,39.217,99.563,99.5S155,208.339,99.773,200.266,4.041,158.094.21,100.766,45.525,3.879,100.818.218Z" transform="matrix(0.777, -0.629, 0.629, 0.777, 1517.586, 349.814)" fill="#707070"/>
    <path id="Shape-7" data-name="Shape" d="M25.191.054c13.815-.915,23.766,9.8,24.876,24.861S38.73,52.056,24.93,50.039,1.01,39.5.053,25.178,11.376.97,25.191.054Z" transform="matrix(0.777, -0.629, 0.629, 0.777, 1868.782, 143.541)" fill="#707070"/>
    <path id="Shape-8" data-name="Shape" d="M12.6.027c6.908-.458,11.883,4.9,12.438,12.43S19.364,26.028,12.469,25.024.505,19.751.026,12.589,5.687.485,12.6.027Z" transform="matrix(0.777, -0.629, 0.629, 0.777, 685.468, 15.779)" fill="#707070"/>
    <path id="Shape-9" data-name="Shape" d="M76.717.166c42.075-2.786,72.377,29.841,75.762,75.713s-34.53,82.654-76.557,76.51S3.076,120.3.16,76.677,34.642,2.952,76.717.166Z" transform="matrix(0.777, -0.629, 0.629, 0.777, 666.471, 305.644)" fill="#707070"/>
    <path id="Shape-10" data-name="Shape" d="M25.191.054c13.815-.915,23.766,9.8,24.876,24.861S38.73,52.056,24.93,50.039,1.01,39.5.053,25.178,11.376.97,25.191.054Z" transform="matrix(0.777, -0.629, 0.629, 0.777, 52.424, 478.403)" fill="#707070"/>
    <path id="Shape-11" data-name="Shape" d="M25.075.04C38.941-.74,49.038,10.024,50.3,25.034S39.17,51.952,25.291,49.812,1.168,39.09.069,24.818,11.209.819,25.075.04Z" transform="matrix(-0.454, -0.891, 0.891, -0.454, 990.783, 290.097)" fill="#707070"/>
    <path id="Shape-12" data-name="Shape" d="M157.006,582.255c85.86-.45,142.066-69.793,156.277-156.623S314.266,237.559,314.7,155,251.408-.476,160.049,0-4.969,73.949,3.772,156.625-6.349,338.017,2.358,427.261,71.147,582.7,157.006,582.255Z" transform="translate(1921.699 189.682) rotate(9)" fill="#707070"/>
    <path id="Shape-13" data-name="Shape" d="M116.059,430.4c63.468-.332,105.015-51.591,115.52-115.776s.726-139.025,1.045-200.054S185.842-.352,118.308,0-3.673,54.663,2.788,115.778-4.693,249.863,1.743,315.832,52.592,430.737,116.059,430.4Z" transform="matrix(0.309, -0.951, 0.951, 0.309, 1047.72, 468.11)" fill="#707070"/>
    <path id="Shape-14" data-name="Shape" d="M103.625.224C160.458-3.54,201.389,40.532,205.96,102.493S159.32,214.138,102.551,205.84,4.154,162.494.216,103.571,46.792,3.988,103.625.224Z" transform="matrix(0.777, -0.629, 0.629, 0.777, 206.714, 526.655)" fill="#707070"/>
    <path id="Shape-15" data-name="Shape" d="M37.963.363c19.851,3.509,37.358,16.6,37.249,37.312a37.954,37.954,0,0,1-37.641,37.7C16.891,75.487,3.5,56.618.322,38.067S18.113-3.149,37.963.363Z" transform="matrix(0.777, -0.629, 0.629, 0.777, 1658.85, 549.58)" fill="#707070"/>
    <path id="Shape-16" data-name="Shape" d="M23.008.219c12.03,2.133,22.641,10.064,22.575,22.616A23,23,0,0,1,22.77,45.688C10.242,45.754,2.122,34.318.195,23.072S10.977-1.9,23.008.219Z" transform="matrix(0.777, -0.629, 0.629, 0.777, 1341.893, 632.442)" fill="#707070"/>
    <path id="Shape-17" data-name="Shape" d="M123.688,0c68.673.424,124.639,67.209,125,149.169s-7.231,178.289,1.143,257.77S194.844,564.924,126.148,554.575,1.551,496.8,1.145,405.406L0,147.637C-.4,57.826,55.015-.421,123.688,0Z" transform="matrix(-0.105, -0.995, 0.995, -0.105, 907.65, 396.862)" fill="#707070"/>
  </g>
</svg>
