<svg xmlns="http://www.w3.org/2000/svg" width="2318.096" height="1353.759" viewBox="0 0 2318.096 1353.759">
  <g id="NC-second-Backgound" transform="translate(0 0)" opacity="0.04">
    <path id="Shape" d="M243.036,482.317c138.658.726,239.385-106.411,238.691-239.225S362.806-14.428,240.523,1.354-17.392,95.286,1.832,240.579,104.379,481.591,243.036,482.317Z" transform="matrix(0.777, 0.629, -0.629, 0.777, 303.533, 331.862)" fill="#707070"/>
    <path id="Shape-2" data-name="Shape" d="M50.623,100.51c28.88.151,49.861-22.176,49.717-49.852S75.57-3.007,50.1.282-3.622,19.857.382,50.134,21.742,100.359,50.623,100.51Z" transform="matrix(0.777, 0.629, -0.629, 0.777, 83.944, 426.824)" fill="#707070"/>
    <path id="Shape-3" data-name="Shape" d="M127.706,253.56c72.86.382,125.788-55.941,125.423-125.763S190.641-7.585,126.385.712-9.141,50.094.963,126.476,54.848,253.179,127.706,253.56Z" transform="matrix(0.777, 0.629, -0.629, 0.777, 1250.952, 59.838)" fill="#707070"/>
    <path id="Shape-4" data-name="Shape" d="M50.623,100.51c28.88.151,49.861-22.176,49.717-49.852S75.57-3.007,50.1.282-3.622,19.857.382,50.134,21.742,100.359,50.623,100.51Z" transform="matrix(0.777, 0.629, -0.629, 0.777, 608.339, 752.646)" fill="#707070"/>
    <path id="Shape-5" data-name="Shape" d="M97.714,194.007c55.746.292,96.244-42.8,95.965-96.226S145.867-5.8,96.7.545-6.992,38.328.737,96.771,41.967,193.715,97.714,194.007Z" transform="matrix(0.777, 0.629, -0.629, 0.777, 1609.686, 77.711)" fill="#707070"/>
    <path id="Shape-6" data-name="Shape" d="M50.623,100.51c28.88.151,49.861-22.176,49.717-49.852S75.57-3.007,50.1.282-3.622,19.857.382,50.134,21.742,100.359,50.623,100.51Z" transform="matrix(0.777, 0.629, -0.629, 0.777, 850.779, 143.412)" fill="#707070"/>
    <path id="Shape-7" data-name="Shape" d="M23.009,45.686a22.107,22.107,0,0,0,22.6-22.66C45.543,10.446,34.349-1.367,22.771.128s-24.418,8.9-22.6,22.66S9.882,45.617,23.009,45.686Z" transform="matrix(0.777, 0.629, -0.629, 0.777, 695.225, 817.558)" fill="#707070"/>
    <path id="Shape-8" data-name="Shape" d="M127.581,235.4c47.733.25,76.3-71.543,82.7-129.48S166.111-5.2,104.592.407-.3,46.851,0,104.823,79.847,235.155,127.581,235.4Z" transform="matrix(0.777, 0.629, -0.629, 0.777, 148.145, 35.892)" fill="#707070"/>
    <path id="Shape-9" data-name="Shape" d="M86.457,164.53c47.426,3.01,81.592-32.093,85.419-81.455S132.977-5.879,85.6.721,3.479,35.234.181,82.176,39.03,161.521,86.457,164.53Z" transform="matrix(0.777, 0.629, -0.629, 0.777, 140.943, 893.904)" fill="#707070"/>
    <path id="Shape-10" data-name="Shape" d="M202.664,403.911c111.15,7.361,191.2-78.833,200.14-200.014S311.589-14.453,200.563,1.776,8.124,86.551.422,201.79,91.514,396.551,202.664,403.911Z" transform="matrix(0.777, 0.629, -0.629, 0.777, 2004.626, 0)" fill="#707070"/>
    <path id="Shape-11" data-name="Shape" d="M100.818,200.932c55.293,3.662,95.115-39.217,99.563-99.5S155-7.19,99.773.884,4.041,43.056.21,100.384,45.525,197.271,100.818,200.932Z" transform="matrix(0.777, 0.629, -0.629, 0.777, 493.942, 868.557)" fill="#707070"/>
    <path id="Shape-12" data-name="Shape" d="M100.818,200.932c55.293,3.662,95.115-39.217,99.563-99.5S155-7.19,99.773.884,4.041,43.056.21,100.384,45.525,197.271,100.818,200.932Z" transform="matrix(0.777, 0.629, -0.629, 0.777, 1644.173, 847.622)" fill="#707070"/>
    <path id="Shape-13" data-name="Shape" d="M25.191,50.205c13.815.915,23.766-9.8,24.876-24.861S38.73-1.8,24.93.221,1.01,10.759.053,25.082,11.376,49.29,25.191,50.205Z" transform="matrix(0.777, 0.629, -0.629, 0.777, 1900.412, 1171.158)" fill="#707070"/>
    <path id="Shape-14" data-name="Shape" d="M12.6,25.106c6.908.458,11.883-4.9,12.438-12.43S19.364-.9,12.469.11.505,5.382.026,12.545,5.687,24.648,12.6,25.106Z" transform="matrix(0.777, 0.629, -0.629, 0.777, 701.285, 1318.448)" fill="#707070"/>
    <path id="Shape-15" data-name="Shape" d="M76.717,152.9c42.075,2.786,72.377-29.841,75.762-75.713S117.949-5.472,75.922.673,3.076,32.763.16,76.385,34.642,150.109,76.717,152.9Z" transform="matrix(0.777, 0.629, -0.629, 0.777, 762.795, 929.163)" fill="#707070"/>
    <path id="Shape-16" data-name="Shape" d="M25.191,50.205c13.815.915,23.766-9.8,24.876-24.861S38.73-1.8,24.93.221,1.01,10.759.053,25.082,11.376,49.29,25.191,50.205Z" transform="matrix(0.777, 0.629, -0.629, 0.777, 84.054, 836.296)" fill="#707070"/>
    <path id="Shape-17" data-name="Shape" d="M25.075,50.022c13.866.78,23.962-9.984,25.221-24.994S39.17-1.891,25.291.25,1.168,10.972.069,25.243,11.209,49.242,25.075,50.022Z" transform="matrix(-0.454, 0.891, -0.891, -0.454, 1035.388, 1086.39)" fill="#707070"/>
    <path id="Shape-18" data-name="Shape" d="M76.717,152.9c42.075,2.786,72.377-29.841,75.762-75.713S117.949-5.472,75.922.673,3.076,32.763.16,76.385,34.642,150.109,76.717,152.9Z" transform="matrix(0.777, 0.629, -0.629, 0.777, 448.234, 35.892)" fill="#707070"/>
    <path id="Shape-19" data-name="Shape" d="M157.006,0c85.86.45,142.066,69.793,156.277,156.623s.983,188.074,1.414,270.635S251.408,582.734,160.049,582.255-4.969,508.309,3.772,425.632-6.349,244.241,2.358,155,71.147-.447,157.006,0Z" transform="translate(1830.614 588.988) rotate(-9)" fill="#707070"/>
    <path id="Shape-20" data-name="Shape" d="M116.059,0c63.468.332,105.015,51.591,115.52,115.776s.726,139.025,1.045,200.054S185.842,430.758,118.308,430.4-3.673,375.743,2.788,314.629-4.693,180.543,1.743,114.574,52.592-.331,116.059,0Z" transform="matrix(0.309, 0.951, -0.951, 0.309, 1457.061, 752.646)" fill="#707070"/>
    <path id="Shape-21" data-name="Shape" d="M103.625,206.524c56.833,3.764,97.764-40.308,102.335-102.269S159.32-7.39,102.551.908,4.154,44.254.216,103.177,46.792,202.76,103.625,206.524Z" transform="matrix(0.777, 0.629, -0.629, 0.777, 1470.092, 399.135)" fill="#707070"/>
    <path id="Shape-22" data-name="Shape" d="M37.963,75.016c19.851-3.509,37.358-16.6,37.249-37.312A37.954,37.954,0,0,0,37.571,0C16.891-.108,3.5,18.761.322,37.311S18.113,78.528,37.963,75.016Z" transform="matrix(0.777, 0.629, -0.629, 0.777, 1653.343, 611.993)" fill="#707070"/>
    <path id="Shape-23" data-name="Shape" d="M23.008,45.469c12.03-2.133,22.641-10.064,22.575-22.616A23,23,0,0,0,22.77,0C10.242-.065,2.122,11.37.195,22.616S10.977,47.593,23.008,45.469Z" transform="matrix(0.777, 0.629, -0.629, 0.777, 1336.646, 444.379)" fill="#707070"/>
    <path id="Shape-24" data-name="Shape" d="M205.151,782.048c113.9-.6,206.728-94.62,207.331-210.006s-11.994-251,1.9-362.9S323.171-13.272,209.231,1.3,2.572,82.631,1.9,211.3L0,574.2C-.657,700.641,91.249,782.644,205.151,782.048Z" transform="matrix(-0.777, 0.629, -0.629, -0.777, 1269.526, 667.607)" fill="#707070"/>
  </g>
</svg>
