<svg xmlns="http://www.w3.org/2000/svg" xmlns:xlink="http://www.w3.org/1999/xlink" width="344.233" height="403.635" viewBox="0 0 344.233 403.635">
  <defs>
    <linearGradient id="linear-gradient" y1="0.5" x2="1" y2="0.5" gradientUnits="objectBoundingBox">
      <stop offset="0" stop-color="#1b89ca"/>
      <stop offset="1" stop-color="#2e3792"/>
    </linearGradient>
    <linearGradient id="linear-gradient-2" x1="0" y1="0.5" x2="1" y2="0.5" xlink:href="#linear-gradient"/>
    <linearGradient id="linear-gradient-3" y1="0.5" x2="1" y2="0.5" gradientUnits="objectBoundingBox">
      <stop offset="0" stop-color="#ce2e82"/>
      <stop offset="1" stop-color="#601f5f"/>
    </linearGradient>
    <linearGradient id="linear-gradient-4" x1="0" y1="0.5" x2="1" y2="0.5" xlink:href="#linear-gradient"/>
    <linearGradient id="linear-gradient-5" x1="0" y1="0.5" x2="1" y2="0.5" xlink:href="#linear-gradient"/>
    <linearGradient id="linear-gradient-9" x1="0" y1="0.5" x2="1" y2="0.5" xlink:href="#linear-gradient-3"/>
    <linearGradient id="linear-gradient-10" x1="0" y1="0.5" x2="1" y2="0.5" xlink:href="#linear-gradient-3"/>
    <linearGradient id="linear-gradient-13" x1="0" y1="0.499" x2="1" y2="0.499" xlink:href="#linear-gradient"/>
    <linearGradient id="linear-gradient-14" x1="0" y1="0.5" x2="1" y2="0.5" xlink:href="#linear-gradient-3"/>
    <linearGradient id="linear-gradient-15" x1="0.001" y1="0.5" x2="1" y2="0.5" xlink:href="#linear-gradient"/>
    <linearGradient id="linear-gradient-16" x1="0.001" y1="0.5" x2="1" y2="0.5" xlink:href="#linear-gradient"/>
    <linearGradient id="linear-gradient-17" x1="0" y1="0.5" x2="1" y2="0.5" xlink:href="#linear-gradient"/>
    <linearGradient id="linear-gradient-18" x1="0" y1="0.5" x2="1" y2="0.5" xlink:href="#linear-gradient-3"/>
    <linearGradient id="linear-gradient-20" x1="0" y1="0.5" x2="1" y2="0.5" xlink:href="#linear-gradient"/>
    <linearGradient id="linear-gradient-21" x1="0" y1="0.5" x2="1" y2="0.5" xlink:href="#linear-gradient"/>
    <linearGradient id="linear-gradient-24" x1="0" y1="0.5" x2="1" y2="0.5" xlink:href="#linear-gradient-3"/>
    <linearGradient id="linear-gradient-25" x1="0" y1="0.5" x2="1" y2="0.5" xlink:href="#linear-gradient-3"/>
  </defs>
  <g id="Nos_Formations" data-name="Nos Formations" transform="translate(0 -0.02)">
    <g id="CERTIFICATE" transform="translate(19.751 54.441)">
      <path id="Path_2089" data-name="Path 2089" d="M688.006,334.78c-83.368,67.871-101.368,175.785-105.238,216.776a12.285,12.285,0,0,1-16.782,10.257l-135.3-54.021a7.646,7.646,0,0,1-4.8-7.524c1.549-28.082,13.877-156.641,110.836-231.564A12.3,12.3,0,0,1,548.812,267l137.177,54.757A7.656,7.656,0,0,1,688.006,334.78Z" transform="translate(-400.083 -265.456)" fill="#fff"/>
      <path id="Path_2090" data-name="Path 2090" d="M569.2,562.064a13.006,13.006,0,0,1-4.821-.935l-135.3-54.021a8.317,8.317,0,0,1-5.243-8.182,381.317,381.317,0,0,1,19.674-98.4,321.227,321.227,0,0,1,33.264-69.663,254.6,254.6,0,0,1,58.158-64.011,13.044,13.044,0,0,1,12.754-1.8l137.194,54.77a8.32,8.32,0,0,1,2.2,14.171c-82.683,67.308-100.974,173.7-105,216.31A12.983,12.983,0,0,1,569.2,562.064ZM542.908,265.49a11.694,11.694,0,0,0-7.15,2.433C438.5,343.085,426.582,473.594,425.186,498.994a6.971,6.971,0,0,0,4.386,6.863l135.314,54.018a11.606,11.606,0,0,0,15.858-9.693A389.223,389.223,0,0,1,603.6,451.7c18.759-49.432,46.561-89.387,82.636-118.765l.425.523-.425-.523a6.971,6.971,0,0,0-1.846-11.863l-137.2-54.76a11.6,11.6,0,0,0-4.278-.816Z" transform="translate(-398.723 -264.145)" fill="#262424"/>
      <path id="Path_2091" data-name="Path 2091" d="M349.43,936.285s19.88-24.569,42.668-33.905l8.81,16.678s-23.2,15.183-34.6,33.193l-2.78-14.987Z" transform="translate(-349.43 -687.04)" fill="url(#linear-gradient)"/>
      <path id="Path_2092" data-name="Path 2092" d="M545.983,981.45s-3.711-31.938-17.835-52.82L512,937.527s11.414,25.98,11.472,47.594l10.2-10.932Z" transform="translate(-457.149 -704.433)" fill="url(#linear-gradient-2)"/>
      <path id="Path_2093" data-name="Path 2093" d="M488.659,822.419c1.812-6.336-1.221-12.882-6.778-14.62a9.182,9.182,0,0,0-2.4-.415,10.567,10.567,0,0,0,2.3-1.076,13.079,13.079,0,0,0,4.646-16.229c-2.649-5.709-9.015-7.7-14.228-4.437a11.576,11.576,0,0,0-2.024,1.633,13.555,13.555,0,0,0,1.012-2.554c1.812-6.336-1.221-12.882-6.778-14.62s-11.532,1.991-13.348,8.327a13.584,13.584,0,0,0-.486,2.723,12.286,12.286,0,0,0-.847-2.534c-2.652-5.716-9.032-7.71-14.235-4.447a13.1,13.1,0,0,0-4.646,16.229,11.186,11.186,0,0,0,1.35,2.217,9.567,9.567,0,0,0-2.227-1.012c-5.557-1.738-11.532,1.991-13.348,8.327s1.221,12.885,6.778,14.623a9.445,9.445,0,0,0,2.4.415,10.333,10.333,0,0,0-2.3,1.076,13.079,13.079,0,0,0-4.646,16.226c2.645,5.709,9.019,7.693,14.238,4.423a11.381,11.381,0,0,0,2.024-1.633,13.331,13.331,0,0,0-1.012,2.554c-1.815,6.336,1.221,12.885,6.778,14.623s11.532-1.994,13.347-8.33a13.544,13.544,0,0,0,.486-2.723,12.222,12.222,0,0,0,.847,2.534c2.645,5.712,9.019,7.7,14.232,4.45a13.082,13.082,0,0,0,4.646-16.229,11.344,11.344,0,0,0-1.35-2.217,9.479,9.479,0,0,0,2.223,1.032C480.869,832.494,486.844,828.763,488.659,822.419Z" transform="translate(-393.6 -599.11)" fill="url(#linear-gradient-3)"/>
      <ellipse id="Ellipse_175" data-name="Ellipse 175" cx="22.117" cy="19.492" rx="22.117" ry="19.492" transform="translate(35.652 230.006) rotate(-78.87)" fill="#fff"/>
      <path id="Path_2094" data-name="Path 2094" d="M483.589,870.738a17.855,17.855,0,0,1-5.361-.82c-10.642-3.323-16.482-15.858-13.024-27.947a23.663,23.663,0,0,1,11.212-14.39,18.506,18.506,0,0,1,14.4-1.515c10.638,3.327,16.482,15.858,13.02,27.947h0a23.646,23.646,0,0,1-11.208,14.39,19.034,19.034,0,0,1-9.042,2.335Zm1.869-44.054a17.625,17.625,0,0,0-8.361,2.159,22.246,22.246,0,0,0-10.513,13.523c-3.246,11.34,2.169,23.088,12.072,26.182a17.093,17.093,0,0,0,13.294-1.407,22.232,22.232,0,0,0,10.51-13.523h0c3.249-11.34-2.166-23.085-12.069-26.182A16.534,16.534,0,0,0,485.459,826.683Zm17.693,27.134Z" transform="translate(-425.482 -635.936)" fill="#262424"/>
      <path id="Path_2095" data-name="Path 2095" d="M721.1,358.066q-1.866,1.792-3.695,3.637a5.4,5.4,0,0,0,1.839,8.8l111.038,44.334a5.4,5.4,0,0,0,6.073-1.488q1.562-1.812,3.172-3.6a5.4,5.4,0,0,0-2.024-8.6L726.836,356.959a5.4,5.4,0,0,0-5.736,1.107Z" transform="translate(-592.224 -325.387)" fill="url(#linear-gradient-4)"/>
      <path id="Path_2096" data-name="Path 2096" d="M637.477,469.146,750.6,514.31a5.4,5.4,0,0,0,6.552-2.105q1.228-1.943,2.5-3.873a5.4,5.4,0,0,0-2.5-7.983l-112.978-45.1a5.4,5.4,0,0,0-6.387,1.869q-1.407,1.984-2.787,4a5.4,5.4,0,0,0,2.477,8.03Z" transform="translate(-538.039 -390.513)" fill="url(#linear-gradient-5)"/>
      <path id="Path_2097" data-name="Path 2097" d="M576.014,576.041l113.92,45.478a5.4,5.4,0,0,0,6.876-2.74q.958-2.048,1.954-4.106a5.4,5.4,0,0,0-2.864-7.349L582.033,561.867a5.4,5.4,0,0,0-6.819,2.591q-1.046,2.105-2.065,4.238a5.4,5.4,0,0,0,2.865,7.345Z" transform="translate(-497.315 -461.162)" fill="url(#linear-gradient-5)"/>
      <path id="Path_2098" data-name="Path 2098" d="M674.726,877.413l54.213,21.759a5.4,5.4,0,0,0,7.268-3.819q.5-2.234,1.039-4.508a5.4,5.4,0,0,0-3.239-6.242l-54.365-21.82a5.4,5.4,0,0,0-7.3,3.978l-.9,4.612A5.4,5.4,0,0,0,674.726,877.413Z" transform="translate(-562.73 -660.547)" fill="url(#linear-gradient-5)"/>
      <path id="Path_2099" data-name="Path 2099" d="M528.992,678.3q-.759,2.217-1.474,4.41a5.4,5.4,0,0,0,3.131,6.684l113.957,45.387a5.4,5.4,0,0,0,7.109-3.3q.719-2.143,1.471-4.3a5.4,5.4,0,0,0-3.1-6.782L536.1,675a5.4,5.4,0,0,0-7.085,3.249Z" transform="translate(-467.254 -536.125)" fill="url(#linear-gradient-5)"/>
    </g>
    <g id="ORNAMENT_1" data-name="ORNAMENT 1" transform="translate(41.965 6.576)">
      <path id="Path_2100" data-name="Path 2100" d="M415.283,406.46s-.759,12.146,8.9,17.207c8.469,4.423,7.656,10.743,7.656,10.743l8.752-4.157a17.384,17.384,0,0,0-8.435-11.779,13,13,0,0,1-6.664-12Z" transform="translate(-415.268 -310.578)" fill="url(#linear-gradient-9)"/>
      <path id="Path_2101" data-name="Path 2101" d="M920.37,147.585s12.146.759,17.207-8.9c4.423-8.469,10.743-7.656,10.743-7.656l-4.157-8.752a17.384,17.384,0,0,0-11.779,8.435,13.006,13.006,0,0,1-12.015,6.654Z" transform="translate(-749.949 -122.28)" fill="url(#linear-gradient-10)"/>
      <path id="Path_2102" data-name="Path 2102" d="M457.047,178.746a23.28,23.28,0,0,0-12.372-6.336l-1.754,6.542a17.38,17.38,0,0,1,9.221,4.724Z" transform="translate(-433.59 -155.496)" fill="url(#linear-gradient-9)"/>
      <path id="Path_2103" data-name="Path 2103" d="M1241.8,586.116a23.321,23.321,0,0,0-12.372-6.336l-1.754,6.545a17.35,17.35,0,0,1,9.221,4.724Z" transform="translate(-953.566 -425.42)" fill="url(#linear-gradient-5)"/>
    </g>
    <g id="ORNAMENT_2" data-name="ORNAMENT 2" transform="translate(0 0.02)">
      <path id="Path_2104" data-name="Path 2104" d="M722.324,108.3a6.63,6.63,0,0,0,3.425-3.425l.881-2.024.881,2.024a6.63,6.63,0,0,0,3.425,3.425l2.024.881-2.024.881a6.623,6.623,0,0,0-3.425,3.428l-.881,2.024-.881-2.024a6.623,6.623,0,0,0-3.425-3.428l-2.024-.881Z" transform="translate(-575.417 -102.85)" fill="url(#linear-gradient-13)"/>
      <path id="Path_2105" data-name="Path 2105" d="M292.439,574.58a5.081,5.081,0,0,0,2.622-2.625l.675-1.545.675,1.545a5.088,5.088,0,0,0,2.625,2.625l1.545.675-1.545.675a5.06,5.06,0,0,0-2.625,2.625l-.675,1.545-.675-1.545a5.061,5.061,0,0,0-2.622-2.625l-1.549-.675Z" transform="translate(-290.89 -412.655)" fill="url(#linear-gradient-14)"/>
      <path id="Path_2106" data-name="Path 2106" d="M352.606,652.983a8,8,0,0,0,4.147-4.147l1.066-2.446,1.066,2.446a8,8,0,0,0,4.147,4.147l2.443,1.063-2.443,1.066a8,8,0,0,0-4.16,4.147l-1.066,2.443-1.066-2.443a8,8,0,0,0-4.147-4.147l-2.443-1.066Z" transform="translate(-330.156 -463)" fill="url(#linear-gradient-15)"/>
      <path id="Path_2107" data-name="Path 2107" d="M455.2,266.059a8,8,0,0,0,4.147-4.147l1.066-2.443,1.066,2.443a8,8,0,0,0,4.157,4.147l2.443,1.066-2.443,1.063a8,8,0,0,0-4.147,4.147l-1.066,2.446-1.066-2.446a8,8,0,0,0-4.157-4.153l-2.443-1.063Z" transform="translate(-398.145 -206.626)" fill="url(#linear-gradient-16)"/>
      <path id="Path_2108" data-name="Path 2108" d="M1147.1,258.3a11.29,11.29,0,0,0,5.84-5.837l1.5-3.445,1.5,3.445a11.282,11.282,0,0,0,5.837,5.837l3.445,1.5-3.445,1.5a11.288,11.288,0,0,0-5.837,5.84l-1.5,3.441-1.5-3.441a11.3,11.3,0,0,0-5.84-5.84l-3.442-1.5Z" transform="translate(-855.936 -199.702)" fill="url(#linear-gradient-17)"/>
      <circle id="Ellipse_176" data-name="Ellipse 176" cx="3.853" cy="3.853" r="3.853" transform="translate(298.811 203.374)" fill="url(#linear-gradient-18)"/>
    </g>
    <g id="RIGHT_FEET" data-name="RIGHT FEET" transform="translate(118.076 258.062)">
      <path id="Path_2109" data-name="Path 2109" d="M617.48,1094.452l20.966.739-.111-8.185-21.115-2.686Z" transform="translate(-527.046 -976.52)" fill="#fff"/>
      <path id="Path_2110" data-name="Path 2110" d="M928.037,1197.38h0l-20.966-.739a.675.675,0,0,1-.651-.675l-.26-10.122a.675.675,0,0,1,.759-.675l21.115,2.7a.675.675,0,0,1,.59.675l.111,8.182a.675.675,0,0,1-.675.675Zm-20.308-2.065,19.627.675-.1-6.89-19.751-2.514Z" transform="translate(-816.644 -1078.034)" fill="#262424"/>
      <path id="Path_2111" data-name="Path 2111" d="M993.757,1208.859l3.556-.79-9.727-43.96s-1.886.27-5.041.823a242.337,242.337,0,0,0-27.825,6.411l.857,14.528s15.183,9.268,27.329,17.825c1.258.887,2.5,1.842,3.711,2.868C988.926,1208.519,991.446,1209.369,993.757,1208.859Z" transform="translate(-848.82 -1064.083)" fill="url(#linear-gradient-5)"/>
      <path id="Path_2112" data-name="Path 2112" d="M985.554,1221.7a.676.676,0,0,1-.337-.1c-11.829-7.248-20.8-9.674-20.892-9.7a.675.675,0,0,1,.337-1.306c.091.027,9.255,2.5,21.256,9.852a.675.675,0,0,1-.337,1.248Z" transform="translate(-854.865 -1094.877)" fill="#262424"/>
      <ellipse id="Ellipse_177" data-name="Ellipse 177" cx="4.45" cy="3.998" rx="4.45" ry="3.998" transform="matrix(0.976, -0.216, 0.216, 0.976, 118.826, 107.631)" fill="#fff"/>
      <path id="Path_2113" data-name="Path 2113" d="M998.215,1190.888a4.785,4.785,0,0,1-4.8-3.587,4.918,4.918,0,0,1,3.991-5.668,5.4,5.4,0,0,1,3.806.533,4.386,4.386,0,0,1,1.437,6.5,5.375,5.375,0,0,1-3.222,2.089A5.544,5.544,0,0,1,998.215,1190.888Zm.4-8.04a4.329,4.329,0,0,0-.924.1,3.341,3.341,0,1,0,1.417,6.475h0a4.019,4.019,0,0,0,2.419-1.555,3.037,3.037,0,0,0-1.012-4.538A3.907,3.907,0,0,0,998.62,1182.848Z" transform="translate(-874.389 -1075.604)" fill="#262424"/>
      <path id="Path_2114" data-name="Path 2114" d="M1046.127,1208.859l3.556-.79-9.727-43.96s-1.886.27-5.041.823l5.139,23.206s-10.011,3.772-4.788,15.544c1.259.887,2.5,1.842,3.711,2.868C1041.3,1208.519,1043.816,1209.369,1046.127,1208.859Z" transform="translate(-901.19 -1064.083)" fill="#fff"/>
      <path id="Path_2115" data-name="Path 2115" d="M1043.464,1208.364a9.831,9.831,0,0,1-6.255-2.611c-1.137-.965-2.362-1.917-3.664-2.831a.677.677,0,0,1-.226-.277c-1.788-4.029-2.048-7.608-.779-10.638a11.254,11.254,0,0,1,5.4-5.57l-5.01-22.663a.675.675,0,0,1,.543-.81c3.128-.55,5.041-.823,5.061-.827a.675.675,0,0,1,.752.523l9.731,43.963a.675.675,0,0,1-.513.807l-3.56.786h0A6.749,6.749,0,0,1,1043.464,1208.364Zm1.35-.816Zm-10.321-5.618c1.272.9,2.483,1.842,3.607,2.794,2.179,1.852,4.511,2.618,6.569,2.163l2.9-.641-9.447-42.684c-.7.1-1.984.307-3.711.6l4.983,22.518a.675.675,0,0,1-.422.776,10.039,10.039,0,0,0-5.182,5.085c-1.107,2.632-.871,5.786.688,9.386Z" transform="translate(-899.859 -1062.772)" fill="#262424"/>
      <path id="Path_2116" data-name="Path 2116" d="M647.722,871.437S659.43,863,670.9,871.3c2.642,1.913,11.472,11.765,12.146,18.557.148,1.475-2.362,14.437-1.559,19.232,2.9,17.309,8.84,49.662,8.84,49.662l46.9,13.614-3.789,21.756s-33.74-.219-60.307-3.162a39.38,39.38,0,0,1-10.8-2.449c-.644-.374-2.186-5.1-4.143-12.032C652.118,955,642.03,912.353,642.03,912.353S636.993,875.01,647.722,871.437Z" transform="translate(-640.849 -867.646)" fill="url(#linear-gradient-20)"/>
      <path id="Path_2117" data-name="Path 2117" d="M705.6,1191.755a12.151,12.151,0,0,1,1.566,9.957c-6.151-1.232-10.243-2.132-10.8-2.449-.644-.374-2.186-5.1-4.143-12.032a5.557,5.557,0,0,1,.847-.631C696.876,1184.3,702.467,1186.607,705.6,1191.755Z" transform="translate(-674.894 -1078.394)" fill="#fff"/>
      <path id="Path_2118" data-name="Path 2118" d="M767.5,1026.856a.526.526,0,0,1-.1,0l-51.109-7.76a.692.692,0,0,1-.577-.553l-14.542-77.919a.687.687,0,1,1,1.35-.253l14.461,77.443,50.61,7.676a.689.689,0,0,1-.1,1.373Z" transform="translate(-680.808 -915.462)" fill="#262424"/>
      <path id="Path_2119" data-name="Path 2119" d="M898.146,1197.611a.681.681,0,0,1-.118,0,.675.675,0,0,1-.563-.8l2.841-16.313a.692.692,0,0,1,1.35.236l-2.841,16.317A.7.7,0,0,1,898.146,1197.611Z" transform="translate(-810.874 -1074.624)" fill="#262424"/>
    </g>
    <g id="LEFT_FEET" data-name="LEFT FEET" transform="translate(143.241 239.852)">
      <path id="Path_2120" data-name="Path 2120" d="M827.185,812.084l15.433-14.211-5.83-5.743L819.88,805.062Z" transform="translate(-686.494 -764.704)" fill="#fff"/>
      <path id="Path_2121" data-name="Path 2121" d="M1116.751,914.27a.676.676,0,0,1-.469-.186l-7.3-7.025a.67.67,0,0,1,.057-1.022l16.907-12.929a.675.675,0,0,1,.88.054l5.834,5.736a.675.675,0,0,1,0,.975l-15.433,14.211A.675.675,0,0,1,1116.751,914.27Zm-6.272-7.639,6.282,6.039,14.444-13.3-4.909-4.832Z" transform="translate(-976.057 -866.216)" fill="#262424"/>
      <path id="Path_2122" data-name="Path 2122" d="M1196.9,843.158l1.977-3.06-37.826-24.428s-1.154,1.518-3.006,4.126a248.42,248.42,0,0,0-15.3,24.107l10.82,9.734s17.322-4.089,31.962-6.525c1.518-.253,3.074-.449,4.653-.567C1193.228,846.316,1195.617,845.135,1196.9,843.158Z" transform="translate(-998.573 -814.996)" fill="url(#linear-gradient-21)"/>
      <path id="Path_2123" data-name="Path 2123" d="M1168.307,894.753a.675.675,0,0,1-.337-1.259c.081-.047,8.34-4.724,22.035-7.932a.675.675,0,1,1,.31,1.313c-13.5,3.158-21.594,7.76-21.678,7.791A.676.676,0,0,1,1168.307,894.753Z" transform="translate(-1015.061 -861.291)" fill="#262424"/>
      <ellipse id="Ellipse_178" data-name="Ellipse 178" cx="4.45" cy="3.998" rx="4.45" ry="3.998" transform="matrix(0.543, -0.84, 0.84, 0.543, 153.647, 20.105)" fill="#fff"/>
      <path id="Path_2124" data-name="Path 2124" d="M1178.109,863.837a4.356,4.356,0,0,1-2.362-.675,4.447,4.447,0,0,1-1.967-3.091,5.482,5.482,0,0,1,3.9-6.043,4.386,4.386,0,0,1,5.58,3.583,5.4,5.4,0,0,1-.823,3.752h0a5.246,5.246,0,0,1-4.332,2.473Zm.82-8.641a3.461,3.461,0,0,0-.9.122,4.136,4.136,0,0,0-2.925,4.528,3.124,3.124,0,0,0,1.35,2.169,3.581,3.581,0,0,0,4.842-1.37h0a4.011,4.011,0,0,0,.624-2.8,3.118,3.118,0,0,0-1.37-2.169A2.972,2.972,0,0,0,1178.929,855.2Zm2.952,5.817Z" transform="translate(-1019.098 -840.295)" fill="#262424"/>
      <path id="Path_2125" data-name="Path 2125" d="M1226.945,843.158l1.977-3.06L1191.1,815.67s-1.154,1.518-3.006,4.126l19.964,12.9s-4.467,9.721,7.521,14.421c1.518-.253,3.074-.449,4.653-.567C1223.271,846.316,1225.659,845.135,1226.945,843.158Z" transform="translate(-1028.616 -814.996)" fill="#fff"/>
      <path id="Path_2126" data-name="Path 2126" d="M1214.253,846.464a.676.676,0,0,1-.246-.044c-4.1-1.6-6.805-3.958-8.044-7.021a11.231,11.231,0,0,1-.071-7.76l-19.5-12.6a.672.672,0,0,1-.182-.958c1.835-2.588,3.006-4.13,3.037-4.143a.675.675,0,0,1,.9-.159l37.819,24.428a.675.675,0,0,1,.2.935l-1.977,3.06h0c-1.38,2.133-3.944,3.445-7.227,3.691-1.485.111-3.037.3-4.6.563Zm-26.51-28.176,19.37,12.514a.675.675,0,0,1,.25.85,10.187,10.187,0,0,0-.115,7.257c1.07,2.642,3.455,4.724,7.085,6.185,1.539-.253,3.064-.435,4.528-.547,2.851-.216,5.061-1.309,6.195-3.077l1.609-2.493-36.729-23.723C1189.511,815.825,1188.755,816.871,1187.743,818.288Zm37.89,23.547Z" transform="translate(-1027.287 -813.673)" fill="#262424"/>
      <path id="Path_2127" data-name="Path 2127" d="M716.461,865.22s5.378-13.189,18.031-11.165c3.222.516,19.137,3.877,24.4,8.229s49.26,35.09,49.26,35.09l42.924-23.281,12.6,18.135s-24.161,23.567-45.117,40.151c-4.919,3.894-8.772,5.685-9.4,5.847-.722.186-5.142-2.092-11.4-5.648-19.414-11.006-56.565-34.25-56.565-34.25S709.383,870.719,716.461,865.22Z" transform="translate(-715.433 -840.29)" fill="url(#linear-gradient-5)"/>
      <path id="Path_2128" data-name="Path 2128" d="M972.047,1068.023c3.829.958,6.812,3.283,8.1,5.982-5.24,3.448-8.772,5.685-9.4,5.847-.722.185-5.142-2.092-11.4-5.648a5.857,5.857,0,0,1,.159-1.043C960.575,1068.866,966.2,1066.569,972.047,1068.023Z" transform="translate(-877.046 -981.916)" fill="#fff"/>
      <path id="Path_2129" data-name="Path 2129" d="M856.35,947.348a.674.674,0,0,1-.395-.125l-65.118-45.212a.69.69,0,0,1,.786-1.134l64.71,44.918,41.409-30.113a.691.691,0,1,1,.813,1.117l-41.8,30.413A.674.674,0,0,1,856.35,947.348Z" transform="translate(-765.199 -871.374)" fill="#262424"/>
      <path id="Path_2130" data-name="Path 2130" d="M1114.943,942.511a.7.7,0,0,1-.567-.3l-9.447-13.6a.691.691,0,1,1,1.137-.786l9.447,13.6a.692.692,0,0,1-.567,1.086Z" transform="translate(-973.432 -889.112)" fill="#262424"/>
    </g>
    <g id="RIGHT_ARM" data-name="RIGHT ARM" transform="translate(86.376 11.379)">
      <path id="Path_2131" data-name="Path 2131" d="M323.25,77.26l3.317-7.818-.675-14.282,19.458,1.012L337.421,71.8l-2.588,9.731Z" transform="translate(-300.562 -47.915)" fill="#fff"/>
      <path id="Path_2132" data-name="Path 2132" d="M624.4,183.745a.674.674,0,0,1-.233-.04l-11.586-4.275a.675.675,0,0,1-.388-.9l3.273-7.662-.675-14.127a.672.672,0,0,1,.709-.705l19.458,1.012a.675.675,0,0,1,.567.978l-7.912,15.541-2.568,9.66a.719.719,0,0,1-.644.516Zm-10.685-5.338,10.223,3.772,2.4-9.012a1.055,1.055,0,0,1,.05-.132l7.46-14.707-17.676-.921.641,13.54a.689.689,0,0,1-.054.3Z" transform="translate(-590.127 -149.451)" fill="#262424"/>
      <path id="Path_2133" data-name="Path 2133" d="M631.275,150.966c-4.666.692-10.459,1.576-10.628-5.878s12.686-8.884,13.26-2.642S634.173,150.534,631.275,150.966Z" transform="translate(-595.762 -137.844)" fill="#fff"/>
      <path id="Path_2134" data-name="Path 2134" d="M625.532,150.763a7.15,7.15,0,0,1-4.724-1.41c-1.377-1.161-2.075-2.983-2.133-5.574-.1-4.454,3.9-7.015,7.909-7.244,3.1-.192,6.37,1.157,6.687,4.531.553,6.016.415,8.708-3.205,9.248h-.04A31.292,31.292,0,0,1,625.532,150.763Zm1.6-12.9h-.466c-3.374.192-6.721,2.267-6.637,5.867.047,2.18.59,3.678,1.653,4.575,1.883,1.586,5.216,1.09,8.158.655h.04c2.156-.337,2.652-1.326,2.062-7.791-.229-2.311-2.517-3.307-4.828-3.307Z" transform="translate(-594.456 -136.517)" fill="#262424"/>
      <path id="Path_2135" data-name="Path 2135" d="M663.232,140.712c-4.454.82-2.345,11.691,1.484,11.5S670.57,139.363,663.232,140.712Z" transform="translate(-622.321 -139.23)" fill="#fff"/>
      <path id="Path_2136" data-name="Path 2136" d="M663.288,151.567c-2.426,0-4.116-3.293-4.484-6.454-.4-3.472.762-5.975,2.976-6.384h0a4.324,4.324,0,0,1,4.528,1.458c1.717,2.207,1.417,6.073.263,8.6-.793,1.727-1.91,2.7-3.148,2.777Zm-1.262-11.509c-1.775.337-2.122,2.841-1.883,4.9.3,2.6,1.653,5.334,3.212,5.263.675-.037,1.434-.779,1.987-1.991.982-2.146,1.225-5.513-.1-7.214A3.062,3.062,0,0,0,662.026,140.058Z" transform="translate(-620.994 -137.908)" fill="#262424"/>
      <path id="Path_2137" data-name="Path 2137" d="M648.953,169.916s-3.755-1.1-3.9-3.31,10.891-1.178,11.472.294-.148,7.284-1.032,8.536-4.487,4.123-8.243,3.462S643.8,171.9,648.953,169.916Z" transform="translate(-611.713 -155.609)" fill="#fff"/>
      <path id="Path_2138" data-name="Path 2138" d="M647.058,178.359a6.892,6.892,0,0,1-1.228-.108,3.734,3.734,0,0,1-3.067-3.516,6.6,6.6,0,0,1,3.226-6.053c-1.238-.6-2.811-1.687-2.922-3.34-.037-.587.263-1.366,1.92-1.744,2.7-.614,10.142-.057,10.861,1.744.654,1.633-.078,7.723-1.1,9.177A10.584,10.584,0,0,1,647.058,178.359Zm-2.642-13.1c.118,1.407,2.5,2.416,3.418,2.7a.675.675,0,0,1,.051,1.279,5.446,5.446,0,0,0-3.779,5.365,2.444,2.444,0,0,0,1.96,2.321c3.374.594,6.748-2,7.575-3.185.752-1.07,1.427-6.589.968-7.865-.56-.594-4.913-1.4-8.165-1.127C644.852,164.88,644.477,165.211,644.416,165.262Z" transform="translate(-610.402 -154.302)" fill="#262424"/>
      <path id="Path_2139" data-name="Path 2139" d="M588.417,284.037l-13.5,39c-6.809-10.544-17.622-32.815-23.618-46.011a106.28,106.28,0,0,1-4.386-10.362c-.057-.577,1.626-6.134,3.971-13.536C556.111,236.642,564.631,211,564.631,211l20.244,6.579-11.64,43.282Z" transform="translate(-546.909 -185.869)" fill="url(#linear-gradient-18)"/>
      <path id="Path_2140" data-name="Path 2140" d="M551.283,359.748a106.265,106.265,0,0,1-4.386-10.362c-.057-.577,1.626-6.134,3.971-13.536C556.041,340.385,559.658,352.241,551.283,359.748Z" transform="translate(-546.896 -268.595)" fill="#fbfefd"/>
      <line id="Line_58" data-name="Line 58" y1="1.856" x2="9.953" transform="translate(13.842 75.73)" fill="#fff"/>
      <path id="Path_2141" data-name="Path 2141" d="M586.466,362.152a.678.678,0,0,1-.125-1.35l9.953-1.856a.676.676,0,1,1,.25,1.329l-9.953,1.856Z" transform="translate(-572.625 -283.891)" fill="#262424"/>
      <line id="Line_59" data-name="Line 59" x2="13.159" y2="4.049" transform="translate(17.722 32.206)" fill="#fff"/>
      <path id="Path_2142" data-name="Path 2142" d="M611.292,235.41a.7.7,0,0,1-.2-.03l-13.159-4.049a.675.675,0,0,1,.4-1.289l13.159,4.049a.675.675,0,0,1-.2,1.319Z" transform="translate(-580.412 -198.471)" fill="#262424"/>
    </g>
    <g id="BODY" transform="translate(101.064 108.856)">
      <path id="Path_2143" data-name="Path 2143" d="M618.377,427.47S579.6,480.476,596.311,615.6a112.81,112.81,0,0,0,37.957,12.146c-4.282-16.475-4.919-28.568-5.405-48.67,5.834,16.1,17.373,33.74,27.667,47.125,19.728-8.155,37.269-19.728,51.96-35.764,0,0-26.655-38.126-32.39-55.333,0,0,9.447-35.764,28-68.492l-10.459-28L645.4,453.112Z" transform="translate(-591.556 -426.78)" fill="url(#linear-gradient-24)"/>
      <path id="Path_2144" data-name="Path 2144" d="M789.1,934.731a.677.677,0,0,1-.26-1.329c.26-.108,26.118-10.746,43.575-30.079a.687.687,0,1,1,1.012.928c-17.673,19.569-43.818,30.322-44.081,30.43A.7.7,0,0,1,789.1,934.731Z" transform="translate(-721.536 -741.932)" fill="#262424"/>
      <path id="Path_2145" data-name="Path 2145" d="M642.048,985.388h-.1c-15.787-2.24-32.549-10.554-32.728-10.638a.691.691,0,1,1,.621-1.235c.165.081,16.728,8.3,32.289,10.507a.688.688,0,1,1-.094,1.373Z" transform="translate(-602.629 -788.54)" fill="#262424"/>
      <path id="Path_2146" data-name="Path 2146" d="M625.642,460.057a.671.671,0,0,1-.2-.027.691.691,0,0,1-.462-.864c6.937-22.842,14.508-33.355,14.589-33.46a.69.69,0,0,1,1.113.816c-.074.1-7.521,10.459-14.38,33.045a.692.692,0,0,1-.661.489Z" transform="translate(-613.303 -425.424)" fill="#262424"/>
      <path id="Path_2147" data-name="Path 2147" d="M594.1,867.806a.675.675,0,0,1-.675-.617c-1.687-15.595-2.7-30.859-3-45.363a.675.675,0,0,1,.675-.705h.017a.675.675,0,0,1,.675.675c.307,14.468,1.316,29.691,2.993,45.245a.7.7,0,0,1-.611.762Z" transform="translate(-590.428 -687.612)" fill="#262424"/>
      <path id="Path_2148" data-name="Path 2148" d="M697.194,746.8a.692.692,0,0,1-.675-.675c-1.225-34.887,3.458-55.975,3.506-56.184a.692.692,0,1,1,1.35.3c-.047.209-4.69,21.142-3.469,55.833a.692.692,0,0,1-.675.715Z" transform="translate(-660.589 -600.334)" fill="#262424"/>
      <path id="Path_2149" data-name="Path 2149" d="M723.552,758.208a.692.692,0,0,1-.1-1.377,196.537,196.537,0,0,0,32.768-7.909.69.69,0,0,1,.459,1.3,197.953,197.953,0,0,1-33.028,7.963Z" transform="translate(-678.174 -639.748)" fill="#262424"/>
    </g>
    <g id="LEFT_ARM" data-name="LEFT ARM" transform="translate(197.69 38.854)">
      <path id="Path_2150" data-name="Path 2150" d="M1014.548,251.815V240.391s-2.743-3.2-3.2-4.8,2.625-6.748,2.625-6.748a14.942,14.942,0,0,1-1.049-5.6c.253-2.284,6.876-3.428,12.933-3.313s6.542,8.789,6.6,12.116-8.772,9.37-8.772,9.37l1.373,11.08Z" transform="translate(-965.926 -219.26)" fill="#fff"/>
      <path id="Path_2151" data-name="Path 2151" d="M1023.743,251.865h-.044l-10.51-.675a.675.675,0,0,1-.631-.675V239.327c-.648-.769-2.743-3.347-3.175-4.859-.469-1.65,1.754-5.665,2.534-6.994a14.394,14.394,0,0,1-.978-5.6c.361-3.293,9.066-4,13.617-3.914s7.146,4.622,7.244,12.777c.04,3.293-6.906,8.435-8.708,9.7l1.319,10.675a.675.675,0,0,1-.675.759Zm-9.835-1.994,9.066.594-1.279-10.274a.675.675,0,0,1,.287-.638c3.286-2.264,8.489-6.654,8.462-8.8-.05-4.234-.891-11.35-5.921-11.445-7.028-.132-12.1,1.323-12.248,2.7a14.17,14.17,0,0,0,1.012,5.277.675.675,0,0,1-.047.594c-1.41,2.362-2.79,5.4-2.557,6.208.337,1.194,2.325,3.684,3.06,4.545a.674.674,0,0,1,.165.439Z" transform="translate(-964.611 -217.949)" fill="#262424"/>
      <path id="Path_2152" data-name="Path 2152" d="M944.338,360.883c-.26.763-4.838,3.6-11.235,7.268-15.915,9.11-43.1,23.335-43.1,23.335s-8.435-7.47-10.672-16.921,4.275-18.557,4.275-18.557l35.764-14.059,1.124-38.686,22.046-.452s1.289,26.449,1.788,43.68C944.551,354.2,944.618,360.06,944.338,360.883Z" transform="translate(-878.171 -274.178)" fill="url(#linear-gradient-25)"/>
      <path id="Path_2153" data-name="Path 2153" d="M887.294,498.55a.675.675,0,0,1-.5-.209c-2.821-2.9-7.807-8.826-9.5-15.929-1.616-6.788,1.144-13.388,2.932-16.715a.69.69,0,1,1,1.215.655c-1.687,3.155-4.312,9.4-2.8,15.743,1.687,7.028,6.954,13.03,9.144,15.281a.692.692,0,0,1,0,.979A.675.675,0,0,1,887.294,498.55Z" transform="translate(-876.811 -381.867)" fill="#262424"/>
      <path id="Path_2154" data-name="Path 2154" d="M1047.609,446.657c-.26.763-4.838,3.6-11.235,7.268-3.921-7.851-1.134-20.986,11.225-21.664C1047.821,439.97,1047.889,445.834,1047.609,446.657Z" transform="translate(-981.442 -359.952)" fill="#fbfefd"/>
      <line id="Line_60" data-name="Line 60" x2="10.291" y2="8.472" transform="translate(41.199 67.767)" fill="#fff"/>
      <path id="Path_2155" data-name="Path 2155" d="M1007.885,426.625a.674.674,0,0,1-.428-.152L997.166,418a.675.675,0,0,1,.857-1.043l10.291,8.472a.675.675,0,0,1,.091.948A.655.655,0,0,1,1007.885,426.625Z" transform="translate(-956.395 -349.711)" fill="#262424"/>
      <line id="Line_61" data-name="Line 61" x2="17.629" transform="translate(44.995 34.337)" fill="#fff"/>
      <path id="Path_2156" data-name="Path 2156" d="M1026.474,319.07h-17.629a.675.675,0,0,1,0-1.35h17.629a.675.675,0,0,1,0,1.35Z" transform="translate(-963.85 -284.057)" fill="#262424"/>
    </g>
    <g id="ROBE" transform="translate(123.657 103.625)">
      <path id="Path_2157" data-name="Path 2157" d="M748.773,423.722c-23.618,22.943-71.977,76.7-71.977,76.7-14.171-31.041-17.376-88.456-17.376-88.456l5.341,5.26,24.856,24.488,49.76-15.139Z" transform="translate(-658.735 -411.278)" fill="url(#linear-gradient-5)"/>
      <path id="Path_2158" data-name="Path 2158" d="M748.773,423.722c-23.618,22.943-71.977,76.7-71.977,76.7-14.171-31.041-17.376-88.456-17.376-88.456l5.341,5.26c1.812,14.539,7.453,56.214,14.228,71.836,0,0,39.321-44.918,60.395-62.486Z" transform="translate(-658.735 -411.278)" fill="#fbfefd"/>
      <path id="Path_2159" data-name="Path 2159" d="M688.272,441.051a.7.7,0,0,1-.486-.2L657.6,411.1a.692.692,0,0,1,.972-.985l29.9,29.462L747.232,421.7a.692.692,0,1,1,.4,1.323l-59.163,18A.7.7,0,0,1,688.272,441.051Z" transform="translate(-657.389 -409.919)" fill="#262424"/>
    </g>
    <g id="NECK" transform="translate(149.682 114.421)">
      <path id="Path_2160" data-name="Path 2160" d="M751.284,443.91l-.472,8.033-.806,13.742c-4.724,3.084-9.241,3.28-13.476-.118l.833-6.37,1.275-9.646Z" transform="translate(-735.853 -443.238)" fill="#fff"/>
      <path id="Path_2161" data-name="Path 2161" d="M741.708,467.412a10.92,10.92,0,0,1-6.93-2.639.675.675,0,0,1-.25-.617l2.119-16.013a.675.675,0,0,1,.395-.526l12.639-5.641a.675.675,0,0,1,.948.655l-1.279,21.776a.674.674,0,0,1-.307.526A13.484,13.484,0,0,1,741.708,467.412Zm-5.79-3.462c3.711,2.811,7.666,2.821,12.1.034l1.194-20.325-11.279,5.034Z" transform="translate(-734.523 -441.917)" fill="#262424"/>
      <path id="Path_2162" data-name="Path 2162" d="M747.618,449.69c-.182,3.63-.246,16.01-10.038,17.029l1.761-13.337Z" transform="translate(-736.548 -447.067)" fill="#262424"/>
    </g>
    <g id="HEAD" transform="translate(141.739 86.367)">
      <path id="Path_2163" data-name="Path 2163" d="M713.371,403.9c-.884,6.589-.854,14.734,7.156,15.379,9.521.766,17-4.309,19.174-13.027s-.675-14.6-11.387-16.1a16.086,16.086,0,0,0-2.747-.159c-6.411.186-10.625,4.454-11.647,10.4C713.736,401.466,713.537,402.657,713.371,403.9Z" transform="translate(-712.313 -379.457)" fill="#fff"/>
      <path id="Path_2164" data-name="Path 2164" d="M721.033,418.688c-.624,0-1.255-.024-1.889-.078a8.06,8.06,0,0,1-6.019-2.969c-3.074-3.961-2.23-10.7-1.2-16.7,1.3-7.538,7.386-11.873,15.153-10.8a.681.681,0,1,1-.189,1.35c-7.085-.992-12.453,2.807-13.634,9.683-.709,4.133-2.024,11.809.935,15.645a6.682,6.682,0,0,0,5.061,2.456,19.04,19.04,0,0,0,9.714-1.6.675.675,0,1,1,.574,1.221,20.079,20.079,0,0,1-8.506,1.788Z" transform="translate(-710.983 -378.122)" fill="#262424"/>
      <path id="Path_2165" data-name="Path 2165" d="M741.28,387.863a27.465,27.465,0,0,1-3.826,2.881l-4.7-.816-.206-3.512s-2.9-.833-3.037-2.962a1.2,1.2,0,0,1,0-.148,26.411,26.411,0,0,1,1.6-8.125s-7.807,1.434-11.752.921a8.989,8.989,0,0,1-4.231-2.2c-2.655-2.207-4.113-7.737-2.8-10.928l.024-.061c1.987-4.663,3.711-.692,3.711-.692s1.657-3.738,4.177-3.435,3.215,4.288,3.215,4.288A39.688,39.688,0,0,1,737.97,365.9c9.13,3.711,5.213,9.67,5.213,9.67S749.6,379.468,741.28,387.863Z" transform="translate(-711.552 -358.768)" fill="#262424"/>
      <path id="Path_2166" data-name="Path 2166" d="M776.226,438.32a6.921,6.921,0,0,1,7.595-6.073,6.24,6.24,0,0,1,2.271.715c4.228,2.3.533,12.541-10.341,9.11Z" transform="translate(-753.897 -407.423)" fill="#fff"/>
      <path id="Path_2167" data-name="Path 2167" d="M778.585,442.11a14.511,14.511,0,0,1-4.362-.722.676.676,0,1,1,.408-1.289c6.073,1.923,9.585-.587,10.746-3.32.81-1.9.415-3.809-.935-4.545a5.659,5.659,0,0,0-2.024-.638,6.242,6.242,0,0,0-6.846,5.486.68.68,0,1,1-1.35-.169,7.594,7.594,0,0,1,8.347-6.657,6.967,6.967,0,0,1,2.51.793c1.974,1.073,2.618,3.711,1.532,6.255C785.489,439.961,782.692,442.11,778.585,442.11Z" transform="translate(-752.573 -406.102)" fill="#262424"/>
    </g>
    <g id="HAT" transform="translate(138.475 49.046)">
      <path id="Path_2168" data-name="Path 2168" d="M864.834,320.023a.783.783,0,0,1-.675-.358,53.759,53.759,0,0,0-8.54-10.169.79.79,0,1,1,1.012-1.194,53.821,53.821,0,0,1,8.83,10.5.79.79,0,0,1-.226,1.093A.813.813,0,0,1,864.834,320.023Z" transform="translate(-803.315 -287.837)" fill="#262424"/>
      <path id="Path_2169" data-name="Path 2169" d="M884.78,349.968a.675.675,0,0,1-.675-.5l-.941-3.489a.68.68,0,1,1,1.313-.354l.945,3.489a.681.681,0,0,1-.641.857Z" transform="translate(-821.79 -312.404)" fill="#262424"/>
      <path id="Path_2170" data-name="Path 2170" d="M878.548,349.217a.579.579,0,0,1-.132,0,.675.675,0,0,1-.533-.8l.742-3.782a.687.687,0,1,1,1.35.263l-.746,3.782A.675.675,0,0,1,878.548,349.217Z" transform="translate(-818.298 -311.716)" fill="#262424"/>
      <path id="Path_2171" data-name="Path 2171" d="M888.516,346.911a.675.675,0,0,1-.509-.229l-2.551-2.892a.676.676,0,1,1,1.012-.9l2.547,2.892a.675.675,0,0,1-.51,1.127Z" transform="translate(-823.211 -310.778)" fill="#262424"/>
      <circle id="Ellipse_179" data-name="Ellipse 179" cx="1.512" cy="1.512" r="1.512" transform="translate(60.062 30.594)" fill="#262424"/>
      <path id="Path_2172" data-name="Path 2172" d="M770.838,286.753,767.383,298.4s-10.152-5.78-22.447.712c-6.748-12.146-18.425-12.845-18.425-12.845l3.458-11.647,19.907,7.868Z" transform="translate(-718.007 -265.691)" fill="#262424"/>
      <path id="Path_2173" data-name="Path 2173" d="M730.314,270.26l-28.591-19.569a.945.945,0,0,1,.513-1.727l34.644-.806a3.981,3.981,0,0,1,2.362.7l28.595,19.569a.948.948,0,0,1-.513,1.728l-34.644.806A4,4,0,0,1,730.314,270.26Z" transform="translate(-701.307 -248.155)" fill="#262424"/>
      <path id="Path_2174" data-name="Path 2174" d="M757.769,292.826a4.657,4.657,0,0,1-2.635-.817l-15.52-10.638a.675.675,0,1,1,.763-1.113L755.9,290.9a3.321,3.321,0,0,0,1.954.58l19.131-.449a.675.675,0,1,1,0,1.35l-19.131.445Z" transform="translate(-726.494 -269.348)" fill="#fff"/>
    </g>
  </g>
</svg>
