<svg xmlns="http://www.w3.org/2000/svg" xmlns:xlink="http://www.w3.org/1999/xlink" width="730" height="631.833" viewBox="0 0 730 631.833">
  <defs>
    <linearGradient id="linear-gradient" y1="0.5" x2="1" y2="0.5" gradientUnits="objectBoundingBox">
      <stop offset="0" stop-color="#ce2e82"/>
      <stop offset="1" stop-color="#601f5f"/>
    </linearGradient>
    <linearGradient id="linear-gradient-2" x1="0" y1="0.5" x2="1" y2="0.5" xlink:href="#linear-gradient"/>
    <linearGradient id="linear-gradient-3" x1="0.001" y1="0.5" x2="1.001" y2="0.5" gradientUnits="objectBoundingBox">
      <stop offset="0" stop-color="#1b89ca"/>
      <stop offset="1" stop-color="#2e3792"/>
    </linearGradient>
    <linearGradient id="linear-gradient-4" x1="-11.42" y1="14.495" x2="-10.033" y2="14.495" gradientUnits="objectBoundingBox">
      <stop offset="0" stop-color="#343a8d"/>
      <stop offset="0.24" stop-color="#353e90"/>
      <stop offset="0.46" stop-color="#394998"/>
      <stop offset="0.68" stop-color="#405ca6"/>
      <stop offset="0.9" stop-color="#4a77ba"/>
      <stop offset="1" stop-color="#4f86c5"/>
    </linearGradient>
    <linearGradient id="linear-gradient-5" x1="2.661" y1="-18.242" x2="4.022" y2="-18.242" xlink:href="#linear-gradient-3"/>
    <linearGradient id="linear-gradient-6" x1="9.447" y1="-1.372" x2="10.613" y2="-1.372" xlink:href="#linear-gradient-3"/>
    <linearGradient id="linear-gradient-7" x1="4.986" y1="2.673" x2="6.152" y2="2.673" xlink:href="#linear-gradient"/>
    <linearGradient id="linear-gradient-8" x1="-2.436" y1="-5.113" x2="-1.43" y2="-5.113" xlink:href="#linear-gradient-3"/>
    <linearGradient id="linear-gradient-9" x1="0" y1="0.5" x2="1" y2="0.5" xlink:href="#linear-gradient"/>
    <linearGradient id="linear-gradient-10" x1="0" y1="0.5" x2="1" y2="0.5" xlink:href="#linear-gradient"/>
    <linearGradient id="linear-gradient-14" x1="0" y1="0.5" x2="1" y2="0.5" xlink:href="#linear-gradient-3"/>
    <linearGradient id="linear-gradient-15" x1="0" y1="0.5" x2="1" y2="0.5" xlink:href="#linear-gradient-4"/>
    <linearGradient id="linear-gradient-17" x1="0" y1="0.5" x2="1" y2="0.5" xlink:href="#linear-gradient-3"/>
    <linearGradient id="linear-gradient-18" x1="0" y1="0.5" x2="1" y2="0.5" xlink:href="#linear-gradient"/>
    <linearGradient id="linear-gradient-19" x1="0" y1="0.5" x2="1" y2="0.5" xlink:href="#linear-gradient-3"/>
    <linearGradient id="linear-gradient-23" x1="0" y1="0.5" x2="1" y2="0.5" xlink:href="#linear-gradient-3"/>
    <linearGradient id="linear-gradient-27" x1="0" y1="0.5" x2="1" y2="0.5" xlink:href="#linear-gradient-3"/>
    <linearGradient id="linear-gradient-32" x1="0" y1="0.5" x2="1" y2="0.5" xlink:href="#linear-gradient"/>
    <linearGradient id="linear-gradient-33" x1="0" y1="0.5" x2="1" y2="0.5" xlink:href="#linear-gradient-3"/>
    <linearGradient id="linear-gradient-35" x1="0" y1="0.5" x2="1" y2="0.5" xlink:href="#linear-gradient-3"/>
    <linearGradient id="linear-gradient-36" x1="0" y1="0.5" x2="1" y2="0.5" xlink:href="#linear-gradient-3"/>
    <linearGradient id="linear-gradient-38" x1="0" y1="0.5" x2="1" y2="0.5" xlink:href="#linear-gradient-3"/>
    <linearGradient id="linear-gradient-39" x1="0" y1="0.5" x2="1" y2="0.5" xlink:href="#linear-gradient"/>
    <linearGradient id="linear-gradient-40" x1="-0.001" y1="0.5" x2="1" y2="0.5" xlink:href="#linear-gradient"/>
    <linearGradient id="linear-gradient-41" x1="0" y1="0.5" x2="1" y2="0.5" xlink:href="#linear-gradient"/>
    <linearGradient id="linear-gradient-43" x1="-0.001" y1="0.5" x2="0.999" y2="0.5" xlink:href="#linear-gradient"/>
    <linearGradient id="linear-gradient-44" x1="-0.001" y1="0.5" x2="0.999" y2="0.5" xlink:href="#linear-gradient"/>
    <linearGradient id="linear-gradient-45" x1="0" y1="0.499" x2="1" y2="0.499" xlink:href="#linear-gradient"/>
    <linearGradient id="linear-gradient-46" x1="0" y1="0.501" x2="1" y2="0.501" xlink:href="#linear-gradient"/>
    <linearGradient id="linear-gradient-47" x1="0" y1="0.5" x2="1" y2="0.5" xlink:href="#linear-gradient"/>
    <linearGradient id="linear-gradient-48" x1="0" y1="0.499" x2="1" y2="0.499" xlink:href="#linear-gradient-3"/>
    <linearGradient id="linear-gradient-49" x1="0" y1="0.5" x2="1" y2="0.5" xlink:href="#linear-gradient"/>
    <linearGradient id="linear-gradient-50" x1="0" y1="0.5" x2="1" y2="0.5" xlink:href="#linear-gradient-3"/>
    <linearGradient id="linear-gradient-52" x1="0" y1="0.499" x2="1" y2="0.499" xlink:href="#linear-gradient"/>
    <linearGradient id="linear-gradient-53" x1="0" y1="0.5" x2="1" y2="0.5" xlink:href="#linear-gradient-3"/>
    <linearGradient id="linear-gradient-54" x1="0" y1="0.499" x2="1" y2="0.499" xlink:href="#linear-gradient"/>
    <linearGradient id="linear-gradient-55" x1="0" y1="0.5" x2="1" y2="0.5" xlink:href="#linear-gradient"/>
    <linearGradient id="linear-gradient-56" x1="0" y1="0.5" x2="1" y2="0.5" xlink:href="#linear-gradient"/>
    <linearGradient id="linear-gradient-58" x1="0.001" y1="0.499" x2="1" y2="0.499" xlink:href="#linear-gradient"/>
    <linearGradient id="linear-gradient-59" x1="0.001" y1="0.5" x2="0.999" y2="0.5" xlink:href="#linear-gradient"/>
    <linearGradient id="linear-gradient-60" x1="0" y1="0.501" x2="1.001" y2="0.501" xlink:href="#linear-gradient"/>
    <linearGradient id="linear-gradient-62" x1="0" y1="0.5" x2="1" y2="0.5" xlink:href="#linear-gradient-3"/>
    <linearGradient id="linear-gradient-65" x1="0" y1="0.5" x2="0.999" y2="0.5" xlink:href="#linear-gradient-3"/>
    <linearGradient id="linear-gradient-66" x1="0.016" y1="0.499" x2="1.001" y2="0.499" xlink:href="#linear-gradient"/>
    <linearGradient id="linear-gradient-67" x1="0" y1="0.508" x2="0.997" y2="0.508" xlink:href="#linear-gradient"/>
    <linearGradient id="linear-gradient-68" x1="0" y1="0.5" x2="0.985" y2="0.5" xlink:href="#linear-gradient"/>
    <linearGradient id="linear-gradient-69" x1="0" y1="0.507" x2="1" y2="0.507" xlink:href="#linear-gradient"/>
    <linearGradient id="linear-gradient-70" x1="0.015" y1="0.5" x2="1" y2="0.5" xlink:href="#linear-gradient"/>
    <linearGradient id="linear-gradient-72" x1="0" y1="0.501" x2="1" y2="0.501" xlink:href="#linear-gradient"/>
    <linearGradient id="linear-gradient-73" x1="0" y1="0.5" x2="1" y2="0.5" xlink:href="#linear-gradient"/>
    <linearGradient id="linear-gradient-74" x1="0" y1="0.499" x2="1" y2="0.499" xlink:href="#linear-gradient"/>
    <linearGradient id="linear-gradient-76" x1="0" y1="0.5" x2="1" y2="0.5" xlink:href="#linear-gradient-3"/>
    <linearGradient id="linear-gradient-78" x1="0" y1="0.5" x2="1" y2="0.5" xlink:href="#linear-gradient-3"/>
    <linearGradient id="linear-gradient-80" x1="0" y1="0.5" x2="1" y2="0.5" xlink:href="#linear-gradient-3"/>
    <linearGradient id="linear-gradient-82" x1="0" y1="0.5" x2="0.993" y2="0.5" xlink:href="#linear-gradient"/>
    <linearGradient id="linear-gradient-84" x1="0" y1="0.499" x2="1" y2="0.499" xlink:href="#linear-gradient"/>
    <linearGradient id="linear-gradient-85" x1="-0.002" y1="0.5" x2="0.999" y2="0.5" xlink:href="#linear-gradient-3"/>
    <linearGradient id="linear-gradient-86" x1="0" y1="0.5" x2="1.002" y2="0.5" xlink:href="#linear-gradient-3"/>
    <linearGradient id="linear-gradient-87" x1="0.002" y1="0.5" x2="1.001" y2="0.5" xlink:href="#linear-gradient"/>
    <linearGradient id="linear-gradient-88" x1="0" y1="0.5" x2="1" y2="0.5" xlink:href="#linear-gradient"/>
    <linearGradient id="linear-gradient-89" x1="0" y1="0.502" x2="1" y2="0.502" xlink:href="#linear-gradient-3"/>
  </defs>
  <g id="Nos_Services_principaux" data-name="Nos Services principaux" transform="translate(0.03)">
    <g id="Ornaments" transform="translate(-0.03 14.754)">
      <path id="Path_1891" data-name="Path 1891" d="M379.977,937.726h0a13.031,13.031,0,0,0-13.031,13.026h0a13.026,13.026,0,0,0-13.026-13.026h0A13.021,13.021,0,0,0,366.946,924.7h0A13.026,13.026,0,0,0,379.977,937.726Z" transform="translate(-198.125 -510.569)" fill="url(#linear-gradient)"/>
      <path id="Path_1892" data-name="Path 1892" d="M1201.867,1048.791h0a13.021,13.021,0,0,0-13.026,13.026h0a13.026,13.026,0,0,0-13.031-13.026h0a13.031,13.031,0,0,0,13.031-13.031h0a13.026,13.026,0,0,0,13.026,13.031Z" transform="translate(-614.33 -566.81)" fill="url(#linear-gradient-2)"/>
      <path id="Path_1893" data-name="Path 1893" d="M1479.272,1274.916h0a13.031,13.031,0,0,0-13.026,13.026h0a13.026,13.026,0,0,0-13.026-13.026h0a13.021,13.021,0,0,0,13.026-13.026h0A13.026,13.026,0,0,0,1479.272,1274.916Z" transform="translate(-754.81 -681.322)" fill="url(#linear-gradient-3)"/>
      <path id="Path_1894" data-name="Path 1894" d="M176.9,216.181h0a9.773,9.773,0,0,0-13.821.262h0a9.763,9.763,0,0,0-.257-13.821h0a9.768,9.768,0,0,0,13.821-.262h0a9.763,9.763,0,0,0,.262,13.821Z" transform="translate(-101.352 -144.777)" fill="url(#linear-gradient-4)"/>
      <path id="Path_1895" data-name="Path 1895" d="M1464.863,580.244h0a12.38,12.38,0,0,0-17.493-.691h0a12.375,12.375,0,0,0,.7-17.493h0a12.384,12.384,0,0,0,17.493.7h0A12.375,12.375,0,0,0,1464.863,580.244Z" transform="translate(-751.848 -326.929)" fill="url(#linear-gradient-5)"/>
      <path id="Path_1896" data-name="Path 1896" d="M329.544,1304.131h0a15.095,15.095,0,0,0-20.731,5.163h0a15.1,15.1,0,0,0-5.163-20.731h0a15.094,15.094,0,0,0,20.731-5.163h0A15.1,15.1,0,0,0,329.544,1304.131Z" transform="translate(-172.668 -692.215)" fill="url(#linear-gradient-6)"/>
      <path id="Path_1897" data-name="Path 1897" d="M64.184,776.2h0a15.094,15.094,0,0,0-20.731,5.163h0a15.1,15.1,0,0,0-5.163-20.731h0a15.094,15.094,0,0,0,20.731-5.163h0A15.1,15.1,0,0,0,64.184,776.2Z" transform="translate(-38.29 -424.871)" fill="url(#linear-gradient-7)"/>
      <path id="Path_1898" data-name="Path 1898" d="M1018.219,219.541h0a15.1,15.1,0,0,0-16.639-13.382h0a15.1,15.1,0,0,0,13.387-16.639h0a15.1,15.1,0,0,0,16.634,13.386h0a15.1,15.1,0,0,0-13.382,16.634Z" transform="translate(-526.1 -138.274)" fill="url(#linear-gradient-8)"/>
      <path id="Path_1899" data-name="Path 1899" d="M541.13,229.107h0a10.612,10.612,0,0,0-10.612,10.612h0A10.617,10.617,0,0,0,519.9,229.107h0a10.617,10.617,0,0,0,10.617-10.617h0a10.612,10.612,0,0,0,10.612,10.617Z" transform="translate(-282.177 -152.945)" fill="url(#linear-gradient-9)"/>
      <circle id="Ellipse_162" data-name="Ellipse 162" cx="7.103" cy="7.103" r="7.103" transform="translate(85.082 156.18)" fill="url(#linear-gradient-10)"/>
      <circle id="Ellipse_163" data-name="Ellipse 163" cx="4.107" cy="4.107" r="4.107" transform="translate(628.516 143.139)" fill="url(#linear-gradient)"/>
      <circle id="Ellipse_164" data-name="Ellipse 164" cx="7.873" cy="7.873" r="7.873" transform="translate(622.642 401.292)" fill="url(#linear-gradient-10)"/>
      <circle id="Ellipse_165" data-name="Ellipse 165" cx="10.835" cy="10.835" r="10.835" transform="translate(81.35 432.532)" fill="url(#linear-gradient)"/>
      <circle id="Ellipse_166" data-name="Ellipse 166" cx="7.957" cy="7.957" r="7.957" transform="translate(576.703)" fill="url(#linear-gradient-14)"/>
      <circle id="Ellipse_167" data-name="Ellipse 167" cx="5.987" cy="5.987" r="5.987" transform="translate(560.735 587.606)" fill="url(#linear-gradient-15)"/>
      <circle id="Ellipse_168" data-name="Ellipse 168" cx="4.107" cy="4.107" r="4.107" transform="translate(229.119 336.374)" fill="url(#linear-gradient)"/>
      <circle id="Ellipse_169" data-name="Ellipse 169" cx="5.474" cy="5.474" r="5.474" transform="translate(206.206 259.347)" fill="url(#linear-gradient-17)"/>
      <circle id="Ellipse_170" data-name="Ellipse 170" cx="5.474" cy="5.474" r="5.474" transform="translate(608.14 238.749)" fill="url(#linear-gradient-18)"/>
      <circle id="Ellipse_171" data-name="Ellipse 171" cx="9.862" cy="9.862" r="9.862" transform="translate(490.969 273.909)" fill="url(#linear-gradient-19)"/>
      <path id="Path_1900" data-name="Path 1900" d="M345.42,1183.008a.78.78,0,0,1-.78-.78v-4a.783.783,0,0,1,1.563,0v4A.783.783,0,0,1,345.42,1183.008Z" transform="translate(-198.235 -638.582)" fill="#262424"/>
      <path id="Path_1901" data-name="Path 1901" d="M356.822,1200.88h-4a.78.78,0,1,1,0-1.56h4a.78.78,0,0,1,0,1.56Z" transform="translate(-203.602 -654.416)" fill="#262424"/>
      <path id="Path_1902" data-name="Path 1902" d="M345.42,1212.427a.78.78,0,0,1-.78-.78v-4a.783.783,0,0,1,1.563,0v4A.783.783,0,0,1,345.42,1212.427Z" transform="translate(-198.235 -659.92)" fill="#262424"/>
      <path id="Path_1903" data-name="Path 1903" d="M327.452,1200.88h-4a.78.78,0,1,1,0-1.56h4a.78.78,0,1,1,0,1.56Z" transform="translate(-182.3 -654.416)" fill="#262424"/>
      <path id="Path_1904" data-name="Path 1904" d="M337.107,219.839a.987.987,0,0,1-.987-.987V211.9a.987.987,0,1,1,1.974,0v6.955A.987.987,0,0,1,337.107,219.839Z" transform="translate(-189.111 -149.106)" fill="#262424"/>
      <path id="Path_1905" data-name="Path 1905" d="M351.172,234.064h-6.935a.987.987,0,1,1,0-1.974h6.935a.987.987,0,1,1,0,1.974Z" transform="translate(-192.722 -159.832)" fill="#262424"/>
      <path id="Path_1906" data-name="Path 1906" d="M337.107,248.139a.987.987,0,0,1-.987-.987v-6.935a.987.987,0,1,1,1.974,0v6.935A.987.987,0,0,1,337.107,248.139Z" transform="translate(-189.111 -163.448)" fill="#262424"/>
      <path id="Path_1907" data-name="Path 1907" d="M322.862,234.064h-6.945a.987.987,0,0,1,0-1.974h6.945a.987.987,0,1,1,0,1.974Z" transform="translate(-178.38 -159.832)" fill="#262424"/>
      <path id="Path_1908" data-name="Path 1908" d="M1382.1,652.469a.987.987,0,0,1-.987-.987v-6.935a.987.987,0,0,1,1.974,0v6.935A.987.987,0,0,1,1382.1,652.469Z" transform="translate(-718.294 -368.2)" fill="#262424"/>
      <path id="Path_1909" data-name="Path 1909" d="M1396.2,666.714h-6.91a.987.987,0,0,1,0-1.974h6.91a.987.987,0,0,1,0,1.974Z" transform="translate(-721.935 -378.926)" fill="#262424"/>
      <path id="Path_1910" data-name="Path 1910" d="M1382.1,680.815a.987.987,0,0,1-.987-.987v-6.91a.987.987,0,1,1,1.974,0v6.91A.987.987,0,0,1,1382.1,680.815Z" transform="translate(-718.294 -382.567)" fill="#262424"/>
      <path id="Path_1911" data-name="Path 1911" d="M1367.9,666.714h-6.911a.987.987,0,0,1,0-1.974h6.911a.987.987,0,0,1,0,1.974Z" transform="translate(-707.604 -378.926)" fill="#262424"/>
      <path id="Path_1912" data-name="Path 1912" d="M1330.6,224.325a.987.987,0,0,1-.987-.987v-5.711a.987.987,0,1,1,1.974,0v5.711A.987.987,0,0,1,1330.6,224.325Z" transform="translate(-692.214 -152.008)" fill="#262424"/>
      <path id="Path_1913" data-name="Path 1913" d="M1342.2,236.074h-5.711a.987.987,0,0,1,0-1.974h5.711a.987.987,0,0,1,0,1.974Z" transform="translate(-695.197 -160.85)" fill="#262424"/>
      <path id="Path_1914" data-name="Path 1914" d="M1330.6,247.675a.987.987,0,0,1-.987-.987v-5.7a.987.987,0,1,1,1.974,0V246.7A.987.987,0,0,1,1330.6,247.675Z" transform="translate(-692.214 -163.838)" fill="#262424"/>
      <path id="Path_1915" data-name="Path 1915" d="M1318.853,236.074h-5.716a.987.987,0,1,1,0-1.974h5.716a.987.987,0,1,1,0,1.974Z" transform="translate(-683.372 -160.85)" fill="#262424"/>
      <path id="Path_1916" data-name="Path 1916" d="M146.707,612.45a.987.987,0,0,1-.987-.987v-5.716a.987.987,0,1,1,1.974,0v5.716A.987.987,0,0,1,146.707,612.45Z" transform="translate(-92.693 -348.552)" fill="#262424"/>
      <path id="Path_1917" data-name="Path 1917" d="M158.3,624.194h-5.716a.987.987,0,1,1,0-1.974H158.3a.987.987,0,1,1,0,1.974Z" transform="translate(-95.67 -357.394)" fill="#262424"/>
      <path id="Path_1918" data-name="Path 1918" d="M146.707,635.79a.987.987,0,0,1-.987-.987v-5.716a.987.987,0,1,1,1.974,0V634.8A.987.987,0,0,1,146.707,635.79Z" transform="translate(-92.693 -360.371)" fill="#262424"/>
      <path id="Path_1919" data-name="Path 1919" d="M134.958,624.194h-5.711a.987.987,0,1,1,0-1.974h5.711a.987.987,0,1,1,0,1.974Z" transform="translate(-83.851 -357.394)" fill="#262424"/>
    </g>
    <g id="HOSTING" transform="translate(194.888 260.619)">
      <path id="Path_1920" data-name="Path 1920" d="M573.168,1208.641a.711.711,0,0,1-.355-1.328l19.744-11.471-14.551-8.391a.711.711,0,0,1,0-1.229l21.546-12.523a.711.711,0,0,1,.711,1.229l-20.484,11.906,14.551,8.391a.71.71,0,0,1,.355.612.725.725,0,0,1-.355.617l-20.805,12.088a.717.717,0,0,1-.355.1Z" transform="translate(-503.709 -882.488)" fill="#272525"/>
      <path id="Path_1921" data-name="Path 1921" d="M481.06,1174.432a.711.711,0,0,1-.36-1.323l25.262-14.858-25.465-14.7a.711.711,0,0,1,0-1.229l28.8-16.743a.711.711,0,1,1,.716,1.229l-27.745,16.126,25.455,14.694a.705.705,0,0,1,.355.612.721.721,0,0,1-.35.617l-26.309,15.474a.686.686,0,0,1-.36.1Z" transform="translate(-456.962 -858.111)" fill="#272525"/>
      <path id="Path_1922" data-name="Path 1922" d="M471.18,1229.239c-3.88,0-6.91-1.7-6.91-3.88s3.036-3.88,6.91-3.88,6.91,1.7,6.91,3.88S475.055,1229.239,471.18,1229.239Zm0-6.343c-3.238,0-5.494,1.3-5.494,2.468s2.256,2.468,5.494,2.468,5.489-1.293,5.489-2.468S474.413,1222.9,471.18,1222.9Z" transform="translate(-448.924 -906.724)" fill="#272525"/>
      <path id="Path_1923" data-name="Path 1923" d="M478.888,1092.442H459.021a.711.711,0,1,1,0-1.422h19.867a.711.711,0,1,1,0,1.422Z" transform="translate(-445.906 -840.659)" fill="#272525"/>
      <path id="Path_1924" data-name="Path 1924" d="M440.09,1092.359c-3.88,0-6.91-1.7-6.91-3.88s3.036-3.88,6.91-3.88,6.91,1.7,6.91,3.88S443.95,1092.359,440.09,1092.359Zm0-6.338c-3.238,0-5.494,1.293-5.494,2.468s2.256,2.468,5.494,2.468,5.494-1.293,5.494-2.468S443.328,1086.021,440.09,1086.021Z" transform="translate(-433.18 -837.408)" fill="#272525"/>
      <path id="Path_1925" data-name="Path 1925" d="M902.607,1208.6a.7.7,0,0,1-.355-.1l-20.805-12.088a.711.711,0,0,1,0-1.229L896,1186.8l-20.484-11.906a.711.711,0,1,1,.711-1.229l21.546,12.513a.711.711,0,0,1,0,1.229l-14.551,8.391,19.744,11.471a.711.711,0,0,1-.355,1.328Z" transform="translate(-656.982 -882.451)" fill="#272525"/>
      <path id="Path_1926" data-name="Path 1926" d="M1000.657,1178.929a.712.712,0,0,1-.355-.094l-34.374-19.976a.711.711,0,0,1,0-1.229l25.45-14.694-27.74-16.126a.711.711,0,1,1,.716-1.229l28.8,16.743a.7.7,0,0,1,.351.612.711.711,0,0,1-.351.617L967.7,1158.247l33.308,19.359a.706.706,0,0,1-.355,1.323Z" transform="translate(-701.625 -858.111)" fill="#272525"/>
      <path id="Path_1927" data-name="Path 1927" d="M1035.681,1238.349c-3.88,0-6.911-1.7-6.911-3.88s3.036-3.88,6.911-3.88,6.91,1.7,6.91,3.88S1039.555,1238.349,1035.681,1238.349Zm0-6.338c-3.238,0-5.494,1.293-5.494,2.468s2.256,2.468,5.494,2.468,5.494-1.3,5.494-2.468S1038.918,1232.012,1035.681,1232.012Z" transform="translate(-734.787 -911.337)" fill="#272525"/>
      <path id="Path_1928" data-name="Path 1928" d="M875.9,910.6a.711.711,0,0,1-.355-1.328l20.484-11.906-14.551-8.391a.716.716,0,0,1-.355-.612.706.706,0,0,1,.355-.617l20.805-12.088a.708.708,0,0,1,.711,1.224l-19.744,11.476,14.551,8.391a.716.716,0,0,1,.355.617.7.7,0,0,1-.355.622l-21.546,12.523A.666.666,0,0,1,875.9,910.6Z" transform="translate(-657.011 -731.553)" fill="#272525"/>
      <path id="Path_1929" data-name="Path 1929" d="M948.7,965.951a.711.711,0,0,1-.355-1.328l23.49-13.653-25.455-14.695a.716.716,0,0,1-.355-.612.707.707,0,0,1,.355-.617l34.37-19.976a.711.711,0,1,1,.716,1.229l-33.313,19.359L973.6,950.353a.716.716,0,0,1,.355.617.7.7,0,0,1-.355.612l-24.547,14.27a.734.734,0,0,1-.36.1Z" transform="translate(-692.882 -751.509)" fill="#272525"/>
      <path id="Path_1930" data-name="Path 1930" d="M1013.77,910.189c-3.875,0-6.91-1.7-6.91-3.88s3.036-3.88,6.91-3.88,6.91,1.7,6.91,3.88S1017.65,910.189,1013.77,910.189Zm0-6.338c-3.233,0-5.489,1.293-5.489,2.468s2.256,2.468,5.489,2.468,5.494-1.3,5.494-2.468S1017.008,903.852,1013.77,903.852Z" transform="translate(-723.692 -745.157)" fill="#272525"/>
      <path id="Path_1931" data-name="Path 1931" d="M530.355,972.755a.681.681,0,0,1-.355-.1l-23.94-13.91a.72.72,0,0,1-.35-.617.7.7,0,0,1,.355-.612L527.043,945.4l-10.825-6.348a.72.72,0,1,1,.735-1.239l11.846,6.965a.711.711,0,0,1,0,1.229l-20.968,12.128,22.888,13.283a.711.711,0,0,1-.36,1.323Z" transform="translate(-469.909 -763.022)" fill="#272525"/>
      <path id="Path_1932" data-name="Path 1932" d="M518.619,934.013c-3.347,0-5.869-1.441-5.869-3.347s2.522-3.347,5.869-3.347,5.864,1.436,5.864,3.347S521.961,934.013,518.619,934.013Zm0-5.272c-2.547,0-4.442,1.017-4.442,1.925s1.9,1.925,4.442,1.925,4.442-1.017,4.442-1.925S521.161,928.742,518.619,928.742Z" transform="translate(-473.474 -757.761)" fill="#272525"/>
      <path id="Path_1933" data-name="Path 1933" d="M1023.908,1092.442h-19.848a.711.711,0,1,1,0-1.422h19.848a.711.711,0,0,1,0,1.422Z" transform="translate(-721.914 -840.659)" fill="#272525"/>
      <path id="Path_1934" data-name="Path 1934" d="M1050.43,1092.359c-3.875,0-6.91-1.7-6.91-3.88s3.041-3.88,6.91-3.88,6.91,1.7,6.91,3.88S1054.305,1092.359,1050.43,1092.359Zm0-6.338c-3.238,0-5.494,1.293-5.494,2.468s2.256,2.468,5.494,2.468,5.494-1.293,5.494-2.468S1053.668,1086.021,1050.43,1086.021Z" transform="translate(-742.256 -837.408)" fill="#272525"/>
      <path id="Path_1935" data-name="Path 1935" d="M750.858,1275.746a.706.706,0,0,1-.711-.711V1249.95a.711.711,0,1,1,1.417,0v25.085a.706.706,0,0,1-.706.711Z" transform="translate(-593.691 -920.751)" fill="#272525"/>
      <path id="Path_1936" data-name="Path 1936" d="M744.5,1314.524c-3.88,0-6.91-1.708-6.91-3.885s3.036-3.88,6.91-3.88,6.91,1.7,6.91,3.88S748.375,1314.524,744.5,1314.524Zm0-6.343c-3.238,0-5.494,1.3-5.494,2.468s2.256,2.468,5.494,2.468,5.489-1.3,5.489-2.468S747.734,1308.182,744.5,1308.182Z" transform="translate(-587.333 -949.91)" fill="#272525"/>
      <g id="Group_854" data-name="Group 854" transform="translate(39.695 166.804)">
        <path id="Path_1937" data-name="Path 1937" d="M710.24,934.924l-116.267,67.564L476.95,934.924,593.218,867.36Z" transform="translate(-476.126 -866.653)" fill="url(#linear-gradient-19)"/>
        <path id="Path_1938" data-name="Path 1938" d="M631.565,1058.284a.7.7,0,0,1-.355-.094L514.187,990.626a.711.711,0,0,1,0-1.229l116.267-67.564a.716.716,0,0,1,.711,0l117.023,67.559a.716.716,0,0,1,.355.617.7.7,0,0,1-.355.612L631.921,1058.19A.7.7,0,0,1,631.565,1058.284ZM515.959,990.009l115.606,66.745L746.4,990.009,630.81,923.264Z" transform="translate(-513.718 -921.738)" fill="url(#linear-gradient-19)"/>
        <path id="Path_1939" data-name="Path 1939" d="M652.6,1096.379,633.586,1085.4a.82.82,0,0,0-.824,0l-24.152,14.063,1.649.948,22.918-13.327,17.365,10.025-11.353,6.595-11.565,6.718,1.649.958,10.741-6.244,12.6-7.31a.844.844,0,0,0,.41-.716.819.819,0,0,0-.415-.725Z" transform="translate(-561.713 -1004.558)" fill="#fff"/>
        <path id="Path_1940" data-name="Path 1940" d="M750.3,1125.74l-19.152,11.126,19.635,11.353-1.649.987-19.64-11.353-18.619,10.815h0l-1.649-.953,19.862-11.54,20.8-12.088a.83.83,0,0,1,.829,0l20.874,12.049-1.649.958Z" transform="translate(-612.667 -1024.151)" fill="#fff"/>
        <path id="Path_1941" data-name="Path 1941" d="M758.388,1034.487l-1.649.987-34.29-19.8-29.438,17.069-14.27,8.293,34.286,19.793-1.649.987-34.7-20.04a.819.819,0,0,1-.415-.715.844.844,0,0,1,.41-.716l14.28-8.3-58.689-33.881-73.309,42.608-1.654-.957,74.534-43.323h0l.089-.039.064-.025h.474l.074.025.079.039h0l59.928,34.6,29.5-17.1a.819.819,0,0,1,.824,0Z" transform="translate(-535.73 -959.562)" fill="#fff"/>
        <path id="Path_1942" data-name="Path 1942" d="M787.8,958.884l-11.264,6.545-2.468-1.422L753.457,952.1l11.269-6.55-1.663-.943L751.8,951.154l-25.49-14.724-1.649.987,26.724,15.425,24.734,14.28a.71.71,0,0,0,.2.084.815.815,0,0,0,.212.03h.069a.454.454,0,0,0,.143,0l.069-.025a.741.741,0,0,0,.128-.059h0l12.5-7.266Z" transform="translate(-620.481 -929.178)" fill="#fff"/>
        <path id="Path_1943" data-name="Path 1943" d="M619.757,993.575l-10.682-6.165-1.649.987,10.267,5.923-27.118,15.761-10.272-5.923-1.644.953,11.5,6.644a.813.813,0,0,0,.415.109.837.837,0,0,0,.415-.109l28.772-16.723a.829.829,0,0,0,0-1.431Z" transform="translate(-546.546 -954.995)" fill="#fff"/>
        <path id="Path_1944" data-name="Path 1944" d="M593.856,1071.8l-.114,15.993L476.72,1020.238l.113-16Z" transform="translate(-476.009 -935.969)" fill="#fff"/>
        <path id="Path_1945" data-name="Path 1945" d="M631.333,1143.6a.7.7,0,0,1-.355-.1l-117.023-67.559a.716.716,0,0,1-.355-.622l.113-15.993a.716.716,0,0,1,1.066-.612L631.8,1126.28a.716.716,0,0,1,.355.622l-.113,15.993a.716.716,0,0,1-.355.612A.767.767,0,0,1,631.333,1143.6Zm-116.307-68.684,115.606,66.75.1-14.364-115.606-66.745Z" transform="translate(-513.6 -991.057)" fill="#262424"/>
        <path id="Path_1946" data-name="Path 1946" d="M713.57,1071.8l.114,15.993,116.495-67.559-.114-16Z" transform="translate(-595.95 -935.969)" fill="#fff"/>
        <path id="Path_1947" data-name="Path 1947" d="M751.274,1143.6a.729.729,0,0,1-.35-.094.721.721,0,0,1-.36-.612l-.113-15.993a.715.715,0,0,1,.355-.622l116.49-67.564a.716.716,0,0,1,1.066.612l.114,15.993a.716.716,0,0,1-.355.622L751.63,1143.5a.7.7,0,0,1-.355.1Zm.6-16.289.1,14.359,115.078-66.745-.1-14.354Z" transform="translate(-633.541 -991.057)" fill="#262424"/>
      </g>
      <g id="Group_855" data-name="Group 855" transform="translate(100.854 183.58)">
        <path id="Path_1948" data-name="Path 1948" d="M711.862,933.572l-55.446,32.222L600.61,933.572l55.446-32.222Z" transform="translate(-599.906 -900.642)" fill="#fff"/>
        <path id="Path_1949" data-name="Path 1949" d="M694.019,1021.589a.7.7,0,0,1-.355-.094l-55.806-32.222a.711.711,0,0,1,0-1.229L693.3,955.822a.706.706,0,0,1,.711,0L749.8,988.044a.711.711,0,0,1,0,1.229L694.37,1021.51a.7.7,0,0,1-.35.079Zm-54.395-32.933,54.395,31.4,54.029-31.4-54.395-31.4Z" transform="translate(-637.504 -955.726)" fill="#262424"/>
      </g>
      <g id="Group_856" data-name="Group 856" transform="translate(92.211 129.917)">
        <path id="Path_1950" data-name="Path 1950" d="M647.5,905.228l-.064,52.46L582.99,920.475l.064-52.455Z" transform="translate(-582.34 -830.101)" fill="url(#linear-gradient)"/>
        <path id="Path_1951" data-name="Path 1951" d="M597.965,908.81l21.866,12.621V942.1L597.94,929.462Z" transform="translate(-589.911 -850.757)" fill="#fff"/>
        <path id="Path_1952" data-name="Path 1952" d="M657.412,997.9a.72.72,0,0,1-.355-.094l-21.891-12.636a.726.726,0,0,1-.355-.617l.03-20.652a.711.711,0,0,1,1.066-.617l21.862,12.646a.706.706,0,0,1,.355.617v20.667a.706.706,0,0,1-.355.617.7.7,0,0,1-.355.069Zm-21.18-13.757,20.474,11.817V976.916l-20.45-11.8Z" transform="translate(-627.497 -905.841)" fill="#262424"/>
        <path id="Path_1953" data-name="Path 1953" d="M676.281,954.016l-.02,20.657L654.39,962.047V941.38Z" transform="translate(-618.497 -867.25)" fill="#fff"/>
        <path id="Path_1954" data-name="Path 1954" d="M713.847,1030.473a.731.731,0,0,1-.355-.1l-21.857-12.626a.7.7,0,0,1-.355-.612V996.464a.711.711,0,0,1,1.066-.612l21.891,12.636a.716.716,0,0,1,.355.617v20.657a.721.721,0,0,1-.711.711Zm-21.156-13.747,20.45,11.807v-19.018L692.672,997.7Z" transform="translate(-656.093 -922.335)" fill="#262424"/>
        <path id="Path_1955" data-name="Path 1955" d="M713.44,905.228l.059,52.46,64.163-37.213L777.6,868.02Z" transform="translate(-648.4 -830.101)" fill="#fff"/>
        <path id="Path_1956" data-name="Path 1956" d="M751.085,1013.5a.7.7,0,0,1-.355-.094.711.711,0,0,1-.355-.612l-.064-52.46a.725.725,0,0,1,.341-.6l64.168-37.208a.706.706,0,0,1,.706,0,.716.716,0,0,1,.36.617l.059,52.46a.7.7,0,0,1-.355.612l-64.168,37.213A.7.7,0,0,1,751.085,1013.5Zm.647-52.756.064,50.841L814.532,975.2l-.059-50.816Z" transform="translate(-685.986 -885.201)" fill="#262424"/>
        <path id="Path_1957" data-name="Path 1957" d="M806.7,908.81,784.84,921.431V942.1l21.891-12.641Z" transform="translate(-684.557 -850.757)" fill="url(#linear-gradient-23)"/>
        <path id="Path_1958" data-name="Path 1958" d="M728.38,954.016l.025,20.657,21.871-12.626V941.38Z" transform="translate(-655.966 -867.25)" fill="url(#linear-gradient-23)"/>
        <path id="Path_1959" data-name="Path 1959" d="M711.6,829.838,647.569,867.05,583.12,829.842l64.035-37.213Z" transform="translate(-582.406 -791.923)" fill="#fff"/>
        <path id="Path_1960" data-name="Path 1960" d="M685.152,922.851a.7.7,0,0,1-.355-.1l-64.449-37.207a.711.711,0,0,1,0-1.229L684.382,847.1a.716.716,0,0,1,.711,0l64.454,37.213a.711.711,0,0,1,0,1.229l-64.035,37.213a.7.7,0,0,1-.36.094Zm-63.033-37.923,63.033,36.388,62.623-36.388-63.033-36.393Z" transform="translate(-619.994 -847.009)" fill="#262424"/>
        <path id="Path_1961" data-name="Path 1961" d="M712.408,848.255l-33.135,19.26L645.92,848.26,679.055,829Z" transform="translate(-614.208 -810.341)" fill="#fff"/>
        <path id="Path_1962" data-name="Path 1962" d="M716.853,923.325a.71.71,0,0,1-.355-.094l-33.353-19.25a.725.725,0,0,1-.355-.617.711.711,0,0,1,.355-.612l33.135-19.25a.715.715,0,0,1,.716,0l33.353,19.25a.711.711,0,0,1,.351.617.7.7,0,0,1-.351.612l-33.135,19.25a.725.725,0,0,1-.36.094Zm-31.931-19.966L716.853,921.8l31.719-18.436-31.931-18.436Z" transform="translate(-651.794 -865.44)" fill="#262424"/>
      </g>
      <g id="Group_857" data-name="Group 857" transform="translate(100.793 118.617)">
        <path id="Path_1963" data-name="Path 1963" d="M656.361,867.237l-.054,16.111L600.5,851.131l.054-16.111Z" transform="translate(-599.789 -802.09)" fill="#fff"/>
        <path id="Path_1964" data-name="Path 1964" d="M693.9,939.148a.7.7,0,0,1-.355-.1l-55.806-32.217a.71.71,0,0,1-.355-.617l.054-16.111a.711.711,0,0,1,1.066-.612l55.806,32.217a.711.711,0,0,1,.355.617l-.054,16.111a.711.711,0,0,1-.355.612.7.7,0,0,1-.355.1Zm-55.1-33.343,54.39,31.4.049-14.472-54.39-31.4Z" transform="translate(-637.38 -857.174)" fill="#262424"/>
        <path id="Path_1965" data-name="Path 1965" d="M713.45,867.237l.054,16.111,55.806-32.217-.054-16.111Z" transform="translate(-656.987 -802.09)" fill="#fff"/>
        <path id="Path_1966" data-name="Path 1966" d="M751.1,939.148a.7.7,0,0,1-.355-.1.711.711,0,0,1-.355-.612l-.054-16.111a.711.711,0,0,1,.355-.617l55.806-32.217a.711.711,0,0,1,1.066.612l.054,16.111a.71.71,0,0,1-.355.617L751.45,939.055a.7.7,0,0,1-.355.094Zm.656-16.412.049,14.472,54.39-31.4-.049-14.472Z" transform="translate(-694.578 -857.174)" fill="#262424"/>
        <path id="Path_1967" data-name="Path 1967" d="M711.862,801.957l-55.446,32.222L600.61,801.962l55.446-32.222Z" transform="translate(-599.845 -769.032)" fill="#fff"/>
        <path id="Path_1968" data-name="Path 1968" d="M694.012,889.979a.7.7,0,0,1-.355-.1l-55.811-32.217a.716.716,0,0,1-.355-.612.705.705,0,0,1,.355-.617l55.446-32.222a.706.706,0,0,1,.711,0l55.787,32.217a.716.716,0,0,1,.355.617.7.7,0,0,1-.355.612L694.363,889.88a.7.7,0,0,1-.351.1Zm-54.395-32.933,54.395,31.4,54.029-31.4-54.395-31.4Z" transform="translate(-637.436 -824.116)" fill="#262424"/>
      </g>
      <g id="Group_858" data-name="Group 858" transform="translate(92.212 64.948)">
        <path id="Path_1969" data-name="Path 1969" d="M647.5,773.612l-.064,52.46L582.99,788.86l.064-52.46Z" transform="translate(-582.341 -698.479)" fill="url(#linear-gradient)"/>
        <path id="Path_1970" data-name="Path 1970" d="M597.965,777.2l21.866,12.621v20.667L597.94,797.852Z" transform="translate(-589.911 -719.141)" fill="#fff"/>
        <path id="Path_1971" data-name="Path 1971" d="M657.412,866.289a.731.731,0,0,1-.355-.1l-21.891-12.636a.711.711,0,0,1-.355-.617l.03-20.652a.711.711,0,0,1,1.066-.612l21.862,12.621a.706.706,0,0,1,.355.612v20.672a.721.721,0,0,1-.711.711Zm-21.18-13.771,20.474,11.846V845.32l-20.45-11.8Z" transform="translate(-627.497 -774.225)" fill="#262424"/>
        <path id="Path_1972" data-name="Path 1972" d="M676.281,822.406l-.02,20.657L654.39,830.437V809.77Z" transform="translate(-618.498 -735.634)" fill="#fff"/>
        <path id="Path_1973" data-name="Path 1973" d="M713.847,898.856a.721.721,0,0,1-.355-.094l-21.857-12.626a.706.706,0,0,1-.355-.617V864.852a.71.71,0,0,1,.355-.617.73.73,0,0,1,.711,0l21.891,12.641a.711.711,0,0,1,.355.612v20.657a.706.706,0,0,1-.355.617A.7.7,0,0,1,713.847,898.856ZM692.692,885.11l20.45,11.807V877.9l-20.47-11.817Z" transform="translate(-656.094 -790.716)" fill="#262424"/>
        <path id="Path_1974" data-name="Path 1974" d="M713.44,773.612l.059,52.46,64.163-37.213L777.6,736.4Z" transform="translate(-648.401 -698.479)" fill="#fff"/>
        <path id="Path_1975" data-name="Path 1975" d="M751.085,881.886a.7.7,0,0,1-.355-.094.716.716,0,0,1-.355-.617l-.064-52.455a.716.716,0,0,1,.355-.617l64.153-37.2a.716.716,0,0,1,1.066.617l.059,52.455a.706.706,0,0,1-.355.617l-64.168,37.212A.7.7,0,0,1,751.085,881.886Zm.647-52.761.064,50.841,62.737-36.383-.059-50.816Z" transform="translate(-685.986 -753.583)" fill="#262424"/>
        <path id="Path_1976" data-name="Path 1976" d="M806.7,777.2,784.84,789.821v20.667l21.891-12.636Z" transform="translate(-684.558 -719.141)" fill="url(#linear-gradient-19)"/>
        <path id="Path_1977" data-name="Path 1977" d="M728.38,822.406l.025,20.657,21.871-12.626V809.77Z" transform="translate(-655.966 -735.634)" fill="url(#linear-gradient-27)"/>
        <path id="Path_1978" data-name="Path 1978" d="M711.6,698.223l-64.035,37.212L583.12,698.223l64.035-37.213Z" transform="translate(-582.407 -660.302)" fill="#fff"/>
        <path id="Path_1979" data-name="Path 1979" d="M685.153,791.21a.7.7,0,0,1-.355-.094l-64.449-37.188a.716.716,0,0,1,0-1.234l64.035-37.213a.706.706,0,0,1,.711,0l64.454,37.227a.711.711,0,0,1,.355.612.725.725,0,0,1-.355.617l-64.035,37.2A.694.694,0,0,1,685.153,791.21Zm-63.033-37.9L685.153,789.7l62.623-36.388-63.033-36.393Z" transform="translate(-619.995 -715.385)" fill="#262424"/>
        <path id="Path_1980" data-name="Path 1980" d="M712.408,716.645,679.273,735.9,645.92,716.645l33.135-19.255Z" transform="translate(-614.208 -678.725)" fill="#fff"/>
        <path id="Path_1981" data-name="Path 1981" d="M716.855,791.71a.716.716,0,0,1-.355-.1l-33.353-19.25a.711.711,0,0,1,0-1.229l33.135-19.25a.716.716,0,0,1,.716,0l33.353,19.25a.716.716,0,0,1,0,1.229l-33.135,19.25a.735.735,0,0,1-.36.1Zm-31.931-19.971,31.931,18.436,31.719-18.431-31.931-18.436Z" transform="translate(-651.796 -733.818)" fill="#262424"/>
      </g>
      <g id="Group_859" data-name="Group 859" transform="translate(100.793 53.654)">
        <path id="Path_1982" data-name="Path 1982" d="M656.361,735.627l-.054,16.111L600.5,719.516l.054-16.106Z" transform="translate(-599.789 -670.48)" fill="#fff"/>
        <path id="Path_1983" data-name="Path 1983" d="M693.9,807.531a.7.7,0,0,1-.355-.094l-55.806-32.222a.7.7,0,0,1-.355-.617l.054-16.106a.716.716,0,0,1,.355-.617.731.731,0,0,1,.711,0L694.307,790.1a.711.711,0,0,1,.355.617l-.054,16.111a.715.715,0,0,1-.355.612A.7.7,0,0,1,693.9,807.531Zm-55.1-33.353,54.39,31.4.049-14.472-54.39-31.388Z" transform="translate(-637.38 -725.562)" fill="#262424"/>
        <path id="Path_1984" data-name="Path 1984" d="M713.45,735.627l.054,16.111,55.806-32.222-.054-16.106Z" transform="translate(-656.987 -670.48)" fill="#fff"/>
        <path id="Path_1985" data-name="Path 1985" d="M751.1,807.547a.7.7,0,0,1-.355-.094.716.716,0,0,1-.355-.612l-.054-16.111a.706.706,0,0,1,.355-.617l55.806-32.207a.73.73,0,0,1,.711,0,.716.716,0,0,1,.355.617l.054,16.106a.7.7,0,0,1-.355.617L751.45,807.453a.7.7,0,0,1-.355.094Zm.656-16.407.049,14.472,54.39-31.418-.049-14.472Z" transform="translate(-694.578 -725.577)" fill="#262424"/>
        <path id="Path_1986" data-name="Path 1986" d="M711.862,670.347l-55.446,32.222L600.61,670.352l55.446-32.222Z" transform="translate(-599.845 -637.422)" fill="#fff"/>
        <path id="Path_1987" data-name="Path 1987" d="M694.012,758.369a.7.7,0,0,1-.355-.1l-55.811-32.217a.716.716,0,0,1-.355-.617.7.7,0,0,1,.355-.612L693.292,692.6a.705.705,0,0,1,.711,0l55.787,32.232a.716.716,0,0,1,.355.612.706.706,0,0,1-.355.617L694.363,758.27a.7.7,0,0,1-.351.1Zm-54.395-32.933,54.395,31.4,54.029-31.4-54.395-31.4Z" transform="translate(-637.436 -692.505)" fill="#262424"/>
      </g>
      <g id="Group_860" data-name="Group 860" transform="translate(92.209)">
        <path id="Path_1988" data-name="Path 1988" d="M647.5,642l-.064,52.46L582.99,657.25l.064-52.46Z" transform="translate(-582.338 -566.884)" fill="url(#linear-gradient)"/>
        <path id="Path_1989" data-name="Path 1989" d="M597.965,645.59l21.866,12.621v20.667L597.94,666.242Z" transform="translate(-589.909 -587.545)" fill="#fff"/>
        <path id="Path_1990" data-name="Path 1990" d="M657.412,734.673a.719.719,0,0,1-.355-.094l-21.891-12.636a.716.716,0,0,1-.355-.617l.03-20.652a.711.711,0,0,1,1.066-.612l21.862,12.621a.7.7,0,0,1,.336.627v20.672a.706.706,0,0,1-.355.612A.694.694,0,0,1,657.412,734.673Zm-21.18-13.757,20.474,11.817V713.705l-20.45-11.8Z" transform="translate(-627.495 -642.63)" fill="#262424"/>
        <path id="Path_1991" data-name="Path 1991" d="M676.281,690.786l-.02,20.662L654.39,698.822V678.15Z" transform="translate(-618.495 -604.034)" fill="#fff"/>
        <path id="Path_1992" data-name="Path 1992" d="M713.847,767.259a.721.721,0,0,1-.355-.094l-21.857-12.626a.711.711,0,0,1-.355-.617V733.269a.711.711,0,0,1,1.066-.617l21.891,12.636a.726.726,0,0,1,.355.617v20.657a.706.706,0,0,1-.355.617A.7.7,0,0,1,713.847,767.259ZM692.7,753.507l20.45,11.807V746.3l-20.47-11.817Z" transform="translate(-656.091 -659.133)" fill="#262424"/>
        <path id="Path_1993" data-name="Path 1993" d="M713.44,642l.059,52.46,64.163-37.213-.064-52.46Z" transform="translate(-648.398 -566.884)" fill="#fff"/>
        <path id="Path_1994" data-name="Path 1994" d="M751.085,750.262a.75.75,0,0,1-.355-.094.716.716,0,0,1-.355-.617L750.31,697.1a.716.716,0,0,1,.355-.612l64.168-37.212a.7.7,0,0,1,.706,0,.711.711,0,0,1,.36.612l.059,52.46a.711.711,0,0,1-.355.617l-64.168,37.208A.7.7,0,0,1,751.085,750.262Zm.646-52.761.064,50.816,62.736-36.388-.059-50.816Z" transform="translate(-685.984 -621.973)" fill="#262424"/>
        <path id="Path_1995" data-name="Path 1995" d="M806.7,645.59,784.84,658.211v20.667l21.891-12.636Z" transform="translate(-684.555 -587.545)" fill="url(#linear-gradient-19)"/>
        <path id="Path_1996" data-name="Path 1996" d="M728.38,690.786l.025,20.662,21.871-12.626V678.15Z" transform="translate(-655.964 -604.034)" fill="url(#linear-gradient-19)"/>
        <path id="Path_1997" data-name="Path 1997" d="M711.6,566.613l-64.035,37.212L583.12,566.613,647.155,529.4Z" transform="translate(-582.404 -528.707)" fill="#fff"/>
        <path id="Path_1998" data-name="Path 1998" d="M685.15,659.634a.7.7,0,0,1-.355-.094l-64.449-37.213a.711.711,0,0,1-.355-.612.726.726,0,0,1,.355-.617l64.035-37.2a.706.706,0,0,1,.711,0l64.454,37.208a.716.716,0,0,1,0,1.234l-64.035,37.2A.694.694,0,0,1,685.15,659.634Zm-63.033-37.923L685.15,658.1l62.623-36.388L684.74,585.323Z" transform="translate(-619.99 -583.805)" fill="#262424"/>
        <path id="Path_1999" data-name="Path 1999" d="M712.408,585.035l-33.135,19.255L645.92,585.035l33.135-19.255Z" transform="translate(-614.206 -547.13)" fill="url(#linear-gradient)"/>
      </g>
    </g>
    <g id="Man_Sitting" data-name="Man Sitting" transform="translate(264.975 138.981)">
      <path id="Path_2000" data-name="Path 2000" d="M648.716,520.868c-.252.81-.494,1.56-.765,2.241-.316.849-.642,1.673-.987,2.468a11.244,11.244,0,0,1-13.386,6.417,11.985,11.985,0,0,1-8.539-14.147l1.481-10.558s11.318-43.777,13.742-49.562c2.5-5.992,9.541-9.916,9.541-9.916,7.152,6.807,8.347,16.358,6.121,33.807C655.128,487.964,652.216,509.717,648.716,520.868Z" transform="translate(-600.28 -393.299)" fill="url(#linear-gradient-32)"/>
      <path id="Path_2001" data-name="Path 2001" d="M657.4,594.15c-.252.809-.494,1.56-.765,2.241-.316.849-.642,1.673-.987,2.468a11.244,11.244,0,0,1-11.619,6.851,11.764,11.764,0,0,1-1.737-.341,10.3,10.3,0,0,1,.049-5.81,10.02,10.02,0,0,1,12.562-6.58,9.867,9.867,0,0,1,2.5,1.17Z" transform="translate(-608.959 -466.581)" fill="#fff"/>
      <path id="Path_2002" data-name="Path 2002" d="M682.953,635.045l-3.811,19.369a11.965,11.965,0,0,1-11.738,9.68H625.75A12.937,12.937,0,0,1,612.916,649.7h0a12.932,12.932,0,0,1,11.466-11.422l31.186-1.51V624.22h27.395Z" transform="translate(-594.244 -482.633)" fill="url(#linear-gradient-33)"/>
      <path id="Path_2003" data-name="Path 2003" d="M697.9,635.31l-3.273,17.858a6.417,6.417,0,0,1-6.293,5.267H659.42" transform="translate(-617.835 -488.25)" fill="none" stroke="#262424" stroke-linecap="round" stroke-linejoin="round" stroke-width="1"/>
      <path id="Path_2004" data-name="Path 2004" d="M724.206,635.31l-1.9,10.918a4.443,4.443,0,0,0,1.975,4.512l2.32,1.481" transform="translate(-649.648 -488.25)" fill="#fff" stroke="#262424" stroke-linecap="round" stroke-linejoin="round" stroke-width="1"/>
      <path id="Path_2005" data-name="Path 2005" d="M628.56,735.113l10.978,22.755,8.658-4.714-8.988-24Z" transform="translate(-583.293 -508.222)" fill="#fff" stroke="#262424" stroke-linecap="round" stroke-linejoin="round" stroke-width="1"/>
      <path id="Path_2006" data-name="Path 2006" d="M687.861,874.519l3.613,2.468L722.2,832.307s-1.787-1.431-4.847-3.746a299.172,299.172,0,0,0-28.491-19.25L676.75,821.991s4.319,20.993,6.743,38.7c.252,1.841.434,3.722.523,5.627C684.189,869.983,685.511,872.9,687.861,874.519Z" transform="translate(-626.611 -576.363)" fill="url(#linear-gradient-23)"/>
      <path id="Path_2007" data-name="Path 2007" d="M687.861,874.519l3.613,2.468L722.2,832.307s-1.787-1.431-4.847-3.746a299.172,299.172,0,0,0-28.491-19.25L676.75,821.991s4.319,20.993,6.743,38.7c.252,1.841.434,3.722.523,5.627C684.189,869.983,685.511,872.9,687.861,874.519Z" transform="translate(-626.611 -576.363)" fill="none" stroke="#262424" stroke-linecap="round" stroke-linejoin="round" stroke-width="1"/>
      <line id="Line_52" data-name="Line 52" x2="6.135" y2="28.969" transform="translate(58.698 242.108)" fill="none" stroke="#262424" stroke-linecap="round" stroke-linejoin="round" stroke-width="1"/>
      <ellipse id="Ellipse_172" data-name="Ellipse 172" cx="4.813" cy="5.36" rx="4.813" ry="5.36" transform="translate(67.031 252.574) rotate(-55.49)" fill="#fff"/>
      <path id="Path_2008" data-name="Path 2008" d="M694.778,894.269l3.613,2.468,30.722-44.681s-1.787-1.431-4.847-3.746L708.031,871.9s-11.545-5.716-17.622,8.549c.252,1.841.434,3.722.523,5.627C691.106,889.733,692.429,892.65,694.778,894.269Z" transform="translate(-633.528 -596.113)" fill="#fff" stroke="#262424" stroke-linecap="round" stroke-linejoin="round" stroke-width="1"/>
      <path id="Path_2009" data-name="Path 2009" d="M630.883,661.873,647,720.507l-16.437,7.054-28.081-50.767-.943-1.7-.523-.948a16.565,16.565,0,0,1-.558-15.188,15.8,15.8,0,0,1,4.077-5.262,13.666,13.666,0,0,1,1.1-.849A17.034,17.034,0,0,1,618.745,650,16.523,16.523,0,0,1,630.883,661.873Z" transform="translate(-587.18 -495.532)" fill="url(#linear-gradient-35)"/>
      <path id="Path_2010" data-name="Path 2010" d="M617.484,626.35H608.17L624.5,674.693" transform="translate(-572.967 -456.164)" fill="none" stroke="#262424" stroke-linecap="round" stroke-linejoin="round" stroke-width="1"/>
      <line id="Line_53" data-name="Line 53" y1="5.627" x2="14.122" transform="translate(42.992 221.609)" fill="none" stroke="#262424" stroke-linecap="round" stroke-linejoin="round" stroke-width="1"/>
      <path id="Path_2011" data-name="Path 2011" d="M615.018,660.631a12.167,12.167,0,0,1-12.533,19.4l-.943-1.7-.523-.948a16.565,16.565,0,0,1-.558-15.188,15.8,15.8,0,0,1,4.077-5.262,13.682,13.682,0,0,1,1.1-.849A12.133,12.133,0,0,1,615.018,660.631Z" transform="translate(-587.18 -498.767)" fill="#fff" stroke="#262424" stroke-linecap="round" stroke-linejoin="round" stroke-width="1"/>
      <path id="Path_2012" data-name="Path 2012" d="M760.072,635.045l-3.811,19.369a11.965,11.965,0,0,1-11.738,9.68H720.11A12.942,12.942,0,0,1,707.247,649.7h0a12.942,12.942,0,0,1,11.471-11.422l13.959-1.51V624.22h27.395Z" transform="translate(-642.013 -482.633)" fill="url(#linear-gradient-36)"/>
      <path id="Path_2013" data-name="Path 2013" d="M774.133,635.31l-3.273,17.858a6.417,6.417,0,0,1-6.318,5.267H752" transform="translate(-664.717 -488.25)" fill="none" stroke="#262424" stroke-linecap="round" stroke-linejoin="round" stroke-width="1"/>
      <path id="Path_2014" data-name="Path 2014" d="M783.666,635.31l-1.9,10.918a4.443,4.443,0,0,0,1.974,4.512l2.32,1.481" transform="translate(-679.758 -488.25)" fill="none" stroke="#262424" stroke-linecap="round" stroke-linejoin="round" stroke-width="1"/>
      <path id="Path_2015" data-name="Path 2015" d="M645.792,740.81l-5.662,24.621,9.7,1.737,8-24.349Z" transform="translate(-589.152 -514.127)" fill="#fff" stroke="#262424" stroke-linecap="round" stroke-linejoin="round" stroke-width="1"/>
      <path id="Path_2016" data-name="Path 2016" d="M624.573,877.958l1.264,4.2,51.912-15.652s-.494-2.246-1.441-5.977a297.982,297.982,0,0,0-10.193-32.839l-17.37,2.34s-9.758,19.083-18.94,34.414c-.953,1.594-1.974,3.174-3.11,4.714C624.543,872.124,623.748,875.229,624.573,877.958Z" transform="translate(-600.026 -585.671)" fill="url(#linear-gradient-19)"/>
      <path id="Path_2017" data-name="Path 2017" d="M624.573,877.958l1.264,4.2,51.912-15.652s-.494-2.246-1.441-5.977a297.982,297.982,0,0,0-10.193-32.839l-17.37,2.34s-9.758,19.083-18.94,34.414c-.953,1.594-1.974,3.174-3.11,4.714C624.543,872.124,623.748,875.229,624.573,877.958Z" transform="translate(-600.026 -585.671)" fill="none" stroke="#262424" stroke-linecap="round" stroke-linejoin="round" stroke-width="1"/>
      <line id="Line_54" data-name="Line 54" x1="13.327" y2="26.442" transform="translate(44.275 246.955)" fill="none" stroke="#262424" stroke-linecap="round" stroke-linejoin="round" stroke-width="1"/>
      <ellipse id="Ellipse_173" data-name="Ellipse 173" cx="4.826" cy="5.376" rx="4.826" ry="5.376" transform="translate(59.006 260.967) rotate(-16.809)" fill="#fff"/>
      <path id="Path_2018" data-name="Path 2018" d="M624.573,911.649l1.264,4.2L677.748,900.2s-.494-2.246-1.441-5.978L648.9,902.5s-5.43-11.683-19.1-4.349c-.953,1.594-1.974,3.174-3.11,4.714C624.543,905.815,623.748,908.919,624.573,911.649Z" transform="translate(-600.026 -619.361)" fill="#fff" stroke="#262424" stroke-linecap="round" stroke-linejoin="round" stroke-width="1"/>
      <path id="Path_2019" data-name="Path 2019" d="M721.769,675.448l-24.093,55.816-17.237-4.778,9.837-57.174.331-1.92.183-1.066a16.545,16.545,0,0,1,9.067-12.2,15.8,15.8,0,0,1,6.471-1.56h1.387a17.026,17.026,0,0,1,2.325.3,15.824,15.824,0,0,1,9.67,5.726A16.521,16.521,0,0,1,721.769,675.448Z" transform="translate(-628.479 -496.99)" fill="url(#linear-gradient-38)"/>
      <line id="Line_55" data-name="Line 55" y1="15.928" x2="2.739" transform="translate(52.346 211.357)" fill="none" stroke="#262424" stroke-linecap="round" stroke-linejoin="round" stroke-width="1"/>
      <path id="Path_2020" data-name="Path 2020" d="M699.8,626.35h-8.2L671.77,680.69" transform="translate(-605.174 -456.164)" fill="none" stroke="#262424" stroke-linecap="round" stroke-linejoin="round" stroke-width="1"/>
      <line id="Line_56" data-name="Line 56" x2="13.939" y2="3.791" transform="translate(55.648 225.341)" fill="none" stroke="#262424" stroke-linecap="round" stroke-linejoin="round" stroke-width="1"/>
      <path id="Path_2021" data-name="Path 2021" d="M722.281,662.052a12.172,12.172,0,0,1-21.911,7.3l.331-1.92.183-1.066a16.546,16.546,0,0,1,9.067-12.2,15.8,15.8,0,0,1,6.471-1.56h1.387A12.147,12.147,0,0,1,722.281,662.052Z" transform="translate(-638.572 -497.01)" fill="#fff" stroke="#262424" stroke-linecap="round" stroke-linejoin="round" stroke-width="1"/>
      <line id="Line_57" data-name="Line 57" x1="1.476" y2="8.599" transform="translate(60.322 172.343)" fill="#fff" stroke="#262424" stroke-linecap="round" stroke-linejoin="round" stroke-width="1"/>
      <path id="Path_2022" data-name="Path 2022" d="M730.522,436.652s-21.314-11.062-35.934-9.216-28.175,9.926-28.175,9.926c-9.215,26.161-8.885,101.919-8.885,101.919s16.358,4.363,60.575,2.078l.661-11.279a1.629,1.629,0,0,1,1.644-1.525h0A1.629,1.629,0,0,1,722,530.214l-.271,11.21c6.683,0,14.951-.775,14.951-.775C738.148,493.323,730.522,436.652,730.522,436.652Z" transform="translate(-616.876 -382.877)" fill="url(#linear-gradient-39)"/>
      <path id="Path_2023" data-name="Path 2023" d="M665.288,454.88c-8.09,28.8-7.809,98.4-7.809,98.4" transform="translate(-616.851 -396.88)" fill="none" stroke="#262424" stroke-linecap="round" stroke-linejoin="round" stroke-width="1"/>
      <path id="Path_2024" data-name="Path 2024" d="M738.2,425.914a16.985,16.985,0,0,1-9.976,10.405,63.05,63.05,0,0,0-3.742-9.655,25.767,25.767,0,0,0-3.307,10.139,12.164,12.164,0,0,1-9.541-9.107c.39-7.69,6.506-13.92,12.142-14.152C736.226,413.026,738.2,425.914,738.2,425.914Z" transform="translate(-644.274 -375.94)" fill="#fff" stroke="#262424" stroke-linecap="round" stroke-linejoin="round" stroke-width="1"/>
      <path id="Path_2025" data-name="Path 2025" d="M820.89,517.388c0,.854,0,1.644-.064,2.369-.044.9-.114,1.792-.2,2.641a11.2,11.2,0,0,1-9.107,9.911,10.725,10.725,0,0,1-1.762.188,11.984,11.984,0,0,1-12.37-10.958l-.563-6.516s-1.723-51.265-1.481-57.534,4.98-11.17,4.98-11.17c8.885,4.363,12.69,14.107,15.8,31.428C817.2,484.075,820.9,505.7,820.89,517.388Z" transform="translate(-686.656 -392.545)" fill="url(#linear-gradient-40)"/>
      <path id="Path_2026" data-name="Path 2026" d="M796.763,515.712c-.227-6.975-1.668-50.841-1.481-56.6a17.912,17.912,0,0,1,3.682-9.591" transform="translate(-686.627 -394.165)" fill="none" stroke="#262424" stroke-linecap="round" stroke-linejoin="round" stroke-width="1"/>
      <path id="Path_2027" data-name="Path 2027" d="M834.035,589.915c0,.854,0,1.644-.064,2.369-.044.9-.114,1.792-.2,2.641a11.18,11.18,0,0,1-10.81,10.2,10.267,10.267,0,0,1-1.683-5.558,10.025,10.025,0,0,1,10.03-10.025A9.891,9.891,0,0,1,834.035,589.915Z" transform="translate(-699.801 -465.071)" fill="#fff"/>
      <path id="Path_2028" data-name="Path 2028" d="M784.067,585.873a15.3,15.3,0,0,1-11.106,9.99h-.074l-.494.123c-11.249,2.774-43.116,7.74-43.116,7.74-8.2-4.936-4.936-14.448-4.936-14.448l42.533-19.586c8.993-4.334,17.582,1.747,17.952,10.642a15.645,15.645,0,0,1-.76,5.538Z" transform="translate(-650.385 -454.297)" fill="url(#linear-gradient-41)"/>
      <path id="Path_2029" data-name="Path 2029" d="M764.747,599.108c-13.895,2.725-35.47,6.086-35.47,6.086-8.2-4.936-4.936-14.448-4.936-14.448l42.533-19.586" transform="translate(-650.385 -455.764)" fill="none" stroke="#262424" stroke-linecap="round" stroke-linejoin="round" stroke-width="1"/>
      <path id="Path_2030" data-name="Path 2030" d="M820.948,607.213h-.074A10.025,10.025,0,0,1,831.037,591a9.61,9.61,0,0,1,1.807.661,15.642,15.642,0,0,1-.79,5.538A15.3,15.3,0,0,1,820.948,607.213Z" transform="translate(-698.378 -465.646)" fill="#fff"/>
      <path id="Path_2031" data-name="Path 2031" d="M835.31,592.72a15.645,15.645,0,0,1-.79,5.538,15.3,15.3,0,0,1-11.106,9.99h-.074" transform="translate(-700.844 -466.682)" fill="none" stroke="#262424" stroke-linecap="round" stroke-linejoin="round" stroke-width="1"/>
      <path id="Path_2032" data-name="Path 2032" d="M705.083,613.76s5.43,4.7,3.974,10.958l-8.149,5.795-3.761,5.755a1.732,1.732,0,0,1-1.826.74l-7.567-1.683a1.732,1.732,0,0,1-1.249-2.3l2.991-8.006-4.734,6.821a1.728,1.728,0,0,1-2.675.212h0a1.733,1.733,0,0,1-.375-1.8l3.924-10.593a3.948,3.948,0,0,1,2.932-2.522Z" transform="translate(-629.069 -477.336)" fill="#fff" stroke="#262424" stroke-linecap="round" stroke-linejoin="round" stroke-width="1"/>
      <circle id="Ellipse_174" data-name="Ellipse 174" cx="1.53" cy="1.53" r="1.53" transform="translate(82.159 143.763)" fill="#fff"/>
      <path id="Path_2033" data-name="Path 2033" d="M736.557,381.34l.37,7.651.642,13.1c-4.161,3.4-8.391,4.052-12.769,1.264l.148-6.116.217-9.26Z" transform="translate(-650.943 -359.639)" fill="#fff" stroke="#262424" stroke-linecap="round" stroke-linejoin="round" stroke-width="1"/>
      <path id="Path_2034" data-name="Path 2034" d="M732.684,386c.2,3.455,1.4,15.183-7.764,17.148l.306-12.8Z" transform="translate(-651.004 -361.999)" fill="#262424"/>
      <path id="Path_2035" data-name="Path 2035" d="M700.958,368.713c1.308,6.2,3.949,13.5,11.328,11.516,8.786-2.35,13.88-9.294,13.046-17.8s-5.277-12.888-15.356-10.81a15.416,15.416,0,0,0-2.513.731c-5.691,2.216-8.115,7.4-7.133,13.046C700.509,366.413,700.707,367.548,700.958,368.713Z" transform="translate(-638.445 -344.327)" fill="#fff"/>
      <path id="Path_2036" data-name="Path 2036" d="M725.332,362.384c-.839-8.515-5.277-12.888-15.356-10.81a15.416,15.416,0,0,0-2.513.731c-5.691,2.216-8.115,7.4-7.133,13.046.178,1.022.375,2.157.627,3.322,1.308,6.2,3.949,13.5,11.328,11.516a19.286,19.286,0,0,0,7.7-3.949" transform="translate(-638.445 -344.307)" fill="none" stroke="#262424" stroke-linecap="round" stroke-linejoin="round" stroke-width="1"/>
      <path id="Path_2037" data-name="Path 2037" d="M722.124,356.781a26.087,26.087,0,0,1-2.513,3.806l-4.477.79-1.3-3.09s-2.878.183-3.677-1.683a1.118,1.118,0,0,1-.049-.128,24.87,24.87,0,0,1-1.155-7.8s-6.55,3.781-10.247,4.576a8.551,8.551,0,0,1-4.5-.622c-3.085-1.13-6.16-5.627-6-8.91v-.064c.3-4.818,3.115-1.807,3.115-1.807s.291-3.885,2.651-4.413,4.255,2.818,4.255,2.818a37.741,37.741,0,0,1,13.9-2.088c9.378.41,7.769,7.009,7.769,7.009S726.912,346.6,722.124,356.781Z" transform="translate(-632.408 -337.375)" fill="#262424"/>
      <path id="Path_2038" data-name="Path 2038" d="M744.48,376.526a6.594,6.594,0,0,1,4.877-7.873,6.076,6.076,0,0,1,2.266-.084c4.526.716,4.482,11.086-6.372,11.466Z" transform="translate(-660.825 -353.137)" fill="#fff"/>
      <path id="Path_2039" data-name="Path 2039" d="M744.48,376.526a6.594,6.594,0,0,1,4.877-7.873,6.076,6.076,0,0,1,2.266-.084c4.526.716,4.482,11.086-6.372,11.466" transform="translate(-660.825 -353.137)" fill="none" stroke="#262424" stroke-linecap="round" stroke-linejoin="round" stroke-width="1"/>
      <rect id="Rectangle_54" data-name="Rectangle 54" width="25.741" height="6.575" rx="3.287" transform="translate(74.434 153.551)" fill="#fff" stroke="#262424" stroke-linecap="round" stroke-linejoin="round" stroke-width="3"/>
      <path id="Path_2040" data-name="Path 2040" d="M649.62,607.31H586.5a4.171,4.171,0,0,1-3.949-3.431l-7.315-46.216a2.858,2.858,0,0,1,2.888-3.455H641.2a4.176,4.176,0,0,1,3.949,3.455l7.315,46.216a2.853,2.853,0,0,1-2.843,3.431Z" transform="translate(-575.171 -447.179)" fill="#fff" stroke="#262424" stroke-linecap="round" stroke-linejoin="round" stroke-width="1"/>
    </g>
    <g id="Data" transform="translate(558.904 312.453)">
      <path id="Path_2041" data-name="Path 2041" d="M1223.282,741.472c1.57-5.893,4.043-10.682,7.093-13.732a29.9,29.9,0,0,0-20.825,20.825C1212.6,745.515,1217.388,743.042,1223.282,741.472Z" transform="translate(-1190.35 -708.528)" fill="url(#linear-gradient-2)"/>
      <path id="Path_2042" data-name="Path 2042" d="M1221.654,761.52c-7.671,2.33-13.1,6.274-13.984,10.746H1220.5A60.089,60.089,0,0,1,1221.654,761.52Z" transform="translate(-1189.398 -725.635)" fill="url(#linear-gradient-43)"/>
      <path id="Path_2043" data-name="Path 2043" d="M1221.654,799.271a59.99,59.99,0,0,1-1.15-10.741H1207.67C1208.558,793,1213.983,796.946,1221.654,799.271Z" transform="translate(-1189.398 -739.313)" fill="url(#linear-gradient-44)"/>
      <path id="Path_2044" data-name="Path 2044" d="M1247.73,757.317c-.691.059-1.377.138-2.058.227a52.955,52.955,0,0,0-5.356.987,56.023,56.023,0,0,0-1.426,11.511h12.932V757.08q-1.066.03-2.118.089C1249.043,757.208,1248.382,757.253,1247.73,757.317Z" transform="translate(-1205.208 -723.386)" fill="url(#linear-gradient-45)"/>
      <path id="Path_2045" data-name="Path 2045" d="M1240.316,800.041a54.3,54.3,0,0,0,6.328,1.061c.429.049.859.089,1.3.128s.859.074,1.293.1c.854.059,1.718.1,2.587.118V788.53H1238.89a56.024,56.024,0,0,0,1.426,11.511Z" transform="translate(-1205.208 -739.313)" fill="url(#linear-gradient-46)"/>
      <path id="Path_2046" data-name="Path 2046" d="M1209.55,801.89a29.9,29.9,0,0,0,20.825,20.825c-3.05-3.05-5.528-7.838-7.093-13.732C1217.388,807.413,1212.6,804.94,1209.55,801.89Z" transform="translate(-1190.35 -746.078)" fill="url(#linear-gradient-47)"/>
      <path id="Path_2047" data-name="Path 2047" d="M1270.335,747.055v5.311l3.544-3.544,1.831,1.826-5.375,5.385v6.57H1273l-.953-.958,3.455-3.455,2.591-2.591,1.269-1.264,1.831,1.831-2.636,2.631-1.831,1.831-1.974,1.974h7.325l.128-.133,2.656-2.656,1.831,1.831-.958.958h7.33l.034-.039-20.139-20.144-2.631,2.626Z" transform="translate(-1221.129 -715.962)" fill="url(#linear-gradient-48)"/>
      <path id="Path_2048" data-name="Path 2048" d="M1250.828,738.822c.637-.044,1.284-.079,1.935-.109l1.318-.039V725.84c-4.442.889-8.391,6.313-10.741,13.984a58.19,58.19,0,0,1,7.493-.987Z" transform="translate(-1207.462 -707.566)" fill="url(#linear-gradient-49)"/>
      <path id="Path_2049" data-name="Path 2049" d="M1314.364,788.53H1270.34v20.731h44.024Z" transform="translate(-1221.134 -739.313)" fill="url(#linear-gradient-50)"/>
      <path id="Path_2050" data-name="Path 2050" d="M1300.9,748.812l1.831,1.831-2.838,2.838,3.662,3.663,2.838-2.838,1.831,1.831-2.838,2.838,3.569,3.569-.035.039h.183l2.784-2.784,1.333,1.333,2.749-2.749L1299.988,742.4l-5.588,5.588,3.662,3.662Z" transform="translate(-1233.318 -715.952)" fill="url(#linear-gradient-27)"/>
      <path id="Path_2051" data-name="Path 2051" d="M1254.076,826.594V818.82q-1.308-.03-2.591-.1c-.435,0-.869-.054-1.293-.089s-.869-.074-1.3-.118a56.177,56.177,0,0,1-5.563-.839c2.305,7.661,6.254,13.085,10.746,13.984Z" transform="translate(-1207.456 -754.069)" fill="url(#linear-gradient-52)"/>
      <path id="Path_2052" data-name="Path 2052" d="M1341.664,777.973h6.456V772.79H1342.2l-5.2,5.183Z" transform="translate(-1254.891 -731.342)" fill="url(#linear-gradient-53)"/>
      <path id="Path_2053" data-name="Path 2053" d="M1174.541,785.819a3.884,3.884,0,0,0,3.648-2.591h8.041v-2.586h-8.041a3.88,3.88,0,1,0-3.648,5.178Z" transform="translate(-1170.652 -734.01)" fill="url(#linear-gradient-54)"/>
      <path id="Path_2054" data-name="Path 2054" d="M1200.67,722.78a3.9,3.9,0,0,0,1.663-.385l5.7,5.691,1.831-1.831-5.7-5.7a3.885,3.885,0,0,0-.745-4.408,3.978,3.978,0,0,0-5.494,0,3.885,3.885,0,0,0,2.744,6.629Z" transform="translate(-1183.888 -702.103)" fill="url(#linear-gradient-55)"/>
      <path id="Path_2055" data-name="Path 2055" d="M1262.441,696.367v8.041l2.586-.035v-8.006a3.885,3.885,0,1,0-2.586,0Z" transform="translate(-1215.822 -688.819)" fill="url(#linear-gradient-56)"/>
      <path id="Path_2056" data-name="Path 2056" d="M1262.441,851.42v8.041a3.885,3.885,0,1,0,2.587,0v-8.006Z" transform="translate(-1215.822 -771.16)" fill="url(#linear-gradient-9)"/>
      <path id="Path_2057" data-name="Path 2057" d="M1208.013,830.36l-5.706,5.706a3.948,3.948,0,0,0-4.4.735,3.885,3.885,0,1,0,6.239,1.086l5.7-5.7Z" transform="translate(-1183.872 -760.495)" fill="url(#linear-gradient-58)"/>
    </g>
    <g id="Project_Management" data-name="Project Management" transform="translate(85.012 315.065)">
      <g id="Project_Management-2" data-name="Project Management">
        <path id="Path_2058" data-name="Path 2058" d="M328.427,779.617l-2.468-.123a18.48,18.48,0,0,0-1.481-3.549l1.713-1.836a1.273,1.273,0,0,0,0-1.589l-3.623-3.672a1.046,1.046,0,0,0-1.589,0l-1.866,1.713a17.9,17.9,0,0,0-3.549-1.481l-.123-2.468a1.1,1.1,0,0,0-1.1-1.1h-5.133a1.1,1.1,0,0,0-1.1,1.1l-.123,2.468a18.149,18.149,0,0,0-3.549,1.481l-1.836-1.713a1.046,1.046,0,0,0-1.589.123l-.123.123-3.549,3.426a1.046,1.046,0,0,0,0,1.589l1.594,1.836a17.932,17.932,0,0,0-1.481,3.549l-2.468.123a1.1,1.1,0,0,0-1.1,1.1v5.143a1.1,1.1,0,0,0,1.1,1.1l2.468.123a17.635,17.635,0,0,0,1.481,3.549l-1.594,1.836a1.288,1.288,0,0,0,0,1.589l3.672,3.672a1.046,1.046,0,0,0,1.589,0l1.836-1.713a18.4,18.4,0,0,0,3.554,1.481l.118,2.468a1.1,1.1,0,0,0,1.1,1.1h5.143a1.1,1.1,0,0,0,1.1-1.1l.123-2.468a18.221,18.221,0,0,0,3.549-1.481l1.836,1.713a1.278,1.278,0,0,0,1.589,0l3.672-3.672a1.036,1.036,0,0,0,0-1.589l-1.713-1.836a18.228,18.228,0,0,0,1.481-3.549l2.468-.123a1.1,1.1,0,0,0,1.1-1.1v-5.143a1.1,1.1,0,0,0-1.1-1.1ZM311.645,789.9a6.585,6.585,0,1,1,4.681-1.929A6.609,6.609,0,0,1,311.645,789.9Z" transform="translate(-252.763 -730.267)" fill="url(#linear-gradient-59)"/>
        <path id="Path_2059" data-name="Path 2059" d="M242.33,705.27h18.584a1.1,1.1,0,0,0,1.1-1.1v-6a1.1,1.1,0,0,0-1.1-1.1h-5.365a3.949,3.949,0,0,0-3.8-2.961,4.116,4.116,0,0,0-3.914,2.813h-5.385a1.1,1.1,0,0,0-1.1,1.1v6a1.037,1.037,0,0,0,.987,1.224Z" transform="translate(-226.154 -694.11)" fill="url(#linear-gradient-60)"/>
        <path id="Path_2060" data-name="Path 2060" d="M256.988,770.221l-3.672-3.672a3.613,3.613,0,0,1-.123-5.015l.494-.612a1.732,1.732,0,0,1-.247-.735H252.7a3.608,3.608,0,0,1-3.426-3.549v-5.143a3.529,3.529,0,0,1,3.426-3.549h.735c.123-.242.247-.494.365-.731l-.494-.612a3.623,3.623,0,0,1,.123-5.02l3.549-3.672a3.81,3.81,0,0,1,2.572-1.1,3.217,3.217,0,0,1,1.481.365h.247l.242.247V712.45a4.645,4.645,0,0,0-4.65-4.65h-7.843v3.179a3.549,3.549,0,0,1-3.549,3.549H226.755a3.549,3.549,0,0,1-3.549-3.549V707.9H215.23a4.65,4.65,0,0,0-4.65,4.655v62.322a4.65,4.65,0,0,0,4.65,4.65h41.759a4.65,4.65,0,0,0,4.65-4.65v-4.043a3.672,3.672,0,0,1-1.974.612,4.215,4.215,0,0,1-2.69-1.224Zm-31.59-4.773-5.129,5.138a1.214,1.214,0,0,1-1.974-.247l-1.836-3.184a1.259,1.259,0,1,1,2.2-1.224l.987,1.718,4.038-4.043a1.185,1.185,0,0,1,1.713,0,1.333,1.333,0,0,1,0,1.836Zm0-11.017-5.138,5.143a1.214,1.214,0,0,1-1.974-.247l-1.836-3.179a1.234,1.234,0,0,1,.494-1.713,1.313,1.313,0,0,1,1.742.355l.987,1.836,4.038-4.043a1.185,1.185,0,0,1,1.713,0,1.338,1.338,0,0,1,0,1.841Zm0-11.136-5.138,5.138a1.214,1.214,0,0,1-1.974-.242l-1.836-3.184a1.275,1.275,0,1,1,2.236-1.224l.987,1.836,4.038-4.038a1.211,1.211,0,1,1,1.713,1.713Zm0-11.017-5.138,5.143a1.382,1.382,0,0,1-1.974-.247l-1.836-3.184a1.259,1.259,0,0,1,2.2-1.224l.987,1.836,4.038-4.038a1.211,1.211,0,1,1,1.713,1.713Zm0-11.017-5.138,5.143a1.382,1.382,0,0,1-1.974-.247l-1.836-3.184a1.259,1.259,0,0,1,2.2-1.224l.987,1.718,4.038-4.043a1.185,1.185,0,0,1,1.713,0,1.333,1.333,0,0,1,0,1.836Zm2.813,1.481h26.566A1.318,1.318,0,0,1,256,723.965a1.224,1.224,0,0,1-1.224,1.224H228.221A1.224,1.224,0,0,1,227,723.965a1.318,1.318,0,0,1,1.219-1.224Zm0,11.259h26.566A1.318,1.318,0,0,1,256,735.224a1.224,1.224,0,0,1-1.224,1.224H228.221a1.234,1.234,0,1,1,0-2.468Zm12.977,35.988H228.221A1.318,1.318,0,0,1,227,768.765a1.224,1.224,0,0,1,1.219-1.224H241.2a1.234,1.234,0,1,1,0,2.468Zm4.151-11.151H228.221A1.318,1.318,0,0,1,227,757.614a1.155,1.155,0,0,1,1.219-1.224h17.118a1.229,1.229,0,0,1,1.224,1.224,1.318,1.318,0,0,1-1.224,1.224Zm2.962-11.259H228.226a1.234,1.234,0,0,1,0-2.468H248.3a1.318,1.318,0,0,1,1.224,1.224,1.224,1.224,0,0,1-1.224,1.244Z" transform="translate(-210.58 -701.043)" fill="url(#linear-gradient-53)"/>
      </g>
    </g>
    <g id="Presentation" transform="translate(492.938 150.509)">
      <path id="Path_2061" data-name="Path 2061" d="M1105.615,459.787a3.327,3.327,0,0,1-3.307,3.307h-17.064l6.609,12.8a1.081,1.081,0,0,1-.854,1.7h-6.91a1.125,1.125,0,0,1-.987-.533L1075.96,463.2h-9.191l-7.147,13.865a1.115,1.115,0,0,1-.958.533h-6.935a1.076,1.076,0,0,1-.958-1.481l6.609-13.011h-17.064a3.307,3.307,0,1,1,0-6.614h61.646a3.345,3.345,0,0,1,3.628,3.307Z" transform="translate(-1037.01 -409.223)" fill="url(#linear-gradient-62)"/>
      <path id="Path_2062" data-name="Path 2062" d="M1102.9,360.74h-56.31a3.1,3.1,0,0,0-3.09,3.095v42.02h62.6v-42.03a3.268,3.268,0,0,0-3.2-3.095Zm-26.339,4.373a5.282,5.282,0,0,1,5.331,5.336,5.438,5.438,0,1,1-5.331-5.336Zm-18.342,24.211h-2.883V392.2a1.066,1.066,0,0,1-1.066,1.066.987.987,0,0,1-1.066-1.066v-2.878h-2.878a1.066,1.066,0,0,1,0-2.132h2.878v-2.878a1.066,1.066,0,0,1,1.066-1.071.987.987,0,0,1,1.066,1.071v2.878h2.883a1.066,1.066,0,0,1,1.066,1.066.987.987,0,0,1-1.066,1.066Zm4.586-17.488h-2.883v2.878a1.066,1.066,0,0,1-1.066,1.066.987.987,0,0,1-1.066-1.066v-2.878h-2.878a1.071,1.071,0,0,1-1.066-1.066.987.987,0,0,1,1.066-1.071h2.878V366.93a1.071,1.071,0,0,1,1.066-1.066.987.987,0,0,1,1.066,1.066v2.878h2.883a1.071,1.071,0,0,1,1.066,1.066.948.948,0,0,1-1.066.987ZM1074,390.593h-2.878v2.883a1.066,1.066,0,0,1-2.132,0v-2.883h-2.774a1.066,1.066,0,0,1-1.066-1.066.987.987,0,0,1,1.066-1.066h2.878v-2.868a1.071,1.071,0,0,1,2.137,0v2.878h2.878a1.071,1.071,0,0,1,1.066,1.066A1.165,1.165,0,0,1,1074,390.6Zm25.81-10.558a1.032,1.032,0,0,1-1.481,0l-2.769-2.769v4.823a19.552,19.552,0,0,1-19.626,19.517,1.066,1.066,0,0,1,0-2.132,17.5,17.5,0,0,0,17.493-17.493v-4.827l-2.774,2.774a1.056,1.056,0,0,1-1.481-1.481l4.586-4.586a1.14,1.14,0,0,1,1.481,0l4.586,4.586a1.16,1.16,0,0,1,0,1.6Z" transform="translate(-1040.297 -360.73)" fill="url(#linear-gradient-2)"/>
      <path id="Path_2063" data-name="Path 2063" d="M1110.394,377.027a3.307,3.307,0,1,1-3.307-3.307,3.307,3.307,0,0,1,3.307,3.307" transform="translate(-1070.823 -367.308)" fill="url(#linear-gradient-19)"/>
    </g>
    <g id="AI" transform="translate(136.06 145.277)">
      <path id="Path_2064" data-name="Path 2064" d="M344.248,372.413a13.021,13.021,0,0,1,6.318-1.777,9.873,9.873,0,0,1,2.359.272l.429.1v-6.279l-.494.247a4.487,4.487,0,0,1-2.073.494,4.625,4.625,0,0,1-4.66-4.571,1.071,1.071,0,0,1,2.142,0,2.527,2.527,0,0,0,5.05,0,9.726,9.726,0,0,0-19.443,0,9.314,9.314,0,0,0,3.628,7.34,1.066,1.066,0,0,1,.188,1.51,1.036,1.036,0,0,1-.844.415.987.987,0,0,1-.656-.227,11.417,11.417,0,0,1-4.442-9.038v-.415l-.4-.128a9.566,9.566,0,0,0-8.238,9.3,9.319,9.319,0,0,0,3.144,6.94,1.1,1.1,0,0,1,.1,1.525,1.125,1.125,0,0,1-.819.36,1.037,1.037,0,0,1-.7-.262,11.708,11.708,0,0,1-2.912-4.008l-.128-.316-.316.114A11.071,11.071,0,0,0,314,384.437a11.269,11.269,0,0,0,8.391,10.726l.183.044.143-.128a13.82,13.82,0,0,1,6.649-3.189.739.739,0,0,1,.188,0,1.081,1.081,0,0,1,1.056.874,1.125,1.125,0,0,1-.183.819,1.022,1.022,0,0,1-.686.429,11.106,11.106,0,0,0-1.92,21.5l.415.143.059-.429a13.046,13.046,0,0,1,3.746-7.286,1.037,1.037,0,0,1,.74-.316,1.106,1.106,0,0,1,.775.331,1.091,1.091,0,0,1,0,1.525,10.919,10.919,0,0,0-3.268,7.8,11.521,11.521,0,0,0,23.031,0,.728.728,0,0,1,.03-.158l.03-.188V405.267l-.4.059c-2.6.4-8.653,2.1-8.653,9.067a1.071,1.071,0,1,1-2.142,0c0-9.482,9.063-11.052,10.859-11.264l.316-.044V382.976l-.114-.118c-.558-.494-3.5-2.986-6.363-2.986a4.3,4.3,0,0,0-1.56.286,10.8,10.8,0,0,0-3.988,3.455c-1.659,1.974-3.529,4.2-6.831,4.2h-.158a7.848,7.848,0,0,1-4.363-1.422l-.1-.059h-.113c-.642,0-6.264.2-8.367,3.016a1.1,1.1,0,0,1-.854.434,1.017,1.017,0,0,1-.642-.217,1.081,1.081,0,0,1-.429-.706,1.14,1.14,0,0,1,.212-.8c1.772-2.384,5.1-3.3,7.577-3.663l.553-.084-.316-.494a10.1,10.1,0,0,1-1.111-2.1,1.051,1.051,0,0,1,.987-1.436,1.081,1.081,0,0,1,1.017.7c.054.188,1.728,4.556,5.977,4.655h.212c2.058,0,3.3-1.293,5.1-3.431a12.832,12.832,0,0,1,4.832-4.038,6.155,6.155,0,0,1,2.345-.449,11.234,11.234,0,0,1,5.923,2.113l.543.375v-6.91l-.227-.084a7.616,7.616,0,0,0-2.532-.42,10.962,10.962,0,0,0-5.321,1.525,1.066,1.066,0,0,1-.494.143,1.1,1.1,0,0,1-.943-.563,1.076,1.076,0,0,1-.084-.819,1.037,1.037,0,0,1,.494-.642Zm.814,47.568a1.106,1.106,0,0,1,.814-.36,1.027,1.027,0,0,1,.7.271,1.057,1.057,0,0,1,.36.745,1.042,1.042,0,0,1-.257.78,6.565,6.565,0,0,1-4.906,2.2,6.417,6.417,0,0,1-6.461-6.338,1.071,1.071,0,1,1,2.142,0,4.265,4.265,0,0,0,4.319,4.181,4.358,4.358,0,0,0,3.287-1.481Zm-2.468-22.671a11.655,11.655,0,0,0-7.207-3.737.987.987,0,0,1-.726-.37,1.111,1.111,0,0,1-.262-.78,1.071,1.071,0,0,1,1.061-.987c4.961.37,8.347,3.88,9.576,5.37l.262.316.271-.3c1.382-1.535,1.412-4.442,1.313-5.4a1.1,1.1,0,0,1,.943-1.194h0a1.111,1.111,0,0,1,1.175.948c.025.2.494,4.768-2.043,7.315a5.691,5.691,0,0,1-3.89,1.594h-.128l-5.923,4.852a1.032,1.032,0,0,1-.671.247,1.061,1.061,0,0,1-.829-.39,1.076,1.076,0,0,1-.242-.79,1.135,1.135,0,0,1,.385-.731l4.146-3.406-1.372-.03c-4.418,0-7.2,1.422-9.635,4.887a1.081,1.081,0,0,1-.884.459,1.1,1.1,0,0,1-.617-.2,1.031,1.031,0,0,1-.429-.691,1.066,1.066,0,0,1,.173-.8c2.858-4.082,6.259-5.82,11.407-5.82a26.716,26.716,0,0,1,3.416.232h.286l.918.059Zm-4.546-20.139c-.331.025-.642.039-.943.039-4.161,0-6.249-2.241-6.762-3.416a1.076,1.076,0,0,1,.543-1.422,1.115,1.115,0,0,1,.429-.089,1.076,1.076,0,0,1,.987.632c0,.044,1.13,2.142,4.788,2.142a7.677,7.677,0,0,0,.8-.03,1.076,1.076,0,0,1,.158,2.142Zm5.183-9.65a1.1,1.1,0,0,1-.824-.39,11.422,11.422,0,0,1-2.345-10.055,1.071,1.071,0,0,1,1.041-.819.76.76,0,0,1,.257.044,1.081,1.081,0,0,1,.79,1.293,9.329,9.329,0,0,0,1.9,8.159,1.071,1.071,0,0,1-.819,1.767Z" transform="translate(-314 -350.804)" fill="url(#linear-gradient-65)"/>
      <path id="Path_2065" data-name="Path 2065" d="M460.994,421.679a3.845,3.845,0,1,0,3.786,3.84,3.845,3.845,0,0,0-3.786-3.84Z" transform="translate(-386.461 -386.363)" fill="url(#linear-gradient-66)"/>
      <path id="Path_2066" data-name="Path 2066" d="M450.862,379.745a3.771,3.771,0,1,1,.02,0" transform="translate(-379.473 -363.18)" fill="url(#linear-gradient-67)"/>
      <path id="Path_2067" data-name="Path 2067" d="M431.186,357.821a3.845,3.845,0,1,0-3.786-3.845A3.845,3.845,0,0,0,431.186,357.821Z" transform="translate(-371.426 -350.131)" fill="url(#linear-gradient-68)"/>
      <path id="Path_2068" data-name="Path 2068" d="M450.862,471.3a3.786,3.786,0,1,1-3.786-3.84,3.786,3.786,0,0,1,3.786,3.84" transform="translate(-379.473 -409.546)" fill="url(#linear-gradient-69)"/>
      <path id="Path_2069" data-name="Path 2069" d="M431.064,493.22a3.845,3.845,0,1,0,3.786,3.845,3.845,3.845,0,0,0-3.786-3.845Z" transform="translate(-371.304 -422.591)" fill="url(#linear-gradient-70)"/>
      <path id="Path_2070" data-name="Path 2070" d="M425.214,428.447a5.431,5.431,0,0,1,.1-.987H397.75v1.974h27.563a5.557,5.557,0,0,1-.1-.987Z" transform="translate(-356.411 -389.29)" fill="url(#linear-gradient)"/>
      <path id="Path_2071" data-name="Path 2071" d="M411.956,390.771c2.014-2.69,4.082-5.43,6.5-6.387a5.791,5.791,0,0,1-.183-1.377,4.946,4.946,0,0,1,.069-.666c-3.213.987-5.706,4.24-7.932,7.221-2.113,2.833-4.112,5.509-6.135,5.509h-6.53v1.974h6.545c2.962,0,5.272-3.055,7.685-6.288Z" transform="translate(-356.406 -366.441)" fill="url(#linear-gradient-72)"/>
      <path id="Path_2072" data-name="Path 2072" d="M404.122,365c2.009-2.69,4.082-5.43,6.491-6.387a5.757,5.757,0,0,1-.183-1.377,5.98,5.98,0,0,1,.069-.666c-3.213.987-5.7,4.245-7.927,7.221-1.659,2.216-3.243,4.319-4.823,5.138v2.137c2.364-.73,4.319-3.327,6.372-6.066Z" transform="translate(-356.411 -353.392)" fill="url(#linear-gradient-73)"/>
      <path id="Path_2073" data-name="Path 2073" d="M410.416,454.288c2.226,2.962,4.714,6.249,7.927,7.221a6.01,6.01,0,0,1-.069-.661,5.793,5.793,0,0,1,.183-1.382c-2.409-.953-4.482-3.7-6.491-6.387-2.419-3.233-4.714-6.308-7.675-6.308h-6.54v1.974h6.54c2.019,0,4.018,2.67,6.135,5.5Z" transform="translate(-356.411 -399.069)" fill="url(#linear-gradient-74)"/>
      <path id="Path_2074" data-name="Path 2074" d="M404.117,479.056c-2.053-2.744-4.008-5.336-6.377-6.066v2.137c1.584.814,3.169,2.917,4.827,5.138,2.226,2.962,4.714,6.249,7.927,7.216a4.389,4.389,0,0,1,.114-2.043C408.194,484.486,406.126,481.746,404.117,479.056Z" transform="translate(-356.406 -412.347)" fill="url(#linear-gradient)"/>
    </g>
    <g id="Digital_Marketing" data-name="Digital Marketing" transform="translate(304.783)">
      <path id="Path_2075" data-name="Path 2075" d="M700.032,176.473A55.737,55.737,0,0,0,694,179.01l13.821,16.61,5.849-3.4L700.446,176.33Z" transform="translate(-675.154 -116.841)" fill="url(#linear-gradient-76)"/>
      <path id="Path_2076" data-name="Path 2076" d="M655.82,166.617l4.008,6.989,4.383-2.547L660.2,164.07Z" transform="translate(-655.82 -110.633)" fill="url(#linear-gradient-19)"/>
      <path id="Path_2077" data-name="Path 2077" d="M749.438,123.713a4.61,4.61,0,0,0,1.663-6.264,4.747,4.747,0,0,0-7.231-1.234l4.62,8.051Z" transform="translate(-700.409 -85.825)" fill="url(#linear-gradient-78)"/>
      <path id="Path_2078" data-name="Path 2078" d="M687.979,118.624a57.1,57.1,0,0,1-18.372,17.1,1.037,1.037,0,0,0-.37,1.412l5.874,10.247a.987.987,0,0,0,1.377.37,56.711,56.711,0,0,1,23.95-7.468l.987-.074L688.537,117.8Z" transform="translate(-662.544 -87.202)" fill="url(#linear-gradient-19)"/>
      <path id="Path_2079" data-name="Path 2079" d="M716.889,92.64a60.105,60.105,0,0,1-3.949,8.747L727.9,127.37a59.323,59.323,0,0,1,9.453.938Z" transform="translate(-684.746 -74.461)" fill="url(#linear-gradient-80)"/>
      <path id="Path_2080" data-name="Path 2080" d="M663.47,55.815V74.893l5.054-4.442h19.7V55.81Zm6.728,9.028a1.7,1.7,0,1,1,1.2-.5,1.713,1.713,0,0,1-1.2.5Zm5.652,0a1.7,1.7,0,1,1,1.206-.5A1.713,1.713,0,0,1,675.849,64.843Zm5.652,0a1.713,1.713,0,1,1,1.693-1.708A1.713,1.713,0,0,1,681.5,64.843Z" transform="translate(-659.694 -55.81)" fill="url(#linear-gradient)"/>
      <path id="Path_2081" data-name="Path 2081" d="M776.62,81.667l3.643-2.433L776.645,76.8Z" transform="translate(-716.993 -66.439)" fill="url(#linear-gradient-82)"/>
      <path id="Path_2082" data-name="Path 2082" d="M776.415,55.81H752.431a3.366,3.366,0,0,0-3.362,3.366V78.032a3.362,3.362,0,0,0,3.362,3.366h23.984a3.362,3.362,0,0,0,3.361-3.366V59.176A3.366,3.366,0,0,0,776.415,55.81Zm-5.4,14.472-9.24,6.229a2.034,2.034,0,0,1-3.144-1.678V62.38A2.034,2.034,0,0,1,761.78,60.7l9.245,6.229a2.038,2.038,0,0,1,0,3.352Z" transform="translate(-703.042 -55.81)" fill="url(#linear-gradient)"/>
      <path id="Path_2083" data-name="Path 2083" d="M787.75,147.29a9.378,9.378,0,0,0-4.191-.429,8.159,8.159,0,0,0-7.063,9.087c.365,3.031,2.586,4.363,4.586,4.112a5.2,5.2,0,0,0,3.86-2.364,2.917,2.917,0,0,0,2.962,1.52c3.085-.385,5.869-3.564,5.222-8.885a9.355,9.355,0,0,0-10.919-8.515c-6.866.849-11.377,6.95-10.5,14.191.74,6.056,5.523,9.921,11.382,9.2a13.481,13.481,0,0,0,5.035-1.668,1.388,1.388,0,1,0-1.372-2.414,9.871,9.871,0,0,1-3.663,1.214c-4.4.548-7.745-2.226-8.312-6.91-.686-5.652,2.468-10.208,7.518-10.835,4.25-.528,7.221,1.886,7.759,6.3a6.409,6.409,0,0,1-.923,4.665c-.232.3-1.041,1.071-1.456.661-.114-.114-.494-.637-.336-2.606Zm-6.289,9.665c-.9.114-1.481-.439-1.609-1.55-.331-2.7,1.362-5.232,3.7-5.518a4.936,4.936,0,0,1,.8-.04l-.183,3c-.094,1.723-1.323,3.949-2.71,4.112Z" transform="translate(-714.45 -99.317)" fill="url(#linear-gradient-84)"/>
    </g>
    <g id="Design" transform="translate(655.911 502.379)">
      <path id="Path_2084" data-name="Path 2084" d="M1440.8,1184.23h-20.238a1.4,1.4,0,0,0-1.4,1.4v3.268a1.4,1.4,0,0,0,1.4,1.4H1440.8a1.4,1.4,0,0,0,1.4-1.4v-3.268a1.4,1.4,0,0,0-1.4-1.4Z" transform="translate(-1393.503 -1129.62)" fill="url(#linear-gradient-85)"/>
      <path id="Path_2085" data-name="Path 2085" d="M1430.873,1103.885a3.677,3.677,0,0,0-1.713-1.555v16.743a4.373,4.373,0,1,1-5.844,4.131,4.507,4.507,0,0,1,2.883-4.131V1102.4a4.485,4.485,0,0,0-1.713,1.481l-10.435,18.229a5.261,5.261,0,0,0-.627,3.895l2.468,12.384a1.481,1.481,0,0,0,1.4,1.17h20.8a1.422,1.422,0,0,0,1.4-1.17l2.468-12.384a5.257,5.257,0,0,0-.622-3.895Z" transform="translate(-1390.532 -1088.146)" fill="url(#linear-gradient-86)"/>
      <path id="Path_2086" data-name="Path 2086" d="M1437.514,1081.233a3.82,3.82,0,0,0,0-7.636,3.864,3.864,0,0,0-3.583,2.572h-25.87V1073.7H1400.5v2.468h-25.781a3.874,3.874,0,0,0-3.583-2.572,3.82,3.82,0,1,0,0,7.636,3.875,3.875,0,0,0,3.584-2.572h16.121a34.883,34.883,0,0,0-21.032,28.278h-2.468v7.552h7.557v-7.552h-2.1a31.758,31.758,0,0,1,27.731-27.73v2.1h7.532v-2.088a31.763,31.763,0,0,1,27.73,27.73h-2.108v7.552h7.557v-7.552h-2.468a34.882,34.882,0,0,0-21.032-28.278h16.2a3.761,3.761,0,0,0,3.583,2.572Z" transform="translate(-1367.181 -1073.595)" fill="url(#linear-gradient-87)"/>
    </g>
    <g id="Web_Dev" data-name="Web Dev" transform="translate(28.949 502.835)">
      <path id="Path_2087" data-name="Path 2087" d="M159.135,1132.088V1096.84H97.06v35.791a1.94,1.94,0,0,0,1.974,1.94h57.959a3.125,3.125,0,0,0,.671-.049,1.945,1.945,0,0,0,1.481-1.861c0-.2,0-.39,0-.578Zm-39.893-9.443a1.481,1.481,0,0,1,0,2.034,1.451,1.451,0,0,1-2.034,0c-.311-.321-.622-.647-.928-.987q-3.3-3.455-6.59-6.95a1.481,1.481,0,0,1,0-2.034l.928-.987q3.292-3.455,6.59-6.95a1.438,1.438,0,0,1,2.034,2.034c-.311.326-.617.656-.928.987l-5.627,5.923q3.273,3.455,6.555,6.91Zm14.808-17.478c-.38.9-.755,1.8-1.125,2.71l-4.936,11.757q-1.555,3.717-3.1,7.434a1.481,1.481,0,0,1-1.772.987,1.441,1.441,0,0,1-.987-1.767c.38-.9.75-1.8,1.125-2.71l4.936-11.758,3.1-7.4a1.481,1.481,0,0,1,1.767-.987,1.446,1.446,0,0,1,.987,1.767Zm12.463,11.585c-.311.326-.617.656-.928.987l-6.6,6.94a1.438,1.438,0,0,1-2.034-2.033l.928-.987,5.627-5.923-6.555-6.91a1.44,1.44,0,0,1,2.034-2.039l.928.987c2.2,2.31,4.388,4.635,6.59,6.95a1.451,1.451,0,0,1,0,2.024Z" transform="translate(-97.03 -1085.823)" fill="url(#linear-gradient-88)"/>
      <path id="Path_2088" data-name="Path 2088" d="M159.1,1076.494a1.94,1.94,0,0,0-1.925-1.974H98.974A1.975,1.975,0,0,0,97,1076.44v6.214h62.1v-6.165Zm-56.764,3.569a1.481,1.481,0,1,1,1.045-.432,1.481,1.481,0,0,1-1.045.432Zm4.586,0a1.481,1.481,0,1,1,1.045-.432,1.481,1.481,0,0,1-1.045.432Zm4.586,0a1.481,1.481,0,1,1,1.045-.432,1.481,1.481,0,0,1-1.045.432Z" transform="translate(-97 -1074.52)" fill="url(#linear-gradient-89)"/>
    </g>
  </g>
</svg>
