<svg xmlns="http://www.w3.org/2000/svg" xmlns:xlink="http://www.w3.org/1999/xlink" width="617.999" height="571" viewBox="0 0 617.999 571">
  <defs>
    <linearGradient id="linear-gradient" y1="0.5" x2="1" y2="0.5" gradientUnits="objectBoundingBox">
      <stop offset="0" stop-color="#1b89ca"/>
      <stop offset="1" stop-color="#2e3792"/>
    </linearGradient>
    <linearGradient id="linear-gradient-2" x1="0" y1="0.5" x2="1" y2="0.5" xlink:href="#linear-gradient"/>
    <linearGradient id="linear-gradient-5" y1="0.5" x2="1" y2="0.5" gradientUnits="objectBoundingBox">
      <stop offset="0" stop-color="#ce2e82"/>
      <stop offset="1" stop-color="#601f5f"/>
    </linearGradient>
    <linearGradient id="linear-gradient-6" x1="0" y1="0.5" x2="1" y2="0.5" xlink:href="#linear-gradient-5"/>
    <linearGradient id="linear-gradient-7" x1="0" y1="0.5" x2="1" y2="0.5" xlink:href="#linear-gradient-5"/>
    <linearGradient id="linear-gradient-10" x1="0" y1="0.5" x2="1" y2="0.5" xlink:href="#linear-gradient-5"/>
    <linearGradient id="linear-gradient-12" x1="0" y1="0.5" x2="1" y2="0.5" xlink:href="#linear-gradient"/>
    <linearGradient id="linear-gradient-14" x1="-0.001" y1="0.5" x2="1" y2="0.5" xlink:href="#linear-gradient-5"/>
  </defs>
  <g id="Notre_Mission_Illustration" data-name="Notre Mission Illustration" transform="translate(-0.003 -0.111)">
    <g id="LEFT_LEG" data-name="LEFT LEG" transform="translate(159.035 206.645)">
      <path id="Path_1699" data-name="Path 1699" d="M542.672,977.949l-3.6,39.633-17.162.706,2.357-43.3Z" transform="translate(-439.711 -716.3)" fill="#fff"/>
      <path id="Path_1700" data-name="Path 1700" d="M660.673,1129.976a.91.91,0,0,1-.661-.286.971.971,0,0,1-.263-.721l2.353-43.3a1,1,0,0,1,.342-.692.931.931,0,0,1,.726-.2l18.419,2.964a.949.949,0,0,1,.776,1.031l-3.6,39.637a.937.937,0,0,1-.878.849l-17.162.706Zm3.235-43.15-2.237,41.2,15.336-.63,3.443-37.91Z" transform="translate(-578.469 -827.033)" fill="#262424"/>
      <path id="Path_1701" data-name="Path 1701" d="M618.857,735.83c-5.385,34.913-16.122,89.606-16.122,89.606l-38.364-2.863,6.009-98.306L495.04,629.779S478.4,603.055,485.8,570.6s39.288-36.268,59.163-.954c0,0,50.94,88.528,69.84,124.228,3.938,7.449,6.471,12.6,6.887,14.164C622.356,710.666,621.048,721.6,618.857,735.83Z" transform="translate(-483.901 -544.684)" fill="url(#linear-gradient)"/>
      <path id="Path_1702" data-name="Path 1702" d="M753.283,899.272a21,21,0,0,1-19.318-19.193,21.328,21.328,0,0,1,15.26-22.759c3.938,7.449,6.471,12.6,6.887,14.164C756.782,874.108,755.474,885.046,753.283,899.272Z" transform="translate(-618.327 -708.126)" fill="#fff"/>
      <path id="Path_1703" data-name="Path 1703" d="M608.218,892.905h-.1a.917.917,0,0,1-.622-.349.976.976,0,0,1-.2-.7l9-88.614L539.723,698.551a.975.975,0,0,1,.2-1.313.9.9,0,0,1,1.277.162l76.8,104.987a.977.977,0,0,1,.185.678l-9.041,88.986A.936.936,0,0,1,608.218,892.905Z" transform="translate(-513.83 -624.336)" fill="#262424"/>
      <path id="Path_1704" data-name="Path 1704" d="M525.865,667.894a.931.931,0,0,1-.9-.747.963.963,0,0,1,.509-1.072c3.462-1.68,7.469-3.861,8.287-4.639V631.664a.94.94,0,0,1,.924-.954h0a.94.94,0,0,1,.924.954v30.064c0,.578,0,1.551-9.35,6.084a.9.9,0,0,1-.393.081ZM533.861,661.328Z" transform="translate(-505.972 -589.657)" fill="#262424"/>
      <path id="Path_1705" data-name="Path 1705" d="M696.971,1106.271h-.078l-32.045-2.706a.949.949,0,0,1-.851-1.031.937.937,0,0,1,1-.878l32.05,2.706a.956.956,0,0,1-.074,1.909Z" transform="translate(-580.752 -835.86)" fill="#262424"/>
      <path id="Path_1706" data-name="Path 1706" d="M732,1224.768v6.915H649.263s-.268-3.608-.522-9.678a486.518,486.518,0,0,1,.425-54.173l26.411-4.371s22.648,24.338,42.838,43.3q3.141,2.956,6.619,5.727C729.475,1215.953,732,1220.277,732,1224.768Z" transform="translate(-572.249 -868.172)" fill="url(#linear-gradient-2)"/>
      <path id="Path_1707" data-name="Path 1707" d="M713.77,1214.125a.911.911,0,0,1-.666-.291c-17.92-19.179-25.981-35.1-26.06-35.256a.981.981,0,0,1,.025-.969.911.911,0,0,1,1.615.091c.079.157,8.033,15.848,25.75,34.808a.977.977,0,0,1,0,1.35A.909.909,0,0,1,713.77,1214.125Z" transform="translate(-593.087 -875.335)" fill="#262424"/>
      <ellipse id="Ellipse_147" data-name="Ellipse 147" cx="7.349" cy="8.442" rx="7.349" ry="8.442" transform="translate(82.749 323.42)" fill="#fff"/>
      <path id="Path_1708" data-name="Path 1708" d="M669.214,1239.208c-4.562,0-8.274-4.219-8.274-9.4s3.7-9.4,8.274-9.4,8.269,4.214,8.269,9.4S673.771,1239.208,669.214,1239.208Zm0-16.889c-3.541,0-6.425,3.341-6.425,7.488s2.884,7.492,6.425,7.492,6.42-3.34,6.42-7.492S672.754,1222.319,669.214,1222.319Z" transform="translate(-579.11 -897.945)" fill="#262424"/>
      <path id="Path_1709" data-name="Path 1709" d="M732.648,1271.378v6.915H649.912s-.268-3.608-.522-9.678h43.684s2.773-20.091,25.99-15.242q3.141,2.956,6.619,5.727C730.125,1262.564,732.648,1266.888,732.648,1271.378Z" transform="translate(-572.899 -914.783)" fill="#fff"/>
      <path id="Path_1710" data-name="Path 1710" d="M731.566,1278.2H648.83a.937.937,0,0,1-.924-.883c0-.038-.273-3.693-.527-9.706a.973.973,0,0,1,.254-.7.911.911,0,0,1,.67-.3h42.921A21.044,21.044,0,0,1,699,1254.263c4.862-3.541,11.31-4.505,19.154-2.863a.853.853,0,0,1,.462.229c2.163,2.028,4.368,3.927,6.559,5.641,4.738,3.713,7.345,8.351,7.345,13.066v6.915a.97.97,0,0,1-.282.687A.908.908,0,0,1,731.566,1278.2Zm-81.885-1.909h80.961v-5.96c0-4.1-2.348-8.2-6.614-11.544-2.172-1.7-4.354-3.574-6.494-5.574-7.2-1.46-13.076-.592-17.458,2.591-6.055,4.4-7.174,11.83-7.183,11.9a.934.934,0,0,1-.924.816H649.26C649.427,1272.277,649.593,1274.988,649.681,1276.3Z" transform="translate(-571.817 -913.74)" fill="#262424"/>
    </g>
    <g id="RIGHT_LEG" data-name="RIGHT LEG" transform="translate(83.383 196.295)">
      <path id="Path_1711" data-name="Path 1711" d="M218.543,984.263l-10.169,38.4-17.865-2.706,9.549-42.229Z" transform="translate(-185.836 -707.382)" fill="#fff"/>
      <path id="Path_1712" data-name="Path 1712" d="M347.137,1134.359H347l-17.865-2.706a.921.921,0,0,1-.632-.408.98.98,0,0,1-.135-.757l9.549-42.229a.951.951,0,0,1,.453-.62.9.9,0,0,1,.749-.067l18.488,6.533a.961.961,0,0,1,.592,1.155l-10.169,38.4A.929.929,0,0,1,347.137,1134.359Zm-16.737-4.452,16.062,2.429,9.706-36.745-16.7-5.9Z" transform="translate(-324.594 -818.122)" fill="#262424"/>
      <path id="Path_1713" data-name="Path 1713" d="M404.849,1224.768v6.915H322.113s-.268-3.608-.522-9.678a486.522,486.522,0,0,1,.425-54.173l26.411-4.371s22.648,24.338,42.838,43.3q3.141,2.956,6.619,5.727C402.325,1215.953,404.849,1220.277,404.849,1224.768Z" transform="translate(-320.66 -857.822)" fill="url(#linear-gradient-2)"/>
      <path id="Path_1714" data-name="Path 1714" d="M386.59,1214.125a.911.911,0,0,1-.666-.291c-17.92-19.179-25.981-35.1-26.059-35.256a.981.981,0,0,1,.025-.969.911.911,0,0,1,1.615.091c.079.157,8.033,15.848,25.75,34.808a.976.976,0,0,1-.028,1.35A.882.882,0,0,1,386.59,1214.125Z" transform="translate(-341.482 -864.985)" fill="#262424"/>
      <ellipse id="Ellipse_148" data-name="Ellipse 148" cx="7.349" cy="8.442" rx="7.349" ry="8.442" transform="translate(7.188 333.77)" fill="#fff"/>
      <path id="Path_1715" data-name="Path 1715" d="M342.064,1239.208c-4.562,0-8.274-4.219-8.274-9.4s3.7-9.4,8.274-9.4,8.269,4.214,8.269,9.4S346.621,1239.208,342.064,1239.208Zm0-16.889c-3.545,0-6.425,3.341-6.425,7.488s2.88,7.492,6.425,7.492,6.42-3.34,6.42-7.492S345.6,1222.319,342.064,1222.319Z" transform="translate(-327.521 -887.595)" fill="#262424"/>
      <path id="Path_1716" data-name="Path 1716" d="M405.5,1271.378v6.915H322.762s-.268-3.608-.522-9.678h43.684s2.773-20.091,25.99-15.242q3.141,2.956,6.619,5.727C402.975,1262.564,405.5,1266.888,405.5,1271.378Z" transform="translate(-321.31 -904.433)" fill="#fff"/>
      <path id="Path_1717" data-name="Path 1717" d="M404.416,1278.2H321.68a.937.937,0,0,1-.924-.883c0-.038-.273-3.693-.527-9.706a.972.972,0,0,1,.254-.7.91.91,0,0,1,.67-.3h42.921a21.046,21.046,0,0,1,7.779-12.355c4.862-3.541,11.31-4.505,19.154-2.863a.852.852,0,0,1,.462.229c2.159,2.028,4.368,3.927,6.559,5.641,4.738,3.713,7.345,8.351,7.345,13.066v6.915a.97.97,0,0,1-.282.687A.909.909,0,0,1,404.416,1278.2Zm-81.885-1.909h80.961v-5.96c0-4.1-2.348-8.2-6.614-11.544-2.172-1.7-4.354-3.574-6.494-5.574-7.215-1.46-13.094-.587-17.476,2.6-6.064,4.419-7.155,11.816-7.164,11.892a.934.934,0,0,1-.924.816H322.11C322.276,1272.277,322.434,1274.988,322.531,1276.3Z" transform="translate(-320.228 -903.39)" fill="#262424"/>
      <path id="Path_1718" data-name="Path 1718" d="M416.188,560.936v53.209s-11.92,99.079-13.769,107.988-43.208,100.873-43.208,100.873L321,808.691l31.74-91.31S343.186,612.714,343.5,585.99s2.773-63.312,27.423-62.992S412.157,533.654,416.188,560.936Z" transform="translate(-320.643 -522.996)" fill="url(#linear-gradient)"/>
      <path id="Path_1719" data-name="Path 1719" d="M525.864,664.594a.94.94,0,0,1-.924-.954V618.624a.925.925,0,1,1,1.849,0V663.64A.94.94,0,0,1,525.864,664.594Z" transform="translate(-430.32 -572.49)" fill="#262424"/>
      <path id="Path_1859" data-name="Path 1859" d="M20.6-.159C31.973-.248,41.143,6.213,41.079,14.271s-9.338,14.662-20.714,14.75S-.18,22.648-.116,14.59,9.222-.071,20.6-.159Z" transform="translate(44.268 212.126) rotate(-75.28)" fill="#fff"/>
      <path id="Path_1720" data-name="Path 1720" d="M351.045,827.837a.916.916,0,0,1-.756-.406.98.98,0,0,1-.113-.873l29.933-85.206-8.625-147.106a.491.491,0,0,1,0-.119c.037-.582.984-14.288,5.172-23.259a.913.913,0,0,1,1.236-.446.97.97,0,0,1,.432,1.277c-3.9,8.351-4.923,21.5-4.992,22.5l8.625,147.234a1.075,1.075,0,0,1-.055.382l-29.988,85.393a.927.927,0,0,1-.869.63Z" transform="translate(-336.304 -547.739)" fill="#262424"/>
      <path id="Path_1721" data-name="Path 1721" d="M398.161,610.783a.933.933,0,0,1-.914-.795.958.958,0,0,1,.609-1.062l4.622-1.651a9.051,9.051,0,0,0,5.708-6.628l2.838-13.286a.947.947,0,0,1,.617-.752.9.9,0,0,1,.932.212.975.975,0,0,1,.254.95l-2.833,13.286a10.959,10.959,0,0,1-6.91,8.022l-4.622,1.651a.977.977,0,0,1-.3.052Z" transform="translate(-361.641 -556.226)" fill="#262424"/>
      <path id="Path_1722" data-name="Path 1722" d="M368.2,1114.232a.97.97,0,0,1-.305-.053l-29.276-10.661a.963.963,0,0,1-.562-1.219.917.917,0,0,1,1.181-.58l29.272,10.656a.958.958,0,0,1,.609,1.064A.933.933,0,0,1,368.2,1114.232Z" transform="translate(-329.785 -825.516)" fill="#262424"/>
    </g>
    <g id="LEF_ARM" data-name="LEF ARM" transform="translate(209.662 76.628)">
      <path id="Path_1723" data-name="Path 1723" d="M784,319.072l3.8-19.986a11.639,11.639,0,0,1,5.357-7.812l27.492-16.7a2.683,2.683,0,0,1,3.628.811h0a2.893,2.893,0,0,1-.513,3.818l-14.19,11.854,3.818,6.17a14.031,14.031,0,0,1,.268,14.24l-2.852,5.063L796.942,326.55Z" transform="translate(-695.918 -273.251)" fill="#fff"/>
      <path id="Path_1724" data-name="Path 1724" d="M795.846,326.486a.9.9,0,0,1-.462-.124l-12.942-7.473a.965.965,0,0,1-.462-1.021l3.813-19.976a12.631,12.631,0,0,1,5.8-8.442l27.5-16.7a3.6,3.6,0,0,1,4.858,1.116,3.869,3.869,0,0,1-.7,5.087l-13.534,11.305,3.37,5.45a14.963,14.963,0,0,1,.291,15.237l-2.852,5.044a1.094,1.094,0,0,1-.268.3l-13.866,10.021a.954.954,0,0,1-.541.177Zm-11.906-8.929L795.79,324.4l13.224-9.544L811.788,310a13.006,13.006,0,0,0-.254-13.247l-3.813-6.166a.976.976,0,0,1,.194-1.255l14.19-11.859a1.917,1.917,0,0,0,.351-2.528,1.781,1.781,0,0,0-2.417-.545l-27.492,16.7a10.714,10.714,0,0,0-4.918,7.158Z" transform="translate(-694.822 -272.232)" fill="#262424"/>
      <path id="Path_1725" data-name="Path 1725" d="M823.564,310.919l-5.713,6.753a5.245,5.245,0,0,0,.356,7.11l9.027,8.681a4.844,4.844,0,0,0,6.91-.153l5.63-5.9a5.24,5.24,0,0,0,.037-7.158l-8.948-9.544a4.851,4.851,0,0,0-7.3.21Z" transform="translate(-713.466 -291.535)" fill="#fff"/>
      <path id="Path_1726" data-name="Path 1726" d="M829.531,334.755a5.763,5.763,0,0,1-4.012-1.642l-9.027-8.685a6.191,6.191,0,0,1-.425-8.432l5.713-6.767a5.756,5.756,0,0,1,8.662-.229l8.944,9.544a6.177,6.177,0,0,1-.037,8.485l-5.607,5.913A5.779,5.779,0,0,1,829.531,334.755Zm-3.314-25.7h-.106a3.936,3.936,0,0,0-2.935,1.432h0l-5.713,6.767a4.233,4.233,0,0,0,.291,5.779l9.027,8.685a3.923,3.923,0,0,0,5.621-.124l5.63-5.908a4.239,4.239,0,0,0,.028-5.817l-8.944-9.544a3.933,3.933,0,0,0-2.9-1.26Zm-3.739.8Z" transform="translate(-712.38 -290.485)" fill="#262424"/>
      <path id="Path_1727" data-name="Path 1727" d="M784.75,332.358l2.635-22.62a4.167,4.167,0,0,1,2.154-3.212l5.736-3.04a3.93,3.93,0,0,1,4.483.534l7.317,6.461a3.03,3.03,0,0,1-.065,4.572h0a2.807,2.807,0,0,1-3.129.329l-5.034-2.691,1.687,12.861a3.016,3.016,0,0,1-.559,2.2L791.914,338.7Z" transform="translate(-696.321 -288.326)" fill="#fff"/>
      <path id="Path_1728" data-name="Path 1728" d="M790.836,338.554a.907.907,0,0,1-.6-.229l-7.164-6.333a.97.97,0,0,1-.319-.84l2.635-22.62a5.126,5.126,0,0,1,2.648-3.942l5.736-3.064a4.827,4.827,0,0,1,5.514.659l7.312,6.466a4.013,4.013,0,0,1,.686,5.174,3.729,3.729,0,0,1-4.9,1.292l-3.457-1.847,1.451,11.043a4,4,0,0,1-.744,2.9L791.571,338.2a.918.918,0,0,1-.638.372Zm-6.189-7.669,6.046,5.33,7.469-10.146a2.057,2.057,0,0,0,.379-1.489L796.854,311.7a.967.967,0,0,1,.394-.891.9.9,0,0,1,.946-.064l5.034,2.691a1.919,1.919,0,0,0,2.563-.647,2.064,2.064,0,0,0-.395-2.693l-7.317-6.447a3.016,3.016,0,0,0-3.457-.415l-5.75,3.064a3.231,3.231,0,0,0-1.664,2.477Z" transform="translate(-695.243 -287.245)" fill="#262424"/>
      <path id="Path_1729" data-name="Path 1729" d="M701.7,330.179s-12.327,38.921-26.143,60.606c-6.092,9.544-12.48,15.777-18.23,13.839-4.6-1.556-9.956-5.569-15.586-11.1-17.379-17.06-37.356-48.513-45.759-66.533-11.093-23.861,16.64-56.946,32.665-40.721,12.752,12.918,33.279,61.4,33.279,61.4l17.564-29.907Z" transform="translate(-593.433 -277.319)" fill="url(#linear-gradient-5)"/>
      <line id="Line_48" data-name="Line 48" x2="15.1" y2="8.113" transform="translate(86.386 48.885)" fill="#fff"/>
      <path id="Path_1730" data-name="Path 1730" d="M794.357,382.688a.9.9,0,0,1-.425-.11l-15.1-8.113a.971.971,0,0,1-.393-1.288.911.911,0,0,1,1.248-.406l15.1,8.113a.965.965,0,0,1,.477,1.075A.931.931,0,0,1,794.357,382.688Z" transform="translate(-692.87 -324.736)" fill="#262424"/>
      <line id="Line_49" data-name="Line 49" x1="0.772" y2="24.734" transform="translate(67.745 75.131)" fill="#fff"/>
      <path id="Path_1731" data-name="Path 1731" d="M738.924,454.312H738.9a.942.942,0,0,1-.9-.983l.772-24.734a.925.925,0,1,1,1.849.057l-.772,24.734A.939.939,0,0,1,738.924,454.312Z" transform="translate(-671.179 -353.493)" fill="#262424"/>
      <path id="Path_1732" data-name="Path 1732" d="M731.765,501.369c-6.092,9.544-12.48,15.777-18.23,13.839-4.6-1.556-9.956-5.569-15.586-11.1a20.526,20.526,0,0,1,16.208-10.557A20.29,20.29,0,0,1,731.765,501.369Z" transform="translate(-649.641 -387.903)" fill="#fff"/>
    </g>
    <g id="BODY" transform="translate(102.46 25.625)">
      <path id="Path_1733" data-name="Path 1733" d="M501.781,305.683c-7.086,21-24.345,65.855-12.327,111.988,0,0-17.564,12.088-48.375,12.088-18.091,0-38.692-2.138-54.781-6.929-.994-8.962-3.259-23.612-7.354-23.612-4,0-4.41,11.72-4.262,19.279-5.833-2.739-10.423-6.022-13.182-9.893,0,0-.31-92.1,37.9-155.571,0,0,41.368-10.976,70.025-8.409a110.828,110.828,0,0,1,34.513,21.952A73.491,73.491,0,0,1,501.781,305.683Z" transform="translate(-361.5 -206.592)" fill="url(#linear-gradient-6)"/>
      <path id="Path_1734" data-name="Path 1734" d="M644.1,363.578a.9.9,0,0,1-.25-.038.959.959,0,0,1-.638-1.174c2.616-9.578,5.459-17.857,7.747-24.51.508-1.489.994-2.892,1.433-4.2a74.514,74.514,0,0,0,3-34.178.971.971,0,0,1,.319-.919.9.9,0,0,1,.935-.149.951.951,0,0,1,.572.777,76.465,76.465,0,0,1-3.074,35.1q-.666,1.971-1.437,4.209c-2.279,6.629-5.084,14.875-7.71,24.39A.929.929,0,0,1,644.1,363.578Z" transform="translate(-512.982 -234.876)" fill="#262424"/>
      <path id="Path_1735" data-name="Path 1735" d="M469.152,603.087c-5.135,0-9.979-.205-14.329-.511a222.865,222.865,0,0,1-32.138-4.5.956.956,0,0,1-.693-1.145.924.924,0,0,1,1.109-.716c.541.129,54.573,12.637,92.184-2.582a.916.916,0,0,1,1.161.554.966.966,0,0,1-.486,1.221C501.146,601.378,483.919,603.087,469.152,603.087Z" transform="translate(-394.019 -389.226)" fill="#262424"/>
      <path id="Path_1736" data-name="Path 1736" d="M533.9,237.258c.217,11.157,9.984,20.9,16.64,24.114,3.859-6.275,11.773-14.794,11.773-14.794a44.279,44.279,0,0,1,.078,17.767c8.995-4.2,11.444-10.742,11.444-10.742,3.189-12.408-3.138-25.388-11.676-28.633C543.283,217.821,533.9,237.258,533.9,237.258Z" transform="translate(-454.214 -195.695)" fill="#fff"/>
      <path id="Path_1737" data-name="Path 1737" d="M561.329,264.249a.907.907,0,0,1-.587-.22.973.973,0,0,1-.31-.954,44.419,44.419,0,0,0,.282-15.557,112.323,112.323,0,0,0-10.455,13.333.908.908,0,0,1-1.174.353c-7-3.369-16.959-13.362-17.185-24.958a1.049,1.049,0,0,1,.1-.444c.1-.205,9.975-20.115,29.406-12.751,8.579,3.255,15.715,16.278,12.249,29.764a.858.858,0,0,1-.032.1c-.106.282-2.69,6.958-11.906,11.248A.9.9,0,0,1,561.329,264.249Zm-.079-19.676a1,1,0,0,1,.236.033.94.94,0,0,1,.661.692,44.982,44.982,0,0,1,.439,16.3c6.878-3.76,9.087-8.824,9.29-9.33,3.092-12.116-3.309-24.462-11.093-27.421-7.479-2.839-14.3-1.742-20.259,3.255a29.555,29.555,0,0,0-6.748,8.351c.333,10.184,9.092,19.275,15.392,22.658a126.2,126.2,0,0,1,11.43-14.24A.912.912,0,0,1,561.25,244.573Z" transform="translate(-453.139 -194.664)" fill="#262424"/>
      <path id="Path_1738" data-name="Path 1738" d="M577.966,167.35l-4.349,11.93-7.437,20.434c4.715,7.516,10.922,10.7,18.988,8.5l2.773-9.769,4.229-14.794Z" transform="translate(-471.574 -166.398)" fill="#fff"/>
      <path id="Path_1739" data-name="Path 1739" d="M579.3,208.832c-5.935,0-10.954-3.221-14.971-9.621a.981.981,0,0,1-.092-.854l11.786-32.384a.933.933,0,0,1,.693-.6.907.907,0,0,1,.86.3l14.222,16.316a.977.977,0,0,1,.2.907l-7.016,24.572a.939.939,0,0,1-.652.654A19.218,19.218,0,0,1,579.3,208.832Zm-13.164-10.241c4.539,7,10.169,9.544,17.222,7.831l6.721-23.536-12.859-14.751Z" transform="translate(-470.496 -165.355)" fill="#262424"/>
    </g>
    <g id="CHESS" transform="translate(0.003 86.707)">
      <path id="Path_1740" data-name="Path 1740" d="M223.442,592.567c-.864-2.1-1.8-4.247-2.81-6.409A177.159,177.159,0,0,0,207.75,563.29,175.039,175.039,0,0,0,191.785,542.6q-2.385-2.634-4.77-5.025L166.456,506.53l-19.038,13.438c-2.584,1.828-4.248,4.815-5.043,8.719-2.866,14.011,5.5,39.742,22.26,65.044s36.945,42.687,50.631,45.011c3.809.649,7.113.134,9.706-1.694l19.038-13.438Z" transform="translate(-140.902 -404.799)" fill="#fff"/>
      <path id="Path_1741" data-name="Path 1741" d="M217.22,638.916a18.628,18.628,0,0,1-3.171-.282c-14.268-2.424-34.86-20.673-51.25-45.411s-25.385-51.176-22.4-65.784c.864-4.242,2.695-7.373,5.431-9.306L164.869,504.7a.9.9,0,0,1,.693-.153.923.923,0,0,1,.592.4L186.663,535.9c1.59,1.6,3.18,3.278,4.733,5a175.533,175.533,0,0,1,16.053,20.8A177.883,177.883,0,0,1,220.39,584.7c.989,2.114,1.923,4.252,2.773,6.361l20.508,30.966a.974.974,0,0,1-.24,1.327l-19.039,13.438A12.193,12.193,0,0,1,217.22,638.916ZM165.147,506.809l-18.276,12.885c-2.311,1.646-3.9,4.381-4.659,8.113-2.893,14.125,6.009,39.971,22.117,64.309s36.219,42.262,50.021,44.605c3.656.625,6.693.11,9.022-1.537L241.647,622.3l-20.042-30.217a1.876,1.876,0,0,1-.088-.167c-.864-2.114-1.8-4.257-2.773-6.371a175.969,175.969,0,0,0-12.812-22.739,173.586,173.586,0,0,0-15.877-20.577c-1.553-1.718-3.148-3.4-4.738-5a.882.882,0,0,1-.12-.143Z" transform="translate(-139.833 -403.752)" fill="#262424"/>
      <path id="Path_1742" data-name="Path 1742" d="M266.151,621.46c-2.588,1.823-5.889,2.343-9.706,1.689-13.686-2.324-33.876-19.709-50.635-45.011s-25.117-51.028-22.246-65.044c.8-3.9,2.459-6.886,5.043-8.714s5.889-2.343,9.706-1.694c.217.038.434.076.656.124,9.443,1.909,21.826,10.718,34.01,24.2A175.386,175.386,0,0,1,248.947,547.7a177.8,177.8,0,0,1,12.882,22.868c7.747,16.617,11.213,31.725,9.5,41.518-.037.234-.083.477-.129.682C270.4,616.645,268.734,619.613,266.151,621.46Z" transform="translate(-163.051 -402.649)" fill="#fff"/>
      <path id="Path_1743" data-name="Path 1743" d="M258.408,623.34a19.138,19.138,0,0,1-3.175-.281c-14.264-2.424-34.86-20.673-51.245-45.416s-25.389-51.176-22.4-65.789c.864-4.242,2.69-7.373,5.426-9.306s6.226-2.553,10.367-1.847l.7.129c9.6,1.933,22.186,10.857,34.495,24.481a175.84,175.84,0,0,1,16.057,20.8,177.609,177.609,0,0,1,12.942,23c7.83,16.788,11.32,32.131,9.582,42.081-.037.229-.083.477-.134.692-.864,4.257-2.69,7.387-5.426,9.32A12.194,12.194,0,0,1,258.408,623.34ZM194.221,502.328a10.444,10.444,0,0,0-6.161,1.794c-2.311,1.646-3.9,4.376-4.664,8.113-2.889,14.14,6,40,22.112,64.338s36.224,42.267,50.021,44.61c3.661.625,6.7.1,9.027-1.537h0c2.311-1.646,3.9-4.381,4.659-8.113.046-.215.088-.42.125-.635,1.673-9.578-1.761-24.491-9.424-40.931a176.587,176.587,0,0,0-12.808-22.777,173.89,173.89,0,0,0-15.882-20.577c-12.055-13.338-24.271-22.052-33.51-23.913-.222-.048-.43-.081-.633-.115A16.946,16.946,0,0,0,194.221,502.328Z" transform="translate(-161.983 -401.604)" fill="#262424"/>
      <path id="Path_1744" data-name="Path 1744" d="M276.9,566.832q-1.1-2.7-2.4-5.478a151.277,151.277,0,0,0-11.014-19.566,149.264,149.264,0,0,0-13.649-17.69q-2.038-2.255-4.077-4.295L228.194,493.26l-16.274,11.491c-2.209,1.56-3.633,4.118-4.312,7.454-2.454,11.978,4.7,33.982,19.029,55.614s31.574,36.507,43.3,38.492a10.875,10.875,0,0,0,8.287-1.432L294.5,593.389Z" transform="translate(-176.025 -397.862)" fill="#fff"/>
      <path id="Path_1745" data-name="Path 1745" d="M271.405,606.467a16.282,16.282,0,0,1-2.736-.243c-12.23-2.081-29.877-17.7-43.91-38.888s-21.724-43.832-19.173-56.354c.749-3.66,2.311-6.366,4.7-8.041l16.279-11.491a.906.906,0,0,1,1.28.248l17.527,26.466c1.359,1.365,2.718,2.8,4.044,4.261a150.12,150.12,0,0,1,13.737,17.8,151.645,151.645,0,0,1,11.093,19.675c.841,1.8,1.646,3.632,2.385,5.436L294.155,591.8a.979.979,0,0,1,.143.716.957.957,0,0,1-.384.611L277.622,604.62A10.55,10.55,0,0,1,271.405,606.467Zm-44.562-112.9-15.512,10.947c-1.964,1.389-3.286,3.694-3.933,6.862-2.464,12.045,5.126,34.1,18.891,54.879s30.917,36.082,42.681,38.082c3.092.525,5.658.091,7.617-1.293L292.1,592.065l-17.06-25.77a1.148,1.148,0,0,1-.088-.167c-.735-1.8-1.539-3.632-2.38-5.44a154.365,154.365,0,0,0-24.5-37c-1.322-1.465-2.685-2.9-4.044-4.266a.86.86,0,0,1-.116-.143Z" transform="translate(-174.934 -396.829)" fill="#262424"/>
      <path id="Path_1746" data-name="Path 1746" d="M313.391,591.556c-2.214,1.561-5.033,2-8.292,1.432-11.7-1.985-28.967-16.85-43.291-38.482s-21.5-43.622-19.034-55.6c.679-3.341,2.1-5.894,4.312-7.454s5.033-2,8.292-1.432c.185.033.37.062.564.1,8.075,1.623,18.659,9.163,29.078,20.692a155.342,155.342,0,0,1,24.668,37.223c6.623,14.207,9.586,27.125,8.126,35.481-.032.2-.074.391-.111.582C317.038,587.438,315.6,590,313.391,591.556Z" transform="translate(-194.936 -396.043)" fill="#fff"/>
      <path id="Path_1747" data-name="Path 1747" d="M306.619,593.138a16.327,16.327,0,0,1-2.736-.243c-12.23-2.081-29.873-17.7-43.91-38.888s-21.724-43.832-19.168-56.354c.744-3.66,2.311-6.366,4.7-8.041s5.385-2.209,8.962-1.6c.2.033.393.067.6.11,8.232,1.656,19.015,9.3,29.582,21a156.35,156.35,0,0,1,24.812,37.456c6.707,14.383,9.706,27.53,8.2,36.068-.032.2-.074.4-.111.606-.749,3.665-2.311,6.371-4.7,8.041h0A10.564,10.564,0,0,1,306.619,593.138Zm-54.892-103.46a8.818,8.818,0,0,0-5.2,1.508c-1.96,1.389-3.282,3.694-3.929,6.862-2.464,12.045,5.126,34.1,18.891,54.88s30.913,36.082,42.681,38.082c3.092.525,5.653.091,7.617-1.293h0c1.96-1.384,3.282-3.694,3.929-6.862.037-.177.074-.353.1-.539,1.428-8.16-1.5-20.883-8.047-34.913a150.136,150.136,0,0,0-10.931-19.437,148.513,148.513,0,0,0-13.561-17.576c-10.289-11.382-20.707-18.821-28.579-20.406l-.541-.1A14.543,14.543,0,0,0,251.726,489.678Zm60.6,100.826Z" transform="translate(-193.872 -394.99)" fill="#262424"/>
      <path id="Path_1748" data-name="Path 1748" d="M316.677,523.088l97.577-86.824a6.48,6.48,0,0,0,2.413-4.166,1.991,1.991,0,0,1,.06-.324c.818-4.677-.841-11.9-4.544-19.843a87.111,87.111,0,0,0-13.792-20.811c-5.828-6.447-11.745-10.661-16.261-11.572l-.314-.057a6,6,0,0,0-4.622.811L263.411,442.659a6.749,6.749,0,0,0-1.387.754,9.286,9.286,0,0,0-3.48,6.008c-1.978,9.659,3.79,27.4,15.345,44.858s25.473,29.43,34.906,31.019a8.743,8.743,0,0,0,6.688-1.164A7.285,7.285,0,0,0,316.677,523.088Z" transform="translate(-203.468 -338.317)" fill="#fff"/>
      <path id="Path_1749" data-name="Path 1749" d="M309.852,525.384a13.174,13.174,0,0,1-2.232-.2c-9.91-1.68-24.183-14.316-35.521-31.434s-17.564-35.433-15.489-45.579a10.184,10.184,0,0,1,3.864-6.6,7.717,7.717,0,0,1,1.5-.83l113.676-62.338a6.979,6.979,0,0,1,5.265-.931,1.607,1.607,0,0,1,.356.067c4.682.954,10.788,5.249,16.746,11.849a88.1,88.1,0,0,1,13.95,21.064c3.785,8.113,5.473,15.567,4.622,20.425a1.771,1.771,0,0,1-.065.334,7.318,7.318,0,0,1-2.773,4.744l-97.485,86.767a7.823,7.823,0,0,1-1.294,1.145A8.652,8.652,0,0,1,309.852,525.384Zm69.475-146.142a4.515,4.515,0,0,0-2.672.773l-.092.052L262.8,442.454l-.092.043a6.182,6.182,0,0,0-1.193.654,8.358,8.358,0,0,0-3.092,5.416c-1.978,9.664,4.132,27.392,15.2,44.109s24.853,29.024,34.3,30.627a7.822,7.822,0,0,0,6.009-1.016,6.368,6.368,0,0,0,1.021-.907l.069-.072L412.6,434.48l.083-.062a5.5,5.5,0,0,0,2.029-3.579,1.379,1.379,0,0,1,.055-.282c.781-4.486-.846-11.506-4.465-19.27A86.277,86.277,0,0,0,396.669,390.7c-5.7-6.3-11.444-10.413-15.761-11.281l-.291-.052A7.316,7.316,0,0,0,379.327,379.242Z" transform="translate(-202.421 -337.258)" fill="#262424"/>
      <path id="Path_1750" data-name="Path 1750" d="M589.964,404.437a9.284,9.284,0,0,1-7.109,1.246C572.812,403.969,558,391.218,545.7,372.654s-18.433-37.442-16.335-47.721a9.911,9.911,0,0,1,3.7-6.39,9.308,9.308,0,0,1,7.113-1.246c7.428,1.255,17.458,8.556,27.164,19.8a134.512,134.512,0,0,1,18.331,27.678c6.61,13.4,9.563,25.693,8.005,33.3A9.968,9.968,0,0,1,589.964,404.437Z" transform="translate(-349.102 -305.769)" fill="#fff"/>
      <path id="Path_1751" data-name="Path 1751" d="M584,405.785a14.292,14.292,0,0,1-2.362-.21c-10.529-1.794-25.708-15.228-37.763-33.429s-18.678-37.7-16.473-48.461a10.808,10.808,0,0,1,4.081-6.986,10.18,10.18,0,0,1,7.788-1.393c7.7,1.308,17.786,8.628,27.682,20.086a135.364,135.364,0,0,1,18.465,27.86c6.753,13.682,9.706,26.046,8.089,33.925a10.793,10.793,0,0,1-4.086,6.982A9.169,9.169,0,0,1,584,405.785Zm-47.086-88.762a7.418,7.418,0,0,0-4.386,1.274,8.949,8.949,0,0,0-3.319,5.8c-2.1,10.308,4.4,29.191,16.178,46.991S571.862,402,581.9,403.709a8.393,8.393,0,0,0,6.439-1.088,9,9,0,0,0,3.323-5.8c1.5-7.349-1.461-19.566-7.927-32.66a133.461,133.461,0,0,0-18.2-27.473c-9.48-10.976-19.413-18.258-26.6-19.48a12.624,12.624,0,0,0-2.02-.2Z" transform="translate(-348.037 -304.722)" fill="#262424"/>
      <path id="Path_1752" data-name="Path 1752" d="M593.528,406.568a5.776,5.776,0,0,1-4.437.773c-6.258-1.059-15.493-9.015-23.161-20.587S554.438,363.408,555.76,357a6.132,6.132,0,0,1,2.311-3.985,5.789,5.789,0,0,1,4.433-.778l.305.057c4.317.869,9.979,4.9,15.553,11.071a83.147,83.147,0,0,1,13.2,19.924c3.545,7.6,5.13,14.512,4.349,18.984a1.477,1.477,0,0,1-.06.31A6.179,6.179,0,0,1,593.528,406.568Z" transform="translate(-363.375 -324.073)" fill="#fff"/>
      <path id="Path_1753" data-name="Path 1753" d="M589.388,407.366a9.117,9.117,0,0,1-1.535-.134c-6.758-1.15-16.09-9.387-23.776-21s-11.736-23.574-10.321-30.489a7.066,7.066,0,0,1,2.69-4.581,6.612,6.612,0,0,1,5.107-.926l.337.062c4.488.9,10.34,5.044,16.048,11.353a84.154,84.154,0,0,1,13.353,20.162c3.624,7.779,5.237,14.908,4.423,19.566a1.829,1.829,0,0,1-.065.339,7.06,7.06,0,0,1-2.69,4.576h0A6.03,6.03,0,0,1,589.388,407.366Zm-29.36-55.357a4.294,4.294,0,0,0-2.538.73,5.232,5.232,0,0,0-1.927,3.393c-1.294,6.333,2.741,18,10.039,29.019s16.367,19.136,22.551,20.186a4.923,4.923,0,0,0,3.762-.62h0a5.22,5.22,0,0,0,1.923-3.393l.055-.272c.749-4.295-.809-10.976-4.271-18.411a82.307,82.307,0,0,0-13.039-19.69c-5.445-6.022-10.931-9.955-15.059-10.785l-.273-.048a7.021,7.021,0,0,0-1.225-.1Z" transform="translate(-362.286 -323.02)" fill="#262424"/>
      <path id="Path_1754" data-name="Path 1754" d="M428.424,183.58,413.43,194.165l10.182,15.371,6.018-4.252,7.1-5.016Z" transform="translate(-222.339 -182.622)" fill="#fff"/>
      <path id="Path_1755" data-name="Path 1755" d="M562.383,321.242a1.039,1.039,0,0,1-.171,0,.923.923,0,0,1-.592-.4l-10.169-15.366a.974.974,0,0,1,.24-1.327l14.994-10.585a.874.874,0,0,1,.749-.138.929.929,0,0,1,.6.477l8.32,16.7a.973.973,0,0,1-.3,1.226l-13.145,9.244A.9.9,0,0,1,562.383,321.242Zm-8.893-16.077,9.133,13.811,11.685-8.251-7.437-14.994Z" transform="translate(-361.109 -293.374)" fill="#262424"/>
      <path id="Path_1756" data-name="Path 1756" d="M601.809,341.407l-14.976,10.575c-5.574-6.17-11.236-10.2-15.553-11.071l14.971-10.57C590.563,331.213,596.239,335.241,601.809,341.407Z" transform="translate(-371.86 -312.689)" fill="#fff"/>
      <path id="Path_1757" data-name="Path 1757" d="M585.759,351.891a.911.911,0,0,1-.675-.305c-5.445-6.022-10.931-9.955-15.059-10.785a.94.94,0,0,1-.724-.744.969.969,0,0,1,.382-.978l14.971-10.57a.9.9,0,0,1,.7-.148c4.507.907,10.358,5.049,16.057,11.348a.973.973,0,0,1,.24.759.96.96,0,0,1-.4.682l-14.976,10.575A.9.9,0,0,1,585.759,351.891Zm-13.4-12.408c4.012,1.484,8.782,5.078,13.529,10.184l13.432-9.482c-5.033-5.388-10.053-8.948-13.95-9.893Z" transform="translate(-370.785 -311.644)" fill="#262424"/>
      <path id="Path_1758" data-name="Path 1758" d="M593.99,312.042h0l-8.32-16.7c7.349,1.265,17.245,8.428,26.808,19.451l-2.972,8.308C603.978,316.943,598.3,312.916,593.99,312.042Z" transform="translate(-379.599 -294.392)" fill="#fff"/>
      <path id="Path_1759" data-name="Path 1759" d="M608.493,323.024a.911.911,0,0,1-.675-.305c-5.436-6.013-10.927-9.945-15.059-10.78a.932.932,0,0,1-.675-.568l-8.274-16.626a.98.98,0,0,1,.074-1,.911.911,0,0,1,.9-.382c7.608,1.312,17.564,8.513,27.368,19.757a.978.978,0,0,1,.18.954l-2.972,8.308a.934.934,0,0,1-.684.606A.782.782,0,0,1,608.493,323.024ZM593.55,310.168c4.16,1.016,9.4,4.658,14.578,10.136l2.265-6.333c-8.454-9.616-17.25-16.278-24.035-18.277Z" transform="translate(-378.544 -293.353)" fill="#262424"/>
      <path id="Path_1760" data-name="Path 1760" d="M430.474,268.673,415.5,279.248l-8.579-.153L421.9,268.52Z" transform="translate(-218.838 -227.028)" fill="#fff"/>
      <path id="Path_1761" data-name="Path 1761" d="M554.269,390.935h0l-8.579-.157a.929.929,0,0,1-.871-.679.971.971,0,0,1,.363-1.063l14.953-10.57a.792.792,0,0,1,.536-.167l8.579.153a.929.929,0,0,1,.867.681.971.971,0,0,1-.364,1.061l-14.976,10.575A.9.9,0,0,1,554.269,390.935Zm-5.662-2.014,5.385.1,12.341-8.714-5.385-.1Z" transform="translate(-357.608 -337.76)" fill="#262424"/>
      <path id="Path_1762" data-name="Path 1762" d="M532.242,337.324l-14.994,10.589L507.07,332.543l6.018-4.247,7.1-5.016Z" transform="translate(-272.697 -255.655)" fill="#fff"/>
      <path id="Path_1763" data-name="Path 1763" d="M656.025,459.6a.916.916,0,0,1-.763-.415l-10.169-15.371a.981.981,0,0,1-.143-.716.957.957,0,0,1,.384-.611l13.122-9.263a.9.9,0,0,1,1.216.153l12.05,14.049a.975.975,0,0,1,.227.749.96.96,0,0,1-.393.673l-14.994,10.585a.931.931,0,0,1-.536.167Zm-8.9-16.073,9.138,13.8,13.367-9.439-10.8-12.608Z" transform="translate(-411.47 -366.388)" fill="#262424"/>
      <path id="Path_1764" data-name="Path 1764" d="M648.46,395.28l-14.98,10.575c3.545,7.6,5.131,14.512,4.349,18.983L652.8,414.264C653.6,409.787,652,402.877,648.46,395.28Z" transform="translate(-405.31 -346.639)" fill="#fff"/>
      <path id="Path_1765" data-name="Path 1765" d="M636.754,424.77a.9.9,0,0,1-.5-.153.967.967,0,0,1-.407-.954c.749-4.271-.809-10.976-4.271-18.4a.973.973,0,0,1,.31-1.2l14.98-10.575a.9.9,0,0,1,.758-.134.932.932,0,0,1,.6.506c3.619,7.769,5.232,14.9,4.419,19.566a.923.923,0,0,1-.388.616L637.267,424.6A.9.9,0,0,1,636.754,424.77Zm-3.185-19.613c2.893,6.4,4.4,12.317,4.285,16.7l13.016-9.186c.559-4.09-.832-10.212-3.869-17.008Z" transform="translate(-404.235 -345.616)" fill="#262424"/>
      <path id="Path_1766" data-name="Path 1766" d="M670.225,414.264h0l12.055,14.049c1.521-7.53-1.354-19.652-7.825-32.875l-8.574-.158C669.425,402.877,671.02,409.787,670.225,414.264Z" transform="translate(-422.735 -346.639)" fill="#fff"/>
      <path id="Path_1767" data-name="Path 1767" d="M681.2,428.222a.912.912,0,0,1-.693-.324l-12.018-14a.975.975,0,0,1-.259-.845c.744-4.295-.813-10.976-4.271-18.4a.981.981,0,0,1,.055-.931.954.954,0,0,1,.795-.439l8.579.157a.922.922,0,0,1,.809.52c6.6,13.5,9.48,25.707,7.9,33.5a.942.942,0,0,1-.665.73A1.013,1.013,0,0,1,681.2,428.222Zm-11.093-15.3,10.46,12.2c.661-7.268-2.163-18.134-7.774-29.769l-6.54-.115c3.074,6.948,4.465,13.3,3.873,17.686Z" transform="translate(-421.655 -345.593)" fill="#262424"/>
      <path id="Path_1768" data-name="Path 1768" d="M465.548,310.59l-14.976,10.575-2.972,8.308,14.976-10.57Z" transform="translate(-240.715 -249.021)" fill="#fff"/>
      <path id="Path_1769" data-name="Path 1769" d="M586.358,441.143a.916.916,0,0,1-.756-.41.98.98,0,0,1-.109-.874l2.977-8.308a.915.915,0,0,1,.347-.477L603.793,420.5a.9.9,0,0,1,1.09.038.974.974,0,0,1,.3,1.084l-2.972,8.308a.952.952,0,0,1-.347.477l-14.976,10.57A.872.872,0,0,1,586.358,441.143ZM590.1,432.5l-1.849,5.216L600.59,429l1.849-5.216Z" transform="translate(-379.473 -359.736)" fill="#262424"/>
      <path id="Path_1770" data-name="Path 1770" d="M569.465,401.46,551.845,413.9c-8.736,6.166-28.551-8.065-44.262-31.782S486.216,334.168,494.951,328l17.62-12.436a9.885,9.885,0,0,0-3.7,6.39v.019l14.957-10.561,7.825,32.875-14.98,10.57a134.426,134.426,0,0,0,18.8,28.389l14.98-10.57,26.808,19.451L562.31,402.687h.014A9.253,9.253,0,0,0,569.465,401.46Z" transform="translate(-328.603 -302.793)" fill="#fff"/>
      <path id="Path_1771" data-name="Path 1771" d="M545.828,415.255c-10.391,0-26.554-13.181-40.106-33.643-16.247-24.524-21.687-48.876-12.392-55.443l17.615-12.436h0a.908.908,0,0,1,1.287.25.976.976,0,0,1-.243,1.329h0a7.641,7.641,0,0,0-2.547,3.293l12.776-9.019a.9.9,0,0,1,.855-.105.945.945,0,0,1,.568.663l7.821,32.875a.97.97,0,0,1-.374,1.016l-14.329,10.1a133.732,133.732,0,0,0,17.763,26.815l14.329-10.1a.9.9,0,0,1,1.054,0L576.713,390.3a.972.972,0,0,1,0,1.57l-12.78,9.019a7.233,7.233,0,0,0,3.9-1.255h0a.906.906,0,0,1,1.285.248.974.974,0,0,1-.24,1.327l-17.583,12.436a9.222,9.222,0,0,1-5.463,1.608Zm-38.34-96.769-13.113,9.258c-3.827,2.706-4.733,9.8-2.473,19.466,2.357,10.112,7.807,21.952,15.345,33.329s16.242,20.916,24.5,26.853c7.908,5.679,14.638,7.383,18.488,4.681l13.118-9.258a14.885,14.885,0,0,1-2.237-.21l-.171-.038a.965.965,0,0,1-.092-1.794l13.737-9.7-25.218-18.282-14.449,10.2a.9.9,0,0,1-1.206-.148,135.125,135.125,0,0,1-18.951-28.6.973.973,0,0,1,.305-1.217l14.444-10.2-7.34-30.895-13.751,9.692a.9.9,0,0,1-1.043.2.959.959,0,0,1-.538-.944.374.374,0,0,1,.028-.172A16.025,16.025,0,0,1,507.488,318.486ZM561.2,401.65Z" transform="translate(-327.504 -301.751)" fill="#262424"/>
      <path id="Path_1772" data-name="Path 1772" d="M573.82,325.454,561.766,311.41c-1.521,7.53,1.354,19.647,7.825,32.875l8.574.153C574.625,336.841,573.039,329.931,573.82,325.454Z" transform="translate(-366.529 -302.793)" fill="#fff"/>
      <path id="Path_1773" data-name="Path 1773" d="M577.1,344.347h0l-8.579-.153a.922.922,0,0,1-.809-.525c-6.6-13.5-9.48-25.7-7.9-33.5a.942.942,0,0,1,.667-.726.906.906,0,0,1,.928.287l12.055,14.049a.976.976,0,0,1,.217.8c-.744,4.295.813,10.976,4.271,18.4a.981.981,0,0,1-.055.931.917.917,0,0,1-.795.439Zm-8-2.052,6.54.119c-3.069-6.977-4.46-13.333-3.864-17.709l-10.451-12.178C560.667,319.795,563.491,330.689,569.1,342.3Z" transform="translate(-365.466 -301.748)" fill="#262424"/>
      <path id="Path_1774" data-name="Path 1774" d="M622.812,422.37l-2.972,8.313c9.586,11.019,19.482,18.187,26.808,19.451l-8.32-16.7C634.044,432.568,628.382,428.536,622.812,422.37Z" transform="translate(-397.975 -360.801)" fill="#fff"/>
      <path id="Path_1775" data-name="Path 1775" d="M645.6,450.076a.822.822,0,0,1-.153,0c-7.608-1.312-17.564-8.509-27.368-19.757a.978.978,0,0,1-.18-.954l2.972-8.308a.933.933,0,0,1,.685-.605.907.907,0,0,1,.859.285c5.44,6.018,10.927,9.95,15.059,10.785a.927.927,0,0,1,.642.477l8.32,16.7a.982.982,0,0,1-.031.936.919.919,0,0,1-.791.458Zm-25.773-20.62c8.454,9.621,17.25,16.278,24.035,18.282l-7.2-14.474c-4.16-1.017-9.4-4.658-14.583-10.141Z" transform="translate(-396.901 -359.788)" fill="#262424"/>
    </g>
    <g id="RIGHT_ARM" data-name="RIGHT ARM" transform="translate(62.378 71.339)">
      <path id="Path_1776" data-name="Path 1776" d="M413.134,528h16.838a1.908,1.908,0,0,1,.8.172l11.116,5.078a2.067,2.067,0,0,1,1.045,2.615h0a1.971,1.971,0,0,1-1.969,1.293l-9.767-.649a1.466,1.466,0,0,0-1.387.806h0a1.572,1.572,0,0,0-.047,1.322,1.494,1.494,0,0,0,.971.863l17.148,4.92a2.92,2.92,0,0,1,1.8,1.521,3.08,3.08,0,0,1,.137,2.4h0a2.886,2.886,0,0,1-3.236,1.909l-10.58-2,7.506,4.443a2.492,2.492,0,0,1,.874,3.341l-4.622,8.289a2.351,2.351,0,0,1-2.658,1.155L419,559.558a12.52,12.52,0,0,1-4.761-2.863L399.79,542.855Z" transform="translate(-342.01 -400.655)" fill="#fff"/>
      <path id="Path_1777" data-name="Path 1777" d="M436.579,565.416a3.054,3.054,0,0,1-.823-.11h-.046l-18.1-5.927a13.535,13.535,0,0,1-5.112-3.069l-14.453-13.839a.979.979,0,0,1-.051-1.35l13.363-14.865a.911.911,0,0,1,.68-.305H428.87a2.841,2.841,0,0,1,1.174.253l11.116,5.063a3.025,3.025,0,0,1,1.633,3.448,2.916,2.916,0,0,1-2.991,2.279l-9.767-.616a.544.544,0,0,0-.489.237.583.583,0,0,0-.056.555.574.574,0,0,0,.36.324L447,542.414a3.959,3.959,0,0,1,2.693,4.686,3.826,3.826,0,0,1-4.408,3l-5.274-1,2.824,1.675a3.473,3.473,0,0,1,1.22,4.648l-4.622,8.289A3.293,3.293,0,0,1,436.579,565.416Zm-.337-1.952a1.429,1.429,0,0,0,1.6-.706l4.622-8.289a1.525,1.525,0,0,0-.536-2.043l-7.506-4.443A.969.969,0,0,1,434,546.82a.92.92,0,0,1,1.047-.608l10.58,2a1.939,1.939,0,0,0,1.938-.784,2.088,2.088,0,0,0,.174-2.142,1.957,1.957,0,0,0-1.225-1.036l-17.162-4.92a2.43,2.43,0,0,1-1.562-1.41,2.554,2.554,0,0,1,.083-2.141,2.394,2.394,0,0,1,2.274-1.312l9.776.649a1.058,1.058,0,0,0,1.1-.826,1.1,1.1,0,0,0-.61-1.259l-11.093-5.063a1.119,1.119,0,0,0-.43-.091H412.438l-12.457,13.839,13.774,13.161a11.676,11.676,0,0,0,4.41,2.653Z" transform="translate(-340.912 -399.583)" fill="#262424"/>
      <path id="Path_1778" data-name="Path 1778" d="M379.343,295.254c-8.981,15.944-58.47,59.451-58.47,59.451l27.271,33.768L332.308,408.83s-28.768-17.619-46.073-33.472c-5.149-4.715-9.277-9.277-11.329-13.171a4.8,4.8,0,0,1-.083-1.7c.9-4.667,3.587-10.7,7.418-17.471,15.04-26.566,47.737-64.366,59.574-74.588C361.478,251.441,390.621,275.211,379.343,295.254Z" transform="translate(-274.782 -261.92)" fill="url(#linear-gradient-7)"/>
      <path id="Path_1779" data-name="Path 1779" d="M383.485,350.746a.926.926,0,0,1-.865-.621.975.975,0,0,1,.26-1.054c10.723-9.625,46.3-42.052,53.617-55.07a18.156,18.156,0,0,0,.536-16.979,25.436,25.436,0,0,0-18.8-13.954.96.96,0,0,1-.79-1.093.939.939,0,0,1,1.058-.816A27.4,27.4,0,0,1,438.692,276.2a20.049,20.049,0,0,1-.6,18.764c-7.271,12.909-40.212,43.15-54.014,55.552A.908.908,0,0,1,383.485,350.746Z" transform="translate(-332.745 -261.149)" fill="#262424"/>
      <line id="Line_50" data-name="Line 50" x1="18.415" y2="0.997" transform="translate(27.676 92.785)" fill="#fff"/>
      <path id="Path_1780" data-name="Path 1780" d="M333.557,456.485a.955.955,0,0,1-.046-1.909l18.414-1a.956.956,0,0,1,.092,1.909l-18.41.993Z" transform="translate(-305.881 -361.748)" fill="#262424"/>
      <path id="Path_1781" data-name="Path 1781" d="M295.53,447.969a17.306,17.306,0,0,1-9.3,15.458c-5.147-4.716-9.274-9.278-11.326-13.172a4.8,4.8,0,0,1-.083-1.7c.9-4.667,3.587-10.7,7.418-17.471a17.134,17.134,0,0,1,13.289,16.889Z" transform="translate(-274.782 -349.987)" fill="#fff"/>
      <line id="Line_51" data-name="Line 51" y1="16.173" x2="12.933" transform="translate(53.532 123.422)" fill="#fff"/>
      <path id="Path_1782" data-name="Path 1782" d="M389.525,535.862a.908.908,0,0,1-.587-.22A.965.965,0,0,1,388.6,535a.976.976,0,0,1,.208-.7l12.942-16.168a.906.906,0,0,1,1.3-.129.977.977,0,0,1,.125,1.346l-12.942,16.168A.913.913,0,0,1,389.525,535.862Z" transform="translate(-335.992 -395.313)" fill="#262424"/>
    </g>
    <g id="HEAD" transform="translate(189.601 0.111)">
      <path id="Path_1783" data-name="Path 1783" d="M615.048,165.8c-1.738,10.4-5.547,22.706-17.564,19.876-14.305-3.364-22.94-14.6-22.108-28.819s7.724-21.775,24.1-18.95a24.315,24.315,0,0,1,4.1,1.064c9.3,3.34,13.524,11.782,12.286,21.265C615.63,161.935,615.385,163.83,615.048,165.8Z" transform="translate(-563.631 -125.185)" fill="#fff"/>
      <path id="Path_1784" data-name="Path 1784" d="M608.876,187.762a15.605,15.605,0,0,1-3.536-.434,31.126,31.126,0,0,1-14.745-7.85.977.977,0,0,1-.032-1.35.9.9,0,0,1,1.308-.033,29.269,29.269,0,0,0,13.866,7.373c3.36.792,6.138.391,8.486-1.226,5.038-3.469,6.933-11.864,7.955-17.881.333-1.947.582-3.818.809-5.531,1.234-9.468-3.235-17.218-11.671-20.234a.943.943,0,0,1-.637-.719.972.972,0,0,1,.307-.922.9.9,0,0,1,.931-.163c9.318,3.341,14.264,11.873,12.9,22.291-.227,1.751-.462,3.627-.813,5.607-1.063,6.356-3.125,15.271-8.754,19.141A11.036,11.036,0,0,1,608.876,187.762Z" transform="translate(-571.691 -125.92)" fill="#262424"/>
      <path id="Path_1785" data-name="Path 1785" d="M562.158,145.906a43.714,43.714,0,0,0,4.285,6.2l7.261.993,1.918-5.216s4.622.119,5.819-3.035a1.424,1.424,0,0,0,.074-.22,42.669,42.669,0,0,0,1.387-13.057s10.783,5.879,16.8,6.977c2.163.4,4.765-.286,7.215-1.322,4.9-2.076,9.591-9.749,9.129-15.2a.814.814,0,0,0,0-.1c-.763-8-5.126-2.811-5.126-2.811s-.707-6.447-4.534-7.158-6.693,4.963-6.693,4.963a59.1,59.1,0,0,0-22.542-2.61c-15.091,1.222-12.1,12.107-12.1,12.107S553.825,129.256,562.158,145.906Z" transform="translate(-554.897 -111.891)" fill="#262424"/>
      <path id="Path_1786" data-name="Path 1786" d="M568.429,182.046c1.026-5.889-2.639-11.7-8.32-12.794a9.331,9.331,0,0,0-3.656,0c-7.257,1.47-6.55,18.726,10.964,18.683Z" transform="translate(-551.151 -141.784)" fill="#fff"/>
      <path id="Path_1787" data-name="Path 1787" d="M566.193,187.857c-10.34,0-15.544-6-16.113-11.959-.411-4.319,1.706-7.941,5.034-8.614a10.3,10.3,0,0,1,4.007,0c6.147,1.193,10.229,7.4,9.1,13.9a.928.928,0,0,1-1.075.771.953.953,0,0,1-.746-1.11c.952-5.455-2.454-10.7-7.6-11.687a8.4,8.4,0,0,0-3.309,0c-2.371.477-3.864,3.236-3.545,6.557.462,4.724,4.456,10.236,14.269,10.236h.065a.955.955,0,0,1,0,1.909Z" transform="translate(-550.03 -140.747)" fill="#262424"/>
    </g>
    <g id="STRATEGY_BOARD" data-name="STRATEGY BOARD" transform="translate(311.904 98.681)">
      <path id="Path_1788" data-name="Path 1788" d="M1221.609,273.553l-19.2-30.313L1122.39,400.5l19.2,30.313Z" transform="translate(-915.511 -225.786)" fill="url(#linear-gradient)"/>
      <path id="Path_1789" data-name="Path 1789" d="M676.79,528.31l19.2,30.317,205.957,21.212-19.2-30.312Z" transform="translate(-675.873 -374.816)" fill="url(#linear-gradient-6)"/>
      <path id="Path_1790" data-name="Path 1790" d="M962.77,225.136,882.752,382.392,676.79,361.175,754.423,208.61Z" transform="translate(-675.873 -207.681)" fill="#fff"/>
      <path id="Path_1791" data-name="Path 1791" d="M1021.519,494.109h-.093L815.465,472.892a.923.923,0,0,1-.721-.477.982.982,0,0,1,0-.9l77.629-152.565a.919.919,0,0,1,.887-.506L1101.6,334.935a.922.922,0,0,1,.74.477.982.982,0,0,1,0,.907l-80,157.28a.921.921,0,0,1-.818.511ZM817.013,471.131l203.974,21,79.075-155.4L893.722,320.375Z" transform="translate(-814.635 -318.444)" fill="#262424"/>
      <path id="Path_1792" data-name="Path 1792" d="M934.2,483.509a.875.875,0,0,1-.43-.11.97.97,0,0,1-.388-1.288l71.43-140.391a.911.911,0,0,1,1.613-.079.982.982,0,0,1,.023.967L935.023,483A.921.921,0,0,1,934.2,483.509Z" transform="translate(-878.441 -330.335)" fill="#262424"/>
      <path id="Path_1793" data-name="Path 1793" d="M1045.595,493.359a.875.875,0,0,1-.43-.11.97.97,0,0,1-.388-1.288l72.031-141.541a.911.911,0,0,1,1.614-.079.982.982,0,0,1,.023.967l-72.031,141.541A.921.921,0,0,1,1045.595,493.359Z" transform="translate(-938.345 -334.883)" fill="#262424"/>
      <path id="Path_1794" data-name="Path 1794" d="M1156.994,503.162a.874.874,0,0,1-.43-.11.97.97,0,0,1-.388-1.289L1228.8,359.029a.911.911,0,0,1,1.613-.079.981.981,0,0,1,.023.967l-72.627,142.734A.921.921,0,0,1,1156.994,503.162Z" transform="translate(-998.255 -339.384)" fill="#262424"/>
      <path id="Path_1795" data-name="Path 1795" d="M1150.93,418.018h-.074L961.007,401.835a.948.948,0,0,1-.85-1.031.937.937,0,0,1,1-.878L1151,416.1a.956.956,0,0,1-.074,1.909Z" transform="translate(-892.893 -361.041)" fill="#262424"/>
      <path id="Path_1796" data-name="Path 1796" d="M1108.344,499.146h-.088L918.957,481.9a.95.95,0,0,1-.841-1.04.937.937,0,0,1,1.008-.869l189.285,17.261a.955.955,0,0,1-.065,1.909Z" transform="translate(-870.284 -402.899)" fill="#262424"/>
      <path id="Path_1797" data-name="Path 1797" d="M1065.757,580.224h-.088L876.912,561.9a.951.951,0,0,1-.837-1.045.937.937,0,0,1,1.012-.864l188.758,18.32a.956.956,0,0,1-.088,1.909Z" transform="translate(-847.675 -444.722)" fill="#262424"/>
      <path id="Path_1798" data-name="Path 1798" d="M1251.42,525.556c-8.218-.888-16.755,4.562-19.066,12.178s2.478,14.5,10.7,15.39,16.75-4.562,19.062-12.174S1259.638,526.444,1251.42,525.556Zm-5.916,19.48c-3.4-.367-5.371-3.216-4.419-6.357a7.609,7.609,0,0,1,7.858-5.035,4.853,4.853,0,0,1,4.419,6.361A7.585,7.585,0,0,1,1245.5,545.036Z" transform="translate(-1038.967 -426.67)" fill="url(#linear-gradient-10)"/>
      <path id="Path_1799" data-name="Path 1799" d="M982.756,256.443l-10.936,5.493-6.448-6.652-9.48,4.763-7.432-7.678,9.48-4.763-6.448-6.652,10.936-5.493,6.448,6.652,9.48-4.763,7.432,7.678-9.475,4.763Z" transform="translate(-821.974 -221.718)" fill="url(#linear-gradient)"/>
      <path id="Path_1800" data-name="Path 1800" d="M1069.592,387.564a.935.935,0,0,1-.919-.837.953.953,0,0,1,.693-1.044c1.71-.444,2.681-.663,2.723-.673a.906.906,0,0,1,.92.262.978.978,0,0,1,.205.962.933.933,0,0,1-.728.637s-.989.229-2.667.663A.952.952,0,0,1,1069.592,387.564Z" transform="translate(-951.25 -353.226)" fill="#262424"/>
      <path id="Path_1801" data-name="Path 1801" d="M963.569,457.45a38.908,38.908,0,0,1-4.252-.229.953.953,0,0,1-.827-1.055.938.938,0,0,1,1.022-.854,37.891,37.891,0,0,0,5.394.2.955.955,0,0,1,.06,1.909C964.494,457.44,964.031,457.45,963.569,457.45Zm6.864-.563a.937.937,0,0,1-1-.88.948.948,0,0,1,.853-1.028,49.07,49.07,0,0,0,5.311-1.16.9.9,0,0,1,.916.237.976.976,0,0,1,.236.944.937.937,0,0,1-.69.666,52.891,52.891,0,0,1-5.5,1.2Zm-16.446-.706a.833.833,0,0,1-.24-.033,30.717,30.717,0,0,1-5.334-2.043.952.952,0,0,1-.566-.792.965.965,0,0,1,.413-.887.9.9,0,0,1,.953-.039,29.169,29.169,0,0,0,5.02,1.909.954.954,0,0,1,.674,1.049.935.935,0,0,1-.919.827Zm27.113-2.2a.933.933,0,0,1-.914-.787.959.959,0,0,1,.595-1.064l.139-.052c1.608-.616,3.235-1.26,5.02-1.966a.917.917,0,0,1,1.2.549.966.966,0,0,1-.532,1.236c-1.775.706-3.425,1.35-5.043,1.971l-.139.052a.867.867,0,0,1-.324.062Zm-36.977-2.744a.906.906,0,0,1-.564-.2,25.089,25.089,0,0,1-4.123-4.1.976.976,0,0,1,.127-1.343.9.9,0,0,1,1.3.131,23.216,23.216,0,0,0,3.818,3.794.973.973,0,0,1,.315,1.064.928.928,0,0,1-.875.65Zm47.294-1.365a.932.932,0,0,1-.91-.775.96.96,0,0,1,.568-1.067q2.565-1.05,5.126-2.124a.916.916,0,0,1,1.151.546.967.967,0,0,1-.458,1.219q-2.565,1.074-5.135,2.133A.859.859,0,0,1,991.418,449.867Zm113.75-2.291a.935.935,0,0,1-.924-.835,19.014,19.014,0,0,0-1.414-5.2.981.981,0,0,1,.057-.986.913.913,0,0,1,.872-.406.931.931,0,0,1,.753.61,20.672,20.672,0,0,1,1.562,5.727.949.949,0,0,1-.8,1.069Zm-103.5-2a.932.932,0,0,1-.907-.77.961.961,0,0,1,.556-1.068l5.121-2.162a.9.9,0,0,1,.942.1.969.969,0,0,1,.358.906.947.947,0,0,1-.6.755l-5.117,2.162A.925.925,0,0,1,1001.669,445.572ZM937.2,442.451a.923.923,0,0,1-.841-.554,22.108,22.108,0,0,1-1.669-5.693.962.962,0,0,1,.781-1.1.94.94,0,0,1,1.068.807,20.233,20.233,0,0,0,1.479,5.206.983.983,0,0,1,.023.731.942.942,0,0,1-.485.533.932.932,0,0,1-.356.086Zm74.707-1.174a.932.932,0,0,1-.914-.772.96.96,0,0,1,.568-1.07q2.579-1.074,5.144-2.119a.915.915,0,0,1,1.2.537.965.965,0,0,1-.52,1.238q-2.561,1.04-5.131,2.114A.9.9,0,0,1,1011.912,441.277Zm88.81-3.97a.913.913,0,0,1-.7-.334,22.277,22.277,0,0,0-3.915-3.67.976.976,0,0,1-.21-1.334.907.907,0,0,1,1.292-.217,24.465,24.465,0,0,1,4.239,3.98.976.976,0,0,1-.1,1.346A.908.908,0,0,1,1100.722,437.307Zm-78.521-.215a.933.933,0,0,1-.909-.782.96.96,0,0,1,.581-1.065c1.793-.706,3.54-1.379,5.2-2a.9.9,0,0,1,.928.152.972.972,0,0,1,.32.912.946.946,0,0,1-.619.73c-1.641.62-3.379,1.289-5.168,1.99a.872.872,0,0,1-.328.062Zm10.4-3.885a.934.934,0,0,1-.92-.8.958.958,0,0,1,.624-1.061c1.807-.63,3.587-1.227,5.283-1.77a.92.92,0,0,1,1.129.638.962.962,0,0,1-.583,1.185c-1.678.539-3.439,1.131-5.232,1.756A.946.946,0,0,1,1032.6,433.207Zm-97.065-1.871h-.115a.949.949,0,0,1-.8-1.064,23.776,23.776,0,0,1,1.437-5.727.916.916,0,0,1,1.2-.534.966.966,0,0,1,.518,1.241,21.866,21.866,0,0,0-1.322,5.273.934.934,0,0,1-.929.811Zm156.362-.721a.9.9,0,0,1-.393-.091,39.274,39.274,0,0,0-5.033-2.009.962.962,0,0,1-.606-1.2.92.92,0,0,1,1.16-.625,40.691,40.691,0,0,1,5.265,2.1.964.964,0,0,1,.509,1.072A.932.932,0,0,1,1091.893,430.616Zm-48.731-.792a.935.935,0,0,1-.919-.827.954.954,0,0,1,.674-1.049c1.849-.52,3.651-1,5.394-1.432a.9.9,0,0,1,.925.25.977.977,0,0,1,.215.962.933.933,0,0,1-.725.644c-1.715.41-3.508.883-5.32,1.4a1.121,1.121,0,0,1-.245.052Zm10.765-2.567a.937.937,0,0,1-1.005-.871.95.95,0,0,1,.844-1.038c1.849-.353,3.73-.649,5.514-.873a.938.938,0,0,1,1.038.838.956.956,0,0,1-.811,1.071c-1.752.219-3.573.511-5.413.854Zm27.46-.134a1.275,1.275,0,0,1-.189,0c-1.123-.243-2.311-.477-3.495-.644-.619-.1-1.253-.186-1.877-.262a.955.955,0,0,1-.816-1.067.938.938,0,0,1,1.033-.842c.643.076,1.294.167,1.937.267,1.229.2,2.436.415,3.591.663a.952.952,0,0,1,.832,1.05.937.937,0,0,1-1.017.859Zm-16.492-1.236a.955.955,0,0,1-.046-1.909c1.3-.076,2.6-.11,3.855-.11h1.743a.955.955,0,0,1-.051,1.909H1068.7c-1.225,0-2.487.033-3.758.1Zm-125.389-5.073a.9.9,0,0,1-.522-.167.974.974,0,0,1-.24-1.327l.379-.554a35.454,35.454,0,0,1,3.236-3.966.907.907,0,0,1,.906-.3.939.939,0,0,1,.68.685.975.975,0,0,1-.264.942,34.057,34.057,0,0,0-3.069,3.751l-.351.515A.917.917,0,0,1,939.507,420.814Zm7.617-8.222a.927.927,0,0,1-.869-.635.974.974,0,0,1,.287-1.059c1.387-1.15,2.9-2.3,4.525-3.426a.907.907,0,0,1,1.283.26.974.974,0,0,1-.252,1.324c-1.576,1.093-3.055,2.209-4.391,3.34A.905.905,0,0,1,947.124,412.592Zm9.156-6.385a.93.93,0,0,1-.891-.707.968.968,0,0,1,.429-1.073c1.548-.921,3.2-1.842,4.913-2.734a.9.9,0,0,1,.954.016.964.964,0,0,1,.432.878.953.953,0,0,1-.55.805c-1.682.883-3.3,1.785-4.825,2.692a.9.9,0,0,1-.462.124Zm9.859-5.178a.932.932,0,0,1-.9-.752.963.963,0,0,1,.52-1.071c1.646-.768,3.365-1.532,5.112-2.272a.917.917,0,0,1,1.209.523.968.968,0,0,1-.506,1.248c-1.733.73-3.43,1.484-5.047,2.238a.9.9,0,0,1-.384.086Zm10.233-4.328a.933.933,0,0,1-.918-.785.959.959,0,0,1,.595-1.067c1.7-.649,3.462-1.3,5.241-1.909a.918.918,0,0,1,1.172.6.962.962,0,0,1-.58,1.21c-1.761.616-3.508,1.255-5.186,1.909a.868.868,0,0,1-.31.043Zm10.478-3.674a.934.934,0,0,1-.917-.81.957.957,0,0,1,.639-1.056c1.766-.568,3.559-1.117,5.334-1.632a.922.922,0,0,1,1.116.668.96.96,0,0,1-.617,1.17c-1.756.511-3.531,1.055-5.283,1.618a.926.926,0,0,1-.273.043Z" transform="translate(-879.153 -355.591)" fill="#262424"/>
      <path id="Path_1802" data-name="Path 1802" d="M1300.925,523.853a.814.814,0,0,1-.3-.052.962.962,0,0,1-.573-1.212,16.4,16.4,0,0,0,.624-2.62.94.94,0,0,1,1.072-.8.963.963,0,0,1,.776,1.107,18.544,18.544,0,0,1-.7,2.935A.927.927,0,0,1,1300.925,523.853Z" transform="translate(-1075.659 -423.373)" fill="#262424"/>
    </g>
    <g id="ORNAMENT" transform="translate(26.939 9.76)">
      <path id="Path_1803" data-name="Path 1803" d="M899.677,813.028a15.191,15.191,0,0,0-14.948,15.424,15.182,15.182,0,0,0-14.939-15.424A15.187,15.187,0,0,0,884.729,797.6a15.2,15.2,0,0,0,14.948,15.428Z" transform="translate(-559.331 -480.02)" fill="url(#linear-gradient-12)"/>
      <path id="Path_1804" data-name="Path 1804" d="M219.746,855.647a11,11,0,0,0-10.82,11.167,10.991,10.991,0,0,0-10.816-11.167,11,11,0,0,0,10.816-11.167,11,11,0,0,0,10.82,11.167Z" transform="translate(-198.11 -504.528)" fill="url(#linear-gradient-6)"/>
      <path id="Path_1805" data-name="Path 1805" d="M825.194,147.887a15.013,15.013,0,0,0-10.8,4.6,16.011,16.011,0,0,0-4.477,11.146,15.506,15.506,0,0,0-15.253-15.748,15.015,15.015,0,0,0,10.8-4.623,16.012,16.012,0,0,0,4.458-11.154A15.535,15.535,0,0,0,825.194,147.887Z" transform="translate(-518.927 -132.11)" fill="url(#linear-gradient-14)"/>
      <ellipse id="Ellipse_150" data-name="Ellipse 150" cx="7.298" cy="7.535" rx="7.298" ry="7.535" transform="translate(14.047 44.658)" fill="url(#linear-gradient)"/>
    </g>
  </g>
</svg>
