<svg id="Notre_Vision_Illustration" data-name="Notre Vision Illustration" xmlns="http://www.w3.org/2000/svg" xmlns:xlink="http://www.w3.org/1999/xlink" width="610.508" height="572" viewBox="0 0 610.508 572">
  <defs>
    <linearGradient id="linear-gradient" x1="1" y1="0.5" x2="0" y2="0.5" gradientUnits="objectBoundingBox">
      <stop offset="0" stop-color="#ce2e82"/>
      <stop offset="1" stop-color="#601f5f"/>
    </linearGradient>
    <linearGradient id="linear-gradient-2" x1="1" y1="0.5" x2="0" y2="0.5" gradientUnits="objectBoundingBox">
      <stop offset="0" stop-color="#1b89ca"/>
      <stop offset="1" stop-color="#2e3792"/>
    </linearGradient>
    <linearGradient id="linear-gradient-3" x1="1" y1="0.5" x2="0" y2="0.5" xlink:href="#linear-gradient-2"/>
    <linearGradient id="linear-gradient-6" x1="1" y1="0.5" x2="0" y2="0.5" xlink:href="#linear-gradient"/>
    <linearGradient id="linear-gradient-7" x1="0.892" y1="0.604" x2="-0.377" y2="0.604" xlink:href="#linear-gradient"/>
    <linearGradient id="linear-gradient-8" x1="0.75" y1="0.289" x2="-0.25" y2="0.289" xlink:href="#linear-gradient-2"/>
    <linearGradient id="linear-gradient-10" x1="1" y1="0.5" x2="0" y2="0.5" xlink:href="#linear-gradient-2"/>
    <linearGradient id="linear-gradient-11" x1="1" y1="0.5" x2="0" y2="0.5" xlink:href="#linear-gradient"/>
  </defs>
  <g id="LEFT_ARM" data-name="LEFT ARM" transform="translate(515.221 93.652)">
    <path id="Path_1809" data-name="Path 1809" d="M204,661.879s-15.827,4.635-18.862,8.253.863,7.619.863,7.619-5.9,13-5.587,17.777,6.984,2.235,6.984,2.235,16.361,6.387,21.033,3.8,7.238-33.8,7.238-33.8,28.062-43.807,31.033-67.354-9.1-28.823-23.186-22.087C216.041,581.9,207.35,647.315,204,661.879Z" transform="translate(-163.091 -503.886)" fill="#fff" stroke="#262424" stroke-linecap="round" stroke-linejoin="round" stroke-width="2"/>
    <path id="Path_1810" data-name="Path 1810" d="M262.862,539.154s.425,13.612-11.986,20.983-24.125-.171-24.125-.171-49.927-61.475-50.714-78.09,10.412-23.617,26.062-16.431C222.763,474.929,262.862,539.154,262.862,539.154Z" transform="translate(-175.997 -462.635)" fill="url(#linear-gradient)"/>
    <path id="Path_1811" data-name="Path 1811" d="M216.05,579.63s-1.663,11.428-11.25,16.507c-10.158,5.384-19.249-.476-19.249-.476" transform="translate(-135.248 -505.353)" fill="none" stroke="#262424" stroke-linecap="round" stroke-linejoin="round" stroke-width="2"/>
  </g>
  <g id="LEFT_LEG" data-name="LEFT LEG" transform="translate(490.964 215.163)">
    <path id="Path_1812" data-name="Path 1812" d="M264.123,919.11l33.058-13.415-15.237-67.018s6.946-140.9-22-170.065c-26.665-26.887-62.25-14.221-55.571,18.608,5.079,25.059,18.411,104.863,24.4,141.228,1.86,11.282,3.022,18.411,3.022,18.411l7.847,17.554Z" transform="translate(-203.55 -654.029)" fill="url(#linear-gradient-2)"/>
    <path id="Path_1813" data-name="Path 1813" d="M246.083,776.254l9.231,2.857a2.635,2.635,0,0,0,1.625,0l8.857-2.857a2.482,2.482,0,0,0,1.721-2.539l-1.1-16.507a2.921,2.921,0,0,0-2.876-2.7H245.448a2.5,2.5,0,0,0-2.539,2.7l1.1,16.507A2.914,2.914,0,0,0,246.083,776.254Z" transform="translate(-198.874 -690.716)" fill="#fff"/>
    <path id="Path_1814" data-name="Path 1814" d="M289.664,964.584a13.319,13.319,0,0,0,1.689-.7c7.834-3.866,10.418-14.6,5.784-23.986-3.809-7.758-11.428-12.158-18.342-11.256,1.86,11.282,3.022,18.411,3.022,18.411Z" transform="translate(-253.578 -754.254)" fill="#fff"/>
    <path id="Path_1815" data-name="Path 1815" d="M73.61,492.09,90.4,584.528l18.126,59.3" transform="translate(-35.448 -394.839)" fill="none" stroke="#262424" stroke-linecap="round" stroke-linejoin="round" stroke-width="2"/>
    <path id="Path_1816" data-name="Path 1816" d="M50.294,742.65l15.974,46.4-15.993,4.971L29.14,752.783Z" transform="translate(35.046 -486.324)" fill="#fff" stroke="#262424" stroke-linecap="round" stroke-linejoin="round" stroke-width="2"/>
    <path id="Path_1817" data-name="Path 1817" d="M164.31,1174.3v6.857h84.166s0-3.238-.273-8.323c-.635-12.171-2.9-35-10.495-49.666H206.637s-8.253,24.316-34.76,38.524a14.374,14.374,0,0,0-7.492,11.142C164.342,1173.319,164.31,1173.814,164.31,1174.3Z" transform="translate(-129.932 -825.323)" fill="url(#linear-gradient-3)"/>
    <path id="Path_1818" data-name="Path 1818" d="M164.31,1202.867v6.856h84.166s0-3.238-.273-8.323H164.4A12.542,12.542,0,0,0,164.31,1202.867Z" transform="translate(-129.932 -853.886)" fill="#fff" stroke="#262424" stroke-linecap="round" stroke-linejoin="round" stroke-width="2"/>
    <path id="Path_1819" data-name="Path 1819" d="M67.406,724.41,23.72,744.669l12.628,22.659L74.8,749.393Z" transform="translate(29.952 -479.664)" fill="#fff" stroke="#262424" stroke-linecap="round" stroke-linejoin="round" stroke-width="2"/>
  </g>
  <g id="RIGHT_LEG" data-name="RIGHT LEG" transform="translate(351.354 216.943)">
    <path id="Path_1820" data-name="Path 1820" d="M303.617,913.582l32.531,2.832,18.494-69.9s46.149-69.836,51.654-86.343,19.046-35.286,14.469-72.878-59.393-40.5-67.932-8.107c-6.552,24.735-30,102.19-40.727,137.426-3.327,10.939-5.435,17.821-5.435,17.821l-.768,19.211Z" transform="translate(-251.982 -656.833)" fill="url(#linear-gradient-3)"/>
    <path id="Path_1821" data-name="Path 1821" d="M327.649,776.254l8.412,2.857a2.628,2.628,0,0,0,1.625,0l9.682-2.857a3.606,3.606,0,0,0,2.463-2.54l3.689-16.507a2.1,2.1,0,0,0-2.1-2.7H333.331a3.562,3.562,0,0,0-3.3,2.7l-3.689,16.507A2.082,2.082,0,0,0,327.649,776.254Z" transform="translate(-198.274 -692.496)" fill="#fff"/>
    <path id="Path_1822" data-name="Path 1822" d="M303.616,760.786c6.012-14.17,13.186-31.947,9.669-60.815a36.665,36.665,0,0,0-2.044-8.431" transform="translate(-144.503 -669.505)" fill="none" stroke="#262424" stroke-linecap="round" stroke-linejoin="round" stroke-width="2"/>
    <path id="Path_1823" data-name="Path 1823" d="M458.22,945.532a13.341,13.341,0,0,0,1.822.127c8.736,0,15.815-8.482,15.815-18.945,0-8.653-4.844-15.954-11.46-18.215-3.327,10.939-5.435,17.821-5.435,17.821Z" transform="translate(-404.3 -748.722)" fill="#fff"/>
    <path id="Path_1824" data-name="Path 1824" d="M385.118,707.52l-2.749,11.84a17.98,17.98,0,0,0,4.8,16.793l1.822,1.822" transform="translate(-268.979 -675.34)" fill="none" stroke="#262424" stroke-linecap="round" stroke-linejoin="round" stroke-width="2"/>
    <path id="Path_1825" data-name="Path 1825" d="M264.363,395.56,215.211,548.045l-10.031,61.2" transform="translate(-135.204 -361.374)" fill="none" stroke="#262424" stroke-linecap="round" stroke-linejoin="round" stroke-width="2"/>
    <path id="Path_1826" data-name="Path 1826" d="M315.952,750.872l-6.234,48.676-16.539-2.628-.679-46.34Z" transform="translate(-242.23 -491)" fill="#fff" stroke="#262424" stroke-linecap="round" stroke-linejoin="round" stroke-width="2"/>
    <path id="Path_1827" data-name="Path 1827" d="M438.36,1174.3v6.857h84.166s0-3.238-.273-8.323c-.635-12.171-2.9-35-10.488-49.666H480.694s-8.253,24.316-34.76,38.524a14.361,14.361,0,0,0-7.491,11.142,14.107,14.107,0,0,0-.083,1.467Z" transform="translate(-438.36 -827.103)" fill="url(#linear-gradient-3)"/>
    <path id="Path_1828" data-name="Path 1828" d="M438.36,1202.867v6.856h84.166s0-3.238-.273-8.323h-83.8A14.085,14.085,0,0,0,438.36,1202.867Z" transform="translate(-438.36 -855.667)" fill="#fff" stroke="#262424" stroke-linecap="round" stroke-linejoin="round" stroke-width="2"/>
    <path id="Path_1829" data-name="Path 1829" d="M313.772,741.85l-51.292-.66,1.282,25.909,45.565.432Z" transform="translate(-220.991 -487.571)" fill="#fff" stroke="#262424" stroke-linecap="round" stroke-linejoin="round" stroke-width="2"/>
  </g>
  <g id="HEAD" transform="translate(455.956 6.94)">
    <path id="Path_1830" data-name="Path 1830" d="M369.126,377.976c-.6,3.13-14.272,25.617-29.795,17.992s-13.967-44.156-3.987-50.593S377.214,335.667,369.126,377.976Z" transform="translate(-320.64 -331.715)" fill="#fff" stroke="#262424" stroke-linecap="round" stroke-linejoin="round" stroke-width="2"/>
    <path id="Path_1831" data-name="Path 1831" d="M171.18,111.739,163.523,89,149.67,88.75l1.441,26.3Z" transform="translate(-111.38 -39.347)" fill="#fff" stroke="#262424" stroke-linecap="round" stroke-linejoin="round" stroke-width="2"/>
    <path id="Path_1832" data-name="Path 1832" d="M365.6,376.658c-3.352,1.733-12.19,3.555-16.64,3.212l-2.87-8.438s8.418-14.482,1-19.015-13.212,4.444-12.926,12.133-22.221,1.638-23.624-10.723,11.314-18.018,11.314-18.018,7.923-14.6,30.271-8.076S374.658,356.094,365.6,376.658Z" transform="translate(-310.427 -326.055)" fill="#262424"/>
  </g>
  <g id="BODY" transform="translate(439.868 79.13)">
    <path id="Path_1833" data-name="Path 1833" d="M332.464,455.576s-1.689-15.11-15.6-15.713-22.983,1.206-24.2,14.209Z" transform="translate(-244.318 -439.762)" fill="#fff" stroke="#262424" stroke-linecap="round" stroke-linejoin="round" stroke-width="2"/>
    <path id="Path_1834" data-name="Path 1834" d="M303.726,457.253c28.189,0,37.585,25.5,42.505,55.926s10.736,121.947,10.736,121.947-51.323,8.52-129.617.463l17.777-84.382s-8.945-31.319-11.187-40.27,26.849-47.425,34.918-51.425S303.726,457.253,303.726,457.253Z" transform="translate(-227.35 -446.011)" fill="url(#linear-gradient-6)"/>
    <path id="Path_1835" data-name="Path 1835" d="M237.55,469.87c11.39,9.834,16.627,27.858,19.9,48.054,1.4,8.653,2.87,22.252,4.26,37.28" transform="translate(-138.566 -450.755)" fill="none" stroke="#262424" stroke-linecap="round" stroke-linejoin="round" stroke-width="2"/>
    <path id="Path_1836" data-name="Path 1836" d="M350.7,725s-52.346,6.781-110.24,0" transform="translate(-229.407 -543.909)" fill="none" stroke="#262424" stroke-linecap="round" stroke-linejoin="round" stroke-width="2"/>
  </g>
  <g id="RIGHT_ARM" data-name="RIGHT ARM" transform="translate(363.181 55.576)">
    <path id="Path_1837" data-name="Path 1837" d="M440.44,442.069c2.787,6.171,7.974,9.866,11.58,8.253a4.5,4.5,0,0,0,1.72-1.39l57.082-31.026-5.714-12.666-61,22.322a4.482,4.482,0,0,0-2.19.368C438.307,429.562,437.621,435.892,440.44,442.069Z" transform="translate(-438.7 -403.603)" fill="#fff" stroke="#262424" stroke-linecap="round" stroke-linejoin="round" stroke-width="2"/>
    <ellipse id="Ellipse_151" data-name="Ellipse 151" cx="6.946" cy="4.051" rx="6.946" ry="4.051" transform="translate(68.424 15.994) rotate(-114.31)" fill="#fff" stroke="#262424" stroke-linecap="round" stroke-linejoin="round" stroke-width="4"/>
    <path id="Path_1838" data-name="Path 1838" d="M446.927,488.282s-20.875-24.246-28.849-37.655c0,0,8.6-14.907,8.311-19.8s-6.152-5.13-6.152-5.13-4.914-14.069-8.6-17.44-6.876,3.346-6.876,3.346-16.983,6.939-18.659,12.259,18.919,30.747,18.919,30.747,11.085,48.416,25.84,68.351S460.7,534.882,468,520.318,446.927,488.282,446.927,488.282Z" transform="translate(-363.631 -404.358)" fill="#fff" stroke="#262424" stroke-linecap="round" stroke-linejoin="round" stroke-width="2"/>
    <path id="Path_1839" data-name="Path 1839" d="M378.874,543.63s-12.24,7.238-25.23-.406-11.974-22.151-11.974-22.151S360.3,472.187,375.1,463.089s26.836-2.355,28.138,15.612C404.961,502.305,378.874,543.63,378.874,543.63Z" transform="translate(-269.586 -423.251)" fill="url(#linear-gradient-7)"/>
    <path id="Path_1840" data-name="Path 1840" d="M411.767,570.327s-11.294,4.228-20.773-1.981c-10.025-6.565-9.218-17.846-9.218-17.846" transform="translate(-303.495 -456.641)" fill="none" stroke="#262424" stroke-linecap="round" stroke-linejoin="round" stroke-width="2"/>
    <path id="Path_1841" data-name="Path 1841" d="M356.667,465.26c3.339,3.308,5.511,8.628,6.019,15.675,1.333,18.329-14.056,47.3-21.033,59.38" transform="translate(-229.03 -425.518)" fill="none" stroke="#262424" stroke-linecap="round" stroke-linejoin="round" stroke-width="2"/>
  </g>
  <g id="HAIR" transform="translate(511.041 0)">
    <path id="Path_1842" data-name="Path 1842" d="M184.257,333.876s9-23.376,29.966-17.929S237.117,347.652,234,364.661s12.78,21.637,22.919,23.268,10.329,38.956-26.843,31.655-32.442-40.537-31.674-57.558-5.466-21.979-14.094-20.386S184.257,333.876,184.257,333.876Z" transform="translate(-174.52 -315.124)" fill="#262424"/>
    <path id="Path_1843" data-name="Path 1843" d="M311.529,345.2l1.492,7.06a2.1,2.1,0,0,1-1.568,2.47l-5.574,1.327a2.1,2.1,0,0,1-2.539-1.689l-1.27-7.39a2.1,2.1,0,0,1,1.682-2.406l5.339-1A2.089,2.089,0,0,1,311.529,345.2Z" transform="translate(-302.041 -325.499)" fill="#fff" stroke="#262424" stroke-linecap="round" stroke-linejoin="round" stroke-width="2"/>
  </g>
  <g id="LAMP" transform="translate(86.366 106.551)">
    <path id="Path_1844" data-name="Path 1844" d="M781.2,582.88a68.141,68.141,0,0,0,53.406,36.188h0c.533.108,17.631,3.854,25.065,12.767l38.016-19.973c-3.1-11.18,3.53-27.376,3.739-27.877h0a68.224,68.224,0,1,0-120.227-1.1Z" transform="translate(-773.382 -482.952)" fill="url(#linear-gradient-8)"/>
    <path id="Path_1845" data-name="Path 1845" d="M871.751,652.628a.857.857,0,0,0,.451-.686c0-.1.14-1.968.248-5.143,2.673,1.714,4.292,2.667,4.374,2.717a.845.845,0,1,0,.851-1.46c-.089-.051-2.025-1.194-5.168-3.232.355-14.488-.241-47.889-11.739-69.8-2.1-4-8.076-12.1-15.694-14.158a13.916,13.916,0,0,0-11.4,1.867,10.793,10.793,0,0,0-3.485,3.511,10.793,10.793,0,0,0-4.876.876,13.91,13.91,0,0,0-8.012,8.317c-2.641,7.434.635,16.964,2.724,20.951,11.5,21.916,38.639,41.388,50.79,49.33-.108,3.739-.273,5.987-.279,6.089a.844.844,0,0,0,.781.908A.876.876,0,0,0,871.751,652.628Zm-36.125-89.067a12.063,12.063,0,0,1,9.022-1.06c7.053,1.9,12.659,9.523,14.64,13.332,11.053,21.078,11.866,53.088,11.567,67.932-12.38-8.19-38.258-27.039-49.317-48.117-1.974-3.771-5.079-12.7-2.628-19.611A12.266,12.266,0,0,1,826,568.71a9.008,9.008,0,0,1,3.339-.73c-2.146,5.155-1.041,12.1,2.108,17.573,3.282,5.714,7.993,8.05,11.993,5.949s4.755-7.3,1.9-13.25c-2.711-5.714-7.8-10.552-13.256-11.72a8.938,8.938,0,0,1,2.489-2.336A9.285,9.285,0,0,1,835.626,563.561Zm-4.444,4.52c5.13.838,10.12,5.517,12.7,10.869,1.9,4.025,2.616,9.034-1.181,11.021s-7.523-1.428-9.745-5.295c-3.016-5.136-4.031-11.9-1.8-16.6Z" transform="translate(-768.898 -511.224)" fill="#fff"/>
    <path id="Path_1846" data-name="Path 1846" d="M9.726,19.04h3.1a9.714,9.714,0,0,0,9.714-9.714V3.174A3.174,3.174,0,0,0,19.364,0H3.174A3.174,3.174,0,0,0,0,3.174V9.326A9.714,9.714,0,0,0,9.714,19.04Z" transform="translate(111.182 174.317) rotate(-27.68)" fill="#fff"/>
    <path id="Path_1847" data-name="Path 1847" d="M789.956,764.572l2.133-1.117a10.9,10.9,0,0,0,4.584-14.7l-2.641-5.041a4.114,4.114,0,0,0-5.549-1.727L774.345,749.4a4.114,4.114,0,0,0-1.733,5.549l2.647,5.035A10.894,10.894,0,0,0,789.956,764.572Zm-.711-21.122a2.457,2.457,0,0,1,3.32,1.035l2.647,5.035a9.244,9.244,0,0,1-3.892,12.469l-2.133,1.124a9.244,9.244,0,0,1-12.469-3.885l-2.647-5.041a2.463,2.463,0,0,1,1.041-3.32Z" transform="translate(-660.673 -577.361)" fill="#262424"/>
    <rect id="Rectangle_52" data-name="Rectangle 52" width="54.834" height="46.562" rx="6.69" transform="matrix(-0.886, 0.465, -0.465, -0.886, 149.774, 164.738)" fill="#fff"/>
    <path id="Path_1848" data-name="Path 1848" d="M777.437,743.609l42.74-22.43a4.114,4.114,0,0,0,1.733-5.549l-18.583-35.413a4.114,4.114,0,0,0-5.549-1.727l-42.74,22.424a4.114,4.114,0,0,0-1.727,5.549l18.577,35.413a4.114,4.114,0,0,0,5.549,1.733Zm21.11-63.653a2.463,2.463,0,0,1,3.32,1.035L820.45,716.4a2.463,2.463,0,0,1-1.035,3.32l-42.74,22.4a2.463,2.463,0,0,1-3.32-1.035l-18.583-35.413a2.463,2.463,0,0,1,1.035-3.32Z" transform="translate(-672.882 -554.176)" fill="#262424"/>
    <path id="Path_1849" data-name="Path 1849" d="M772.473,688.267a3.812,3.812,0,0,0,2.159,7.168l28.842-2.965a3.809,3.809,0,0,0,3.409-3.46,3.87,3.87,0,0,0,0-.717,3.809,3.809,0,0,0-4.158-3.4l-28.842,2.965a3.923,3.923,0,0,0-1.384.413Z" transform="translate(-668.566 -556.677)" fill="#fff"/>
    <path id="Path_1850" data-name="Path 1850" d="M804.747,692.311A4.6,4.6,0,0,0,807.2,688.6a3.9,3.9,0,0,0,0-.863,4.666,4.666,0,0,0-5.085-4.146l-28.849,2.971a4.637,4.637,0,0,0,.952,9.225l28.843-2.971a4.612,4.612,0,0,0,1.689-.5ZM772.368,688.5a2.989,2.989,0,0,1,1.086-.33l28.842-2.965a2.94,2.94,0,0,1,1.778.375,2.983,2.983,0,0,1,1.168,1.213,2.874,2.874,0,0,1,.33,1.079,3.1,3.1,0,0,1,0,.54,2.978,2.978,0,0,1-2.673,2.736l-28.842,2.965a2.984,2.984,0,0,1-1.7-5.612Z" transform="translate(-668.048 -556.201)" fill="#262424"/>
    <rect id="Rectangle_53" data-name="Rectangle 53" width="70.281" height="7.625" rx="3.812" transform="matrix(-0.995, 0.102, -0.102, -0.995, 147.287, 151.805)" fill="#fff"/>
    <path id="Path_1851" data-name="Path 1851" d="M825.332,718.14a3.479,3.479,0,0,0,1.841-3.428l-.241-2.33a3.473,3.473,0,0,0-3.809-3.092l-64.65,6.654a3.466,3.466,0,0,0-3.092,3.809l.241,2.33a3.46,3.46,0,0,0,3.809,3.092h0l64.65-6.66A3.453,3.453,0,0,0,825.332,718.14Zm-67.348-.356a1.667,1.667,0,0,1,.635-.2l64.681-6.654a1.816,1.816,0,0,1,1.987,1.619l.241,2.33a1.809,1.809,0,0,1-1.619,1.987l-64.656,6.653a1.816,1.816,0,0,1-1.993-1.619l-.241-2.33A1.822,1.822,0,0,1,757.984,717.784Zm1.352,6.552Z" transform="translate(-679.294 -565.586)" fill="#262424"/>
    <path id="Path_1852" data-name="Path 1852" d="M751.452,750.688l59.793-6.349a3.809,3.809,0,0,0,3.4-4.177h0a3.809,3.809,0,0,0-4.184-3.4l-59.793,6.349a3.809,3.809,0,0,0-3.4,4.177h0a3.809,3.809,0,0,0,4.184,3.4Z" transform="translate(-661.62 -575.615)" fill="#fff"/>
    <path id="Path_1853" data-name="Path 1853" d="M812.529,744.142a4.635,4.635,0,0,0-2.628-8.717l-59.8,6.349a4.637,4.637,0,1,0,.952,9.225h0l59.8-6.33A4.634,4.634,0,0,0,812.529,744.142Zm-63.342-.381a3.035,3.035,0,0,1,1.086-.324l59.8-6.349a2.987,2.987,0,0,1,.609,5.942l-59.8,6.349a2.99,2.99,0,0,1-2.622-4.857A3.042,3.042,0,0,1,749.188,743.761Zm1.784,6.438Z" transform="translate(-661.14 -575.127)" fill="#262424"/>
    <path id="Path_1854" data-name="Path 1854" d="M811.279,777.553a3.809,3.809,0,0,0,3.758,2.032l10.793-1.111a3.811,3.811,0,0,0,1.384-.419h0a3.809,3.809,0,0,0-2.165-7.168L814.257,772a3.809,3.809,0,0,0-3.4,3.46,3.447,3.447,0,0,0,0,.724,3.713,3.713,0,0,0,.425,1.371Z" transform="translate(-716.59 -588.076)" fill="#fff"/>
    <path id="Path_1855" data-name="Path 1855" d="M827.109,778.312a4.635,4.635,0,0,0-2.629-8.717l-10.793,1.111a4.622,4.622,0,0,0-4.146,4.216,4.4,4.4,0,0,0,0,.863,4.5,4.5,0,0,0,.508,1.682,4.629,4.629,0,0,0,1.809,1.9,4.578,4.578,0,0,0,2.762.59l10.793-1.111A4.5,4.5,0,0,0,827.109,778.312Zm-14.355-5.638a3,3,0,0,1,1.086-.324l10.793-1.117a2.988,2.988,0,1,1,.635,5.942l-10.793,1.111a3,3,0,0,1-3.276-2.667,2.539,2.539,0,0,1,0-.54A2.971,2.971,0,0,1,812.754,772.675Z" transform="translate(-716.085 -587.603)" fill="#262424"/>
  </g>
  <g id="Ornaments" transform="translate(0 31.849)">
    <path id="Path_1856" data-name="Path 1856" d="M1083.289,535.954h0A18.468,18.468,0,0,1,1094.38,512.3h0a18.469,18.469,0,0,1-23.649-11.085h0a18.475,18.475,0,0,1-11.091,23.649h0a18.462,18.462,0,0,1,23.649,11.085Z" transform="translate(-1053.297 -414.921)" fill="url(#linear-gradient-6)"/>
    <path id="Path_1857" data-name="Path 1857" d="M632.013,504.745h0a22.532,22.532,0,0,1,22.525,22.525h0a22.526,22.526,0,0,1,22.513-22.525h0a22.525,22.525,0,0,1-22.525-22.525h0A22.532,22.532,0,0,1,632,504.745Z" transform="translate(-364.469 -407.984)" fill="url(#linear-gradient-10)"/>
    <path id="Path_1858" data-name="Path 1858" d="M929.15,377.518h0a12.228,12.228,0,0,1,12.228,12.228h0a12.228,12.228,0,0,1,12.228-12.228h0a12.228,12.228,0,0,1-12.228-12.228h0a12.228,12.228,0,0,1-12.228,12.228Z" transform="translate(-829.677 -365.29)" fill="url(#linear-gradient-11)"/>
    <ellipse id="Ellipse_152" data-name="Ellipse 152" cx="10.596" cy="10.596" rx="10.596" ry="10.596" transform="translate(57.685 221.54)" fill="url(#linear-gradient-11)"/>
    <ellipse id="Ellipse_153" data-name="Ellipse 153" cx="6.127" cy="6.127" rx="6.127" ry="6.127" transform="translate(294.469 6.101)" fill="url(#linear-gradient-11)"/>
    <ellipse id="Ellipse_154" data-name="Ellipse 154" cx="8.165" cy="8.165" rx="8.165" ry="8.165" transform="translate(202.259 28.728)" fill="url(#linear-gradient-3)"/>
    <ellipse id="Ellipse_155" data-name="Ellipse 155" cx="8.393" cy="8.393" rx="8.393" ry="8.393" transform="translate(0 162.478)" fill="url(#linear-gradient-3)"/>
  </g>
</svg>
