<svg xmlns="http://www.w3.org/2000/svg" width="82.226" height="47.6" viewBox="0 0 82.226 47.6">
  <g id="noun-people-1393005" transform="translate(-89.6 -129)">
    <path id="Path_2383" data-name="Path 2383" d="M171.81,164.542a16.92,16.92,0,0,0-10.351-15.582,11.048,11.048,0,1,0-13.2.016,16.851,16.851,0,0,0-8.945,9.119l-2.039-1.059a11.067,11.067,0,1,0-13.212,0l-2.039,1.059a16.836,16.836,0,0,0-8.945-9.024,11.067,11.067,0,1,0-13.212,0A16.9,16.9,0,0,0,89.6,164.558v3.983h3.54v-3.983a13.358,13.358,0,0,1,26.013-4.235,16.81,16.81,0,0,0-5.31,12.3V176.6h3.635v-3.983a13.367,13.367,0,1,1,26.645,0V176.6h3.54v-3.983a16.758,16.758,0,0,0-5.31-12.3,13.365,13.365,0,0,1,25.934,4.251v3.983h3.54ZM99.066,140.2a7.5,7.5,0,1,1,2.2,5.326,7.576,7.576,0,0,1-2.2-5.326Zm24.164,8.06h0a7.527,7.527,0,0,1,7.459-7.617,7.543,7.543,0,1,1-7.459,7.617Zm24.164-8.06h0a7.5,7.5,0,1,1,2.2,5.326,7.576,7.576,0,0,1-2.2-5.326Z" fill="#b6277b"/>
  </g>
</svg>
