<svg id="noun-strategy-4966436" xmlns="http://www.w3.org/2000/svg" width="47.4" height="44.437" viewBox="0 0 47.4 44.437">
  <path id="Path_2392" data-name="Path 2392" d="M202.59,232.545a7.545,7.545,0,1,0-7.545,7.545A7.41,7.41,0,0,0,202.59,232.545Zm-10.06,0a2.515,2.515,0,1,1,2.515,2.515A2.376,2.376,0,0,1,192.53,232.545Z" transform="translate(-187.5 -225)" fill="#245fab"/>
  <path id="Path_2393" data-name="Path 2393" d="M314.718,236.25l-2.892,2.954,2.892,2.954c-18.8,1.9-33.468,18.148-33.468,37.774h4.132A33.851,33.851,0,0,1,314.1,246.379l-2.273,2.321,2.892,2.954,7.644-7.808Z" transform="translate(-274.962 -235.495)" fill="#245fab"/>
  <path id="Path_2394" data-name="Path 2394" d="M632.834,678.75l-5.282,5.282-5.282-5.282-3.521,3.521,5.282,5.533-5.282,5.282,3.521,3.521,5.282-5.282,5.282,5.282,3.521-3.521-5.282-5.282,5.282-5.533Z" transform="translate(-596.501 -656.696)" fill="#245fab"/>
</svg>
