<svg xmlns="http://www.w3.org/2000/svg" width="80.45" height="89.376" viewBox="0 0 80.45 89.376">
  <g id="noun-analyzes-3075752" transform="translate(-140 -46.7)">
    <path id="Path_2411" data-name="Path 2411" d="M219.8,216.7h-5.9l-3.62,18.063L206.487,210h-5.9l-4.463,17.871H186.7v4.463h12.91l3.582-14.347,3.927,25.533H213.1l3.754-18.772,1.513,7.6h13.025v-4.463h-9.348Z" transform="translate(-37.755 -132.02)" fill="#fff"/>
    <path id="Path_2412" data-name="Path 2412" d="M499.865,70h-6.321L490,73.544V141.5l2.643,13.408h8.122l2.586-12.968.057-68.4ZM495.4,74.463h2.624l.919.919V87.871h-4.463V75.4Zm1.7,75.987h-.8l-1.839-9.156V92.354h4.463v48.941Z" transform="translate(-282.958 -18.837)" fill="#fff"/>
    <path id="Path_2413" data-name="Path 2413" d="M189.17,51.163h-8.945V46.7H162.354v4.463h-8.945v4.463H140v74.665l5.785,5.785h51.009l5.785-5.785V55.626H189.17Zm-31.3,4.463h8.945V51.163h8.945v4.463h8.945v4.463H157.891ZM198.1,60.108v68.344l-3.161,3.161H147.624l-3.161-3.161V60.108h8.945v4.463H189.17V60.108Z" fill="#fff"/>
  </g>
</svg>
