<svg xmlns="http://www.w3.org/2000/svg" width="72.424" height="68.288" viewBox="0 0 72.424 68.288">
  <g id="noun-question-670402" transform="translate(-79.3 -157.772)">
    <path id="Path_2410" data-name="Path 2410" d="M124.261,24.7h-17.5a27.461,27.461,0,0,0-3.973,54.632,24.668,24.668,0,0,1-.7,10.822,2.234,2.234,0,0,0,.161,1.659,2.189,2.189,0,0,0,1.271,1.07,2.166,2.166,0,0,0,1.659-.134c4.575-2.3,11.036-6.541,14.5-13.136h4.588a27.456,27.456,0,1,0-.013-54.913Zm-9.083,43.944a2.877,2.877,0,1,1,2.033-.843A2.91,2.91,0,0,1,115.177,68.644Zm3.13-13.926s-.281.107-.281.268v2.261a2.856,2.856,0,0,1-5.712,0V55a6.113,6.113,0,0,1,1.164-3.5,6.044,6.044,0,0,1,2.983-2.167,4.036,4.036,0,0,0,2.782-3.946,4.245,4.245,0,0,0-1.271-2.809,4.2,4.2,0,0,0-2.849-1.164,4.083,4.083,0,0,0-2.154.629,4.165,4.165,0,0,0-1.485,1.672,2.858,2.858,0,0,1-5.15-2.475A9.73,9.73,0,0,1,115.07,35.7h.054A9.852,9.852,0,0,1,124.9,45.18a9.66,9.66,0,0,1-1.739,5.873,9.438,9.438,0,0,1-4.856,3.665Z" transform="translate(0 133.072)" fill="#fff"/>
  </g>
</svg>
