<svg xmlns="http://www.w3.org/2000/svg" width="46.796" height="46.797" viewBox="0 0 46.796 46.797">
  <g id="noun-optimize-3185269" transform="translate(-98 -27.942)">
    <path id="Path_2408" data-name="Path 2408" d="M132.317,49.005h-3.2a8.315,8.315,0,0,0-.6-1.458l2.266-2.265a.779.779,0,0,0,0-1.1l-2.21-2.21h0a.779.779,0,0,0-1.1,0L125.2,44.233a7.663,7.663,0,0,0-1.458-.6v-3.2a.758.758,0,0,0-.232-.548.774.774,0,0,0-.548-.232h-3.12a.758.758,0,0,0-.548.232.774.774,0,0,0-.232.548v3.2a7.663,7.663,0,0,0-1.458.6l-2.265-2.265a.779.779,0,0,0-1.1,0l-2.21,2.21h0a.779.779,0,0,0,0,1.1l2.266,2.265a7.662,7.662,0,0,0-.6,1.458h-3.2a.758.758,0,0,0-.548.232.774.774,0,0,0-.232.548v3.12a.785.785,0,0,0,.78.78h3.2a8.316,8.316,0,0,0,.6,1.458l-2.266,2.265a.779.779,0,0,0,0,1.1l2.2,2.2h0a.774.774,0,0,0,.548.232.758.758,0,0,0,.548-.232l2.265-2.265a7.663,7.663,0,0,0,1.458.6v3.2a.785.785,0,0,0,.78.78h3.12a.758.758,0,0,0,.548-.232.774.774,0,0,0,.232-.548v-3.2a7.663,7.663,0,0,0,1.458-.6l2.266,2.265a.774.774,0,0,0,.548.232.758.758,0,0,0,.548-.232l2.2-2.2h0a.779.779,0,0,0,0-1.1l-2.266-2.265a7.662,7.662,0,0,0,.6-1.458h3.2a.758.758,0,0,0,.548-.232.815.815,0,0,0,.232-.548v-3.12a.758.758,0,0,0-.232-.548.728.728,0,0,0-.511-.232ZM121.4,54.985h0a3.646,3.646,0,1,1,2.572-1.068,3.61,3.61,0,0,1-2.572,1.068ZM126.142,70l1.021,4.03h0a23.414,23.414,0,0,1-25.338-35.505L98,34.707h10.4v10.4l-3.556-3.556h0A19.252,19.252,0,0,0,126.142,70Zm14.828-5.84,3.825,3.825H134.4v-10.4l3.547,3.547h0a19.25,19.25,0,0,0-21.29-28.449l-1.021-4.03h0A23.421,23.421,0,0,1,140.97,64.158Z" fill="#b6277b"/>
  </g>
</svg>
