<svg xmlns="http://www.w3.org/2000/svg" width="105.174" height="105.287" viewBox="0 0 105.174 105.287">
  <g id="noun-team-work-4795426" transform="translate(-131.175 -55.575)">
    <path id="Path_2415" data-name="Path 2415" d="M135.622,136.363l6.614-6.614a.693.693,0,0,1,.955,0l.621.621h0l15.426,15.426h0l.263.263a.693.693,0,0,1,0,.955l-6.614,6.614a2.609,2.609,0,1,0,3.677,3.7l6.614-6.614a5.849,5.849,0,0,0,1.719-4.179,6.008,6.008,0,0,0-.454-2.268l3.128-3.128a24.589,24.589,0,0,0,8.453-1.218c2.483,2.436,4.37,3.892,6.543,4.418,2.483.6,4.728-.191,7.808-1.266,1.361-.478,3.009-1.051,5.015-1.648l5.11,5.11a5.928,5.928,0,0,0,1.027,6.949l6.614,6.614a2.609,2.609,0,1,0,3.677-3.7l-6.614-6.614a.677.677,0,0,1,0-.955l16.07-16.07h0l.263-.263a.692.692,0,0,1,.955,0l6.614,6.614a2.617,2.617,0,1,0,3.7-3.7l-6.614-6.614a5.849,5.849,0,0,0-4.179-1.719,6.008,6.008,0,0,0-2.268.454l-3.128-3.128a24.59,24.59,0,0,0-1.218-8.453c2.436-2.483,3.892-4.37,4.418-6.543.6-2.483-.191-4.728-1.266-7.808-.478-1.361-1.051-3.009-1.648-5.015l5.11-5.11a5.811,5.811,0,0,0,2.77.692,5.95,5.95,0,0,0,4.179-1.719l6.614-6.614a2.617,2.617,0,0,0-3.7-3.7l-6.543,6.591a.692.692,0,0,1-.955,0l-16.07-16.07h0l-.263-.263a.692.692,0,0,1,0-.955l6.614-6.614a2.617,2.617,0,1,0-3.7-3.7l-6.614,6.614a5.849,5.849,0,0,0-1.719,4.179,6.007,6.007,0,0,0,.454,2.268L199.952,75.3a24.59,24.59,0,0,0-8.453,1.218c-2.483-2.436-4.37-3.892-6.543-4.418-2.483-.6-4.728.191-7.808,1.266-1.361.478-3.009,1.051-5.015,1.648l-5.11-5.11A5.928,5.928,0,0,0,166,62.959l-6.614-6.614a2.617,2.617,0,1,0-3.7,3.7l6.614,6.614a.677.677,0,0,1,0,.955l-.621.621h0L146.248,83.662h0l-.263.263a.692.692,0,0,1-.955,0l-6.614-6.614a2.617,2.617,0,0,0-3.7,3.7l6.614,6.614a5.849,5.849,0,0,0,4.179,1.719,6.008,6.008,0,0,0,2.268-.454L150.9,92.02a25.353,25.353,0,0,0,1.218,8.453,20.559,20.559,0,0,0-3.677,4.609c-1.719,3.3-.764,5.994.525,9.766.478,1.361,1.051,3.009,1.648,5.015l-5.11,5.11a5.811,5.811,0,0,0-2.77-.692A5.95,5.95,0,0,0,138.559,126l-6.614,6.614a2.609,2.609,0,0,0,0,3.7,2.539,2.539,0,0,0,3.677.048Zm59.935-.382c-2.889.788-5.062,1.552-6.829,2.149-2.627.907-3.94,1.337-4.9,1.122a6.822,6.822,0,0,1-2.627-1.7,23.21,23.21,0,0,0,4.609-3.63l16.476-16.476a6.86,6.86,0,0,0,0-9.743,7,7,0,0,0-1.337-1.051l.788-.788,4.036,4.035a19.441,19.441,0,0,1,5.635,15.306,2.56,2.56,0,0,0,.764,2.054l3.653,3.653-11.748,11.748-6.017-6.017a2.515,2.515,0,0,0-2.507-.669Zm5.206-55.4a2.56,2.56,0,0,0,2.054-.764l3.653-3.653,3.582,3.558,8.167,8.167L212.2,93.906a2.611,2.611,0,0,0-.669,2.531c.788,2.889,1.552,5.062,2.149,6.829.907,2.627,1.337,3.94,1.122,4.9a6.823,6.823,0,0,1-1.7,2.627,23.21,23.21,0,0,0-3.63-4.609L203.8,100.5a6.978,6.978,0,0,0-2.006-4.489,6.713,6.713,0,0,0-1.719-1.242A6.908,6.908,0,0,0,190.9,85.6a7.151,7.151,0,0,0-1.242-1.719,5.876,5.876,0,0,0-.6-.525,18.769,18.769,0,0,1,2.674-1.361c.024,0,.048-.024.072-.024a19.912,19.912,0,0,1,8.954-1.385Zm-28.726-.1c2.889-.788,5.062-1.552,6.829-2.149,2.627-.907,3.94-1.337,4.9-1.122a6.823,6.823,0,0,1,2.627,1.7,23.21,23.21,0,0,0-4.609,3.63l-.143.143a7.206,7.206,0,0,0-1.7,1.242l-8.31,8.31a5.5,5.5,0,0,0-2.364-2.173c-2.937-1.385-6.113.549-7.14,1.194a2.608,2.608,0,0,0-.406.31c-.86.788-1.7,1.552-2.46,2.245q-1.54,1.4-2.794,2.579a20.744,20.744,0,0,1-.287-5.158,2.56,2.56,0,0,0-.764-2.054l-3.653-3.653,11.748-11.748,6.017,6.017a2.449,2.449,0,0,0,2.507.692ZM155.37,122.513a2.611,2.611,0,0,0,.669-2.531c-.788-2.889-1.552-5.062-2.149-6.829-1.266-3.63-1.457-4.441-.836-5.611.979-1.886,4.083-4.728,9.695-9.886.716-.645,1.457-1.337,2.268-2.077A4.276,4.276,0,0,1,167,94.79a3.21,3.21,0,0,1,.6,1.433l-7.331,7.355a2.617,2.617,0,0,0,3.7,3.7l8.334-8.334h0l10.483-10.483a2.61,2.61,0,0,0,1.122-.669l.621-.621a.98.98,0,0,1,.263-.024,1.643,1.643,0,0,1,1.194.5,1.686,1.686,0,0,1,0,2.364l-12.7,12.7a2.617,2.617,0,0,0,3.7,3.7l5.946-5.946h0l6.782-6.782h0l2.961-2.961a1.672,1.672,0,0,1,2.364,2.364l-14.948,14.924a2.609,2.609,0,1,0,3.677,3.7l11.963-11.963a1.7,1.7,0,0,1,1.194-.5,1.643,1.643,0,0,1,1.194.5,1.686,1.686,0,0,1,0,2.364l-5.564,5.564h0l-11.008,11.008a2.617,2.617,0,0,0,3.7,3.7l11.008-11.008a1.683,1.683,0,0,1,2.865,1.194,1.643,1.643,0,0,1-.5,1.194L182.138,130.25a19.441,19.441,0,0,1-15.306,5.635,2.56,2.56,0,0,0-2.054.764l-3.653,3.653-11.748-11.748Z" transform="translate(0 0)" fill="#fff"/>
  </g>
</svg>
