<svg xmlns="http://www.w3.org/2000/svg" width="85.733" height="80" viewBox="0 0 85.733 80">
  <g id="noun-reading-book-3383369" transform="translate(-87.5 -35.016)">
    <path id="Path_2384" data-name="Path 2384" d="M171.8,49.887H161.87V43.879a1.437,1.437,0,0,0-1.78-1.388l-9.584,2.449V36.434a1.426,1.426,0,0,0-2.351-1.078L131.11,49.887H88.937a1.436,1.436,0,0,0-1.437,1.42v62.271a1.439,1.439,0,0,0,1.437,1.437H171.8a1.439,1.439,0,0,0,1.437-1.437V51.324a1.449,1.449,0,0,0-1.437-1.437ZM159,45.724V105.04l-21.731,5.617L150,99.8a1.42,1.42,0,0,0,.506-1.094V47.9Zm-11.347-6.188V98.052L131.763,111.6V52.745a1.469,1.469,0,0,0,.8-.343ZM90.357,52.745h38.548v59.414H90.357Zm80,59.414H142.865l17.911-4.637a1.432,1.432,0,0,0,1.078-1.388V52.745h8.506Z" transform="translate(0 0)" fill="#245fab"/>
    <path id="Path_2385" data-name="Path 2385" d="M145.641,316.8H119.208A1.446,1.446,0,0,0,118,318.4c0,.89.536,1.6,1.208,1.6h26.433a1.661,1.661,0,0,0,0-3.2Z" transform="translate(-22.653 -235.97)" fill="#245fab"/>
    <path id="Path_2386" data-name="Path 2386" d="M145.641,360.6H119.208A1.446,1.446,0,0,0,118,362.2c0,.89.536,1.6,1.208,1.6h26.433a1.661,1.661,0,0,0,0-3.2Z" transform="translate(-22.653 -272.647)" fill="#245fab"/>
    <path id="Path_2387" data-name="Path 2387" d="M145.641,404.3H119.208A1.446,1.446,0,0,0,118,405.9c0,.89.536,1.6,1.208,1.6h26.433a1.661,1.661,0,0,0,0-3.2Z" transform="translate(-22.653 -309.243)" fill="#245fab"/>
    <path id="Path_2388" data-name="Path 2388" d="M145.641,448.1H119.208A1.446,1.446,0,0,0,118,449.7c0,.89.536,1.6,1.208,1.6h26.433a1.661,1.661,0,0,0,0-3.2Z" transform="translate(-22.653 -347.05)" fill="#245fab"/>
    <path id="Path_2389" data-name="Path 2389" d="M145.641,273.1H119.208A1.446,1.446,0,0,0,118,274.7c0,.89.536,1.6,1.208,1.6h26.433a1.661,1.661,0,0,0,0-3.2Z" transform="translate(-22.653 -199.374)" fill="#245fab"/>
    <path id="Path_2390" data-name="Path 2390" d="M145.641,229.3H119.208A1.446,1.446,0,0,0,118,230.9c0,.89.536,1.6,1.208,1.6h26.433a1.661,1.661,0,0,0,0-3.2Z" transform="translate(-22.653 -162.695)" fill="#245fab"/>
    <path id="Path_2391" data-name="Path 2391" d="M119.208,188.7h26.433a1.446,1.446,0,0,0,1.208-1.6c0-.89-.535-1.6-1.208-1.6H119.208A1.446,1.446,0,0,0,118,187.1C118,187.97,118.536,188.7,119.208,188.7Z" transform="translate(-22.653 -126.017)" fill="#245fab"/>
  </g>
</svg>
