<svg id="noun-contact-1959427" xmlns="http://www.w3.org/2000/svg" width="56.198" height="61.947" viewBox="0 0 56.198 61.947">
  <path id="Path_2409" data-name="Path 2409" d="M101.442,25.785V18.363c-7.29.42-7.29-10.929,0-10.376V3.507A3.473,3.473,0,0,1,104.949,0h43.728a3.464,3.464,0,0,1,3.5,3.507V58.44a3.473,3.473,0,0,1-3.507,3.507H104.949a3.473,3.473,0,0,1-3.507-3.507V53.96c-7.29.42-7.29-10.929,0-10.376V36.161c-7.29.42-7.29-10.929,0-10.376Zm15.133-5.465c12.334-2.942,6.162-16.261-1.958-12.754-2.8,1.4-3.219,4.2-3.363,6.726a46.329,46.329,0,0,0,19.06,38.827c1.958,1.4,4.48,2.8,7,1.117,7.987-4.624,1.117-17.522-8.551-9.115a35.562,35.562,0,0,1-12.19-24.8Z" transform="translate(-95.975)" fill="#fff" fill-rule="evenodd"/>
</svg>
