<svg xmlns="http://www.w3.org/2000/svg" width="101.699" height="137.053" viewBox="0 0 101.699 137.053">
  <path id="Path_1880" data-name="Path 1880" d="M230.689,149.579v-6.632c0-5.384-9.209-8.152-17.685-9.545v-3.718a33.156,33.156,0,1,0-39.787,0v3.7c-8.473,1.4-17.682,4.161-17.682,9.545v6.632a13.264,13.264,0,1,0,0,26.528h.073a33.206,33.206,0,0,0,33.1,30.962h8.842a33.2,33.2,0,0,0,33.084-30.947h.076a13.262,13.262,0,1,0,0-26.525Zm-7.952-9.08c2.9,1.224,3.532,2.259,3.532,2.447,0,.384-1.547,2.323-8.686,4.107-1.424.357-2.961.675-4.579.959V137.881A46.4,46.4,0,0,1,222.738,140.5Zm-58.365-37.34a28.737,28.737,0,1,1,45.159,23.585l-.947.658v21.273q-2.144.267-4.42.458V111.605l-6-15.991a5.4,5.4,0,0,0-10.113,0l-6,15.991v37.528q-2.276-.191-4.422-.458V127.4l-.945-.658a28.784,28.784,0,0,1-12.318-23.585Zm24.743,2.2h7.991l1.657,4.422h-11.3Zm1.659-4.42,1.419-3.786a.979.979,0,0,1,1.833,0l1.419,3.786Zm-4.3,13.262h4.427v35.357c-1.493-.022-2.971-.069-4.42-.14Zm8.84,0h4.422v35.218c-1.449.069-2.937.115-4.422.14ZM163.481,140.5a46.34,46.34,0,0,1,9.733-2.619v10.135c-1.615-.284-3.152-.6-4.577-.959-7.139-1.784-8.686-3.722-8.686-4.107,0-.191.629-1.224,3.532-2.447ZM146.69,162.844A8.85,8.85,0,0,1,155.532,154v6.921l-3.2-2.129-2.447,3.671,5.649,3.764v5.45a8.852,8.852,0,0,1-8.842-8.842Zm50.842,39.79H188.69A28.769,28.769,0,0,1,159.952,173.9V148.6a32.974,32.974,0,0,0,7.611,2.748A110.208,110.208,0,0,0,193.11,154a110.2,110.2,0,0,0,25.546-2.655,32.734,32.734,0,0,0,7.614-2.751v25.3a28.769,28.769,0,0,1-28.737,28.737Zm33.157-30.947v-5.45l5.646-3.764-2.447-3.671-3.194,2.129V154a8.842,8.842,0,0,1,0,17.685Z" transform="translate(-142.27 -70)" fill="#fff"/>
</svg>
