<svg xmlns="http://www.w3.org/2000/svg" width="27.99" height="28.086" viewBox="0 0 27.99 28.086">
  <path id="Path_369" data-name="Path 369" d="M89.57,569.506v-6.067a.856.856,0,0,1,.064-.433,1.264,1.264,0,0,1,.449-.209l.289-.064v6.773h1.156v-6.9h.738v6.9h1.156v-6.933H108.6a5.228,5.228,0,0,1,2.68.721,5.687,5.687,0,0,1,1.99,1.942,5.153,5.153,0,0,1,.786,2.632q.031.8.032,1.926-.032,2.376-.032,1.957h-8.6a.552.552,0,0,1-.449-.193,7.394,7.394,0,0,0-3.178-1.733,6.929,6.929,0,0,0-3.531.017,7.521,7.521,0,0,0-3.178,1.749.462.462,0,0,1-.321.16H86.3l-.16-.032V570.5q-.033.384-.032-1.477a14.261,14.261,0,0,1,.064-1.477,5.2,5.2,0,0,1,2.151-3.884l.128-.032V569.5H89.57Zm16.37,3.113h8.121v12.614a5.275,5.275,0,0,1-.738,2.728,5.422,5.422,0,0,1-1.99,1.974,5.366,5.366,0,0,1-2.728.722H91.592a5.066,5.066,0,0,1-2.728-.707,5.664,5.664,0,0,1-2.006-1.989,5.186,5.186,0,0,1-.754-2.728V572.65h8.121a7.064,7.064,0,0,0-.9,6.484,7.3,7.3,0,0,0,5.762,4.7,7.245,7.245,0,0,0,3.065-.242,7.014,7.014,0,0,0,2.7-1.509,6.816,6.816,0,0,0,1.8-2.568,7.232,7.232,0,0,0,.546-3.337A7.776,7.776,0,0,0,105.94,572.619Zm-5.842,9.63a5.6,5.6,0,0,1-2.793-.722,5.309,5.309,0,0,1-2.022-1.989,5.529,5.529,0,0,1,0-5.52,5.549,5.549,0,0,1,2.022-2.023,5.39,5.39,0,0,1,2.777-.754,5.308,5.308,0,0,1,2.76.754,5.6,5.6,0,0,1,2.006,2.023,5.471,5.471,0,0,1-4.751,8.232Zm4.044-5.488a4.106,4.106,0,0,0-2.022-3.531,4.08,4.08,0,0,0-4.077,0,4.076,4.076,0,0,0-1.477,1.477,4.079,4.079,0,0,0,0,4.076,4.177,4.177,0,0,0,1.477,1.493,3.869,3.869,0,0,0,2.038.562,3.955,3.955,0,0,0,2.038-.547,4.064,4.064,0,0,0,1.477-1.477A3.985,3.985,0,0,0,104.143,576.76Zm7.383-9.469v-1.477a.888.888,0,0,0-.241-.657.847.847,0,0,0-.626-.241q-1.477-.031-2.985,0a.807.807,0,0,0-.642.256.987.987,0,0,0-.225.674V568.8a.886.886,0,0,0,.241.657.847.847,0,0,0,.626.242h2.953a.833.833,0,0,0,.9-.9Z" transform="translate(-86.103 -562.572)" fill="#fff"/>
</svg>
