<svg xmlns="http://www.w3.org/2000/svg" width="80.7" height="104.479" viewBox="0 0 80.7 104.479">
  <path id="Path_2414" data-name="Path 2414" d="M173.627,33.54a1.8,1.8,0,0,0-.657.191A21.909,21.909,0,0,0,159.7,53.72a22.431,22.431,0,0,0,11.871,19.629V98.172A22.447,22.447,0,0,0,159.7,117.844c0,9.115,5.554,16.471,13.27,19.968a2.512,2.512,0,0,0,3.349-2.162V120.218H188.19V135.65a2.49,2.49,0,0,0,3.349,2.141c7.716-3.5,13.27-10.832,13.27-19.947a22.5,22.5,0,0,0-11.871-19.672V73.349A22.405,22.405,0,0,0,204.809,53.72a21.909,21.909,0,0,0-13.27-19.99,2.517,2.517,0,0,0-3.349,2.183V51.346H176.319V35.914a2.5,2.5,0,0,0-2.692-2.374Zm48.734,0a2.431,2.431,0,0,0-2.077,1.738l-3.561,13.058a2.3,2.3,0,0,0,.191,1.675L220.22,56.6v24.42h-3.794a2.439,2.439,0,0,0-2.141,2.374v52.232A2.456,2.456,0,0,0,216.659,138h21.367a2.456,2.456,0,0,0,2.374-2.374V83.4a2.456,2.456,0,0,0-2.374-2.374h-3.561v-24.4l3.307-6.593a2.538,2.538,0,0,0,.191-1.675L234.38,35.278a2.45,2.45,0,0,0-2.289-1.738h-9.73Zm2.056,4.748h5.851l2.862,10.429-3.158,6.317a2.385,2.385,0,0,0-.254,1.081V81.044h-4.748V56.094a2.385,2.385,0,0,0-.254-1.081L221.555,48.7ZM171.55,40.154V53.741a2.456,2.456,0,0,0,2.374,2.374h16.619a2.456,2.456,0,0,0,2.374-2.374V40.132A16.363,16.363,0,0,1,200.04,53.72a17.7,17.7,0,0,1-10.472,16.174,2.393,2.393,0,0,0-1.4,2.183V99.444a2.381,2.381,0,0,0,1.4,2.141A17.771,17.771,0,0,1,200.04,117.8a16.363,16.363,0,0,1-7.123,13.588V117.8a2.456,2.456,0,0,0-2.374-2.374H173.924a2.456,2.456,0,0,0-2.374,2.374v13.588a16.363,16.363,0,0,1-7.123-13.588A17.759,17.759,0,0,1,174.9,101.585a2.412,2.412,0,0,0,1.4-2.162V72.078a2.443,2.443,0,0,0-1.4-2.183A17.733,17.733,0,0,1,164.427,53.72,16.325,16.325,0,0,1,171.55,40.154Zm47.483,45.618h16.619v47.483H219.033Z" transform="translate(-159.7 -33.524)" fill="#fff"/>
</svg>
