<svg xmlns="http://www.w3.org/2000/svg" width="2036.801" height="1106.285" viewBox="0 0 2036.801 1106.285">
  <g id="qsn-Backgound5.svg" transform="translate(-54.815 143.648)" opacity="0.03">
    <path id="Shape" d="M65.611,141.439c43.487-2.838,77.453-37.669,80.165-78.077S114.146-12.395,75.433-4.894-7.559,29.386-4.732,73.183,22.124,144.277,65.611,141.439Z" transform="matrix(0.777, 0.629, -0.629, 0.777, 193.034, -136)" fill="#707070"/>
    <path id="Shape-2" data-name="Shape" d="M41.21,88.885C68.524,87.1,89.86,65.214,91.565,39.821S71.7-7.787,47.382-3.074-4.748,18.467-2.974,45.99,13.894,90.668,41.21,88.885Z" transform="matrix(0.777, 0.629, -0.629, 0.777, 1113.399, 305.294)" fill="#707070"/>
    <path id="Shape-3" data-name="Shape" d="M69.189,149.237c45.862-2.993,81.684-39.742,84.546-82.378S120.38-13.074,79.552-5.161-7.974,31.005-4.993,77.217,23.327,152.23,69.189,149.237Z" transform="matrix(0.777, 0.629, -0.629, 0.777, 1132.956, -7.927)" fill="#707070"/>
    <path id="Shape-4" data-name="Shape" d="M41.21,88.885C68.524,87.1,89.86,65.214,91.565,39.821S71.7-7.787,47.382-3.074-4.748,18.467-2.974,45.99,13.894,90.668,41.21,88.885Z" transform="matrix(0.777, 0.629, -0.629, 0.777, 445.764, 442.083)" fill="#707070"/>
    <path id="Shape-5" data-name="Shape" d="M46.05,99.326c30.523-1.992,54.365-26.451,56.27-54.827S80.121-8.7,52.948-3.435-5.306,20.636-3.323,51.393,15.526,101.318,46.05,99.326Z" transform="matrix(0.777, 0.629, -0.629, 0.777, 1540.992, 412.069)" fill="#707070"/>
    <path id="Shape-6" data-name="Shape" d="M41.21,88.885C68.524,87.1,89.86,65.214,91.565,39.821S71.7-7.787,47.382-3.074-4.748,18.467-2.974,45.99,13.894,90.668,41.21,88.885Z" transform="matrix(0.777, 0.629, -0.629, 0.777, 902.326, -18.499)" fill="#707070"/>
    <path id="Shape-7" data-name="Shape" d="M18.731,40.4a24.523,24.523,0,0,0,15.7-7.021A23.251,23.251,0,0,0,41.62,18.1C42.394,6.558,32.59-3.54,21.536-1.4S-2.159,8.394-1.352,20.9,6.315,41.212,18.731,40.4Z" transform="matrix(0.777, 0.629, -0.629, 0.777, 532.65, 498.166)" fill="#707070"/>
    <path id="Shape-8" data-name="Shape" d="M86.814,171.546c37.309-2.435,63.589-58.462,71.781-102.761S130.168-13.077,81.758-5.441s-84.569,41-87.52,84.952S49.5,173.981,86.814,171.546Z" transform="matrix(0.777, 0.629, -0.629, 0.777, 351.903, 42.523)" fill="#707070"/>
    <path id="Shape-9" data-name="Shape" d="M95.628,196.053c60.291-.53,107.069-47.082,116.389-108.574S170.332-19.222,109.242-6.792,1.279,43.335-7.146,101.781,35.337,196.583,95.628,196.053Z" transform="matrix(0.777, 0.629, -0.629, 0.777, 184.464, 262.136)" fill="#707070"/>
    <path id="Shape-10" data-name="Shape" d="M80.39,174.185c51.036-.311,90.759-41.481,98.815-96s-35-94.758-86.74-83.894S.94,38.47-6.35,90.292,29.354,174.5,80.39,174.185Z" transform="matrix(0.777, 0.629, -0.629, 0.777, 1922.227, -7.927)" fill="#707070"/>
    <path id="Shape-11" data-name="Shape" d="M82.02,177.718c52.071-.317,92.6-42.323,100.819-97.949s-35.706-96.68-88.5-85.6S.959,39.25-6.479,92.123,29.949,178.036,82.02,177.718Z" transform="matrix(0.777, 0.629, -0.629, 0.777, 331.367, 542.228)" fill="#707070"/>
    <path id="Shape-12" data-name="Shape" d="M82.02,177.718c52.071-.317,92.6-42.323,100.819-97.949s-35.706-96.68-88.5-85.6S.959,39.25-6.479,92.123,29.949,178.036,82.02,177.718Z" transform="matrix(0.777, 0.629, -0.629, 0.777, 1481.598, 524.14)" fill="#707070"/>
    <path id="Shape-13" data-name="Shape" d="M20.494,44.405c13.01-.079,23.138-10.575,25.19-24.473S36.763-4.225,23.572-1.456.24,9.808-1.619,23.018,7.484,44.484,20.494,44.405Z" transform="matrix(0.777, 0.629, -0.629, 0.777, 1702.54, 690.284)" fill="#707070"/>
    <path id="Shape-14" data-name="Shape" d="M10.251,22.205c6.505-.039,11.568-5.287,12.6-12.237S18.381-2.11,11.79-.729.12,4.906-.81,11.512,3.741,22.245,10.251,22.205Z" transform="matrix(0.777, 0.629, -0.629, 0.777, 538.71, 930.924)" fill="#707070"/>
    <path id="Shape-15" data-name="Shape" d="M62.413,135.231c39.623-.242,70.463-32.2,76.717-74.533S111.959-12.869,71.787-4.433.73,29.867-4.93,70.1,22.79,135.473,62.413,135.231Z" transform="matrix(0.777, 0.629, -0.629, 0.777, 600.22, 594.59)" fill="#707070"/>
    <path id="Shape-16" data-name="Shape" d="M20.494,44.405c13.01-.079,23.138-10.575,25.19-24.473S36.763-4.225,23.572-1.456.24,9.808-1.619,23.018,7.484,44.484,20.494,44.405Z" transform="matrix(0.777, 0.629, -0.629, 0.777, 800.109, 553.646)" fill="#707070"/>
    <path id="Shape-17" data-name="Shape" d="M25.12,50c12.412,1.521,20.825-8.386,21.123-22.905S34.836.317,22.574,1.634,1.645,10.728,1.45,24.539,12.708,48.478,25.12,50Z" transform="matrix(-0.454, 0.891, -0.891, -0.454, 872.813, 730.431)" fill="#707070"/>
    <path id="Shape-18" data-name="Shape" d="M40.022,86.716c25.408-.155,45.184-20.651,49.194-47.794S71.793-8.252,46.033-2.843.468,19.152-3.161,44.95,14.614,86.871,40.022,86.716Z" transform="matrix(0.777, 0.629, -0.629, 0.777, 496.734, -15.592)" fill="#707070"/>
    <path id="Shape-19" data-name="Shape" d="M118.486,8.51c64.623,4.821,110.54,58.126,125.778,121.932S254.849,267.086,259.5,327.07s-39.478,109.6-108.24,104.473S23.229,369.2,25.478,309.611,8.367,177.342,10.246,112.982,53.864,3.688,118.486,8.51Z" transform="matrix(0.616, -0.788, 0.788, 0.616, 1591.3, 516.528)" fill="#707070"/>
    <path id="Shape-20" data-name="Shape" d="M101.78-4.638c55.646-2.209,90.032,46.723,96.679,109.654s-4.921,137.19-7.081,197.414-45.622,115.3-104.832,117.654S-18.242,371.01-10.132,310.43s-1.2-132.044,7.081-197.414S46.135-2.429,101.78-4.638Z" transform="matrix(0.309, 0.951, -0.951, 0.309, 1294.486, 442.083)" fill="#707070"/>
    <path id="Shape-21" data-name="Shape" d="M84.3,182.664c53.521-.326,95.179-43.5,103.625-100.675s-36.7-99.371-90.963-87.978S.986,40.342-6.66,94.686,30.783,182.99,84.3,182.664Z" transform="matrix(0.777, 0.629, -0.629, 0.777, 1307.517, 136.658)" fill="#707070"/>
    <path id="Shape-22" data-name="Shape" d="M84.3,182.664c53.521-.326,95.179-43.5,103.625-100.675s-36.7-99.371-90.963-87.978S.986,40.342-6.66,94.686,30.783,182.99,84.3,182.664Z" transform="matrix(0.777, 0.629, -0.629, 0.777, 1436.289, -115.342)" fill="#707070"/>
    <path id="Shape-23" data-name="Shape" d="M30.928,66.328C49.942,61.786,67.377,48.609,68.653,29.6S55.1-3.78,35.547-2.5,2.065,16.987-2.178,34.225,11.913,70.871,30.928,66.328Z" transform="matrix(0.777, 0.629, -0.629, 0.777, 1490.768, 320.562)" fill="#707070"/>
    <path id="Shape-24" data-name="Shape" d="M18.744,40.2C30.268,37.445,40.834,29.46,41.607,17.944S33.4-2.293,21.544-1.515,1.251,10.295-1.32,20.745,7.22,42.952,18.744,40.2Z" transform="matrix(0.777, 0.629, -0.629, 0.777, 1174.071, 175.748)" fill="#707070"/>
    <path id="Shape-25" data-name="Shape" d="M113.2,338.374c55.178,1.754,98.5-36.854,96.751-86.234s-10.24-107.653-5.484-155.3S156.35.021,101.4,4.248,2.7,35.415,4.649,90.482l5.484,155.3C12.044,299.9,58.022,336.62,113.2,338.374Z" transform="translate(859.329 213.678) rotate(164)" fill="#707070"/>
  </g>
</svg>
