<svg xmlns="http://www.w3.org/2000/svg" width="2075.068" height="1134.208" viewBox="0 0 2075.068 1134.208">
  <g id="qsn-Backgound2" transform="translate(0)" opacity="0.03">
    <path id="Shape" d="M80.592,159.94c45.98.241,79.382-35.287,79.151-79.329S120.309-4.784,79.759.449-5.767,31.6.608,79.778,34.613,159.7,80.592,159.94Z" transform="matrix(-0.777, -0.629, 0.629, -0.777, 1938.171, 1134.208)" fill="#707070"/>
    <path id="Shape-2" data-name="Shape" d="M50.623,100.51c28.88.151,49.861-22.176,49.717-49.852S75.57-3.007,50.1.282-3.622,19.857.382,50.134,21.742,100.359,50.623,100.51Z" transform="matrix(-0.777, -0.629, 0.629, -0.777, 961.669, 759.438)" fill="#707070"/>
    <path id="Shape-3" data-name="Shape" d="M84.994,168.755c48.491.254,83.717-37.231,83.474-83.7S126.88-5.048,84.114.474-6.083,33.34.641,84.175,36.5,168.5,84.994,168.755Z" transform="matrix(-0.777, -0.629, 0.629, -0.777, 942.112, 1121.972)" fill="#707070"/>
    <path id="Shape-4" data-name="Shape" d="M50.623,100.51c28.88.151,49.861-22.176,49.717-49.852S75.57-3.007,50.1.282-3.622,19.857.382,50.134,21.742,100.359,50.623,100.51Z" transform="matrix(-0.777, -0.629, 0.629, -0.777, 1629.305, 601.113)" fill="#707070"/>
    <path id="Shape-5" data-name="Shape" d="M56.57,112.316c32.273.169,55.718-24.78,55.557-55.708S84.446-3.36,55.984.315-4.048,22.189.426,56.023,24.3,112.147,56.57,112.316Z" transform="matrix(-0.777, -0.629, 0.629, -0.777, 534.076, 635.852)" fill="#707070"/>
    <path id="Shape-6" data-name="Shape" d="M50.623,100.51c28.88.151,49.861-22.176,49.717-49.852S75.57-3.007,50.1.282-3.622,19.857.382,50.134,21.742,100.359,50.623,100.51Z" transform="matrix(-0.777, -0.629, 0.629, -0.777, 1172.742, 1134.208)" fill="#707070"/>
    <path id="Shape-7" data-name="Shape" d="M23.009,45.686a22.107,22.107,0,0,0,22.6-22.66C45.543,10.446,34.349-1.367,22.771.128s-24.418,8.9-22.6,22.66S9.882,45.617,23.009,45.686Z" transform="matrix(-0.777, -0.629, 0.629, -0.777, 1542.418, 536.201)" fill="#707070"/>
    <path id="Shape-8" data-name="Shape" d="M105.435,194.542c39.447.207,63.053-59.124,68.344-107S137.277-4.3,86.437.337-.249,38.718,0,86.628,65.987,194.336,105.435,194.542Z" transform="matrix(-0.777, -0.629, 0.629, -0.777, 1723.166, 1063.579)" fill="#707070"/>
    <path id="Shape-9" data-name="Shape" d="M116.686,222.058c64.009,4.062,110.12-43.314,115.286-109.935S179.472-7.934,115.531.973,4.7,47.554.245,110.909,52.677,218,116.686,222.058Z" transform="matrix(-0.777, -0.629, 0.629, -0.777, 1935.171, 766.803)" fill="#707070"/>
    <path id="Shape-10" data-name="Shape" d="M98.814,196.938c54.194,3.589,93.224-38.437,97.584-97.522S151.924-7.047,97.79.866,3.961,42.2.206,98.388,44.62,193.349,98.814,196.938Z" transform="matrix(-0.777, -0.629, 0.629, -0.777, 152.841, 1121.972)" fill="#707070"/>
    <path id="Shape-11" data-name="Shape" d="M100.818,200.932c55.293,3.662,95.115-39.217,99.563-99.5S155-7.19,99.773.884,4.041,43.056.21,100.384,45.525,197.271,100.818,200.932Z" transform="matrix(-0.777, -0.629, 0.629, -0.777, 1743.702, 485.201)" fill="#707070"/>
    <path id="Shape-12" data-name="Shape" d="M100.818,200.932c55.293,3.662,95.115-39.217,99.563-99.5S155-7.19,99.773.884,4.041,43.056.21,100.384,45.525,197.271,100.818,200.932Z" transform="matrix(-0.777, -0.629, 0.629, -0.777, 593.47, 506.137)" fill="#707070"/>
    <path id="Shape-13" data-name="Shape" d="M25.191,50.205c13.815.915,23.766-9.8,24.876-24.861S38.73-1.8,24.93.221,1.01,10.759.053,25.082,11.376,49.29,25.191,50.205Z" transform="matrix(-0.777, -0.629, 0.629, -0.777, 372.528, 313.836)" fill="#707070"/>
    <path id="Shape-14" data-name="Shape" d="M12.6,25.106c6.908.458,11.883-4.9,12.438-12.43S19.364-.9,12.469.11.505,5.382.026,12.545,5.687,24.648,12.6,25.106Z" transform="matrix(-0.777, -0.629, 0.629, -0.777, 1536.359, 35.311)" fill="#707070"/>
    <path id="Shape-15" data-name="Shape" d="M76.717,152.9c42.075,2.786,72.377-29.841,75.762-75.713S117.949-5.472,75.922.673,3.076,32.763.16,76.385,34.642,150.109,76.717,152.9Z" transform="matrix(-0.777, -0.629, 0.629, -0.777, 1474.848, 424.596)" fill="#707070"/>
    <path id="Shape-16" data-name="Shape" d="M25.191,50.205c13.815.915,23.766-9.8,24.876-24.861S38.73-1.8,24.93.221,1.01,10.759.053,25.082,11.376,49.29,25.191,50.205Z" transform="matrix(-0.777, -0.629, 0.629, -0.777, 1274.959, 471.986)" fill="#707070"/>
    <path id="Shape-17" data-name="Shape" d="M25.075,50.022c13.866.78,23.962-9.984,25.221-24.994S39.17-1.891,25.291.25,1.168,10.972.069,25.243,11.209,49.242,25.075,50.022Z" transform="matrix(0.454, -0.891, 0.891, 0.454, 1202.255, 267.369)" fill="#707070"/>
    <path id="Shape-18" data-name="Shape" d="M49.194,98.043c26.98,1.787,46.411-19.135,48.582-48.55S75.634-3.509,48.684.431,1.972,21.009.1,48.981,22.214,96.256,49.194,98.043Z" transform="matrix(-0.777, -0.629, 0.629, -0.777, 1578.334, 1130.844)" fill="#707070"/>
    <path id="Shape-19" data-name="Shape" d="M120.5,0c65.9.345,109.031,53.564,119.938,120.2s.754,144.341,1.085,207.7S192.949,447.231,122.833,446.864-3.814,390.113,2.895,326.661s-7.768-139.213-1.085-207.7S54.6-.343,120.5,0Z" transform="translate(333.564 697.651) rotate(171)" fill="#707070"/>
    <path id="Shape-20" data-name="Shape" d="M116.059,0c63.468.332,105.015,51.591,115.52,115.776s.726,139.025,1.045,200.054S185.842,430.758,118.308,430.4-3.673,375.743,2.788,314.629-4.693,180.543,1.743,114.574,52.592-.331,116.059,0Z" transform="matrix(-0.309, -0.951, 0.951, -0.309, 780.582, 601.113)" fill="#707070"/>
    <path id="Shape-21" data-name="Shape" d="M103.625,206.524c56.833,3.764,97.764-40.308,102.335-102.269S159.32-7.39,102.551.908,4.154,44.254.216,103.177,46.792,202.76,103.625,206.524Z" transform="matrix(-0.777, -0.629, 0.629, -0.777, 767.551, 954.624)" fill="#707070"/>
    <path id="Shape-22" data-name="Shape" d="M37.963,75.016c19.851-3.509,37.358-16.6,37.249-37.312A37.954,37.954,0,0,0,37.571,0C16.891-.108,3.5,18.761.322,37.311S18.113,78.528,37.963,75.016Z" transform="matrix(-0.777, -0.629, 0.629, -0.777, 584.3, 741.766)" fill="#707070"/>
    <path id="Shape-23" data-name="Shape" d="M23.008,45.469c12.03-2.133,22.641-10.064,22.575-22.616A23,23,0,0,0,22.77,0C10.242-.065,2.122,11.37.195,22.616S10.977,47.593,23.008,45.469Z" transform="matrix(-0.777, -0.629, 0.629, -0.777, 900.998, 909.38)" fill="#707070"/>
    <path id="Shape-24" data-name="Shape" d="M111.462,424.9c61.885-.324,112.319-51.408,112.647-114.1s-6.516-136.374,1.03-197.169S175.584-7.211,113.679.705,1.4,44.895,1.032,114.805L0,311.974C-.357,380.67,49.577,425.224,111.462,424.9Z" transform="translate(1098.816 930.661) rotate(-73)" fill="#707070"/>
  </g>
</svg>
