<svg xmlns="http://www.w3.org/2000/svg" width="106.486" height="66.656" viewBox="0 0 106.486 66.656">
  <path id="Quotes" d="M60.156,286.142a21.44,21.44,0,0,0,20.235,18.1c-2.485,9.23-8.52,12.9-15.856,15.028a.858.858,0,0,0-.592.947l1.183,7.336s.118.592,1.065.473c25.323-2.84,42.481-22.128,39.286-45.557-2.958-16.211-15.619-22.483-27.334-20.826a21.577,21.577,0,0,0-17.986,24.494Zm80.82,18.1c-2.367,9.23-8.638,12.9-15.856,15.028a.858.858,0,0,0-.592.947l1.065,7.336s.118.592,1.065.473c25.441-2.84,42.362-22.128,39.4-45.557-3.077-16.211-15.856-22.483-27.453-20.826a21.405,21.405,0,0,0-17.868,24.494,21.118,21.118,0,0,0,20.235,18.1Z" transform="translate(-59.911 -261.39)" fill="#fff"/>
</svg>
