<svg xmlns="http://www.w3.org/2000/svg" xmlns:xlink="http://www.w3.org/1999/xlink" width="422.452" height="345.659" viewBox="0 0 422.452 345.659">
  <defs>
    <linearGradient id="linear-gradient" y1="0.5" x2="1" y2="0.5" gradientUnits="objectBoundingBox">
      <stop offset="0" stop-color="#1b89ca"/>
      <stop offset="1" stop-color="#2e3792"/>
    </linearGradient>
    <linearGradient id="linear-gradient-2" y1="0.5" x2="1" y2="0.5" gradientUnits="objectBoundingBox">
      <stop offset="0" stop-color="#ce2e82"/>
      <stop offset="1" stop-color="#601f5f"/>
    </linearGradient>
    <linearGradient id="linear-gradient-3" x1="0" y1="0.5" x2="1" y2="0.5" xlink:href="#linear-gradient-2"/>
    <linearGradient id="linear-gradient-4" y1="0.5" x2="1" y2="0.5" xlink:href="#linear-gradient"/>
    <linearGradient id="linear-gradient-6" x1="0" y1="0.5" x2="1" y2="0.5" xlink:href="#linear-gradient-2"/>
    <linearGradient id="linear-gradient-8" x1="0" y1="0.5" x2="1" y2="0.5" xlink:href="#linear-gradient-2"/>
    <linearGradient id="linear-gradient-14" y1="0.5" x2="1.001" y2="0.5" xlink:href="#linear-gradient"/>
    <linearGradient id="linear-gradient-21" x1="0.419" y1="0.5" x2="0.581" y2="0.5" xlink:href="#linear-gradient-2"/>
    <linearGradient id="linear-gradient-22" x1="0.397" y1="0.5" x2="0.603" y2="0.5" xlink:href="#linear-gradient-2"/>
    <linearGradient id="linear-gradient-23" x1="0.366" y1="0.5" x2="0.635" y2="0.5" xlink:href="#linear-gradient-2"/>
    <linearGradient id="linear-gradient-26" y1="0.5" x2="0.999" y2="0.5" xlink:href="#linear-gradient"/>
    <linearGradient id="linear-gradient-27" y1="0.5" x2="1.001" y2="0.5" xlink:href="#linear-gradient"/>
    <linearGradient id="linear-gradient-28" y1="0.5" x2="1" y2="0.5" xlink:href="#linear-gradient"/>
    <linearGradient id="linear-gradient-30" x1="0" y1="0.499" x2="1" y2="0.499" xlink:href="#linear-gradient-2"/>
    <linearGradient id="linear-gradient-32" x1="0" y1="0.501" x2="1" y2="0.501" xlink:href="#linear-gradient-2"/>
    <linearGradient id="linear-gradient-33" x1="0" y1="0.499" x2="1.001" y2="0.499" xlink:href="#linear-gradient-2"/>
    <linearGradient id="linear-gradient-34" x1="0.008" y1="0.498" x2="1" y2="0.498" xlink:href="#linear-gradient-2"/>
    <linearGradient id="linear-gradient-35" y1="0.501" x2="1" y2="0.501" xlink:href="#linear-gradient"/>
    <linearGradient id="linear-gradient-36" y1="0.5" x2="1" y2="0.5" xlink:href="#linear-gradient"/>
  </defs>
  <g id="Transformation_digitale" data-name="Transformation digitale" transform="translate(0.007 0.005)">
    <g id="PLANTS" transform="translate(122.491 282.078)">
      <path id="Path_2312" data-name="Path 2312" d="M200.5,508.2s1.635-39.6,37.741-51.276,38.65,24.442,16.14,30.347A256.412,256.412,0,0,0,200.5,508.2Z" transform="translate(-177.553 -445.687)" fill="url(#linear-gradient)"/>
      <path id="Path_2313" data-name="Path 2313" d="M200.5,511.958s14.979-28.177,52-41.437" transform="translate(-177.553 -449.442)" fill="none" stroke="#fff" stroke-linecap="round" stroke-linejoin="round" stroke-width="1.57"/>
      <path id="Path_2314" data-name="Path 2314" d="M187.034,505.44s-23.808-19.325-14.36-47.12,33.043-12.657,26.291,4.033A197.679,197.679,0,0,0,187.034,505.44Z" transform="translate(-170.457 -442.925)" fill="url(#linear-gradient-2)"/>
      <path id="Path_2315" data-name="Path 2315" d="M190.544,508.873s-10.556-22.319-1.665-51.413" transform="translate(-173.967 -446.358)" fill="none" stroke="#fff" stroke-linecap="round" stroke-linejoin="round" stroke-width="1.57"/>
    </g>
    <g id="DASHBOARD_2" data-name="DASHBOARD 2" transform="translate(78.321 0.78)">
      <rect id="Rectangle_87" data-name="Rectangle 87" width="343.339" height="239.703" rx="12.19" fill="#fff" stroke="#262424" stroke-linecap="round" stroke-linejoin="round" stroke-width="1.57"/>
      <line id="Line_70" data-name="Line 70" y2="218.095" transform="translate(143.232 10.808)" fill="none" stroke="#262424" stroke-linecap="round" stroke-linejoin="round" stroke-width="1.57"/>
      <line id="Line_71" data-name="Line 71" x1="305.156" transform="translate(22.663 55.904)" fill="none" stroke="#262424" stroke-linecap="round" stroke-linejoin="round" stroke-width="1.57"/>
      <rect id="Rectangle_88" data-name="Rectangle 88" width="105.056" height="27.788" rx="7.05" transform="translate(22.663 78.338)" fill="none" stroke="#262424" stroke-linecap="round" stroke-linejoin="round" stroke-width="1.57"/>
      <rect id="Rectangle_89" data-name="Rectangle 89" width="69.195" height="27.788" rx="5.72" transform="translate(58.524 19.523)" fill="url(#linear-gradient-3)"/>
      <rect id="Rectangle_90" data-name="Rectangle 90" width="69.195" height="27.788" rx="5.72" transform="translate(160.525 19.523)" fill="url(#linear-gradient-4)"/>
      <rect id="Rectangle_91" data-name="Rectangle 91" width="109.487" height="66.437" rx="5.72" transform="translate(160.525 64.505)" fill="#fff" stroke="#262424" stroke-linecap="round" stroke-linejoin="round" stroke-width="1.57"/>
      <rect id="Rectangle_92" data-name="Rectangle 92" width="109.487" height="83.662" rx="5.72" transform="translate(160.525 140.017)" fill="#fff" stroke="#262424" stroke-linecap="round" stroke-linejoin="round" stroke-width="1.57"/>
      <rect id="Rectangle_93" data-name="Rectangle 93" width="48.732" height="39.612" rx="5.72" transform="translate(279.086 184.066)" fill="url(#linear-gradient-4)"/>
      <rect id="Rectangle_94" data-name="Rectangle 94" width="39.749" height="9.51" rx="4.13" transform="translate(288.076 19.523)" fill="url(#linear-gradient-6)"/>
      <rect id="Rectangle_95" data-name="Rectangle 95" width="39.749" height="9.51" rx="4.13" transform="translate(288.076 37.802)" fill="url(#linear-gradient-6)"/>
      <rect id="Rectangle_96" data-name="Rectangle 96" width="23.373" height="27.788" rx="3.32" transform="translate(22.663 19.523)" fill="url(#linear-gradient-8)"/>
      <rect id="Rectangle_97" data-name="Rectangle 97" width="105.056" height="27.788" rx="7.05" transform="translate(22.663 121.83)" fill="none" stroke="#262424" stroke-linecap="round" stroke-linejoin="round" stroke-width="1.57"/>
      <rect id="Rectangle_98" data-name="Rectangle 98" width="105.056" height="27.788" rx="7.05" transform="translate(22.663 165.33)" fill="none" stroke="#262424" stroke-linecap="round" stroke-linejoin="round" stroke-width="1.57"/>
      <path id="Path_2316" data-name="Path 2316" d="M359.212,171.31A23.892,23.892,0,1,0,383.1,195.2,23.892,23.892,0,0,0,359.212,171.31Zm0,34.976A11.083,11.083,0,1,1,370.3,195.2,11.083,11.083,0,0,1,359.212,206.286Z" transform="translate(-165.224 -97.479)" fill="url(#linear-gradient-4)"/>
      <path id="Path_2317" data-name="Path 2317" d="M390.492,195.2H377.683A11.083,11.083,0,0,0,366.6,184.119V171.31A23.9,23.9,0,0,1,390.492,195.2Z" transform="translate(-172.611 -97.479)" fill="url(#linear-gradient-8)"/>
      <rect id="Rectangle_99" data-name="Rectangle 99" width="30.859" height="9.533" rx="3.77" transform="translate(229.583 94.164)" fill="url(#linear-gradient-4)"/>
      <rect id="Rectangle_100" data-name="Rectangle 100" width="18.698" height="9.533" rx="3.77" transform="translate(229.583 76.245)" fill="url(#linear-gradient-8)"/>
      <rect id="Rectangle_101" data-name="Rectangle 101" width="30.859" height="9.533" rx="3.77" transform="translate(229.583 112.084)" fill="url(#linear-gradient-4)"/>
      <rect id="Rectangle_102" data-name="Rectangle 102" width="48.732" height="107.592" rx="5.72" transform="translate(279.086 64.505)" fill="#fff" stroke="#262424" stroke-linecap="round" stroke-linejoin="round" stroke-width="1.57"/>
      <line id="Line_72" data-name="Line 72" x2="19.966" transform="translate(302.681 81.011)" fill="none" stroke="#262424" stroke-linecap="round" stroke-linejoin="round" stroke-width="1.57"/>
      <line id="Line_73" data-name="Line 73" x2="19.966" transform="translate(302.681 105.752)" fill="none" stroke="#262424" stroke-linecap="round" stroke-linejoin="round" stroke-width="1.57"/>
      <line id="Line_74" data-name="Line 74" x2="19.966" transform="translate(302.681 130.499)" fill="none" stroke="#262424" stroke-linecap="round" stroke-linejoin="round" stroke-width="1.57"/>
      <line id="Line_75" data-name="Line 75" x2="19.966" transform="translate(302.681 155.24)" fill="none" stroke="#262424" stroke-linecap="round" stroke-linejoin="round" stroke-width="1.57"/>
      <rect id="Rectangle_103" data-name="Rectangle 103" width="11.159" height="9.533" rx="3.77" transform="translate(285.892 76.245)" fill="url(#linear-gradient-14)"/>
      <rect id="Rectangle_104" data-name="Rectangle 104" width="11.159" height="9.533" rx="3.77" transform="translate(285.892 100.985)" fill="url(#linear-gradient-14)"/>
      <rect id="Rectangle_105" data-name="Rectangle 105" width="11.159" height="9.533" rx="3.77" transform="translate(285.892 125.733)" fill="url(#linear-gradient-14)"/>
      <rect id="Rectangle_106" data-name="Rectangle 106" width="11.159" height="9.533" rx="3.77" transform="translate(285.892 150.473)" fill="url(#linear-gradient-14)"/>
      <rect id="Rectangle_107" data-name="Rectangle 107" width="11.159" height="9.533" rx="3.77" transform="translate(170.096 152.337)" fill="url(#linear-gradient-4)"/>
      <rect id="Rectangle_108" data-name="Rectangle 108" width="11.159" height="9.533" rx="3.77" transform="translate(170.096 177.077)" fill="url(#linear-gradient-4)"/>
      <rect id="Rectangle_109" data-name="Rectangle 109" width="11.159" height="9.533" rx="3.77" transform="translate(170.096 201.825)" fill="url(#linear-gradient-4)"/>
      <path id="Path_2318" data-name="Path 2318" d="M347.21,192.05V263.2h72.059" transform="translate(-160.325 -45.953)" fill="none" stroke="#262424" stroke-linecap="round" stroke-linejoin="round" stroke-width="1.57"/>
      <rect id="Rectangle_110" data-name="Rectangle 110" width="59.021" height="9.533" rx="3.77" transform="translate(195.539 211.358) rotate(-90)" fill="url(#linear-gradient-21)"/>
      <rect id="Rectangle_111" data-name="Rectangle 111" width="46.204" height="9.533" rx="3.77" transform="translate(213.115 211.358) rotate(-90)" fill="url(#linear-gradient-22)"/>
      <rect id="Rectangle_112" data-name="Rectangle 112" width="35.419" height="9.533" rx="3.77" transform="translate(230.69 211.358) rotate(-90)" fill="url(#linear-gradient-23)"/>
      <rect id="Rectangle_113" data-name="Rectangle 113" width="28.254" height="9.533" rx="3.77" transform="translate(230.69 152.337)" fill="url(#linear-gradient-4)"/>
    </g>
    <g id="DASHBOARD_1" data-name="DASHBOARD 1" transform="translate(92.146 70.28)">
      <rect id="Rectangle_114" data-name="Rectangle 114" width="105.056" height="27.788" rx="7.05" fill="url(#linear-gradient-4)"/>
    </g>
    <g id="Man" transform="translate(-0.007 62.371)">
      <path id="Path_2319" data-name="Path 2319" d="M96.25,388.883,95.67,404.3l-6.8.565L87.94,388.18Z" transform="translate(-20.764 -153.865)" fill="#fff"/>
      <path id="Path_2320" data-name="Path 2320" d="M98.758,479.188a.6.6,0,0,1-.412-.16.649.649,0,0,1-.214-.458L97.2,461.887a.7.7,0,0,1,.191-.5.626.626,0,0,1,.489-.183l8.31.7a.649.649,0,0,1,.58.672l-.558,15.414a.642.642,0,0,1-.581.626l-6.8.573Zm-.26-16.613.84,15.276,5.6-.466.535-14.215Z" transform="translate(-30.658 -227.534)" fill="#262424"/>
      <path id="Path_2321" data-name="Path 2321" d="M80.13,331.3c.535,4.14,9.54,93.653,9.54,93.653l16.14.115,3.055-44.1.833-12.221,4.132-60.289c1.6-20.348-30.668-20.455-33.486-1.81C79.137,314.5,79.6,327.155,80.13,331.3Z" transform="translate(-26.497 -187.791)" fill="url(#linear-gradient-26)"/>
      <path id="Path_2322" data-name="Path 2322" d="M93.863,424.5a.634.634,0,0,1-.626-.588L83.719,315.92a.649.649,0,0,1,.573-.71.634.634,0,0,1,.68.588l9.494,107.99a.649.649,0,0,1-.573.71Z" transform="translate(-27.473 -193.055)" fill="#262424"/>
      <path id="Path_2323" data-name="Path 2323" d="M85.919,329.321a.657.657,0,0,1,0-1.306,1.276,1.276,0,0,0,1-.5c2.039-2.36,1.6-11.32,1.245-14.574a.649.649,0,0,1,.558-.718.634.634,0,0,1,.7.581c.137,1.253,1.222,12.359-1.528,15.582A2.49,2.49,0,0,1,85.919,329.321Z" transform="translate(-27.855 -192.348)" fill="#262424"/>
      <path id="Path_2324" data-name="Path 2324" d="M102.479,396.377c-.084,5.217,2.948,9.494,6.775,9.563a6.172,6.172,0,0,0,4.988-2.75l.833-12.221c-1.222-2.36-3.231-3.911-5.515-3.949C105.733,387,102.563,391.16,102.479,396.377Z" transform="translate(-31.904 -210.015)" fill="#fff"/>
      <path id="Path_2325" data-name="Path 2325" d="M94.059,461.827a.649.649,0,1,1,0-1.3l13.3-.069h0a.657.657,0,0,1,0,1.306Z" transform="translate(-29.763 -227.36)" fill="#262424"/>
      <path id="Path_2326" data-name="Path 2326" d="M128.8,508.406v3.284H96.2s-.107-1.719-.206-4.583c-.2-5.675-.4-15.872.206-26.413l11.9-1.085a137.051,137.051,0,0,0,14.047,19.623c.825.939,3.009,2.475,3.926,3.338A8.119,8.119,0,0,1,128.8,508.406Z" transform="translate(-30.325 -231.883)" fill="url(#linear-gradient-27)"/>
      <path id="Path_2327" data-name="Path 2327" d="M113.719,500.15a.626.626,0,0,1-.519-.283,87.131,87.131,0,0,1-9.021-18.232.665.665,0,0,1,.39-.833.626.626,0,0,1,.764.4,85.778,85.778,0,0,0,8.86,17.919.672.672,0,0,1-.153.909.643.643,0,0,1-.321.115Z" transform="translate(-32.298 -232.159)" fill="#262424"/>
      <ellipse id="Ellipse_201" data-name="Ellipse 201" cx="2.139" cy="5.018" rx="2.139" ry="5.018" transform="translate(67.451 257.657)" fill="#fff"/>
      <path id="Path_2328" data-name="Path 2328" d="M100.309,503.163c-1.627,0-2.849-2.475-2.849-5.752s1.222-5.752,2.849-5.752,2.841,2.467,2.841,5.752S101.928,503.163,100.309,503.163Zm0-10.044c-.489,0-1.444,1.528-1.444,4.293s.955,4.293,1.444,4.293,1.436-1.528,1.436-4.293S100.79,493.119,100.309,493.119Z" transform="translate(-30.719 -234.728)" fill="#262424"/>
      <path id="Path_2329" data-name="Path 2329" d="M128.856,514.454v3.284h-32.6s-.107-1.719-.206-4.583h14.94s-.84-8.769,11.213-7.875c.825.939,3.009,2.475,3.926,3.338A8.119,8.119,0,0,1,128.856,514.454Z" transform="translate(-30.386 -237.93)" fill="#fff"/>
      <path id="Path_2330" data-name="Path 2330" d="M128.662,518.191h-32.6a.642.642,0,0,1-.626-.611s-.107-1.757-.206-4.583a.665.665,0,0,1,.176-.481.634.634,0,0,1,.451-.2h14.306a7.913,7.913,0,0,1,2.062-5.1c2.039-2.169,5.347-3.094,9.83-2.765a.657.657,0,0,1,.42.214,21.086,21.086,0,0,0,2.246,1.932c.634.512,1.237.985,1.635,1.36a8.769,8.769,0,0,1,2.956,6.332v3.284A.642.642,0,0,1,128.662,518.191Zm-32-1.306h31.393v-2.628a7.478,7.478,0,0,0-2.544-5.347c-.359-.336-.939-.764-1.528-1.283a24.038,24.038,0,0,1-2.23-1.9c-3.98-.252-6.874.55-8.593,2.391a6.707,6.707,0,0,0-1.711,4.782.642.642,0,0,1-.16.5.6.6,0,0,1-.466.214H96.513C96.582,515.105,96.628,516.243,96.658,516.885Z" transform="translate(-30.193 -237.734)" fill="#262424"/>
      <path id="Path_2331" data-name="Path 2331" d="M45.109,391.012l-1.688,12.741-6.821-.1.3-14.154Z" transform="translate(-8.639 -154.177)" fill="#fff"/>
      <path id="Path_2332" data-name="Path 2332" d="M53.31,478.08h0l-6.821-.1a.611.611,0,0,1-.443-.2.71.71,0,0,1-.176-.466l.306-14.154a.626.626,0,0,1,.229-.489.581.581,0,0,1,.5-.138l8.211,1.528a.657.657,0,0,1,.512.764l-1.688,12.741a.634.634,0,0,1-.634.512Zm-6.172-1.4,5.629.084,1.528-11.549-6.874-1.268Z" transform="translate(-18.535 -227.847)" fill="#262424"/>
      <path id="Path_2333" data-name="Path 2333" d="M41.79,327.422c.153,4.17-.26,97.67-.26,97.67l16.04,1.7,8.242-47.105,1.948-12.061,9.609-59.578c3.475-20.119-28.651-23.4-33.188-5.118C42.324,310.6,41.629,323.244,41.79,327.422Z" transform="translate(-17.51 -187.317)" fill="url(#linear-gradient-28)"/>
      <path id="Path_2334" data-name="Path 2334" d="M81.8,344.594H81.7a.642.642,0,0,1-.512-.764l4.973-30.851a.626.626,0,0,1,.764-.535.634.634,0,0,1,.512.764L82.461,344.06A.626.626,0,0,1,81.8,344.594Z" transform="translate(-26.873 -192.398)" fill="#262424"/>
      <path id="Path_2335" data-name="Path 2335" d="M46.256,424.524h0a.649.649,0,0,1-.626-.665l1.619-111.923a.626.626,0,1,1,1.253,0L46.883,423.883A.634.634,0,0,1,46.256,424.524Z" transform="translate(-18.478 -192.134)" fill="#262424"/>
      <path id="Path_2336" data-name="Path 2336" d="M48.486,325.6h-.252a.653.653,0,0,1,.122-1.3,1.268,1.268,0,0,0,1.046-.4c2.246-2.154,2.62-11.114,2.574-14.383a.642.642,0,0,1,.619-.665h0a.634.634,0,0,1,.626.642c0,1.268.092,12.427-2.979,15.361a2.505,2.505,0,0,1-1.757.749Z" transform="translate(-18.959 -191.553)" fill="#262424"/>
      <path id="Path_2337" data-name="Path 2337" d="M58.807,394.065c-.558,5.186,2.07,9.746,5.866,10.189a6.111,6.111,0,0,0,5.217-2.246l1.948-12.061c-1.008-2.467-2.864-4.2-5.141-4.468C62.9,385.044,59.365,388.925,58.807,394.065Z" transform="translate(-21.573 -209.643)" fill="#fff"/>
      <path id="Path_2338" data-name="Path 2338" d="M56.432,464.046h-.053l-13.245-1.23a.649.649,0,0,1-.565-.71.642.642,0,0,1,.68-.6l13.245,1.237a.657.657,0,0,1-.061,1.306Z" transform="translate(-17.755 -227.607)" fill="#262424"/>
      <path id="Path_2339" data-name="Path 2339" d="M75.888,508.4v3.284H43.265s-.107-1.719-.206-4.583c-.2-5.675-.4-15.872.206-26.413l11.923-1.1a137.052,137.052,0,0,0,14.047,19.623c.825.94,3.009,2.475,3.918,3.338a8.1,8.1,0,0,1,2.734,5.851Z" transform="translate(-17.825 -231.878)" fill="url(#linear-gradient-4)"/>
      <path id="Path_2340" data-name="Path 2340" d="M60.789,500.15a.626.626,0,0,1-.519-.283,87.131,87.131,0,0,1-9.021-18.233.665.665,0,0,1,.39-.833.626.626,0,0,1,.764.4,85.776,85.776,0,0,0,8.86,17.919.672.672,0,0,1-.153.909.643.643,0,0,1-.321.115Z" transform="translate(-19.797 -232.159)" fill="#262424"/>
      <ellipse id="Ellipse_202" data-name="Ellipse 202" cx="2.139" cy="5.018" rx="2.139" ry="5.018" transform="translate(27.022 257.657)" fill="#fff"/>
      <path id="Path_2341" data-name="Path 2341" d="M47.379,503.163c-1.627,0-2.849-2.475-2.849-5.752s1.222-5.752,2.849-5.752,2.857,2.467,2.857,5.752S49,503.163,47.379,503.163Zm0-10.044c-.489,0-1.444,1.528-1.444,4.293s.955,4.293,1.444,4.293,1.436-1.528,1.436-4.293S47.86,493.119,47.379,493.119Z" transform="translate(-18.219 -234.728)" fill="#262424"/>
      <path id="Path_2342" data-name="Path 2342" d="M75.949,514.454v3.284H43.326s-.107-1.719-.206-4.583H58.06s-.84-8.769,11.213-7.875c.825.939,3.009,2.475,3.918,3.338a8.1,8.1,0,0,1,2.757,5.836Z" transform="translate(-17.886 -237.93)" fill="#fff"/>
      <path id="Path_2343" data-name="Path 2343" d="M75.755,518.191H43.132a.642.642,0,0,1-.626-.611S42.4,515.823,42.3,513a.665.665,0,0,1,.176-.481.634.634,0,0,1,.451-.2H57.233a7.913,7.913,0,0,1,2.062-5.1c2.039-2.169,5.347-3.094,9.83-2.765a.657.657,0,0,1,.42.214,21.087,21.087,0,0,0,2.246,1.932c.634.512,1.237.985,1.635,1.36a8.769,8.769,0,0,1,2.956,6.332v3.284A.642.642,0,0,1,75.755,518.191Zm-32.027-1.306H75.121v-2.628a7.478,7.478,0,0,0-2.544-5.347c-.359-.336-.939-.764-1.528-1.283A24.041,24.041,0,0,1,68.8,505.7c-3.98-.252-6.874.55-8.593,2.391a6.707,6.707,0,0,0-1.711,4.782.642.642,0,0,1-.16.5.6.6,0,0,1-.466.214H43.6C43.636,515.105,43.7,516.243,43.728,516.885Z" transform="translate(-17.692 -237.734)" fill="#262424"/>
      <path id="Path_2344" data-name="Path 2344" d="M169,196.377s9.219-11.457,9.586-11.457c1.841.107,12.076,4.583,16.155,6.393a1.711,1.711,0,0,1,.764,2.391h0a1.6,1.6,0,0,1-1.619.817l-7.47-1.046-1.528,2.7a4.621,4.621,0,0,1-4.919,2.292l-2.093-.42-3.33,4.652Z" transform="translate(-47.615 -162.284)" fill="#fff"/>
      <path id="Path_2345" data-name="Path 2345" d="M174.289,203.15a.619.619,0,0,1-.466-.214l-5.53-6.324a.68.68,0,0,1,0-.855s2.33-2.9,4.659-5.736c4.9-5.981,5.026-5.973,5.446-5.95,1.864.107,11.053,4.079,16.369,6.439a2.291,2.291,0,0,1,1.245,1.413,2.383,2.383,0,0,1-.191,1.91,2.23,2.23,0,0,1-2.246,1.138l-7.058-.993-1.329,2.337a5.247,5.247,0,0,1-5.576,2.6l-1.7-.344-3.1,4.323a.626.626,0,0,1-.474.26Zm-4.728-6.989,4.652,5.309,2.872-4.01a.634.634,0,0,1,.626-.252l2.093.42a4,4,0,0,0,4.255-1.978l1.528-2.712a.634.634,0,0,1,.626-.313l7.47,1.046a.978.978,0,0,0,.993-.5,1.062,1.062,0,0,0,.084-.848,1.008,1.008,0,0,0-.55-.619c-8.219-3.643-14.146-6.019-15.735-6.309C177.52,186.4,172.746,192.234,169.561,196.161Z" transform="translate(-47.413 -162.082)" fill="#262424"/>
      <path id="Path_2346" data-name="Path 2346" d="M161.814,204.043s-7.7,12.183-13.191,19.859c-2.291,3.231-4.232,5.652-5.018,6.027s-3.934.176-7.967-.283c-9.571-1.092-24.137-3.666-24.137-3.666s-11.106-2.429-12.466-13.7,7.119-12.122,11.939-10.969l26.138,5.988L153.274,196Z" transform="translate(-31.057 -164.901)" fill="url(#linear-gradient-30)"/>
      <path id="Path_2347" data-name="Path 2347" d="M173.923,207.6a.611.611,0,0,1-.412-.16l-6.806-6.263a.665.665,0,0,1-.046-.924.611.611,0,0,1,.886-.053l6.8,6.263a.672.672,0,0,1,.053.924A.611.611,0,0,1,173.923,207.6Z" transform="translate(-47.023 -165.854)" fill="#262424"/>
      <path id="Path_2348" data-name="Path 2348" d="M159.985,231.827c-2.291,3.231-4.232,5.652-5.018,6.027s-3.934.176-7.967-.283h0a7.814,7.814,0,0,1,7.638-7.951A7.478,7.478,0,0,1,159.985,231.827Z" transform="translate(-42.419 -172.841)" fill="#fff"/>
      <path id="Path_2349" data-name="Path 2349" d="M41.78,211.315l-.94,78.773s2.131.306,5.813.657v-9.059a1.352,1.352,0,0,1,.374-.94,1.253,1.253,0,0,1,1.138-.367,1.352,1.352,0,0,1,1.039,1.352v9.258c12.091,1.016,35.365,1.994,56.974-2.681,0,0-1.955-68.339-8.914-86.885,0,0-13.031-5.118-27.062-4.827-9.5.2-19.149,4.8-24.381,7.76a8.089,8.089,0,0,0-4.041,6.958Z" transform="translate(-17.347 -165.039)" fill="url(#linear-gradient-8)"/>
      <path id="Path_2350" data-name="Path 2350" d="M119.349,228a.649.649,0,0,1-.626-.573c-1.214-10.151-2.6-17.7-4.1-22.434a.657.657,0,0,1,.4-.817.619.619,0,0,1,.764.412c1.528,4.812,2.925,12.443,4.155,22.678a.634.634,0,0,1-.55.764Z" transform="translate(-34.765 -166.825)" fill="#262424"/>
      <path id="Path_2351" data-name="Path 2351" d="M71.15,315.881c-5.026,0-10.228-.16-15.361-.573a.628.628,0,1,1,.092-1.253c24.442,1.971,50.481-1.749,50.741-1.787a.6.6,0,0,1,.68.535.619.619,0,0,1-.512.7,280.765,280.765,0,0,1-35.64,2.375Z" transform="translate(-20.74 -192.359)" fill="#262424"/>
      <path id="Path_2352" data-name="Path 2352" d="M68.39,202.818c1.917,4.629,5.53,7.852,7.783,8.593a48.643,48.643,0,0,1,2.185-7.47,19.661,19.661,0,0,1,2.948,7.424c5.759-1.642,6.416-8.723,6.416-8.723a9.494,9.494,0,0,0-9.571-8.593C69.108,194.378,68.39,202.818,68.39,202.818Z" transform="translate(-23.854 -164.44)" fill="#fff"/>
      <path id="Path_2353" data-name="Path 2353" d="M75.977,211.872a.512.512,0,0,1-.183,0c-2.505-.817-6.225-4.232-8.181-8.952a.665.665,0,0,1-.053-.321c0-.084.886-9.013,10.38-9.349a10.09,10.09,0,0,1,10.2,9.166.876.876,0,0,1,0,.145c0,.306-.764,7.547-6.874,9.288a.611.611,0,0,1-.512-.084.641.641,0,0,1-.275-.443,19.928,19.928,0,0,0-2.177-6.111A42.981,42.981,0,0,0,76.6,211.36a.7.7,0,0,1-.3.443.626.626,0,0,1-.321.069Zm2.185-8.769a.626.626,0,0,1,.512.275,20.417,20.417,0,0,1,2.918,6.958c4.407-1.726,5.217-7.2,5.3-7.875a8.815,8.815,0,0,0-8.914-7.936,9.1,9.1,0,0,0-9.166,8,16.1,16.1,0,0,0,6.676,7.791,52.064,52.064,0,0,1,2.062-6.806.649.649,0,0,1,.512-.4Z" transform="translate(-23.657 -164.251)" fill="#262424"/>
      <path id="Path_2354" data-name="Path 2354" d="M75.29,180l.145,5.767.252,9.861c3.2,2.291,6.317,2.566,9.319.229l-.443-4.583-.665-6.943Z" transform="translate(-25.483 -161.122)" fill="#fff"/>
      <path id="Path_2355" data-name="Path 2355" d="M80.459,197.976a9.166,9.166,0,0,1-5.347-1.986.642.642,0,0,1-.267-.519l-.4-15.628a.672.672,0,0,1,.29-.565.619.619,0,0,1,.619-.038l8.608,4.331a.657.657,0,0,1,.351.527l1.108,11.518a.688.688,0,0,1-.252.588,7.638,7.638,0,0,1-4.705,1.772Zm-4.354-2.895c2.887,1.986,5.522,2.078,8.035.267L83.1,184.564l-7.356-3.7Z" transform="translate(-25.283 -160.927)" fill="#262424"/>
      <path id="Path_2356" data-name="Path 2356" d="M79.18,182c.046,2.6-.183,11.457,6.554,12.427l-.917-9.594Z" transform="translate(-26.402 -161.594)" fill="#262424"/>
      <rect id="Rectangle_115" data-name="Rectangle 115" width="65.315" height="48.167" rx="9.45" transform="translate(6.024 65.204)" fill="#fff"/>
      <path id="Path_2357" data-name="Path 2357" d="M80.942,289.273H19.913A2.826,2.826,0,0,1,17.14,286.4V242.672a2.826,2.826,0,0,1,2.773-2.872h61.03a2.826,2.826,0,0,1,2.773,2.872V286.4A2.826,2.826,0,0,1,80.942,289.273Zm-61.03-48.167a1.528,1.528,0,0,0-1.528,1.566V286.4a1.528,1.528,0,0,0,1.528,1.566h61.03A1.528,1.528,0,0,0,82.47,286.4V242.672a1.528,1.528,0,0,0-1.528-1.566Z" transform="translate(-11.75 -175.245)" fill="#262424"/>
      <rect id="Rectangle_116" data-name="Rectangle 116" width="26.688" height="48.167" rx="9.45" transform="translate(44.651 65.204)" fill="#fff"/>
      <path id="Path_2358" data-name="Path 2358" d="M92.886,289.273h-22.4A2.826,2.826,0,0,1,67.71,286.4V242.672a2.826,2.826,0,0,1,2.773-2.872h22.4a2.826,2.826,0,0,1,2.773,2.872V286.4A2.826,2.826,0,0,1,92.886,289.273Zm-22.4-48.167a1.528,1.528,0,0,0-1.528,1.566V286.4a1.528,1.528,0,0,0,1.528,1.566h22.4a1.528,1.528,0,0,0,1.528-1.566V242.672a1.528,1.528,0,0,0-1.528-1.566Z" transform="translate(-23.693 -175.245)" fill="#262424"/>
      <path id="Path_2359" data-name="Path 2359" d="M93.306,254.956H71.659a.657.657,0,0,1,0-1.306H93.306a.657.657,0,0,1,0,1.306Z" transform="translate(-24.487 -178.516)" fill="#262424"/>
      <path id="Path_2360" data-name="Path 2360" d="M54.373,254.956H21.819a.657.657,0,0,1,0-1.306H54.373a.657.657,0,0,1,0,1.306Z" transform="translate(-12.716 -178.516)" fill="#262424"/>
      <path id="Path_2361" data-name="Path 2361" d="M58.957,284.17s10.694,7.417,12,8.8-.122,8.288,0,8.792-12.489,1.383-13.94,0S54.13,292.6,54.13,292.6Z" transform="translate(-20.486 -185.724)" fill="#fff"/>
      <path id="Path_2362" data-name="Path 2362" d="M62.3,302.932c-3.277,0-5.255-.306-5.9-.917-1.528-1.451-2.834-8.2-3.055-9.533a.71.71,0,0,1,.076-.451l4.827-8.4a.619.619,0,0,1,.894-.214c.435.306,10.694,7.47,12.091,8.876,1.115,1.153.764,4.522.328,7.86-.069.535-.153,1.13-.153,1.3a.718.718,0,0,1-.344.726c-.764.474-5.454.7-7.035.764Zm-7.692-10.426c.558,2.956,1.726,7.692,2.65,8.57s10.793.558,12.893.053a10.659,10.659,0,0,1,.145-1.146c.214-1.635.764-5.965,0-6.76-1-1.031-8.074-6.042-11.358-8.333ZM71.412,301.4Z" transform="translate(-20.299 -185.521)" fill="#262424"/>
      <path id="Path_2363" data-name="Path 2363" d="M10.411,247.235c-.519,3.292-.435,6.111.474,8.188a20.623,20.623,0,0,0,5.95,7.317c9.93,8.211,26.948,12.664,26.948,12.664l6.027-9.533-18.1-16.544s19.9-38.955,12.909-42.774C34.342,201.047,12.39,234.823,10.411,247.235Z" transform="translate(-10.085 -167.251)" fill="url(#linear-gradient-32)"/>
      <path id="Path_2364" data-name="Path 2364" d="M10.409,260c-.535,3.292-.435,6.111.474,8.188a20.623,20.623,0,0,0,5.95,7.317,9.456,9.456,0,0,0,1.818-9.594A8.876,8.876,0,0,0,10.409,260Z" transform="translate(-10.083 -180.016)" fill="#fff"/>
      <path id="Path_2365" data-name="Path 2365" d="M24.807,266.453a.619.619,0,0,1-.6-.458.657.657,0,0,1,.42-.817l10.22-3.185a.611.611,0,0,1,.764.435.649.649,0,0,1-.412.81L25,266.453Z" transform="translate(-13.413 -180.481)" fill="#262424"/>
      <path id="Path_2366" data-name="Path 2366" d="M45.976,277.23a.54.54,0,0,1-.153,0c-.16-.046-16.178-4.293-26.192-11.992a.68.68,0,0,1-.13-.917.626.626,0,0,1,.886-.13c8.891,6.874,22.7,10.923,25.313,11.656l5.469-8.685-17.69-16.17a.672.672,0,0,1-.137-.764c.145-.283,14.436-28.391,14.3-38.764a.649.649,0,0,1,.626-.665.634.634,0,0,1,.634.642c.13,10.1-12.29,35.136-14.215,38.955L52.415,266.59a.672.672,0,0,1,.115.848l-6.027,9.54A.619.619,0,0,1,45.976,277.23Z" transform="translate(-12.279 -168.396)" fill="#262424"/>
      <path id="Path_2367" data-name="Path 2367" d="M49.374,287.456a.611.611,0,0,1-.359-.115.664.664,0,0,1-.16-.909l5.217-7.768a.619.619,0,0,1,.878-.16.672.672,0,0,1,.16.909l-5.225,7.768A.626.626,0,0,1,49.374,287.456Z" transform="translate(-19.213 -184.359)" fill="#262424"/>
      <ellipse id="Ellipse_203" data-name="Ellipse 203" cx="1.222" cy="1.268" rx="1.222" ry="1.268" transform="translate(31.612 102.929)" fill="#fff"/>
      <path id="Path_2368" data-name="Path 2368" d="M52.483,293.033a1.727,1.727,0,0,1-.764-.168,1.856,1.856,0,0,1-.978-1.062,1.971,1.971,0,0,1,.038-1.474,1.856,1.856,0,0,1,1.031-1.008,1.78,1.78,0,0,1,1.413.038,1.871,1.871,0,0,1,.978,1.069,1.94,1.94,0,0,1-1.069,2.475A1.687,1.687,0,0,1,52.483,293.033Zm0-2.536a.764.764,0,0,0-.214.038h0a.626.626,0,0,0-.328.328.619.619,0,0,0,0,.466.581.581,0,0,0,.313.344.55.55,0,0,0,.451,0,.626.626,0,0,0,0-1.138A.542.542,0,0,0,52.483,290.5ZM52.048,289.932Z" transform="translate(-19.656 -186.911)" fill="#262424"/>
      <path id="Path_2369" data-name="Path 2369" d="M93.01,177.235c-.886,5.133-2.788,11.205-8.708,9.769-7.027-1.711-11.243-7.295-10.793-14.322s3.865-10.732,11.916-9.288a12.158,12.158,0,0,1,2.017.542c4.583,1.673,6.622,5.874,5.981,10.548C93.308,175.333,93.178,176.273,93.01,177.235Z" transform="translate(-25.055 -157.127)" fill="#fff"/>
      <path id="Path_2370" data-name="Path 2370" d="M87.02,187.762a7.806,7.806,0,0,1-1.826-.229,15.574,15.574,0,0,1-7.142-3.819.672.672,0,0,1,0-.924.611.611,0,0,1,.886,0,14.176,14.176,0,0,0,6.577,3.491,4.8,4.8,0,0,0,4.117-.6c2.971-2.108,3.819-8.135,4.239-11.373.764-5.347-2.207-9.4-7.485-10.35a.649.649,0,0,1-.512-.764.634.634,0,0,1,.764-.535c5.912,1.069,9.334,5.82,8.517,11.824-.649,4.759-1.6,10.021-4.774,12.267A5.591,5.591,0,0,1,87.02,187.762Z" transform="translate(-26.092 -157.022)" fill="#262424"/>
      <path id="Path_2371" data-name="Path 2371" d="M70.163,171.994a21.878,21.878,0,0,0,2.085,3.055l3.575.512.962-2.574s2.291.076,2.872-1.474V171.4a21.318,21.318,0,0,0,.764-6.447s5.293,2.941,8.249,3.506a6.615,6.615,0,0,0,3.552-.634c2.421-1.008,4.751-4.782,4.583-7.486v-.046c-.351-3.957-2.513-1.405-2.513-1.405s-.328-3.193-2.215-3.567-3.307,2.429-3.307,2.429a28.926,28.926,0,0,0-11.091-1.36c-7.424.573-5.988,5.965-5.988,5.965S66.107,163.737,70.163,171.994Z" transform="translate(-23.924 -155.285)" fill="#262424"/>
      <path id="Path_2372" data-name="Path 2372" d="M74.57,179.257a5.423,5.423,0,0,0-4.064-6.355,4.583,4.583,0,0,0-1.8,0c-3.575.7-3.284,9.235,5.347,9.265Z" transform="translate(-23.419 -159.425)" fill="#fff"/>
      <path id="Path_2373" data-name="Path 2373" d="M73.847,182.617h0c-5.225,0-7.829-3.055-8.1-6.111-.2-2.23.917-4.1,2.65-4.438a5.2,5.2,0,0,1,2.032,0,6.111,6.111,0,0,1,4.583,7.111.642.642,0,0,1-.764.527.657.657,0,0,1-.5-.764,4.766,4.766,0,0,0-3.567-5.591,4,4,0,0,0-1.528,0c-1.077.214-1.764,1.528-1.627,3.055.206,2.291,2.116,4.919,6.874,4.942a.657.657,0,0,1,0,1.306Z" transform="translate(-23.223 -159.225)" fill="#262424"/>
    </g>
    <g id="ORNAMENT" transform="translate(5.383 3.751)">
      <path id="Path_2374" data-name="Path 2374" d="M358.895,501a9.869,9.869,0,0,0-9.861,9.892,9.884,9.884,0,0,0-9.884-9.876,9.884,9.884,0,0,0,9.884-9.876A9.869,9.869,0,0,0,358.895,501Z" transform="translate(-93.191 -175.986)" fill="url(#linear-gradient-33)"/>
      <path id="Path_2375" data-name="Path 2375" d="M451.238,471.819a3.819,3.819,0,0,0-3.819,3.819,3.819,3.819,0,0,0-3.819-3.819A3.819,3.819,0,0,0,447.419,468,3.819,3.819,0,0,0,451.238,471.819Z" transform="translate(-117.859 -170.521)" fill="url(#linear-gradient-34)"/>
      <path id="Path_2376" data-name="Path 2376" d="M86.982,121.745a7.73,7.73,0,0,0-7.73,7.722,7.722,7.722,0,0,0-7.722-7.722A7.722,7.722,0,0,0,79.252,114a7.73,7.73,0,0,0,7.73,7.722Z" transform="translate(-29.986 -86.915)" fill="url(#linear-gradient-35)"/>
      <path id="Path_2377" data-name="Path 2377" d="M287.486,416.132a4.942,4.942,0,0,0-4.942,4.934,4.927,4.927,0,0,0-4.934-4.934,4.942,4.942,0,0,0,4.934-4.942,4.957,4.957,0,0,0,4.942,4.942Z" transform="translate(-78.657 -157.104)" fill="url(#linear-gradient-36)"/>
      <path id="Path_2378" data-name="Path 2378" d="M32.814,86.377a7.837,7.837,0,0,0-7.837,7.837,7.852,7.852,0,0,0-7.837-7.837,7.837,7.837,0,0,0,7.837-7.837,7.822,7.822,0,0,0,7.837,7.837Z" transform="translate(-17.14 -78.54)" fill="url(#linear-gradient-8)"/>
      <circle id="Ellipse_204" data-name="Ellipse 204" cx="4.071" cy="4.071" r="4.071" transform="translate(284.135 262.84)" fill="url(#linear-gradient-4)"/>
      <circle id="Ellipse_205" data-name="Ellipse 205" cx="5.278" cy="5.278" r="5.278" transform="translate(403.208 291.819)" fill="url(#linear-gradient-8)"/>
    </g>
  </g>
</svg>
