<svg xmlns="http://www.w3.org/2000/svg" width="28.119" height="22.823" viewBox="0 0 28.119 22.823">
  <g id="Twitter" opacity="0.9">
    <path id="Path_419" data-name="Path 419" d="M255.46,1146.563v.738a16.683,16.683,0,0,1-1.059,5.778,17.224,17.224,0,0,1-3.146,5.264,15.606,15.606,0,0,1-5.136,3.853,16.753,16.753,0,0,1-7.03,1.477A16.437,16.437,0,0,1,234.4,1163a15.938,15.938,0,0,1-4.173-1.894q.674.065,1.38.064a11.457,11.457,0,0,0,3.82-.642,11.968,11.968,0,0,0,3.338-1.8,5.764,5.764,0,0,1-3.338-1.172,5.559,5.559,0,0,1-2.022-2.841,5.738,5.738,0,0,0,1.059.1,5.949,5.949,0,0,0,1.509-.193,5.572,5.572,0,0,1-2.343-1.075,5.722,5.722,0,0,1-1.653-2.023,6.009,6.009,0,0,1-.626-2.552v-.1a5.406,5.406,0,0,0,2.632.738,5.805,5.805,0,0,1-1.878-2.07,5.64,5.64,0,0,1-.69-2.744,5.732,5.732,0,0,1,.77-2.889,16.461,16.461,0,0,0,11.877,6.034,6.672,6.672,0,0,1-.128-1.316,5.616,5.616,0,0,1,.77-2.889,5.817,5.817,0,0,1,2.1-2.1,5.556,5.556,0,0,1,2.873-.786,5.714,5.714,0,0,1,4.2,1.83,11.208,11.208,0,0,0,3.659-1.412,5.578,5.578,0,0,1-.979,1.846,5.928,5.928,0,0,1-1.557,1.364,11.718,11.718,0,0,0,3.338-.931A12.07,12.07,0,0,1,255.46,1146.563Z" transform="translate(-230.23 -1140.849)" fill="#fff"/>
  </g>
</svg>
