<svg xmlns="http://www.w3.org/2000/svg" xmlns:xlink="http://www.w3.org/1999/xlink" width="365.752" height="392.06" viewBox="0 0 365.752 392.06">
  <defs>
    <linearGradient id="linear-gradient" y1="0.5" x2="1.001" y2="0.5" gradientUnits="objectBoundingBox">
      <stop offset="0" stop-color="#343a8d"/>
      <stop offset="0.24" stop-color="#353e90"/>
      <stop offset="0.46" stop-color="#394998"/>
      <stop offset="0.68" stop-color="#405ca6"/>
      <stop offset="0.9" stop-color="#4a77ba"/>
      <stop offset="1" stop-color="#4f86c5"/>
    </linearGradient>
    <linearGradient id="linear-gradient-2" x1="0" y1="0.5" x2="1" y2="0.5" xlink:href="#linear-gradient"/>
    <linearGradient id="linear-gradient-3" x1="-0.001" y1="0.5" x2="1" y2="0.5" xlink:href="#linear-gradient"/>
    <linearGradient id="linear-gradient-4" y1="0.499" x2="1" y2="0.499" gradientUnits="objectBoundingBox">
      <stop offset="0" stop-color="#b1317f"/>
      <stop offset="0.17" stop-color="#9d2e78"/>
      <stop offset="0.53" stop-color="#752969"/>
      <stop offset="0.82" stop-color="#5d2560"/>
      <stop offset="1" stop-color="#54245d"/>
    </linearGradient>
    <linearGradient id="linear-gradient-5" x1="0" y1="0.5" x2="1" y2="0.5" xlink:href="#linear-gradient"/>
    <linearGradient id="linear-gradient-6" x1="0" y1="0.5" x2="0.999" y2="0.5" xlink:href="#linear-gradient"/>
    <linearGradient id="linear-gradient-7" x1="0" y1="0.5" x2="1" y2="0.5" xlink:href="#linear-gradient"/>
    <linearGradient id="linear-gradient-8" x1="0.003" y1="0.5" x2="1.002" y2="0.5" xlink:href="#linear-gradient-4"/>
    <linearGradient id="linear-gradient-9" x1="0.003" y1="0.501" x2="1.002" y2="0.501" xlink:href="#linear-gradient-4"/>
    <linearGradient id="linear-gradient-10" x1="0" y1="0.5" x2="1" y2="0.5" xlink:href="#linear-gradient"/>
    <linearGradient id="linear-gradient-11" x1="0" y1="0.499" x2="1" y2="0.499" xlink:href="#linear-gradient"/>
    <linearGradient id="linear-gradient-12" x1="-0.001" y1="0.5" x2="0.999" y2="0.5" xlink:href="#linear-gradient-4"/>
    <linearGradient id="linear-gradient-13" x1="0" y1="0.499" x2="1" y2="0.499" xlink:href="#linear-gradient"/>
    <linearGradient id="linear-gradient-14" x1="0" y1="0.5" x2="1" y2="0.5" xlink:href="#linear-gradient"/>
    <linearGradient id="linear-gradient-15" x1="-0.001" y1="0.5" x2="1" y2="0.5" xlink:href="#linear-gradient"/>
    <linearGradient id="linear-gradient-16" x1="0" y1="0.5" x2="1" y2="0.5" xlink:href="#linear-gradient"/>
    <linearGradient id="linear-gradient-17" x1="0.002" y1="0.5" x2="1.002" y2="0.5" xlink:href="#linear-gradient"/>
    <linearGradient id="linear-gradient-18" x1="0" y1="0.5" x2="1" y2="0.5" xlink:href="#linear-gradient"/>
    <linearGradient id="linear-gradient-19" x1="-0.001" y1="0.5" x2="1" y2="0.5" xlink:href="#linear-gradient-4"/>
    <linearGradient id="linear-gradient-20" x1="0" y1="0.5" x2="1" y2="0.5" xlink:href="#linear-gradient-4"/>
    <linearGradient id="linear-gradient-22" x1="-0.002" y1="0.5" x2="1" y2="0.5" xlink:href="#linear-gradient-4"/>
    <linearGradient id="linear-gradient-23" x1="0" y1="0.5" x2="1" y2="0.5" xlink:href="#linear-gradient-4"/>
    <linearGradient id="linear-gradient-24" x1="0" y1="0.5" x2="1" y2="0.5" xlink:href="#linear-gradient"/>
    <linearGradient id="linear-gradient-25" x1="0" y1="0.5" x2="0.999" y2="0.5" xlink:href="#linear-gradient"/>
    <linearGradient id="linear-gradient-26" x1="0.25" y1="0.75" x2="0.75" y2="0.25" xlink:href="#linear-gradient-4"/>
    <linearGradient id="linear-gradient-28" x1="0.25" y1="0.75" x2="0.75" y2="0.251" xlink:href="#linear-gradient-4"/>
    <linearGradient id="linear-gradient-29" x1="0" y1="0.5" x2="1" y2="0.5" xlink:href="#linear-gradient"/>
    <linearGradient id="linear-gradient-30" x1="0.147" y1="0.854" x2="0.854" y2="0.147" xlink:href="#linear-gradient-4"/>
    <linearGradient id="linear-gradient-31" x1="0.221" y1="2.508" x2="0.78" y2="-1.308" xlink:href="#linear-gradient-4"/>
    <clipPath id="clip-path">
      <path id="Path_1417" data-name="Path 1417" d="M476.082,229.51a4.908,4.908,0,0,0-4.89,4.212l-9.557,64.122a4.927,4.927,0,0,0,4.88,5.66h89.7a4.973,4.973,0,0,0,4.89-4.2l9.547-64.122a4.936,4.936,0,0,0-4.88-5.669ZM571.044,235.235Z" transform="translate(-461.581 -229.51)" fill="none"/>
    </clipPath>
    <linearGradient id="linear-gradient-32" x1="0" y1="0.5" x2="1" y2="0.5" xlink:href="#linear-gradient"/>
    <linearGradient id="linear-gradient-33" x1="0" y1="0.5" x2="1" y2="0.5" xlink:href="#linear-gradient"/>
    <linearGradient id="linear-gradient-34" x1="0.001" y1="0.5" x2="1.001" y2="0.5" xlink:href="#linear-gradient"/>
    <linearGradient id="linear-gradient-35" x1="0" y1="0.5" x2="1" y2="0.5" xlink:href="#linear-gradient"/>
    <linearGradient id="linear-gradient-36" x1="0.146" y1="0.853" x2="0.853" y2="0.147" xlink:href="#linear-gradient-4"/>
    <clipPath id="clip-path-2">
      <path id="Path_1443" data-name="Path 1443" d="M476.081,123.19a4.908,4.908,0,0,0-4.89,4.212l-9.557,64.122a4.936,4.936,0,0,0,4.88,5.715h89.7a4.973,4.973,0,0,0,4.89-4.212l9.547-64.122a4.936,4.936,0,0,0-4.88-5.669ZM571.044,128.915Z" transform="translate(-461.573 -123.19)" fill="none"/>
    </clipPath>
    <linearGradient id="linear-gradient-38" x1="-0.207" y1="0.847" x2="1.155" y2="0.183" xlink:href="#linear-gradient-4"/>
    <linearGradient id="linear-gradient-39" x1="-0.024" y1="0.959" x2="1.036" y2="0.166" xlink:href="#linear-gradient-4"/>
    <linearGradient id="linear-gradient-40" x1="-0.129" y1="0.773" x2="1.319" y2="0.22" xlink:href="#linear-gradient-4"/>
    <linearGradient id="linear-gradient-41" x1="-0.443" y1="0.838" x2="1.291" y2="0.293" xlink:href="#linear-gradient-4"/>
    <linearGradient id="linear-gradient-42" x1="0" y1="0.5" x2="1" y2="0.5" xlink:href="#linear-gradient"/>
    <linearGradient id="linear-gradient-43" x1="0.131" y1="0.938" x2="0.868" y2="-0.081" xlink:href="#linear-gradient-4"/>
    <linearGradient id="linear-gradient-44" x1="0" y1="0.5" x2="0.999" y2="0.5" xlink:href="#linear-gradient"/>
    <linearGradient id="linear-gradient-45" x1="0.132" y1="0.939" x2="0.869" y2="-0.081" xlink:href="#linear-gradient-4"/>
    <linearGradient id="linear-gradient-47" x1="-0.006" y1="0.494" x2="0.994" y2="0.494" xlink:href="#linear-gradient"/>
    <linearGradient id="linear-gradient-49" x1="0" y1="0.494" x2="1" y2="0.494" xlink:href="#linear-gradient"/>
    <linearGradient id="linear-gradient-50" x1="0" y1="0.511" x2="1" y2="0.511" xlink:href="#linear-gradient"/>
    <linearGradient id="linear-gradient-52" x1="0" y1="0.505" x2="0.998" y2="0.505" xlink:href="#linear-gradient"/>
    <linearGradient id="linear-gradient-53" x1="0.006" y1="0.494" x2="1.006" y2="0.494" xlink:href="#linear-gradient"/>
    <linearGradient id="linear-gradient-54" x1="0" y1="0.49" x2="1" y2="0.49" xlink:href="#linear-gradient"/>
    <linearGradient id="linear-gradient-59" x1="-0.001" y1="0.5" x2="1" y2="0.5" xlink:href="#linear-gradient"/>
    <linearGradient id="linear-gradient-60" x1="0" y1="0.5" x2="1" y2="0.5" xlink:href="#linear-gradient-4"/>
  </defs>
  <g id="Vie_Interne_01" data-name="Vie Interne 01" transform="translate(0.002 0)">
    <g id="Woman_2" data-name="Woman 2" transform="translate(0.751 67.4)">
      <g id="WOMAN_2_LEFT_CALF" data-name="WOMAN 2 LEFT CALF" transform="translate(0 195.901)">
        <path id="Path_1309" data-name="Path 1309" d="M220.5,478.008a10.085,10.085,0,0,1-.742,1.856,15.228,15.228,0,0,1-1.308,2.115,2.876,2.876,0,0,1-.631.668c-2.449,1.948-8.285.863-14.121-5.632-6.4-7.144-15.986-15.1-16.923-19.484a2.846,2.846,0,0,0-.065-.39h0a5.484,5.484,0,0,1,.223-2.589,10.6,10.6,0,0,1,3.563-4.528h0c1.169-.983,2.514-1.93,3.888-2.895a45.8,45.8,0,0,1,10.317-5.01,12.219,12.219,0,0,1,10.271,9.482s1.577,11.635,4.583,18.167a11.626,11.626,0,0,1,.946,8.239Z" transform="translate(-186.641 -399.434)" fill="url(#linear-gradient)"/>
        <path id="Path_1310" data-name="Path 1310" d="M210.37,456.51s1.271,11.811,5.7,18.222" transform="translate(-188.353 -400.473)" fill="none" stroke="#262424" stroke-linecap="round" stroke-linejoin="round" stroke-width="1.5"/>
        <path id="Path_1311" data-name="Path 1311" d="M219.754,480.509a15.226,15.226,0,0,1-1.308,2.115,2.875,2.875,0,0,1-.631.668c-2.449,1.948-8.285.863-14.121-5.632-6.4-7.144-15.986-15.1-16.923-19.484a2.846,2.846,0,0,0-.065-.39h0a5.484,5.484,0,0,1,.223-2.589,10.6,10.6,0,0,1,3.563-4.528h0a8.792,8.792,0,0,0,0,6.662c1.4,4.017,8.592,8.276,13.259,14.845S215.829,482.624,219.754,480.509Z" transform="translate(-186.641 -400.051)" fill="#fff" stroke="#262424" stroke-linecap="round" stroke-linejoin="round" stroke-width="1.5"/>
        <path id="Path_1312" data-name="Path 1312" d="M210.37,478.664s9.724.362,9.733-9.974c0,0,4.695,8.5,1.364,13.119C221.467,481.809,216.661,485.678,210.37,478.664Z" transform="translate(-188.353 -401.352)" fill="#fff" stroke="#262424" stroke-linecap="round" stroke-linejoin="round" stroke-width="1.5"/>
        <path id="Path_1313" data-name="Path 1313" d="M224.636,444.165l-12.72,7.005c-2.5,1.392-6.235-3.461-4.268-6.328L220.2,436Z" transform="translate(-188.117 -398.993)" fill="#fff" stroke="#262424" stroke-linecap="round" stroke-linejoin="round" stroke-width="1.5"/>
        <path id="Path_1314" data-name="Path 1314" d="M222.636,449.608,271.9,422.831c10.633-5.289,12.8-14.168,7.042-21.989h0c-4.389-6.625-15.662-5.706-21.943-.835l-44.4,34.329C210.436,441.722,214.787,448.532,222.636,449.608Z" transform="translate(-188.475 -396.114)" fill="url(#linear-gradient-2)"/>
        <path id="Path_1315" data-name="Path 1315" d="M32.5,324.918l46.345-33.467L77.4,284.78" transform="translate(-3.042 -283.856)" fill="none" stroke="#262424" stroke-linecap="round" stroke-linejoin="round" stroke-width="1.5"/>
        <path id="Path_1316" data-name="Path 1316" d="M224.333,449.6c-6.615-.668-9.779-4.565-8.146-12.99" transform="translate(-188.743 -399.037)" fill="none" stroke="#262424" stroke-linecap="round" stroke-linejoin="round" stroke-width="1.5"/>
        <ellipse id="Ellipse_102" data-name="Ellipse 102" cx="9.937" cy="6.949" rx="9.937" ry="6.949" transform="matrix(0.808, -0.59, 0.59, 0.808, 71.677, 16.406)" fill="#fff"/>
      </g>
      <g id="WOMAN_2_LEFT_THIGH" data-name="WOMAN 2 LEFT THIGH" transform="translate(169.291 106.078)">
        <path id="Path_1317" data-name="Path 1317" d="M411.047,360.017c3.832-30.136,8-47.838-5.261-56.866-17.545-11.95-33.448,5.734-35.851,28.345s1.15,76.8,1.15,76.8c-.362,17.768,17.8,25.775,26.155,17.118a13.973,13.973,0,0,0,2.153-4.927c.306-1.345.65-2.913,1.03-4.639V415.8C403.587,401.259,409.136,374.983,411.047,360.017Z" transform="translate(-369.101 -299.303)" fill="url(#linear-gradient-3)"/>
        <path id="Path_1318" data-name="Path 1318" d="M408.24,322.19l.928,5.855a10.206,10.206,0,0,0,5.808,7.71l.928.418" transform="translate(-371.926 -300.955)" fill="none" stroke="#262424" stroke-linecap="round" stroke-linejoin="round" stroke-width="1.5"/>
        <path id="Path_1319" data-name="Path 1319" d="M392.672,316.74l-.612,11.811a8.017,8.017,0,0,1-3.433,6.179l-2.867,1.995.492,70.886" transform="translate(-370.303 -300.562)" fill="none" stroke="#262424" stroke-linecap="round" stroke-linejoin="round" stroke-width="1.5"/>
      </g>
      <g id="WOMAN_2_LEFT_CALF-2" data-name="WOMAN 2 LEFT CALF" transform="translate(101.859 198.822)">
        <path id="Path_1320" data-name="Path 1320" d="M331.418,490.3a10.4,10.4,0,0,1-.77,1.948,16.323,16.323,0,0,1-1.355,2.19,3.2,3.2,0,0,1-.64.687c-2.542,2-8.573.928-14.6-5.827-6.625-7.423-16.515-15.6-17.489-20.171a3.38,3.38,0,0,1-.065-.408,5.566,5.566,0,0,1,.223-2.672,10.921,10.921,0,0,1,3.711-4.639h0c1.206-1.011,2.607-1.995,4.027-2.988a47.215,47.215,0,0,1,10.651-5.177s8.647.872,10.614,9.8c0,0,1.633,12.062,4.741,18.779a12.061,12.061,0,0,1,.956,8.48Z" transform="translate(-296.423 -403.158)" fill="url(#linear-gradient-4)"/>
        <path id="Path_1321" data-name="Path 1321" d="M330.648,492.881a16.321,16.321,0,0,1-1.355,2.19,3.2,3.2,0,0,1-.64.687c-2.542,2-8.573.928-14.6-5.827-6.625-7.423-16.515-15.6-17.489-20.171a3.38,3.38,0,0,1-.065-.408h0a5.567,5.567,0,0,1,.223-2.672,10.921,10.921,0,0,1,3.711-4.639h0s-1.447,2.737,0,6.894,8.888,8.545,13.7,15.365S326.593,495.061,330.648,492.881Z" transform="translate(-296.423 -403.794)" fill="#fff" stroke="#262424" stroke-linecap="round" stroke-linejoin="round" stroke-width="1.5"/>
        <path id="Path_1322" data-name="Path 1322" d="M336.844,453.583l-15,9.2c-6.328-2.069-5.326-7.822-5.326-7.822L330.2,443.6a10.8,10.8,0,0,1,4.092,3.711A12.906,12.906,0,0,1,336.844,453.583Z" transform="translate(-297.869 -402.463)" fill="#fff" stroke="#262424" stroke-linecap="round" stroke-linejoin="round" stroke-width="1.5"/>
        <path id="Path_1323" data-name="Path 1323" d="M335.716,456.219c-6.179.64-13.1-8.2-10.772-15.495h0l42.6-35.638c12.99-13.815,36.482-1.215,25.125,18.556a13.917,13.917,0,0,1-4.249,3.646l-3.915,2.171-1.6.881Z" transform="translate(-298.449 -399.262)" fill="url(#linear-gradient-5)"/>
        <line id="Line_31" data-name="Line 31" x1="51.336" y2="38.189" transform="translate(35.106 0.564)" fill="none" stroke="#262424" stroke-linecap="round" stroke-linejoin="round" stroke-width="1.5"/>
        <ellipse id="Ellipse_103" data-name="Ellipse 103" cx="12.488" cy="8.49" rx="12.488" ry="8.49" transform="translate(75.551 14.651) rotate(-30.93)" fill="#fff"/>
        <path id="Path_1324" data-name="Path 1324" d="M328.248,443.6a6.941,6.941,0,0,0-.38,2.978,12.934,12.934,0,0,0,2.552,6.281,10.707,10.707,0,0,0,4.1,3.711,8.444,8.444,0,0,0,3.145.826" transform="translate(-298.691 -402.463)" fill="none" stroke="#262424" stroke-linecap="round" stroke-linejoin="round" stroke-width="1.5"/>
      </g>
      <g id="WOMAN_2_RIGHT_THIGH" data-name="WOMAN 2 RIGHT THIGH" transform="translate(142.859 107.864)">
        <path id="Path_1325" data-name="Path 1325" d="M391.149,352.974c-7.358-29.477-9.9-47.486-25.524-51.1-20.681-4.769-29.087,17.48-23.149,39.442S371.4,412.466,371.4,412.466c6.1,16.7,25.933,17.564,30.618,6.495a14.121,14.121,0,0,0,.223-5.372c-.213-1.364-.455-2.95-.733-4.7a.139.139,0,0,0,0-.056C399.165,394.133,394.786,367.634,391.149,352.974Z" transform="translate(-340.613 -301.228)" fill="url(#linear-gradient-6)"/>
        <path id="Path_1326" data-name="Path 1326" d="M368.735,402.454c2.783,6.151,4.639,10.095,4.639,10.095,6.1,16.7,25.933,17.564,30.618,6.495a14.122,14.122,0,0,0,.223-5.372c-.213-1.364-.455-2.95-.733-4.7a.14.14,0,0,0,0-.056c-2.3-14.7-6.662-41.2-10.317-55.827-7.358-29.477-9.9-47.486-25.524-51.1" transform="translate(-342.564 -301.283)" fill="none" stroke="#262424" stroke-linecap="round" stroke-linejoin="round" stroke-width="1.5"/>
        <path id="Path_1327" data-name="Path 1327" d="M354.183,322.81l1.475,8.406a8.462,8.462,0,0,1-2.635,7.729l-3.043,2.783,27.12,68.288" transform="translate(-341.289 -302.786)" fill="none" stroke="#262424" stroke-linecap="round" stroke-linejoin="round" stroke-width="1.5"/>
        <line id="Line_32" data-name="Line 32" x1="3.433" y1="16.422" transform="translate(5.249 22.511)" fill="none" stroke="#262424" stroke-linecap="round" stroke-linejoin="round" stroke-width="1.5"/>
      </g>
      <g id="WOMAN_2_RIGHT_CAL" data-name="WOMAN 2 RIGHT CAL" transform="translate(174.915 198.222)">
        <path id="Path_1328" data-name="Path 1328" d="M417.153,476.513c-1.206,6.1-11.7,10.1-17.981,5.734h0l-21.516-51.2c-9.371-16.506,9.584-35.257,25.163-18.556a14.186,14.186,0,0,1,2.236,5.14l.928,4.379.371,1.791Z" transform="translate(-375.163 -399.147)" fill="url(#linear-gradient-7)"/>
        <path id="Path_1329" data-name="Path 1329" d="M403.783,414.68a14.251,14.251,0,0,1,1.28,3.554l.928,4.379.371,1.791,10.8,52.737c-1.206,6.1-11.7,10.1-17.981,5.734h0l-21.516-51.2a18.686,18.686,0,0,1-2.375-7.051" transform="translate(-375.172 -399.775)" fill="none" stroke="#262424" stroke-linecap="round" stroke-linejoin="round" stroke-width="1.5"/>
        <line id="Line_33" data-name="Line 33" x2="21.358" y2="60.308" transform="translate(2.595 13.736)" fill="none" stroke="#262424" stroke-linecap="round" stroke-linejoin="round" stroke-width="1.5"/>
        <ellipse id="Ellipse_104" data-name="Ellipse 104" cx="8.49" cy="12.488" rx="8.49" ry="12.488" transform="matrix(0.971, -0.238, 0.238, 0.971, 6.921, 4.047)" fill="#fff"/>
        <path id="Path_1330" data-name="Path 1330" d="M420.593,500.831,412,502.761l-8.6-20.709a10.874,10.874,0,0,1,4.741-2.783,12.99,12.99,0,0,1,6.755-.584Z" transform="translate(-377.201 -404.38)" fill="#fff" stroke="#262424" stroke-linecap="round" stroke-linejoin="round" stroke-width="1.5"/>
        <path id="Path_1331" data-name="Path 1331" d="M417.49,479.888a7.042,7.042,0,0,0-2.728-1.234,12.99,12.99,0,0,0-6.755.585,10.874,10.874,0,0,0-4.741,2.783,8.563,8.563,0,0,0-1.716,2.783" transform="translate(-377.067 -404.378)" fill="none" stroke="#262424" stroke-linecap="round" stroke-linejoin="round" stroke-width="1.5"/>
        <path id="Path_1332" data-name="Path 1332" d="M445.067,514.06c-9.909,4.565-21.739,12.3-26.907,11.839l-.445-.065h0a6.337,6.337,0,0,1-2.783-1.1,12.062,12.062,0,0,1-3.711-5.391c-.677-1.605-1.253-3.387-1.856-5.2a51.4,51.4,0,0,1-1.995-12.869s3.711-8.805,13.732-7.979c0,0,13.166,2.18,21.266,1.1,4.287-.566,7.237.408,9.278,1.744a14.735,14.735,0,0,1,3.665,3.563,3.637,3.637,0,0,1,.51.928C457.24,503.929,454.114,509.9,445.067,514.06Z" transform="translate(-377.487 -405.446)" fill="url(#linear-gradient-8)"/>
        <path id="Path_1333" data-name="Path 1333" d="M445.366,514.282c-9.909,4.565-21.739,12.3-26.907,11.839l-.445-.065h0a6.337,6.337,0,0,1-2.783-1.1,12.061,12.061,0,0,1-3.711-5.391,4.463,4.463,0,0,1,.928-3.08c3.433-4.453,18.445-9.594,24.123-13.537,4.964-3.424,9.853-7.1,15.337-6.578a14.735,14.735,0,0,1,3.665,3.563,3.637,3.637,0,0,1,.51.928C457.539,504.151,454.412,510.126,445.366,514.282Z" transform="translate(-377.786 -405.668)" fill="#fff" stroke="#262424" stroke-linecap="round" stroke-linejoin="round" stroke-width="1.5"/>
        <path id="Path_1334" data-name="Path 1334" d="M445.59,514.528c-9.909,4.565-21.739,12.3-26.907,11.839a2.862,2.862,0,0,0-.445-.065h0a4.685,4.685,0,0,1-2.783-1.1c-.928-.826-1.3-2.143,0-4,2.514-3.516,14.353-9.2,20.356-12.99s16.441-11.57,20.5-7.191h0C457.763,504.4,454.637,510.371,445.59,514.528Z" transform="translate(-378.01 -405.913)" stroke="#707070" stroke-linecap="round" stroke-linejoin="round" stroke-width="1.5" fill="url(#linear-gradient-9)"/>
      </g>
      <g id="WOMAN_2_RIGHT_UPPER_ARM" data-name="WOMAN 2 RIGHT UPPER ARM" transform="translate(181.411 39.448)">
        <path id="Path_1335" data-name="Path 1335" d="M402.739,233.883c-3.637-6.254-14.52-9.482-18.853-2.292-3.312,5.493-1.113,13.11.52,18.742,1.188,4.11,9.1,23.344,13.351,32.474a54.237,54.237,0,0,0,3.21,6.346c5.363,11.5,22.268,1.234,17.777-12.869C418.744,276.293,405.541,238.707,402.739,233.883Z" transform="translate(-382.164 -227.49)" fill="url(#linear-gradient-10)"/>
      </g>
      <g id="WOMAN_2_LEFT_ARM" data-name="WOMAN 2 LEFT ARM" transform="translate(199.49 86.21)">
        <path id="Path_1336" data-name="Path 1336" d="M437.561,314.52l3.795,6.124s10.095,6.671,11.208,7.673,5.363,10.123,5.326,12.359-1.466,5.075-2.783,5.984-5.094-7.933-5.094-7.933,3.424,8.248,2.078,9.751-3.025,0-3.85-1.716l-4.036-8.425a19.483,19.483,0,0,0-3.377-4.073,34.207,34.207,0,0,0,1.141,3.878c.928,2.477,2.347,5.391,2.524,6.421s-2.264,2.9-4.259-.585-3.535-7.423-4.361-9.111a12.294,12.294,0,0,1-.714-8.1l-3.238-4.778Z" transform="translate(-403.834 -280.534)" fill="#fff" stroke="#262424" stroke-linecap="round" stroke-linejoin="round" stroke-width="1.5"/>
        <path id="Path_1337" data-name="Path 1337" d="M441.2,315.81l-18.538-31.323c-9.093-13.732-24.541-3.6-20.291,8.35.482,1.03,2.57,3.414,5.335,6.309,7.107,7.423,22.444,24.309,22.444,24.309S439.384,321.544,441.2,315.81Z" transform="translate(-401.649 -277.89)" fill="url(#linear-gradient-11)"/>
      </g>
      <g id="WOMAN_2_BODY" data-name="WOMAN 2 BODY" transform="translate(138.579 31.36)">
        <path id="Path_1338" data-name="Path 1338" d="M385.908,226.533,375.943,224l-20.18,3.925a16.014,16.014,0,0,0-12.887,14.224l4.426,40.388L336,322.349s29.69-4.12,47.514-4.639c9.863-.288,36.677-1.141,36.677-1.141s-15.04-36.686-18.556-51.03c0,0-.1-6.263.418-12.284.315-3.711-3.285-12.294-6.105-18.343A15.244,15.244,0,0,0,385.908,226.533Z" transform="translate(-336 -219.15)" fill="url(#linear-gradient-12)"/>
        <path id="Path_1339" data-name="Path 1339" d="M378.479,218.863c7.274.872,13.064,10.058,5.418,15.522,0,0-1.373-4.008-2.978-5.808a16.7,16.7,0,0,1-1.9,6.643s-8.035-2.44-10.048-8.156S372.819,218.186,378.479,218.863Z" transform="translate(-338.35 -218.772)" fill="#fff" stroke="#262424" stroke-linecap="round" stroke-linejoin="round" stroke-width="1.5"/>
      </g>
      <g id="WOMAN_2_HAIR" data-name="WOMAN 2 HAIR" transform="translate(165.235 7.072)">
        <path id="Path_1340" data-name="Path 1340" d="M365.24,199.206s1.03,16.274-.51,24.55c0,0,12.767,2.783,20.227-2.95s3-27.835-2.913-28.2S365.24,199.206,365.24,199.206Z" transform="translate(-364.73 -192.595)" fill="#262424"/>
      </g>
      <g id="WOMAN_2_NECK" data-name="WOMAN 2 NECK" transform="translate(171.683 22.441)">
        <path id="Path_1341" data-name="Path 1341" d="M381.533,209.16l2.607,13.862s-.148,3.711-3.247,4.157-7.859-1.707-7.859-1.707l-1.355-16.283Z" transform="translate(-371.68 -209.16)" fill="#fff" stroke="#262424" stroke-linecap="round" stroke-linejoin="round" stroke-width="1.5"/>
      </g>
      <g id="WOMAN_2_RIGHT_UPPER_ARM-2" data-name="WOMAN 2 RIGHT UPPER ARM" transform="translate(139.066 41.175)">
        <path id="Path_1342" data-name="Path 1342" d="M366.331,242.015c.13-5.567-5.177-15.773-15.847-11.746-6.56,2.477-9.464,13.147-10.67,19.429-.928,4.639-2.783,27.241-3.164,38.254a60.2,60.2,0,0,0,0,7.757c.547,18.25,21.182,16.7,23.7-3.711C360.31,291.987,366.2,248.064,366.331,242.015Z" transform="translate(-336.525 -229.351)" fill="url(#linear-gradient-13)"/>
      </g>
      <g id="WOMAN_2_RIGHT_ARM" data-name="WOMAN 2 RIGHT ARM" transform="translate(141.459 67.074)">
        <path id="Path_1343" data-name="Path 1343" d="M346.347,286.541c-13.583,7.107-6.56,32.817,8.666,22.36,1.141-.51,3.795-2.783,7.024-5.688,8.3-7.59,27.065-23.956,27.065-23.956s-1.856-10.123-8.053-12.247Z" transform="translate(-339.104 -257.968)" fill="url(#linear-gradient-14)"/>
        <path id="Path_1344" data-name="Path 1344" d="M387.774,266.882l5.8-8.731a2,2,0,0,1,2.5-.705h0a1.995,1.995,0,0,1,.928,2.709l-2.477,4.936,1.03.854a6.244,6.244,0,0,0,4.7,1.392l3.461-.408a9.343,9.343,0,0,0,3.618-1.215l3.813-2.236a1.651,1.651,0,0,1,2.069.315h0a1.661,1.661,0,0,1-.195,2.431l-4.175,3.312-2.375,1.271,1.856-.306a7.969,7.969,0,0,0,2.292-.733l2.607-1.28a1.54,1.54,0,0,1,2.023.612h0a1.54,1.54,0,0,1,.056,1.447l-1.577,3.257a4.528,4.528,0,0,1-2.32,2.208l-6.755,2.783a8.9,8.9,0,0,1-6.68.074l-7.7-3-1.809,1.336s-6.383-3.535-3.925-8.3Z" transform="translate(-342.343 -257.265)" fill="#fff" stroke="#262424" stroke-linecap="round" stroke-linejoin="round" stroke-width="1.5"/>
        <path id="Path_1345" data-name="Path 1345" d="M358.549,280.69l-12.154,6.838A13.184,13.184,0,0,0,339.9,295.3" transform="translate(-339.161 -258.955)" fill="none" stroke="#262424" stroke-linecap="round" stroke-linejoin="round" stroke-width="1.5"/>
        <path id="Path_1346" data-name="Path 1346" d="M380.538,271s-1.911,7.738,7.738,10.206" transform="translate(-342.084 -258.256)" fill="none" stroke="#262424" stroke-linecap="round" stroke-linejoin="round" stroke-width="1.5"/>
      </g>
      <g id="WOMAN_2_HEAD" data-name="WOMAN 2 HEAD" transform="translate(158.764)">
        <path id="Path_1347" data-name="Path 1347" d="M388.923,205.119c0,5.845-2.143,12.72-9.195,12.99-5.187.186-11.3-5.7-12.219-13.537s.046-14.65,9.538-14.762a22.646,22.646,0,0,1,3.025.213c5.567.872,7.692,1.234,8.759,12.006C388.923,202.976,388.914,204.015,388.923,205.119Z" transform="translate(-358.44 -185.322)" fill="#fff"/>
        <path id="Path_1348" data-name="Path 1348" d="M368.42,194.345c1.3-2.783,3.915-4.509,8.712-4.565a22.649,22.649,0,0,1,3.025.213c5.567.872,7.692,1.234,8.759,12.006.093.928.083,2.013.093,3.117,0,5.845-2.143,12.72-9.195,12.99a9.575,9.575,0,0,1-6.142-2.32" transform="translate(-358.525 -185.32)" fill="none" stroke="#262424" stroke-linecap="round" stroke-linejoin="round" stroke-width="1.5"/>
        <path id="Path_1349" data-name="Path 1349" d="M369.865,205.095a5.762,5.762,0,0,0,3.182-4.945,17.235,17.235,0,0,1,.13-2.505c4.472,3.869,12.4,5.734,15.838,6.383a2.607,2.607,0,0,0,2.783-1.253c3.359-6.133-2.347-16.7-9.807-15.773-9.056-5.084-18.556.13-19.317,7.423C361.876,202.506,367.61,206.338,369.865,205.095Z" transform="translate(-358.105 -184.973)" fill="#262424"/>
        <path id="Path_1350" data-name="Path 1350" d="M370.387,185.52s-13.37,1.345-12.6,33.4c0,0,3.832,3.711,12.6,5.8,0,0-3.776-15.077-2.06-22.88a108.243,108.243,0,0,0,2.06-16.32Z" transform="translate(-357.755 -185.012)" fill="#262424"/>
        <path id="Path_1351" data-name="Path 1351" d="M370.492,205.692s-4.064-3.711-8-2.18-1.856,10.874,7.989,9.083Z" transform="translate(-357.962 -186.284)" fill="#fff"/>
        <path id="Path_1352" data-name="Path 1352" d="M371.26,205.89" transform="translate(-358.73 -186.483)" fill="none" stroke="#262424" stroke-linecap="round" stroke-linejoin="round" stroke-width="1.5"/>
        <path id="Path_1353" data-name="Path 1353" d="M370.492,205.692s-4.064-3.711-8-2.18-1.856,10.874,7.989,9.083" transform="translate(-357.962 -186.284)" fill="none" stroke="#262424" stroke-linecap="round" stroke-linejoin="round" stroke-width="1.5"/>
      </g>
    </g>
    <g id="Man_Walking" data-name="Man Walking" transform="translate(6.048 54.036)">
      <g id="MAN_LEFT_THIGH" data-name="MAN LEFT THIGH" transform="translate(48.722 114.609)">
        <path id="Path_1354" data-name="Path 1354" d="M286.937,328.281a9,9,0,0,0,0-.928c-.482-14.168-1.429-32.52-21.683-33.244-22.416-.807-20.83,34.561-19.995,41.019s1.856,14.307,2.153,15.56c.241,1.076,5.957,28.679,10.206,51.8,3.711,18.25,27.547,12.739,27.528-2.719Z" transform="translate(-244.862 -294.095)" fill="url(#linear-gradient-15)"/>
        <line id="Line_34" data-name="Line 34" y1="41.047" x2="1.16" transform="translate(41.008 35.243)" fill="none" stroke="#262424" stroke-linecap="round" stroke-linejoin="round" stroke-width="1.5"/>
        <path id="Path_1355" data-name="Path 1355" d="M261.571,329.07l.39,8.044a10.624,10.624,0,0,1-4.11,8.916h0" transform="translate(-245.8 -296.62)" fill="none" stroke="#262424" stroke-linecap="round" stroke-linejoin="round" stroke-width="1.5"/>
        <line id="Line_35" data-name="Line 35" x2="10.438" y2="75.135" transform="translate(9.898 32.673)" fill="none" stroke="#262424" stroke-linecap="round" stroke-linejoin="round" stroke-width="1.5"/>
      </g>
      <g id="MAN_RIGHT_THIGH" data-name="MAN RIGHT THIGH" transform="translate(16.06 117.685)">
        <path id="Path_1356" data-name="Path 1356" d="M251.978,333.864a7.773,7.773,0,0,0-.288-.928c.789-8.35,1.791-35.526-18.473-35.526-23.975,0-23.557,20.82-23.557,20.82v13.825a50.622,50.622,0,0,0,3.711,18.983c2.5,6.161,5.446,13.361,6.04,14.5.5.974,12.99,26.229,23.047,47.5,8.248,16.7,29.876,5.326,25.933-9.621Z" transform="translate(-209.659 -297.41)" fill="url(#linear-gradient-16)"/>
        <path id="Path_1357" data-name="Path 1357" d="M241.91,415.55c.928,2.032,1.93,4.055,2.858,6.04.093.186.186.353.269.529" transform="translate(-211.987 -305.937)" fill="none" stroke="#262424" stroke-linecap="round" stroke-linejoin="round" stroke-width="1.5"/>
        <path id="Path_1358" data-name="Path 1358" d="M69.77,225.45l9.3,40,6.374,27.037" transform="translate(-27.09 -187.994)" fill="none" stroke="#262424" stroke-linecap="round" stroke-linejoin="round" stroke-width="1.5"/>
        <path id="Path_1359" data-name="Path 1359" d="M227.38,342.1l2.412,7.673a10.633,10.633,0,0,1-1.707,9.668h0" transform="translate(-210.939 -300.636)" fill="none" stroke="#262424" stroke-linecap="round" stroke-linejoin="round" stroke-width="1.5"/>
        <line id="Line_36" data-name="Line 36" x2="29.161" y2="70.032" transform="translate(10.819 43.162)" fill="none" stroke="#262424" stroke-linecap="round" stroke-linejoin="round" stroke-width="1.5"/>
      </g>
      <g id="MAN_RIGHT_CALF" data-name="MAN RIGHT CALF" transform="translate(48.613 216.834)">
        <path id="Path_1360" data-name="Path 1360" d="M77.889,364.386l.019,19.224-7.5-.362L68.62,363.82Z" transform="translate(-59.559 -297.13)" fill="#fff" stroke="#262424" stroke-linecap="round" stroke-linejoin="round" stroke-width="1.5"/>
        <path id="Path_1361" data-name="Path 1361" d="M294.73,522.087v3.34l-41.269.529s-.158-1.735-.325-4.639a228.721,228.721,0,0,1-.121-26.164l13.147-2.283s11.449,11.616,21.628,20.644c1.058.928,2.171,1.856,3.34,2.709C293.45,517.847,294.73,519.9,294.73,522.087Z" transform="translate(-245.319 -410.667)" fill="url(#linear-gradient-17)"/>
        <path id="Path_1362" data-name="Path 1362" d="M262.75,496.81s4.027,7.552,13.138,16.756" transform="translate(-246.044 -410.952)" fill="none" stroke="#262424" stroke-linecap="round" stroke-linejoin="round" stroke-width="1.5"/>
        <ellipse id="Ellipse_105" data-name="Ellipse 105" cx="3.665" cy="4.082" rx="3.665" ry="4.082" transform="translate(10.877 95.875) rotate(-0.74)" fill="#fff" stroke="#262424" stroke-linecap="round" stroke-linejoin="round" stroke-width="1.5"/>
        <path id="Path_1363" data-name="Path 1363" d="M294.764,523.668v3.34l-41.269.529s-.158-1.735-.325-4.639l21.785-.278s1.271-9.724,12.869-7.525c1.058.928,2.171,1.856,3.34,2.709C293.484,519.428,294.764,521.478,294.764,523.668Z" transform="translate(-245.353 -412.248)" fill="#fff" stroke="#262424" stroke-linecap="round" stroke-linejoin="round" stroke-width="1.5"/>
        <path id="Path_1364" data-name="Path 1364" d="M268.938,477.884l3.136-55.994c1.1-11.82-5.307-18.334-14.984-17.554h0c-7.951.241-13.092,10.317-12.257,18.222,3.08,29.282,5.855,55.827,5.855,55.827Z" transform="translate(-244.744 -404.272)" fill="url(#linear-gradient-18)"/>
        <path id="Path_1365" data-name="Path 1365" d="M244.81,421.29c.529,4.982,1.067,12.386,1.559,17.1" transform="translate(-244.749 -405.501)" fill="none" stroke="#262424" stroke-linecap="round" stroke-linejoin="round" stroke-width="1.5"/>
        <path id="Path_1366" data-name="Path 1366" d="M70.126,361.092l-3.925-54.7-3.331-8.9" transform="translate(-59.144 -292.343)" fill="none" stroke="#262424" stroke-linecap="round" stroke-linejoin="round" stroke-width="1.5"/>
        <line id="Line_37" data-name="Line 37" x1="15.29" y2="0.111" transform="translate(6.732 68.824)" fill="none" stroke="#262424" stroke-linecap="round" stroke-linejoin="round" stroke-width="1.5"/>
        <ellipse id="Ellipse_106" data-name="Ellipse 106" cx="6.949" cy="9.937" rx="6.949" ry="9.937" transform="translate(10.887 2.386) rotate(-4.4)" fill="#fff"/>
      </g>
      <g id="MAN_LEFT_UPPER_ARM" data-name="MAN LEFT UPPER ARM" transform="translate(76.298 47.342)">
        <path id="Path_1367" data-name="Path 1367" d="M283.218,221.794c7.515,1.382,24.012,29.579,27.946,44.48s.473,20.032-5.335,21.089-12.99.557-22.268-22.611S269.31,219.243,283.218,221.794Z" transform="translate(-274.583 -221.595)" fill="url(#linear-gradient-19)"/>
      </g>
      <g id="MAN_BODY" data-name="MAN BODY" transform="translate(13.353 19.327)">
        <path id="Path_1368" data-name="Path 1368" d="M206.749,326.376H214v-8.434a2.329,2.329,0,1,1,4.639,0v8.434h69.188s-3.646-41.483-1.382-68.037c2.236-26.378-8.137-36.8-8.137-36.8-38.968-8.879-59.1,2.171-59.1,2.171C206,280,206.749,326.376,206.749,326.376Z" transform="translate(-206.742 -193.326)" fill="url(#linear-gradient-20)"/>
        <path id="Path_1369" data-name="Path 1369" d="M286.86,226.06c2.9,5.14,6.847,15.578,5.372,32.854-.668,7.877-.7,17.063-1.076,26.081" transform="translate(-212.524 -193.902)" fill="none" stroke="#262424" stroke-linecap="round" stroke-linejoin="round" stroke-width="1.5"/>
        <line id="Line_38" data-name="Line 38" x2="61.394" y2="0.436" transform="translate(14.76 127.882)" fill="none" stroke="#262424" stroke-linecap="round" stroke-linejoin="round" stroke-width="1.5"/>
        <path id="Path_1370" data-name="Path 1370" d="M242.14,221.27a16.923,16.923,0,0,0,10.67,9.575,62.769,62.769,0,0,1,3-9.863,25.673,25.673,0,0,1,4.036,9.816,12.117,12.117,0,0,0,8.786-9.751c-.928-7.6-7.5-13.323-13.11-13.138C243.123,208.336,242.14,221.27,242.14,221.27Z" transform="translate(-209.297 -192.591)" fill="#fff" stroke="#262424" stroke-linecap="round" stroke-linejoin="round" stroke-width="1.5"/>
        <path id="Path_1371" data-name="Path 1371" d="M248.74,191.4l.2,7.627.343,12.99c4.389,3.062,8.647,3.387,12.767.3l-.6-6.059-.928-9.167Z" transform="translate(-209.773 -191.4)" fill="#fff" stroke="#262424" stroke-linecap="round" stroke-linejoin="round" stroke-width="1.5"/>
      </g>
      <g id="MAN_RIGHT_UPPER_ARM" data-name="MAN RIGHT UPPER ARM" transform="translate(0 49.45)">
        <path id="Path_1372" data-name="Path 1372" d="M233.276,238.724c-1.336,5.947-15.773,47.838-15.773,47.838-3.934,11.793-13.351,16.144-19.484,13.75-3.98-1.559-6.578-5.975-5.372-13.073a50.877,50.877,0,0,1,1.392-5.307c.371-1.308.752-2.709,1.067-4.045,2.579-10.716,8.87-32.548,10.651-36.872,2.431-5.92,7.376-15.773,14.3-16.942C231.309,222.237,234.5,233.269,233.276,238.724Z" transform="translate(-192.35 -223.867)" fill="url(#linear-gradient-20)"/>
        <path id="Path_1373" data-name="Path 1373" d="M221.795,224.074c11.254-1.856,14.446,9.2,13.221,14.65-1.336,5.947-15.773,47.838-15.773,47.838a26.906,26.906,0,0,1-2.783,5.855" transform="translate(-194.09 -223.866)" fill="none" stroke="#262424" stroke-linecap="round" stroke-linejoin="round" stroke-width="1.5"/>
        <path id="Path_1374" data-name="Path 1374" d="M201.238,296.582a11.366,11.366,0,0,1-3.22,8.248c-3.98-1.559-6.578-5.975-5.372-13.073a50.873,50.873,0,0,1,1.392-5.307C198.056,286.784,201.238,291.2,201.238,296.582Z" transform="translate(-192.35 -228.384)" fill="#fff"/>
      </g>
      <g id="MAN_RIGHT_ARM" data-name="MAN RIGHT ARM" transform="translate(0.082 103.301)">
        <path id="Path_1375" data-name="Path 1375" d="M215.608,300.429c-.353,11.245-.557,36.139-.557,36.139s-8.879,5.2-14.539,1.856l-6.383-32.047-1.392-7a13.732,13.732,0,0,1,3.711-12.544c6.216-6.671,17.629-7.84,18.955,4.556A49.177,49.177,0,0,1,215.608,300.429Z" transform="translate(-192.438 -281.907)" fill="url(#linear-gradient-22)"/>
        <path id="Path_1376" data-name="Path 1376" d="M212.244,283.63c1.921,1.466,3.322,4.017,3.711,7.886.353,1.2.39,4.639.251,9.037-.353,11.245-.557,36.139-.557,36.139s-8.879,5.2-14.539,1.856" transform="translate(-193.064 -282.032)" fill="none" stroke="#262424" stroke-linecap="round" stroke-linejoin="round" stroke-width="1.5"/>
        <path id="Path_1377" data-name="Path 1377" d="M201.245,296.637c0,5.344-3.136,9.733-7.116,10.123l-1.392-7a13.732,13.732,0,0,1,3.711-12.544C199.241,288.7,201.245,292.36,201.245,296.637Z" transform="translate(-192.438 -282.291)" fill="#fff"/>
        <path id="Path_1378" data-name="Path 1378" d="M203.472,340.723a10.41,10.41,0,0,1,10.364-.928l.232,2.626s5.919,12.99,6.495,15.188-1.689,7.617-2.329,8.285-2.524.232-2.524.232.213,1.382-4.491,1.809-8.527-.1-9.38-1.781,2.616-3.053,2.616-3.053l.529-2.932a38.852,38.852,0,0,1-4.324-5.994c-1.382-2.635,3.581-9.937,3.581-9.937Z" transform="translate(-193.014 -286.016)" fill="#fff" stroke="#262424" stroke-linecap="round" stroke-linejoin="round" stroke-width="1.5"/>
        <path id="Path_1379" data-name="Path 1379" d="M201.93,337.593a12.69,12.69,0,0,1,12.72-1.318" transform="translate(-193.123 -285.753)" fill="none" stroke="#262424" stroke-linecap="round" stroke-linejoin="round" stroke-width="1.5"/>
      </g>
      <g id="MAN_LEFT_ARM" data-name="MAN LEFT ARM" transform="translate(59.601 55.723)">
        <path id="Path_1380" data-name="Path 1380" d="M273.06,254.149c8.23,21.191,17.675,32.474,25.487,36.185,4.862,2.338,9.093,1.772,12-1.113a8.823,8.823,0,0,0,2.505-4.788c1.29-7.423-5.919-16.367-5.919-16.367L281.587,246.3Z" transform="translate(-257.776 -231.76)" fill="url(#linear-gradient-23)"/>
        <path id="Path_1381" data-name="Path 1381" d="M305.664,266.823,281.587,246.3l-8.527,7.849c6.931,17.861,14.734,28.651,21.692,33.856" transform="translate(-257.776 -231.76)" fill="none" stroke="#262424" stroke-linecap="round" stroke-linejoin="round" stroke-width="1.5"/>
        <path id="Path_1382" data-name="Path 1382" d="M285.107,251.33s-1.9,6.708-8.777,6.569" transform="translate(-258.012 -232.123)" fill="none" stroke="#262424" stroke-linecap="round" stroke-linejoin="round" stroke-width="1.5"/>
        <path id="Path_1383" data-name="Path 1383" d="M300.436,292.842c4.862,2.338,9.093,1.772,12-1.113a8.824,8.824,0,0,0,2.505-4.788,8.638,8.638,0,0,0-1.856-3.229,8.072,8.072,0,0,0-11.384-.844,7.961,7.961,0,0,0-1.262,9.974Z" transform="translate(-259.665 -234.258)" fill="#fff"/>
        <path id="Path_1384" data-name="Path 1384" d="M261.74,239.775c2.719-.928,8.8,8.462,5.892,10.6S254.448,242.2,261.74,239.775Z" transform="translate(-256.774 -231.284)" fill="#fff" stroke="#262424" stroke-linecap="round" stroke-linejoin="round" stroke-width="1.5"/>
        <path id="Path_1385" data-name="Path 1385" d="M274.441,233.562s6.838,5.762,7.154,10.883-7.423,10.132-12.145,7.729-7.488-10.521-2.969-13.6c0,0-7.423,3.971-9.64,1.011s10.772-9.065,13.825-8.953a4.073,4.073,0,0,1,3.776,2.932Z" transform="translate(-256.587 -230.628)" fill="#fff" stroke="#262424" stroke-linecap="round" stroke-linejoin="round" stroke-width="1.5"/>
      </g>
      <g id="MAN_HEAD" data-name="MAN HEAD" transform="translate(43.738)">
        <path id="Path_1386" data-name="Path 1386" d="M270.7,195.318c-1.587,6.1-4.537,13.231-11.793,10.93-8.619-2.783-13.37-9.881-12.145-18.306s5.836-12.563,15.773-10.039a16.377,16.377,0,0,1,2.468.844c5.567,2.468,7.729,7.719,6.495,13.3C271.25,193.054,271,194.168,270.7,195.318Z" transform="translate(-240.001 -171.046)" fill="#fff"/>
        <path id="Path_1387" data-name="Path 1387" d="M265.293,178.87c5.567,2.468,7.729,7.719,6.495,13.3-.223,1.011-.473,2.125-.77,3.275-1.587,6.1-4.537,13.231-11.793,10.93a18.77,18.77,0,0,1-8.415-5.279" transform="translate(-240.307 -171.169)" fill="none" stroke="#262424" stroke-linecap="round" stroke-linejoin="round" stroke-width="1.5"/>
        <path id="Path_1388" data-name="Path 1388" d="M243.573,188.644a26.307,26.307,0,0,0,2.329,3.9l4.407.928,1.447-3.006s2.848.315,3.711-1.5l.056-.13a25.135,25.135,0,0,0,1.5-7.7s6.328,4.092,10.039,5.057a8.573,8.573,0,0,0,4.509-.408c3.117-.983,6.374-5.316,6.365-8.582v-.065c-.065-4.8-3.006-1.939-3.006-1.939s-.111-3.869-2.431-4.509-4.361,2.607-4.361,2.607a37.66,37.66,0,0,0-13.732-2.719c-9.334,0-8.035,6.615-8.035,6.615S239.286,178.3,243.573,188.644Z" transform="translate(-239.685 -170.57)" fill="#262424"/>
        <path id="Path_1389" data-name="Path 1389" d="M249.241,193.967a6.56,6.56,0,0,0-4.481-8.044,5.845,5.845,0,0,0-2.255-.186c-4.528.5-4.964,10.809,5.808,11.681Z" transform="translate(-239.49 -171.662)" fill="#fff"/>
        <path id="Path_1390" data-name="Path 1390" d="M249.241,193.967a6.56,6.56,0,0,0-4.481-8.044,5.845,5.845,0,0,0-2.255-.186c-4.528.5-4.964,10.809,5.808,11.681" transform="translate(-239.49 -171.662)" fill="none" stroke="#262424" stroke-linecap="round" stroke-linejoin="round" stroke-width="1.5"/>
      </g>
    </g>
    <g id="CHAT_BALLOON" data-name="CHAT BALLOON" transform="translate(107.431 37.363)">
      <path id="Path_1391" data-name="Path 1391" d="M335.838,187.171a9.278,9.278,0,0,0,.408,7.423.492.492,0,0,1-.631.677c-3.665-1.772-4.769-5.493-5.084-7.283-1.021.093-2.05.13-3.1.13a24.512,24.512,0,0,1-3.1-.13c-.325,1.791-1.42,5.511-5.094,7.283a.482.482,0,0,1-.622-.677,9.278,9.278,0,0,0,.408-7.423h0c-10.132-2.394-17.406-9-17.406-16.794,0-9.816,11.551-17.777,25.812-17.777s25.812,7.961,25.812,17.777C353.244,178.161,345.97,184.777,335.838,187.171Z" transform="translate(-301.62 -152.6)" fill="url(#linear-gradient-24)"/>
      <rect id="Rectangle_37" data-name="Rectangle 37" width="25.599" height="4.129" rx="2.064" transform="translate(38.607 16.339) rotate(180)" fill="#fff"/>
      <rect id="Rectangle_38" data-name="Rectangle 38" width="25.599" height="4.129" rx="2.064" transform="translate(38.607 22.583) rotate(180)" fill="#fff"/>
    </g>
    <g id="Ornaments" transform="translate(3.534 84.376)">
      <g id="ORNAMENT_6" data-name="ORNAMENT 6" transform="translate(0 178.337)">
        <circle id="Ellipse_107" data-name="Ellipse 107" cx="6.959" cy="6.959" r="6.959" fill="url(#linear-gradient-25)"/>
      </g>
      <g id="ORNAMENT_5" data-name="ORNAMENT 5" transform="translate(211.014)">
        <circle id="Ellipse_108" data-name="Ellipse 108" cx="5.465" cy="5.465" r="5.465" fill="url(#linear-gradient-26)"/>
      </g>
      <g id="ORNAMENT_4" data-name="ORNAMENT 4" transform="translate(219.55 181.092)">
        <circle id="Ellipse_109" data-name="Ellipse 109" cx="6.959" cy="6.959" r="6.959" fill="url(#linear-gradient-25)"/>
      </g>
      <g id="ORNAMENT_3" data-name="ORNAMENT 3" transform="translate(101.958 185.286)">
        <circle id="Ellipse_110" data-name="Ellipse 110" cx="6.959" cy="6.959" r="6.959" fill="url(#linear-gradient-28)"/>
      </g>
      <g id="ORNAMENT_2" data-name="ORNAMENT 2" transform="translate(105.122 8.415)">
        <circle id="Ellipse_111" data-name="Ellipse 111" cx="3.795" cy="3.795" r="3.795" fill="url(#linear-gradient-29)"/>
      </g>
      <g id="ORNAMENT_1" data-name="ORNAMENT 1" transform="translate(144.777 299.723)">
        <circle id="Ellipse_112" data-name="Ellipse 112" cx="3.98" cy="3.98" r="3.98" fill="url(#linear-gradient-30)"/>
      </g>
    </g>
    <g id="Layer_46" data-name="Layer 46" transform="translate(139.877 0)">
      <path id="Path_1392" data-name="Path 1392" d="M571.005,235.206l-1.345,9.083-8.2,55.038a5.326,5.326,0,0,1-5.27,4.537h-89.7a5.326,5.326,0,0,1-5.261-6.105l7.97-53.47,1.587-10.642a5.326,5.326,0,0,1,5.27-4.537h89.692a5.316,5.316,0,0,1,5.261,6.1Z" transform="translate(-345.582 -120.759)" fill="#fff"/>
      <path id="Path_1393" data-name="Path 1393" d="M556.158,304.214h-89.7a5.707,5.707,0,0,1-5.641-6.541l9.557-64.122a5.752,5.752,0,0,1,5.65-4.871h89.692a5.725,5.725,0,0,1,5.65,6.55l-9.557,64.122A5.743,5.743,0,0,1,556.158,304.214ZM476.022,229.45a4.973,4.973,0,0,0-4.89,4.212l-9.557,64.122a4.927,4.927,0,0,0,4.88,5.66h89.7a4.973,4.973,0,0,0,4.89-4.2l9.547-64.122a4.936,4.936,0,0,0-4.88-5.669ZM570.985,235.175Z" transform="translate(-345.552 -120.728)" fill="#262424"/>
      <path id="Path_1394" data-name="Path 1394" d="M571.335,234.437a4.059,4.059,0,0,1-.056.742l-1.345,9.083v.056H470.24l1.577-10.6a4.945,4.945,0,0,1,4.89-4.212H566.4a4.945,4.945,0,0,1,4.936,4.927Z" transform="translate(-346.237 -120.788)" fill="url(#linear-gradient-31)"/>
      <circle id="Ellipse_113" data-name="Ellipse 113" cx="2.217" cy="2.217" r="2.217" transform="translate(133.764 113.723)" fill="#fff"/>
      <circle id="Ellipse_114" data-name="Ellipse 114" cx="2.217" cy="2.217" r="2.217" transform="translate(144.425 113.723)" fill="#fff"/>
      <circle id="Ellipse_115" data-name="Ellipse 115" cx="2.217" cy="2.217" r="2.217" transform="translate(155.095 113.723)" fill="#fff"/>
      <g id="Group_851" data-name="Group 851" transform="translate(115.969 108.722)" clip-path="url(#clip-path)">
        <path id="Path_1395" data-name="Path 1395" d="M516.27,277.866c-10.1-.445-10.883-5.2-8.889-12.349-1.5-2.347-3.229-5.2-1.7-10.559,1.429-5,10.6-10.633,17.554-4.24h0c.158.046,5.289,1.54,5.381,11.134C528.721,271.566,527.636,278.367,516.27,277.866Z" transform="translate(-464.721 -230.834)" fill="#262424"/>
        <path id="Path_1396" data-name="Path 1396" d="M504.244,298.229c-1.3,5.1-2.7,10.679-4.871,15.43-2.783,4.491-8.935,11.477-13.156,10.716-5.5-1-1.911-14.595-1.048-17.842,0-.158,5.567-9.64,8.248-17.081a16.144,16.144,0,0,1,9.213-9.612S507.2,286.687,504.244,298.229Z" transform="translate(-463.143 -233.143)" fill="url(#linear-gradient-32)"/>
        <path id="Path_1397" data-name="Path 1397" d="M535.823,281.7s-10.354-7.274-32.4-1.986c0,0-8.211,10.791-8.536,21.795-.074,2.783,1.512,7.961,1.475,11.134a188.489,188.489,0,0,1-2.153,25.654l45.862,1.475a206.181,206.181,0,0,0-4.249-58.072Z" transform="translate(-463.936 -232.994)" fill="url(#linear-gradient-33)"/>
        <path id="Path_1398" data-name="Path 1398" d="M496.312,316.408h0a.38.38,0,0,1-.371-.4c0-1.058.056-2.115.065-3.136a32.54,32.54,0,0,0-.761-5.762,29.733,29.733,0,0,1-.705-5.409c.26-8.749,5.418-17.341,7.627-20.625a.39.39,0,0,1,.538-.1.371.371,0,0,1,.1.529c-2.171,3.238-7.246,11.672-7.5,20.217a28.545,28.545,0,0,0,.7,5.251,33.7,33.7,0,0,1,.77,5.91c0,1.021,0,2.088-.065,3.155a.39.39,0,0,1-.4.371Z" transform="translate(-463.96 -233.22)" fill="#262424"/>
        <path id="Path_1399" data-name="Path 1399" d="M538.285,341.378h0l-40.824-.928a.38.38,0,0,1-.38-.39.39.39,0,0,1,.4-.38l40.824.928a.4.4,0,0,1,.38.4.39.39,0,0,1-.4.371Z" transform="translate(-464.143 -237.462)" fill="#262424"/>
        <path id="Path_1400" data-name="Path 1400" d="M525.056,279.183a10.039,10.039,0,0,1-6.337,5.688,36.953,36.953,0,0,0-1.781-5.855,15.234,15.234,0,0,0-2.4,5.827,7.191,7.191,0,0,1-5.214-5.8c.566-4.509,4.453-7.914,7.784-7.794C524.471,271.5,525.056,279.183,525.056,279.183Z" transform="translate(-465.027 -232.522)" fill="#fff"/>
        <path id="Path_1401" data-name="Path 1401" d="M518.686,285.229a.4.4,0,0,1-.2-.056.417.417,0,0,1-.213-.269,34.868,34.868,0,0,0-1.494-5.1,15.312,15.312,0,0,0-1.93,5.057.371.371,0,0,1-.167.269.417.417,0,0,1-.315.046,7.645,7.645,0,0,1-5.493-6.124.158.158,0,0,1,0-.093c.622-4.936,4.815-8.258,8.183-8.137,7.617.26,8.35,8.211,8.35,8.295a.4.4,0,0,1,0,.176,10.485,10.485,0,0,1-6.578,5.91Zm-1.781-6.634h.046a.408.408,0,0,1,.315.241,39.2,39.2,0,0,1,1.707,5.5,9.686,9.686,0,0,0,5.66-5.251c-.093-.928-.993-7.265-7.571-7.488-3.025-.1-6.81,3.043-7.423,7.423a6.736,6.736,0,0,0,4.528,5.307,15.716,15.716,0,0,1,2.394-5.567A.371.371,0,0,1,516.9,278.595Z" transform="translate(-464.994 -232.491)" fill="#262424"/>
        <path id="Path_1402" data-name="Path 1402" d="M521.745,261.44l-.121,4.528-.2,7.747c-2.607,1.856-5.14,2.013-7.58.176l.353-3.6.547-5.456Z" transform="translate(-465.353 -231.815)" fill="#fff"/>
        <path id="Path_1403" data-name="Path 1403" d="M517.345,275.53a6.188,6.188,0,0,1-3.767-1.364.39.39,0,0,1-.158-.343l.928-9.056a.39.39,0,0,1,.213-.306l7.014-3.405a.38.38,0,0,1,.371,0,.353.353,0,0,1,.176.334l-.325,12.275a.343.343,0,0,1-.158.3,7.422,7.422,0,0,1-4.3,1.568Zm-3.136-1.856c2.134,1.512,4.361,1.447,6.8-.2l.306-11.44-6.253,3.034Z" transform="translate(-465.323 -231.783)" fill="#262424"/>
        <path id="Path_1404" data-name="Path 1404" d="M508.351,261.617c.251,3.711,1.178,8.22,5.669,7.682,5.335-.64,8.9-4.277,9.121-9.334s-2.013-7.979-8.081-7.608a9.812,9.812,0,0,0-1.531.223,6.643,6.643,0,0,0-5.27,7.033C508.277,260.225,508.3,260.912,508.351,261.617Z" transform="translate(-464.949 -231.157)" fill="#fff"/>
        <path id="Path_1405" data-name="Path 1405" d="M513.276,269.718a4.333,4.333,0,0,1-2.839-.928c-1.921-1.6-2.347-4.825-2.5-7.126-.056-.705-.074-1.382-.093-2a7.014,7.014,0,0,1,5.567-7.423.39.39,0,1,1,.176.751,6.272,6.272,0,0,0-4.964,6.652,16.471,16.471,0,0,0,.083,1.986c.148,2.153.529,5.177,2.227,6.578a3.758,3.758,0,0,0,3.015.752,10.874,10.874,0,0,0,5.307-2.069.39.39,0,0,1,.473.612,11.589,11.589,0,0,1-5.688,2.217,7.129,7.129,0,0,1-.77,0Z" transform="translate(-464.919 -231.148)" fill="#262424"/>
        <path id="Path_1406" data-name="Path 1406" d="M509.32,253.464s.445,8.35,11.57,8.35c0,0,6.615-2.032,4.389-8.35S512.122,245.578,509.32,253.464Z" transform="translate(-465.027 -230.853)" fill="#262424"/>
        <path id="Path_1407" data-name="Path 1407" d="M480.585,287.337s-2.06-13.862-2.115-14.687,1.457-3.3,4.834-3.563,4.129.928,4.129,1.976.51,5.084.51,5.084-.13-5.084-.065-5.855,1.976-1.206,2.1.065.64,10.373.64,10.373a48.876,48.876,0,0,1,5.567-1.4c1.15-.065,1.021,1.781.445,2.1s-10.336,7.246-10.336,7.246Z" transform="translate(-462.8 -232.364)" fill="#fff"/>
        <path id="Path_1408" data-name="Path 1408" d="M486.224,289.038h-.083l-5.678-1.336a.371.371,0,0,1-.288-.315c-.093-.575-2.06-13.917-2.125-14.725a3.025,3.025,0,0,1,.872-1.856,6.151,6.151,0,0,1,4.314-2.069c1.856-.139,3.182.13,3.906.8a2.162,2.162,0,0,1,.39.492A1.614,1.614,0,0,1,489,269.2h0a1.253,1.253,0,0,1,1.327,1.15c.1,1.113.5,7.979.6,9.9a39.754,39.754,0,0,1,5.159-1.28,1.16,1.16,0,0,1,1.206.928,1.8,1.8,0,0,1-.557,1.921c-.4.232-6.383,4.444-10.3,7.228A.38.38,0,0,1,486.224,289.038Zm-5.335-2.032,5.261,1.234c1.494-1.067,9.668-6.866,10.206-7.172a1.16,1.16,0,0,0,.186-1.039c-.093-.315-.26-.353-.427-.343a47.311,47.311,0,0,0-5.437,1.382.39.39,0,0,1-.334,0,.427.427,0,0,1-.167-.3c0-.093-.51-9.1-.631-10.354,0-.111,0-.455-.557-.455h0c-.4,0-.752.241-.77.39,0,.585,0,4.055.065,5.808a.371.371,0,0,1-.353.39.38.38,0,0,1-.408-.334c0-.158-.51-4.036-.51-5.131a1.29,1.29,0,0,0-.408-.993c-.547-.51-1.7-.724-3.312-.594a5.409,5.409,0,0,0-3.795,1.8,2.375,2.375,0,0,0-.687,1.345C478.866,273.228,480.175,282.144,480.889,287.006Z" transform="translate(-462.77 -232.339)" fill="#262424"/>
        <path id="Path_1409" data-name="Path 1409" d="M479.672,287.58l7.423,2.05s.761,13.741,1.336,19.484.668,14.975-2.867,15.838-12.47-4.036-10.967-12.785C477,298.222,479.672,287.58,479.672,287.58Z" transform="translate(-462.508 -233.701)" fill="url(#linear-gradient-34)"/>
        <path id="Path_1410" data-name="Path 1410" d="M488.83,323.767a.3.3,0,0,1-.13,0,.371.371,0,0,1-.232-.492c1.392-3.878.817-11,.6-13.092l-.631-8.026a.4.4,0,0,1,.362-.408.38.38,0,0,1,.408.353l.631,8.016c.269,2.719.752,9.492-.65,13.416a.39.39,0,0,1-.362.232Z" transform="translate(-463.52 -234.724)" fill="#262424"/>
        <path id="Path_1411" data-name="Path 1411" d="M486.576,294.441h-.111l-6.588-1.67a.388.388,0,1,1,.195-.752l6.578,1.67a.39.39,0,0,1-.093.761Z" transform="translate(-462.881 -234.021)" fill="#262424"/>
        <circle id="Ellipse_116" data-name="Ellipse 116" cx="1.048" cy="1.048" r="1.048" transform="translate(17.952 55.391)" fill="#fff"/>
        <path id="Path_1412" data-name="Path 1412" d="M481.948,291.666a1.438,1.438,0,1,1,1.438-1.438,1.438,1.438,0,0,1-1.438,1.438Zm0-2.106a.668.668,0,1,0,.668.668.668.668,0,0,0-.668-.668Z" transform="translate(-462.947 -233.789)" fill="#262424"/>
        <path id="Path_1413" data-name="Path 1413" d="M538.571,282s12.99,6.495,11.876,58.017h-16.84s.2-34.227-1.011-42.374C531.093,287.446,535.389,282.232,538.571,282Z" transform="translate(-466.684 -233.299)" fill="url(#linear-gradient-35)"/>
        <path id="Path_1414" data-name="Path 1414" d="M533.6,333.639a.38.38,0,0,1-.39-.38c0-10.8-.158-29.774-1.021-35.563-1.308-8.721,1.577-13.778,4.444-15.457a.39.39,0,0,1,.39.668c-2.876,1.679-5.251,6.866-4.073,14.678.872,5.836,1.021,24.856,1.03,35.675a.38.38,0,0,1-.38.38Z" transform="translate(-466.654 -233.313)" fill="#262424"/>
        <path id="Path_1415" data-name="Path 1415" d="M521.789,263.282a3.906,3.906,0,0,1,3.507-4.2,3.71,3.71,0,0,1,1.336.148c2.589.789,1.689,6.857-4.695,6.17Z" transform="translate(-465.926 -231.643)" fill="#fff"/>
        <path id="Path_1416" data-name="Path 1416" d="M522.884,265.8a7.311,7.311,0,0,1-.993-.046.39.39,0,1,1,.083-.77c3.563.38,5.214-1.392,5.567-3.025a1.948,1.948,0,0,0-1.021-2.4,3.146,3.146,0,0,0-1.188-.121,3.5,3.5,0,0,0-3.155,3.785.381.381,0,0,1-.353.408.39.39,0,0,1-.418-.353,4.277,4.277,0,0,1,3.869-4.639,3.952,3.952,0,0,1,1.475.158,2.691,2.691,0,0,1,1.549,3.285C527.866,264.03,526.057,265.8,522.884,265.8Z" transform="translate(-465.898 -231.611)" fill="#262424"/>
      </g>
      <circle id="Ellipse_117" data-name="Ellipse 117" cx="9.779" cy="9.779" r="9.779" transform="translate(190.445 158.184)" fill="url(#linear-gradient-36)"/>
      <path id="Path_1418" data-name="Path 1418" d="M554.4,295.349a12.99,12.99,0,0,1-5.8,3.229,1.392,1.392,0,0,1-1.188-.408l-1.039-.965a1.188,1.188,0,0,1-.158-1.642l1.2-1.206a1.178,1.178,0,0,1,1.642.167l.566.566a3.711,3.711,0,0,0,.993-.288,5.808,5.808,0,0,0,3.164-3.164,3.712,3.712,0,0,0,.288-.993l-.566-.566a1.178,1.178,0,0,1-.167-1.642l1.2-1.2a1.178,1.178,0,0,1,1.642.167l1.039,1.039a1.318,1.318,0,0,1,.408,1.178A13.036,13.036,0,0,1,554.4,295.349Z" transform="translate(-351.702 -124.936)" fill="#fff"/>
      <path id="Path_1419" data-name="Path 1419" d="M571.005,128.885l-1.345,9.083-8.2,55.038a5.326,5.326,0,0,1-5.27,4.537h-89.7a5.316,5.316,0,0,1-5.261-6.105l7.97-53.47,1.587-10.651a5.326,5.326,0,0,1,5.27-4.537h89.692a5.316,5.316,0,0,1,5.261,6.105Z" transform="translate(-345.582 -113.084)" fill="#fff"/>
      <path id="Path_1420" data-name="Path 1420" d="M556.158,197.9h-89.7a5.725,5.725,0,0,1-5.641-6.55l9.557-64.122a5.752,5.752,0,0,1,5.65-4.871h89.692a5.725,5.725,0,0,1,5.65,6.55l-9.557,64.122a5.752,5.752,0,0,1-5.65,4.871ZM476.022,123.13a4.908,4.908,0,0,0-4.89,4.212l-9.557,64.122a4.936,4.936,0,0,0,4.88,5.715h89.7a4.973,4.973,0,0,0,4.89-4.212l9.547-64.122a4.936,4.936,0,0,0-4.88-5.669ZM570.985,128.855Z" transform="translate(-345.552 -113.054)" fill="#262424"/>
      <path id="Path_1421" data-name="Path 1421" d="M571.335,128.117a4,4,0,0,1-.056.742l-1.345,9.083V138H470.24l1.577-10.6a4.945,4.945,0,0,1,4.89-4.212H566.4a4.945,4.945,0,0,1,4.936,4.927Z" transform="translate(-346.237 -113.114)" fill="url(#linear-gradient-29)"/>
      <circle id="Ellipse_118" data-name="Ellipse 118" cx="2.217" cy="2.217" r="2.217" transform="translate(133.764 15.077)" fill="#fff"/>
      <circle id="Ellipse_119" data-name="Ellipse 119" cx="2.217" cy="2.217" r="2.217" transform="translate(144.425 15.077)" fill="#fff"/>
      <circle id="Ellipse_120" data-name="Ellipse 120" cx="2.217" cy="2.217" r="2.217" transform="translate(155.095 15.077)" fill="#fff"/>
      <g id="Group_852" data-name="Group 852" transform="translate(115.962 10.076)" clip-path="url(#clip-path-2)">
        <path id="Path_1422" data-name="Path 1422" d="M504.894,191.709c-1.308,5.1-2.709,10.679-4.88,15.43-2.783,4.491-8.926,11.486-13.147,10.716-5.5-1-1.921-14.595-1.058-17.842.046-.148,4.639-10.967,7.348-18.408s7.682-8.285,7.682-8.285S507.854,180.167,504.894,191.709Z" transform="translate(-463.182 -126.808)" fill="url(#linear-gradient-38)"/>
        <path id="Path_1423" data-name="Path 1423" d="M536.463,175.156s-12.776-7.274-34.83-1.986c0,0-6.031,5.678-5.753,19.967.288,14.771-1.03,38.607-1.03,38.607l45.871,1.438A206.42,206.42,0,0,0,536.463,175.156Z" transform="translate(-463.975 -126.658)" fill="url(#linear-gradient-39)"/>
        <path id="Path_1424" data-name="Path 1424" d="M538.932,234.868h0l-40.871-.928a.371.371,0,0,1-.371-.39.38.38,0,0,1,.38-.38h0l40.824.928a.387.387,0,0,1,.037.77Z" transform="translate(-464.18 -131.128)" fill="#262424"/>
        <path id="Path_1425" data-name="Path 1425" d="M495.81,209.579h0a.38.38,0,0,1-.38-.39l.4-22h0c.835-7.014,3.266-11.134,4.639-12.943a.381.381,0,1,1,.612.455c-1.327,1.763-3.711,5.734-4.491,12.563l-.4,21.971A.38.38,0,0,1,495.81,209.579Z" transform="translate(-464.017 -126.864)" fill="#262424"/>
        <path id="Path_1426" data-name="Path 1426" d="M525.705,172.663a10.067,10.067,0,0,1-6.346,5.688,37.374,37.374,0,0,0-1.772-5.855,15.143,15.143,0,0,0-2.4,5.827,7.2,7.2,0,0,1-5.224-5.79c.575-4.518,4.454-7.924,7.794-7.8C525.111,164.98,525.705,172.663,525.705,172.663Z" transform="translate(-465.066 -126.188)" fill="#fff"/>
        <path id="Path_1427" data-name="Path 1427" d="M519.329,178.71a.362.362,0,0,1-.195-.056.408.408,0,0,1-.186-.26,32.693,32.693,0,0,0-1.494-5.1,15.431,15.431,0,0,0-1.921,5.066.39.39,0,0,1-.176.26.4.4,0,0,1-.306.046,7.654,7.654,0,0,1-5.5-6.124v-.093c.622-4.936,4.815-8.248,8.183-8.137,7.617.26,8.35,8.211,8.35,8.295a.3.3,0,0,1,0,.176,10.475,10.475,0,0,1-6.578,5.91Zm-1.772-6.634h.046a.353.353,0,0,1,.306.232,38.668,38.668,0,0,1,1.716,5.5,9.714,9.714,0,0,0,5.66-5.251c-.093-.928-.993-7.265-7.58-7.488h-.139c-3,0-6.68,3.117-7.246,7.423a6.736,6.736,0,0,0,4.537,5.307,15.5,15.5,0,0,1,2.384-5.567.418.418,0,0,1,.315-.158Z" transform="translate(-465.036 -126.158)" fill="#262424"/>
        <path id="Path_1428" data-name="Path 1428" d="M522.385,154.92l-.121,4.528-.2,7.747c-2.6,1.856-5.14,2.013-7.58.176l.362-3.6.538-5.456Z" transform="translate(-465.392 -125.48)" fill="#fff"/>
        <path id="Path_1429" data-name="Path 1429" d="M517.985,169.011a6.188,6.188,0,0,1-3.767-1.364.362.362,0,0,1-.148-.343l.928-9.056a.371.371,0,0,1,.213-.306l7.005-3.405a.39.39,0,0,1,.557.362l-.325,12.275a.409.409,0,0,1-.167.306,7.422,7.422,0,0,1-4.3,1.531Zm-3.127-1.856c2.125,1.512,4.351,1.447,6.8-.2l.3-11.44-6.244,3.034Z" transform="translate(-465.362 -125.45)" fill="#262424"/>
        <path id="Path_1430" data-name="Path 1430" d="M508.992,155.1c.251,3.711,1.178,8.221,5.669,7.682,5.344-.64,8.907-4.277,9.121-9.334s-2-7.979-8.081-7.608a9.807,9.807,0,0,0-1.531.223,6.625,6.625,0,0,0-5.261,7.033C508.927,153.715,508.992,154.392,508.992,155.1Z" transform="translate(-464.988 -124.822)" fill="#fff"/>
        <path id="Path_1431" data-name="Path 1431" d="M513.925,163.2a4.315,4.315,0,0,1-2.839-.928c-1.93-1.6-2.347-4.825-2.505-7.126,0-.705-.074-1.382-.093-2a7.005,7.005,0,0,1,5.567-7.423.381.381,0,1,1,.176.742,6.272,6.272,0,0,0-4.973,6.652c0,.622.046,1.29.093,1.986.139,2.153.529,5.177,2.217,6.578a3.758,3.758,0,0,0,3.015.752,10.79,10.79,0,0,0,5.316-2.069.384.384,0,1,1,.464.612,11.589,11.589,0,0,1-5.688,2.218A5.269,5.269,0,0,1,513.925,163.2Z" transform="translate(-464.958 -124.815)" fill="#262424"/>
        <path id="Path_1432" data-name="Path 1432" d="M525.151,154.072a15.864,15.864,0,0,1-1.791,2.013l-2.681.074-.5-1.911s-1.7-.139-2.013-1.3a.308.308,0,0,1,0-.074,14.846,14.846,0,0,1,0-4.639,30.044,30.044,0,0,1-6.374,1.856,5.057,5.057,0,0,1-2.589-.733,6.309,6.309,0,0,1-2.784-5.725h0c.575-2.783,1.976-.8,1.976-.8s.492-2.255,1.921-2.366,2.255,2,2.255,2a22.267,22.267,0,0,1,8.35-.056c5.446,1.021,3.953,4.75,3.953,4.75S528.807,148.5,525.151,154.072Z" transform="translate(-464.809 -124.437)" fill="#262424"/>
        <path id="Path_1433" data-name="Path 1433" d="M522.429,156.763a3.888,3.888,0,0,1,3.507-4.194,3.5,3.5,0,0,1,1.336.139c2.589.789,1.7,6.857-4.639,6.17Z" transform="translate(-465.965 -125.309)" fill="#fff"/>
        <path id="Path_1434" data-name="Path 1434" d="M523.513,159.291a9.6,9.6,0,0,1-1-.056.39.39,0,0,1,.083-.77c3.563.38,5.224-1.392,5.567-3.025a1.958,1.958,0,0,0-1.021-2.4,3.183,3.183,0,0,0-1.188-.121,3.507,3.507,0,0,0-3.164,3.786.381.381,0,0,1-.761.056,4.277,4.277,0,0,1,3.86-4.639,3.925,3.925,0,0,1,1.475.158,2.681,2.681,0,0,1,1.549,3.284C528.5,157.51,526.7,159.291,523.513,159.291Z" transform="translate(-465.936 -125.277)" fill="#262424"/>
        <path id="Path_1435" data-name="Path 1435" d="M481.225,180.827s-2.05-13.871-2.115-14.7,1.466-3.3,4.834-3.563,4.138.928,4.138,1.976.5,5.084.5,5.084-.121-5.084-.056-5.845,1.967-1.215,2.1.056.631,10.373.631,10.373a48.6,48.6,0,0,1,5.567-1.4c1.141-.065,1.011,1.781.445,2.1s-10.336,7.256-10.336,7.256Z" transform="translate(-462.839 -126.03)" fill="#fff"/>
        <path id="Path_1436" data-name="Path 1436" d="M486.874,182.514h-.093l-5.678-1.336a.39.39,0,0,1-.288-.315c-.083-.566-2.05-13.917-2.115-14.725a2.96,2.96,0,0,1,.863-1.9,6.2,6.2,0,0,1,4.324-2.069c1.856-.139,3.173.13,3.9.8a2.163,2.163,0,0,1,.39.492,1.605,1.605,0,0,1,1.466-.816,1.234,1.234,0,0,1,1.336,1.141c.111,1.113.5,7.979.612,9.9a38.087,38.087,0,0,1,5.149-1.271,1.132,1.132,0,0,1,1.206.928,1.781,1.781,0,0,1-.547,1.921c-.408.232-6.383,4.454-10.3,7.228a.4.4,0,0,1-.223.028Zm-5.335-2.032,5.251,1.234c1.494-1.067,9.677-6.866,10.206-7.172a1.178,1.178,0,0,0,.195-1.039c-.093-.315-.269-.353-.427-.343a47.945,47.945,0,0,0-5.446,1.382.362.362,0,0,1-.325,0,.39.39,0,0,1-.167-.3c0-.093-.51-9.1-.64-10.345,0-.121,0-.464-.547-.464h0c-.4,0-.761.241-.77.39-.046.585,0,4.055.065,5.808a.386.386,0,0,1-.77.056c0-.158-.51-4.036-.51-5.131a1.28,1.28,0,0,0-.4-.993c-.557-.51-1.707-.714-3.322-.594a5.428,5.428,0,0,0-3.795,1.8,2.449,2.449,0,0,0-.687,1.345C479.516,166.7,480.834,175.621,481.539,180.482Z" transform="translate(-462.809 -126.001)" fill="#262424"/>
        <path id="Path_1437" data-name="Path 1437" d="M480.312,181.06l7.423,2.05s.761,13.741,1.336,19.484.668,14.975-2.858,15.838-12.47-4.036-10.976-12.785C477.64,191.7,480.312,181.06,480.312,181.06Z" transform="translate(-462.547 -127.367)" fill="url(#linear-gradient-40)"/>
        <path id="Path_1438" data-name="Path 1438" d="M489.47,217.291h-.13a.38.38,0,0,1-.232-.492c1.392-3.878.816-11,.612-13.092l-.631-8.026a.39.39,0,0,1,.77-.056l.622,8.016c.278,2.719.761,9.492-.649,13.416A.39.39,0,0,1,489.47,217.291Z" transform="translate(-463.559 -128.396)" fill="#262424"/>
        <path id="Path_1439" data-name="Path 1439" d="M487.221,187.921h-.093l-6.578-1.67a.39.39,0,0,1,.186-.752l6.588,1.67a.39.39,0,0,1-.1.761Z" transform="translate(-462.925 -127.687)" fill="#262424"/>
        <circle id="Ellipse_121" data-name="Ellipse 121" cx="1.048" cy="1.048" r="1.048" transform="translate(18.553 55.205)" fill="#fff"/>
        <path id="Path_1440" data-name="Path 1440" d="M482.588,185.146a1.438,1.438,0,1,1,1.438-1.438A1.438,1.438,0,0,1,482.588,185.146Zm0-2.106a.668.668,0,1,0,.668.668.668.668,0,0,0-.668-.668Z" transform="translate(-462.986 -127.454)" fill="#262424"/>
        <path id="Path_1441" data-name="Path 1441" d="M539.211,175.46s12.99,6.495,11.876,58.017H534.256s.2-34.227-1.021-42.374C531.714,180.925,536.038,175.711,539.211,175.46Z" transform="translate(-466.723 -126.963)" fill="url(#linear-gradient-41)"/>
        <path id="Path_1442" data-name="Path 1442" d="M534.235,227.117a.38.38,0,0,1-.38-.38c0-10.8-.158-29.774-1.03-35.563-1.308-8.722,1.577-13.778,4.454-15.458a.384.384,0,0,1,.38.668c-2.867,1.679-5.242,6.875-4.073,14.678.928,5.836,1.021,24.856,1.039,35.675a.38.38,0,0,1-.39.38Z" transform="translate(-466.693 -126.978)" fill="#262424"/>
      </g>
      <circle id="Ellipse_122" data-name="Ellipse 122" cx="9.779" cy="9.779" r="9.779" transform="translate(190.445 59.538)" fill="url(#linear-gradient-42)"/>
      <path id="Path_1444" data-name="Path 1444" d="M554.4,189.05a12.99,12.99,0,0,1-5.8,3.229,1.364,1.364,0,0,1-1.188-.408l-1.039-1.039a1.188,1.188,0,0,1-.158-1.642l1.2-1.206a1.178,1.178,0,0,1,1.642.167l.566.566a3.712,3.712,0,0,0,1.011-.325,5.808,5.808,0,0,0,3.164-3.164,3.712,3.712,0,0,0,.288-.993l-.566-.566a1.178,1.178,0,0,1-.167-1.642l1.2-1.2a1.178,1.178,0,0,1,1.642.167l1.039,1.039a1.327,1.327,0,0,1,.408,1.178,12.989,12.989,0,0,1-3.238,5.836Z" transform="translate(-351.702 -117.255)" fill="#fff"/>
      <path id="Path_1445" data-name="Path 1445" d="M428.81,227.079v11.5A3.869,3.869,0,0,0,432.7,242.5h16.311l3.034,3.043a.436.436,0,0,0,.742-.306v-2.783H456a3.869,3.869,0,0,0,3.869-3.869v-11.5A3.869,3.869,0,0,0,456,223.21H432.7a3.869,3.869,0,0,0-3.888,3.869Z" transform="translate(-343.246 -120.333)" fill="url(#linear-gradient-43)"/>
      <rect id="Rectangle_39" data-name="Rectangle 39" width="22.871" height="2.431" rx="1.215" transform="translate(112.526 110.995) rotate(180)" fill="#fff"/>
      <rect id="Rectangle_40" data-name="Rectangle 40" width="9.872" height="2.431" rx="1.215" transform="translate(112.517 116.432) rotate(180)" fill="#fff"/>
      <path id="Path_1446" data-name="Path 1446" d="M411.39,126.073v17.462a5.873,5.873,0,0,0,5.873,5.873h24.754l4.639,4.639a.659.659,0,0,0,1.123-.464v-4.147h4.88a5.864,5.864,0,0,0,5.873-5.873V126.073a5.864,5.864,0,0,0-5.873-5.873h-35.4a5.873,5.873,0,0,0-5.873,5.873Z" transform="translate(-341.989 -112.898)" fill="url(#linear-gradient-44)"/>
      <path id="Path_1447" data-name="Path 1447" d="M453.393,118.2v17.462a5.864,5.864,0,0,1-5.873,5.873H422.765l-4.639,4.639a.659.659,0,0,1-1.123-.464v-4.147h-4.88a5.873,5.873,0,0,1-5.873-5.873V118.2a5.873,5.873,0,0,1,5.873-5.873h35.369a5.864,5.864,0,0,1,5.9,5.873Z" transform="translate(-341.618 -112.33)" fill="url(#linear-gradient-45)"/>
      <rect id="Rectangle_41" data-name="Rectangle 41" width="34.728" height="3.693" rx="1.846" transform="translate(70.849 8.629)" fill="#fff"/>
      <rect id="Rectangle_42" data-name="Rectangle 42" width="14.994" height="3.693" rx="1.846" transform="translate(70.849 16.896)" fill="#fff"/>
      <path id="Path_1448" data-name="Path 1448" d="M525.53,349.529a.39.39,0,0,1-.39-.39V346.55a.385.385,0,0,1,.77,0v2.589a.381.381,0,0,1-.38.39Z" transform="translate(-350.199 -129.208)" fill="url(#linear-gradient-2)"/>
      <path id="Path_1449" data-name="Path 1449" d="M529.54,351.15h-2.57a.39.39,0,0,1-.39-.39.38.38,0,0,1,.39-.38h2.589a.38.38,0,0,1,.38.38.39.39,0,0,1-.4.39Z" transform="translate(-350.303 -129.512)" fill="url(#linear-gradient-47)"/>
      <path id="Path_1450" data-name="Path 1450" d="M525.53,355.159a.39.39,0,0,1-.39-.39V352.18a.385.385,0,0,1,.77,0v2.589a.381.381,0,0,1-.38.39Z" transform="translate(-350.199 -129.615)" fill="url(#linear-gradient-2)"/>
      <path id="Path_1451" data-name="Path 1451" d="M523.908,351.15H521.32a.39.39,0,0,1-.39-.39.381.381,0,0,1,.39-.38h2.589a.385.385,0,0,1,0,.77Z" transform="translate(-349.895 -129.512)" fill="url(#linear-gradient-49)"/>
      <path id="Path_1452" data-name="Path 1452" d="M340.58,173.768a.38.38,0,0,1-.38-.39V171.17a.385.385,0,0,1,.77,0v2.208a.39.39,0,0,1-.39.39Z" transform="translate(-336.85 -116.549)" fill="url(#linear-gradient-50)"/>
      <path id="Path_1453" data-name="Path 1453" d="M344,175.19H341.79a.385.385,0,0,1,0-.77H344a.38.38,0,0,1,.39.38.39.39,0,0,1-.39.39Z" transform="translate(-336.938 -116.811)" fill="url(#linear-gradient-49)"/>
      <path id="Path_1454" data-name="Path 1454" d="M340.58,178.605a.38.38,0,0,1-.38-.39V175.97a.385.385,0,0,1,.77,0v2.208a.39.39,0,0,1-.39.427Z" transform="translate(-336.85 -116.896)" fill="url(#linear-gradient-52)"/>
      <path id="Path_1455" data-name="Path 1455" d="M339.2,175.19H336.97a.385.385,0,0,1,0-.77h2.208a.38.38,0,0,1,.39.38.39.39,0,0,1-.371.39Z" transform="translate(-336.59 -116.811)" fill="url(#linear-gradient-53)"/>
      <path id="Path_1456" data-name="Path 1456" d="M572.49,215.262a.39.39,0,0,1-.38-.39v-2.208a.39.39,0,0,1,.77,0v2.208a.39.39,0,0,1-.39.39Z" transform="translate(-353.59 -119.548)" fill="url(#linear-gradient-54)"/>
      <path id="Path_1457" data-name="Path 1457" d="M575.909,216.64H573.7a.385.385,0,0,1,0-.77h2.208a.38.38,0,0,1,.39.38A.39.39,0,0,1,575.909,216.64Z" transform="translate(-353.677 -119.803)" fill="url(#linear-gradient-49)"/>
      <path id="Path_1458" data-name="Path 1458" d="M572.49,220.062a.39.39,0,0,1-.38-.39v-2.208a.39.39,0,0,1,.77,0v2.208A.39.39,0,0,1,572.49,220.062Z" transform="translate(-353.59 -119.895)" fill="url(#linear-gradient-54)"/>
      <path id="Path_1459" data-name="Path 1459" d="M571.109,216.64H568.9a.385.385,0,0,1,0-.77h2.208a.38.38,0,0,1,.39.38.39.39,0,0,1-.39.39Z" transform="translate(-353.33 -119.803)" fill="url(#linear-gradient-49)"/>
      <circle id="Ellipse_123" data-name="Ellipse 123" cx="1.642" cy="1.642" r="1.642" transform="translate(13.073 161.293)" fill="url(#linear-gradient-29)"/>
      <circle id="Ellipse_124" data-name="Ellipse 124" cx="3.21" cy="3.21" r="3.21" transform="translate(197.014 223.995)" fill="url(#linear-gradient-59)"/>
      <circle id="Ellipse_125" data-name="Ellipse 125" cx="6.328" cy="6.328" r="6.328" transform="translate(138.097 204.139)" fill="url(#linear-gradient-60)"/>
    </g>
  </g>
</svg>
