<svg xmlns="http://www.w3.org/2000/svg" width="2380.559" height="2099.193" viewBox="0 0 2380.559 2099.193">
  <g id="Waimakariri_03" data-name="Waimakariri 03" transform="translate(238.772 595.99)" opacity="0.06">
    <path id="Shape" d="M166.363,43.02c-18.456,7.075-32.552,14.4-42.446,21.826-10.43,7.827-16.2,15.771-17.438,23.617-1.305,8.278,2.44,16.428,11.058,24.155,9.068,8.13,23.472,15.739,42.847,22.445,20.233,7,44.4,13.464,71.242,19.594,27.907,6.374,58.584,12.362,90.682,18.231,33.285,6.086,68.025,12.031,102.844,18.158,36.1,6.352,72.3,12.9,107.239,20.042a577.666,577.666,0,0,0,114.1,11.194c38.935.018,76.186-3.742,108.717-10.97,31.656-7.033,57.85-17.131,76.326-29.731,17.472-11.915,27.584-25.761,29.047-40.948,1.354-14.057-4.9-27.437-16.445-39.444-10.753-11.183-26.173-21.258-44.609-29.768-17.394-8.03-37.706-14.776-59.834-19.883a446.942,446.942,0,0,0-69.278-10.1c-24.256-1.682-48.6-4.011-72.717-6.629-23.5-2.551-46.678-5.364-69.422-8.121-22.123-2.681-43.843-5.311-65.212-7.613-20.846-2.246-41.456-4.191-62.009-5.589-20.191-1.374-40.631-1.778-60.774-1.274-20.111.5-40.245,1.917-59.838,4.224a558.278,558.278,0,0,0-58.308,9.912A411.67,411.67,0,0,0,166.363,43.02Z" transform="translate(79.189 85.852)" fill="#707070"/>
    <path id="Shape-2" data-name="Shape" d="M113.419,0C178.5,0,226.044,50.024,226.044,111.731S170.856,231.092,113.419,223.462-7.873,179.191.795,111.731,48.337,0,113.419,0Z" transform="matrix(-0.777, 0.629, -0.629, -0.777, 1894.66, 99.46)" fill="#707070"/>
    <path id="Shape-3" data-name="Shape" d="M113.419,0C178.5,0,226.044,50.024,226.044,111.731S170.856,231.092,113.419,223.462-7.873,179.191.795,111.731,48.337,0,113.419,0Z" transform="matrix(-0.777, 0.629, -0.629, -0.777, 651.746, -144.384)" fill="#707070"/>
    <path id="Shape-4" data-name="Shape" d="M50.888,0c29.2,0,50.53,22.635,50.53,50.554s-24.761,54.007-50.53,50.554S-3.532,81.078.356,50.554,21.688,0,50.888,0Z" transform="matrix(-0.777, 0.629, -0.629, -0.777, 2039.493, 215.097)" fill="#707070"/>
    <path id="Shape-5" data-name="Shape" d="M89.622,0c51.427,0,88.995,39.863,88.995,89.037s-43.608,95.118-88.995,89.037S-6.222,142.795.628,89.036,38.2,0,89.622,0Z" transform="matrix(-0.777, 0.629, -0.629, -0.777, 164.262, 254.916)" fill="#707070"/>
    <path id="Shape-6" data-name="Shape" d="M50.888,0c29.2,0,50.53,22.635,50.53,50.554s-24.761,54.007-50.53,50.554S-3.532,81.078.356,50.554,21.688,0,50.888,0Z" transform="matrix(-0.777, 0.629, -0.629, -0.777, 1990.881, -14.703)" fill="#707070"/>
    <path id="Shape-7" data-name="Shape" d="M50.888,0c29.2,0,50.53,22.635,50.53,50.554s-24.761,54.007-50.53,50.554S-3.532,81.078.356,50.554,21.688,0,50.888,0Z" transform="matrix(-0.777, 0.629, -0.629, -0.777, 1476.521, 234.751)" fill="#707070"/>
    <path id="Shape-8" data-name="Shape" d="M23.13,0A22.607,22.607,0,0,1,46.1,22.982c0,12.691-11.255,24.549-22.969,22.979S-1.606,36.857.162,22.982,9.858,0,23.13,0Z" transform="matrix(-0.777, 0.629, -0.629, -0.777, 471.18, -315.169)" fill="#707070"/>
    <path id="Shape-9" data-name="Shape" d="M170,.3c93.66-5.443,161.517,64.1,169.588,161.439S263.662,336.675,170,323.177,7.413,254.3.413,161.738,76.341,5.741,170,.3Z" transform="matrix(-0.777, 0.629, -0.629, -0.777, 2141.788, -267.008)" fill="#707070"/>
    <path id="Shape-10" data-name="Shape" d="M57.332.1C88.919-1.735,111.8,21.719,114.525,54.545s-25.606,59-57.193,54.445S2.5,85.761.139,54.545,25.746,1.936,57.332.1Z" transform="matrix(-0.777, 0.629, -0.629, -0.777, 1160.768, 241.037)" fill="#707070"/>
    <path id="Shape-11" data-name="Shape" d="M203.907.375C316.248-6.464,397.638,80.914,407.319,203.211S316.248,423,203.907,406.046,8.892,319.507.5,203.21,91.567,7.213,203.907.375Z" transform="matrix(-0.777, 0.629, -0.629, -0.777, 335.019, -278.938)" fill="#707070"/>
    <path id="Shape-12" data-name="Shape" d="M101.437.187c55.886-3.4,96.374,40.065,101.19,100.9s-45.3,109.34-101.19,100.9S4.423,158.943.247,101.09,45.551,3.588,101.437.187Z" transform="matrix(-0.777, 0.629, -0.629, -0.777, 1646.693, -339.262)" fill="#707070"/>
    <path id="Shape-13" data-name="Shape" d="M25.346.047C39.309-.8,49.427,10.057,50.629,25.258S39.309,52.579,25.346,50.471,1.106,39.714.062,25.259,11.382.9,25.346.047Z" transform="matrix(-0.777, 0.629, -0.629, -0.777, 406.339, 1358.886)" fill="#707070"/>
    <path id="Shape-14" data-name="Shape" d="M12.677.023C19.659-.4,24.717,5.029,25.318,12.629s-5.664,13.66-12.641,12.61S.553,19.857.031,12.629,5.691.449,12.677.023Z" transform="matrix(-0.777, 0.629, -0.629, -0.777, 1607.902, 1487.245)" fill="#707070"/>
    <path id="Shape-15" data-name="Shape" d="M77.188.142c42.526-2.588,73.335,30.486,77,76.781s-34.475,83.2-77,76.78-73.822-32.758-77-76.78S34.662,2.73,77.188.142Z" transform="matrix(-0.777, 0.629, -0.629, -0.777, 1626.634, 2.265)" fill="#707070"/>
    <path id="Shape-16" data-name="Shape" d="M77.188.142c42.526-2.588,73.335,30.486,77,76.781s-34.475,83.2-77,76.78-73.822-32.758-77-76.78S34.662,2.73,77.188.142Z" transform="matrix(-0.777, 0.629, -0.629, -0.777, 801.083, -351.718)" fill="#707070"/>
    <path id="Shape-17" data-name="Shape" d="M104.261.192C161.7-3.3,203.319,41.372,208.268,103.9S161.7,216.286,104.261,207.615,4.547,163.367.254,103.9,46.819,3.688,104.261.192Z" transform="matrix(-0.777, 0.629, -0.629, -0.777, 1307.461, 44.361)" fill="#707070"/>
    <path id="Shape-18" data-name="Shape" d="M38.2.389c20.089,3.645,37.859,16.94,37.859,37.838A37.848,37.848,0,0,1,38.2,76.063C17.3,76.063,3.659,56.958.346,38.227S18.116-3.259,38.2.389Z" transform="matrix(-0.777, 0.629, -0.629, -0.777, 1196.403, -280.534)" fill="#707070"/>
  </g>
</svg>
