<svg xmlns="http://www.w3.org/2000/svg" width="2336.334" height="1564.366" viewBox="0 0 2336.334 1564.366">
  <g id="Waimakariri_01" data-name="Waimakariri 01" transform="translate(-440.56 114.939)" opacity="0.06">
    <path id="Shape" d="M244.307,486.671c140.188,0,242.6-108.614,242.6-242.6S368.027-15.087,244.307,1.48-16.958,97.6,1.712,244.076,104.119,486.671,244.307,486.671Z" transform="matrix(0.777, 0.629, -0.629, 0.777, 781.097, 359.847)" fill="#707070"/>
    <path id="Shape-2" data-name="Shape" d="M50.888,101.417c29.2,0,50.53-22.635,50.53-50.554S76.657-3.144,50.888.308-3.532,20.34.356,50.863,21.688,101.417,50.888,101.417Z" transform="matrix(0.777, 0.629, -0.629, 0.777, 558.143, 456.655)" fill="#707070"/>
    <path id="Shape-3" data-name="Shape" d="M128.374,255.849c73.664,0,127.475-57.1,127.475-127.535S193.385-7.931,128.374.778-8.912,51.312.9,128.314,54.711,255.849,128.374,255.849Z" transform="matrix(0.777, 0.629, -0.629, 0.777, 1975.792, 394.153)" fill="#707070"/>
    <path id="Shape-4" data-name="Shape" d="M50.888,101.417c29.2,0,50.53-22.635,50.53-50.554S76.657-3.144,50.888.308-3.532,20.34.356,50.863,21.688,101.417,50.888,101.417Z" transform="matrix(0.777, 0.629, -0.629, 0.777, 1090.585, 783.957)" fill="#707070"/>
    <path id="Shape-5" data-name="Shape" d="M50.888,101.417c29.2,0,50.53-22.635,50.53-50.554S76.657-3.144,50.888.308-3.532,20.34.356,50.863,21.688,101.417,50.888,101.417Z" transform="matrix(0.777, 0.629, -0.629, 0.777, 1336.745, 171.957)" fill="#707070"/>
    <path id="Shape-6" data-name="Shape" d="M23.13,46.1A22.607,22.607,0,0,0,46.1,23.119C46.1,10.428,34.843-1.429,23.13.14S-1.606,9.245.162,23.119,9.858,46.1,23.13,46.1Z" transform="matrix(0.777, 0.629, -0.629, 0.777, 1178.805, 849.367)" fill="#707070"/>
    <path id="Shape-7" data-name="Shape" d="M128.3,237.408c48.26,0,77.519-72.577,84.3-131.059S168.529-5.523,106.3.459,0,47.866,0,106.349,80.04,237.408,128.3,237.408Z" transform="matrix(0.777, 0.629, -0.629, 0.777, 738.675, 137.978)" fill="#707070"/>
    <path id="Shape-8" data-name="Shape" d="M170,324.409c93.66,5.443,161.517-64.1,169.588-161.439S263.662-11.967,170,1.53,7.413,70.408.413,162.97,76.341,318.967,170,324.409Z" transform="matrix(0.777, 0.629, -0.629, 0.777, 644.905, 953.303)" fill="#707070"/>
    <path id="Shape-9" data-name="Shape" d="M203.907,407.593c112.341,6.839,193.731-80.538,203.412-202.835S316.248-15.036,203.907,1.923,8.892,88.462.5,204.758,91.567,400.756,203.907,407.593Z" transform="matrix(0.777, 0.629, -0.629, 0.777, 2459.845, -114.939)" fill="#707070"/>
    <path id="Shape-10" data-name="Shape" d="M101.437,202.764c55.886,3.4,96.374-40.065,101.19-100.9S157.322-7.48,101.437.956,4.423,44.007.247,101.86,45.551,199.362,101.437,202.764Z" transform="matrix(0.777, 0.629, -0.629, 0.777, 1134.792, 926.597)" fill="#707070"/>
    <path id="Shape-11" data-name="Shape" d="M25.346,50.663c13.963.851,24.081-10.01,25.283-25.212S39.309-1.869,25.346.239,1.106,11,.062,25.45,11.382,49.813,25.346,50.663Z" transform="matrix(0.777, 0.629, -0.629, 0.777, 2402.467, 1204.538)" fill="#707070"/>
    <path id="Shape-12" data-name="Shape" d="M12.677,25.335c6.982.425,12.04-5.005,12.641-12.606S19.654-.931,12.677.119.553,5.5.031,12.729,5.691,24.909,12.677,25.335Z" transform="matrix(0.777, 0.629, -0.629, 0.777, 1184.95, 1352.599)" fill="#707070"/>
    <path id="Shape-13" data-name="Shape" d="M77.188,154.289c42.526,2.588,73.335-30.486,77-76.781s-34.475-83.2-77-76.78S3.366,33.486.188,77.508,34.662,151.7,77.188,154.289Z" transform="matrix(0.777, 0.629, -0.629, 0.777, 1522.301, 913.785)" fill="#707070"/>
    <path id="Shape-14" data-name="Shape" d="M25.346,50.663c13.963.851,24.081-10.01,25.283-25.212S39.309-1.869,25.346.239,1.106,11,.062,25.45,11.382,49.813,25.346,50.663Z" transform="matrix(0.777, 0.629, -0.629, 0.777, 635.65, 953.303)" fill="#707070"/>
    <path id="Shape-15" data-name="Shape" d="M25.346,50.663c13.963.851,24.081-10.01,25.283-25.211S39.309-1.869,25.346.239,1.106,11,.062,25.45,11.382,49.812,25.346,50.663Z" transform="matrix(-0.454, 0.891, -0.891, -0.454, 1524.023, 1119.637)" fill="#707070"/>
    <path id="Shape-16" data-name="Shape" d="M77.188,154.289c42.526,2.588,73.335-30.486,77-76.781s-34.475-83.2-77-76.78S3.366,33.486.188,77.508,34.662,151.7,77.188,154.289Z" transform="matrix(0.777, 0.629, -0.629, 0.777, 1077.23, 112.767)" fill="#707070"/>
    <path id="Shape-17" data-name="Shape" d="M236.179,0C364.433,0,447.852,102.916,468.4,232.223s0,280.313,0,403.366S372.648,867.813,236.179,867.813-9.747,758.885,3.956,635.589s-13.7-270.282,0-403.366S107.926,0,236.179,0Z" transform="matrix(0.777, 0.629, -0.629, 0.777, 2290.61, 474.486)" fill="#707070"/>
    <path id="Shape-18" data-name="Shape" d="M104.261,208.406c57.442,3.5,99.059-41.18,104.007-103.711S161.7-7.688,104.261.983,4.547,45.231.254,104.694,46.819,204.91,104.261,208.406Z" transform="matrix(0.777, 0.629, -0.629, 0.777, 1744.757, 611.201)" fill="#707070"/>
    <path id="Shape-19" data-name="Shape" d="M38.2,75.675c20.089-3.645,37.859-16.94,37.859-37.838A37.848,37.848,0,0,0,38.2,0C17.3,0,3.659,19.106.346,37.837S18.116,79.322,38.2,75.675Z" transform="matrix(0.777, 0.629, -0.629, 0.777, 2151.579, 642.746)" fill="#707070"/>
    <path id="Shape-20" data-name="Shape" d="M23.154,45.868C35.329,43.653,46.1,35.6,46.1,22.934A22.934,22.934,0,0,0,23.154,0C10.487,0,2.217,11.579.21,22.934S10.979,48.074,23.154,45.868Z" transform="matrix(0.777, 0.629, -0.629, 0.777, 1830.041, 474.486)" fill="#707070"/>
    <path id="Shape-21" data-name="Shape" d="M208.516,0c115.16,0,208.516,94.362,208.516,210.762s-13.453,253.279,0,366.089S323.64,801.71,208.516,787.614,0,706.656,0,576.851V210.762C0,83.212,93.356,0,208.516,0Z" transform="matrix(0.777, 0.629, -0.629, 0.777, 1681.573, 112.767)" fill="#707070"/>
  </g>
</svg>
