<svg xmlns="http://www.w3.org/2000/svg" width="1920" height="155.4" viewBox="0 0 1920 155.4">
  <g id="Waves" transform="translate(0 -7639.111)">
    <path id="Wave_01" data-name="Wave 01" d="M0,54.911,45.733,64.96C91.467,75.009,182.667,95.107,274.667,88.387,365.733,81.918,457.333,48,548,41.534c92-6.72,184,13.378,274.667,6.657,91.6-6.469,182.667-40.384,274.667-46.853C1188.533-5.382,1280,14.716,1372,28.093,1462.8,41.722,1554.667,48,1645.333,44.862,1737.2,41.722,1828,27.9,1874.667,21.436L1920,14.716V155.4H0Z" transform="translate(0 7639.111)" fill="#fff" opacity="0.4"/>
    <path id="Wave_02" data-name="Wave 02" d="M0,36.617H45.733c45.733,0,136.933,0,228.933,15.666C365.733,68.243,457.333,99.134,548,111.123c92,11.547,184,4.192,274.667-19.564,91.6-23.315,182.667-63.032,274.667-58.84,91.2,3.9,182.667,50.97,274.667,47.072,90.8-4.192,182.667-58.619,273.333-74.579C1737.2-10.455,1828,13.081,1874.667,24.849L1920,36.617V154.3H0Z" transform="translate(0 7639.111)" fill="#fff" opacity="0.45"/>
    <path id="Wave_03" data-name="Wave 03" d="M1920,36.617h-45.733c-45.733,0-136.933,0-228.933,15.666-91.067,15.96-182.667,46.851-273.333,58.84-92,11.547-184,4.192-274.667-19.564-91.6-23.315-182.667-63.032-274.667-58.84C731.467,36.617,640,83.689,548,79.791,457.2,75.6,365.333,21.172,274.667,5.211,182.8-10.455,92,13.081,45.333,24.849L0,36.617V154.3H1920Z" transform="translate(0 7639.111)" fill="#fff" opacity="0.15"/>
    <path id="Wave_04" data-name="Wave 04" d="M0,72.054l53.333,9.007c53.333,9.007,160,27.02,266.667,15.03C426.667,83.876,533.333,42.219,640,21,746.667,0,853.333,0,960,0s213.333,0,320,15.03c106.667,14.8,213.333,45.2,320,51,106.667,6.023,213.333-11.99,266.667-21L1920,36.027V144.109H0Z" transform="translate(0 7650.402)" fill="#fff" opacity="0.5"/>
  </g>
</svg>
